M48
; DRILL file {KiCad 7.0.1} date Wed Aug  9 15:39:41 2023
; FORMAT={-:-/ absolute / inch / decimal}
; #@! TF.CreationDate,2023-08-09T15:39:41-03:00
; #@! TF.GenerationSoftware,Kicad,Pcbnew,7.0.1
; #@! TF.FileFunction,Plated,1,2,PTH
FMAT,2
INCH
; #@! TA.AperFunction,Plated,PTH,ViaDrill
T1C0.0157
; #@! TA.AperFunction,Plated,PTH,ComponentDrill
T2C0.0394
; #@! TA.AperFunction,Plated,PTH,ComponentDrill
T3C0.1260
%
G90
G05
T1
X3.1309Y-4.5522
X3.1348Y-4.5108
X3.1604Y-3.9567
X3.1604Y-4.1171
X3.1604Y-4.2589
X3.2372Y-4.3287
X3.2844Y-4.187
X3.3041Y-4.3957
X3.3268Y-4.4596
X3.3829Y-4.0561
X3.4026Y-4.4508
X3.4193Y-4.0886
X3.4193Y-4.1467
X3.4764Y-4.188
X3.4764Y-4.2618
X3.4764Y-4.4626
X3.5089Y-4.4026
X3.5344Y-3.9567
X3.5344Y-4.1171
X3.5512Y-4.4577
X3.5758Y-4.2618
X3.5758Y-4.3917
X3.6604Y-4.2569
X3.6624Y-4.3622
X3.6998Y-4.2559
X3.75Y-4.2559
X3.75Y-4.3307
X3.7505Y-4.3705
X3.751Y-4.4163
X4.2707Y-4.565
X4.3937Y-4.4272
X4.4006Y-3.9567
X4.4006Y-4.1171
X4.5581Y-4.1102
X4.5817Y-4.3967
X4.5817Y-4.4272
X4.7746Y-3.9567
X4.7746Y-4.1161
X4.7815Y-4.3967
X4.7815Y-4.4272
X4.9321Y-4.1102
X4.9803Y-4.3967
X4.9803Y-4.4272
X5.1486Y-3.9567
X5.1486Y-4.1181
X5.1811Y-4.3967
X5.1811Y-4.4272
X5.3612Y-4.0335
X5.3809Y-4.3967
X5.3809Y-4.4272
X5.4144Y-4.0443
X5.5305Y-4.3553
X5.562Y-4.2215
X5.5817Y-4.4272
X5.585Y-4.36
X5.5894Y-4.3209
X5.628Y-4.313
X5.6575Y-4.2866
X5.6801Y-4.1102
X5.686Y-4.2549
X5.7884Y-4.3415
X5.8317Y-3.9843
X5.8957Y-4.3661
X5.937Y-4.2215
X6.0463Y-4.3524
X6.0541Y-4.1102
X6.0955Y-4.5217
X6.1467Y-4.3524
X6.1959Y-4.5217
X6.2047Y-4.0128
X6.2451Y-4.3524
X6.2963Y-4.5217
X6.3455Y-4.3524
X6.3957Y-4.5217
X6.4281Y-4.1102
X6.4459Y-4.3524
X6.4961Y-4.5217
X6.5463Y-4.3524
X6.5915Y-4.0414
X6.6467Y-4.3524
X6.6959Y-4.5217
X6.7451Y-4.3524
X6.7963Y-4.5207
X6.8022Y-4.1102
X6.8455Y-4.3524
X6.8957Y-4.5197
X6.9459Y-4.3524
X6.9951Y-4.5197
X7.0187Y-4.1181
X7.0463Y-4.3524
X7.0709Y-3.9656
X7.0965Y-4.5177
X7.1467Y-4.3524
X7.1762Y-4.1102
X7.3061Y-4.565
X7.6122Y-4.5856
X7.6801Y-4.501
X7.7224Y-4.5
X7.7628Y-4.5
X7.8051Y-4.5827
X7.8376Y-4.5522
X7.8661Y-4.4577
X7.8671Y-4.5236
X7.8829Y-3.9567
X7.8829Y-4.1171
X7.9977Y-4.1867
X8.0018Y-4.1354
X8.0482Y-4.2677
X8.0482Y-4.4547
X8.0984Y-4.4203
X8.1004Y-4.0689
X8.1467Y-4.4203
X8.1486Y-4.1496
X8.1486Y-4.191
X8.1486Y-4.2667
X8.1988Y-4.3917
X8.1988Y-4.4596
X8.248Y-4.4281
X8.249Y-4.2667
X8.2569Y-4.1171
X8.2579Y-3.9547
X8.3376Y-4.5246
X8.3445Y-4.3297
X8.3878Y-4.4803
X8.4198Y-4.4414
X8.4557Y-4.1063
T2
X4.3309Y-4.565
X4.4309Y-4.565
X4.5309Y-4.565
X4.6309Y-4.565
X4.7309Y-4.565
X4.8309Y-4.565
X4.9309Y-4.565
X5.0309Y-4.565
X5.1309Y-4.565
X5.2309Y-4.565
X5.3309Y-4.565
X5.4309Y-4.565
X5.5309Y-4.565
X5.6309Y-4.565
X5.9459Y-4.565
X6.0459Y-4.565
X6.1459Y-4.565
X6.2459Y-4.565
X6.3459Y-4.565
X6.4459Y-4.565
X6.5459Y-4.565
X6.6459Y-4.565
X6.7459Y-4.565
X6.8459Y-4.565
X6.9459Y-4.565
X7.0459Y-4.565
X7.1459Y-4.565
X7.2459Y-4.565
T3
X4.1152Y-4.0335
X4.1152Y-4.5059
X7.4616Y-4.0335
X7.4616Y-4.5059
T0
M30
