%TF.GenerationSoftware,KiCad,Pcbnew,7.0.1*%
%TF.CreationDate,2023-08-09T15:39:39-03:00*%
%TF.ProjectId,QRE_12A,5152455f-3132-4412-9e6b-696361645f70,rev?*%
%TF.SameCoordinates,Original*%
%TF.FileFunction,Legend,Bot*%
%TF.FilePolarity,Positive*%
%FSLAX46Y46*%
G04 Gerber Fmt 4.6, Leading zero omitted, Abs format (unit mm)*
G04 Created by KiCad (PCBNEW 7.0.1) date 2023-08-09 15:39:39*
%MOMM*%
%LPD*%
G01*
G04 APERTURE LIST*
%ADD10C,0.150000*%
%ADD11C,0.500000*%
%ADD12C,0.200000*%
%ADD13C,0.300000*%
%ADD14C,3.600000*%
%ADD15C,5.600000*%
%ADD16O,1.700000X1.700000*%
%ADD17R,1.700000X1.700000*%
G04 APERTURE END LIST*
D10*
X147040000Y-107950000D02*
X149760000Y-107950000D01*
X149760000Y-117460000D01*
X147040000Y-117460000D01*
X147040000Y-107950000D01*
G36*
X147040000Y-107950000D02*
G01*
X149760000Y-107950000D01*
X149760000Y-117460000D01*
X147040000Y-117460000D01*
X147040000Y-107950000D01*
G37*
D11*
X80600000Y-106550000D02*
X81700000Y-106550000D01*
D12*
X202225000Y-102450000D02*
X202225000Y-99875000D01*
X123275000Y-102450000D02*
X125300000Y-102450000D01*
D11*
X152050000Y-106550000D02*
X150950000Y-106550000D01*
D12*
X151775000Y-102450000D02*
X149750000Y-102450000D01*
D11*
X156525000Y-105450000D02*
X156525000Y-106550000D01*
X209800000Y-106550000D02*
X208700000Y-106550000D01*
D12*
X170775000Y-102450000D02*
X168750000Y-102450000D01*
D11*
X148450000Y-106550000D02*
X147350000Y-106550000D01*
X141250000Y-106550000D02*
X140150000Y-106550000D01*
D12*
X132775000Y-102450000D02*
X132775000Y-99875000D01*
D11*
X86000000Y-106550000D02*
X87100000Y-106550000D01*
X156525000Y-101850000D02*
X156525000Y-102950000D01*
X97525000Y-101850000D02*
X97525000Y-102950000D01*
D12*
X113775000Y-102450000D02*
X113775000Y-99875000D01*
D11*
X208000000Y-106550000D02*
X206900000Y-106550000D01*
D12*
X142275000Y-102450000D02*
X144300000Y-102450000D01*
D11*
X155650000Y-106550000D02*
X154550000Y-106550000D01*
X93200000Y-106550000D02*
X94300000Y-106550000D01*
D12*
X91775000Y-102450000D02*
X89750000Y-102450000D01*
X151775000Y-102450000D02*
X151775000Y-99875000D01*
D11*
X144300000Y-108120000D02*
X111090000Y-108130000D01*
X146650000Y-106550000D02*
X145550000Y-106550000D01*
X149760000Y-108120000D02*
X183050000Y-108110000D01*
X144850000Y-106550000D02*
X143750000Y-106550000D01*
D12*
X211725000Y-102450000D02*
X209700000Y-102450000D01*
X82275000Y-102450000D02*
X84300000Y-102450000D01*
X161275000Y-102450000D02*
X159250000Y-102450000D01*
X123275000Y-102450000D02*
X123275000Y-99875000D01*
D11*
X196525000Y-103650000D02*
X196525000Y-104750000D01*
D12*
X113775000Y-102450000D02*
X111750000Y-102450000D01*
D11*
X137525000Y-100050000D02*
X137525000Y-101150000D01*
D12*
X211725000Y-102450000D02*
X213750000Y-102450000D01*
D11*
X204400000Y-106550000D02*
X203300000Y-106550000D01*
X196525000Y-105450000D02*
X196525000Y-106550000D01*
X200800000Y-106550000D02*
X199700000Y-106550000D01*
X84200000Y-106550000D02*
X85300000Y-106550000D01*
X196525000Y-100050000D02*
X196525000Y-101150000D01*
X215200000Y-106550000D02*
X214100000Y-106550000D01*
X91400000Y-106550000D02*
X92500000Y-106550000D01*
X156525000Y-100050000D02*
X156525000Y-101150000D01*
D12*
X180275000Y-102450000D02*
X178250000Y-102450000D01*
X180275000Y-102450000D02*
X182300000Y-102450000D01*
D11*
X97525000Y-103650000D02*
X97525000Y-104750000D01*
X137525000Y-105450000D02*
X137525000Y-106550000D01*
D10*
X183000000Y-107940000D02*
X185100000Y-107940000D01*
X185100000Y-117275400D01*
X183000000Y-117275400D01*
X183000000Y-107940000D01*
G36*
X183000000Y-107940000D02*
G01*
X185100000Y-107940000D01*
X185100000Y-117275400D01*
X183000000Y-117275400D01*
X183000000Y-107940000D01*
G37*
D12*
X161275000Y-102450000D02*
X163300000Y-102450000D01*
D11*
X196525000Y-101850000D02*
X196525000Y-102950000D01*
D12*
X82275000Y-102450000D02*
X82275000Y-99875000D01*
D11*
X211600000Y-106550000D02*
X210500000Y-106550000D01*
X137525000Y-103650000D02*
X137525000Y-104750000D01*
X137525000Y-101850000D02*
X137525000Y-102950000D01*
X89600000Y-106550000D02*
X90700000Y-106550000D01*
D12*
X161275000Y-102450000D02*
X161275000Y-99875000D01*
D11*
X213400000Y-106550000D02*
X212300000Y-106550000D01*
X95000000Y-106550000D02*
X96100000Y-106550000D01*
D12*
X211725000Y-102450000D02*
X211725000Y-99875000D01*
X170775000Y-102450000D02*
X172800000Y-102450000D01*
X132775000Y-102450000D02*
X130750000Y-102450000D01*
X202225000Y-102450000D02*
X204250000Y-102450000D01*
D11*
X97525000Y-100050000D02*
X97525000Y-101150000D01*
D10*
X144300000Y-107950000D02*
X147040000Y-107950000D01*
X147040000Y-117460000D01*
X144300000Y-117460000D01*
X144300000Y-107950000D01*
G36*
X144300000Y-107950000D02*
G01*
X147040000Y-107950000D01*
X147040000Y-117460000D01*
X144300000Y-117460000D01*
X144300000Y-107950000D01*
G37*
D12*
X132775000Y-102450000D02*
X134800000Y-102450000D01*
D11*
X82400000Y-106550000D02*
X83500000Y-106550000D01*
X202600000Y-106550000D02*
X201500000Y-106550000D01*
D12*
X170775000Y-102450000D02*
X170775000Y-99875000D01*
X91775000Y-102450000D02*
X91775000Y-99875000D01*
D11*
X156525000Y-103650000D02*
X156525000Y-104750000D01*
X139450000Y-106550000D02*
X138350000Y-106550000D01*
D12*
X142275000Y-102450000D02*
X140250000Y-102450000D01*
D11*
X199000000Y-106550000D02*
X197900000Y-106550000D01*
X97525000Y-105450000D02*
X97525000Y-106550000D01*
X78800000Y-106550000D02*
X79900000Y-106550000D01*
D12*
X180275000Y-102450000D02*
X180275000Y-99875000D01*
X91775000Y-102450000D02*
X93800000Y-102450000D01*
X151775000Y-102450000D02*
X153800000Y-102450000D01*
D11*
X87800000Y-106550000D02*
X88900000Y-106550000D01*
X153850000Y-106550000D02*
X152750000Y-106550000D01*
D12*
X123275000Y-102450000D02*
X121250000Y-102450000D01*
X202225000Y-102450000D02*
X200200000Y-102450000D01*
D10*
X108950000Y-107950000D02*
X111050000Y-107950000D01*
X111050000Y-117250000D01*
X108950000Y-117250000D01*
X108950000Y-107950000D01*
G36*
X108950000Y-107950000D02*
G01*
X111050000Y-107950000D01*
X111050000Y-117250000D01*
X108950000Y-117250000D01*
X108950000Y-107950000D01*
G37*
D11*
X206200000Y-106550000D02*
X205100000Y-106550000D01*
X150250000Y-106550000D02*
X149150000Y-106550000D01*
D12*
X142275000Y-102450000D02*
X142275000Y-99875000D01*
X113775000Y-102450000D02*
X115800000Y-102450000D01*
D11*
X143050000Y-106550000D02*
X141950000Y-106550000D01*
D12*
X82275000Y-102450000D02*
X80250000Y-102450000D01*
X161036904Y-102812619D02*
X161513094Y-102812619D01*
X161513094Y-102812619D02*
X161560713Y-103288809D01*
X161560713Y-103288809D02*
X161513094Y-103241190D01*
X161513094Y-103241190D02*
X161417856Y-103193571D01*
X161417856Y-103193571D02*
X161179761Y-103193571D01*
X161179761Y-103193571D02*
X161084523Y-103241190D01*
X161084523Y-103241190D02*
X161036904Y-103288809D01*
X161036904Y-103288809D02*
X160989285Y-103384047D01*
X160989285Y-103384047D02*
X160989285Y-103622142D01*
X160989285Y-103622142D02*
X161036904Y-103717380D01*
X161036904Y-103717380D02*
X161084523Y-103765000D01*
X161084523Y-103765000D02*
X161179761Y-103812619D01*
X161179761Y-103812619D02*
X161417856Y-103812619D01*
X161417856Y-103812619D02*
X161513094Y-103765000D01*
X161513094Y-103765000D02*
X161560713Y-103717380D01*
D13*
X169345142Y-111594286D02*
X168145142Y-111594286D01*
X168145142Y-111594286D02*
X168145142Y-111880000D01*
X168145142Y-111880000D02*
X168202285Y-112051429D01*
X168202285Y-112051429D02*
X168316571Y-112165714D01*
X168316571Y-112165714D02*
X168430857Y-112222857D01*
X168430857Y-112222857D02*
X168659428Y-112280000D01*
X168659428Y-112280000D02*
X168830857Y-112280000D01*
X168830857Y-112280000D02*
X169059428Y-112222857D01*
X169059428Y-112222857D02*
X169173714Y-112165714D01*
X169173714Y-112165714D02*
X169288000Y-112051429D01*
X169288000Y-112051429D02*
X169345142Y-111880000D01*
X169345142Y-111880000D02*
X169345142Y-111594286D01*
X168145142Y-113308572D02*
X168145142Y-113080000D01*
X168145142Y-113080000D02*
X168202285Y-112965714D01*
X168202285Y-112965714D02*
X168259428Y-112908572D01*
X168259428Y-112908572D02*
X168430857Y-112794286D01*
X168430857Y-112794286D02*
X168659428Y-112737143D01*
X168659428Y-112737143D02*
X169116571Y-112737143D01*
X169116571Y-112737143D02*
X169230857Y-112794286D01*
X169230857Y-112794286D02*
X169288000Y-112851429D01*
X169288000Y-112851429D02*
X169345142Y-112965714D01*
X169345142Y-112965714D02*
X169345142Y-113194286D01*
X169345142Y-113194286D02*
X169288000Y-113308572D01*
X169288000Y-113308572D02*
X169230857Y-113365714D01*
X169230857Y-113365714D02*
X169116571Y-113422857D01*
X169116571Y-113422857D02*
X168830857Y-113422857D01*
X168830857Y-113422857D02*
X168716571Y-113365714D01*
X168716571Y-113365714D02*
X168659428Y-113308572D01*
X168659428Y-113308572D02*
X168602285Y-113194286D01*
X168602285Y-113194286D02*
X168602285Y-112965714D01*
X168602285Y-112965714D02*
X168659428Y-112851429D01*
X168659428Y-112851429D02*
X168716571Y-112794286D01*
X168716571Y-112794286D02*
X168830857Y-112737143D01*
X117832285Y-111021429D02*
X117832285Y-111592858D01*
X118175142Y-110907143D02*
X116975142Y-111307143D01*
X116975142Y-111307143D02*
X118175142Y-111707143D01*
X118175142Y-112735714D02*
X118175142Y-112050000D01*
X118175142Y-112392857D02*
X116975142Y-112392857D01*
X116975142Y-112392857D02*
X117146571Y-112278571D01*
X117146571Y-112278571D02*
X117260857Y-112164286D01*
X117260857Y-112164286D02*
X117318000Y-112050000D01*
X116975142Y-113478571D02*
X116975142Y-113592857D01*
X116975142Y-113592857D02*
X117032285Y-113707143D01*
X117032285Y-113707143D02*
X117089428Y-113764286D01*
X117089428Y-113764286D02*
X117203714Y-113821428D01*
X117203714Y-113821428D02*
X117432285Y-113878571D01*
X117432285Y-113878571D02*
X117718000Y-113878571D01*
X117718000Y-113878571D02*
X117946571Y-113821428D01*
X117946571Y-113821428D02*
X118060857Y-113764286D01*
X118060857Y-113764286D02*
X118118000Y-113707143D01*
X118118000Y-113707143D02*
X118175142Y-113592857D01*
X118175142Y-113592857D02*
X118175142Y-113478571D01*
X118175142Y-113478571D02*
X118118000Y-113364286D01*
X118118000Y-113364286D02*
X118060857Y-113307143D01*
X118060857Y-113307143D02*
X117946571Y-113250000D01*
X117946571Y-113250000D02*
X117718000Y-113192857D01*
X117718000Y-113192857D02*
X117432285Y-113192857D01*
X117432285Y-113192857D02*
X117203714Y-113250000D01*
X117203714Y-113250000D02*
X117089428Y-113307143D01*
X117089428Y-113307143D02*
X117032285Y-113364286D01*
X117032285Y-113364286D02*
X116975142Y-113478571D01*
X140692285Y-111592857D02*
X140692285Y-112164286D01*
X141035142Y-111478571D02*
X139835142Y-111878571D01*
X139835142Y-111878571D02*
X141035142Y-112278571D01*
X141035142Y-113307142D02*
X141035142Y-112621428D01*
X141035142Y-112964285D02*
X139835142Y-112964285D01*
X139835142Y-112964285D02*
X140006571Y-112849999D01*
X140006571Y-112849999D02*
X140120857Y-112735714D01*
X140120857Y-112735714D02*
X140178000Y-112621428D01*
D12*
X180608332Y-102812619D02*
X179989285Y-102812619D01*
X179989285Y-102812619D02*
X180322618Y-103193571D01*
X180322618Y-103193571D02*
X180179761Y-103193571D01*
X180179761Y-103193571D02*
X180084523Y-103241190D01*
X180084523Y-103241190D02*
X180036904Y-103288809D01*
X180036904Y-103288809D02*
X179989285Y-103384047D01*
X179989285Y-103384047D02*
X179989285Y-103622142D01*
X179989285Y-103622142D02*
X180036904Y-103717380D01*
X180036904Y-103717380D02*
X180084523Y-103765000D01*
X180084523Y-103765000D02*
X180179761Y-103812619D01*
X180179761Y-103812619D02*
X180465475Y-103812619D01*
X180465475Y-103812619D02*
X180560713Y-103765000D01*
X180560713Y-103765000D02*
X180608332Y-103717380D01*
D13*
X120372285Y-111592857D02*
X120372285Y-112164286D01*
X120715142Y-111478571D02*
X119515142Y-111878571D01*
X119515142Y-111878571D02*
X120715142Y-112278571D01*
X120715142Y-112735714D02*
X120715142Y-112964285D01*
X120715142Y-112964285D02*
X120658000Y-113078571D01*
X120658000Y-113078571D02*
X120600857Y-113135714D01*
X120600857Y-113135714D02*
X120429428Y-113249999D01*
X120429428Y-113249999D02*
X120200857Y-113307142D01*
X120200857Y-113307142D02*
X119743714Y-113307142D01*
X119743714Y-113307142D02*
X119629428Y-113249999D01*
X119629428Y-113249999D02*
X119572285Y-113192857D01*
X119572285Y-113192857D02*
X119515142Y-113078571D01*
X119515142Y-113078571D02*
X119515142Y-112849999D01*
X119515142Y-112849999D02*
X119572285Y-112735714D01*
X119572285Y-112735714D02*
X119629428Y-112678571D01*
X119629428Y-112678571D02*
X119743714Y-112621428D01*
X119743714Y-112621428D02*
X120029428Y-112621428D01*
X120029428Y-112621428D02*
X120143714Y-112678571D01*
X120143714Y-112678571D02*
X120200857Y-112735714D01*
X120200857Y-112735714D02*
X120258000Y-112849999D01*
X120258000Y-112849999D02*
X120258000Y-113078571D01*
X120258000Y-113078571D02*
X120200857Y-113192857D01*
X120200857Y-113192857D02*
X120143714Y-113249999D01*
X120143714Y-113249999D02*
X120029428Y-113307142D01*
X127992285Y-111592857D02*
X127992285Y-112164286D01*
X128335142Y-111478571D02*
X127135142Y-111878571D01*
X127135142Y-111878571D02*
X128335142Y-112278571D01*
X127135142Y-113192857D02*
X127135142Y-112964285D01*
X127135142Y-112964285D02*
X127192285Y-112849999D01*
X127192285Y-112849999D02*
X127249428Y-112792857D01*
X127249428Y-112792857D02*
X127420857Y-112678571D01*
X127420857Y-112678571D02*
X127649428Y-112621428D01*
X127649428Y-112621428D02*
X128106571Y-112621428D01*
X128106571Y-112621428D02*
X128220857Y-112678571D01*
X128220857Y-112678571D02*
X128278000Y-112735714D01*
X128278000Y-112735714D02*
X128335142Y-112849999D01*
X128335142Y-112849999D02*
X128335142Y-113078571D01*
X128335142Y-113078571D02*
X128278000Y-113192857D01*
X128278000Y-113192857D02*
X128220857Y-113249999D01*
X128220857Y-113249999D02*
X128106571Y-113307142D01*
X128106571Y-113307142D02*
X127820857Y-113307142D01*
X127820857Y-113307142D02*
X127706571Y-113249999D01*
X127706571Y-113249999D02*
X127649428Y-113192857D01*
X127649428Y-113192857D02*
X127592285Y-113078571D01*
X127592285Y-113078571D02*
X127592285Y-112849999D01*
X127592285Y-112849999D02*
X127649428Y-112735714D01*
X127649428Y-112735714D02*
X127706571Y-112678571D01*
X127706571Y-112678571D02*
X127820857Y-112621428D01*
X125452285Y-111592857D02*
X125452285Y-112164286D01*
X125795142Y-111478571D02*
X124595142Y-111878571D01*
X124595142Y-111878571D02*
X125795142Y-112278571D01*
X124595142Y-112564285D02*
X124595142Y-113364285D01*
X124595142Y-113364285D02*
X125795142Y-112849999D01*
D12*
X91965476Y-103812619D02*
X92536904Y-103812619D01*
X92251190Y-103812619D02*
X92251190Y-102812619D01*
X92251190Y-102812619D02*
X92346428Y-102955476D01*
X92346428Y-102955476D02*
X92441666Y-103050714D01*
X92441666Y-103050714D02*
X92536904Y-103098333D01*
X91013095Y-103812619D02*
X91584523Y-103812619D01*
X91298809Y-103812619D02*
X91298809Y-102812619D01*
X91298809Y-102812619D02*
X91394047Y-102955476D01*
X91394047Y-102955476D02*
X91489285Y-103050714D01*
X91489285Y-103050714D02*
X91584523Y-103098333D01*
X123465475Y-103812619D02*
X123274999Y-103812619D01*
X123274999Y-103812619D02*
X123179761Y-103765000D01*
X123179761Y-103765000D02*
X123132142Y-103717380D01*
X123132142Y-103717380D02*
X123036904Y-103574523D01*
X123036904Y-103574523D02*
X122989285Y-103384047D01*
X122989285Y-103384047D02*
X122989285Y-103003095D01*
X122989285Y-103003095D02*
X123036904Y-102907857D01*
X123036904Y-102907857D02*
X123084523Y-102860238D01*
X123084523Y-102860238D02*
X123179761Y-102812619D01*
X123179761Y-102812619D02*
X123370237Y-102812619D01*
X123370237Y-102812619D02*
X123465475Y-102860238D01*
X123465475Y-102860238D02*
X123513094Y-102907857D01*
X123513094Y-102907857D02*
X123560713Y-103003095D01*
X123560713Y-103003095D02*
X123560713Y-103241190D01*
X123560713Y-103241190D02*
X123513094Y-103336428D01*
X123513094Y-103336428D02*
X123465475Y-103384047D01*
X123465475Y-103384047D02*
X123370237Y-103431666D01*
X123370237Y-103431666D02*
X123179761Y-103431666D01*
X123179761Y-103431666D02*
X123084523Y-103384047D01*
X123084523Y-103384047D02*
X123036904Y-103336428D01*
X123036904Y-103336428D02*
X122989285Y-103241190D01*
D13*
X122912285Y-111592857D02*
X122912285Y-112164286D01*
X123255142Y-111478571D02*
X122055142Y-111878571D01*
X122055142Y-111878571D02*
X123255142Y-112278571D01*
X122569428Y-112849999D02*
X122512285Y-112735714D01*
X122512285Y-112735714D02*
X122455142Y-112678571D01*
X122455142Y-112678571D02*
X122340857Y-112621428D01*
X122340857Y-112621428D02*
X122283714Y-112621428D01*
X122283714Y-112621428D02*
X122169428Y-112678571D01*
X122169428Y-112678571D02*
X122112285Y-112735714D01*
X122112285Y-112735714D02*
X122055142Y-112849999D01*
X122055142Y-112849999D02*
X122055142Y-113078571D01*
X122055142Y-113078571D02*
X122112285Y-113192857D01*
X122112285Y-113192857D02*
X122169428Y-113249999D01*
X122169428Y-113249999D02*
X122283714Y-113307142D01*
X122283714Y-113307142D02*
X122340857Y-113307142D01*
X122340857Y-113307142D02*
X122455142Y-113249999D01*
X122455142Y-113249999D02*
X122512285Y-113192857D01*
X122512285Y-113192857D02*
X122569428Y-113078571D01*
X122569428Y-113078571D02*
X122569428Y-112849999D01*
X122569428Y-112849999D02*
X122626571Y-112735714D01*
X122626571Y-112735714D02*
X122683714Y-112678571D01*
X122683714Y-112678571D02*
X122798000Y-112621428D01*
X122798000Y-112621428D02*
X123026571Y-112621428D01*
X123026571Y-112621428D02*
X123140857Y-112678571D01*
X123140857Y-112678571D02*
X123198000Y-112735714D01*
X123198000Y-112735714D02*
X123255142Y-112849999D01*
X123255142Y-112849999D02*
X123255142Y-113078571D01*
X123255142Y-113078571D02*
X123198000Y-113192857D01*
X123198000Y-113192857D02*
X123140857Y-113249999D01*
X123140857Y-113249999D02*
X123026571Y-113307142D01*
X123026571Y-113307142D02*
X122798000Y-113307142D01*
X122798000Y-113307142D02*
X122683714Y-113249999D01*
X122683714Y-113249999D02*
X122626571Y-113192857D01*
X122626571Y-113192857D02*
X122569428Y-113078571D01*
X138152285Y-111592857D02*
X138152285Y-112164286D01*
X138495142Y-111478571D02*
X137295142Y-111878571D01*
X137295142Y-111878571D02*
X138495142Y-112278571D01*
X137409428Y-112621428D02*
X137352285Y-112678571D01*
X137352285Y-112678571D02*
X137295142Y-112792857D01*
X137295142Y-112792857D02*
X137295142Y-113078571D01*
X137295142Y-113078571D02*
X137352285Y-113192857D01*
X137352285Y-113192857D02*
X137409428Y-113249999D01*
X137409428Y-113249999D02*
X137523714Y-113307142D01*
X137523714Y-113307142D02*
X137638000Y-113307142D01*
X137638000Y-113307142D02*
X137809428Y-113249999D01*
X137809428Y-113249999D02*
X138495142Y-112564285D01*
X138495142Y-112564285D02*
X138495142Y-113307142D01*
X154105142Y-111022857D02*
X152905142Y-111022857D01*
X152905142Y-111022857D02*
X152905142Y-111308571D01*
X152905142Y-111308571D02*
X152962285Y-111480000D01*
X152962285Y-111480000D02*
X153076571Y-111594285D01*
X153076571Y-111594285D02*
X153190857Y-111651428D01*
X153190857Y-111651428D02*
X153419428Y-111708571D01*
X153419428Y-111708571D02*
X153590857Y-111708571D01*
X153590857Y-111708571D02*
X153819428Y-111651428D01*
X153819428Y-111651428D02*
X153933714Y-111594285D01*
X153933714Y-111594285D02*
X154048000Y-111480000D01*
X154048000Y-111480000D02*
X154105142Y-111308571D01*
X154105142Y-111308571D02*
X154105142Y-111022857D01*
X154105142Y-112851428D02*
X154105142Y-112165714D01*
X154105142Y-112508571D02*
X152905142Y-112508571D01*
X152905142Y-112508571D02*
X153076571Y-112394285D01*
X153076571Y-112394285D02*
X153190857Y-112280000D01*
X153190857Y-112280000D02*
X153248000Y-112165714D01*
X153019428Y-113308571D02*
X152962285Y-113365714D01*
X152962285Y-113365714D02*
X152905142Y-113480000D01*
X152905142Y-113480000D02*
X152905142Y-113765714D01*
X152905142Y-113765714D02*
X152962285Y-113880000D01*
X152962285Y-113880000D02*
X153019428Y-113937142D01*
X153019428Y-113937142D02*
X153133714Y-113994285D01*
X153133714Y-113994285D02*
X153248000Y-113994285D01*
X153248000Y-113994285D02*
X153419428Y-113937142D01*
X153419428Y-113937142D02*
X154105142Y-113251428D01*
X154105142Y-113251428D02*
X154105142Y-113994285D01*
X135612285Y-111592857D02*
X135612285Y-112164286D01*
X135955142Y-111478571D02*
X134755142Y-111878571D01*
X134755142Y-111878571D02*
X135955142Y-112278571D01*
X134755142Y-112564285D02*
X134755142Y-113307142D01*
X134755142Y-113307142D02*
X135212285Y-112907142D01*
X135212285Y-112907142D02*
X135212285Y-113078571D01*
X135212285Y-113078571D02*
X135269428Y-113192857D01*
X135269428Y-113192857D02*
X135326571Y-113249999D01*
X135326571Y-113249999D02*
X135440857Y-113307142D01*
X135440857Y-113307142D02*
X135726571Y-113307142D01*
X135726571Y-113307142D02*
X135840857Y-113249999D01*
X135840857Y-113249999D02*
X135898000Y-113192857D01*
X135898000Y-113192857D02*
X135955142Y-113078571D01*
X135955142Y-113078571D02*
X135955142Y-112735714D01*
X135955142Y-112735714D02*
X135898000Y-112621428D01*
X135898000Y-112621428D02*
X135840857Y-112564285D01*
D12*
X202510713Y-102907857D02*
X202463094Y-102860238D01*
X202463094Y-102860238D02*
X202367856Y-102812619D01*
X202367856Y-102812619D02*
X202129761Y-102812619D01*
X202129761Y-102812619D02*
X202034523Y-102860238D01*
X202034523Y-102860238D02*
X201986904Y-102907857D01*
X201986904Y-102907857D02*
X201939285Y-103003095D01*
X201939285Y-103003095D02*
X201939285Y-103098333D01*
X201939285Y-103098333D02*
X201986904Y-103241190D01*
X201986904Y-103241190D02*
X202558332Y-103812619D01*
X202558332Y-103812619D02*
X201939285Y-103812619D01*
D13*
X142385142Y-110850000D02*
X143585142Y-111250000D01*
X143585142Y-111250000D02*
X142385142Y-111650000D01*
X143470857Y-112735714D02*
X143528000Y-112678571D01*
X143528000Y-112678571D02*
X143585142Y-112507143D01*
X143585142Y-112507143D02*
X143585142Y-112392857D01*
X143585142Y-112392857D02*
X143528000Y-112221428D01*
X143528000Y-112221428D02*
X143413714Y-112107143D01*
X143413714Y-112107143D02*
X143299428Y-112050000D01*
X143299428Y-112050000D02*
X143070857Y-111992857D01*
X143070857Y-111992857D02*
X142899428Y-111992857D01*
X142899428Y-111992857D02*
X142670857Y-112050000D01*
X142670857Y-112050000D02*
X142556571Y-112107143D01*
X142556571Y-112107143D02*
X142442285Y-112221428D01*
X142442285Y-112221428D02*
X142385142Y-112392857D01*
X142385142Y-112392857D02*
X142385142Y-112507143D01*
X142385142Y-112507143D02*
X142442285Y-112678571D01*
X142442285Y-112678571D02*
X142499428Y-112735714D01*
X143470857Y-113935714D02*
X143528000Y-113878571D01*
X143528000Y-113878571D02*
X143585142Y-113707143D01*
X143585142Y-113707143D02*
X143585142Y-113592857D01*
X143585142Y-113592857D02*
X143528000Y-113421428D01*
X143528000Y-113421428D02*
X143413714Y-113307143D01*
X143413714Y-113307143D02*
X143299428Y-113250000D01*
X143299428Y-113250000D02*
X143070857Y-113192857D01*
X143070857Y-113192857D02*
X142899428Y-113192857D01*
X142899428Y-113192857D02*
X142670857Y-113250000D01*
X142670857Y-113250000D02*
X142556571Y-113307143D01*
X142556571Y-113307143D02*
X142442285Y-113421428D01*
X142442285Y-113421428D02*
X142385142Y-113592857D01*
X142385142Y-113592857D02*
X142385142Y-113707143D01*
X142385142Y-113707143D02*
X142442285Y-113878571D01*
X142442285Y-113878571D02*
X142499428Y-113935714D01*
D12*
X170584523Y-103145952D02*
X170584523Y-103812619D01*
X170822618Y-102765000D02*
X171060713Y-103479285D01*
X171060713Y-103479285D02*
X170441666Y-103479285D01*
D13*
X179505142Y-111594286D02*
X178305142Y-111594286D01*
X178305142Y-111594286D02*
X178305142Y-111880000D01*
X178305142Y-111880000D02*
X178362285Y-112051429D01*
X178362285Y-112051429D02*
X178476571Y-112165714D01*
X178476571Y-112165714D02*
X178590857Y-112222857D01*
X178590857Y-112222857D02*
X178819428Y-112280000D01*
X178819428Y-112280000D02*
X178990857Y-112280000D01*
X178990857Y-112280000D02*
X179219428Y-112222857D01*
X179219428Y-112222857D02*
X179333714Y-112165714D01*
X179333714Y-112165714D02*
X179448000Y-112051429D01*
X179448000Y-112051429D02*
X179505142Y-111880000D01*
X179505142Y-111880000D02*
X179505142Y-111594286D01*
X178419428Y-112737143D02*
X178362285Y-112794286D01*
X178362285Y-112794286D02*
X178305142Y-112908572D01*
X178305142Y-112908572D02*
X178305142Y-113194286D01*
X178305142Y-113194286D02*
X178362285Y-113308572D01*
X178362285Y-113308572D02*
X178419428Y-113365714D01*
X178419428Y-113365714D02*
X178533714Y-113422857D01*
X178533714Y-113422857D02*
X178648000Y-113422857D01*
X178648000Y-113422857D02*
X178819428Y-113365714D01*
X178819428Y-113365714D02*
X179505142Y-112680000D01*
X179505142Y-112680000D02*
X179505142Y-113422857D01*
X156655142Y-111012857D02*
X155455142Y-111012857D01*
X155455142Y-111012857D02*
X155455142Y-111298571D01*
X155455142Y-111298571D02*
X155512285Y-111470000D01*
X155512285Y-111470000D02*
X155626571Y-111584285D01*
X155626571Y-111584285D02*
X155740857Y-111641428D01*
X155740857Y-111641428D02*
X155969428Y-111698571D01*
X155969428Y-111698571D02*
X156140857Y-111698571D01*
X156140857Y-111698571D02*
X156369428Y-111641428D01*
X156369428Y-111641428D02*
X156483714Y-111584285D01*
X156483714Y-111584285D02*
X156598000Y-111470000D01*
X156598000Y-111470000D02*
X156655142Y-111298571D01*
X156655142Y-111298571D02*
X156655142Y-111012857D01*
X156655142Y-112841428D02*
X156655142Y-112155714D01*
X156655142Y-112498571D02*
X155455142Y-112498571D01*
X155455142Y-112498571D02*
X155626571Y-112384285D01*
X155626571Y-112384285D02*
X155740857Y-112270000D01*
X155740857Y-112270000D02*
X155798000Y-112155714D01*
X156655142Y-113984285D02*
X156655142Y-113298571D01*
X156655142Y-113641428D02*
X155455142Y-113641428D01*
X155455142Y-113641428D02*
X155626571Y-113527142D01*
X155626571Y-113527142D02*
X155740857Y-113412857D01*
X155740857Y-113412857D02*
X155798000Y-113298571D01*
X166805142Y-111594286D02*
X165605142Y-111594286D01*
X165605142Y-111594286D02*
X165605142Y-111880000D01*
X165605142Y-111880000D02*
X165662285Y-112051429D01*
X165662285Y-112051429D02*
X165776571Y-112165714D01*
X165776571Y-112165714D02*
X165890857Y-112222857D01*
X165890857Y-112222857D02*
X166119428Y-112280000D01*
X166119428Y-112280000D02*
X166290857Y-112280000D01*
X166290857Y-112280000D02*
X166519428Y-112222857D01*
X166519428Y-112222857D02*
X166633714Y-112165714D01*
X166633714Y-112165714D02*
X166748000Y-112051429D01*
X166748000Y-112051429D02*
X166805142Y-111880000D01*
X166805142Y-111880000D02*
X166805142Y-111594286D01*
X165605142Y-112680000D02*
X165605142Y-113480000D01*
X165605142Y-113480000D02*
X166805142Y-112965714D01*
X159185142Y-111022857D02*
X157985142Y-111022857D01*
X157985142Y-111022857D02*
X157985142Y-111308571D01*
X157985142Y-111308571D02*
X158042285Y-111480000D01*
X158042285Y-111480000D02*
X158156571Y-111594285D01*
X158156571Y-111594285D02*
X158270857Y-111651428D01*
X158270857Y-111651428D02*
X158499428Y-111708571D01*
X158499428Y-111708571D02*
X158670857Y-111708571D01*
X158670857Y-111708571D02*
X158899428Y-111651428D01*
X158899428Y-111651428D02*
X159013714Y-111594285D01*
X159013714Y-111594285D02*
X159128000Y-111480000D01*
X159128000Y-111480000D02*
X159185142Y-111308571D01*
X159185142Y-111308571D02*
X159185142Y-111022857D01*
X159185142Y-112851428D02*
X159185142Y-112165714D01*
X159185142Y-112508571D02*
X157985142Y-112508571D01*
X157985142Y-112508571D02*
X158156571Y-112394285D01*
X158156571Y-112394285D02*
X158270857Y-112280000D01*
X158270857Y-112280000D02*
X158328000Y-112165714D01*
X157985142Y-113594285D02*
X157985142Y-113708571D01*
X157985142Y-113708571D02*
X158042285Y-113822857D01*
X158042285Y-113822857D02*
X158099428Y-113880000D01*
X158099428Y-113880000D02*
X158213714Y-113937142D01*
X158213714Y-113937142D02*
X158442285Y-113994285D01*
X158442285Y-113994285D02*
X158728000Y-113994285D01*
X158728000Y-113994285D02*
X158956571Y-113937142D01*
X158956571Y-113937142D02*
X159070857Y-113880000D01*
X159070857Y-113880000D02*
X159128000Y-113822857D01*
X159128000Y-113822857D02*
X159185142Y-113708571D01*
X159185142Y-113708571D02*
X159185142Y-113594285D01*
X159185142Y-113594285D02*
X159128000Y-113480000D01*
X159128000Y-113480000D02*
X159070857Y-113422857D01*
X159070857Y-113422857D02*
X158956571Y-113365714D01*
X158956571Y-113365714D02*
X158728000Y-113308571D01*
X158728000Y-113308571D02*
X158442285Y-113308571D01*
X158442285Y-113308571D02*
X158213714Y-113365714D01*
X158213714Y-113365714D02*
X158099428Y-113422857D01*
X158099428Y-113422857D02*
X158042285Y-113480000D01*
X158042285Y-113480000D02*
X157985142Y-113594285D01*
D12*
X211439285Y-103812619D02*
X212010713Y-103812619D01*
X211724999Y-103812619D02*
X211724999Y-102812619D01*
X211724999Y-102812619D02*
X211820237Y-102955476D01*
X211820237Y-102955476D02*
X211915475Y-103050714D01*
X211915475Y-103050714D02*
X212010713Y-103098333D01*
D13*
X176965142Y-111594286D02*
X175765142Y-111594286D01*
X175765142Y-111594286D02*
X175765142Y-111880000D01*
X175765142Y-111880000D02*
X175822285Y-112051429D01*
X175822285Y-112051429D02*
X175936571Y-112165714D01*
X175936571Y-112165714D02*
X176050857Y-112222857D01*
X176050857Y-112222857D02*
X176279428Y-112280000D01*
X176279428Y-112280000D02*
X176450857Y-112280000D01*
X176450857Y-112280000D02*
X176679428Y-112222857D01*
X176679428Y-112222857D02*
X176793714Y-112165714D01*
X176793714Y-112165714D02*
X176908000Y-112051429D01*
X176908000Y-112051429D02*
X176965142Y-111880000D01*
X176965142Y-111880000D02*
X176965142Y-111594286D01*
X175765142Y-112680000D02*
X175765142Y-113422857D01*
X175765142Y-113422857D02*
X176222285Y-113022857D01*
X176222285Y-113022857D02*
X176222285Y-113194286D01*
X176222285Y-113194286D02*
X176279428Y-113308572D01*
X176279428Y-113308572D02*
X176336571Y-113365714D01*
X176336571Y-113365714D02*
X176450857Y-113422857D01*
X176450857Y-113422857D02*
X176736571Y-113422857D01*
X176736571Y-113422857D02*
X176850857Y-113365714D01*
X176850857Y-113365714D02*
X176908000Y-113308572D01*
X176908000Y-113308572D02*
X176965142Y-113194286D01*
X176965142Y-113194286D02*
X176965142Y-112851429D01*
X176965142Y-112851429D02*
X176908000Y-112737143D01*
X176908000Y-112737143D02*
X176850857Y-112680000D01*
X115302285Y-111011429D02*
X115302285Y-111582858D01*
X115645142Y-110897143D02*
X114445142Y-111297143D01*
X114445142Y-111297143D02*
X115645142Y-111697143D01*
X115645142Y-112725714D02*
X115645142Y-112040000D01*
X115645142Y-112382857D02*
X114445142Y-112382857D01*
X114445142Y-112382857D02*
X114616571Y-112268571D01*
X114616571Y-112268571D02*
X114730857Y-112154286D01*
X114730857Y-112154286D02*
X114788000Y-112040000D01*
X115645142Y-113868571D02*
X115645142Y-113182857D01*
X115645142Y-113525714D02*
X114445142Y-113525714D01*
X114445142Y-113525714D02*
X114616571Y-113411428D01*
X114616571Y-113411428D02*
X114730857Y-113297143D01*
X114730857Y-113297143D02*
X114788000Y-113182857D01*
X164265142Y-111594286D02*
X163065142Y-111594286D01*
X163065142Y-111594286D02*
X163065142Y-111880000D01*
X163065142Y-111880000D02*
X163122285Y-112051429D01*
X163122285Y-112051429D02*
X163236571Y-112165714D01*
X163236571Y-112165714D02*
X163350857Y-112222857D01*
X163350857Y-112222857D02*
X163579428Y-112280000D01*
X163579428Y-112280000D02*
X163750857Y-112280000D01*
X163750857Y-112280000D02*
X163979428Y-112222857D01*
X163979428Y-112222857D02*
X164093714Y-112165714D01*
X164093714Y-112165714D02*
X164208000Y-112051429D01*
X164208000Y-112051429D02*
X164265142Y-111880000D01*
X164265142Y-111880000D02*
X164265142Y-111594286D01*
X163579428Y-112965714D02*
X163522285Y-112851429D01*
X163522285Y-112851429D02*
X163465142Y-112794286D01*
X163465142Y-112794286D02*
X163350857Y-112737143D01*
X163350857Y-112737143D02*
X163293714Y-112737143D01*
X163293714Y-112737143D02*
X163179428Y-112794286D01*
X163179428Y-112794286D02*
X163122285Y-112851429D01*
X163122285Y-112851429D02*
X163065142Y-112965714D01*
X163065142Y-112965714D02*
X163065142Y-113194286D01*
X163065142Y-113194286D02*
X163122285Y-113308572D01*
X163122285Y-113308572D02*
X163179428Y-113365714D01*
X163179428Y-113365714D02*
X163293714Y-113422857D01*
X163293714Y-113422857D02*
X163350857Y-113422857D01*
X163350857Y-113422857D02*
X163465142Y-113365714D01*
X163465142Y-113365714D02*
X163522285Y-113308572D01*
X163522285Y-113308572D02*
X163579428Y-113194286D01*
X163579428Y-113194286D02*
X163579428Y-112965714D01*
X163579428Y-112965714D02*
X163636571Y-112851429D01*
X163636571Y-112851429D02*
X163693714Y-112794286D01*
X163693714Y-112794286D02*
X163808000Y-112737143D01*
X163808000Y-112737143D02*
X164036571Y-112737143D01*
X164036571Y-112737143D02*
X164150857Y-112794286D01*
X164150857Y-112794286D02*
X164208000Y-112851429D01*
X164208000Y-112851429D02*
X164265142Y-112965714D01*
X164265142Y-112965714D02*
X164265142Y-113194286D01*
X164265142Y-113194286D02*
X164208000Y-113308572D01*
X164208000Y-113308572D02*
X164150857Y-113365714D01*
X164150857Y-113365714D02*
X164036571Y-113422857D01*
X164036571Y-113422857D02*
X163808000Y-113422857D01*
X163808000Y-113422857D02*
X163693714Y-113365714D01*
X163693714Y-113365714D02*
X163636571Y-113308572D01*
X163636571Y-113308572D02*
X163579428Y-113194286D01*
X174435142Y-111594286D02*
X173235142Y-111594286D01*
X173235142Y-111594286D02*
X173235142Y-111880000D01*
X173235142Y-111880000D02*
X173292285Y-112051429D01*
X173292285Y-112051429D02*
X173406571Y-112165714D01*
X173406571Y-112165714D02*
X173520857Y-112222857D01*
X173520857Y-112222857D02*
X173749428Y-112280000D01*
X173749428Y-112280000D02*
X173920857Y-112280000D01*
X173920857Y-112280000D02*
X174149428Y-112222857D01*
X174149428Y-112222857D02*
X174263714Y-112165714D01*
X174263714Y-112165714D02*
X174378000Y-112051429D01*
X174378000Y-112051429D02*
X174435142Y-111880000D01*
X174435142Y-111880000D02*
X174435142Y-111594286D01*
X173635142Y-113308572D02*
X174435142Y-113308572D01*
X173178000Y-113022857D02*
X174035142Y-112737143D01*
X174035142Y-112737143D02*
X174035142Y-113480000D01*
X130532285Y-111592857D02*
X130532285Y-112164286D01*
X130875142Y-111478571D02*
X129675142Y-111878571D01*
X129675142Y-111878571D02*
X130875142Y-112278571D01*
X129675142Y-113249999D02*
X129675142Y-112678571D01*
X129675142Y-112678571D02*
X130246571Y-112621428D01*
X130246571Y-112621428D02*
X130189428Y-112678571D01*
X130189428Y-112678571D02*
X130132285Y-112792857D01*
X130132285Y-112792857D02*
X130132285Y-113078571D01*
X130132285Y-113078571D02*
X130189428Y-113192857D01*
X130189428Y-113192857D02*
X130246571Y-113249999D01*
X130246571Y-113249999D02*
X130360857Y-113307142D01*
X130360857Y-113307142D02*
X130646571Y-113307142D01*
X130646571Y-113307142D02*
X130760857Y-113249999D01*
X130760857Y-113249999D02*
X130818000Y-113192857D01*
X130818000Y-113192857D02*
X130875142Y-113078571D01*
X130875142Y-113078571D02*
X130875142Y-112792857D01*
X130875142Y-112792857D02*
X130818000Y-112678571D01*
X130818000Y-112678571D02*
X130760857Y-112621428D01*
X133082285Y-111592857D02*
X133082285Y-112164286D01*
X133425142Y-111478571D02*
X132225142Y-111878571D01*
X132225142Y-111878571D02*
X133425142Y-112278571D01*
X132625142Y-113192857D02*
X133425142Y-113192857D01*
X132168000Y-112907142D02*
X133025142Y-112621428D01*
X133025142Y-112621428D02*
X133025142Y-113364285D01*
D12*
X132870237Y-103241190D02*
X132965475Y-103193571D01*
X132965475Y-103193571D02*
X133013094Y-103145952D01*
X133013094Y-103145952D02*
X133060713Y-103050714D01*
X133060713Y-103050714D02*
X133060713Y-103003095D01*
X133060713Y-103003095D02*
X133013094Y-102907857D01*
X133013094Y-102907857D02*
X132965475Y-102860238D01*
X132965475Y-102860238D02*
X132870237Y-102812619D01*
X132870237Y-102812619D02*
X132679761Y-102812619D01*
X132679761Y-102812619D02*
X132584523Y-102860238D01*
X132584523Y-102860238D02*
X132536904Y-102907857D01*
X132536904Y-102907857D02*
X132489285Y-103003095D01*
X132489285Y-103003095D02*
X132489285Y-103050714D01*
X132489285Y-103050714D02*
X132536904Y-103145952D01*
X132536904Y-103145952D02*
X132584523Y-103193571D01*
X132584523Y-103193571D02*
X132679761Y-103241190D01*
X132679761Y-103241190D02*
X132870237Y-103241190D01*
X132870237Y-103241190D02*
X132965475Y-103288809D01*
X132965475Y-103288809D02*
X133013094Y-103336428D01*
X133013094Y-103336428D02*
X133060713Y-103431666D01*
X133060713Y-103431666D02*
X133060713Y-103622142D01*
X133060713Y-103622142D02*
X133013094Y-103717380D01*
X133013094Y-103717380D02*
X132965475Y-103765000D01*
X132965475Y-103765000D02*
X132870237Y-103812619D01*
X132870237Y-103812619D02*
X132679761Y-103812619D01*
X132679761Y-103812619D02*
X132584523Y-103765000D01*
X132584523Y-103765000D02*
X132536904Y-103717380D01*
X132536904Y-103717380D02*
X132489285Y-103622142D01*
X132489285Y-103622142D02*
X132489285Y-103431666D01*
X132489285Y-103431666D02*
X132536904Y-103336428D01*
X132536904Y-103336428D02*
X132584523Y-103288809D01*
X132584523Y-103288809D02*
X132679761Y-103241190D01*
D13*
X161725142Y-111594286D02*
X160525142Y-111594286D01*
X160525142Y-111594286D02*
X160525142Y-111880000D01*
X160525142Y-111880000D02*
X160582285Y-112051429D01*
X160582285Y-112051429D02*
X160696571Y-112165714D01*
X160696571Y-112165714D02*
X160810857Y-112222857D01*
X160810857Y-112222857D02*
X161039428Y-112280000D01*
X161039428Y-112280000D02*
X161210857Y-112280000D01*
X161210857Y-112280000D02*
X161439428Y-112222857D01*
X161439428Y-112222857D02*
X161553714Y-112165714D01*
X161553714Y-112165714D02*
X161668000Y-112051429D01*
X161668000Y-112051429D02*
X161725142Y-111880000D01*
X161725142Y-111880000D02*
X161725142Y-111594286D01*
X161725142Y-112851429D02*
X161725142Y-113080000D01*
X161725142Y-113080000D02*
X161668000Y-113194286D01*
X161668000Y-113194286D02*
X161610857Y-113251429D01*
X161610857Y-113251429D02*
X161439428Y-113365714D01*
X161439428Y-113365714D02*
X161210857Y-113422857D01*
X161210857Y-113422857D02*
X160753714Y-113422857D01*
X160753714Y-113422857D02*
X160639428Y-113365714D01*
X160639428Y-113365714D02*
X160582285Y-113308572D01*
X160582285Y-113308572D02*
X160525142Y-113194286D01*
X160525142Y-113194286D02*
X160525142Y-112965714D01*
X160525142Y-112965714D02*
X160582285Y-112851429D01*
X160582285Y-112851429D02*
X160639428Y-112794286D01*
X160639428Y-112794286D02*
X160753714Y-112737143D01*
X160753714Y-112737143D02*
X161039428Y-112737143D01*
X161039428Y-112737143D02*
X161153714Y-112794286D01*
X161153714Y-112794286D02*
X161210857Y-112851429D01*
X161210857Y-112851429D02*
X161268000Y-112965714D01*
X161268000Y-112965714D02*
X161268000Y-113194286D01*
X161268000Y-113194286D02*
X161210857Y-113308572D01*
X161210857Y-113308572D02*
X161153714Y-113365714D01*
X161153714Y-113365714D02*
X161039428Y-113422857D01*
X150375142Y-110860000D02*
X151575142Y-111260000D01*
X151575142Y-111260000D02*
X150375142Y-111660000D01*
X151460857Y-112745714D02*
X151518000Y-112688571D01*
X151518000Y-112688571D02*
X151575142Y-112517143D01*
X151575142Y-112517143D02*
X151575142Y-112402857D01*
X151575142Y-112402857D02*
X151518000Y-112231428D01*
X151518000Y-112231428D02*
X151403714Y-112117143D01*
X151403714Y-112117143D02*
X151289428Y-112060000D01*
X151289428Y-112060000D02*
X151060857Y-112002857D01*
X151060857Y-112002857D02*
X150889428Y-112002857D01*
X150889428Y-112002857D02*
X150660857Y-112060000D01*
X150660857Y-112060000D02*
X150546571Y-112117143D01*
X150546571Y-112117143D02*
X150432285Y-112231428D01*
X150432285Y-112231428D02*
X150375142Y-112402857D01*
X150375142Y-112402857D02*
X150375142Y-112517143D01*
X150375142Y-112517143D02*
X150432285Y-112688571D01*
X150432285Y-112688571D02*
X150489428Y-112745714D01*
X151460857Y-113945714D02*
X151518000Y-113888571D01*
X151518000Y-113888571D02*
X151575142Y-113717143D01*
X151575142Y-113717143D02*
X151575142Y-113602857D01*
X151575142Y-113602857D02*
X151518000Y-113431428D01*
X151518000Y-113431428D02*
X151403714Y-113317143D01*
X151403714Y-113317143D02*
X151289428Y-113260000D01*
X151289428Y-113260000D02*
X151060857Y-113202857D01*
X151060857Y-113202857D02*
X150889428Y-113202857D01*
X150889428Y-113202857D02*
X150660857Y-113260000D01*
X150660857Y-113260000D02*
X150546571Y-113317143D01*
X150546571Y-113317143D02*
X150432285Y-113431428D01*
X150432285Y-113431428D02*
X150375142Y-113602857D01*
X150375142Y-113602857D02*
X150375142Y-113717143D01*
X150375142Y-113717143D02*
X150432285Y-113888571D01*
X150432285Y-113888571D02*
X150489428Y-113945714D01*
D12*
X142608332Y-102812619D02*
X141941666Y-102812619D01*
X141941666Y-102812619D02*
X142370237Y-103812619D01*
X113965476Y-103812619D02*
X114536904Y-103812619D01*
X114251190Y-103812619D02*
X114251190Y-102812619D01*
X114251190Y-102812619D02*
X114346428Y-102955476D01*
X114346428Y-102955476D02*
X114441666Y-103050714D01*
X114441666Y-103050714D02*
X114536904Y-103098333D01*
X113346428Y-102812619D02*
X113251190Y-102812619D01*
X113251190Y-102812619D02*
X113155952Y-102860238D01*
X113155952Y-102860238D02*
X113108333Y-102907857D01*
X113108333Y-102907857D02*
X113060714Y-103003095D01*
X113060714Y-103003095D02*
X113013095Y-103193571D01*
X113013095Y-103193571D02*
X113013095Y-103431666D01*
X113013095Y-103431666D02*
X113060714Y-103622142D01*
X113060714Y-103622142D02*
X113108333Y-103717380D01*
X113108333Y-103717380D02*
X113155952Y-103765000D01*
X113155952Y-103765000D02*
X113251190Y-103812619D01*
X113251190Y-103812619D02*
X113346428Y-103812619D01*
X113346428Y-103812619D02*
X113441666Y-103765000D01*
X113441666Y-103765000D02*
X113489285Y-103717380D01*
X113489285Y-103717380D02*
X113536904Y-103622142D01*
X113536904Y-103622142D02*
X113584523Y-103431666D01*
X113584523Y-103431666D02*
X113584523Y-103193571D01*
X113584523Y-103193571D02*
X113536904Y-103003095D01*
X113536904Y-103003095D02*
X113489285Y-102907857D01*
X113489285Y-102907857D02*
X113441666Y-102860238D01*
X113441666Y-102860238D02*
X113346428Y-102812619D01*
X82465476Y-103812619D02*
X83036904Y-103812619D01*
X82751190Y-103812619D02*
X82751190Y-102812619D01*
X82751190Y-102812619D02*
X82846428Y-102955476D01*
X82846428Y-102955476D02*
X82941666Y-103050714D01*
X82941666Y-103050714D02*
X83036904Y-103098333D01*
X82084523Y-102907857D02*
X82036904Y-102860238D01*
X82036904Y-102860238D02*
X81941666Y-102812619D01*
X81941666Y-102812619D02*
X81703571Y-102812619D01*
X81703571Y-102812619D02*
X81608333Y-102860238D01*
X81608333Y-102860238D02*
X81560714Y-102907857D01*
X81560714Y-102907857D02*
X81513095Y-103003095D01*
X81513095Y-103003095D02*
X81513095Y-103098333D01*
X81513095Y-103098333D02*
X81560714Y-103241190D01*
X81560714Y-103241190D02*
X82132142Y-103812619D01*
X82132142Y-103812619D02*
X81513095Y-103812619D01*
X151584523Y-102812619D02*
X151774999Y-102812619D01*
X151774999Y-102812619D02*
X151870237Y-102860238D01*
X151870237Y-102860238D02*
X151917856Y-102907857D01*
X151917856Y-102907857D02*
X152013094Y-103050714D01*
X152013094Y-103050714D02*
X152060713Y-103241190D01*
X152060713Y-103241190D02*
X152060713Y-103622142D01*
X152060713Y-103622142D02*
X152013094Y-103717380D01*
X152013094Y-103717380D02*
X151965475Y-103765000D01*
X151965475Y-103765000D02*
X151870237Y-103812619D01*
X151870237Y-103812619D02*
X151679761Y-103812619D01*
X151679761Y-103812619D02*
X151584523Y-103765000D01*
X151584523Y-103765000D02*
X151536904Y-103717380D01*
X151536904Y-103717380D02*
X151489285Y-103622142D01*
X151489285Y-103622142D02*
X151489285Y-103384047D01*
X151489285Y-103384047D02*
X151536904Y-103288809D01*
X151536904Y-103288809D02*
X151584523Y-103241190D01*
X151584523Y-103241190D02*
X151679761Y-103193571D01*
X151679761Y-103193571D02*
X151870237Y-103193571D01*
X151870237Y-103193571D02*
X151965475Y-103241190D01*
X151965475Y-103241190D02*
X152013094Y-103288809D01*
X152013094Y-103288809D02*
X152060713Y-103384047D01*
D13*
X171885142Y-111594286D02*
X170685142Y-111594286D01*
X170685142Y-111594286D02*
X170685142Y-111880000D01*
X170685142Y-111880000D02*
X170742285Y-112051429D01*
X170742285Y-112051429D02*
X170856571Y-112165714D01*
X170856571Y-112165714D02*
X170970857Y-112222857D01*
X170970857Y-112222857D02*
X171199428Y-112280000D01*
X171199428Y-112280000D02*
X171370857Y-112280000D01*
X171370857Y-112280000D02*
X171599428Y-112222857D01*
X171599428Y-112222857D02*
X171713714Y-112165714D01*
X171713714Y-112165714D02*
X171828000Y-112051429D01*
X171828000Y-112051429D02*
X171885142Y-111880000D01*
X171885142Y-111880000D02*
X171885142Y-111594286D01*
X170685142Y-113365714D02*
X170685142Y-112794286D01*
X170685142Y-112794286D02*
X171256571Y-112737143D01*
X171256571Y-112737143D02*
X171199428Y-112794286D01*
X171199428Y-112794286D02*
X171142285Y-112908572D01*
X171142285Y-112908572D02*
X171142285Y-113194286D01*
X171142285Y-113194286D02*
X171199428Y-113308572D01*
X171199428Y-113308572D02*
X171256571Y-113365714D01*
X171256571Y-113365714D02*
X171370857Y-113422857D01*
X171370857Y-113422857D02*
X171656571Y-113422857D01*
X171656571Y-113422857D02*
X171770857Y-113365714D01*
X171770857Y-113365714D02*
X171828000Y-113308572D01*
X171828000Y-113308572D02*
X171885142Y-113194286D01*
X171885142Y-113194286D02*
X171885142Y-112908572D01*
X171885142Y-112908572D02*
X171828000Y-112794286D01*
X171828000Y-112794286D02*
X171770857Y-112737143D01*
X112752285Y-111021429D02*
X112752285Y-111592858D01*
X113095142Y-110907143D02*
X111895142Y-111307143D01*
X111895142Y-111307143D02*
X113095142Y-111707143D01*
X113095142Y-112735714D02*
X113095142Y-112050000D01*
X113095142Y-112392857D02*
X111895142Y-112392857D01*
X111895142Y-112392857D02*
X112066571Y-112278571D01*
X112066571Y-112278571D02*
X112180857Y-112164286D01*
X112180857Y-112164286D02*
X112238000Y-112050000D01*
X112009428Y-113192857D02*
X111952285Y-113250000D01*
X111952285Y-113250000D02*
X111895142Y-113364286D01*
X111895142Y-113364286D02*
X111895142Y-113650000D01*
X111895142Y-113650000D02*
X111952285Y-113764286D01*
X111952285Y-113764286D02*
X112009428Y-113821428D01*
X112009428Y-113821428D02*
X112123714Y-113878571D01*
X112123714Y-113878571D02*
X112238000Y-113878571D01*
X112238000Y-113878571D02*
X112409428Y-113821428D01*
X112409428Y-113821428D02*
X113095142Y-113135714D01*
X113095142Y-113135714D02*
X113095142Y-113878571D01*
X182045142Y-111594286D02*
X180845142Y-111594286D01*
X180845142Y-111594286D02*
X180845142Y-111880000D01*
X180845142Y-111880000D02*
X180902285Y-112051429D01*
X180902285Y-112051429D02*
X181016571Y-112165714D01*
X181016571Y-112165714D02*
X181130857Y-112222857D01*
X181130857Y-112222857D02*
X181359428Y-112280000D01*
X181359428Y-112280000D02*
X181530857Y-112280000D01*
X181530857Y-112280000D02*
X181759428Y-112222857D01*
X181759428Y-112222857D02*
X181873714Y-112165714D01*
X181873714Y-112165714D02*
X181988000Y-112051429D01*
X181988000Y-112051429D02*
X182045142Y-111880000D01*
X182045142Y-111880000D02*
X182045142Y-111594286D01*
X182045142Y-113422857D02*
X182045142Y-112737143D01*
X182045142Y-113080000D02*
X180845142Y-113080000D01*
X180845142Y-113080000D02*
X181016571Y-112965714D01*
X181016571Y-112965714D02*
X181130857Y-112851429D01*
X181130857Y-112851429D02*
X181188000Y-112737143D01*
%TO.C,G\u002A\u002A\u002A*%
G36*
X84301152Y-116658638D02*
G01*
X84301152Y-117163979D01*
X82226597Y-117163979D01*
X80152042Y-117163979D01*
X80152042Y-116658638D01*
X80152042Y-116153298D01*
X82226597Y-116153298D01*
X84301152Y-116153298D01*
X84301152Y-116658638D01*
G37*
G36*
X81383843Y-114106403D02*
G01*
X81454514Y-114135512D01*
X81496584Y-114192839D01*
X81502995Y-114262725D01*
X81466686Y-114329513D01*
X81411294Y-114362125D01*
X81336379Y-114368279D01*
X81274429Y-114339392D01*
X81254124Y-114303185D01*
X81242513Y-114238324D01*
X81249115Y-114186946D01*
X81290186Y-114126415D01*
X81365618Y-114105340D01*
X81383843Y-114106403D01*
G37*
G36*
X83096892Y-110647748D02*
G01*
X83122831Y-110681580D01*
X83185511Y-110734233D01*
X83213694Y-110755064D01*
X83286519Y-110819956D01*
X83337434Y-110880516D01*
X83374981Y-110923521D01*
X83378874Y-110927980D01*
X83450052Y-110953612D01*
X83462306Y-110953893D01*
X83505559Y-110969490D01*
X83516544Y-111020104D01*
X83514470Y-111048551D01*
X83492179Y-111081468D01*
X83432654Y-111094741D01*
X83405464Y-111097775D01*
X83372111Y-111108314D01*
X83361201Y-111123674D01*
X83352659Y-111135700D01*
X83340758Y-111191966D01*
X83330058Y-111289143D01*
X83329435Y-111295418D01*
X83322095Y-111388126D01*
X83319958Y-111457006D01*
X83323504Y-111487553D01*
X83338640Y-111475532D01*
X83385952Y-111429982D01*
X83460480Y-111355446D01*
X83557238Y-111257113D01*
X83671239Y-111140172D01*
X83797500Y-111009812D01*
X83931033Y-110871221D01*
X84066853Y-110729588D01*
X84199974Y-110590102D01*
X84325410Y-110457950D01*
X84438176Y-110338323D01*
X84533285Y-110236407D01*
X84605753Y-110157393D01*
X84650593Y-110106469D01*
X84698335Y-110049319D01*
X84699220Y-110131362D01*
X84698995Y-110150202D01*
X84696016Y-110169235D01*
X84687461Y-110191502D01*
X84670509Y-110220217D01*
X84642340Y-110258597D01*
X84600134Y-110309857D01*
X84541072Y-110377213D01*
X84462332Y-110463878D01*
X84361095Y-110573070D01*
X84234541Y-110708003D01*
X84079850Y-110871893D01*
X83894201Y-111067955D01*
X83674775Y-111299405D01*
X83296455Y-111698391D01*
X83275438Y-111938674D01*
X83215034Y-112629248D01*
X83133613Y-113560104D01*
X83777859Y-114211727D01*
X83955630Y-114391529D01*
X84122827Y-114560841D01*
X84258486Y-114698822D01*
X84365678Y-114808940D01*
X84447473Y-114894665D01*
X84506942Y-114959465D01*
X84547154Y-115006808D01*
X84571179Y-115040164D01*
X84582089Y-115063000D01*
X84582952Y-115078787D01*
X84576839Y-115090991D01*
X84566821Y-115103082D01*
X84550651Y-115121033D01*
X84523800Y-115129601D01*
X84487547Y-115097523D01*
X84465984Y-115074955D01*
X84409743Y-115017028D01*
X84324649Y-114929815D01*
X84215300Y-114818015D01*
X84086290Y-114686326D01*
X83942216Y-114539447D01*
X83787676Y-114382076D01*
X83693574Y-114286564D01*
X83516377Y-114108588D01*
X83373444Y-113968033D01*
X83263548Y-113863751D01*
X83185461Y-113794592D01*
X83137956Y-113759408D01*
X83119803Y-113757050D01*
X83115018Y-113785503D01*
X83106969Y-113860093D01*
X83098047Y-113964860D01*
X83089451Y-114086763D01*
X83087460Y-114116387D01*
X83073418Y-114262982D01*
X83055618Y-114362002D01*
X83034530Y-114410675D01*
X83031567Y-114413949D01*
X83007697Y-114468016D01*
X82997906Y-114542288D01*
X82997906Y-114637277D01*
X82871570Y-114637294D01*
X82745235Y-114637312D01*
X82745235Y-114537556D01*
X82745235Y-114437801D01*
X82244191Y-114430556D01*
X81743147Y-114423311D01*
X81689958Y-114490930D01*
X81663524Y-114521277D01*
X81558020Y-114598499D01*
X81438160Y-114635208D01*
X81314219Y-114634100D01*
X81196475Y-114597874D01*
X81095204Y-114529225D01*
X81020683Y-114430850D01*
X80983188Y-114305447D01*
X80977850Y-114266500D01*
X80965058Y-114209700D01*
X80964863Y-114209406D01*
X81164262Y-114209406D01*
X81173814Y-114300480D01*
X81228005Y-114385816D01*
X81282149Y-114426236D01*
X81375497Y-114451099D01*
X81437294Y-114440201D01*
X81522989Y-114385816D01*
X81563409Y-114331673D01*
X81588272Y-114238324D01*
X81583076Y-114196236D01*
X81540764Y-114111584D01*
X81468197Y-114049602D01*
X81380293Y-114025549D01*
X81350356Y-114027339D01*
X81257842Y-114060277D01*
X81194041Y-114125152D01*
X81164262Y-114209406D01*
X80964863Y-114209406D01*
X80952498Y-114190755D01*
X80941677Y-114200274D01*
X80898305Y-114243364D01*
X80827138Y-114316158D01*
X80733434Y-114413225D01*
X80622455Y-114529135D01*
X80499460Y-114658458D01*
X80412513Y-114749986D01*
X80293693Y-114873848D01*
X80203622Y-114965221D01*
X80137657Y-115028174D01*
X80091159Y-115066779D01*
X80059486Y-115085107D01*
X80037996Y-115087229D01*
X80022048Y-115077216D01*
X80007011Y-115056284D01*
X80008175Y-115029930D01*
X80031939Y-114991144D01*
X80083446Y-114931672D01*
X80167840Y-114843260D01*
X80202544Y-114807381D01*
X80291511Y-114714826D01*
X80404824Y-114596442D01*
X80534507Y-114460578D01*
X80672584Y-114315585D01*
X80811078Y-114169814D01*
X81209318Y-113750110D01*
X81403111Y-113750110D01*
X81408809Y-113778923D01*
X81446997Y-113822176D01*
X81528391Y-113869796D01*
X81571813Y-113893914D01*
X81679040Y-113982519D01*
X81749261Y-114088949D01*
X81774450Y-114202362D01*
X81774450Y-114238324D01*
X81774450Y-114291518D01*
X82356147Y-114291518D01*
X82937843Y-114291518D01*
X82955499Y-114072094D01*
X82956311Y-114062045D01*
X82966987Y-113934062D01*
X82978122Y-113806788D01*
X82987433Y-113706387D01*
X83001710Y-113560104D01*
X82625761Y-113187748D01*
X82249812Y-112815392D01*
X81826970Y-113254240D01*
X81699878Y-113387819D01*
X81572660Y-113526434D01*
X81479766Y-113634222D01*
X81422736Y-113709381D01*
X81403111Y-113750110D01*
X81209318Y-113750110D01*
X81267253Y-113689053D01*
X81181400Y-112760181D01*
X81095548Y-111831308D01*
X81050210Y-111829144D01*
X81245900Y-111829144D01*
X81247698Y-111886698D01*
X81253763Y-111987278D01*
X81263603Y-112124214D01*
X81276725Y-112290841D01*
X81292637Y-112480492D01*
X81310847Y-112686499D01*
X81320725Y-112793927D01*
X81339528Y-112989492D01*
X81357339Y-113163683D01*
X81373446Y-113310175D01*
X81387141Y-113422644D01*
X81397713Y-113494764D01*
X81404452Y-113520209D01*
X81406833Y-113519120D01*
X81437616Y-113492289D01*
X81497707Y-113433803D01*
X81581378Y-113349420D01*
X81682901Y-113244899D01*
X81796546Y-113126000D01*
X82170530Y-112731791D01*
X82164999Y-112726049D01*
X82323683Y-112726049D01*
X82329425Y-112731791D01*
X82668915Y-113071282D01*
X83014148Y-113416515D01*
X83076228Y-112669732D01*
X83078805Y-112638576D01*
X83094070Y-112447329D01*
X83106906Y-112274876D01*
X83116872Y-112128055D01*
X83123528Y-112013708D01*
X83126434Y-111938674D01*
X83125150Y-111909792D01*
X83120876Y-111911114D01*
X83086890Y-111939261D01*
X83024129Y-111998744D01*
X82938057Y-112084176D01*
X82834139Y-112190171D01*
X82717838Y-112311342D01*
X82323683Y-112726049D01*
X82164999Y-112726049D01*
X81714315Y-112258170D01*
X81622228Y-112163442D01*
X81502008Y-112042709D01*
X81399754Y-111943547D01*
X81320059Y-111870274D01*
X81267519Y-111827209D01*
X81246726Y-111818669D01*
X81245900Y-111829144D01*
X81050210Y-111829144D01*
X80929658Y-111823390D01*
X80763769Y-111815472D01*
X80763769Y-111685026D01*
X80896754Y-111685026D01*
X80989843Y-111685026D01*
X80989916Y-111685026D01*
X81058453Y-111675892D01*
X81082932Y-111650348D01*
X81077975Y-111634403D01*
X81044492Y-111585062D01*
X80989843Y-111525445D01*
X80896754Y-111435219D01*
X80896754Y-111560122D01*
X80896754Y-111685026D01*
X80763769Y-111685026D01*
X80763769Y-111550144D01*
X80763769Y-111284817D01*
X80229881Y-110742124D01*
X80079427Y-110588652D01*
X79954385Y-110459438D01*
X79859611Y-110358814D01*
X79791242Y-110282251D01*
X79745418Y-110225219D01*
X79718277Y-110183189D01*
X79705955Y-110151631D01*
X79704593Y-110126015D01*
X79704960Y-110123186D01*
X79710377Y-110106940D01*
X79723034Y-110102554D01*
X79746629Y-110113346D01*
X79784859Y-110142632D01*
X79841421Y-110193729D01*
X79920011Y-110269954D01*
X80024327Y-110374623D01*
X80158064Y-110511054D01*
X80324921Y-110682562D01*
X80456481Y-110817630D01*
X80616062Y-110979505D01*
X80744585Y-111106381D01*
X80845141Y-111200542D01*
X80920822Y-111264269D01*
X80974720Y-111299845D01*
X81009924Y-111309552D01*
X81029528Y-111295673D01*
X81036621Y-111260488D01*
X81034296Y-111206282D01*
X81032942Y-111192647D01*
X81021671Y-111131038D01*
X80997203Y-111105161D01*
X80947154Y-111099895D01*
X81155762Y-111099895D01*
X81171914Y-111199424D01*
X81174994Y-111216178D01*
X81193779Y-111278285D01*
X81215289Y-111308028D01*
X81226795Y-111326144D01*
X81238128Y-111384936D01*
X81242513Y-111468586D01*
X81242529Y-111487307D01*
X81244791Y-111554223D01*
X81255987Y-111604607D01*
X81282417Y-111650348D01*
X81283339Y-111651944D01*
X81334067Y-111709717D01*
X81415392Y-111791413D01*
X81495813Y-111870197D01*
X81546833Y-111916015D01*
X81574552Y-111931963D01*
X81586016Y-111922075D01*
X81588272Y-111890383D01*
X81588272Y-111818010D01*
X82027120Y-111818010D01*
X82465968Y-111818010D01*
X82465968Y-111950264D01*
X82465968Y-112082518D01*
X82091396Y-112089898D01*
X81716824Y-112097277D01*
X81974056Y-112369895D01*
X82007704Y-112405373D01*
X82097688Y-112498366D01*
X82172558Y-112573025D01*
X82225298Y-112622458D01*
X82248890Y-112639775D01*
X82261632Y-112629471D01*
X82306946Y-112585461D01*
X82379675Y-112511743D01*
X82474637Y-112413639D01*
X82586652Y-112296470D01*
X82710539Y-112165559D01*
X83154586Y-111694081D01*
X83182633Y-111420767D01*
X83191007Y-111338076D01*
X83201161Y-111234257D01*
X83208106Y-111158679D01*
X83210680Y-111123674D01*
X83210597Y-111123351D01*
X83182011Y-111117831D01*
X83105585Y-111112839D01*
X82986386Y-111108492D01*
X82829483Y-111104907D01*
X82639943Y-111102201D01*
X82422833Y-111100491D01*
X82183221Y-111099895D01*
X81155762Y-111099895D01*
X80947154Y-111099895D01*
X80932422Y-111099364D01*
X80847840Y-111071750D01*
X80790696Y-111012285D01*
X80765986Y-110934957D01*
X80770354Y-110907068D01*
X81194798Y-110907068D01*
X81194810Y-110910255D01*
X81209884Y-110919319D01*
X81251399Y-110926490D01*
X81323812Y-110931950D01*
X81431581Y-110935881D01*
X81579165Y-110938465D01*
X81771020Y-110939882D01*
X82011605Y-110940314D01*
X82838324Y-110940314D01*
X82838324Y-110893769D01*
X83077696Y-110893769D01*
X83077771Y-110899167D01*
X83092377Y-110940314D01*
X83092996Y-110942059D01*
X83144188Y-110953612D01*
X83146126Y-110953609D01*
X83198977Y-110946881D01*
X83203843Y-110923521D01*
X83162042Y-110877944D01*
X83112132Y-110840396D01*
X83085264Y-110844522D01*
X83077696Y-110893769D01*
X82838324Y-110893769D01*
X82838324Y-110836810D01*
X82838215Y-110817098D01*
X82833651Y-110769646D01*
X82815170Y-110738446D01*
X82773050Y-110717832D01*
X82697570Y-110702140D01*
X82579005Y-110685704D01*
X82439372Y-110667492D01*
X82439372Y-110750709D01*
X82439372Y-110833926D01*
X82093612Y-110833926D01*
X81747853Y-110833926D01*
X81747853Y-110763819D01*
X81746725Y-110731991D01*
X81734522Y-110707340D01*
X81697400Y-110702214D01*
X81621518Y-110710806D01*
X81582023Y-110718108D01*
X81487244Y-110745825D01*
X81386963Y-110785096D01*
X81295348Y-110829405D01*
X81226570Y-110872234D01*
X81194798Y-110907068D01*
X80770354Y-110907068D01*
X80778705Y-110853754D01*
X80833848Y-110782663D01*
X80891631Y-110745302D01*
X80967838Y-110730640D01*
X81042450Y-110763716D01*
X81054385Y-110771827D01*
X81089090Y-110782619D01*
X81132331Y-110768047D01*
X81200465Y-110723999D01*
X81204745Y-110721072D01*
X81289070Y-110676055D01*
X81359749Y-110647748D01*
X81880837Y-110647748D01*
X81881547Y-110650128D01*
X81914194Y-110662742D01*
X81988241Y-110671235D01*
X82093612Y-110674345D01*
X82112647Y-110674256D01*
X82213564Y-110670175D01*
X82281503Y-110660920D01*
X82306387Y-110647748D01*
X82305678Y-110645369D01*
X82273030Y-110632754D01*
X82198984Y-110624262D01*
X82093612Y-110621151D01*
X82074578Y-110621240D01*
X81973660Y-110625321D01*
X81905722Y-110634577D01*
X81880837Y-110647748D01*
X81359749Y-110647748D01*
X81402094Y-110630789D01*
X81521780Y-110594179D01*
X81554413Y-110585629D01*
X81647939Y-110557678D01*
X81715209Y-110532333D01*
X81743420Y-110514210D01*
X81761939Y-110506130D01*
X81822855Y-110498070D01*
X81914525Y-110492400D01*
X82024967Y-110489168D01*
X82142199Y-110488424D01*
X82254238Y-110490219D01*
X82349102Y-110494601D01*
X82414807Y-110501621D01*
X82439372Y-110511327D01*
X82439940Y-110513340D01*
X82471151Y-110527597D01*
X82540936Y-110541822D01*
X82636573Y-110554569D01*
X82745338Y-110564393D01*
X82854509Y-110569848D01*
X82951361Y-110569490D01*
X82963949Y-110568984D01*
X83035860Y-110570030D01*
X83069762Y-110583075D01*
X83078706Y-110612530D01*
X83084353Y-110631394D01*
X83096892Y-110647748D01*
G37*
G36*
X213732410Y-113572104D02*
G01*
X213732501Y-113572340D01*
X213734876Y-113581625D01*
X213739034Y-113600908D01*
X213744707Y-113628834D01*
X213751629Y-113664049D01*
X213759533Y-113705199D01*
X213768154Y-113750928D01*
X213777224Y-113799884D01*
X213782499Y-113828365D01*
X213792850Y-113882762D01*
X213802150Y-113929566D01*
X213810233Y-113968000D01*
X213816932Y-113997288D01*
X213822081Y-114016654D01*
X213825513Y-114025319D01*
X213827603Y-114027034D01*
X213839459Y-114033665D01*
X213859722Y-114043435D01*
X213886674Y-114055635D01*
X213918600Y-114069558D01*
X213953782Y-114084495D01*
X213990504Y-114099739D01*
X214027049Y-114114580D01*
X214061701Y-114128311D01*
X214092743Y-114140223D01*
X214118458Y-114149609D01*
X214137131Y-114155760D01*
X214147043Y-114157967D01*
X214149235Y-114157515D01*
X214161505Y-114151698D01*
X214182634Y-114139373D01*
X214212225Y-114120793D01*
X214249882Y-114096208D01*
X214295210Y-114065872D01*
X214347812Y-114030037D01*
X214356885Y-114023820D01*
X214398066Y-113995822D01*
X214436314Y-113970169D01*
X214470528Y-113947575D01*
X214499604Y-113928756D01*
X214522440Y-113914428D01*
X214537932Y-113905306D01*
X214544977Y-113902106D01*
X214550413Y-113905236D01*
X214563566Y-113916040D01*
X214583412Y-113933880D01*
X214609206Y-113958057D01*
X214640202Y-113987870D01*
X214675653Y-114022617D01*
X214714814Y-114061599D01*
X214741697Y-114088613D01*
X214780011Y-114127439D01*
X214810807Y-114159159D01*
X214834631Y-114184367D01*
X214852027Y-114203654D01*
X214863539Y-114217615D01*
X214869710Y-114226843D01*
X214871086Y-114231931D01*
X214871006Y-114232178D01*
X214866630Y-114240048D01*
X214856434Y-114256250D01*
X214841169Y-114279657D01*
X214821581Y-114309142D01*
X214798420Y-114343578D01*
X214772433Y-114381837D01*
X214744370Y-114422793D01*
X214741969Y-114426283D01*
X214714064Y-114467087D01*
X214688326Y-114505137D01*
X214665502Y-114539301D01*
X214646336Y-114568447D01*
X214631574Y-114591441D01*
X214621960Y-114607151D01*
X214618241Y-114614446D01*
X214619560Y-114621438D01*
X214624974Y-114637797D01*
X214633869Y-114661623D01*
X214645546Y-114691276D01*
X214659308Y-114725114D01*
X214674457Y-114761497D01*
X214690296Y-114798784D01*
X214706127Y-114835334D01*
X214721252Y-114869506D01*
X214734974Y-114899660D01*
X214746595Y-114924154D01*
X214755418Y-114941348D01*
X214760744Y-114949600D01*
X214763188Y-114951156D01*
X214775174Y-114955427D01*
X214796674Y-114961035D01*
X214828084Y-114968065D01*
X214869801Y-114976605D01*
X214922219Y-114986739D01*
X214985737Y-114998555D01*
X214990561Y-114999441D01*
X215039002Y-115008450D01*
X215083836Y-115016997D01*
X215123756Y-115024817D01*
X215157455Y-115031646D01*
X215183627Y-115037220D01*
X215200965Y-115041274D01*
X215208161Y-115043543D01*
X215208527Y-115044030D01*
X215210324Y-115053081D01*
X215211877Y-115071904D01*
X215213185Y-115098971D01*
X215214245Y-115132753D01*
X215215055Y-115171722D01*
X215215613Y-115214349D01*
X215215915Y-115259106D01*
X215215961Y-115304464D01*
X215215747Y-115348895D01*
X215215271Y-115390870D01*
X215214531Y-115428861D01*
X215213524Y-115461340D01*
X215212248Y-115486777D01*
X215210701Y-115503644D01*
X215208880Y-115510413D01*
X215208775Y-115510470D01*
X215201135Y-115512532D01*
X215183437Y-115516416D01*
X215156992Y-115521861D01*
X215123107Y-115528606D01*
X215083092Y-115536391D01*
X215038255Y-115544954D01*
X214989905Y-115554035D01*
X214987887Y-115554411D01*
X214939443Y-115563612D01*
X214894596Y-115572443D01*
X214854655Y-115580622D01*
X214820927Y-115587870D01*
X214794722Y-115593904D01*
X214777347Y-115598445D01*
X214770111Y-115601212D01*
X214768695Y-115603428D01*
X214762915Y-115615342D01*
X214753740Y-115636040D01*
X214741749Y-115664154D01*
X214727521Y-115698315D01*
X214711637Y-115737154D01*
X214694676Y-115779303D01*
X214678797Y-115819241D01*
X214662659Y-115860427D01*
X214650319Y-115892870D01*
X214641404Y-115917675D01*
X214635537Y-115935950D01*
X214632343Y-115948801D01*
X214631447Y-115957335D01*
X214632473Y-115962659D01*
X214636175Y-115968946D01*
X214645900Y-115984069D01*
X214660737Y-116006541D01*
X214679891Y-116035180D01*
X214702571Y-116068802D01*
X214727985Y-116106221D01*
X214755340Y-116146254D01*
X214780111Y-116182546D01*
X214805194Y-116219614D01*
X214827384Y-116252746D01*
X214845938Y-116280816D01*
X214860112Y-116302698D01*
X214869162Y-116317265D01*
X214872344Y-116323391D01*
X214872062Y-116324053D01*
X214866057Y-116331449D01*
X214852912Y-116345873D01*
X214833509Y-116366404D01*
X214808734Y-116392122D01*
X214779470Y-116422109D01*
X214746603Y-116455443D01*
X214711016Y-116491205D01*
X214701449Y-116500765D01*
X214666249Y-116535741D01*
X214633712Y-116567764D01*
X214604761Y-116595949D01*
X214580314Y-116619411D01*
X214561292Y-116637265D01*
X214548615Y-116648626D01*
X214543202Y-116652610D01*
X214537907Y-116649923D01*
X214523984Y-116641322D01*
X214502657Y-116627530D01*
X214475050Y-116609291D01*
X214442288Y-116587349D01*
X214405498Y-116562447D01*
X214365805Y-116535331D01*
X214329974Y-116510876D01*
X214292276Y-116485448D01*
X214258254Y-116462814D01*
X214229084Y-116443741D01*
X214205940Y-116428996D01*
X214190000Y-116419348D01*
X214182437Y-116415565D01*
X214172917Y-116417029D01*
X214154011Y-116424204D01*
X214127164Y-116436784D01*
X214093357Y-116454341D01*
X214080919Y-116460965D01*
X214054286Y-116474636D01*
X214031541Y-116485626D01*
X214014777Y-116492945D01*
X214006087Y-116495605D01*
X214002749Y-116494827D01*
X213995401Y-116487901D01*
X213986576Y-116472639D01*
X213975370Y-116447631D01*
X213959575Y-116409838D01*
X213925568Y-116328227D01*
X213892722Y-116249076D01*
X213861317Y-116173075D01*
X213831630Y-116100912D01*
X213803941Y-116033275D01*
X213778529Y-115970853D01*
X213755672Y-115914333D01*
X213735649Y-115864405D01*
X213718740Y-115821756D01*
X213705222Y-115787075D01*
X213695375Y-115761050D01*
X213689477Y-115744370D01*
X213687808Y-115737722D01*
X213690565Y-115734235D01*
X213701492Y-115724686D01*
X213718503Y-115711723D01*
X213739344Y-115697119D01*
X213778588Y-115669174D01*
X213827492Y-115628269D01*
X213867919Y-115585551D01*
X213901680Y-115539025D01*
X213930585Y-115486699D01*
X213933589Y-115480411D01*
X213954739Y-115428252D01*
X213968265Y-115376474D01*
X213974866Y-115321540D01*
X213975236Y-115259913D01*
X213973892Y-115232326D01*
X213970811Y-115197440D01*
X213966121Y-115168925D01*
X213959393Y-115143613D01*
X213956613Y-115135133D01*
X213927144Y-115064927D01*
X213888640Y-115001288D01*
X213841871Y-114944913D01*
X213787604Y-114896502D01*
X213726612Y-114856753D01*
X213659662Y-114826365D01*
X213587526Y-114806037D01*
X213570074Y-114803044D01*
X213520066Y-114798853D01*
X213466389Y-114799534D01*
X213413869Y-114804894D01*
X213367330Y-114814743D01*
X213348071Y-114820709D01*
X213280366Y-114849145D01*
X213218208Y-114887064D01*
X213162519Y-114933478D01*
X213114219Y-114987399D01*
X213074229Y-115047838D01*
X213043471Y-115113807D01*
X213022866Y-115184318D01*
X213022850Y-115184397D01*
X213017729Y-115221619D01*
X213015871Y-115265556D01*
X213017153Y-115311809D01*
X213021455Y-115355977D01*
X213028654Y-115393659D01*
X213028788Y-115394171D01*
X213049991Y-115458848D01*
X213078597Y-115517840D01*
X213115452Y-115572221D01*
X213161400Y-115623066D01*
X213217284Y-115671448D01*
X213283950Y-115718442D01*
X213295359Y-115726439D01*
X213305061Y-115736599D01*
X213306373Y-115745645D01*
X213305273Y-115748715D01*
X213300098Y-115761876D01*
X213291059Y-115784333D01*
X213278527Y-115815183D01*
X213262869Y-115853525D01*
X213244455Y-115898459D01*
X213223654Y-115949082D01*
X213200835Y-116004494D01*
X213176367Y-116063792D01*
X213150619Y-116126076D01*
X213134454Y-116165112D01*
X213105948Y-116233762D01*
X213081359Y-116292659D01*
X213060387Y-116342480D01*
X213042732Y-116383902D01*
X213028092Y-116417602D01*
X213016169Y-116444259D01*
X213006660Y-116464550D01*
X212999267Y-116479153D01*
X212993688Y-116488744D01*
X212989623Y-116494002D01*
X212986772Y-116495605D01*
X212984275Y-116495144D01*
X212971909Y-116490459D01*
X212952368Y-116481525D01*
X212927772Y-116469340D01*
X212900242Y-116454899D01*
X212888702Y-116448748D01*
X212862214Y-116435124D01*
X212839592Y-116424160D01*
X212822936Y-116416852D01*
X212814347Y-116414194D01*
X212807719Y-116417170D01*
X212792564Y-116426063D01*
X212770107Y-116440135D01*
X212741493Y-116458647D01*
X212707867Y-116480856D01*
X212670374Y-116506021D01*
X212630159Y-116533402D01*
X212591190Y-116559971D01*
X212553759Y-116585197D01*
X212520230Y-116607494D01*
X212491734Y-116626123D01*
X212469404Y-116640345D01*
X212454370Y-116649421D01*
X212447763Y-116652610D01*
X212441567Y-116648740D01*
X212428364Y-116637538D01*
X212409300Y-116620102D01*
X212385468Y-116597533D01*
X212357964Y-116570932D01*
X212327883Y-116541397D01*
X212296319Y-116510030D01*
X212264368Y-116477930D01*
X212233124Y-116446198D01*
X212203683Y-116415934D01*
X212177140Y-116388238D01*
X212154589Y-116364211D01*
X212137125Y-116344951D01*
X212125844Y-116331560D01*
X212121840Y-116325138D01*
X212124768Y-116318494D01*
X212133630Y-116303302D01*
X212147688Y-116280818D01*
X212166199Y-116252190D01*
X212188419Y-116218568D01*
X212213605Y-116181102D01*
X212241012Y-116140942D01*
X212267328Y-116102567D01*
X212292868Y-116065133D01*
X212315619Y-116031594D01*
X212334816Y-116003085D01*
X212349695Y-115980740D01*
X212359492Y-115965696D01*
X212363443Y-115959085D01*
X212363273Y-115956751D01*
X212359921Y-115944833D01*
X212353075Y-115924542D01*
X212343353Y-115897460D01*
X212331373Y-115865170D01*
X212317752Y-115829255D01*
X212303109Y-115791298D01*
X212288061Y-115752881D01*
X212273225Y-115715587D01*
X212259219Y-115681000D01*
X212246661Y-115650701D01*
X212236168Y-115626273D01*
X212228358Y-115609300D01*
X212223849Y-115601365D01*
X212223752Y-115601272D01*
X212216093Y-115598448D01*
X212198367Y-115593861D01*
X212171889Y-115587794D01*
X212137969Y-115580527D01*
X212097921Y-115572343D01*
X212053057Y-115563522D01*
X212004690Y-115554347D01*
X212002022Y-115553849D01*
X211953825Y-115544783D01*
X211909201Y-115536241D01*
X211869461Y-115528486D01*
X211835916Y-115521779D01*
X211809877Y-115516384D01*
X211792655Y-115512561D01*
X211785561Y-115510572D01*
X211785199Y-115510153D01*
X211783382Y-115501396D01*
X211781839Y-115482821D01*
X211780568Y-115455956D01*
X211779568Y-115422329D01*
X211778837Y-115383470D01*
X211778375Y-115340908D01*
X211778179Y-115296171D01*
X211778248Y-115250788D01*
X211778581Y-115206287D01*
X211779175Y-115164199D01*
X211780030Y-115126050D01*
X211781143Y-115093371D01*
X211782515Y-115067690D01*
X211784142Y-115050535D01*
X211786023Y-115043436D01*
X211786119Y-115043369D01*
X211793848Y-115040969D01*
X211811643Y-115036793D01*
X211838188Y-115031110D01*
X211872166Y-115024189D01*
X211912262Y-115016297D01*
X211957159Y-115007703D01*
X212005540Y-114998676D01*
X212007116Y-114998385D01*
X212055641Y-114989293D01*
X212100831Y-114980552D01*
X212141333Y-114972445D01*
X212175795Y-114965254D01*
X212202865Y-114959260D01*
X212221190Y-114954747D01*
X212229418Y-114951994D01*
X212233363Y-114947239D01*
X212242121Y-114931938D01*
X212254508Y-114907110D01*
X212270170Y-114873497D01*
X212288753Y-114831846D01*
X212309901Y-114782902D01*
X212321275Y-114756145D01*
X212339020Y-114713907D01*
X212352644Y-114680585D01*
X212362549Y-114655067D01*
X212369140Y-114636244D01*
X212372817Y-114623007D01*
X212373984Y-114614245D01*
X212373044Y-114608849D01*
X212372978Y-114608709D01*
X212368188Y-114600782D01*
X212357595Y-114584485D01*
X212341970Y-114560967D01*
X212322085Y-114531376D01*
X212298712Y-114496861D01*
X212272622Y-114458570D01*
X212244586Y-114417653D01*
X212242752Y-114414983D01*
X212215061Y-114374385D01*
X212189624Y-114336594D01*
X212167172Y-114302732D01*
X212148436Y-114273922D01*
X212134148Y-114251290D01*
X212125039Y-114235957D01*
X212121840Y-114229047D01*
X212125672Y-114222832D01*
X212136824Y-114209581D01*
X212154201Y-114190452D01*
X212176706Y-114166542D01*
X212203239Y-114138950D01*
X212232705Y-114108775D01*
X212264004Y-114077113D01*
X212296040Y-114045064D01*
X212327713Y-114013725D01*
X212357928Y-113984195D01*
X212385584Y-113957571D01*
X212409586Y-113934953D01*
X212428835Y-113917437D01*
X212442233Y-113906122D01*
X212448683Y-113902106D01*
X212449379Y-113902254D01*
X212458137Y-113906768D01*
X212475111Y-113917057D01*
X212499204Y-113932403D01*
X212529318Y-113952091D01*
X212564354Y-113975403D01*
X212603213Y-114001624D01*
X212644799Y-114030037D01*
X212652173Y-114035101D01*
X212706944Y-114072406D01*
X212752830Y-114103056D01*
X212789741Y-114126994D01*
X212817589Y-114144163D01*
X212836283Y-114154507D01*
X212845734Y-114157967D01*
X212848788Y-114157474D01*
X212862302Y-114153393D01*
X212883943Y-114145763D01*
X212911982Y-114135281D01*
X212944693Y-114122647D01*
X212980349Y-114108559D01*
X213017223Y-114093715D01*
X213053588Y-114078814D01*
X213087718Y-114064555D01*
X213117884Y-114051635D01*
X213142360Y-114040753D01*
X213159420Y-114032608D01*
X213167336Y-114027897D01*
X213167788Y-114027196D01*
X213170918Y-114017504D01*
X213175762Y-113997944D01*
X213182049Y-113969797D01*
X213189507Y-113934345D01*
X213197865Y-113892870D01*
X213206852Y-113846655D01*
X213216197Y-113796982D01*
X213218397Y-113785126D01*
X213227612Y-113736167D01*
X213236322Y-113690974D01*
X213244268Y-113650826D01*
X213251187Y-113617005D01*
X213256820Y-113590788D01*
X213260905Y-113573456D01*
X213263182Y-113566289D01*
X213266972Y-113564452D01*
X213276384Y-113562849D01*
X213292207Y-113561567D01*
X213315311Y-113560579D01*
X213346566Y-113559856D01*
X213386841Y-113559374D01*
X213437005Y-113559104D01*
X213497929Y-113559020D01*
X213727035Y-113559020D01*
X213732410Y-113572104D01*
G37*
G36*
X85993714Y-114662632D02*
G01*
X86091279Y-114698415D01*
X86219931Y-114772817D01*
X86299193Y-114884383D01*
X86309464Y-114905294D01*
X86374971Y-115001087D01*
X86475716Y-115121649D01*
X86594483Y-115245901D01*
X86642227Y-115293157D01*
X86742733Y-115397747D01*
X86812381Y-115477689D01*
X86838316Y-115518606D01*
X86830005Y-115527619D01*
X86766633Y-115571925D01*
X86647688Y-115647157D01*
X86481278Y-115748413D01*
X86275514Y-115870790D01*
X86038505Y-116009388D01*
X85778362Y-116159304D01*
X85644547Y-116235743D01*
X85394562Y-116377768D01*
X85171092Y-116503722D01*
X84982317Y-116609054D01*
X84836416Y-116689215D01*
X84741570Y-116739654D01*
X84705960Y-116755821D01*
X84707743Y-116730943D01*
X84736444Y-116665000D01*
X84766046Y-116612704D01*
X84828019Y-116505653D01*
X84916071Y-116354603D01*
X85024259Y-116169659D01*
X85146640Y-115960923D01*
X85277271Y-115738501D01*
X85410209Y-115512494D01*
X85539511Y-115293007D01*
X85659234Y-115090143D01*
X85763434Y-114914007D01*
X85846169Y-114774701D01*
X85901495Y-114682328D01*
X85923470Y-114646994D01*
X85932353Y-114646278D01*
X85993714Y-114662632D01*
G37*
G36*
X87625303Y-111776213D02*
G01*
X87673168Y-111849988D01*
X87750579Y-111975937D01*
X87852239Y-112144956D01*
X87972850Y-112347937D01*
X88107115Y-112575774D01*
X88249738Y-112819360D01*
X88395420Y-113069588D01*
X88538865Y-113317354D01*
X88674774Y-113553548D01*
X88797852Y-113769066D01*
X88902800Y-113954801D01*
X88984322Y-114101646D01*
X89037119Y-114200495D01*
X89055896Y-114242241D01*
X89035061Y-114274695D01*
X88968377Y-114319142D01*
X88964517Y-114320996D01*
X88861184Y-114358470D01*
X88791847Y-114343316D01*
X88729200Y-114269914D01*
X88689370Y-114215279D01*
X88630461Y-114158704D01*
X88552038Y-114113939D01*
X88442499Y-114077318D01*
X88290244Y-114045171D01*
X88083671Y-114013830D01*
X87811179Y-113979627D01*
X87633669Y-113957737D01*
X87411730Y-113928278D01*
X87218712Y-113900349D01*
X87070746Y-113876313D01*
X86983964Y-113858530D01*
X86896321Y-113822943D01*
X86783802Y-113756979D01*
X86677188Y-113678776D01*
X86597676Y-113604069D01*
X86566462Y-113548594D01*
X86569973Y-113537837D01*
X86603649Y-113470426D01*
X86667920Y-113352563D01*
X86756510Y-113194980D01*
X86863139Y-113008411D01*
X86981531Y-112803592D01*
X87105406Y-112591255D01*
X87228488Y-112382136D01*
X87344497Y-112186968D01*
X87447156Y-112016485D01*
X87530188Y-111881422D01*
X87587314Y-111792512D01*
X87612255Y-111760490D01*
X87625303Y-111776213D01*
G37*
G36*
X88766951Y-115577474D02*
G01*
X88759689Y-115596598D01*
X88730395Y-115675797D01*
X88718035Y-115772637D01*
X88743806Y-115876293D01*
X88759473Y-115926807D01*
X88766261Y-115948691D01*
X88764821Y-116018828D01*
X88720174Y-116083730D01*
X88695916Y-116119217D01*
X88655062Y-116236268D01*
X88632734Y-116384918D01*
X88630153Y-116538722D01*
X88648542Y-116671232D01*
X88683989Y-116745278D01*
X88689122Y-116756000D01*
X88725589Y-116788367D01*
X88754150Y-116788576D01*
X88778652Y-116737330D01*
X88783515Y-116719565D01*
X88871780Y-116719565D01*
X88872758Y-116763672D01*
X88888260Y-116768153D01*
X88928895Y-116731784D01*
X88971180Y-116652273D01*
X89002181Y-116550887D01*
X89009170Y-116506639D01*
X89004589Y-116438800D01*
X88977023Y-116432456D01*
X88938051Y-116483467D01*
X88899249Y-116587694D01*
X88888946Y-116628471D01*
X88871780Y-116719565D01*
X88783515Y-116719565D01*
X88810082Y-116622506D01*
X88825833Y-116561739D01*
X88860379Y-116444900D01*
X88892624Y-116381559D01*
X88933560Y-116355469D01*
X88994179Y-116350383D01*
X89005329Y-116350072D01*
X89050247Y-116336319D01*
X89087446Y-116291397D01*
X89125742Y-116200527D01*
X89173948Y-116048928D01*
X89242698Y-115794319D01*
X89278997Y-115581458D01*
X89279863Y-115402243D01*
X89245324Y-115238574D01*
X89175407Y-115072353D01*
X89172813Y-115067196D01*
X89115806Y-114942245D01*
X89081225Y-114843761D01*
X89076471Y-114792665D01*
X89076807Y-114792132D01*
X89126281Y-114748707D01*
X89211255Y-114697363D01*
X89322784Y-114639689D01*
X89527786Y-114999094D01*
X89578262Y-115087207D01*
X89678394Y-115260984D01*
X89803845Y-115477902D01*
X89946411Y-115723804D01*
X90097892Y-115984532D01*
X90250084Y-116245926D01*
X90382933Y-116474399D01*
X90401579Y-116506639D01*
X90507661Y-116690064D01*
X90613597Y-116874450D01*
X90695614Y-117018592D01*
X90748585Y-117113527D01*
X90767381Y-117150290D01*
X90767376Y-117150323D01*
X90728598Y-117153040D01*
X90618141Y-117155589D01*
X90442048Y-117157937D01*
X90206363Y-117160051D01*
X89917129Y-117161899D01*
X89580390Y-117163448D01*
X89202188Y-117164664D01*
X88788569Y-117165515D01*
X88345575Y-117165969D01*
X87879249Y-117165991D01*
X87563655Y-117165807D01*
X87055066Y-117165216D01*
X86616874Y-117164213D01*
X86244330Y-117162705D01*
X85932683Y-117160601D01*
X85677183Y-117157807D01*
X85473080Y-117154232D01*
X85315623Y-117149783D01*
X85200062Y-117144367D01*
X85121647Y-117137892D01*
X85075627Y-117130266D01*
X85057253Y-117121397D01*
X85061773Y-117111191D01*
X85080544Y-117098287D01*
X85164375Y-117046344D01*
X85298626Y-116966591D01*
X85473484Y-116864592D01*
X85679134Y-116745907D01*
X85901711Y-116618420D01*
X87580416Y-116618420D01*
X87618061Y-116741914D01*
X87628059Y-116758002D01*
X87696847Y-116808785D01*
X87773618Y-116808218D01*
X87826928Y-116754420D01*
X87829994Y-116740151D01*
X87815736Y-116658300D01*
X87768701Y-116558525D01*
X87731160Y-116503349D01*
X87918946Y-116503349D01*
X87922248Y-116521651D01*
X87961839Y-116621178D01*
X88027894Y-116727009D01*
X88040948Y-116740151D01*
X88123166Y-116822923D01*
X88212708Y-116858696D01*
X88276955Y-116830840D01*
X88303392Y-116745278D01*
X88279504Y-116607932D01*
X88278986Y-116606366D01*
X88216321Y-116472456D01*
X88133404Y-116405767D01*
X88017743Y-116396194D01*
X87980387Y-116401916D01*
X87925358Y-116432531D01*
X87918946Y-116503349D01*
X87731160Y-116503349D01*
X87722817Y-116491086D01*
X87675930Y-116454086D01*
X87632098Y-116470430D01*
X87599010Y-116512035D01*
X87580416Y-116618420D01*
X85901711Y-116618420D01*
X85905761Y-116616100D01*
X86143553Y-116480733D01*
X86326558Y-116377144D01*
X87312629Y-116377144D01*
X87330624Y-116459403D01*
X87334664Y-116465658D01*
X87404748Y-116528361D01*
X87479075Y-116513962D01*
X87555310Y-116422842D01*
X87574830Y-116389569D01*
X87606953Y-116321006D01*
X87595893Y-116277080D01*
X87539016Y-116225965D01*
X87464711Y-116179548D01*
X87406592Y-116167520D01*
X87371160Y-116194113D01*
X87329282Y-116276647D01*
X87312629Y-116377144D01*
X86326558Y-116377144D01*
X86382695Y-116345368D01*
X86613373Y-116215568D01*
X86825773Y-116096894D01*
X87010081Y-115994910D01*
X87156482Y-115915178D01*
X87255163Y-115863259D01*
X87296310Y-115844717D01*
X87313215Y-115852694D01*
X87377631Y-115905021D01*
X87473282Y-115995415D01*
X87586405Y-116111233D01*
X87681621Y-116210822D01*
X87769830Y-116295890D01*
X87805244Y-116321006D01*
X87828774Y-116337694D01*
X87871169Y-116344649D01*
X87909730Y-116325168D01*
X88034793Y-116274746D01*
X88165657Y-116291870D01*
X88275125Y-116375077D01*
X88278489Y-116379401D01*
X88333164Y-116465202D01*
X88355743Y-116530667D01*
X88359301Y-116552668D01*
X88395100Y-116583767D01*
X88396459Y-116583715D01*
X88417978Y-116548377D01*
X88414889Y-116460750D01*
X88390982Y-116340177D01*
X88350050Y-116206001D01*
X88295883Y-116077564D01*
X88246317Y-115995157D01*
X88230850Y-115975211D01*
X88416836Y-115975211D01*
X88432689Y-116056421D01*
X88467841Y-116123724D01*
X88506564Y-116155896D01*
X88547024Y-116123910D01*
X88581350Y-116038964D01*
X88600822Y-115926807D01*
X88598515Y-115813251D01*
X88579686Y-115684962D01*
X88487277Y-115820954D01*
X88443380Y-115891957D01*
X88416836Y-115975211D01*
X88230850Y-115975211D01*
X88140877Y-115859179D01*
X88023226Y-115738568D01*
X87994638Y-115712883D01*
X87901950Y-115614625D01*
X87874976Y-115540719D01*
X87913457Y-115477351D01*
X88017138Y-115410706D01*
X88030567Y-115404243D01*
X88104296Y-115401580D01*
X88144831Y-115458770D01*
X88141453Y-115562711D01*
X88137763Y-115618711D01*
X88161735Y-115650230D01*
X88170639Y-115649564D01*
X88217026Y-115610372D01*
X88227913Y-115529616D01*
X88198780Y-115433729D01*
X88187040Y-115409975D01*
X88168858Y-115334262D01*
X88196301Y-115307764D01*
X88261696Y-115341704D01*
X88294052Y-115382186D01*
X88312255Y-115464159D01*
X88308058Y-115600080D01*
X88304763Y-115729318D01*
X88320460Y-115795590D01*
X88352899Y-115791396D01*
X88399473Y-115713502D01*
X88418119Y-115647778D01*
X88407637Y-115561365D01*
X88359742Y-115436275D01*
X88344219Y-115401092D01*
X88473813Y-115401092D01*
X88488675Y-115479611D01*
X88524223Y-115561441D01*
X88566324Y-115618382D01*
X88600873Y-115625518D01*
X88625576Y-115577474D01*
X88613734Y-115486653D01*
X88550230Y-115397397D01*
X88502805Y-115356459D01*
X88477111Y-115351330D01*
X88473813Y-115401092D01*
X88344219Y-115401092D01*
X88337959Y-115386904D01*
X88295577Y-115285295D01*
X88284202Y-115235350D01*
X88303313Y-115222644D01*
X88352388Y-115232752D01*
X88403911Y-115233624D01*
X88445990Y-115178942D01*
X88460164Y-115149793D01*
X88510606Y-115111881D01*
X88564196Y-115107040D01*
X88589127Y-115143210D01*
X88593892Y-115159238D01*
X88635423Y-115225835D01*
X88705774Y-115313607D01*
X88758193Y-115374752D01*
X88797329Y-115439149D01*
X88795679Y-115501825D01*
X88766951Y-115577474D01*
G37*
G36*
X212530535Y-108919402D02*
G01*
X212548876Y-108937713D01*
X212564826Y-108977433D01*
X212583646Y-109023175D01*
X212613102Y-109059489D01*
X212653329Y-109078210D01*
X212664980Y-109082136D01*
X212700892Y-109100720D01*
X212738390Y-109126600D01*
X212754633Y-109138168D01*
X212804449Y-109165171D01*
X212855412Y-109184117D01*
X212876714Y-109190391D01*
X212933982Y-109211298D01*
X212986294Y-109234947D01*
X213008924Y-109246482D01*
X213040179Y-109259878D01*
X213068375Y-109265455D01*
X213100521Y-109263230D01*
X213143621Y-109253218D01*
X213204683Y-109235435D01*
X213253057Y-109222060D01*
X213318581Y-109208236D01*
X213369363Y-109203142D01*
X213402188Y-109207012D01*
X213413844Y-109220083D01*
X213410540Y-109231284D01*
X213391240Y-109256660D01*
X213361952Y-109281851D01*
X213331100Y-109298839D01*
X213323196Y-109302370D01*
X213312927Y-109317467D01*
X213316062Y-109347746D01*
X213319855Y-109379824D01*
X213317239Y-109433406D01*
X213306535Y-109484555D01*
X213289523Y-109521611D01*
X213278953Y-109531605D01*
X213246466Y-109551251D01*
X213205136Y-109568632D01*
X213139274Y-109590928D01*
X213247146Y-109701728D01*
X213250578Y-109705247D01*
X213304379Y-109758230D01*
X213347220Y-109794941D01*
X213384190Y-109819301D01*
X213420380Y-109835233D01*
X213459347Y-109849025D01*
X213516897Y-109869874D01*
X213573079Y-109890642D01*
X213660414Y-109923345D01*
X213723309Y-109889863D01*
X213748588Y-109877065D01*
X213782424Y-109862181D01*
X213802400Y-109856382D01*
X213815692Y-109846485D01*
X213826444Y-109820432D01*
X213829633Y-109806640D01*
X213853784Y-109736737D01*
X213885938Y-109691633D01*
X213897481Y-109681990D01*
X213911633Y-109677629D01*
X213928942Y-109687267D01*
X213957007Y-109713215D01*
X213971528Y-109727014D01*
X213995004Y-109745448D01*
X214012271Y-109748779D01*
X214031293Y-109739865D01*
X214051444Y-109730955D01*
X214063823Y-109733679D01*
X214071872Y-109751826D01*
X214086539Y-109767376D01*
X214111407Y-109777103D01*
X214151790Y-109782895D01*
X214213003Y-109786637D01*
X214237782Y-109787858D01*
X214296301Y-109791405D01*
X214346151Y-109795291D01*
X214378604Y-109798872D01*
X214402648Y-109803534D01*
X214415609Y-109812826D01*
X214419396Y-109833710D01*
X214417822Y-109873438D01*
X214413896Y-109941353D01*
X214356512Y-109936999D01*
X214343278Y-109936273D01*
X214303603Y-109940560D01*
X214285265Y-109957541D01*
X214286321Y-109988648D01*
X214286415Y-109988997D01*
X214303947Y-110009526D01*
X214344312Y-110021675D01*
X214350835Y-110022857D01*
X214392278Y-110035544D01*
X214424220Y-110052909D01*
X214426587Y-110054834D01*
X214440845Y-110068643D01*
X214446236Y-110084294D01*
X214443471Y-110109593D01*
X214433258Y-110152347D01*
X214432423Y-110155620D01*
X214417950Y-110201697D01*
X214401457Y-110229285D01*
X214378765Y-110245530D01*
X214366070Y-110253337D01*
X214339759Y-110284371D01*
X214315167Y-110337119D01*
X214311344Y-110347246D01*
X214302529Y-110372700D01*
X214296518Y-110397015D01*
X214293126Y-110424730D01*
X214292169Y-110460382D01*
X214293464Y-110508510D01*
X214296827Y-110573651D01*
X214302074Y-110660344D01*
X214307099Y-110737334D01*
X214312712Y-110815238D01*
X214318142Y-110883157D01*
X214322957Y-110935719D01*
X214326726Y-110967550D01*
X214336002Y-111026376D01*
X214402164Y-111022102D01*
X214405310Y-111021905D01*
X214448569Y-111021997D01*
X214479296Y-111031112D01*
X214509848Y-111052768D01*
X214519400Y-111060034D01*
X214567913Y-111085403D01*
X214626432Y-111103294D01*
X214658288Y-111111697D01*
X214725261Y-111140278D01*
X214802212Y-111187012D01*
X214828056Y-111204709D01*
X214867708Y-111234025D01*
X214891819Y-111257088D01*
X214905003Y-111278825D01*
X214911872Y-111304167D01*
X214912399Y-111306910D01*
X214925943Y-111350504D01*
X214945146Y-111387890D01*
X214960569Y-111414653D01*
X214967912Y-111457568D01*
X214950287Y-111497758D01*
X214946204Y-111503379D01*
X214931393Y-111537525D01*
X214941226Y-111563263D01*
X214976136Y-111582000D01*
X214979154Y-111583011D01*
X215027142Y-111605910D01*
X215053158Y-111636571D01*
X215060988Y-111679338D01*
X215060993Y-111680339D01*
X215066898Y-111715094D01*
X215080597Y-111738831D01*
X215091127Y-111749874D01*
X215100205Y-111769732D01*
X215098704Y-111778000D01*
X215083514Y-111808498D01*
X215055769Y-111848433D01*
X215020193Y-111891865D01*
X214981512Y-111932857D01*
X214944452Y-111965469D01*
X214938949Y-111969697D01*
X214896215Y-112006814D01*
X214874386Y-112038121D01*
X214871174Y-112068904D01*
X214884292Y-112104445D01*
X214896140Y-112129617D01*
X214897142Y-112144380D01*
X214884936Y-112152262D01*
X214864697Y-112155252D01*
X214831699Y-112151655D01*
X214819192Y-112149292D01*
X214764216Y-112152878D01*
X214710839Y-112174627D01*
X214670075Y-112210530D01*
X214659193Y-112224724D01*
X214640505Y-112241781D01*
X214617389Y-112246391D01*
X214579231Y-112242261D01*
X214515661Y-112225796D01*
X214455685Y-112192426D01*
X214394991Y-112138407D01*
X214378990Y-112122319D01*
X214355144Y-112100390D01*
X214342596Y-112091791D01*
X214340501Y-112096715D01*
X214337358Y-112122408D01*
X214334809Y-112165121D01*
X214333266Y-112219248D01*
X214332412Y-112249776D01*
X214328814Y-112307328D01*
X214323343Y-112354779D01*
X214316802Y-112384106D01*
X214306448Y-112405979D01*
X214290210Y-112416055D01*
X214260065Y-112412309D01*
X214259981Y-112412291D01*
X214230526Y-112408043D01*
X214181744Y-112403278D01*
X214120397Y-112398575D01*
X214053245Y-112394518D01*
X214013372Y-112392338D01*
X213955052Y-112388231D01*
X213914020Y-112383131D01*
X213884495Y-112375848D01*
X213860698Y-112365193D01*
X213836845Y-112349974D01*
X213820326Y-112339276D01*
X213785641Y-112321179D01*
X213760987Y-112314024D01*
X213747707Y-112308443D01*
X213718588Y-112287214D01*
X213680256Y-112253827D01*
X213637500Y-112212228D01*
X213601931Y-112176466D01*
X213562738Y-112140392D01*
X213529874Y-112116320D01*
X213496980Y-112099801D01*
X213457697Y-112086383D01*
X213419313Y-112076143D01*
X213367395Y-112065494D01*
X213326971Y-112060722D01*
X213276582Y-112059109D01*
X213274318Y-112131008D01*
X213274296Y-112131683D01*
X213271579Y-112182069D01*
X213266708Y-112244765D01*
X213260721Y-112306362D01*
X213249389Y-112409816D01*
X213171478Y-112481305D01*
X213122063Y-112523528D01*
X213051984Y-112570150D01*
X212989180Y-112593851D01*
X212932032Y-112595401D01*
X212892145Y-112592554D01*
X212834102Y-112599051D01*
X212781879Y-112615561D01*
X212745367Y-112639734D01*
X212720325Y-112657586D01*
X212685796Y-112666984D01*
X212685783Y-112666984D01*
X212657349Y-112673259D01*
X212615681Y-112689696D01*
X212569796Y-112712738D01*
X212549872Y-112723608D01*
X212502780Y-112745247D01*
X212460832Y-112755745D01*
X212412371Y-112758492D01*
X212366939Y-112760649D01*
X212326102Y-112770772D01*
X212287956Y-112792315D01*
X212287175Y-112792856D01*
X212260577Y-112813354D01*
X212245018Y-112834041D01*
X212236271Y-112863552D01*
X212230113Y-112910522D01*
X212227077Y-112951162D01*
X212226347Y-113005199D01*
X212229416Y-113047061D01*
X212232617Y-113078316D01*
X212226519Y-113104740D01*
X212205841Y-113128794D01*
X212193168Y-113142891D01*
X212174767Y-113180256D01*
X212162875Y-113236224D01*
X212159396Y-113265077D01*
X212155908Y-113286378D01*
X212148748Y-113300610D01*
X212134172Y-113308826D01*
X212108438Y-113312079D01*
X212067800Y-113311420D01*
X212008515Y-113307904D01*
X211926840Y-113302581D01*
X211779773Y-113293401D01*
X211779773Y-113373375D01*
X211779494Y-113408397D01*
X211776482Y-113435279D01*
X211767417Y-113457769D01*
X211748975Y-113481363D01*
X211717835Y-113511558D01*
X211670675Y-113553848D01*
X211641450Y-113591838D01*
X211621812Y-113652942D01*
X211618848Y-113727879D01*
X211632632Y-113813157D01*
X211663240Y-113905285D01*
X211670121Y-113924072D01*
X211673734Y-113956274D01*
X211663681Y-113994456D01*
X211654528Y-114024196D01*
X211655272Y-114046225D01*
X211668920Y-114066040D01*
X211677840Y-114076737D01*
X211684436Y-114092797D01*
X211681576Y-114115349D01*
X211669297Y-114153348D01*
X211665654Y-114165118D01*
X211654914Y-114213898D01*
X211645720Y-114274884D01*
X211639747Y-114337635D01*
X211638269Y-114359818D01*
X211633539Y-114411704D01*
X211627343Y-114444959D01*
X211618284Y-114465230D01*
X211604963Y-114478165D01*
X211599695Y-114481179D01*
X211565371Y-114490635D01*
X211515862Y-114496040D01*
X211459374Y-114497412D01*
X211404114Y-114494772D01*
X211358286Y-114488137D01*
X211330097Y-114477526D01*
X211316750Y-114468779D01*
X211297258Y-114466506D01*
X211269774Y-114479714D01*
X211266112Y-114481934D01*
X211233075Y-114509761D01*
X211209048Y-114548872D01*
X211191813Y-114604186D01*
X211179152Y-114680620D01*
X211176957Y-114698334D01*
X211171039Y-114748472D01*
X211166913Y-114787085D01*
X211165362Y-114806972D01*
X211155658Y-114824835D01*
X211131870Y-114845300D01*
X211128661Y-114847388D01*
X211105475Y-114859405D01*
X211084434Y-114858794D01*
X211052991Y-114845601D01*
X211013043Y-114829123D01*
X210979440Y-114825054D01*
X210957470Y-114839541D01*
X210942314Y-114873811D01*
X210940791Y-114879065D01*
X210934556Y-114913986D01*
X210937244Y-114951064D01*
X210949470Y-115001268D01*
X210958792Y-115036870D01*
X210968905Y-115083928D01*
X210973686Y-115118090D01*
X210974103Y-115128457D01*
X210970903Y-115148310D01*
X210955637Y-115157318D01*
X210921270Y-115161278D01*
X210911943Y-115162055D01*
X210875940Y-115169225D01*
X210852564Y-115186007D01*
X210836932Y-115217885D01*
X210824160Y-115270346D01*
X210820186Y-115294632D01*
X210819906Y-115369947D01*
X210838105Y-115435217D01*
X210873563Y-115485140D01*
X210894819Y-115502281D01*
X210935092Y-115529983D01*
X210979912Y-115557200D01*
X210980993Y-115557813D01*
X211028277Y-115588737D01*
X211081855Y-115629705D01*
X211130335Y-115672021D01*
X211132045Y-115673663D01*
X211161291Y-115704364D01*
X211199779Y-115748215D01*
X211244609Y-115801534D01*
X211292877Y-115860643D01*
X211341682Y-115921860D01*
X211388121Y-115981508D01*
X211429292Y-116035906D01*
X211462293Y-116081374D01*
X211484222Y-116114233D01*
X211492177Y-116130803D01*
X211484549Y-116135798D01*
X211455772Y-116138309D01*
X211410473Y-116136234D01*
X211395416Y-116134954D01*
X211355588Y-116133110D01*
X211328731Y-116137953D01*
X211304664Y-116152801D01*
X211273211Y-116180969D01*
X211261344Y-116192434D01*
X211228323Y-116233127D01*
X211217653Y-116266966D01*
X211217402Y-116274084D01*
X211208802Y-116296104D01*
X211185887Y-116299747D01*
X211145843Y-116285747D01*
X211140411Y-116283347D01*
X211118759Y-116277981D01*
X211099775Y-116286356D01*
X211074066Y-116311892D01*
X211064393Y-116321920D01*
X211037717Y-116344454D01*
X211018743Y-116353448D01*
X211012495Y-116354788D01*
X210987269Y-116367964D01*
X210955912Y-116390659D01*
X210945449Y-116399026D01*
X210909990Y-116425148D01*
X210881644Y-116443083D01*
X210862804Y-116458393D01*
X210834389Y-116490287D01*
X210805158Y-116530134D01*
X210791266Y-116551260D01*
X210772356Y-116583827D01*
X210763565Y-116611578D01*
X210762480Y-116644780D01*
X210766686Y-116693702D01*
X210770181Y-116741625D01*
X210768515Y-116782268D01*
X210759869Y-116804746D01*
X210749038Y-116815350D01*
X210724446Y-116822447D01*
X210694201Y-116808579D01*
X210654933Y-116772718D01*
X210648798Y-116766079D01*
X210608600Y-116712434D01*
X210568663Y-116640365D01*
X210526888Y-116546162D01*
X210516450Y-116529069D01*
X210487318Y-116497733D01*
X210449871Y-116467818D01*
X210392808Y-116426331D01*
X210342006Y-116381463D01*
X210297467Y-116330928D01*
X210255515Y-116269957D01*
X210212475Y-116193779D01*
X210164672Y-116097625D01*
X210159311Y-116086415D01*
X210120367Y-116007154D01*
X210088354Y-115947090D01*
X210060578Y-115901783D01*
X210034347Y-115866796D01*
X210006966Y-115837690D01*
X209975332Y-115808657D01*
X209948633Y-115786666D01*
X209934538Y-115778255D01*
X209927376Y-115776356D01*
X209910315Y-115754355D01*
X209895837Y-115709613D01*
X209884297Y-115644531D01*
X209876055Y-115561509D01*
X209871468Y-115462947D01*
X209870893Y-115351244D01*
X209872820Y-115205293D01*
X209784731Y-115111914D01*
X209743268Y-115069510D01*
X209644830Y-114980681D01*
X209547571Y-114908801D01*
X209454130Y-114855472D01*
X209367147Y-114822299D01*
X209289260Y-114810885D01*
X209256019Y-114809120D01*
X209229051Y-114799554D01*
X209209590Y-114777865D01*
X209183451Y-114744290D01*
X209149777Y-114717317D01*
X209105368Y-114697714D01*
X209045090Y-114683264D01*
X208963811Y-114671751D01*
X208916130Y-114666913D01*
X208854596Y-114662543D01*
X208803445Y-114660993D01*
X208770436Y-114662630D01*
X208738335Y-114666410D01*
X208678117Y-114662917D01*
X208634001Y-114641587D01*
X208602923Y-114601300D01*
X208577391Y-114564060D01*
X208525892Y-114523894D01*
X208488502Y-114503035D01*
X208455502Y-114475669D01*
X208436966Y-114441887D01*
X208426816Y-114393701D01*
X208426743Y-114393172D01*
X208420712Y-114361674D01*
X208410244Y-114330447D01*
X208393020Y-114295309D01*
X208366719Y-114252073D01*
X208329022Y-114196557D01*
X208277609Y-114124575D01*
X208232256Y-114058762D01*
X208183851Y-113976063D01*
X208155195Y-113906934D01*
X208145654Y-113850051D01*
X208142756Y-113803633D01*
X208120518Y-113721496D01*
X208075275Y-113649312D01*
X208061206Y-113631585D01*
X208041747Y-113599026D01*
X208030465Y-113561345D01*
X208023508Y-113508033D01*
X208017244Y-113460101D01*
X208004321Y-113390567D01*
X207988950Y-113327559D01*
X207987142Y-113321243D01*
X207976157Y-113280682D01*
X207968418Y-113244703D01*
X207963649Y-113208194D01*
X207961571Y-113166040D01*
X207961908Y-113113128D01*
X207964382Y-113044346D01*
X207968715Y-112954580D01*
X207969888Y-112930841D01*
X207972995Y-112844760D01*
X207971986Y-112779176D01*
X207965405Y-112729601D01*
X207951798Y-112691546D01*
X207929709Y-112660523D01*
X207897682Y-112632044D01*
X207854263Y-112601621D01*
X207831721Y-112586244D01*
X207796752Y-112559396D01*
X207765634Y-112529770D01*
X207735124Y-112493313D01*
X207701979Y-112445974D01*
X207662957Y-112383702D01*
X207614814Y-112302444D01*
X207578537Y-112245457D01*
X207533735Y-112186933D01*
X207492624Y-112145573D01*
X207471106Y-112127487D01*
X207412903Y-112073850D01*
X207351701Y-112011966D01*
X207292050Y-111946910D01*
X207238503Y-111883758D01*
X207195608Y-111827583D01*
X207167917Y-111783460D01*
X207166902Y-111781434D01*
X207148630Y-111734452D01*
X207130575Y-111671642D01*
X207114946Y-111602675D01*
X207103950Y-111537226D01*
X207099794Y-111484965D01*
X207099916Y-111480598D01*
X207105194Y-111442853D01*
X207116707Y-111391855D01*
X207132308Y-111337348D01*
X207134777Y-111329472D01*
X207150080Y-111273448D01*
X207160988Y-111221242D01*
X207165277Y-111183247D01*
X207167597Y-111156126D01*
X207182734Y-111098156D01*
X207208012Y-111043730D01*
X207238797Y-111004142D01*
X207262509Y-110991309D01*
X207305523Y-110981885D01*
X207370581Y-110976143D01*
X207386165Y-110975258D01*
X207429985Y-110971554D01*
X207466319Y-110964826D01*
X207500953Y-110952692D01*
X207539678Y-110932766D01*
X207588280Y-110902666D01*
X207652547Y-110860008D01*
X207668743Y-110848641D01*
X207716783Y-110811711D01*
X207770873Y-110766840D01*
X207822102Y-110721316D01*
X207888282Y-110664333D01*
X208008161Y-110581396D01*
X208131114Y-110520721D01*
X208254582Y-110483467D01*
X208376003Y-110470792D01*
X208397464Y-110470032D01*
X208453592Y-110463162D01*
X208502287Y-110451463D01*
X208534305Y-110442180D01*
X208589137Y-110429716D01*
X208644811Y-110420013D01*
X208686990Y-110412266D01*
X208737634Y-110398817D01*
X208774619Y-110384331D01*
X208823739Y-110366601D01*
X208896245Y-110359898D01*
X208972950Y-110370174D01*
X209045471Y-110397036D01*
X209115235Y-110433163D01*
X209104298Y-110402956D01*
X209097449Y-110380639D01*
X209092070Y-110315137D01*
X209109068Y-110257606D01*
X209146676Y-110211986D01*
X209203131Y-110182218D01*
X209214834Y-110178220D01*
X209255505Y-110162459D01*
X209307904Y-110140555D01*
X209363650Y-110115968D01*
X209397644Y-110101305D01*
X209481409Y-110070007D01*
X209570075Y-110042330D01*
X209656518Y-110020190D01*
X209733619Y-110005501D01*
X209794255Y-110000180D01*
X209815813Y-110000471D01*
X209846906Y-110004993D01*
X209867746Y-110019388D01*
X209889059Y-110049202D01*
X209895079Y-110058315D01*
X209919813Y-110091181D01*
X209945692Y-110120391D01*
X209968372Y-110141736D01*
X209983512Y-110151002D01*
X209986770Y-110143978D01*
X209982412Y-110128832D01*
X209971433Y-110093859D01*
X209957270Y-110050616D01*
X209944586Y-110006305D01*
X209940705Y-109965175D01*
X209951912Y-109941983D01*
X209978617Y-109934507D01*
X210004337Y-109930493D01*
X210052282Y-109915221D01*
X210109655Y-109891413D01*
X210169244Y-109862129D01*
X210223838Y-109830429D01*
X210254956Y-109808160D01*
X210290376Y-109769988D01*
X210300008Y-109733977D01*
X210283741Y-109700369D01*
X210279351Y-109694928D01*
X210267048Y-109662832D01*
X210265851Y-109613211D01*
X210266961Y-109598084D01*
X210271794Y-109569113D01*
X210283445Y-109546627D01*
X210306728Y-109523394D01*
X210346461Y-109492183D01*
X210386515Y-109459986D01*
X210424781Y-109421733D01*
X210454315Y-109379106D01*
X210479820Y-109325035D01*
X210506004Y-109252448D01*
X210514220Y-109228712D01*
X210548170Y-109147629D01*
X210583507Y-109088740D01*
X210619107Y-109054012D01*
X210634401Y-109050166D01*
X210663459Y-109062119D01*
X210696087Y-109093020D01*
X210729727Y-109139169D01*
X210761825Y-109196865D01*
X210789823Y-109262407D01*
X210811166Y-109332094D01*
X210823547Y-109378054D01*
X210836730Y-109408350D01*
X210855275Y-109428743D01*
X210884302Y-109447300D01*
X210893172Y-109452128D01*
X210947221Y-109472809D01*
X210991597Y-109474363D01*
X211022505Y-109456535D01*
X211034937Y-109446495D01*
X211059142Y-109441476D01*
X211097460Y-109445347D01*
X211155105Y-109458173D01*
X211159392Y-109459090D01*
X211202931Y-109456812D01*
X211263387Y-109436912D01*
X211284861Y-109428284D01*
X211323444Y-109416126D01*
X211354484Y-109414106D01*
X211388922Y-109420824D01*
X211436236Y-109427906D01*
X211488119Y-109424428D01*
X211526950Y-109418005D01*
X211555414Y-109422681D01*
X211566824Y-109443645D01*
X211564780Y-109483677D01*
X211556537Y-109538644D01*
X211687048Y-109547197D01*
X211694329Y-109547688D01*
X211769821Y-109555131D01*
X211823881Y-109565845D01*
X211860761Y-109580650D01*
X211865856Y-109583494D01*
X211902573Y-109601839D01*
X211952437Y-109624627D01*
X212006186Y-109647593D01*
X212074603Y-109671669D01*
X212142552Y-109683280D01*
X212199170Y-109676303D01*
X212248243Y-109650790D01*
X212266367Y-109636498D01*
X212280785Y-109621353D01*
X212294491Y-109600032D01*
X212311258Y-109566627D01*
X212334861Y-109515233D01*
X212343497Y-109495453D01*
X212361371Y-109441807D01*
X212365873Y-109392625D01*
X212356998Y-109338934D01*
X212334741Y-109271758D01*
X212319247Y-109224562D01*
X212309607Y-109181424D01*
X212308843Y-109153815D01*
X212312937Y-109144357D01*
X212335266Y-109117419D01*
X212368286Y-109091480D01*
X212368862Y-109091116D01*
X212401583Y-109067230D01*
X212416675Y-109044589D01*
X212420329Y-109013971D01*
X212424627Y-108981289D01*
X212448446Y-108942606D01*
X212492399Y-108920482D01*
X212504055Y-108917978D01*
X212530535Y-108919402D01*
G37*
%TD*%
%LPC*%
X183462285Y-111535714D02*
X183405142Y-111421429D01*
X183405142Y-111421429D02*
X183405142Y-111250000D01*
X183405142Y-111250000D02*
X183462285Y-111078571D01*
X183462285Y-111078571D02*
X183576571Y-110964286D01*
X183576571Y-110964286D02*
X183690857Y-110907143D01*
X183690857Y-110907143D02*
X183919428Y-110850000D01*
X183919428Y-110850000D02*
X184090857Y-110850000D01*
X184090857Y-110850000D02*
X184319428Y-110907143D01*
X184319428Y-110907143D02*
X184433714Y-110964286D01*
X184433714Y-110964286D02*
X184548000Y-111078571D01*
X184548000Y-111078571D02*
X184605142Y-111250000D01*
X184605142Y-111250000D02*
X184605142Y-111364286D01*
X184605142Y-111364286D02*
X184548000Y-111535714D01*
X184548000Y-111535714D02*
X184490857Y-111592857D01*
X184490857Y-111592857D02*
X184090857Y-111592857D01*
X184090857Y-111592857D02*
X184090857Y-111364286D01*
X184605142Y-112107143D02*
X183405142Y-112107143D01*
X183405142Y-112107143D02*
X184605142Y-112792857D01*
X184605142Y-112792857D02*
X183405142Y-112792857D01*
X184605142Y-113364286D02*
X183405142Y-113364286D01*
X183405142Y-113364286D02*
X183405142Y-113650000D01*
X183405142Y-113650000D02*
X183462285Y-113821429D01*
X183462285Y-113821429D02*
X183576571Y-113935714D01*
X183576571Y-113935714D02*
X183690857Y-113992857D01*
X183690857Y-113992857D02*
X183919428Y-114050000D01*
X183919428Y-114050000D02*
X184090857Y-114050000D01*
X184090857Y-114050000D02*
X184319428Y-113992857D01*
X184319428Y-113992857D02*
X184433714Y-113935714D01*
X184433714Y-113935714D02*
X184548000Y-113821429D01*
X184548000Y-113821429D02*
X184605142Y-113650000D01*
X184605142Y-113650000D02*
X184605142Y-113364286D01*
X109412285Y-111535714D02*
X109355142Y-111421429D01*
X109355142Y-111421429D02*
X109355142Y-111250000D01*
X109355142Y-111250000D02*
X109412285Y-111078571D01*
X109412285Y-111078571D02*
X109526571Y-110964286D01*
X109526571Y-110964286D02*
X109640857Y-110907143D01*
X109640857Y-110907143D02*
X109869428Y-110850000D01*
X109869428Y-110850000D02*
X110040857Y-110850000D01*
X110040857Y-110850000D02*
X110269428Y-110907143D01*
X110269428Y-110907143D02*
X110383714Y-110964286D01*
X110383714Y-110964286D02*
X110498000Y-111078571D01*
X110498000Y-111078571D02*
X110555142Y-111250000D01*
X110555142Y-111250000D02*
X110555142Y-111364286D01*
X110555142Y-111364286D02*
X110498000Y-111535714D01*
X110498000Y-111535714D02*
X110440857Y-111592857D01*
X110440857Y-111592857D02*
X110040857Y-111592857D01*
X110040857Y-111592857D02*
X110040857Y-111364286D01*
X110555142Y-112107143D02*
X109355142Y-112107143D01*
X109355142Y-112107143D02*
X110555142Y-112792857D01*
X110555142Y-112792857D02*
X109355142Y-112792857D01*
X110555142Y-113364286D02*
X109355142Y-113364286D01*
X109355142Y-113364286D02*
X109355142Y-113650000D01*
X109355142Y-113650000D02*
X109412285Y-113821429D01*
X109412285Y-113821429D02*
X109526571Y-113935714D01*
X109526571Y-113935714D02*
X109640857Y-113992857D01*
X109640857Y-113992857D02*
X109869428Y-114050000D01*
X109869428Y-114050000D02*
X110040857Y-114050000D01*
X110040857Y-114050000D02*
X110269428Y-113992857D01*
X110269428Y-113992857D02*
X110383714Y-113935714D01*
X110383714Y-113935714D02*
X110498000Y-113821429D01*
X110498000Y-113821429D02*
X110555142Y-113650000D01*
X110555142Y-113650000D02*
X110555142Y-113364286D01*
X149073928Y-109251428D02*
X147573928Y-109251428D01*
X147573928Y-109251428D02*
X147573928Y-109608571D01*
X147573928Y-109608571D02*
X147645357Y-109822857D01*
X147645357Y-109822857D02*
X147788214Y-109965714D01*
X147788214Y-109965714D02*
X147931071Y-110037143D01*
X147931071Y-110037143D02*
X148216785Y-110108571D01*
X148216785Y-110108571D02*
X148431071Y-110108571D01*
X148431071Y-110108571D02*
X148716785Y-110037143D01*
X148716785Y-110037143D02*
X148859642Y-109965714D01*
X148859642Y-109965714D02*
X149002500Y-109822857D01*
X149002500Y-109822857D02*
X149073928Y-109608571D01*
X149073928Y-109608571D02*
X149073928Y-109251428D01*
X149073928Y-110751428D02*
X147573928Y-110751428D01*
X147645357Y-112251429D02*
X147573928Y-112108572D01*
X147573928Y-112108572D02*
X147573928Y-111894286D01*
X147573928Y-111894286D02*
X147645357Y-111680000D01*
X147645357Y-111680000D02*
X147788214Y-111537143D01*
X147788214Y-111537143D02*
X147931071Y-111465714D01*
X147931071Y-111465714D02*
X148216785Y-111394286D01*
X148216785Y-111394286D02*
X148431071Y-111394286D01*
X148431071Y-111394286D02*
X148716785Y-111465714D01*
X148716785Y-111465714D02*
X148859642Y-111537143D01*
X148859642Y-111537143D02*
X149002500Y-111680000D01*
X149002500Y-111680000D02*
X149073928Y-111894286D01*
X149073928Y-111894286D02*
X149073928Y-112037143D01*
X149073928Y-112037143D02*
X149002500Y-112251429D01*
X149002500Y-112251429D02*
X148931071Y-112322857D01*
X148931071Y-112322857D02*
X148431071Y-112322857D01*
X148431071Y-112322857D02*
X148431071Y-112037143D01*
X149073928Y-112965714D02*
X147573928Y-112965714D01*
X147573928Y-113465715D02*
X147573928Y-114322858D01*
X149073928Y-113894286D02*
X147573928Y-113894286D01*
X148645357Y-114751429D02*
X148645357Y-115465715D01*
X149073928Y-114608572D02*
X147573928Y-115108572D01*
X147573928Y-115108572D02*
X149073928Y-115608572D01*
X149073928Y-116822857D02*
X149073928Y-116108571D01*
X149073928Y-116108571D02*
X147573928Y-116108571D01*
X145935357Y-108981428D02*
X145935357Y-109695714D01*
X146363928Y-108838571D02*
X144863928Y-109338571D01*
X144863928Y-109338571D02*
X146363928Y-109838571D01*
X146363928Y-110338570D02*
X144863928Y-110338570D01*
X144863928Y-110338570D02*
X146363928Y-111195713D01*
X146363928Y-111195713D02*
X144863928Y-111195713D01*
X145935357Y-111838571D02*
X145935357Y-112552857D01*
X146363928Y-111695714D02*
X144863928Y-112195714D01*
X144863928Y-112195714D02*
X146363928Y-112695714D01*
X146363928Y-113909999D02*
X146363928Y-113195713D01*
X146363928Y-113195713D02*
X144863928Y-113195713D01*
X144863928Y-114695714D02*
X144863928Y-114981428D01*
X144863928Y-114981428D02*
X144935357Y-115124285D01*
X144935357Y-115124285D02*
X145078214Y-115267142D01*
X145078214Y-115267142D02*
X145363928Y-115338571D01*
X145363928Y-115338571D02*
X145863928Y-115338571D01*
X145863928Y-115338571D02*
X146149642Y-115267142D01*
X146149642Y-115267142D02*
X146292500Y-115124285D01*
X146292500Y-115124285D02*
X146363928Y-114981428D01*
X146363928Y-114981428D02*
X146363928Y-114695714D01*
X146363928Y-114695714D02*
X146292500Y-114552857D01*
X146292500Y-114552857D02*
X146149642Y-114409999D01*
X146149642Y-114409999D02*
X145863928Y-114338571D01*
X145863928Y-114338571D02*
X145363928Y-114338571D01*
X145363928Y-114338571D02*
X145078214Y-114409999D01*
X145078214Y-114409999D02*
X144935357Y-114552857D01*
X144935357Y-114552857D02*
X144863928Y-114695714D01*
X144935357Y-116767143D02*
X144863928Y-116624286D01*
X144863928Y-116624286D02*
X144863928Y-116410000D01*
X144863928Y-116410000D02*
X144935357Y-116195714D01*
X144935357Y-116195714D02*
X145078214Y-116052857D01*
X145078214Y-116052857D02*
X145221071Y-115981428D01*
X145221071Y-115981428D02*
X145506785Y-115910000D01*
X145506785Y-115910000D02*
X145721071Y-115910000D01*
X145721071Y-115910000D02*
X146006785Y-115981428D01*
X146006785Y-115981428D02*
X146149642Y-116052857D01*
X146149642Y-116052857D02*
X146292500Y-116195714D01*
X146292500Y-116195714D02*
X146363928Y-116410000D01*
X146363928Y-116410000D02*
X146363928Y-116552857D01*
X146363928Y-116552857D02*
X146292500Y-116767143D01*
X146292500Y-116767143D02*
X146221071Y-116838571D01*
X146221071Y-116838571D02*
X145721071Y-116838571D01*
X145721071Y-116838571D02*
X145721071Y-116552857D01*
D14*
%TO.C,REF\u002A\u002A*%
X189525000Y-114450000D03*
D15*
X189525000Y-114450000D03*
%TD*%
D14*
%TO.C,REF\u002A\u002A*%
X189525000Y-102450000D03*
D15*
X189525000Y-102450000D03*
%TD*%
D14*
%TO.C,REF\u002A\u002A*%
X104525000Y-102450000D03*
D15*
X104525000Y-102450000D03*
%TD*%
D16*
%TO.C,J1*%
X143025000Y-115950000D03*
X140485000Y-115950000D03*
X137945000Y-115950000D03*
X135405000Y-115950000D03*
X132865000Y-115950000D03*
X130325000Y-115950000D03*
X127785000Y-115950000D03*
X125245000Y-115950000D03*
X122705000Y-115950000D03*
X120165000Y-115950000D03*
X117625000Y-115950000D03*
X115085000Y-115950000D03*
X112545000Y-115950000D03*
D17*
X110005000Y-115950000D03*
%TD*%
D14*
%TO.C,REF\u002A\u002A*%
X104525000Y-114450000D03*
D15*
X104525000Y-114450000D03*
%TD*%
D16*
%TO.C,J2*%
X151025000Y-115950000D03*
X153565000Y-115950000D03*
X156105000Y-115950000D03*
X158645000Y-115950000D03*
X161185000Y-115950000D03*
X163725000Y-115950000D03*
X166265000Y-115950000D03*
X168805000Y-115950000D03*
X171345000Y-115950000D03*
X173885000Y-115950000D03*
X176425000Y-115950000D03*
X178965000Y-115950000D03*
X181505000Y-115950000D03*
D17*
X184045000Y-115950000D03*
%TD*%
M02*
