%TF.GenerationSoftware,KiCad,Pcbnew,7.0.1*%
%TF.CreationDate,2023-08-09T15:39:39-03:00*%
%TF.ProjectId,QRE_12A,5152455f-3132-4412-9e6b-696361645f70,rev?*%
%TF.SameCoordinates,Original*%
%TF.FileFunction,Copper,L2,Bot*%
%TF.FilePolarity,Positive*%
%FSLAX46Y46*%
G04 Gerber Fmt 4.6, Leading zero omitted, Abs format (unit mm)*
G04 Created by KiCad (PCBNEW 7.0.1) date 2023-08-09 15:39:39*
%MOMM*%
%LPD*%
G01*
G04 APERTURE LIST*
%TA.AperFunction,NonConductor*%
%ADD10C,0.200000*%
%TD*%
%ADD11C,0.150000*%
%TA.AperFunction,NonConductor*%
%ADD12C,0.150000*%
%TD*%
%TA.AperFunction,ComponentPad*%
%ADD13C,3.600000*%
%TD*%
%TA.AperFunction,ConnectorPad*%
%ADD14C,5.600000*%
%TD*%
%TA.AperFunction,ComponentPad*%
%ADD15O,1.700000X1.700000*%
%TD*%
%TA.AperFunction,ComponentPad*%
%ADD16R,1.700000X1.700000*%
%TD*%
%TA.AperFunction,ViaPad*%
%ADD17C,0.800000*%
%TD*%
%TA.AperFunction,Conductor*%
%ADD18C,0.250000*%
%TD*%
G04 APERTURE END LIST*
D10*
X192625000Y-100150000D02*
X193675000Y-100150000D01*
X192625000Y-100937500D02*
X192625000Y-100675000D01*
X193150000Y-100412500D02*
X192625000Y-100937500D01*
X100400000Y-100912500D02*
X100662500Y-100912500D01*
X100400000Y-100125000D02*
X101450000Y-100125000D01*
X100925000Y-100387500D02*
X100400000Y-100912500D01*
X193150000Y-100412500D02*
X193675000Y-100937500D01*
X100400000Y-100912500D02*
X100400000Y-100650000D01*
X100662500Y-100912500D02*
X100400000Y-100650000D01*
X192887500Y-100937500D02*
X192625000Y-100675000D01*
X192625000Y-100937500D02*
X192887500Y-100937500D01*
X100925000Y-100387500D02*
X101450000Y-100912500D01*
D11*
D12*
X101404761Y-115877619D02*
X101071428Y-116877619D01*
X101071428Y-116877619D02*
X100738095Y-115877619D01*
X99880952Y-116877619D02*
X100452380Y-116877619D01*
X100166666Y-116877619D02*
X100166666Y-115877619D01*
X100166666Y-115877619D02*
X100261904Y-116020476D01*
X100261904Y-116020476D02*
X100357142Y-116115714D01*
X100357142Y-116115714D02*
X100452380Y-116163333D01*
X99452380Y-116782380D02*
X99404761Y-116830000D01*
X99404761Y-116830000D02*
X99452380Y-116877619D01*
X99452380Y-116877619D02*
X99499999Y-116830000D01*
X99499999Y-116830000D02*
X99452380Y-116782380D01*
X99452380Y-116782380D02*
X99452380Y-116877619D01*
X98785714Y-115877619D02*
X98690476Y-115877619D01*
X98690476Y-115877619D02*
X98595238Y-115925238D01*
X98595238Y-115925238D02*
X98547619Y-115972857D01*
X98547619Y-115972857D02*
X98500000Y-116068095D01*
X98500000Y-116068095D02*
X98452381Y-116258571D01*
X98452381Y-116258571D02*
X98452381Y-116496666D01*
X98452381Y-116496666D02*
X98500000Y-116687142D01*
X98500000Y-116687142D02*
X98547619Y-116782380D01*
X98547619Y-116782380D02*
X98595238Y-116830000D01*
X98595238Y-116830000D02*
X98690476Y-116877619D01*
X98690476Y-116877619D02*
X98785714Y-116877619D01*
X98785714Y-116877619D02*
X98880952Y-116830000D01*
X98880952Y-116830000D02*
X98928571Y-116782380D01*
X98928571Y-116782380D02*
X98976190Y-116687142D01*
X98976190Y-116687142D02*
X99023809Y-116496666D01*
X99023809Y-116496666D02*
X99023809Y-116258571D01*
X99023809Y-116258571D02*
X98976190Y-116068095D01*
X98976190Y-116068095D02*
X98928571Y-115972857D01*
X98928571Y-115972857D02*
X98880952Y-115925238D01*
X98880952Y-115925238D02*
X98785714Y-115877619D01*
%TA.AperFunction,EtchedComponent*%
%TO.C,G\u002A\u002A\u002A*%
G36*
X100729408Y-114547399D02*
G01*
X100748504Y-114553957D01*
X100765309Y-114570019D01*
X100775708Y-114591706D01*
X100776963Y-114604074D01*
X100771923Y-114619817D01*
X100758044Y-114636160D01*
X100734018Y-114654539D01*
X100698537Y-114676389D01*
X100681525Y-114685879D01*
X100655839Y-114698930D01*
X100635111Y-114707923D01*
X100622691Y-114711314D01*
X100603634Y-114706207D01*
X100587233Y-114691403D01*
X100576910Y-114670861D01*
X100574621Y-114648588D01*
X100582319Y-114628588D01*
X100583405Y-114627306D01*
X100595983Y-114616984D01*
X100616734Y-114603274D01*
X100642390Y-114587991D01*
X100669683Y-114572947D01*
X100695343Y-114559957D01*
X100716101Y-114550833D01*
X100728690Y-114547389D01*
X100729408Y-114547399D01*
G37*
%TD.AperFunction*%
%TA.AperFunction,EtchedComponent*%
G36*
X100275468Y-114190322D02*
G01*
X100291825Y-114204899D01*
X100300212Y-114225266D01*
X100299223Y-114247928D01*
X100287457Y-114269391D01*
X100278005Y-114277042D01*
X100258991Y-114289763D01*
X100233483Y-114305478D01*
X100204319Y-114322377D01*
X100176014Y-114337631D01*
X100149418Y-114350695D01*
X100128673Y-114359535D01*
X100116742Y-114362785D01*
X100105228Y-114360262D01*
X100087252Y-114348358D01*
X100073174Y-114330800D01*
X100067483Y-114312200D01*
X100071976Y-114295309D01*
X100082867Y-114278409D01*
X100087304Y-114274138D01*
X100105209Y-114260599D01*
X100130195Y-114244522D01*
X100159182Y-114227592D01*
X100189093Y-114211493D01*
X100216848Y-114197908D01*
X100239371Y-114188523D01*
X100253582Y-114185020D01*
X100275468Y-114190322D01*
G37*
%TD.AperFunction*%
%TA.AperFunction,EtchedComponent*%
G36*
X99815961Y-112918331D02*
G01*
X99814583Y-112967862D01*
X99800757Y-113026264D01*
X99775824Y-113081080D01*
X99740846Y-113129804D01*
X99696887Y-113169930D01*
X99678404Y-113183378D01*
X99688751Y-113231238D01*
X99698324Y-113283516D01*
X99707598Y-113355295D01*
X99714330Y-113433507D01*
X99718341Y-113514307D01*
X99719226Y-113577784D01*
X99719450Y-113593847D01*
X99717477Y-113668283D01*
X99712244Y-113733769D01*
X99711716Y-113738425D01*
X99709413Y-113762536D01*
X99708436Y-113780163D01*
X99708996Y-113787767D01*
X99710847Y-113787764D01*
X99722517Y-113784023D01*
X99742248Y-113776107D01*
X99767093Y-113765163D01*
X99789587Y-113755106D01*
X99885691Y-113716815D01*
X99980082Y-113686435D01*
X99991957Y-113683147D01*
X100014958Y-113677446D01*
X100030213Y-113675502D01*
X100041539Y-113677080D01*
X100052753Y-113681944D01*
X100065623Y-113690114D01*
X100077700Y-113706587D01*
X100081157Y-113730909D01*
X100077562Y-113747202D01*
X100064684Y-113762127D01*
X100041047Y-113775314D01*
X100005196Y-113787855D01*
X99987369Y-113793287D01*
X99884397Y-113829926D01*
X99779459Y-113875556D01*
X99677145Y-113928035D01*
X99582046Y-113985223D01*
X99488555Y-114051097D01*
X99389251Y-114133571D01*
X99301538Y-114221201D01*
X99225769Y-114313553D01*
X99162292Y-114410193D01*
X99111459Y-114510689D01*
X99073620Y-114614606D01*
X99062830Y-114651057D01*
X99088266Y-114635982D01*
X99141128Y-114604790D01*
X99213263Y-114562704D01*
X99279103Y-114524872D01*
X99337884Y-114491713D01*
X99388845Y-114463645D01*
X99431221Y-114441085D01*
X99464251Y-114424454D01*
X99487171Y-114414168D01*
X99499217Y-114410646D01*
X99508059Y-114411385D01*
X99529481Y-114420818D01*
X99543357Y-114438528D01*
X99547853Y-114461233D01*
X99541133Y-114485648D01*
X99540291Y-114486663D01*
X99530051Y-114494443D01*
X99509592Y-114507951D01*
X99480233Y-114526380D01*
X99443289Y-114548924D01*
X99400078Y-114574777D01*
X99351917Y-114603132D01*
X99300124Y-114633183D01*
X99285974Y-114641341D01*
X99234892Y-114670896D01*
X99187664Y-114698380D01*
X99145626Y-114723006D01*
X99110113Y-114743986D01*
X99082460Y-114760533D01*
X99064002Y-114771858D01*
X99056074Y-114777174D01*
X99053657Y-114780682D01*
X99049411Y-114797407D01*
X99047526Y-114823181D01*
X99048002Y-114854868D01*
X99050841Y-114889330D01*
X99056042Y-114923432D01*
X99056185Y-114924165D01*
X99062113Y-114950874D01*
X99069590Y-114979595D01*
X99077673Y-115007264D01*
X99085416Y-115030819D01*
X99091876Y-115047198D01*
X99096108Y-115053338D01*
X99096316Y-115053309D01*
X99103534Y-115048111D01*
X99117174Y-115035684D01*
X99134470Y-115018539D01*
X99136943Y-115016017D01*
X99201457Y-114959733D01*
X99273981Y-114913699D01*
X99354999Y-114877698D01*
X99444996Y-114851513D01*
X99544457Y-114834928D01*
X99556979Y-114833642D01*
X99594701Y-114831673D01*
X99632512Y-114833031D01*
X99672138Y-114838128D01*
X99715306Y-114847382D01*
X99763743Y-114861205D01*
X99819173Y-114880012D01*
X99883325Y-114904219D01*
X99957923Y-114934240D01*
X99961492Y-114935707D01*
X100003313Y-114952619D01*
X100035520Y-114964857D01*
X100060803Y-114973223D01*
X100081853Y-114978518D01*
X100101360Y-114981542D01*
X100122014Y-114983097D01*
X100146252Y-114983858D01*
X100167471Y-114982623D01*
X100183932Y-114978234D01*
X100200489Y-114969873D01*
X100213409Y-114961112D01*
X100241178Y-114934669D01*
X100264790Y-114902605D01*
X100279976Y-114870272D01*
X100281546Y-114862594D01*
X100284061Y-114840722D01*
X100286563Y-114808532D01*
X100288920Y-114768064D01*
X100291004Y-114721360D01*
X100292683Y-114670458D01*
X100293724Y-114633859D01*
X100295280Y-114586827D01*
X100296920Y-114550166D01*
X100298831Y-114521864D01*
X100301199Y-114499912D01*
X100304209Y-114482297D01*
X100308049Y-114467009D01*
X100312903Y-114452038D01*
X100323883Y-114423961D01*
X100352845Y-114370853D01*
X100390704Y-114325326D01*
X100438961Y-114285752D01*
X100499120Y-114250505D01*
X100564993Y-114224056D01*
X100635395Y-114209650D01*
X100707199Y-114208397D01*
X100779695Y-114220180D01*
X100852171Y-114244880D01*
X100923917Y-114282381D01*
X100994222Y-114332563D01*
X100995313Y-114333451D01*
X101014013Y-114348263D01*
X101028187Y-114358784D01*
X101034843Y-114362786D01*
X101036321Y-114361741D01*
X101038520Y-114350996D01*
X101038758Y-114331117D01*
X101037261Y-114305211D01*
X101034257Y-114276386D01*
X101029970Y-114247748D01*
X101024628Y-114222406D01*
X101019565Y-114204058D01*
X100989620Y-114125893D01*
X100947628Y-114051168D01*
X100894834Y-113981366D01*
X100832482Y-113917972D01*
X100761817Y-113862471D01*
X100684085Y-113816345D01*
X100654576Y-113801402D01*
X100470862Y-113907747D01*
X100450915Y-113919238D01*
X100405980Y-113944715D01*
X100364908Y-113967447D01*
X100329283Y-113986592D01*
X100300686Y-114001308D01*
X100280699Y-114010756D01*
X100270906Y-114014092D01*
X100270169Y-114014081D01*
X100250804Y-114007802D01*
X100232842Y-113992834D01*
X100221427Y-113973410D01*
X100219451Y-113964419D01*
X100220430Y-113953354D01*
X100226452Y-113941909D01*
X100238692Y-113929081D01*
X100258323Y-113913870D01*
X100286522Y-113895274D01*
X100324461Y-113872292D01*
X100373317Y-113843923D01*
X100397340Y-113830072D01*
X100434096Y-113808615D01*
X100465570Y-113789910D01*
X100490109Y-113774958D01*
X100506059Y-113764756D01*
X100511769Y-113760302D01*
X100511514Y-113759675D01*
X100502791Y-113756290D01*
X100483603Y-113752660D01*
X100456612Y-113749064D01*
X100424480Y-113745782D01*
X100389869Y-113743092D01*
X100355439Y-113741274D01*
X100323854Y-113740606D01*
X100300106Y-113740459D01*
X100276010Y-113739475D01*
X100260168Y-113737071D01*
X100249409Y-113732681D01*
X100240562Y-113725740D01*
X100234267Y-113718434D01*
X100225462Y-113696058D01*
X100226794Y-113672082D01*
X100238412Y-113651723D01*
X100241538Y-113648831D01*
X100249232Y-113644026D01*
X100260336Y-113640892D01*
X100277416Y-113639081D01*
X100303037Y-113638249D01*
X100339764Y-113638049D01*
X100435456Y-113642672D01*
X100540904Y-113659197D01*
X100640688Y-113687317D01*
X100734112Y-113726621D01*
X100820479Y-113776697D01*
X100899094Y-113837133D01*
X100969260Y-113907519D01*
X101030280Y-113987442D01*
X101081459Y-114076491D01*
X101088154Y-114090473D01*
X101119470Y-114171607D01*
X101137880Y-114253109D01*
X101143341Y-114335536D01*
X101135810Y-114419443D01*
X101115245Y-114505387D01*
X101081603Y-114593926D01*
X101034842Y-114685616D01*
X101034055Y-114686989D01*
X101019565Y-114711338D01*
X100999416Y-114743997D01*
X100975408Y-114782108D01*
X100949340Y-114822814D01*
X100923010Y-114863256D01*
X100922439Y-114864126D01*
X100891690Y-114910241D01*
X100866794Y-114945584D01*
X100846604Y-114971103D01*
X100829971Y-114987744D01*
X100815747Y-114996455D01*
X100802784Y-114998181D01*
X100789934Y-114993871D01*
X100776050Y-114984470D01*
X100775071Y-114983692D01*
X100763975Y-114972668D01*
X100758147Y-114960350D01*
X100758074Y-114945128D01*
X100764247Y-114925396D01*
X100777154Y-114899545D01*
X100797285Y-114865967D01*
X100825127Y-114823055D01*
X100841197Y-114798680D01*
X100885489Y-114730088D01*
X100922081Y-114670963D01*
X100951543Y-114620338D01*
X100974444Y-114577245D01*
X100991354Y-114540716D01*
X101012244Y-114490996D01*
X100979150Y-114457139D01*
X100977810Y-114455779D01*
X100948317Y-114429335D01*
X100911705Y-114401314D01*
X100872149Y-114374552D01*
X100833823Y-114351880D01*
X100800901Y-114336134D01*
X100766132Y-114324530D01*
X100702775Y-114313459D01*
X100640164Y-114314860D01*
X100580033Y-114328443D01*
X100524121Y-114353915D01*
X100474163Y-114390985D01*
X100454690Y-114410455D01*
X100436167Y-114433978D01*
X100421803Y-114460038D01*
X100411119Y-114490481D01*
X100403634Y-114527155D01*
X100398866Y-114571904D01*
X100396337Y-114626575D01*
X100395565Y-114693015D01*
X100395285Y-114737111D01*
X100393888Y-114789479D01*
X100391022Y-114832084D01*
X100386356Y-114867202D01*
X100379561Y-114897108D01*
X100370306Y-114924076D01*
X100358264Y-114950383D01*
X100341172Y-114977786D01*
X100310599Y-115013367D01*
X100274483Y-115045153D01*
X100237130Y-115068930D01*
X100231106Y-115071869D01*
X100198261Y-115084498D01*
X100164155Y-115091230D01*
X100127058Y-115091853D01*
X100085243Y-115086151D01*
X100036978Y-115073912D01*
X99980534Y-115054920D01*
X99914183Y-115028962D01*
X99887093Y-115017859D01*
X99833256Y-114996029D01*
X99789222Y-114978765D01*
X99753048Y-114965539D01*
X99722793Y-114955821D01*
X99696514Y-114949083D01*
X99672267Y-114944795D01*
X99648112Y-114942430D01*
X99622104Y-114941459D01*
X99592301Y-114941352D01*
X99590811Y-114941360D01*
X99545891Y-114942286D01*
X99510167Y-114944828D01*
X99479335Y-114949443D01*
X99449090Y-114956591D01*
X99404978Y-114970502D01*
X99336411Y-114999958D01*
X99274178Y-115036505D01*
X99220637Y-115078677D01*
X99178145Y-115125008D01*
X99149570Y-115162855D01*
X99168630Y-115191852D01*
X99179901Y-115206958D01*
X99197142Y-115227190D01*
X99217376Y-115249193D01*
X99238224Y-115270537D01*
X99257307Y-115288792D01*
X99272247Y-115301527D01*
X99280664Y-115306312D01*
X99285603Y-115304241D01*
X99301146Y-115296169D01*
X99325517Y-115282870D01*
X99357047Y-115265266D01*
X99394069Y-115244284D01*
X99434912Y-115220848D01*
X99457417Y-115207958D01*
X99500494Y-115183890D01*
X99537878Y-115163827D01*
X99568069Y-115148540D01*
X99589569Y-115138801D01*
X99600877Y-115135384D01*
X99606275Y-115135692D01*
X99627401Y-115143799D01*
X99642292Y-115160169D01*
X99649497Y-115181118D01*
X99647561Y-115202961D01*
X99635034Y-115222015D01*
X99624899Y-115229347D01*
X99604775Y-115242248D01*
X99577032Y-115259217D01*
X99543859Y-115278915D01*
X99507450Y-115300002D01*
X99395249Y-115364181D01*
X99424841Y-115372749D01*
X99453851Y-115380100D01*
X99492890Y-115386923D01*
X99537172Y-115391299D01*
X99588770Y-115393355D01*
X99649757Y-115393220D01*
X99722207Y-115391021D01*
X99757210Y-115389669D01*
X99865880Y-115386389D01*
X99962706Y-115384962D01*
X100047346Y-115385384D01*
X100119459Y-115387650D01*
X100178703Y-115391756D01*
X100224737Y-115397697D01*
X100300494Y-115412706D01*
X100431965Y-115448169D01*
X100554630Y-115494047D01*
X100560524Y-115495809D01*
X100565409Y-115491841D01*
X100566595Y-115477122D01*
X100567519Y-115461324D01*
X100572181Y-115428326D01*
X100580094Y-115387343D01*
X100590492Y-115341354D01*
X100602612Y-115293340D01*
X100615687Y-115246279D01*
X100628952Y-115203150D01*
X100641644Y-115166935D01*
X100652996Y-115140611D01*
X100664608Y-115126274D01*
X100684713Y-115116848D01*
X100707194Y-115116826D01*
X100728011Y-115126041D01*
X100743122Y-115144326D01*
X100743644Y-115145434D01*
X100746936Y-115154981D01*
X100747491Y-115166009D01*
X100744843Y-115181366D01*
X100738527Y-115203903D01*
X100728078Y-115236468D01*
X100723155Y-115251562D01*
X100706437Y-115305719D01*
X100693790Y-115352778D01*
X100684122Y-115397103D01*
X100676341Y-115443055D01*
X100676162Y-115444251D01*
X100671888Y-115472706D01*
X100667967Y-115498561D01*
X100665226Y-115516353D01*
X100663109Y-115525131D01*
X100649835Y-115551052D01*
X100628974Y-115574543D01*
X100604538Y-115590693D01*
X100588002Y-115596489D01*
X100566524Y-115599192D01*
X100541682Y-115596398D01*
X100510614Y-115587727D01*
X100470457Y-115572795D01*
X100414078Y-115552094D01*
X100315855Y-115523549D01*
X100207645Y-115500883D01*
X100204257Y-115500301D01*
X100171767Y-115495782D01*
X100133798Y-115492345D01*
X100089184Y-115489972D01*
X100036758Y-115488645D01*
X99975355Y-115488347D01*
X99903810Y-115489059D01*
X99820955Y-115490763D01*
X99725626Y-115493441D01*
X99715714Y-115493742D01*
X99645321Y-115495405D01*
X99586181Y-115495695D01*
X99536190Y-115494407D01*
X99493243Y-115491340D01*
X99455235Y-115486290D01*
X99420063Y-115479055D01*
X99385621Y-115469431D01*
X99349805Y-115457216D01*
X99333318Y-115450879D01*
X99257853Y-115413149D01*
X99188279Y-115363606D01*
X99125708Y-115303150D01*
X99071253Y-115232675D01*
X99059216Y-115214036D01*
X99010955Y-115124670D01*
X98975558Y-115031704D01*
X98952971Y-114935832D01*
X98943140Y-114837754D01*
X98946009Y-114738164D01*
X98961524Y-114637760D01*
X98989630Y-114537239D01*
X99030273Y-114437297D01*
X99083398Y-114338631D01*
X99148950Y-114241938D01*
X99179687Y-114203295D01*
X99234610Y-114141718D01*
X99296461Y-114079526D01*
X99361937Y-114019829D01*
X99427736Y-113965735D01*
X99490557Y-113920352D01*
X99508317Y-113907892D01*
X99522079Y-113896826D01*
X99527349Y-113890580D01*
X99522649Y-113884198D01*
X99508135Y-113872662D01*
X99486317Y-113857928D01*
X99459754Y-113841566D01*
X99431008Y-113825148D01*
X99402639Y-113810247D01*
X99377207Y-113798433D01*
X99358738Y-113791118D01*
X99323234Y-113778464D01*
X99283790Y-113765642D01*
X99246038Y-113754537D01*
X99241674Y-113753326D01*
X99152793Y-113722972D01*
X99069203Y-113683674D01*
X98992832Y-113636614D01*
X98925610Y-113582972D01*
X98869466Y-113523930D01*
X98863343Y-113516376D01*
X98835934Y-113481092D01*
X98817287Y-113453425D01*
X98806726Y-113431557D01*
X98803573Y-113413672D01*
X98807150Y-113397951D01*
X98816782Y-113382578D01*
X98831224Y-113369592D01*
X98853079Y-113364563D01*
X98866838Y-113365611D01*
X98882235Y-113371691D01*
X98896567Y-113385371D01*
X98913137Y-113409101D01*
X98937600Y-113442468D01*
X98970458Y-113479600D01*
X99007276Y-113515592D01*
X99044117Y-113546316D01*
X99083399Y-113573328D01*
X99155568Y-113611547D01*
X99236879Y-113641296D01*
X99241728Y-113642747D01*
X99306305Y-113662662D01*
X99359637Y-113680389D01*
X99403695Y-113696651D01*
X99440447Y-113712174D01*
X99471866Y-113727682D01*
X99480533Y-113732253D01*
X99502480Y-113743145D01*
X99518433Y-113750058D01*
X99525414Y-113751657D01*
X99524867Y-113747021D01*
X99518925Y-113732108D01*
X99508095Y-113709140D01*
X99493507Y-113680255D01*
X99476292Y-113647588D01*
X99457579Y-113613274D01*
X99438500Y-113579450D01*
X99420185Y-113548253D01*
X99403764Y-113521817D01*
X99383772Y-113491940D01*
X99322699Y-113410061D01*
X99253200Y-113328356D01*
X99178465Y-113250436D01*
X99101687Y-113179913D01*
X99075999Y-113157946D01*
X99049551Y-113181839D01*
X99008301Y-113213408D01*
X98953374Y-113241464D01*
X98895158Y-113257783D01*
X98835580Y-113262063D01*
X98776566Y-113254004D01*
X98720042Y-113233304D01*
X98716504Y-113231553D01*
X98693045Y-113220554D01*
X98677690Y-113215295D01*
X98666999Y-113214976D01*
X98657534Y-113218801D01*
X98654261Y-113220534D01*
X98633935Y-113229181D01*
X98607483Y-113238400D01*
X98579604Y-113246760D01*
X98554994Y-113252827D01*
X98538350Y-113255168D01*
X98526962Y-113253024D01*
X98508131Y-113241142D01*
X98493799Y-113222666D01*
X98488102Y-113201974D01*
X98488408Y-113196792D01*
X98497642Y-113175356D01*
X98519360Y-113158367D01*
X98553055Y-113146260D01*
X98574015Y-113139623D01*
X98602843Y-113127730D01*
X98630475Y-113113935D01*
X98646145Y-113105549D01*
X98669888Y-113095869D01*
X98689082Y-113094645D01*
X98707935Y-113102059D01*
X98730655Y-113118294D01*
X98742074Y-113126326D01*
X98775590Y-113143157D01*
X98812802Y-113154983D01*
X98847052Y-113159448D01*
X98858510Y-113158877D01*
X98895754Y-113151161D01*
X98932667Y-113136330D01*
X98962674Y-113116809D01*
X98988530Y-113094458D01*
X98923364Y-113056891D01*
X99128465Y-113056891D01*
X99131507Y-113066663D01*
X99146100Y-113082557D01*
X99172486Y-113104751D01*
X99203683Y-113130592D01*
X99260238Y-113183154D01*
X99318547Y-113243776D01*
X99376129Y-113309695D01*
X99430501Y-113378147D01*
X99479184Y-113446368D01*
X99481350Y-113449619D01*
X99499308Y-113477586D01*
X99519023Y-113509751D01*
X99539216Y-113543855D01*
X99558607Y-113577636D01*
X99575916Y-113608835D01*
X99589863Y-113635189D01*
X99599170Y-113654440D01*
X99602557Y-113664326D01*
X99602931Y-113666900D01*
X99609394Y-113672234D01*
X99610178Y-113671721D01*
X99612607Y-113661916D01*
X99614397Y-113641435D01*
X99615552Y-113612612D01*
X99616072Y-113577784D01*
X99615959Y-113539287D01*
X99615214Y-113499456D01*
X99613840Y-113460630D01*
X99611837Y-113425142D01*
X99609208Y-113395330D01*
X99608740Y-113391248D01*
X99603764Y-113353416D01*
X99597576Y-113313055D01*
X99591404Y-113278238D01*
X99580512Y-113222680D01*
X99538444Y-113226057D01*
X99485982Y-113224899D01*
X99429136Y-113211635D01*
X99375723Y-113186855D01*
X99327626Y-113151696D01*
X99286725Y-113107293D01*
X99254901Y-113054783D01*
X99249486Y-113043475D01*
X99239578Y-113025317D01*
X99229598Y-113014462D01*
X99215530Y-113007366D01*
X99193357Y-113000485D01*
X99173400Y-112994932D01*
X99155087Y-112990299D01*
X99145654Y-112988520D01*
X99143876Y-112989556D01*
X99139332Y-112999841D01*
X99135857Y-113017577D01*
X99135015Y-113023985D01*
X99131688Y-113043871D01*
X99128465Y-113056891D01*
X98923364Y-113056891D01*
X98921210Y-113055649D01*
X98901863Y-113044716D01*
X98865981Y-113025296D01*
X98831008Y-113007273D01*
X98802348Y-112993472D01*
X98783959Y-112985277D01*
X98762975Y-112977153D01*
X98745944Y-112973466D01*
X98727819Y-112973314D01*
X98703552Y-112975793D01*
X98692906Y-112977174D01*
X98624904Y-112989863D01*
X98553013Y-113009110D01*
X98483160Y-113033369D01*
X98465023Y-113040420D01*
X98438107Y-113050129D01*
X98419366Y-113054941D01*
X98405885Y-113055129D01*
X98394751Y-113050964D01*
X98383049Y-113042721D01*
X98369047Y-113024343D01*
X98364796Y-113000078D01*
X98371824Y-112974933D01*
X98375078Y-112971734D01*
X98389180Y-112963108D01*
X98411220Y-112951927D01*
X98438049Y-112939565D01*
X98466520Y-112927396D01*
X98493488Y-112916792D01*
X98515803Y-112909127D01*
X98530319Y-112905774D01*
X98534535Y-112904914D01*
X98531261Y-112902358D01*
X98517506Y-112898609D01*
X98495159Y-112893981D01*
X98466109Y-112888786D01*
X98432244Y-112883339D01*
X98395454Y-112877952D01*
X98357626Y-112872940D01*
X98320649Y-112868616D01*
X98286413Y-112865292D01*
X98283828Y-112865073D01*
X98246609Y-112861598D01*
X98220365Y-112858221D01*
X98202563Y-112854408D01*
X98190668Y-112849625D01*
X98182146Y-112843340D01*
X98175314Y-112835567D01*
X98167141Y-112814697D01*
X98169752Y-112793403D01*
X98181642Y-112774594D01*
X98201311Y-112761175D01*
X98227255Y-112756057D01*
X98227458Y-112756057D01*
X98252412Y-112757055D01*
X98286985Y-112759731D01*
X98327325Y-112763679D01*
X98369580Y-112768489D01*
X98409896Y-112773753D01*
X98444423Y-112779063D01*
X98459523Y-112781538D01*
X98478748Y-112783772D01*
X98486409Y-112782358D01*
X98482375Y-112776612D01*
X98466513Y-112765849D01*
X98438691Y-112749386D01*
X98438362Y-112749195D01*
X98407132Y-112728335D01*
X98388625Y-112708786D01*
X98382116Y-112689425D01*
X98386881Y-112669131D01*
X98397138Y-112654492D01*
X98413665Y-112640565D01*
X98424113Y-112635562D01*
X98437167Y-112634373D01*
X98454688Y-112640102D01*
X98466951Y-112645691D01*
X98502096Y-112665622D01*
X98541940Y-112692460D01*
X98583410Y-112723811D01*
X98623434Y-112757283D01*
X98658940Y-112790480D01*
X98686857Y-112821009D01*
X98692967Y-112827367D01*
X98711229Y-112840323D01*
X98739223Y-112854658D01*
X98778715Y-112871342D01*
X98797694Y-112879128D01*
X98842782Y-112899140D01*
X98890753Y-112922103D01*
X98937696Y-112946051D01*
X98979700Y-112969019D01*
X99012853Y-112989040D01*
X99035074Y-113003537D01*
X99035074Y-112962258D01*
X99034592Y-112941619D01*
X99031438Y-112923881D01*
X99023313Y-112908587D01*
X99007932Y-112889620D01*
X98997260Y-112876903D01*
X98976947Y-112851183D01*
X98959888Y-112827880D01*
X98945869Y-112809958D01*
X98928347Y-112796476D01*
X98903743Y-112787034D01*
X98892406Y-112784057D01*
X98863073Y-112778693D01*
X98836863Y-112776568D01*
X98828056Y-112776260D01*
X98807434Y-112773234D01*
X98793944Y-112768022D01*
X98791231Y-112765311D01*
X98781429Y-112751431D01*
X98768725Y-112729932D01*
X98755169Y-112704190D01*
X98739768Y-112676193D01*
X98700681Y-112624100D01*
X98653310Y-112582885D01*
X98597578Y-112552486D01*
X98533406Y-112532844D01*
X98489830Y-112526876D01*
X98427343Y-112529633D01*
X98365034Y-112545981D01*
X98340660Y-112555810D01*
X98305850Y-112574103D01*
X98273561Y-112597768D01*
X98239021Y-112629987D01*
X98200770Y-112668544D01*
X98153330Y-112663780D01*
X98141023Y-112662877D01*
X98092108Y-112666361D01*
X98048978Y-112680762D01*
X98013011Y-112704925D01*
X97985584Y-112737694D01*
X97968074Y-112777913D01*
X97961859Y-112824428D01*
X97966091Y-112864259D01*
X97981762Y-112905993D01*
X98007856Y-112940412D01*
X98043176Y-112966388D01*
X98086522Y-112982799D01*
X98136696Y-112988520D01*
X98182284Y-112988520D01*
X98237764Y-113044985D01*
X98257061Y-113064245D01*
X98281823Y-113087977D01*
X98303486Y-113107706D01*
X98318883Y-113120485D01*
X98333396Y-113132622D01*
X98342262Y-113146107D01*
X98344522Y-113163158D01*
X98344361Y-113167658D01*
X98337017Y-113191682D01*
X98320545Y-113208079D01*
X98297441Y-113214145D01*
X98294883Y-113214009D01*
X98274838Y-113207903D01*
X98248927Y-113194175D01*
X98220163Y-113174820D01*
X98191560Y-113151833D01*
X98166129Y-113127209D01*
X98149247Y-113109852D01*
X98134851Y-113099297D01*
X98118434Y-113093802D01*
X98094508Y-113090558D01*
X98062688Y-113085208D01*
X98009416Y-113066321D01*
X97962091Y-113036891D01*
X97921985Y-112998553D01*
X97890372Y-112952941D01*
X97868528Y-112901690D01*
X97857727Y-112846434D01*
X97859242Y-112788808D01*
X97864796Y-112760649D01*
X97885381Y-112706055D01*
X97917090Y-112656935D01*
X97958332Y-112615488D01*
X98007517Y-112583912D01*
X98017799Y-112579009D01*
X98045031Y-112568405D01*
X98072691Y-112562333D01*
X98107373Y-112559160D01*
X98125712Y-112558021D01*
X98147922Y-112555596D01*
X98163303Y-112551274D01*
X98176132Y-112543620D01*
X98190686Y-112531197D01*
X98241843Y-112491471D01*
X98305357Y-112457059D01*
X98372673Y-112434383D01*
X98442193Y-112423411D01*
X98512318Y-112424110D01*
X98581451Y-112436448D01*
X98647993Y-112460392D01*
X98710345Y-112495909D01*
X98766910Y-112542967D01*
X98773479Y-112549675D01*
X98797852Y-112577173D01*
X98820346Y-112606074D01*
X98836797Y-112631125D01*
X98846499Y-112647710D01*
X98857944Y-112663803D01*
X98867906Y-112671659D01*
X98878881Y-112673807D01*
X98882726Y-112673830D01*
X98890879Y-112672688D01*
X98894654Y-112667299D01*
X98895112Y-112654537D01*
X98893314Y-112631279D01*
X98891392Y-112613367D01*
X98886724Y-112593429D01*
X98877579Y-112576955D01*
X98861268Y-112557779D01*
X98824660Y-112511304D01*
X98798790Y-112460938D01*
X98785322Y-112407429D01*
X98784115Y-112366339D01*
X98888510Y-112366339D01*
X98888769Y-112380254D01*
X98892330Y-112410929D01*
X98901330Y-112437399D01*
X98917369Y-112462426D01*
X98942045Y-112488776D01*
X98976958Y-112519211D01*
X98986093Y-112527314D01*
X98993430Y-112537851D01*
X98996112Y-112552086D01*
X98995813Y-112574976D01*
X98995682Y-112598948D01*
X99004152Y-112663509D01*
X99024843Y-112724883D01*
X99056856Y-112780861D01*
X99099293Y-112829235D01*
X99143587Y-112864424D01*
X99194930Y-112891393D01*
X99251588Y-112907355D01*
X99279291Y-112912979D01*
X99302703Y-112920442D01*
X99317973Y-112930671D01*
X99328100Y-112945822D01*
X99336083Y-112968049D01*
X99352310Y-113011900D01*
X99375977Y-113051528D01*
X99406479Y-113081556D01*
X99445303Y-113103836D01*
X99463870Y-113111116D01*
X99492268Y-113119272D01*
X99517247Y-113123164D01*
X99535766Y-113122401D01*
X99544779Y-113116592D01*
X99545024Y-113112283D01*
X99541932Y-113096368D01*
X99535014Y-113073005D01*
X99525200Y-113045563D01*
X99475387Y-112932700D01*
X99409372Y-112814525D01*
X99330621Y-112699762D01*
X99316738Y-112681265D01*
X99299135Y-112658707D01*
X99285024Y-112644351D01*
X99271198Y-112636726D01*
X99254446Y-112634358D01*
X99231560Y-112635774D01*
X99199332Y-112639503D01*
X99171670Y-112641642D01*
X99140122Y-112639449D01*
X99118991Y-112630302D01*
X99107143Y-112613600D01*
X99103445Y-112588745D01*
X99103488Y-112586788D01*
X99110775Y-112564845D01*
X99129293Y-112548283D01*
X99157218Y-112538800D01*
X99187061Y-112533786D01*
X99134998Y-112484641D01*
X99127760Y-112477725D01*
X99101898Y-112450543D01*
X99086756Y-112428626D01*
X99081739Y-112410157D01*
X99086257Y-112393316D01*
X99099716Y-112376284D01*
X99108834Y-112368139D01*
X99121266Y-112361279D01*
X99134748Y-112360167D01*
X99150628Y-112365539D01*
X99170257Y-112378133D01*
X99194982Y-112398685D01*
X99226153Y-112427932D01*
X99265118Y-112466610D01*
X99298065Y-112499734D01*
X99322898Y-112524031D01*
X99339831Y-112538940D01*
X99349762Y-112544595D01*
X99353593Y-112541128D01*
X99352223Y-112528674D01*
X99346552Y-112507365D01*
X99337482Y-112477336D01*
X99333697Y-112463022D01*
X99331247Y-112432562D01*
X99339274Y-112410190D01*
X99357956Y-112395199D01*
X99360728Y-112393936D01*
X99385422Y-112389199D01*
X99406933Y-112397296D01*
X99425043Y-112417757D01*
X99439535Y-112450111D01*
X99450191Y-112493887D01*
X99456793Y-112548616D01*
X99459123Y-112613826D01*
X99459270Y-112697941D01*
X99490025Y-112745419D01*
X99501226Y-112763336D01*
X99527265Y-112808623D01*
X99554694Y-112860365D01*
X99581321Y-112914203D01*
X99604957Y-112965780D01*
X99623410Y-113010740D01*
X99629070Y-113025323D01*
X99638925Y-113048571D01*
X99646862Y-113064595D01*
X99651549Y-113070565D01*
X99652147Y-113070514D01*
X99661203Y-113063854D01*
X99673236Y-113048473D01*
X99686033Y-113027896D01*
X99697382Y-113005651D01*
X99705069Y-112985264D01*
X99709984Y-112956296D01*
X99710188Y-112918331D01*
X99704956Y-112881294D01*
X99694747Y-112851176D01*
X99693143Y-112848258D01*
X99681002Y-112830614D01*
X99663108Y-112808397D01*
X99642720Y-112785706D01*
X99635977Y-112778500D01*
X99618923Y-112758931D01*
X99607060Y-112743283D01*
X99602631Y-112734428D01*
X99603042Y-112730516D01*
X99606380Y-112714878D01*
X99611963Y-112694522D01*
X99620379Y-112660288D01*
X99626276Y-112595777D01*
X99619421Y-112532908D01*
X99600233Y-112473276D01*
X99569134Y-112418478D01*
X99526543Y-112370109D01*
X99497887Y-112345884D01*
X99449384Y-112315397D01*
X99397238Y-112295942D01*
X99339175Y-112286774D01*
X99272919Y-112287148D01*
X99205993Y-112291757D01*
X99175280Y-112261479D01*
X99150901Y-112239556D01*
X99120012Y-112219728D01*
X99087358Y-112209195D01*
X99048748Y-112206123D01*
X99019131Y-112208446D01*
X98975590Y-112221616D01*
X98939460Y-112245287D01*
X98912039Y-112278162D01*
X98894623Y-112318946D01*
X98888510Y-112366339D01*
X98784115Y-112366339D01*
X98783606Y-112349027D01*
X98787506Y-112317424D01*
X98803538Y-112263719D01*
X98829687Y-112216334D01*
X98864345Y-112176009D01*
X98905904Y-112143479D01*
X98952755Y-112119484D01*
X99003290Y-112104761D01*
X99055902Y-112100049D01*
X99108980Y-112106084D01*
X99160918Y-112123605D01*
X99210108Y-112153349D01*
X99244980Y-112179978D01*
X99326339Y-112183479D01*
X99370904Y-112186509D01*
X99419010Y-112193830D01*
X99461314Y-112206256D01*
X99502074Y-112225112D01*
X99545546Y-112251724D01*
X99586575Y-112283151D01*
X99636584Y-112335081D01*
X99676857Y-112394401D01*
X99706625Y-112459319D01*
X99725119Y-112528044D01*
X99731568Y-112598784D01*
X99725203Y-112669749D01*
X99717943Y-112709022D01*
X99743060Y-112736824D01*
X99760977Y-112759868D01*
X99785025Y-112801826D01*
X99803729Y-112848032D01*
X99814520Y-112892877D01*
X99816238Y-112908378D01*
X99815961Y-112918331D01*
G37*
%TD.AperFunction*%
%TD*%
D13*
%TO.P,REF\u002A\u002A,1*%
%TO.N,N/C*%
X189525000Y-114450000D03*
D14*
X189525000Y-114450000D03*
%TD*%
D13*
%TO.P,REF\u002A\u002A,1*%
%TO.N,N/C*%
X189525000Y-102450000D03*
D14*
X189525000Y-102450000D03*
%TD*%
D13*
%TO.P,REF\u002A\u002A,1*%
%TO.N,N/C*%
X104525000Y-102450000D03*
D14*
X104525000Y-102450000D03*
%TD*%
D15*
%TO.P,J1,1,Pin_1*%
%TO.N,VDD*%
X143025000Y-115950000D03*
%TO.P,J1,2,Pin_2*%
%TO.N,A0*%
X140485000Y-115950000D03*
%TO.P,J1,3,Pin_3*%
%TO.N,A1*%
X137945000Y-115950000D03*
%TO.P,J1,4,Pin_4*%
%TO.N,A2*%
X135405000Y-115950000D03*
%TO.P,J1,5,Pin_5*%
%TO.N,A3*%
X132865000Y-115950000D03*
%TO.P,J1,6,Pin_6*%
%TO.N,A4*%
X130325000Y-115950000D03*
%TO.P,J1,7,Pin_7*%
%TO.N,A5*%
X127785000Y-115950000D03*
%TO.P,J1,8,Pin_8*%
%TO.N,A6*%
X125245000Y-115950000D03*
%TO.P,J1,9,Pin_9*%
%TO.N,A7*%
X122705000Y-115950000D03*
%TO.P,J1,10,Pin_10*%
%TO.N,A8*%
X120165000Y-115950000D03*
%TO.P,J1,11,Pin_11*%
%TO.N,A9*%
X117625000Y-115950000D03*
%TO.P,J1,12,Pin_12*%
%TO.N,A10*%
X115085000Y-115950000D03*
%TO.P,J1,13,Pin_13*%
%TO.N,A11*%
X112545000Y-115950000D03*
D16*
%TO.P,J1,14,Pin_14*%
%TO.N,GND*%
X110005000Y-115950000D03*
%TD*%
D13*
%TO.P,REF\u002A\u002A,1*%
%TO.N,N/C*%
X104525000Y-114450000D03*
D14*
X104525000Y-114450000D03*
%TD*%
D15*
%TO.P,J2,1,Pin_1*%
%TO.N,VDD*%
X151025000Y-115950000D03*
%TO.P,J2,2,Pin_2*%
%TO.N,D11*%
X153565000Y-115950000D03*
%TO.P,J2,3,Pin_3*%
%TO.N,D10*%
X156105000Y-115950000D03*
%TO.P,J2,4,Pin_4*%
%TO.N,D9*%
X158645000Y-115950000D03*
%TO.P,J2,5,Pin_5*%
%TO.N,D8*%
X161185000Y-115950000D03*
%TO.P,J2,6,Pin_6*%
%TO.N,D7*%
X163725000Y-115950000D03*
%TO.P,J2,7,Pin_7*%
%TO.N,D6*%
X166265000Y-115950000D03*
%TO.P,J2,8,Pin_8*%
%TO.N,D5*%
X168805000Y-115950000D03*
%TO.P,J2,9,Pin_9*%
%TO.N,D4*%
X171345000Y-115950000D03*
%TO.P,J2,10,Pin_10*%
%TO.N,D3*%
X173885000Y-115950000D03*
%TO.P,J2,11,Pin_11*%
%TO.N,D2*%
X176425000Y-115950000D03*
%TO.P,J2,12,Pin_12*%
%TO.N,D1*%
X178965000Y-115950000D03*
%TO.P,J2,13,Pin_13*%
%TO.N,D0*%
X181505000Y-115950000D03*
D16*
%TO.P,J2,14,Pin_14*%
%TO.N,GND*%
X184045000Y-115950000D03*
%TD*%
D17*
%TO.N,A0*%
X209525000Y-108375000D03*
X209725000Y-104575000D03*
%TO.N,GND*%
X136675000Y-112450000D03*
X111600000Y-112450000D03*
X153575000Y-110550000D03*
X131600000Y-111675000D03*
X163725000Y-110550000D03*
X171325000Y-110550000D03*
X108475000Y-115950000D03*
X121450000Y-111675000D03*
X162450000Y-114850000D03*
X130775000Y-100500000D03*
X156125000Y-110550000D03*
X200225000Y-100500000D03*
X161175000Y-110550000D03*
X116375000Y-112450000D03*
X111775000Y-100500000D03*
X176425000Y-110550000D03*
X154825000Y-114850000D03*
X177675000Y-114800000D03*
X89775000Y-100500000D03*
X172625000Y-114825000D03*
X181525000Y-110550000D03*
X141775000Y-112450000D03*
X144275000Y-104400000D03*
X93025000Y-110800000D03*
X158625000Y-110550000D03*
X157375000Y-114850000D03*
X170075000Y-114850000D03*
X116375000Y-111675000D03*
X82225000Y-109950000D03*
X205750000Y-103350000D03*
X165000000Y-114850000D03*
X121275000Y-100500000D03*
X178975000Y-110550000D03*
X211775000Y-114925000D03*
X172775000Y-104400000D03*
X159925000Y-114850000D03*
X121450000Y-112450000D03*
X136675000Y-111675000D03*
X175150000Y-114800000D03*
X185575000Y-115950000D03*
X126500000Y-112450000D03*
X80275000Y-100500000D03*
X153775000Y-104400000D03*
X136175000Y-102450000D03*
X115775000Y-104400000D03*
X163275000Y-104400000D03*
X180250000Y-114750000D03*
X182275000Y-104400000D03*
X179600000Y-100725000D03*
X199800000Y-113225000D03*
X149750000Y-110900000D03*
X214775000Y-104300000D03*
X168825000Y-110550000D03*
X131600000Y-112450000D03*
X209750000Y-100450000D03*
X173875000Y-110550000D03*
X166275000Y-110550000D03*
X126500000Y-111675000D03*
X193350000Y-116475000D03*
X125275000Y-104400000D03*
%TO.N,A1*%
X200225000Y-104575000D03*
X206975000Y-106450500D03*
X206975000Y-108375000D03*
X203140757Y-106341959D03*
%TO.N,A2*%
X206975000Y-105400000D03*
X178275000Y-104600000D03*
X204425000Y-108400000D03*
X203246210Y-105037996D03*
%TO.N,A3*%
X208250000Y-113275000D03*
X167425000Y-102650500D03*
%TO.N,A4*%
X213050000Y-113800000D03*
X157600000Y-101926000D03*
%TO.N,A5*%
X148125000Y-101201500D03*
X213862098Y-112812098D03*
%TO.N,A6*%
X79525000Y-115625000D03*
X137525000Y-102725000D03*
%TO.N,A7*%
X130775000Y-104600000D03*
X79625000Y-114575000D03*
%TO.N,A8*%
X121275000Y-104550000D03*
X85925000Y-103025000D03*
X83425000Y-106350000D03*
X84500000Y-113275000D03*
%TO.N,A9*%
X90825000Y-108250000D03*
X86850000Y-105325000D03*
X86850000Y-103850000D03*
X111775000Y-104575000D03*
%TO.N,A10*%
X89775000Y-104575000D03*
X88300000Y-106375000D03*
X88300000Y-108250000D03*
%TO.N,A11*%
X80275000Y-108175000D03*
X80275000Y-104575000D03*
%TO.N,VCC*%
X147025000Y-110275000D03*
X150800000Y-107225000D03*
X141275000Y-107225000D03*
%TO.N,D0*%
X211950000Y-109975000D03*
X195075000Y-114325000D03*
%TO.N,D1*%
X208250000Y-111550000D03*
X196150000Y-114300000D03*
%TO.N,D2*%
X197174799Y-114299799D03*
X205700000Y-112274500D03*
%TO.N,D3*%
X209500000Y-112475000D03*
X198250000Y-116400000D03*
%TO.N,D4*%
X206925000Y-112274500D03*
X199075000Y-115625000D03*
%TO.N,D5*%
X199825000Y-114900500D03*
X204425000Y-113150000D03*
%TO.N,D6*%
X144425000Y-108075000D03*
X95250000Y-108100000D03*
X88300000Y-113350000D03*
%TO.N,D7*%
X93975000Y-108100000D03*
X143700500Y-108880816D03*
X86425000Y-113050000D03*
%TO.N,D8*%
X92975000Y-108125000D03*
X83924500Y-111650201D03*
X142950000Y-109549500D03*
%TO.N,D9*%
X141971030Y-109751053D03*
X90825000Y-111550000D03*
X95250000Y-109999500D03*
%TO.N,D10*%
X89125000Y-111825000D03*
X95262548Y-111011551D03*
X141858686Y-110744221D03*
%TO.N,D11*%
X140475000Y-110624500D03*
X95275000Y-112175000D03*
X90200000Y-113225000D03*
%TD*%
D18*
%TO.N,A0*%
X140485000Y-114860000D02*
X139425000Y-113800000D01*
X209725000Y-107625000D02*
X209525000Y-107825000D01*
X140572487Y-105650000D02*
X153300000Y-105650000D01*
X195511396Y-109350000D02*
X197711396Y-107150000D01*
X197711396Y-107150000D02*
X203358021Y-107150000D01*
X209725000Y-104575000D02*
X209725000Y-107625000D01*
X139425000Y-106797487D02*
X140572487Y-105650000D01*
X153300000Y-105650000D02*
X157000000Y-109350000D01*
X205933021Y-104575000D02*
X209725000Y-104575000D01*
X209525000Y-107825000D02*
X209525000Y-108375000D01*
X139425000Y-113800000D02*
X139425000Y-106797487D01*
X157000000Y-109350000D02*
X195511396Y-109350000D01*
X140485000Y-115950000D02*
X140485000Y-114860000D01*
X203358021Y-107150000D02*
X205933021Y-104575000D01*
%TO.N,A1*%
X201991959Y-106341959D02*
X200225000Y-104575000D01*
X138975000Y-113800000D02*
X138975000Y-106611091D01*
X137945000Y-114830000D02*
X138975000Y-113800000D01*
X137945000Y-115950000D02*
X137945000Y-114830000D01*
X206975000Y-106450500D02*
X206975000Y-108375000D01*
X140386091Y-105200000D02*
X153486396Y-105200000D01*
X157186396Y-108900000D02*
X195325000Y-108900000D01*
X199650000Y-104575000D02*
X200225000Y-104575000D01*
X153486396Y-105200000D02*
X157186396Y-108900000D01*
X195325000Y-108900000D02*
X199650000Y-104575000D01*
X138975000Y-106611091D02*
X140386091Y-105200000D01*
X203140757Y-106341959D02*
X201991959Y-106341959D01*
%TO.N,A2*%
X204425000Y-107950000D02*
X204425000Y-108400000D01*
X203246210Y-105037996D02*
X202033214Y-103825000D01*
X135405000Y-114780000D02*
X134375000Y-113750000D01*
X199725000Y-103825000D02*
X195100000Y-108450000D01*
X206975000Y-105400000D02*
X204425000Y-107950000D01*
X178250000Y-104600000D02*
X178275000Y-104600000D01*
X134375000Y-109011396D02*
X140011396Y-103375000D01*
X195100000Y-108450000D02*
X182125000Y-108450000D01*
X140011396Y-103375000D02*
X177025000Y-103375000D01*
X182125000Y-108450000D02*
X178275000Y-104600000D01*
X135405000Y-115950000D02*
X135405000Y-114780000D01*
X202033214Y-103825000D02*
X199725000Y-103825000D01*
X134375000Y-113750000D02*
X134375000Y-109011396D01*
X177025000Y-103375000D02*
X178250000Y-104600000D01*
%TO.N,A3*%
X177450500Y-102650500D02*
X182800000Y-108000000D01*
X140099500Y-102650500D02*
X167425000Y-102650500D01*
X212950000Y-104700000D02*
X212950000Y-111675000D01*
X210725000Y-102475000D02*
X212950000Y-104700000D01*
X200438604Y-102475000D02*
X210725000Y-102475000D01*
X132865000Y-114835000D02*
X133925000Y-113775000D01*
X211350000Y-113275000D02*
X208250000Y-113275000D01*
X212950000Y-111675000D02*
X211350000Y-113275000D01*
X182800000Y-108000000D02*
X194913604Y-108000000D01*
X132865000Y-115950000D02*
X132865000Y-114835000D01*
X194913604Y-108000000D02*
X200438604Y-102475000D01*
X133925000Y-108825000D02*
X140099500Y-102650500D01*
X167425000Y-102650500D02*
X177450500Y-102650500D01*
X133925000Y-113775000D02*
X133925000Y-108825000D01*
%TO.N,A4*%
X132025000Y-107225000D02*
X134888604Y-107225000D01*
X129300000Y-109950000D02*
X132025000Y-107225000D01*
X129300000Y-113825000D02*
X129300000Y-109950000D01*
X213400000Y-104513604D02*
X210911396Y-102025000D01*
X210911396Y-102025000D02*
X200252208Y-102025000D01*
X213050000Y-113800000D02*
X213050000Y-112211396D01*
X130325000Y-115950000D02*
X130325000Y-114850000D01*
X200252208Y-102025000D02*
X194727208Y-107550000D01*
X182986396Y-107550000D02*
X177362396Y-101926000D01*
X140187604Y-101926000D02*
X157600000Y-101926000D01*
X194727208Y-107550000D02*
X182986396Y-107550000D01*
X213050000Y-112211396D02*
X213400000Y-111861396D01*
X134888604Y-107225000D02*
X140187604Y-101926000D01*
X130325000Y-114850000D02*
X129300000Y-113825000D01*
X177362396Y-101926000D02*
X157600000Y-101926000D01*
X213400000Y-111861396D02*
X213400000Y-104513604D01*
%TO.N,A5*%
X127785000Y-114990000D02*
X128850000Y-113925000D01*
X127785000Y-115950000D02*
X127785000Y-114990000D01*
X140252208Y-101225000D02*
X148101500Y-101225000D01*
X213850000Y-112800000D02*
X213862098Y-112812098D01*
X183172792Y-107100000D02*
X194540812Y-107100000D01*
X131838604Y-106775000D02*
X134702208Y-106775000D01*
X200065812Y-101575000D02*
X211097792Y-101575000D01*
X148125000Y-101201500D02*
X148125500Y-101201000D01*
X134702208Y-106775000D02*
X140252208Y-101225000D01*
X194540812Y-107100000D02*
X200065812Y-101575000D01*
X177273792Y-101201000D02*
X183172792Y-107100000D01*
X128850000Y-113925000D02*
X128850000Y-109763604D01*
X128850000Y-109763604D02*
X131838604Y-106775000D01*
X148101500Y-101225000D02*
X148125000Y-101201500D01*
X211097792Y-101575000D02*
X213850000Y-104327208D01*
X148125500Y-101201000D02*
X177273792Y-101201000D01*
X213850000Y-104327208D02*
X213850000Y-112800000D01*
%TO.N,A6*%
X78879000Y-114979000D02*
X78879000Y-104096000D01*
X112677208Y-101250000D02*
X136050000Y-101250000D01*
X125245000Y-114820000D02*
X124200000Y-113775000D01*
X81125000Y-101850000D02*
X94000000Y-101850000D01*
X79525000Y-115625000D02*
X78879000Y-114979000D01*
X124200000Y-113775000D02*
X124200000Y-109250000D01*
X134075000Y-106175000D02*
X137525000Y-102725000D01*
X94000000Y-101850000D02*
X99175000Y-107025000D01*
X124200000Y-109250000D02*
X127275000Y-106175000D01*
X78879000Y-104096000D02*
X81125000Y-101850000D01*
X136050000Y-101250000D02*
X137525000Y-102725000D01*
X125245000Y-115950000D02*
X125245000Y-114820000D01*
X127275000Y-106175000D02*
X134075000Y-106175000D01*
X106902208Y-107025000D02*
X112677208Y-101250000D01*
X99175000Y-107025000D02*
X106902208Y-107025000D01*
%TO.N,A7*%
X130775000Y-104000000D02*
X130775000Y-104600000D01*
X112863604Y-101700000D02*
X128475000Y-101700000D01*
X123750000Y-113775000D02*
X123750000Y-109063604D01*
X98672792Y-107475000D02*
X107088604Y-107475000D01*
X93497792Y-102300000D02*
X98672792Y-107475000D01*
X79329000Y-112629000D02*
X79329000Y-104282396D01*
X128475000Y-101700000D02*
X130775000Y-104000000D01*
X81311396Y-102300000D02*
X93497792Y-102300000D01*
X123750000Y-109063604D02*
X128213604Y-104600000D01*
X122705000Y-115950000D02*
X122705000Y-114820000D01*
X79625000Y-112925000D02*
X79329000Y-112629000D01*
X79625000Y-114575000D02*
X79625000Y-112925000D01*
X79329000Y-104282396D02*
X81311396Y-102300000D01*
X128213604Y-104600000D02*
X130775000Y-104600000D01*
X122705000Y-114820000D02*
X123750000Y-113775000D01*
X107088604Y-107475000D02*
X112863604Y-101700000D01*
%TO.N,A8*%
X83425000Y-106350000D02*
X83425000Y-108925000D01*
X119150000Y-113825000D02*
X119150000Y-109800000D01*
X107275000Y-107925000D02*
X98486396Y-107925000D01*
X83200000Y-111975000D02*
X84500000Y-113275000D01*
X83425000Y-108925000D02*
X83200000Y-109150000D01*
X120400000Y-103675000D02*
X111525000Y-103675000D01*
X120165000Y-114840000D02*
X119150000Y-113825000D01*
X83200000Y-109150000D02*
X83200000Y-111975000D01*
X119150000Y-109800000D02*
X121275000Y-107675000D01*
X121275000Y-107675000D02*
X121275000Y-104550000D01*
X111525000Y-103675000D02*
X107275000Y-107925000D01*
X120165000Y-115950000D02*
X120165000Y-114840000D01*
X93586396Y-103025000D02*
X85925000Y-103025000D01*
X98486396Y-107925000D02*
X93586396Y-103025000D01*
X121275000Y-104550000D02*
X120400000Y-103675000D01*
%TO.N,A9*%
X98300000Y-108375000D02*
X93775000Y-103850000D01*
X118675000Y-113850000D02*
X118675000Y-109825000D01*
X111775000Y-104575000D02*
X107975000Y-108375000D01*
X88688604Y-105325000D02*
X90825000Y-107461396D01*
X117625000Y-114900000D02*
X118675000Y-113850000D01*
X107975000Y-108375000D02*
X98300000Y-108375000D01*
X117625000Y-115950000D02*
X117625000Y-114900000D01*
X86850000Y-105325000D02*
X88688604Y-105325000D01*
X118675000Y-109825000D02*
X113425000Y-104575000D01*
X113425000Y-104575000D02*
X111775000Y-104575000D01*
X93775000Y-103850000D02*
X86850000Y-103850000D01*
X90825000Y-107461396D02*
X90825000Y-108250000D01*
%TO.N,A10*%
X93863604Y-104575000D02*
X89775000Y-104575000D01*
X114050000Y-110375000D02*
X112500000Y-108825000D01*
X88300000Y-106375000D02*
X88300000Y-108250000D01*
X115085000Y-114860000D02*
X114050000Y-113825000D01*
X115085000Y-115950000D02*
X115085000Y-114860000D01*
X112500000Y-108825000D02*
X98113604Y-108825000D01*
X114050000Y-113825000D02*
X114050000Y-110375000D01*
X98113604Y-108825000D02*
X93863604Y-104575000D01*
%TO.N,A11*%
X97927208Y-109275000D02*
X93952208Y-105300000D01*
X93952208Y-105300000D02*
X89300000Y-105300000D01*
X112545000Y-114880000D02*
X113600000Y-113825000D01*
X112545000Y-115950000D02*
X112545000Y-114880000D01*
X112300000Y-109275000D02*
X97927208Y-109275000D01*
X113600000Y-110575000D02*
X112300000Y-109275000D01*
X89300000Y-105300000D02*
X88575000Y-104575000D01*
X80275000Y-108175000D02*
X80275000Y-104575000D01*
X113600000Y-113825000D02*
X113600000Y-110575000D01*
X88575000Y-104575000D02*
X80275000Y-104575000D01*
%TO.N,VCC*%
X147025000Y-110275000D02*
X147750000Y-110275000D01*
X145550000Y-107225000D02*
X141275000Y-107225000D01*
X147750000Y-110275000D02*
X150800000Y-107225000D01*
X147025000Y-110275000D02*
X147025000Y-108700000D01*
X147025000Y-108700000D02*
X145550000Y-107225000D01*
%TO.N,D0*%
X199425000Y-109975000D02*
X211950000Y-109975000D01*
X195075000Y-114325000D02*
X199425000Y-109975000D01*
%TO.N,D1*%
X198900000Y-111550000D02*
X196150000Y-114300000D01*
X208250000Y-111550000D02*
X198900000Y-111550000D01*
%TO.N,D2*%
X199374598Y-112100000D02*
X197174799Y-114299799D01*
X205700000Y-112274500D02*
X205525500Y-112100000D01*
X205525500Y-112100000D02*
X199374598Y-112100000D01*
%TO.N,D3*%
X203975000Y-116400000D02*
X198250000Y-116400000D01*
X209500000Y-112475000D02*
X207900000Y-112475000D01*
X207900000Y-112475000D02*
X203975000Y-116400000D01*
%TO.N,D4*%
X203574500Y-115625000D02*
X199075000Y-115625000D01*
X206925000Y-112274500D02*
X203574500Y-115625000D01*
%TO.N,D5*%
X202500000Y-115075000D02*
X199999500Y-115075000D01*
X204425000Y-113150000D02*
X202500000Y-115075000D01*
X199999500Y-115075000D02*
X199825000Y-114900500D01*
%TO.N,D6*%
X163100000Y-111675000D02*
X166265000Y-114840000D01*
X89050000Y-110025000D02*
X93325000Y-110025000D01*
X147250000Y-111675000D02*
X163100000Y-111675000D01*
X166265000Y-114840000D02*
X166265000Y-115950000D01*
X144425000Y-108075000D02*
X144425000Y-108850000D01*
X88300000Y-110775000D02*
X89050000Y-110025000D01*
X144425000Y-108850000D02*
X147250000Y-111675000D01*
X93325000Y-110025000D02*
X95250000Y-108100000D01*
X88300000Y-113350000D02*
X88300000Y-110775000D01*
%TO.N,D7*%
X87125000Y-109575000D02*
X92550305Y-109575000D01*
X143819420Y-108880816D02*
X147063604Y-112125000D01*
X86425000Y-113050000D02*
X86425000Y-110275000D01*
X162913604Y-112125000D02*
X163725000Y-112936396D01*
X93975000Y-108150305D02*
X93975000Y-108100000D01*
X147063604Y-112125000D02*
X162913604Y-112125000D01*
X92550305Y-109575000D02*
X93975000Y-108150305D01*
X86425000Y-110275000D02*
X87125000Y-109575000D01*
X143700500Y-108880816D02*
X143819420Y-108880816D01*
X163725000Y-112936396D02*
X163725000Y-115950000D01*
%TO.N,D8*%
X143343879Y-109549500D02*
X143544379Y-109750000D01*
X91975000Y-109125000D02*
X92975000Y-108125000D01*
X161185000Y-114835000D02*
X161185000Y-115950000D01*
X143544379Y-109750000D02*
X144052208Y-109750000D01*
X83924500Y-111650201D02*
X86449701Y-109125000D01*
X146877208Y-112575000D02*
X158925000Y-112575000D01*
X142950000Y-109549500D02*
X143343879Y-109549500D01*
X86449701Y-109125000D02*
X91975000Y-109125000D01*
X144052208Y-109750000D02*
X146877208Y-112575000D01*
X158925000Y-112575000D02*
X161185000Y-114835000D01*
%TO.N,D9*%
X93699500Y-111550000D02*
X95250000Y-109999500D01*
X142225000Y-109751053D02*
X142225000Y-109849805D01*
X90825000Y-111550000D02*
X93699500Y-111550000D01*
X141971030Y-109751053D02*
X142225000Y-109751053D01*
X144040812Y-110375000D02*
X146690812Y-113025000D01*
X146690812Y-113025000D02*
X156800000Y-113025000D01*
X142225000Y-109849805D02*
X142750195Y-110375000D01*
X142750195Y-110375000D02*
X144040812Y-110375000D01*
X158645000Y-114870000D02*
X158645000Y-115950000D01*
X156800000Y-113025000D02*
X158645000Y-114870000D01*
%TO.N,D10*%
X93999099Y-112275000D02*
X95262548Y-111011551D01*
X141858686Y-110744221D02*
X142239465Y-111125000D01*
X144025000Y-111125000D02*
X146375000Y-113475000D01*
X89125000Y-111825000D02*
X89575000Y-112275000D01*
X156105000Y-114805000D02*
X156105000Y-115950000D01*
X89575000Y-112275000D02*
X93999099Y-112275000D01*
X154775000Y-113475000D02*
X156105000Y-114805000D01*
X146375000Y-113475000D02*
X154775000Y-113475000D01*
X142239465Y-111125000D02*
X144025000Y-111125000D01*
%TO.N,D11*%
X143838604Y-111575000D02*
X146188604Y-113925000D01*
X94225000Y-113225000D02*
X95275000Y-112175000D01*
X141425000Y-111575000D02*
X143838604Y-111575000D01*
X146188604Y-113925000D02*
X152675000Y-113925000D01*
X153565000Y-114815000D02*
X153565000Y-115950000D01*
X90200000Y-113225000D02*
X94225000Y-113225000D01*
X140475000Y-110624500D02*
X140475000Y-110625000D01*
X140475000Y-110625000D02*
X141425000Y-111575000D01*
X152675000Y-113925000D02*
X153565000Y-114815000D01*
%TD*%
%TA.AperFunction,Conductor*%
%TO.N,GND*%
G36*
X99983381Y-100023158D02*
G01*
X100029822Y-100073608D01*
X100042967Y-100140903D01*
X100041826Y-100154679D01*
X100070869Y-100269370D01*
X100082393Y-100287009D01*
X100102055Y-100317104D01*
X100120853Y-100365277D01*
X100118718Y-100416945D01*
X100096009Y-100463403D01*
X100083915Y-100478942D01*
X100080886Y-100487766D01*
X100069959Y-100511340D01*
X100065184Y-100519353D01*
X100059165Y-100548058D01*
X100055022Y-100563105D01*
X100047494Y-100585037D01*
X100045500Y-100590845D01*
X100045500Y-100600166D01*
X100042818Y-100626024D01*
X100040904Y-100635147D01*
X100044532Y-100664244D01*
X100045500Y-100679830D01*
X100045500Y-100842492D01*
X100043008Y-100859594D01*
X100044569Y-100897342D01*
X100044247Y-100912949D01*
X100041825Y-100942177D01*
X100044115Y-100951218D01*
X100047862Y-100976937D01*
X100048247Y-100986256D01*
X100051635Y-100994938D01*
X100058534Y-101019990D01*
X100060144Y-101029639D01*
X100070624Y-101056495D01*
X100075973Y-101064683D01*
X100087865Y-101087785D01*
X100091255Y-101096472D01*
X100097277Y-101103583D01*
X100111939Y-101125042D01*
X100116592Y-101133640D01*
X100135227Y-101155642D01*
X100142937Y-101161643D01*
X100161697Y-101179643D01*
X100167717Y-101186752D01*
X100167719Y-101186753D01*
X100175725Y-101191524D01*
X100196561Y-101207060D01*
X100203756Y-101213683D01*
X100228521Y-101228439D01*
X100228942Y-101228583D01*
X100228944Y-101228585D01*
X100237756Y-101231610D01*
X100261342Y-101242541D01*
X100269354Y-101247316D01*
X100278477Y-101249228D01*
X100303239Y-101257161D01*
X100312182Y-101261084D01*
X100340398Y-101267000D01*
X100340844Y-101267000D01*
X100350166Y-101267000D01*
X100376023Y-101269682D01*
X100385142Y-101271594D01*
X100385147Y-101271595D01*
X100394406Y-101270440D01*
X100420387Y-101269904D01*
X100429679Y-101270674D01*
X100429681Y-101270673D01*
X100430122Y-101270710D01*
X100459894Y-101267000D01*
X100592492Y-101267000D01*
X100609594Y-101269491D01*
X100618042Y-101269141D01*
X100618044Y-101269142D01*
X100667214Y-101267107D01*
X100672422Y-101267000D01*
X100692146Y-101267000D01*
X100706958Y-101265463D01*
X100736255Y-101264252D01*
X100744934Y-101260865D01*
X100769994Y-101253964D01*
X100779198Y-101252429D01*
X100804999Y-101238465D01*
X100819155Y-101231903D01*
X100846472Y-101221245D01*
X100853585Y-101215220D01*
X100875040Y-101200560D01*
X100883249Y-101196119D01*
X100903114Y-101174537D01*
X100914382Y-101163727D01*
X100923605Y-101155916D01*
X100936753Y-101144781D01*
X100941525Y-101136770D01*
X100957064Y-101115933D01*
X100961615Y-101110989D01*
X101018362Y-101075572D01*
X101085242Y-101074193D01*
X101143400Y-101107239D01*
X101220103Y-101183942D01*
X101292152Y-101235384D01*
X101307285Y-101239889D01*
X101362312Y-101273479D01*
X101393522Y-101329893D01*
X101392741Y-101394359D01*
X101296929Y-101739445D01*
X101239028Y-102092628D01*
X101219651Y-102449999D01*
X101239028Y-102807371D01*
X101296929Y-103160554D01*
X101392673Y-103505397D01*
X101424184Y-103584483D01*
X101525147Y-103837880D01*
X101568950Y-103920500D01*
X101692787Y-104154083D01*
X101893637Y-104450314D01*
X101999544Y-104574997D01*
X102125332Y-104723086D01*
X102385163Y-104969211D01*
X102670081Y-105185800D01*
X102976747Y-105370315D01*
X103301565Y-105520591D01*
X103301571Y-105520593D01*
X103640725Y-105634868D01*
X103807914Y-105671669D01*
X103990254Y-105711805D01*
X104070204Y-105720500D01*
X104346049Y-105750500D01*
X104346052Y-105750500D01*
X104703948Y-105750500D01*
X104703951Y-105750500D01*
X104933858Y-105725496D01*
X105059746Y-105711805D01*
X105409274Y-105634868D01*
X105748435Y-105520591D01*
X106073253Y-105370315D01*
X106379919Y-105185800D01*
X106664837Y-104969211D01*
X106924668Y-104723086D01*
X107156365Y-104450311D01*
X107357211Y-104154085D01*
X107524853Y-103837880D01*
X107657324Y-103505403D01*
X107657696Y-103504065D01*
X107753070Y-103160554D01*
X107753071Y-103160552D01*
X107810972Y-102807371D01*
X107830348Y-102450000D01*
X107810972Y-102092629D01*
X107753071Y-101739448D01*
X107716987Y-101609483D01*
X107657326Y-101394602D01*
X107633372Y-101334483D01*
X107524853Y-101062120D01*
X107408413Y-100842492D01*
X107357212Y-100745916D01*
X107298213Y-100658900D01*
X107156365Y-100449689D01*
X107018709Y-100287628D01*
X106954531Y-100212071D01*
X106925716Y-100147510D01*
X106936209Y-100077594D01*
X106982703Y-100024335D01*
X107050563Y-100004500D01*
X186999437Y-100004500D01*
X187067297Y-100024335D01*
X187113791Y-100077594D01*
X187124284Y-100147510D01*
X187095469Y-100212071D01*
X186893638Y-100449685D01*
X186692787Y-100745916D01*
X186525147Y-101062120D01*
X186392673Y-101394602D01*
X186296929Y-101739445D01*
X186239028Y-102092628D01*
X186219651Y-102449999D01*
X186239028Y-102807371D01*
X186296929Y-103160554D01*
X186392673Y-103505397D01*
X186424184Y-103584483D01*
X186525147Y-103837880D01*
X186568950Y-103920500D01*
X186692787Y-104154083D01*
X186893637Y-104450314D01*
X186999544Y-104574997D01*
X187125332Y-104723086D01*
X187385163Y-104969211D01*
X187670081Y-105185800D01*
X187976747Y-105370315D01*
X188301565Y-105520591D01*
X188301571Y-105520593D01*
X188640725Y-105634868D01*
X188807914Y-105671669D01*
X188990254Y-105711805D01*
X189070204Y-105720500D01*
X189346049Y-105750500D01*
X189346052Y-105750500D01*
X189703948Y-105750500D01*
X189703951Y-105750500D01*
X189933858Y-105725496D01*
X190059746Y-105711805D01*
X190409274Y-105634868D01*
X190748435Y-105520591D01*
X191073253Y-105370315D01*
X191379919Y-105185800D01*
X191664837Y-104969211D01*
X191924668Y-104723086D01*
X192156365Y-104450311D01*
X192357211Y-104154085D01*
X192524853Y-103837880D01*
X192657324Y-103505403D01*
X192657696Y-103504065D01*
X192753070Y-103160554D01*
X192753071Y-103160552D01*
X192810972Y-102807371D01*
X192830348Y-102450000D01*
X192810972Y-102092629D01*
X192753071Y-101739448D01*
X192673180Y-101451708D01*
X192670845Y-101394256D01*
X192694280Y-101341748D01*
X192738605Y-101305120D01*
X192794588Y-101292000D01*
X192817492Y-101292000D01*
X192834594Y-101294491D01*
X192843042Y-101294141D01*
X192843044Y-101294142D01*
X192892214Y-101292107D01*
X192897422Y-101292000D01*
X192917146Y-101292000D01*
X192931958Y-101290463D01*
X192961255Y-101289252D01*
X192969934Y-101285865D01*
X192994994Y-101278964D01*
X193004198Y-101277429D01*
X193029999Y-101263465D01*
X193044155Y-101256903D01*
X193071472Y-101246245D01*
X193078585Y-101240220D01*
X193100040Y-101225560D01*
X193108249Y-101221119D01*
X193128114Y-101199537D01*
X193139382Y-101188727D01*
X193150108Y-101179643D01*
X193161753Y-101169781D01*
X193166525Y-101161770D01*
X193182064Y-101140933D01*
X193186615Y-101135989D01*
X193243362Y-101100572D01*
X193310242Y-101099193D01*
X193368400Y-101132239D01*
X193445103Y-101208942D01*
X193517152Y-101260384D01*
X193630544Y-101294142D01*
X193748755Y-101289252D01*
X193858972Y-101246245D01*
X193949253Y-101169781D01*
X194009816Y-101068146D01*
X194034095Y-100952353D01*
X194030234Y-100921381D01*
X194019461Y-100834949D01*
X193967498Y-100728658D01*
X193870350Y-100631510D01*
X193839855Y-100582093D01*
X193834762Y-100524248D01*
X193856150Y-100470261D01*
X193889006Y-100440943D01*
X193895747Y-100433619D01*
X193895749Y-100433619D01*
X193975879Y-100346574D01*
X194023404Y-100238228D01*
X194033174Y-100120321D01*
X194033173Y-100120318D01*
X194033192Y-100120095D01*
X194053279Y-100061585D01*
X194098793Y-100019686D01*
X194158762Y-100004500D01*
X213755125Y-100004500D01*
X213795044Y-100004500D01*
X213804929Y-100004887D01*
X214016251Y-100021519D01*
X214035757Y-100024609D01*
X214237044Y-100072933D01*
X214255845Y-100079042D01*
X214421140Y-100147510D01*
X214447079Y-100158254D01*
X214464696Y-100167230D01*
X214631375Y-100269371D01*
X214641193Y-100275387D01*
X214657186Y-100287007D01*
X214809323Y-100416945D01*
X214814582Y-100421436D01*
X214828561Y-100435415D01*
X214937619Y-100563105D01*
X214962990Y-100592811D01*
X214974612Y-100608806D01*
X215082769Y-100785303D01*
X215091745Y-100802920D01*
X215170956Y-100994153D01*
X215177066Y-101012957D01*
X215225388Y-101214231D01*
X215228480Y-101233758D01*
X215234799Y-101314039D01*
X215245112Y-101445070D01*
X215245500Y-101454956D01*
X215245500Y-115545044D01*
X215245112Y-115554930D01*
X215228481Y-115766240D01*
X215225388Y-115785768D01*
X215177066Y-115987042D01*
X215170956Y-116005846D01*
X215091745Y-116197079D01*
X215082769Y-116214696D01*
X214974612Y-116391193D01*
X214962990Y-116407188D01*
X214828563Y-116564582D01*
X214814582Y-116578563D01*
X214657188Y-116712990D01*
X214641193Y-116724612D01*
X214464696Y-116832769D01*
X214447079Y-116841745D01*
X214255846Y-116920956D01*
X214237042Y-116927066D01*
X214035768Y-116975388D01*
X214016240Y-116978481D01*
X213804930Y-116995112D01*
X213795044Y-116995500D01*
X204169531Y-116995500D01*
X204105931Y-116978271D01*
X204059725Y-116931295D01*
X204043548Y-116867419D01*
X204061826Y-116804112D01*
X204109559Y-116758688D01*
X204146408Y-116738745D01*
X204151043Y-116736359D01*
X204205807Y-116709587D01*
X204205854Y-116709552D01*
X204217147Y-116697285D01*
X204247130Y-116664713D01*
X204250713Y-116660979D01*
X207436047Y-113475645D01*
X207489476Y-113443895D01*
X207551585Y-113441548D01*
X207607259Y-113469178D01*
X207642951Y-113520060D01*
X207652927Y-113546364D01*
X207666213Y-113581395D01*
X207753973Y-113708538D01*
X207756502Y-113712201D01*
X207875471Y-113817599D01*
X208016207Y-113891463D01*
X208170529Y-113929500D01*
X208329469Y-113929500D01*
X208329471Y-113929500D01*
X208483793Y-113891463D01*
X208624529Y-113817599D01*
X208743498Y-113712201D01*
X208745761Y-113708921D01*
X208790901Y-113668932D01*
X208849456Y-113654500D01*
X211297574Y-113654500D01*
X211323431Y-113657181D01*
X211334100Y-113659419D01*
X211365796Y-113655468D01*
X211381382Y-113654500D01*
X211381440Y-113654500D01*
X211381443Y-113654500D01*
X211402194Y-113651036D01*
X211407243Y-113650300D01*
X211459783Y-113643752D01*
X211459788Y-113643749D01*
X211467782Y-113642753D01*
X211467842Y-113642734D01*
X211474926Y-113638900D01*
X211474927Y-113638900D01*
X211521411Y-113613742D01*
X211526043Y-113611359D01*
X211529435Y-113609701D01*
X211573568Y-113588126D01*
X211573568Y-113588125D01*
X211580807Y-113584587D01*
X211580854Y-113584552D01*
X211587350Y-113577496D01*
X211622130Y-113539713D01*
X211625689Y-113536003D01*
X212455407Y-112706286D01*
X212505564Y-112675551D01*
X212564211Y-112670935D01*
X212618561Y-112693448D01*
X212656767Y-112738181D01*
X212670500Y-112795384D01*
X212670500Y-113205097D01*
X212659400Y-113256809D01*
X212628054Y-113299409D01*
X212556501Y-113362799D01*
X212466212Y-113493605D01*
X212409850Y-113642219D01*
X212390693Y-113800000D01*
X212409850Y-113957780D01*
X212466212Y-114106394D01*
X212549995Y-114227775D01*
X212556502Y-114237201D01*
X212675471Y-114342599D01*
X212816207Y-114416463D01*
X212970529Y-114454500D01*
X213129469Y-114454500D01*
X213129471Y-114454500D01*
X213283793Y-114416463D01*
X213424529Y-114342599D01*
X213543498Y-114237201D01*
X213633787Y-114106395D01*
X213690149Y-113957782D01*
X213709307Y-113800000D01*
X213690149Y-113642218D01*
X213688275Y-113637279D01*
X213681006Y-113577412D01*
X213702390Y-113521023D01*
X213747531Y-113481031D01*
X213806087Y-113466598D01*
X213941567Y-113466598D01*
X213941569Y-113466598D01*
X214095891Y-113428561D01*
X214236627Y-113354697D01*
X214355596Y-113249299D01*
X214445885Y-113118493D01*
X214502247Y-112969880D01*
X214521405Y-112812098D01*
X214502247Y-112654316D01*
X214445885Y-112505703D01*
X214355596Y-112374897D01*
X214347358Y-112367599D01*
X214271947Y-112300790D01*
X214240601Y-112258190D01*
X214229500Y-112206478D01*
X214229500Y-104379634D01*
X214232182Y-104353776D01*
X214234419Y-104343108D01*
X214230468Y-104311412D01*
X214229500Y-104295826D01*
X214229500Y-104295766D01*
X214229338Y-104294793D01*
X214226040Y-104275031D01*
X214225294Y-104269908D01*
X214224513Y-104263646D01*
X214218752Y-104217426D01*
X214218751Y-104217425D01*
X214217756Y-104209436D01*
X214217732Y-104209363D01*
X214213900Y-104202282D01*
X214213900Y-104202281D01*
X214188746Y-104155801D01*
X214186362Y-104151169D01*
X214159593Y-104096412D01*
X214159545Y-104096348D01*
X214153619Y-104090893D01*
X214153619Y-104090892D01*
X214114713Y-104055076D01*
X214110957Y-104051471D01*
X211403210Y-101343724D01*
X211386822Y-101323544D01*
X211380859Y-101314417D01*
X211355647Y-101294793D01*
X211343945Y-101284458D01*
X211343909Y-101284422D01*
X211339277Y-101281115D01*
X211326823Y-101272222D01*
X211322655Y-101269114D01*
X211288517Y-101242545D01*
X211280911Y-101236625D01*
X211280909Y-101236624D01*
X211274559Y-101231682D01*
X211274484Y-101231643D01*
X211216103Y-101214262D01*
X211211145Y-101212673D01*
X211153514Y-101192888D01*
X211153422Y-101192875D01*
X211092578Y-101195392D01*
X211087371Y-101195500D01*
X200118238Y-101195500D01*
X200092380Y-101192818D01*
X200081711Y-101190580D01*
X200050016Y-101194532D01*
X200034430Y-101195500D01*
X200034366Y-101195500D01*
X200013656Y-101198955D01*
X200008510Y-101199705D01*
X199948062Y-101207241D01*
X199947942Y-101207279D01*
X199894379Y-101236265D01*
X199889754Y-101238646D01*
X199835034Y-101265398D01*
X199834938Y-101265469D01*
X199793680Y-101310285D01*
X199790077Y-101314039D01*
X194420523Y-106683595D01*
X194379646Y-106710909D01*
X194331428Y-106720500D01*
X183382176Y-106720500D01*
X183333958Y-106710909D01*
X183293081Y-106683595D01*
X177579210Y-100969724D01*
X177562822Y-100949544D01*
X177561306Y-100947223D01*
X177556860Y-100940418D01*
X177556859Y-100940417D01*
X177531647Y-100920793D01*
X177519945Y-100910458D01*
X177519909Y-100910422D01*
X177517938Y-100909015D01*
X177502823Y-100898222D01*
X177498655Y-100895114D01*
X177460710Y-100865582D01*
X177456911Y-100862625D01*
X177456909Y-100862624D01*
X177450559Y-100857682D01*
X177450484Y-100857643D01*
X177392103Y-100840262D01*
X177387145Y-100838673D01*
X177329514Y-100818888D01*
X177329422Y-100818875D01*
X177268578Y-100821392D01*
X177263371Y-100821500D01*
X148724111Y-100821500D01*
X148665556Y-100807068D01*
X148620416Y-100767077D01*
X148618499Y-100764300D01*
X148578268Y-100728658D01*
X148499529Y-100658901D01*
X148358793Y-100585037D01*
X148204471Y-100547000D01*
X148045529Y-100547000D01*
X147891207Y-100585037D01*
X147891206Y-100585037D01*
X147891204Y-100585038D01*
X147750472Y-100658900D01*
X147750470Y-100658901D01*
X147750471Y-100658901D01*
X147631502Y-100764299D01*
X147613017Y-100791078D01*
X147567878Y-100831068D01*
X147509323Y-100845500D01*
X140304629Y-100845500D01*
X140278772Y-100842818D01*
X140276597Y-100842362D01*
X140268107Y-100840581D01*
X140236419Y-100844532D01*
X140220833Y-100845500D01*
X140220761Y-100845500D01*
X140200033Y-100848958D01*
X140194885Y-100849708D01*
X140134460Y-100857239D01*
X140134340Y-100857278D01*
X140080775Y-100886265D01*
X140076150Y-100888646D01*
X140021430Y-100915398D01*
X140021334Y-100915469D01*
X139980076Y-100960285D01*
X139976473Y-100964039D01*
X138360183Y-102580329D01*
X138306752Y-102612081D01*
X138244643Y-102614428D01*
X138188968Y-102586797D01*
X138153277Y-102535916D01*
X138108787Y-102418605D01*
X138018498Y-102287799D01*
X137899529Y-102182401D01*
X137758793Y-102108537D01*
X137604471Y-102070500D01*
X137459384Y-102070500D01*
X137411166Y-102060909D01*
X137370289Y-102033595D01*
X136355418Y-101018724D01*
X136339030Y-100998544D01*
X136336674Y-100994938D01*
X136333068Y-100989418D01*
X136332581Y-100989039D01*
X136307855Y-100969793D01*
X136296153Y-100959458D01*
X136296117Y-100959422D01*
X136279032Y-100947223D01*
X136274863Y-100944114D01*
X136244898Y-100920793D01*
X136233119Y-100911625D01*
X136233117Y-100911624D01*
X136226767Y-100906682D01*
X136226692Y-100906643D01*
X136168311Y-100889262D01*
X136163353Y-100887673D01*
X136105722Y-100867888D01*
X136105630Y-100867875D01*
X136044786Y-100870392D01*
X136039579Y-100870500D01*
X112729629Y-100870500D01*
X112703772Y-100867818D01*
X112701597Y-100867362D01*
X112693107Y-100865581D01*
X112661419Y-100869532D01*
X112645833Y-100870500D01*
X112645761Y-100870500D01*
X112625033Y-100873958D01*
X112619885Y-100874708D01*
X112559460Y-100882239D01*
X112559340Y-100882278D01*
X112505775Y-100911265D01*
X112501150Y-100913646D01*
X112446430Y-100940398D01*
X112446334Y-100940469D01*
X112405076Y-100985285D01*
X112401473Y-100989039D01*
X106781919Y-106608595D01*
X106741042Y-106635909D01*
X106692824Y-106645500D01*
X99384384Y-106645500D01*
X99336166Y-106635909D01*
X99295289Y-106608595D01*
X94305418Y-101618724D01*
X94289030Y-101598544D01*
X94283067Y-101589417D01*
X94257855Y-101569793D01*
X94246153Y-101559458D01*
X94246117Y-101559422D01*
X94229032Y-101547223D01*
X94224863Y-101544114D01*
X94185709Y-101513641D01*
X94183119Y-101511625D01*
X94183117Y-101511624D01*
X94176767Y-101506682D01*
X94176692Y-101506643D01*
X94118311Y-101489262D01*
X94113353Y-101487673D01*
X94055722Y-101467888D01*
X94055630Y-101467875D01*
X93994786Y-101470392D01*
X93989579Y-101470500D01*
X81177426Y-101470500D01*
X81151568Y-101467818D01*
X81140899Y-101465580D01*
X81109204Y-101469532D01*
X81093618Y-101470500D01*
X81093557Y-101470500D01*
X81072850Y-101473954D01*
X81067708Y-101474703D01*
X81007247Y-101482241D01*
X81007137Y-101482276D01*
X80953583Y-101511258D01*
X80948955Y-101513641D01*
X80894217Y-101540401D01*
X80894127Y-101540468D01*
X80852868Y-101585285D01*
X80849265Y-101589039D01*
X78969593Y-103468712D01*
X78919436Y-103499449D01*
X78860789Y-103504065D01*
X78806439Y-103481552D01*
X78768233Y-103436819D01*
X78754500Y-103379616D01*
X78754500Y-101454944D01*
X78754888Y-101445066D01*
X78756471Y-101424933D01*
X78771492Y-101233924D01*
X78774580Y-101214414D01*
X78822827Y-101013286D01*
X78828925Y-100994502D01*
X78908022Y-100803378D01*
X78916977Y-100785786D01*
X79024985Y-100609365D01*
X79036571Y-100593401D01*
X79170827Y-100436033D01*
X79184775Y-100422068D01*
X79341978Y-100287621D01*
X79357934Y-100276010D01*
X79534211Y-100167795D01*
X79551790Y-100158818D01*
X79742826Y-100079483D01*
X79761598Y-100073363D01*
X79962669Y-100024868D01*
X79982178Y-100021757D01*
X80193235Y-100004899D01*
X80203267Y-100004500D01*
X99917398Y-100004500D01*
X99983381Y-100023158D01*
G37*
%TD.AperFunction*%
%TA.AperFunction,Conductor*%
G36*
X210563834Y-102864091D02*
G01*
X210604711Y-102891405D01*
X212533595Y-104820289D01*
X212560909Y-104861166D01*
X212570500Y-104909384D01*
X212570500Y-109370352D01*
X212557450Y-109426194D01*
X212521003Y-109470469D01*
X212468708Y-109494005D01*
X212411399Y-109491926D01*
X212360947Y-109464665D01*
X212354986Y-109459384D01*
X212324529Y-109432401D01*
X212183793Y-109358537D01*
X212029471Y-109320500D01*
X211870529Y-109320500D01*
X211716207Y-109358537D01*
X211716206Y-109358537D01*
X211716204Y-109358538D01*
X211575472Y-109432400D01*
X211459005Y-109535581D01*
X211456502Y-109537799D01*
X211454238Y-109541078D01*
X211409099Y-109581068D01*
X211350544Y-109595500D01*
X199477426Y-109595500D01*
X199451568Y-109592818D01*
X199440899Y-109590580D01*
X199409204Y-109594532D01*
X199393618Y-109595500D01*
X199393554Y-109595500D01*
X199372844Y-109598955D01*
X199367698Y-109599705D01*
X199307250Y-109607241D01*
X199307130Y-109607279D01*
X199253567Y-109636265D01*
X199248942Y-109638646D01*
X199194222Y-109665398D01*
X199194126Y-109665469D01*
X199152868Y-109710285D01*
X199149265Y-109714039D01*
X195229710Y-113633595D01*
X195188833Y-113660909D01*
X195140615Y-113670500D01*
X194995529Y-113670500D01*
X194841207Y-113708537D01*
X194841206Y-113708537D01*
X194841204Y-113708538D01*
X194700472Y-113782400D01*
X194581501Y-113887799D01*
X194491212Y-114018605D01*
X194434850Y-114167219D01*
X194415693Y-114325000D01*
X194434850Y-114482780D01*
X194491212Y-114631394D01*
X194581152Y-114761695D01*
X194581502Y-114762201D01*
X194700471Y-114867599D01*
X194841207Y-114941463D01*
X194995529Y-114979500D01*
X195154469Y-114979500D01*
X195154471Y-114979500D01*
X195308793Y-114941463D01*
X195449529Y-114867599D01*
X195543059Y-114784737D01*
X195596455Y-114756713D01*
X195656763Y-114756713D01*
X195710160Y-114784738D01*
X195755280Y-114824711D01*
X195775472Y-114842600D01*
X195837440Y-114875123D01*
X195916207Y-114916463D01*
X196070529Y-114954500D01*
X196229469Y-114954500D01*
X196229471Y-114954500D01*
X196383793Y-114916463D01*
X196524529Y-114842599D01*
X196578961Y-114794375D01*
X196632357Y-114766351D01*
X196692665Y-114766350D01*
X196746065Y-114794377D01*
X196787709Y-114831270D01*
X196800270Y-114842398D01*
X196941006Y-114916262D01*
X197095328Y-114954299D01*
X197254268Y-114954299D01*
X197254270Y-114954299D01*
X197408592Y-114916262D01*
X197549328Y-114842398D01*
X197668297Y-114737000D01*
X197758586Y-114606194D01*
X197814948Y-114457581D01*
X197834106Y-114299799D01*
X197828224Y-114251359D01*
X197834197Y-114195074D01*
X197864206Y-114147084D01*
X199494889Y-112516402D01*
X199535764Y-112489091D01*
X199583982Y-112479500D01*
X203862608Y-112479500D01*
X203921163Y-112493933D01*
X203966304Y-112533924D01*
X203987689Y-112590313D01*
X203980420Y-112650181D01*
X203946162Y-112699810D01*
X203931502Y-112712799D01*
X203931501Y-112712800D01*
X203841212Y-112843605D01*
X203784850Y-112992219D01*
X203766205Y-113145780D01*
X203765693Y-113150000D01*
X203770819Y-113192218D01*
X203771574Y-113198437D01*
X203765599Y-113254725D01*
X203735587Y-113302717D01*
X202379708Y-114658597D01*
X202338834Y-114685909D01*
X202290616Y-114695500D01*
X200534213Y-114695500D01*
X200484826Y-114685418D01*
X200443342Y-114656784D01*
X200416401Y-114614181D01*
X200412460Y-114603790D01*
X200408787Y-114594105D01*
X200318498Y-114463299D01*
X200199529Y-114357901D01*
X200058793Y-114284037D01*
X199904471Y-114246000D01*
X199745529Y-114246000D01*
X199591207Y-114284037D01*
X199591206Y-114284037D01*
X199591204Y-114284038D01*
X199450472Y-114357900D01*
X199331501Y-114463299D01*
X199241212Y-114594105D01*
X199184850Y-114742718D01*
X199170648Y-114859688D01*
X199149263Y-114916076D01*
X199104122Y-114956067D01*
X199045567Y-114970500D01*
X198995529Y-114970500D01*
X198841207Y-115008537D01*
X198841206Y-115008537D01*
X198841204Y-115008538D01*
X198700472Y-115082400D01*
X198581501Y-115187799D01*
X198491212Y-115318605D01*
X198434850Y-115467219D01*
X198414517Y-115634687D01*
X198393132Y-115691076D01*
X198347991Y-115731067D01*
X198289436Y-115745500D01*
X198170529Y-115745500D01*
X198016207Y-115783537D01*
X198016206Y-115783537D01*
X198016204Y-115783538D01*
X197875472Y-115857400D01*
X197756501Y-115962799D01*
X197666212Y-116093605D01*
X197609850Y-116242219D01*
X197590693Y-116399999D01*
X197609850Y-116557780D01*
X197666212Y-116706394D01*
X197729391Y-116797924D01*
X197751465Y-116861892D01*
X197737262Y-116928055D01*
X197690880Y-116977328D01*
X197625695Y-116995500D01*
X191953320Y-116995500D01*
X191895510Y-116981455D01*
X191850588Y-116942452D01*
X191828567Y-116887186D01*
X191834359Y-116827977D01*
X191866670Y-116778025D01*
X191887083Y-116758688D01*
X191924668Y-116723086D01*
X192156365Y-116450311D01*
X192357211Y-116154085D01*
X192524853Y-115837880D01*
X192657324Y-115505403D01*
X192657402Y-115505125D01*
X192734925Y-115225907D01*
X192753071Y-115160552D01*
X192810972Y-114807371D01*
X192830348Y-114450000D01*
X192810972Y-114092629D01*
X192753071Y-113739448D01*
X192723409Y-113632615D01*
X192657326Y-113394602D01*
X192653011Y-113383771D01*
X192524853Y-113062120D01*
X192392144Y-112811805D01*
X192357212Y-112745916D01*
X192241095Y-112574657D01*
X192156365Y-112449689D01*
X192138324Y-112428450D01*
X192035725Y-112307661D01*
X191924668Y-112176914D01*
X191664837Y-111930789D01*
X191379919Y-111714200D01*
X191226585Y-111621942D01*
X191073255Y-111529686D01*
X190867476Y-111434483D01*
X190748435Y-111379409D01*
X190748433Y-111379408D01*
X190748428Y-111379406D01*
X190409274Y-111265131D01*
X190059744Y-111188194D01*
X189703951Y-111149500D01*
X189703948Y-111149500D01*
X189346052Y-111149500D01*
X189346049Y-111149500D01*
X188990255Y-111188194D01*
X188640725Y-111265131D01*
X188301571Y-111379406D01*
X187976744Y-111529686D01*
X187670082Y-111714199D01*
X187670079Y-111714200D01*
X187670081Y-111714200D01*
X187385163Y-111930789D01*
X187125332Y-112176914D01*
X187125329Y-112176917D01*
X186893637Y-112449685D01*
X186692787Y-112745916D01*
X186525147Y-113062120D01*
X186392673Y-113394602D01*
X186296929Y-113739445D01*
X186239028Y-114092628D01*
X186219651Y-114450000D01*
X186239028Y-114807371D01*
X186296929Y-115160554D01*
X186392673Y-115505397D01*
X186410445Y-115550000D01*
X186525147Y-115837880D01*
X186551620Y-115887813D01*
X186692787Y-116154083D01*
X186893637Y-116450314D01*
X186997103Y-116572123D01*
X187116756Y-116712990D01*
X187125333Y-116723087D01*
X187183330Y-116778025D01*
X187215641Y-116827977D01*
X187221433Y-116887186D01*
X187199412Y-116942452D01*
X187154490Y-116981455D01*
X187096680Y-116995500D01*
X185268621Y-116995500D01*
X185214750Y-116983403D01*
X185171223Y-116949435D01*
X185146398Y-116900117D01*
X185145042Y-116844921D01*
X185149000Y-116825021D01*
X185149000Y-116077000D01*
X182941001Y-116077000D01*
X182941001Y-116825015D01*
X182944960Y-116844919D01*
X182943605Y-116900116D01*
X182918780Y-116949434D01*
X182875253Y-116983403D01*
X182821381Y-116995500D01*
X182322849Y-116995500D01*
X182264611Y-116981233D01*
X182219562Y-116941665D01*
X182197902Y-116885754D01*
X182204536Y-116826163D01*
X182237962Y-116776386D01*
X182324732Y-116697285D01*
X182448088Y-116533935D01*
X182539328Y-116350701D01*
X182595345Y-116153821D01*
X182614232Y-115950000D01*
X182608469Y-115887813D01*
X182602464Y-115823000D01*
X182941000Y-115823000D01*
X183918000Y-115823000D01*
X183918000Y-114846001D01*
X183169982Y-114846001D01*
X183095894Y-114860736D01*
X183011875Y-114916876D01*
X182955736Y-115000893D01*
X182941000Y-115074981D01*
X182941000Y-115823000D01*
X182602464Y-115823000D01*
X182595345Y-115746179D01*
X182539328Y-115549299D01*
X182498457Y-115467219D01*
X182448089Y-115366066D01*
X182412248Y-115318605D01*
X182324732Y-115202715D01*
X182173462Y-115064814D01*
X182085395Y-115010285D01*
X181999428Y-114957056D01*
X181892631Y-114915683D01*
X181808556Y-114883112D01*
X181610022Y-114846000D01*
X184172000Y-114846000D01*
X184172000Y-115823000D01*
X185148999Y-115823000D01*
X185148999Y-115074982D01*
X185134263Y-115000894D01*
X185078123Y-114916875D01*
X184994106Y-114860736D01*
X184920019Y-114846000D01*
X184172000Y-114846000D01*
X181610022Y-114846000D01*
X181607347Y-114845500D01*
X181402653Y-114845500D01*
X181239806Y-114875941D01*
X181201444Y-114883112D01*
X181010571Y-114957056D01*
X180836539Y-115064813D01*
X180817247Y-115082400D01*
X180695310Y-115193561D01*
X180685267Y-115202716D01*
X180561910Y-115366066D01*
X180470672Y-115549297D01*
X180414654Y-115746180D01*
X180395767Y-115949999D01*
X180414654Y-116153819D01*
X180470672Y-116350702D01*
X180561910Y-116533933D01*
X180590750Y-116572123D01*
X180685268Y-116697285D01*
X180772037Y-116776386D01*
X180805464Y-116826163D01*
X180812098Y-116885754D01*
X180790438Y-116941665D01*
X180745389Y-116981233D01*
X180687151Y-116995500D01*
X179782849Y-116995500D01*
X179724611Y-116981233D01*
X179679562Y-116941665D01*
X179657902Y-116885754D01*
X179664536Y-116826163D01*
X179697962Y-116776386D01*
X179784732Y-116697285D01*
X179908088Y-116533935D01*
X179999328Y-116350701D01*
X180055345Y-116153821D01*
X180074232Y-115950000D01*
X180068469Y-115887813D01*
X180062464Y-115823000D01*
X180055345Y-115746179D01*
X179999328Y-115549299D01*
X179958457Y-115467219D01*
X179908089Y-115366066D01*
X179872248Y-115318605D01*
X179784732Y-115202715D01*
X179633462Y-115064814D01*
X179545395Y-115010285D01*
X179459428Y-114957056D01*
X179352631Y-114915683D01*
X179268556Y-114883112D01*
X179067347Y-114845500D01*
X178862653Y-114845500D01*
X178699806Y-114875941D01*
X178661444Y-114883112D01*
X178470571Y-114957056D01*
X178296539Y-115064813D01*
X178277247Y-115082400D01*
X178155310Y-115193561D01*
X178145267Y-115202716D01*
X178021910Y-115366066D01*
X177930672Y-115549297D01*
X177874654Y-115746180D01*
X177855767Y-115949999D01*
X177874654Y-116153819D01*
X177930672Y-116350702D01*
X178021910Y-116533933D01*
X178050750Y-116572123D01*
X178145268Y-116697285D01*
X178232037Y-116776386D01*
X178265464Y-116826163D01*
X178272098Y-116885754D01*
X178250438Y-116941665D01*
X178205389Y-116981233D01*
X178147151Y-116995500D01*
X177242849Y-116995500D01*
X177184611Y-116981233D01*
X177139562Y-116941665D01*
X177117902Y-116885754D01*
X177124536Y-116826163D01*
X177157962Y-116776386D01*
X177244732Y-116697285D01*
X177368088Y-116533935D01*
X177459328Y-116350701D01*
X177515345Y-116153821D01*
X177534232Y-115950000D01*
X177528469Y-115887813D01*
X177522464Y-115823000D01*
X177515345Y-115746179D01*
X177459328Y-115549299D01*
X177418457Y-115467219D01*
X177368089Y-115366066D01*
X177332248Y-115318605D01*
X177244732Y-115202715D01*
X177093462Y-115064814D01*
X177005395Y-115010285D01*
X176919428Y-114957056D01*
X176812631Y-114915683D01*
X176728556Y-114883112D01*
X176527347Y-114845500D01*
X176322653Y-114845500D01*
X176159806Y-114875941D01*
X176121444Y-114883112D01*
X175930571Y-114957056D01*
X175756539Y-115064813D01*
X175737247Y-115082400D01*
X175615310Y-115193561D01*
X175605267Y-115202716D01*
X175481910Y-115366066D01*
X175390672Y-115549297D01*
X175334654Y-115746180D01*
X175315767Y-115949999D01*
X175334654Y-116153819D01*
X175390672Y-116350702D01*
X175481910Y-116533933D01*
X175510750Y-116572123D01*
X175605268Y-116697285D01*
X175692037Y-116776386D01*
X175725464Y-116826163D01*
X175732098Y-116885754D01*
X175710438Y-116941665D01*
X175665389Y-116981233D01*
X175607151Y-116995500D01*
X174702849Y-116995500D01*
X174644611Y-116981233D01*
X174599562Y-116941665D01*
X174577902Y-116885754D01*
X174584536Y-116826163D01*
X174617962Y-116776386D01*
X174704732Y-116697285D01*
X174828088Y-116533935D01*
X174919328Y-116350701D01*
X174975345Y-116153821D01*
X174994232Y-115950000D01*
X174988469Y-115887813D01*
X174982464Y-115823000D01*
X174975345Y-115746179D01*
X174919328Y-115549299D01*
X174878457Y-115467219D01*
X174828089Y-115366066D01*
X174792248Y-115318605D01*
X174704732Y-115202715D01*
X174553462Y-115064814D01*
X174465395Y-115010285D01*
X174379428Y-114957056D01*
X174272631Y-114915683D01*
X174188556Y-114883112D01*
X173987347Y-114845500D01*
X173782653Y-114845500D01*
X173619806Y-114875941D01*
X173581444Y-114883112D01*
X173390571Y-114957056D01*
X173216539Y-115064813D01*
X173197247Y-115082400D01*
X173075310Y-115193561D01*
X173065267Y-115202716D01*
X172941910Y-115366066D01*
X172850672Y-115549297D01*
X172794654Y-115746180D01*
X172775767Y-115949999D01*
X172794654Y-116153819D01*
X172850672Y-116350702D01*
X172941910Y-116533933D01*
X172970750Y-116572123D01*
X173065268Y-116697285D01*
X173152037Y-116776386D01*
X173185464Y-116826163D01*
X173192098Y-116885754D01*
X173170438Y-116941665D01*
X173125389Y-116981233D01*
X173067151Y-116995500D01*
X172162849Y-116995500D01*
X172104611Y-116981233D01*
X172059562Y-116941665D01*
X172037902Y-116885754D01*
X172044536Y-116826163D01*
X172077962Y-116776386D01*
X172164732Y-116697285D01*
X172288088Y-116533935D01*
X172379328Y-116350701D01*
X172435345Y-116153821D01*
X172454232Y-115950000D01*
X172448469Y-115887813D01*
X172442464Y-115823000D01*
X172435345Y-115746179D01*
X172379328Y-115549299D01*
X172338457Y-115467219D01*
X172288089Y-115366066D01*
X172252248Y-115318605D01*
X172164732Y-115202715D01*
X172013462Y-115064814D01*
X171925395Y-115010285D01*
X171839428Y-114957056D01*
X171732631Y-114915683D01*
X171648556Y-114883112D01*
X171447347Y-114845500D01*
X171242653Y-114845500D01*
X171079806Y-114875941D01*
X171041444Y-114883112D01*
X170850571Y-114957056D01*
X170676539Y-115064813D01*
X170657247Y-115082400D01*
X170535310Y-115193561D01*
X170525267Y-115202716D01*
X170401910Y-115366066D01*
X170310672Y-115549297D01*
X170254654Y-115746180D01*
X170235767Y-115949999D01*
X170254654Y-116153819D01*
X170310672Y-116350702D01*
X170401910Y-116533933D01*
X170430750Y-116572123D01*
X170525268Y-116697285D01*
X170612037Y-116776386D01*
X170645464Y-116826163D01*
X170652098Y-116885754D01*
X170630438Y-116941665D01*
X170585389Y-116981233D01*
X170527151Y-116995500D01*
X169622849Y-116995500D01*
X169564611Y-116981233D01*
X169519562Y-116941665D01*
X169497902Y-116885754D01*
X169504536Y-116826163D01*
X169537962Y-116776386D01*
X169624732Y-116697285D01*
X169748088Y-116533935D01*
X169839328Y-116350701D01*
X169895345Y-116153821D01*
X169914232Y-115950000D01*
X169908469Y-115887813D01*
X169902464Y-115823000D01*
X169895345Y-115746179D01*
X169839328Y-115549299D01*
X169798457Y-115467219D01*
X169748089Y-115366066D01*
X169712248Y-115318605D01*
X169624732Y-115202715D01*
X169473462Y-115064814D01*
X169385395Y-115010285D01*
X169299428Y-114957056D01*
X169192631Y-114915683D01*
X169108556Y-114883112D01*
X168907347Y-114845500D01*
X168702653Y-114845500D01*
X168539806Y-114875941D01*
X168501444Y-114883112D01*
X168310571Y-114957056D01*
X168136539Y-115064813D01*
X168117247Y-115082400D01*
X167995310Y-115193561D01*
X167985267Y-115202716D01*
X167861910Y-115366066D01*
X167770672Y-115549297D01*
X167714654Y-115746180D01*
X167695767Y-115949999D01*
X167714654Y-116153819D01*
X167770672Y-116350702D01*
X167861910Y-116533933D01*
X167890750Y-116572123D01*
X167985268Y-116697285D01*
X168072037Y-116776386D01*
X168105464Y-116826163D01*
X168112098Y-116885754D01*
X168090438Y-116941665D01*
X168045389Y-116981233D01*
X167987151Y-116995500D01*
X167082849Y-116995500D01*
X167024611Y-116981233D01*
X166979562Y-116941665D01*
X166957902Y-116885754D01*
X166964536Y-116826163D01*
X166997962Y-116776386D01*
X167084732Y-116697285D01*
X167208088Y-116533935D01*
X167299328Y-116350701D01*
X167355345Y-116153821D01*
X167374232Y-115950000D01*
X167368469Y-115887813D01*
X167362464Y-115823000D01*
X167355345Y-115746179D01*
X167299328Y-115549299D01*
X167258457Y-115467219D01*
X167208089Y-115366066D01*
X167172248Y-115318605D01*
X167084732Y-115202715D01*
X166933462Y-115064814D01*
X166905370Y-115047420D01*
X166759429Y-114957056D01*
X166737082Y-114948399D01*
X166727288Y-114944605D01*
X166673467Y-114904625D01*
X166647773Y-114842699D01*
X166645466Y-114824192D01*
X166644500Y-114808618D01*
X166644500Y-114808556D01*
X166643521Y-114802690D01*
X166641040Y-114787824D01*
X166640302Y-114782768D01*
X166633752Y-114730217D01*
X166633750Y-114730212D01*
X166632755Y-114722230D01*
X166632730Y-114722150D01*
X166603728Y-114668557D01*
X166601360Y-114663958D01*
X166578126Y-114616432D01*
X166578124Y-114616430D01*
X166574590Y-114609200D01*
X166574545Y-114609140D01*
X166568619Y-114603685D01*
X166568619Y-114603684D01*
X166529713Y-114567868D01*
X166525957Y-114564263D01*
X163405418Y-111443724D01*
X163389030Y-111423544D01*
X163383067Y-111414417D01*
X163357855Y-111394793D01*
X163346153Y-111384458D01*
X163346117Y-111384422D01*
X163329032Y-111372223D01*
X163324863Y-111369114D01*
X163294234Y-111345276D01*
X163283119Y-111336625D01*
X163283117Y-111336624D01*
X163276767Y-111331682D01*
X163276692Y-111331643D01*
X163218311Y-111314262D01*
X163213353Y-111312673D01*
X163155722Y-111292888D01*
X163155630Y-111292875D01*
X163094786Y-111295392D01*
X163089579Y-111295500D01*
X147459384Y-111295500D01*
X147411166Y-111285909D01*
X147370289Y-111258595D01*
X147211675Y-111099981D01*
X147178898Y-111042874D01*
X147179404Y-110977031D01*
X147213053Y-110920433D01*
X147246886Y-110901698D01*
X147245246Y-110898573D01*
X147258793Y-110891463D01*
X147399529Y-110817599D01*
X147518498Y-110712201D01*
X147520761Y-110708921D01*
X147565901Y-110668932D01*
X147624456Y-110654500D01*
X147697574Y-110654500D01*
X147723431Y-110657181D01*
X147734100Y-110659419D01*
X147765796Y-110655468D01*
X147781382Y-110654500D01*
X147781440Y-110654500D01*
X147781443Y-110654500D01*
X147802194Y-110651036D01*
X147807243Y-110650300D01*
X147859783Y-110643752D01*
X147859788Y-110643749D01*
X147867782Y-110642753D01*
X147867842Y-110642734D01*
X147874926Y-110638900D01*
X147874927Y-110638900D01*
X147921411Y-110613742D01*
X147926043Y-110611359D01*
X147980807Y-110584587D01*
X147980854Y-110584552D01*
X148022130Y-110539714D01*
X148025713Y-110535979D01*
X150645287Y-107916405D01*
X150686165Y-107889091D01*
X150734383Y-107879500D01*
X150879469Y-107879500D01*
X150879471Y-107879500D01*
X151033793Y-107841463D01*
X151174529Y-107767599D01*
X151293498Y-107662201D01*
X151383787Y-107531395D01*
X151440149Y-107382782D01*
X151459307Y-107225000D01*
X151440149Y-107067218D01*
X151383787Y-106918605D01*
X151293498Y-106787799D01*
X151174529Y-106682401D01*
X151033793Y-106608537D01*
X150879471Y-106570500D01*
X150720529Y-106570500D01*
X150566207Y-106608537D01*
X150566206Y-106608537D01*
X150566204Y-106608538D01*
X150425472Y-106682400D01*
X150306501Y-106787799D01*
X150216212Y-106918605D01*
X150159850Y-107067219D01*
X150145244Y-107187515D01*
X150140693Y-107225000D01*
X150146574Y-107273437D01*
X150140599Y-107329725D01*
X150110587Y-107377717D01*
X147672364Y-109815941D01*
X147618325Y-109847871D01*
X147555585Y-109849767D01*
X147499716Y-109821159D01*
X147446947Y-109774410D01*
X147415601Y-109731809D01*
X147404500Y-109680097D01*
X147404500Y-108752426D01*
X147407182Y-108726568D01*
X147409419Y-108715899D01*
X147405468Y-108684204D01*
X147404500Y-108668618D01*
X147404500Y-108668556D01*
X147402408Y-108656021D01*
X147401040Y-108647824D01*
X147400302Y-108642768D01*
X147393752Y-108590217D01*
X147393750Y-108590212D01*
X147392755Y-108582230D01*
X147392730Y-108582150D01*
X147363734Y-108528568D01*
X147361351Y-108523939D01*
X147334592Y-108469203D01*
X147334545Y-108469140D01*
X147328619Y-108463685D01*
X147328619Y-108463684D01*
X147289713Y-108427868D01*
X147285957Y-108424263D01*
X145855418Y-106993724D01*
X145839030Y-106973544D01*
X145833067Y-106964417D01*
X145807855Y-106944793D01*
X145796153Y-106934458D01*
X145796117Y-106934422D01*
X145779032Y-106922223D01*
X145774863Y-106919114D01*
X145741555Y-106893191D01*
X145733119Y-106886625D01*
X145733117Y-106886624D01*
X145726767Y-106881682D01*
X145726692Y-106881643D01*
X145668311Y-106864262D01*
X145663353Y-106862673D01*
X145605722Y-106842888D01*
X145605630Y-106842875D01*
X145544786Y-106845392D01*
X145539579Y-106845500D01*
X141874456Y-106845500D01*
X141815901Y-106831068D01*
X141770761Y-106791078D01*
X141768498Y-106787799D01*
X141649529Y-106682401D01*
X141508793Y-106608537D01*
X141354471Y-106570500D01*
X141195529Y-106570500D01*
X141041207Y-106608537D01*
X141041206Y-106608537D01*
X141041204Y-106608538D01*
X140900472Y-106682400D01*
X140781501Y-106787799D01*
X140691212Y-106918605D01*
X140634850Y-107067219D01*
X140615693Y-107225000D01*
X140634850Y-107382780D01*
X140691212Y-107531394D01*
X140777524Y-107656439D01*
X140781502Y-107662201D01*
X140900471Y-107767599D01*
X141041207Y-107841463D01*
X141195529Y-107879500D01*
X141354469Y-107879500D01*
X141354471Y-107879500D01*
X141508793Y-107841463D01*
X141649529Y-107767599D01*
X141768498Y-107662201D01*
X141770761Y-107658921D01*
X141815901Y-107618932D01*
X141874456Y-107604500D01*
X143720907Y-107604500D01*
X143779462Y-107618933D01*
X143824603Y-107658924D01*
X143845988Y-107715312D01*
X143838719Y-107775180D01*
X143784850Y-107917219D01*
X143768405Y-108052662D01*
X143765693Y-108075000D01*
X143766884Y-108084813D01*
X143766923Y-108085128D01*
X143755677Y-108154331D01*
X143709185Y-108206810D01*
X143641842Y-108226316D01*
X143621029Y-108226316D01*
X143466707Y-108264353D01*
X143466706Y-108264353D01*
X143466704Y-108264354D01*
X143325972Y-108338216D01*
X143207001Y-108443615D01*
X143116712Y-108574421D01*
X143060350Y-108723034D01*
X143052926Y-108784187D01*
X143031541Y-108840576D01*
X142986400Y-108880567D01*
X142927845Y-108895000D01*
X142870529Y-108895000D01*
X142716207Y-108933037D01*
X142716206Y-108933037D01*
X142716204Y-108933038D01*
X142575472Y-109006900D01*
X142456500Y-109112300D01*
X142441686Y-109133762D01*
X142396545Y-109173751D01*
X142337991Y-109188183D01*
X142279438Y-109173751D01*
X142204823Y-109134590D01*
X142050501Y-109096553D01*
X141891559Y-109096553D01*
X141737237Y-109134590D01*
X141737236Y-109134590D01*
X141737234Y-109134591D01*
X141596502Y-109208453D01*
X141477531Y-109313852D01*
X141387242Y-109444658D01*
X141330880Y-109593272D01*
X141311723Y-109751052D01*
X141330880Y-109908833D01*
X141387242Y-110057447D01*
X141422361Y-110108325D01*
X141443746Y-110164713D01*
X141436477Y-110224580D01*
X141402219Y-110274213D01*
X141365187Y-110307020D01*
X141301102Y-110399864D01*
X141249118Y-110443187D01*
X141182218Y-110453369D01*
X141119699Y-110427473D01*
X141079594Y-110372968D01*
X141058787Y-110318105D01*
X140968498Y-110187299D01*
X140965442Y-110184592D01*
X140849529Y-110081901D01*
X140737895Y-110023311D01*
X140708795Y-110008038D01*
X140708794Y-110008037D01*
X140708793Y-110008037D01*
X140554471Y-109970000D01*
X140395529Y-109970000D01*
X140241207Y-110008037D01*
X140241206Y-110008037D01*
X140241204Y-110008038D01*
X140100472Y-110081900D01*
X140100470Y-110081901D01*
X140100471Y-110081901D01*
X140014051Y-110158462D01*
X139963601Y-110185723D01*
X139906292Y-110187802D01*
X139853998Y-110164266D01*
X139817550Y-110119991D01*
X139804500Y-110064149D01*
X139804500Y-107006871D01*
X139814091Y-106958653D01*
X139841405Y-106917776D01*
X140692776Y-106066405D01*
X140733653Y-106039091D01*
X140781871Y-106029500D01*
X153090616Y-106029500D01*
X153138834Y-106039091D01*
X153179711Y-106066405D01*
X156694581Y-109581275D01*
X156710966Y-109601450D01*
X156716932Y-109610582D01*
X156742141Y-109630203D01*
X156753842Y-109640537D01*
X156753882Y-109640577D01*
X156770977Y-109652782D01*
X156775141Y-109655887D01*
X156816881Y-109688375D01*
X156823224Y-109693312D01*
X156823311Y-109693357D01*
X156831017Y-109695651D01*
X156831020Y-109695653D01*
X156881708Y-109710743D01*
X156886624Y-109712318D01*
X156936673Y-109729500D01*
X156936674Y-109729500D01*
X156944282Y-109732112D01*
X156944368Y-109732124D01*
X156952407Y-109731791D01*
X156952409Y-109731792D01*
X157005212Y-109729608D01*
X157010420Y-109729500D01*
X195458970Y-109729500D01*
X195484827Y-109732181D01*
X195495496Y-109734419D01*
X195527192Y-109730468D01*
X195542778Y-109729500D01*
X195542836Y-109729500D01*
X195542839Y-109729500D01*
X195563590Y-109726036D01*
X195568639Y-109725300D01*
X195621179Y-109718752D01*
X195621184Y-109718749D01*
X195629178Y-109717753D01*
X195629238Y-109717734D01*
X195636322Y-109713900D01*
X195636323Y-109713900D01*
X195682807Y-109688742D01*
X195687439Y-109686359D01*
X195734964Y-109663126D01*
X195734964Y-109663125D01*
X195742203Y-109659587D01*
X195742250Y-109659552D01*
X195748483Y-109652782D01*
X195783526Y-109614713D01*
X195787109Y-109610979D01*
X197831684Y-107566405D01*
X197872562Y-107539091D01*
X197920780Y-107529500D01*
X203305595Y-107529500D01*
X203331452Y-107532181D01*
X203342121Y-107534419D01*
X203373817Y-107530468D01*
X203389403Y-107529500D01*
X203389461Y-107529500D01*
X203389464Y-107529500D01*
X203410215Y-107526036D01*
X203415264Y-107525300D01*
X203467804Y-107518752D01*
X203467809Y-107518749D01*
X203475803Y-107517753D01*
X203475863Y-107517734D01*
X203482947Y-107513900D01*
X203482948Y-107513900D01*
X203529432Y-107488742D01*
X203534064Y-107486359D01*
X203566505Y-107470500D01*
X203581589Y-107463126D01*
X203581589Y-107463125D01*
X203588828Y-107459587D01*
X203588875Y-107459552D01*
X203616125Y-107429951D01*
X203630151Y-107414713D01*
X203633734Y-107410979D01*
X206053309Y-104991405D01*
X206094187Y-104964091D01*
X206142405Y-104954500D01*
X206261426Y-104954500D01*
X206319981Y-104968933D01*
X206365122Y-105008924D01*
X206386507Y-105065312D01*
X206379238Y-105125180D01*
X206334850Y-105242219D01*
X206315693Y-105399997D01*
X206321574Y-105448437D01*
X206315599Y-105504725D01*
X206285587Y-105552717D01*
X204193724Y-107644580D01*
X204173550Y-107660964D01*
X204164419Y-107666930D01*
X204144792Y-107692146D01*
X204134463Y-107703842D01*
X204134418Y-107703886D01*
X204122212Y-107720981D01*
X204119105Y-107725148D01*
X204081691Y-107773218D01*
X204081639Y-107773321D01*
X204069073Y-107815526D01*
X204031867Y-107873881D01*
X203931502Y-107962798D01*
X203841212Y-108093605D01*
X203784850Y-108242219D01*
X203767952Y-108381394D01*
X203765693Y-108400000D01*
X203766638Y-108407780D01*
X203784850Y-108557780D01*
X203841212Y-108706394D01*
X203916500Y-108815468D01*
X203931502Y-108837201D01*
X204050471Y-108942599D01*
X204191207Y-109016463D01*
X204345529Y-109054500D01*
X204504469Y-109054500D01*
X204504471Y-109054500D01*
X204658793Y-109016463D01*
X204799529Y-108942599D01*
X204918498Y-108837201D01*
X205008787Y-108706395D01*
X205065149Y-108557782D01*
X205084307Y-108400000D01*
X205065149Y-108242218D01*
X205008787Y-108093605D01*
X204990561Y-108067200D01*
X204969507Y-108013329D01*
X204974741Y-107955725D01*
X205005160Y-107906532D01*
X206188406Y-106723286D01*
X206241829Y-106691537D01*
X206303932Y-106689187D01*
X206359605Y-106716808D01*
X206380081Y-106745988D01*
X206382522Y-106744304D01*
X206481501Y-106887700D01*
X206553054Y-106951091D01*
X206584400Y-106993691D01*
X206595500Y-107045403D01*
X206595500Y-107780097D01*
X206584400Y-107831809D01*
X206553054Y-107874409D01*
X206481501Y-107937799D01*
X206391212Y-108068605D01*
X206334850Y-108217219D01*
X206315693Y-108375000D01*
X206334850Y-108532780D01*
X206391212Y-108681394D01*
X206481304Y-108811915D01*
X206481502Y-108812201D01*
X206600471Y-108917599D01*
X206741207Y-108991463D01*
X206895529Y-109029500D01*
X207054469Y-109029500D01*
X207054471Y-109029500D01*
X207208793Y-108991463D01*
X207349529Y-108917599D01*
X207468498Y-108812201D01*
X207558787Y-108681395D01*
X207615149Y-108532782D01*
X207634307Y-108375000D01*
X207615149Y-108217218D01*
X207558787Y-108068605D01*
X207468498Y-107937799D01*
X207413518Y-107889091D01*
X207396946Y-107874409D01*
X207365600Y-107831809D01*
X207354500Y-107780097D01*
X207354500Y-107045403D01*
X207365600Y-106993691D01*
X207396946Y-106951091D01*
X207409472Y-106939994D01*
X207468498Y-106887701D01*
X207558787Y-106756895D01*
X207615149Y-106608282D01*
X207634307Y-106450500D01*
X207615149Y-106292718D01*
X207558787Y-106144105D01*
X207468498Y-106013299D01*
X207468497Y-106013298D01*
X207459807Y-106000708D01*
X207462478Y-105998863D01*
X207438096Y-105960306D01*
X207438096Y-105890194D01*
X207462478Y-105851636D01*
X207459807Y-105849792D01*
X207471811Y-105832401D01*
X207558787Y-105706395D01*
X207615149Y-105557782D01*
X207634307Y-105400000D01*
X207615149Y-105242218D01*
X207570762Y-105125180D01*
X207563493Y-105065312D01*
X207584878Y-105008924D01*
X207630019Y-104968933D01*
X207688574Y-104954500D01*
X209125544Y-104954500D01*
X209184099Y-104968932D01*
X209229238Y-105008921D01*
X209231502Y-105012201D01*
X209231503Y-105012202D01*
X209303054Y-105075591D01*
X209334400Y-105118191D01*
X209345500Y-105169903D01*
X209345500Y-107415614D01*
X209335908Y-107463834D01*
X209308592Y-107504712D01*
X209293719Y-107519584D01*
X209273549Y-107535965D01*
X209264418Y-107541931D01*
X209244792Y-107567146D01*
X209234463Y-107578842D01*
X209234418Y-107578886D01*
X209222212Y-107595981D01*
X209219105Y-107600148D01*
X209181691Y-107648218D01*
X209181638Y-107648322D01*
X209164259Y-107706695D01*
X209162672Y-107711650D01*
X209142888Y-107769281D01*
X209142874Y-107769372D01*
X209143184Y-107776848D01*
X209133235Y-107831379D01*
X209100847Y-107876363D01*
X209031502Y-107937798D01*
X208941212Y-108068605D01*
X208884850Y-108217219D01*
X208865693Y-108375000D01*
X208884850Y-108532780D01*
X208941212Y-108681394D01*
X209031304Y-108811915D01*
X209031502Y-108812201D01*
X209150471Y-108917599D01*
X209291207Y-108991463D01*
X209445529Y-109029500D01*
X209604469Y-109029500D01*
X209604471Y-109029500D01*
X209758793Y-108991463D01*
X209899529Y-108917599D01*
X210018498Y-108812201D01*
X210108787Y-108681395D01*
X210165149Y-108532782D01*
X210184307Y-108375000D01*
X210165149Y-108217218D01*
X210108787Y-108068605D01*
X210044640Y-107975673D01*
X210024425Y-107926941D01*
X210025935Y-107874202D01*
X210048903Y-107826711D01*
X210063375Y-107808119D01*
X210063376Y-107808116D01*
X210068328Y-107801754D01*
X210068351Y-107801709D01*
X210070651Y-107793981D01*
X210070653Y-107793979D01*
X210085750Y-107743265D01*
X210087305Y-107738409D01*
X210104500Y-107688327D01*
X210104500Y-107688325D01*
X210107112Y-107680717D01*
X210107124Y-107680630D01*
X210106675Y-107669775D01*
X210104608Y-107619775D01*
X210104500Y-107614569D01*
X210104500Y-105169903D01*
X210115600Y-105118191D01*
X210146946Y-105075591D01*
X210175165Y-105050591D01*
X210218498Y-105012201D01*
X210308787Y-104881395D01*
X210365149Y-104732782D01*
X210384307Y-104575000D01*
X210365149Y-104417218D01*
X210308787Y-104268605D01*
X210218498Y-104137799D01*
X210099529Y-104032401D01*
X209958793Y-103958537D01*
X209804471Y-103920500D01*
X209645529Y-103920500D01*
X209491207Y-103958537D01*
X209491206Y-103958537D01*
X209491204Y-103958538D01*
X209350472Y-104032400D01*
X209259112Y-104113338D01*
X209231502Y-104137799D01*
X209229238Y-104141078D01*
X209184099Y-104181068D01*
X209125544Y-104195500D01*
X205985447Y-104195500D01*
X205959589Y-104192818D01*
X205948920Y-104190580D01*
X205917225Y-104194532D01*
X205901639Y-104195500D01*
X205901575Y-104195500D01*
X205880865Y-104198955D01*
X205875719Y-104199705D01*
X205815271Y-104207241D01*
X205815151Y-104207279D01*
X205761588Y-104236265D01*
X205756963Y-104238646D01*
X205702243Y-104265398D01*
X205702147Y-104265469D01*
X205660889Y-104310285D01*
X205657286Y-104314039D01*
X203917705Y-106053620D01*
X203871506Y-106082998D01*
X203817207Y-106090008D01*
X203765061Y-106073326D01*
X203724914Y-106036101D01*
X203724544Y-106035566D01*
X203724544Y-106035564D01*
X203634255Y-105904758D01*
X203536081Y-105817783D01*
X203501824Y-105768152D01*
X203494555Y-105708284D01*
X203515941Y-105651895D01*
X203561078Y-105611907D01*
X203620739Y-105580595D01*
X203739708Y-105475197D01*
X203829997Y-105344391D01*
X203886359Y-105195778D01*
X203905517Y-105037996D01*
X203886359Y-104880214D01*
X203829997Y-104731601D01*
X203739708Y-104600795D01*
X203620739Y-104495397D01*
X203480003Y-104421533D01*
X203325681Y-104383496D01*
X203180594Y-104383496D01*
X203132376Y-104373905D01*
X203091499Y-104346591D01*
X202338632Y-103593724D01*
X202322244Y-103573544D01*
X202316281Y-103564417D01*
X202291069Y-103544793D01*
X202279367Y-103534458D01*
X202279331Y-103534422D01*
X202262246Y-103522223D01*
X202258077Y-103519114D01*
X202232810Y-103499449D01*
X202216333Y-103486625D01*
X202216331Y-103486624D01*
X202209981Y-103481682D01*
X202209906Y-103481643D01*
X202151525Y-103464262D01*
X202146567Y-103462673D01*
X202088936Y-103442888D01*
X202088844Y-103442875D01*
X202028000Y-103445392D01*
X202022793Y-103445500D01*
X200308988Y-103445500D01*
X200251785Y-103431767D01*
X200207052Y-103393561D01*
X200184539Y-103339211D01*
X200189155Y-103280564D01*
X200219893Y-103230405D01*
X200558893Y-102891405D01*
X200599770Y-102864091D01*
X200647988Y-102854500D01*
X210515616Y-102854500D01*
X210563834Y-102864091D01*
G37*
%TD.AperFunction*%
%TA.AperFunction,Conductor*%
G36*
X164269436Y-113400551D02*
G01*
X164319595Y-113431289D01*
X165704281Y-114815975D01*
X165734184Y-114863651D01*
X165740347Y-114919590D01*
X165721540Y-114972633D01*
X165681517Y-115012197D01*
X165596539Y-115064813D01*
X165577247Y-115082400D01*
X165455310Y-115193561D01*
X165445267Y-115202716D01*
X165321910Y-115366066D01*
X165230672Y-115549297D01*
X165174654Y-115746180D01*
X165155767Y-115949999D01*
X165174654Y-116153819D01*
X165230672Y-116350702D01*
X165321910Y-116533933D01*
X165350750Y-116572123D01*
X165445268Y-116697285D01*
X165532037Y-116776386D01*
X165565464Y-116826163D01*
X165572098Y-116885754D01*
X165550438Y-116941665D01*
X165505389Y-116981233D01*
X165447151Y-116995500D01*
X164542849Y-116995500D01*
X164484611Y-116981233D01*
X164439562Y-116941665D01*
X164417902Y-116885754D01*
X164424536Y-116826163D01*
X164457962Y-116776386D01*
X164544732Y-116697285D01*
X164668088Y-116533935D01*
X164759328Y-116350701D01*
X164815345Y-116153821D01*
X164834232Y-115950000D01*
X164828469Y-115887813D01*
X164822464Y-115823000D01*
X164815345Y-115746179D01*
X164759328Y-115549299D01*
X164718457Y-115467219D01*
X164668089Y-115366066D01*
X164632248Y-115318605D01*
X164544732Y-115202715D01*
X164393462Y-115064814D01*
X164365370Y-115047420D01*
X164219429Y-114957056D01*
X164190560Y-114945873D01*
X164184982Y-114943712D01*
X164142787Y-114916678D01*
X164114466Y-114875334D01*
X164104500Y-114826221D01*
X164104500Y-113520384D01*
X164118233Y-113463181D01*
X164156439Y-113418448D01*
X164210789Y-113395935D01*
X164269436Y-113400551D01*
G37*
%TD.AperFunction*%
%TA.AperFunction,Conductor*%
G36*
X162752438Y-112514091D02*
G01*
X162793315Y-112541405D01*
X163308595Y-113056685D01*
X163335909Y-113097562D01*
X163345500Y-113145780D01*
X163345500Y-114826221D01*
X163335534Y-114875334D01*
X163307213Y-114916678D01*
X163265017Y-114943712D01*
X163259440Y-114945873D01*
X163230570Y-114957056D01*
X163056539Y-115064813D01*
X163037247Y-115082400D01*
X162915310Y-115193561D01*
X162905267Y-115202716D01*
X162781910Y-115366066D01*
X162690672Y-115549297D01*
X162634654Y-115746180D01*
X162615767Y-115949999D01*
X162634654Y-116153819D01*
X162690672Y-116350702D01*
X162781910Y-116533933D01*
X162810750Y-116572123D01*
X162905268Y-116697285D01*
X162992037Y-116776386D01*
X163025464Y-116826163D01*
X163032098Y-116885754D01*
X163010438Y-116941665D01*
X162965389Y-116981233D01*
X162907151Y-116995500D01*
X162002849Y-116995500D01*
X161944611Y-116981233D01*
X161899562Y-116941665D01*
X161877902Y-116885754D01*
X161884536Y-116826163D01*
X161917962Y-116776386D01*
X162004732Y-116697285D01*
X162128088Y-116533935D01*
X162219328Y-116350701D01*
X162275345Y-116153821D01*
X162294232Y-115950000D01*
X162288469Y-115887813D01*
X162282464Y-115823000D01*
X162275345Y-115746179D01*
X162219328Y-115549299D01*
X162178457Y-115467219D01*
X162128089Y-115366066D01*
X162092248Y-115318605D01*
X162004732Y-115202715D01*
X161853462Y-115064814D01*
X161811979Y-115039128D01*
X161679425Y-114957054D01*
X161647943Y-114944858D01*
X161594122Y-114904878D01*
X161568428Y-114842954D01*
X161565466Y-114819190D01*
X161564500Y-114803618D01*
X161564500Y-114803558D01*
X161564044Y-114800827D01*
X161561040Y-114782823D01*
X161560294Y-114777700D01*
X161559921Y-114774711D01*
X161553752Y-114725218D01*
X161553751Y-114725217D01*
X161552756Y-114717228D01*
X161552732Y-114717155D01*
X161548900Y-114710074D01*
X161548900Y-114710073D01*
X161525060Y-114666021D01*
X161523746Y-114663593D01*
X161521362Y-114658961D01*
X161494593Y-114604204D01*
X161494545Y-114604140D01*
X161488619Y-114598685D01*
X161488619Y-114598684D01*
X161449713Y-114562868D01*
X161445957Y-114559263D01*
X159606289Y-112719595D01*
X159575551Y-112669436D01*
X159570935Y-112610789D01*
X159593448Y-112556439D01*
X159638181Y-112518233D01*
X159695384Y-112504500D01*
X162704220Y-112504500D01*
X162752438Y-112514091D01*
G37*
%TD.AperFunction*%
%TA.AperFunction,Conductor*%
G36*
X158763834Y-112964091D02*
G01*
X158804711Y-112991405D01*
X160627369Y-114814063D01*
X160657272Y-114861739D01*
X160663435Y-114917678D01*
X160644628Y-114970721D01*
X160604605Y-115010285D01*
X160516539Y-115064813D01*
X160497247Y-115082400D01*
X160375310Y-115193561D01*
X160365267Y-115202716D01*
X160241910Y-115366066D01*
X160150672Y-115549297D01*
X160094654Y-115746180D01*
X160075767Y-115949999D01*
X160094654Y-116153819D01*
X160150672Y-116350702D01*
X160241910Y-116533933D01*
X160270750Y-116572123D01*
X160365268Y-116697285D01*
X160452037Y-116776386D01*
X160485464Y-116826163D01*
X160492098Y-116885754D01*
X160470438Y-116941665D01*
X160425389Y-116981233D01*
X160367151Y-116995500D01*
X159462849Y-116995500D01*
X159404611Y-116981233D01*
X159359562Y-116941665D01*
X159337902Y-116885754D01*
X159344536Y-116826163D01*
X159377962Y-116776386D01*
X159464732Y-116697285D01*
X159588088Y-116533935D01*
X159679328Y-116350701D01*
X159735345Y-116153821D01*
X159754232Y-115950000D01*
X159748469Y-115887813D01*
X159742464Y-115823000D01*
X159735345Y-115746179D01*
X159679328Y-115549299D01*
X159638457Y-115467219D01*
X159588089Y-115366066D01*
X159552248Y-115318605D01*
X159464732Y-115202715D01*
X159313462Y-115064814D01*
X159225395Y-115010285D01*
X159139428Y-114957056D01*
X159110560Y-114945873D01*
X159104645Y-114943581D01*
X159052450Y-114905641D01*
X159025882Y-114846836D01*
X159024186Y-114836673D01*
X159021038Y-114817817D01*
X159020302Y-114812768D01*
X159013752Y-114760217D01*
X159013750Y-114760212D01*
X159012755Y-114752230D01*
X159012731Y-114752154D01*
X159008900Y-114745075D01*
X159008900Y-114745073D01*
X158988258Y-114706930D01*
X158983731Y-114698564D01*
X158981349Y-114693935D01*
X158954592Y-114639202D01*
X158954545Y-114639140D01*
X158948619Y-114633685D01*
X158948619Y-114633684D01*
X158915190Y-114602910D01*
X158909713Y-114597868D01*
X158905957Y-114594263D01*
X157481289Y-113169595D01*
X157450551Y-113119436D01*
X157445935Y-113060789D01*
X157468448Y-113006439D01*
X157513181Y-112968233D01*
X157570384Y-112954500D01*
X158715616Y-112954500D01*
X158763834Y-112964091D01*
G37*
%TD.AperFunction*%
%TA.AperFunction,Conductor*%
G36*
X156638834Y-113414091D02*
G01*
X156679711Y-113441405D01*
X158065753Y-114827447D01*
X158095656Y-114875123D01*
X158101819Y-114931062D01*
X158083012Y-114984105D01*
X158042989Y-115023669D01*
X157976539Y-115064813D01*
X157957247Y-115082400D01*
X157835310Y-115193561D01*
X157825267Y-115202716D01*
X157701910Y-115366066D01*
X157610672Y-115549297D01*
X157554654Y-115746180D01*
X157535767Y-115949999D01*
X157554654Y-116153819D01*
X157610672Y-116350702D01*
X157701910Y-116533933D01*
X157730750Y-116572123D01*
X157825268Y-116697285D01*
X157912037Y-116776386D01*
X157945464Y-116826163D01*
X157952098Y-116885754D01*
X157930438Y-116941665D01*
X157885389Y-116981233D01*
X157827151Y-116995500D01*
X156922849Y-116995500D01*
X156864611Y-116981233D01*
X156819562Y-116941665D01*
X156797902Y-116885754D01*
X156804536Y-116826163D01*
X156837962Y-116776386D01*
X156924732Y-116697285D01*
X157048088Y-116533935D01*
X157139328Y-116350701D01*
X157195345Y-116153821D01*
X157214232Y-115950000D01*
X157208469Y-115887813D01*
X157202464Y-115823000D01*
X157195345Y-115746179D01*
X157139328Y-115549299D01*
X157098457Y-115467219D01*
X157048089Y-115366066D01*
X157012248Y-115318605D01*
X156924732Y-115202715D01*
X156773462Y-115064814D01*
X156685395Y-115010285D01*
X156599428Y-114957056D01*
X156571035Y-114946057D01*
X156522811Y-114912760D01*
X156494865Y-114861252D01*
X156494316Y-114841478D01*
X156492020Y-114841765D01*
X156485468Y-114789204D01*
X156484500Y-114773618D01*
X156484500Y-114773556D01*
X156483024Y-114764711D01*
X156481040Y-114752824D01*
X156480302Y-114747768D01*
X156473752Y-114695217D01*
X156473750Y-114695212D01*
X156472755Y-114687230D01*
X156472730Y-114687150D01*
X156443734Y-114633568D01*
X156441351Y-114628939D01*
X156414592Y-114574203D01*
X156414545Y-114574140D01*
X156408619Y-114568685D01*
X156408619Y-114568684D01*
X156369713Y-114532868D01*
X156365957Y-114529263D01*
X155456289Y-113619595D01*
X155425551Y-113569436D01*
X155420935Y-113510789D01*
X155443448Y-113456439D01*
X155488181Y-113418233D01*
X155545384Y-113404500D01*
X156590616Y-113404500D01*
X156638834Y-113414091D01*
G37*
%TD.AperFunction*%
%TA.AperFunction,Conductor*%
G36*
X154613834Y-113864091D02*
G01*
X154654711Y-113891405D01*
X155565897Y-114802591D01*
X155595800Y-114850267D01*
X155601963Y-114906207D01*
X155583156Y-114959249D01*
X155543133Y-114998813D01*
X155436539Y-115064813D01*
X155417247Y-115082400D01*
X155295310Y-115193561D01*
X155285267Y-115202716D01*
X155161910Y-115366066D01*
X155070672Y-115549297D01*
X155014654Y-115746180D01*
X154995767Y-115949999D01*
X155014654Y-116153819D01*
X155070672Y-116350702D01*
X155161910Y-116533933D01*
X155190750Y-116572123D01*
X155285268Y-116697285D01*
X155372037Y-116776386D01*
X155405464Y-116826163D01*
X155412098Y-116885754D01*
X155390438Y-116941665D01*
X155345389Y-116981233D01*
X155287151Y-116995500D01*
X154382849Y-116995500D01*
X154324611Y-116981233D01*
X154279562Y-116941665D01*
X154257902Y-116885754D01*
X154264536Y-116826163D01*
X154297962Y-116776386D01*
X154384732Y-116697285D01*
X154508088Y-116533935D01*
X154599328Y-116350701D01*
X154655345Y-116153821D01*
X154674232Y-115950000D01*
X154668469Y-115887813D01*
X154662464Y-115823000D01*
X154655345Y-115746179D01*
X154599328Y-115549299D01*
X154558457Y-115467219D01*
X154508089Y-115366066D01*
X154472248Y-115318605D01*
X154384732Y-115202715D01*
X154233462Y-115064814D01*
X154191979Y-115039128D01*
X154059425Y-114957054D01*
X154030563Y-114945873D01*
X153976742Y-114905893D01*
X153951048Y-114843968D01*
X153945468Y-114799204D01*
X153944500Y-114783618D01*
X153944500Y-114783556D01*
X153943717Y-114778867D01*
X153941040Y-114762824D01*
X153940302Y-114757768D01*
X153933752Y-114705217D01*
X153933750Y-114705212D01*
X153932755Y-114697230D01*
X153932730Y-114697150D01*
X153903734Y-114643568D01*
X153901351Y-114638939D01*
X153874592Y-114584203D01*
X153874545Y-114584140D01*
X153868619Y-114578685D01*
X153868619Y-114578684D01*
X153829713Y-114542868D01*
X153825957Y-114539263D01*
X153356289Y-114069595D01*
X153325551Y-114019436D01*
X153320935Y-113960789D01*
X153343448Y-113906439D01*
X153388181Y-113868233D01*
X153445384Y-113854500D01*
X154565616Y-113854500D01*
X154613834Y-113864091D01*
G37*
%TD.AperFunction*%
%TA.AperFunction,Conductor*%
G36*
X139963601Y-111063277D02*
G01*
X140014051Y-111090537D01*
X140100471Y-111167099D01*
X140241207Y-111240963D01*
X140395529Y-111279000D01*
X140395531Y-111279000D01*
X140540116Y-111279000D01*
X140588334Y-111288591D01*
X140629211Y-111315905D01*
X141119581Y-111806275D01*
X141135966Y-111826450D01*
X141141932Y-111835582D01*
X141167141Y-111855203D01*
X141178842Y-111865537D01*
X141178881Y-111865576D01*
X141178884Y-111865578D01*
X141178887Y-111865581D01*
X141195999Y-111877799D01*
X141200142Y-111880889D01*
X141248234Y-111918320D01*
X141248296Y-111918352D01*
X141256017Y-111920650D01*
X141256021Y-111920653D01*
X141306743Y-111935752D01*
X141311607Y-111937311D01*
X141361673Y-111954500D01*
X141361675Y-111954500D01*
X141369280Y-111957111D01*
X141369369Y-111957124D01*
X141377408Y-111956791D01*
X141377410Y-111956792D01*
X141430213Y-111954608D01*
X141435421Y-111954500D01*
X143629220Y-111954500D01*
X143677438Y-111964091D01*
X143718315Y-111991405D01*
X145883185Y-114156275D01*
X145899570Y-114176450D01*
X145905536Y-114185582D01*
X145930745Y-114205203D01*
X145942446Y-114215537D01*
X145942485Y-114215576D01*
X145942488Y-114215578D01*
X145942491Y-114215581D01*
X145959603Y-114227799D01*
X145963746Y-114230889D01*
X146011838Y-114268320D01*
X146011900Y-114268352D01*
X146019621Y-114270650D01*
X146019625Y-114270653D01*
X146070347Y-114285752D01*
X146075211Y-114287311D01*
X146125277Y-114304500D01*
X146125279Y-114304500D01*
X146132884Y-114307111D01*
X146132973Y-114307124D01*
X146141012Y-114306791D01*
X146141014Y-114306792D01*
X146193817Y-114304608D01*
X146199025Y-114304500D01*
X152465615Y-114304500D01*
X152513833Y-114314091D01*
X152554711Y-114341405D01*
X153019720Y-114806415D01*
X153049622Y-114854091D01*
X153055785Y-114910030D01*
X153036979Y-114963073D01*
X152996956Y-115002637D01*
X152896537Y-115064814D01*
X152745267Y-115202716D01*
X152621910Y-115366066D01*
X152530672Y-115549297D01*
X152474654Y-115746180D01*
X152455767Y-115949999D01*
X152474654Y-116153819D01*
X152530672Y-116350702D01*
X152621910Y-116533933D01*
X152650750Y-116572123D01*
X152745268Y-116697285D01*
X152832037Y-116776386D01*
X152865464Y-116826163D01*
X152872098Y-116885754D01*
X152850438Y-116941665D01*
X152805389Y-116981233D01*
X152747151Y-116995500D01*
X151842849Y-116995500D01*
X151784611Y-116981233D01*
X151739562Y-116941665D01*
X151717902Y-116885754D01*
X151724536Y-116826163D01*
X151757962Y-116776386D01*
X151844732Y-116697285D01*
X151968088Y-116533935D01*
X152059328Y-116350701D01*
X152115345Y-116153821D01*
X152134232Y-115950000D01*
X152128469Y-115887813D01*
X152122464Y-115823000D01*
X152115345Y-115746179D01*
X152059328Y-115549299D01*
X152018457Y-115467219D01*
X151968089Y-115366066D01*
X151932248Y-115318605D01*
X151844732Y-115202715D01*
X151693462Y-115064814D01*
X151605395Y-115010285D01*
X151519428Y-114957056D01*
X151412631Y-114915683D01*
X151328556Y-114883112D01*
X151127347Y-114845500D01*
X150922653Y-114845500D01*
X150759806Y-114875941D01*
X150721444Y-114883112D01*
X150530571Y-114957056D01*
X150356539Y-115064813D01*
X150337247Y-115082400D01*
X150215310Y-115193561D01*
X150205267Y-115202716D01*
X150081910Y-115366066D01*
X149990672Y-115549297D01*
X149934654Y-115746180D01*
X149915767Y-115949999D01*
X149934654Y-116153819D01*
X149990672Y-116350702D01*
X150081910Y-116533933D01*
X150110750Y-116572123D01*
X150205268Y-116697285D01*
X150292037Y-116776386D01*
X150325464Y-116826163D01*
X150332098Y-116885754D01*
X150310438Y-116941665D01*
X150265389Y-116981233D01*
X150207151Y-116995500D01*
X143842849Y-116995500D01*
X143784611Y-116981233D01*
X143739562Y-116941665D01*
X143717902Y-116885754D01*
X143724536Y-116826163D01*
X143757962Y-116776386D01*
X143844732Y-116697285D01*
X143968088Y-116533935D01*
X144059328Y-116350701D01*
X144115345Y-116153821D01*
X144134232Y-115950000D01*
X144128469Y-115887813D01*
X144122464Y-115823000D01*
X144115345Y-115746179D01*
X144059328Y-115549299D01*
X144018457Y-115467219D01*
X143968089Y-115366066D01*
X143932248Y-115318605D01*
X143844732Y-115202715D01*
X143693462Y-115064814D01*
X143605395Y-115010285D01*
X143519428Y-114957056D01*
X143412631Y-114915683D01*
X143328556Y-114883112D01*
X143127347Y-114845500D01*
X142922653Y-114845500D01*
X142759806Y-114875941D01*
X142721444Y-114883112D01*
X142530571Y-114957056D01*
X142356539Y-115064813D01*
X142337247Y-115082400D01*
X142215310Y-115193561D01*
X142205267Y-115202716D01*
X142081910Y-115366066D01*
X141990672Y-115549297D01*
X141934654Y-115746180D01*
X141915767Y-115949999D01*
X141934654Y-116153819D01*
X141990672Y-116350702D01*
X142081910Y-116533933D01*
X142110750Y-116572123D01*
X142205268Y-116697285D01*
X142292037Y-116776386D01*
X142325464Y-116826163D01*
X142332098Y-116885754D01*
X142310438Y-116941665D01*
X142265389Y-116981233D01*
X142207151Y-116995500D01*
X141302849Y-116995500D01*
X141244611Y-116981233D01*
X141199562Y-116941665D01*
X141177902Y-116885754D01*
X141184536Y-116826163D01*
X141217962Y-116776386D01*
X141304732Y-116697285D01*
X141428088Y-116533935D01*
X141519328Y-116350701D01*
X141575345Y-116153821D01*
X141594232Y-115950000D01*
X141588469Y-115887813D01*
X141582464Y-115823000D01*
X141575345Y-115746179D01*
X141519328Y-115549299D01*
X141478457Y-115467219D01*
X141428089Y-115366066D01*
X141392248Y-115318605D01*
X141304732Y-115202715D01*
X141153462Y-115064814D01*
X141125370Y-115047420D01*
X140979429Y-114957056D01*
X140950560Y-114945873D01*
X140944982Y-114943712D01*
X140902787Y-114916678D01*
X140874466Y-114875334D01*
X140867035Y-114838718D01*
X140866218Y-114838855D01*
X140864314Y-114827447D01*
X140861040Y-114807826D01*
X140860292Y-114802682D01*
X140852757Y-114742235D01*
X140852730Y-114742150D01*
X140823734Y-114688568D01*
X140821351Y-114683939D01*
X140794592Y-114629203D01*
X140794545Y-114629140D01*
X140788619Y-114623685D01*
X140788619Y-114623684D01*
X140753215Y-114591092D01*
X140749713Y-114587868D01*
X140745957Y-114584263D01*
X139841405Y-113679711D01*
X139814091Y-113638834D01*
X139804500Y-113590616D01*
X139804500Y-111184851D01*
X139817550Y-111129009D01*
X139853998Y-111084734D01*
X139906292Y-111061198D01*
X139963601Y-111063277D01*
G37*
%TD.AperFunction*%
%TA.AperFunction,Conductor*%
G36*
X176863834Y-103764091D02*
G01*
X176904711Y-103791405D01*
X177582880Y-104469574D01*
X177612892Y-104517565D01*
X177618867Y-104573852D01*
X177615692Y-104600000D01*
X177634850Y-104757780D01*
X177691212Y-104906394D01*
X177767147Y-105016405D01*
X177781502Y-105037201D01*
X177900471Y-105142599D01*
X178041207Y-105216463D01*
X178195529Y-105254500D01*
X178195531Y-105254500D01*
X178340616Y-105254500D01*
X178388834Y-105264091D01*
X178429711Y-105291405D01*
X181443711Y-108305405D01*
X181474449Y-108355564D01*
X181479065Y-108414211D01*
X181456552Y-108468561D01*
X181411819Y-108506767D01*
X181354616Y-108520500D01*
X157395780Y-108520500D01*
X157347562Y-108510909D01*
X157306685Y-108483595D01*
X153791814Y-104968724D01*
X153775426Y-104948544D01*
X153769463Y-104939417D01*
X153744251Y-104919793D01*
X153732549Y-104909458D01*
X153732513Y-104909422D01*
X153715428Y-104897223D01*
X153711259Y-104894114D01*
X153686377Y-104874749D01*
X153669515Y-104861625D01*
X153669513Y-104861624D01*
X153663163Y-104856682D01*
X153663088Y-104856643D01*
X153604707Y-104839262D01*
X153599749Y-104837673D01*
X153542118Y-104817888D01*
X153542026Y-104817875D01*
X153481182Y-104820392D01*
X153475975Y-104820500D01*
X140438517Y-104820500D01*
X140412659Y-104817818D01*
X140401990Y-104815580D01*
X140370295Y-104819532D01*
X140354709Y-104820500D01*
X140354645Y-104820500D01*
X140333935Y-104823955D01*
X140328789Y-104824705D01*
X140268341Y-104832241D01*
X140268221Y-104832279D01*
X140214658Y-104861265D01*
X140210033Y-104863646D01*
X140155313Y-104890398D01*
X140155217Y-104890469D01*
X140113959Y-104935285D01*
X140110356Y-104939039D01*
X138743724Y-106305671D01*
X138723550Y-106322055D01*
X138714419Y-106328021D01*
X138694792Y-106353237D01*
X138684463Y-106364933D01*
X138684418Y-106364977D01*
X138672212Y-106382072D01*
X138669105Y-106386239D01*
X138631691Y-106434309D01*
X138631638Y-106434413D01*
X138614259Y-106492786D01*
X138612672Y-106497741D01*
X138592888Y-106555372D01*
X138592875Y-106555460D01*
X138595392Y-106616305D01*
X138595500Y-106621512D01*
X138595500Y-113590615D01*
X138585909Y-113638833D01*
X138558595Y-113679711D01*
X137713721Y-114524583D01*
X137693547Y-114540966D01*
X137684419Y-114546930D01*
X137664792Y-114572146D01*
X137654463Y-114583842D01*
X137654418Y-114583886D01*
X137642212Y-114600981D01*
X137639105Y-114605148D01*
X137601691Y-114653218D01*
X137601638Y-114653322D01*
X137584259Y-114711695D01*
X137582672Y-114716650D01*
X137562888Y-114774281D01*
X137562875Y-114774371D01*
X137564813Y-114821239D01*
X137556264Y-114872341D01*
X137527873Y-114915683D01*
X137484440Y-114943935D01*
X137450571Y-114957056D01*
X137276539Y-115064813D01*
X137257247Y-115082400D01*
X137135310Y-115193561D01*
X137125267Y-115202716D01*
X137001910Y-115366066D01*
X136910672Y-115549297D01*
X136854654Y-115746180D01*
X136835767Y-115949999D01*
X136854654Y-116153819D01*
X136910672Y-116350702D01*
X137001910Y-116533933D01*
X137030750Y-116572123D01*
X137125268Y-116697285D01*
X137212037Y-116776386D01*
X137245464Y-116826163D01*
X137252098Y-116885754D01*
X137230438Y-116941665D01*
X137185389Y-116981233D01*
X137127151Y-116995500D01*
X136222849Y-116995500D01*
X136164611Y-116981233D01*
X136119562Y-116941665D01*
X136097902Y-116885754D01*
X136104536Y-116826163D01*
X136137962Y-116776386D01*
X136224732Y-116697285D01*
X136348088Y-116533935D01*
X136439328Y-116350701D01*
X136495345Y-116153821D01*
X136514232Y-115950000D01*
X136508469Y-115887813D01*
X136502464Y-115823000D01*
X136495345Y-115746179D01*
X136439328Y-115549299D01*
X136398457Y-115467219D01*
X136348089Y-115366066D01*
X136312248Y-115318605D01*
X136224732Y-115202715D01*
X136073462Y-115064814D01*
X136045370Y-115047420D01*
X135899429Y-114957056D01*
X135870560Y-114945873D01*
X135866186Y-114944178D01*
X135817971Y-114910891D01*
X135790022Y-114859395D01*
X135788385Y-114800830D01*
X135789419Y-114795900D01*
X135785468Y-114764204D01*
X135784500Y-114748618D01*
X135784500Y-114748556D01*
X135783572Y-114742996D01*
X135781040Y-114727824D01*
X135780302Y-114722768D01*
X135773752Y-114670217D01*
X135773750Y-114670212D01*
X135772755Y-114662230D01*
X135772730Y-114662150D01*
X135743736Y-114608572D01*
X135741353Y-114603943D01*
X135714592Y-114549203D01*
X135714545Y-114549140D01*
X135708619Y-114543685D01*
X135708619Y-114543684D01*
X135669713Y-114507868D01*
X135665957Y-114504263D01*
X134791405Y-113629711D01*
X134764091Y-113588834D01*
X134754500Y-113540616D01*
X134754500Y-109220780D01*
X134764091Y-109172562D01*
X134791405Y-109131685D01*
X140131685Y-103791405D01*
X140172562Y-103764091D01*
X140220780Y-103754500D01*
X176815616Y-103754500D01*
X176863834Y-103764091D01*
G37*
%TD.AperFunction*%
%TA.AperFunction,Conductor*%
G36*
X134361818Y-107618233D02*
G01*
X134406551Y-107656439D01*
X134429064Y-107710789D01*
X134424448Y-107769436D01*
X134393710Y-107819596D01*
X133693721Y-108519583D01*
X133673547Y-108535966D01*
X133664419Y-108541930D01*
X133644792Y-108567146D01*
X133634463Y-108578842D01*
X133634418Y-108578886D01*
X133622212Y-108595981D01*
X133619105Y-108600148D01*
X133581691Y-108648218D01*
X133581638Y-108648322D01*
X133564259Y-108706695D01*
X133562672Y-108711650D01*
X133542888Y-108769281D01*
X133542875Y-108769369D01*
X133545392Y-108830214D01*
X133545500Y-108835421D01*
X133545500Y-113565615D01*
X133535909Y-113613833D01*
X133508595Y-113654711D01*
X132633721Y-114529583D01*
X132613547Y-114545966D01*
X132604419Y-114551930D01*
X132584792Y-114577146D01*
X132574463Y-114588842D01*
X132574418Y-114588886D01*
X132562212Y-114605981D01*
X132559105Y-114610148D01*
X132521691Y-114658218D01*
X132521638Y-114658322D01*
X132504259Y-114716695D01*
X132502672Y-114721650D01*
X132482888Y-114779281D01*
X132482875Y-114779370D01*
X132484610Y-114821317D01*
X132476061Y-114872420D01*
X132447670Y-114915762D01*
X132404236Y-114944014D01*
X132370572Y-114957055D01*
X132196539Y-115064813D01*
X132177247Y-115082400D01*
X132055310Y-115193561D01*
X132045267Y-115202716D01*
X131921910Y-115366066D01*
X131830672Y-115549297D01*
X131774654Y-115746180D01*
X131755767Y-115949999D01*
X131774654Y-116153819D01*
X131830672Y-116350702D01*
X131921910Y-116533933D01*
X131950750Y-116572123D01*
X132045268Y-116697285D01*
X132132037Y-116776386D01*
X132165464Y-116826163D01*
X132172098Y-116885754D01*
X132150438Y-116941665D01*
X132105389Y-116981233D01*
X132047151Y-116995500D01*
X131142849Y-116995500D01*
X131084611Y-116981233D01*
X131039562Y-116941665D01*
X131017902Y-116885754D01*
X131024536Y-116826163D01*
X131057962Y-116776386D01*
X131144732Y-116697285D01*
X131268088Y-116533935D01*
X131359328Y-116350701D01*
X131415345Y-116153821D01*
X131434232Y-115950000D01*
X131428469Y-115887813D01*
X131422464Y-115823000D01*
X131415345Y-115746179D01*
X131359328Y-115549299D01*
X131318457Y-115467219D01*
X131268089Y-115366066D01*
X131232248Y-115318605D01*
X131144732Y-115202715D01*
X130993462Y-115064814D01*
X130951979Y-115039128D01*
X130819425Y-114957054D01*
X130785978Y-114944097D01*
X130732153Y-114904112D01*
X130706462Y-114842183D01*
X130705465Y-114834182D01*
X130704500Y-114818617D01*
X130704500Y-114818556D01*
X130702793Y-114808327D01*
X130701040Y-114797824D01*
X130700302Y-114792768D01*
X130693752Y-114740217D01*
X130693750Y-114740212D01*
X130692755Y-114732230D01*
X130692730Y-114732150D01*
X130663734Y-114678568D01*
X130661351Y-114673939D01*
X130634592Y-114619203D01*
X130634545Y-114619140D01*
X130628619Y-114613685D01*
X130628619Y-114613684D01*
X130589713Y-114577868D01*
X130585957Y-114574263D01*
X129716405Y-113704711D01*
X129689091Y-113663834D01*
X129679500Y-113615616D01*
X129679500Y-110159384D01*
X129689091Y-110111166D01*
X129716405Y-110070289D01*
X132145289Y-107641405D01*
X132186166Y-107614091D01*
X132234384Y-107604500D01*
X134304615Y-107604500D01*
X134361818Y-107618233D01*
G37*
%TD.AperFunction*%
%TA.AperFunction,Conductor*%
G36*
X131275423Y-106568233D02*
G01*
X131320156Y-106606439D01*
X131342669Y-106660789D01*
X131338053Y-106719436D01*
X131307315Y-106769595D01*
X128618724Y-109458184D01*
X128598550Y-109474568D01*
X128589419Y-109480534D01*
X128569792Y-109505750D01*
X128559463Y-109517446D01*
X128559418Y-109517490D01*
X128547212Y-109534585D01*
X128544105Y-109538752D01*
X128506691Y-109586822D01*
X128506638Y-109586926D01*
X128489259Y-109645299D01*
X128487672Y-109650254D01*
X128467888Y-109707885D01*
X128467875Y-109707973D01*
X128470392Y-109768818D01*
X128470500Y-109774025D01*
X128470500Y-113715615D01*
X128460909Y-113763833D01*
X128433595Y-113804711D01*
X127553721Y-114684583D01*
X127533547Y-114700966D01*
X127524419Y-114706930D01*
X127504792Y-114732146D01*
X127494463Y-114743842D01*
X127494418Y-114743886D01*
X127482212Y-114760981D01*
X127479105Y-114765148D01*
X127441691Y-114813218D01*
X127441638Y-114813322D01*
X127430592Y-114850424D01*
X127402429Y-114899919D01*
X127355351Y-114931959D01*
X127290571Y-114957056D01*
X127116541Y-115064811D01*
X127038930Y-115135563D01*
X126975310Y-115193561D01*
X126965267Y-115202716D01*
X126841910Y-115366066D01*
X126750672Y-115549297D01*
X126694654Y-115746180D01*
X126675767Y-115949999D01*
X126694654Y-116153819D01*
X126750672Y-116350702D01*
X126841910Y-116533933D01*
X126870750Y-116572123D01*
X126965268Y-116697285D01*
X127052037Y-116776386D01*
X127085464Y-116826163D01*
X127092098Y-116885754D01*
X127070438Y-116941665D01*
X127025389Y-116981233D01*
X126967151Y-116995500D01*
X126062849Y-116995500D01*
X126004611Y-116981233D01*
X125959562Y-116941665D01*
X125937902Y-116885754D01*
X125944536Y-116826163D01*
X125977962Y-116776386D01*
X126064732Y-116697285D01*
X126188088Y-116533935D01*
X126279328Y-116350701D01*
X126335345Y-116153821D01*
X126354232Y-115950000D01*
X126348469Y-115887813D01*
X126342464Y-115823000D01*
X126335345Y-115746179D01*
X126279328Y-115549299D01*
X126238457Y-115467219D01*
X126188089Y-115366066D01*
X126152248Y-115318605D01*
X126064732Y-115202715D01*
X125913462Y-115064814D01*
X125871979Y-115039128D01*
X125739425Y-114957054D01*
X125709907Y-114945619D01*
X125656086Y-114905639D01*
X125630392Y-114843713D01*
X125625468Y-114804210D01*
X125624500Y-114788625D01*
X125624500Y-114788555D01*
X125621044Y-114767851D01*
X125620296Y-114762727D01*
X125613752Y-114710217D01*
X125613751Y-114710215D01*
X125612756Y-114702230D01*
X125612730Y-114702150D01*
X125583734Y-114648568D01*
X125581351Y-114643939D01*
X125554592Y-114589203D01*
X125554545Y-114589140D01*
X125548619Y-114583685D01*
X125548619Y-114583684D01*
X125509713Y-114547868D01*
X125505957Y-114544263D01*
X124616405Y-113654711D01*
X124589091Y-113613834D01*
X124579500Y-113565616D01*
X124579500Y-109459384D01*
X124589091Y-109411166D01*
X124616405Y-109370289D01*
X127395289Y-106591405D01*
X127436166Y-106564091D01*
X127484384Y-106554500D01*
X131218220Y-106554500D01*
X131275423Y-106568233D01*
G37*
%TD.AperFunction*%
%TA.AperFunction,Conductor*%
G36*
X128313834Y-102089091D02*
G01*
X128354711Y-102116405D01*
X130243711Y-104005405D01*
X130274449Y-104055564D01*
X130279065Y-104114211D01*
X130256552Y-104168561D01*
X130211819Y-104206767D01*
X130154616Y-104220500D01*
X128266025Y-104220500D01*
X128240168Y-104217818D01*
X128237993Y-104217362D01*
X128229503Y-104215581D01*
X128197815Y-104219532D01*
X128182229Y-104220500D01*
X128182157Y-104220500D01*
X128161429Y-104223958D01*
X128156281Y-104224708D01*
X128095856Y-104232239D01*
X128095736Y-104232278D01*
X128042171Y-104261265D01*
X128037546Y-104263646D01*
X127982826Y-104290398D01*
X127982730Y-104290469D01*
X127941472Y-104335285D01*
X127937869Y-104339039D01*
X123518724Y-108758184D01*
X123498550Y-108774568D01*
X123489419Y-108780534D01*
X123469792Y-108805750D01*
X123459463Y-108817446D01*
X123459418Y-108817490D01*
X123447212Y-108834585D01*
X123444105Y-108838752D01*
X123406691Y-108886822D01*
X123406638Y-108886926D01*
X123389259Y-108945299D01*
X123387672Y-108950254D01*
X123367888Y-109007885D01*
X123367875Y-109007973D01*
X123370392Y-109068818D01*
X123370500Y-109074025D01*
X123370500Y-113565615D01*
X123360909Y-113613833D01*
X123333595Y-113654711D01*
X122473721Y-114514583D01*
X122453547Y-114530966D01*
X122444419Y-114536930D01*
X122424792Y-114562146D01*
X122414463Y-114573842D01*
X122414418Y-114573886D01*
X122402212Y-114590981D01*
X122399105Y-114595148D01*
X122361691Y-114643218D01*
X122361638Y-114643322D01*
X122344259Y-114701695D01*
X122342672Y-114706650D01*
X122322888Y-114764281D01*
X122322875Y-114764369D01*
X122325221Y-114821080D01*
X122316672Y-114872184D01*
X122288280Y-114915527D01*
X122244845Y-114943779D01*
X122210571Y-114957056D01*
X122036539Y-115064813D01*
X122017247Y-115082400D01*
X121895310Y-115193561D01*
X121885267Y-115202716D01*
X121761910Y-115366066D01*
X121670672Y-115549297D01*
X121614654Y-115746180D01*
X121595767Y-115949999D01*
X121614654Y-116153819D01*
X121670672Y-116350702D01*
X121761910Y-116533933D01*
X121790750Y-116572123D01*
X121885268Y-116697285D01*
X121972037Y-116776386D01*
X122005464Y-116826163D01*
X122012098Y-116885754D01*
X121990438Y-116941665D01*
X121945389Y-116981233D01*
X121887151Y-116995500D01*
X120982849Y-116995500D01*
X120924611Y-116981233D01*
X120879562Y-116941665D01*
X120857902Y-116885754D01*
X120864536Y-116826163D01*
X120897962Y-116776386D01*
X120984732Y-116697285D01*
X121108088Y-116533935D01*
X121199328Y-116350701D01*
X121255345Y-116153821D01*
X121274232Y-115950000D01*
X121268469Y-115887813D01*
X121262464Y-115823000D01*
X121255345Y-115746179D01*
X121199328Y-115549299D01*
X121158457Y-115467219D01*
X121108089Y-115366066D01*
X121072248Y-115318605D01*
X120984732Y-115202715D01*
X120833462Y-115064814D01*
X120805370Y-115047420D01*
X120659429Y-114957056D01*
X120637082Y-114948399D01*
X120627288Y-114944605D01*
X120573467Y-114904625D01*
X120547773Y-114842699D01*
X120545466Y-114824192D01*
X120544500Y-114808618D01*
X120544500Y-114808558D01*
X120544500Y-114808556D01*
X120541040Y-114787823D01*
X120540294Y-114782700D01*
X120539921Y-114779711D01*
X120533752Y-114730218D01*
X120533751Y-114730217D01*
X120532756Y-114722228D01*
X120532732Y-114722155D01*
X120528900Y-114715074D01*
X120528900Y-114715073D01*
X120503727Y-114668557D01*
X120501359Y-114663958D01*
X120500738Y-114662687D01*
X120478126Y-114616432D01*
X120478124Y-114616430D01*
X120474590Y-114609200D01*
X120474545Y-114609140D01*
X120468619Y-114603685D01*
X120468619Y-114603684D01*
X120429713Y-114567868D01*
X120425957Y-114564263D01*
X119566405Y-113704711D01*
X119539091Y-113663834D01*
X119529500Y-113615616D01*
X119529500Y-110009384D01*
X119539091Y-109961166D01*
X119566402Y-109920291D01*
X121506280Y-107980412D01*
X121526457Y-107964029D01*
X121528340Y-107962799D01*
X121535582Y-107958068D01*
X121555202Y-107932858D01*
X121565553Y-107921141D01*
X121565553Y-107921140D01*
X121565581Y-107921113D01*
X121577811Y-107903982D01*
X121580871Y-107899879D01*
X121613375Y-107858119D01*
X121613376Y-107858114D01*
X121618327Y-107851754D01*
X121618351Y-107851709D01*
X121620651Y-107843981D01*
X121620653Y-107843979D01*
X121635750Y-107793265D01*
X121637305Y-107788409D01*
X121654500Y-107738327D01*
X121654500Y-107738325D01*
X121657112Y-107730717D01*
X121657124Y-107730630D01*
X121656339Y-107711650D01*
X121654608Y-107669775D01*
X121654500Y-107664569D01*
X121654500Y-105144903D01*
X121665600Y-105093191D01*
X121696946Y-105050591D01*
X121702997Y-105045229D01*
X121768498Y-104987201D01*
X121858787Y-104856395D01*
X121915149Y-104707782D01*
X121934307Y-104550000D01*
X121915149Y-104392218D01*
X121858787Y-104243605D01*
X121768498Y-104112799D01*
X121649529Y-104007401D01*
X121556428Y-103958538D01*
X121508795Y-103933538D01*
X121508794Y-103933537D01*
X121508793Y-103933537D01*
X121354471Y-103895500D01*
X121209384Y-103895500D01*
X121161166Y-103885909D01*
X121120289Y-103858595D01*
X120705418Y-103443724D01*
X120689030Y-103423544D01*
X120683067Y-103414417D01*
X120657855Y-103394793D01*
X120646153Y-103384458D01*
X120646117Y-103384422D01*
X120629032Y-103372223D01*
X120624863Y-103369114D01*
X120599981Y-103349749D01*
X120583119Y-103336625D01*
X120583117Y-103336624D01*
X120576767Y-103331682D01*
X120576692Y-103331643D01*
X120518311Y-103314262D01*
X120513353Y-103312673D01*
X120455722Y-103292888D01*
X120455630Y-103292875D01*
X120394786Y-103295392D01*
X120389579Y-103295500D01*
X112108988Y-103295500D01*
X112051785Y-103281767D01*
X112007052Y-103243561D01*
X111984539Y-103189211D01*
X111989155Y-103130564D01*
X112019893Y-103080405D01*
X112983893Y-102116405D01*
X113024770Y-102089091D01*
X113072988Y-102079500D01*
X128265616Y-102079500D01*
X128313834Y-102089091D01*
G37*
%TD.AperFunction*%
%TA.AperFunction,Conductor*%
G36*
X113263834Y-104964091D02*
G01*
X113304711Y-104991405D01*
X118258595Y-109945289D01*
X118285909Y-109986166D01*
X118295500Y-110034384D01*
X118295500Y-113640615D01*
X118285909Y-113688833D01*
X118258595Y-113729711D01*
X117393721Y-114594583D01*
X117373547Y-114610966D01*
X117364419Y-114616930D01*
X117344792Y-114642146D01*
X117334463Y-114653842D01*
X117334418Y-114653886D01*
X117322212Y-114670981D01*
X117319105Y-114675148D01*
X117281691Y-114723218D01*
X117281638Y-114723322D01*
X117264259Y-114781695D01*
X117262672Y-114786650D01*
X117240312Y-114851784D01*
X117235534Y-114875334D01*
X117207213Y-114916678D01*
X117165017Y-114943712D01*
X117159440Y-114945873D01*
X117130570Y-114957056D01*
X116956539Y-115064813D01*
X116937247Y-115082400D01*
X116815310Y-115193561D01*
X116805267Y-115202716D01*
X116681910Y-115366066D01*
X116590672Y-115549297D01*
X116534654Y-115746180D01*
X116515767Y-115949999D01*
X116534654Y-116153819D01*
X116590672Y-116350702D01*
X116681910Y-116533933D01*
X116710750Y-116572123D01*
X116805268Y-116697285D01*
X116892037Y-116776386D01*
X116925464Y-116826163D01*
X116932098Y-116885754D01*
X116910438Y-116941665D01*
X116865389Y-116981233D01*
X116807151Y-116995500D01*
X115902849Y-116995500D01*
X115844611Y-116981233D01*
X115799562Y-116941665D01*
X115777902Y-116885754D01*
X115784536Y-116826163D01*
X115817962Y-116776386D01*
X115904732Y-116697285D01*
X116028088Y-116533935D01*
X116119328Y-116350701D01*
X116175345Y-116153821D01*
X116194232Y-115950000D01*
X116188469Y-115887813D01*
X116182464Y-115823000D01*
X116175345Y-115746179D01*
X116119328Y-115549299D01*
X116078457Y-115467219D01*
X116028089Y-115366066D01*
X115992248Y-115318605D01*
X115904732Y-115202715D01*
X115753462Y-115064814D01*
X115725370Y-115047420D01*
X115579429Y-114957056D01*
X115550560Y-114945873D01*
X115544982Y-114943712D01*
X115502787Y-114916678D01*
X115474466Y-114875334D01*
X115467037Y-114838723D01*
X115466220Y-114838860D01*
X115462831Y-114818556D01*
X115461040Y-114807824D01*
X115460302Y-114802768D01*
X115453752Y-114750217D01*
X115453750Y-114750212D01*
X115452755Y-114742230D01*
X115452730Y-114742150D01*
X115423734Y-114688568D01*
X115421351Y-114683939D01*
X115394592Y-114629203D01*
X115394545Y-114629140D01*
X115388619Y-114623685D01*
X115388619Y-114623684D01*
X115353215Y-114591092D01*
X115349713Y-114587868D01*
X115345957Y-114584263D01*
X114466405Y-113704711D01*
X114439091Y-113663834D01*
X114429500Y-113615616D01*
X114429500Y-110427426D01*
X114432182Y-110401568D01*
X114434419Y-110390899D01*
X114430468Y-110359204D01*
X114429500Y-110343618D01*
X114429500Y-110343556D01*
X114427007Y-110328619D01*
X114426040Y-110322824D01*
X114425302Y-110317768D01*
X114418752Y-110265217D01*
X114418750Y-110265212D01*
X114417755Y-110257230D01*
X114417730Y-110257150D01*
X114388734Y-110203568D01*
X114386351Y-110198939D01*
X114359592Y-110144203D01*
X114359545Y-110144140D01*
X114353619Y-110138685D01*
X114353619Y-110138684D01*
X114314713Y-110102868D01*
X114310957Y-110099263D01*
X112805418Y-108593724D01*
X112789030Y-108573544D01*
X112788878Y-108573311D01*
X112783068Y-108564418D01*
X112779747Y-108561833D01*
X112757855Y-108544793D01*
X112746153Y-108534458D01*
X112746117Y-108534422D01*
X112743817Y-108532780D01*
X112729031Y-108522222D01*
X112724863Y-108519114D01*
X112699981Y-108499749D01*
X112683119Y-108486625D01*
X112683117Y-108486624D01*
X112676767Y-108481682D01*
X112676692Y-108481643D01*
X112618311Y-108464262D01*
X112613353Y-108462673D01*
X112555722Y-108442888D01*
X112555630Y-108442875D01*
X112494786Y-108445392D01*
X112489579Y-108445500D01*
X108745384Y-108445500D01*
X108688181Y-108431767D01*
X108643448Y-108393561D01*
X108620935Y-108339211D01*
X108625551Y-108280564D01*
X108656289Y-108230405D01*
X111620288Y-105266405D01*
X111661165Y-105239091D01*
X111709383Y-105229500D01*
X111854469Y-105229500D01*
X111854471Y-105229500D01*
X112008793Y-105191463D01*
X112149529Y-105117599D01*
X112268498Y-105012201D01*
X112270761Y-105008921D01*
X112315901Y-104968932D01*
X112374456Y-104954500D01*
X113215616Y-104954500D01*
X113263834Y-104964091D01*
G37*
%TD.AperFunction*%
%TA.AperFunction,Conductor*%
G36*
X86166537Y-104968933D02*
G01*
X86211678Y-105008924D01*
X86233063Y-105065312D01*
X86225794Y-105125180D01*
X86209850Y-105167219D01*
X86190693Y-105325000D01*
X86209850Y-105482780D01*
X86266212Y-105631394D01*
X86343635Y-105743561D01*
X86356502Y-105762201D01*
X86475471Y-105867599D01*
X86616207Y-105941463D01*
X86770529Y-105979500D01*
X86929469Y-105979500D01*
X86929471Y-105979500D01*
X87083793Y-105941463D01*
X87224529Y-105867599D01*
X87343498Y-105762201D01*
X87345761Y-105758921D01*
X87390901Y-105718932D01*
X87449456Y-105704500D01*
X87737608Y-105704500D01*
X87796163Y-105718933D01*
X87841304Y-105758924D01*
X87862689Y-105815313D01*
X87855420Y-105875181D01*
X87821162Y-105924810D01*
X87806502Y-105937799D01*
X87806501Y-105937800D01*
X87716212Y-106068605D01*
X87659850Y-106217219D01*
X87640693Y-106374999D01*
X87659850Y-106532780D01*
X87716212Y-106681394D01*
X87806501Y-106812200D01*
X87878054Y-106875591D01*
X87909400Y-106918191D01*
X87920500Y-106969903D01*
X87920500Y-107655097D01*
X87909400Y-107706809D01*
X87878054Y-107749409D01*
X87806501Y-107812799D01*
X87716212Y-107943605D01*
X87659850Y-108092219D01*
X87640693Y-108250000D01*
X87659850Y-108407780D01*
X87721638Y-108570700D01*
X87718620Y-108571844D01*
X87732440Y-108611890D01*
X87718238Y-108678054D01*
X87671855Y-108727328D01*
X87606670Y-108745500D01*
X86502127Y-108745500D01*
X86476269Y-108742818D01*
X86465600Y-108740580D01*
X86433905Y-108744532D01*
X86418319Y-108745500D01*
X86418258Y-108745500D01*
X86397551Y-108748954D01*
X86392409Y-108749703D01*
X86331948Y-108757241D01*
X86331838Y-108757276D01*
X86278284Y-108786258D01*
X86273656Y-108788641D01*
X86218918Y-108815401D01*
X86218828Y-108815468D01*
X86177569Y-108860285D01*
X86173966Y-108864039D01*
X84079210Y-110958796D01*
X84038333Y-110986110D01*
X83990115Y-110995701D01*
X83845029Y-110995701D01*
X83735652Y-111022660D01*
X83679055Y-111023515D01*
X83627793Y-110999506D01*
X83592215Y-110955480D01*
X83579500Y-110900321D01*
X83579500Y-109359386D01*
X83589091Y-109311169D01*
X83616403Y-109270292D01*
X83656277Y-109230417D01*
X83676462Y-109214026D01*
X83685582Y-109208068D01*
X83705198Y-109182863D01*
X83715542Y-109171152D01*
X83715581Y-109171114D01*
X83727810Y-109153983D01*
X83730875Y-109149872D01*
X83763375Y-109108119D01*
X83763375Y-109108116D01*
X83768325Y-109101758D01*
X83768351Y-109101708D01*
X83770651Y-109093981D01*
X83770653Y-109093979D01*
X83785750Y-109043265D01*
X83787305Y-109038409D01*
X83804500Y-108988327D01*
X83804500Y-108988322D01*
X83807111Y-108980717D01*
X83807124Y-108980630D01*
X83806555Y-108966881D01*
X83804608Y-108919786D01*
X83804500Y-108914579D01*
X83804500Y-106944903D01*
X83815600Y-106893191D01*
X83846946Y-106850591D01*
X83852997Y-106845229D01*
X83918498Y-106787201D01*
X84008787Y-106656395D01*
X84065149Y-106507782D01*
X84084307Y-106350000D01*
X84065149Y-106192218D01*
X84008787Y-106043605D01*
X83918498Y-105912799D01*
X83799529Y-105807401D01*
X83706537Y-105758595D01*
X83658795Y-105733538D01*
X83658794Y-105733537D01*
X83658793Y-105733537D01*
X83504471Y-105695500D01*
X83345529Y-105695500D01*
X83191207Y-105733537D01*
X83191206Y-105733537D01*
X83191204Y-105733538D01*
X83050472Y-105807400D01*
X82931501Y-105912799D01*
X82841212Y-106043605D01*
X82784850Y-106192219D01*
X82765693Y-106349999D01*
X82784850Y-106507780D01*
X82841212Y-106656394D01*
X82931501Y-106787200D01*
X83003054Y-106850591D01*
X83034400Y-106893191D01*
X83045500Y-106944903D01*
X83045500Y-108715615D01*
X83035908Y-108763835D01*
X83008593Y-108804711D01*
X82997904Y-108815401D01*
X82968720Y-108844584D01*
X82948549Y-108860965D01*
X82939418Y-108866931D01*
X82919792Y-108892146D01*
X82909463Y-108903842D01*
X82909418Y-108903886D01*
X82897212Y-108920981D01*
X82894105Y-108925148D01*
X82856691Y-108973218D01*
X82856638Y-108973322D01*
X82839259Y-109031695D01*
X82837672Y-109036650D01*
X82817888Y-109094281D01*
X82817875Y-109094369D01*
X82820392Y-109155214D01*
X82820500Y-109160421D01*
X82820500Y-111922574D01*
X82817818Y-111948432D01*
X82815580Y-111959100D01*
X82819532Y-111990796D01*
X82820500Y-112006382D01*
X82820500Y-112006448D01*
X82823955Y-112027159D01*
X82824705Y-112032304D01*
X82832241Y-112092751D01*
X82832276Y-112092861D01*
X82861255Y-112146410D01*
X82863638Y-112151039D01*
X82890406Y-112205793D01*
X82890461Y-112205866D01*
X82935284Y-112247130D01*
X82939041Y-112250735D01*
X83810587Y-113122281D01*
X83840599Y-113170273D01*
X83846574Y-113226561D01*
X83842848Y-113257255D01*
X83840693Y-113275001D01*
X83859850Y-113432780D01*
X83916212Y-113581394D01*
X84003973Y-113708538D01*
X84006502Y-113712201D01*
X84125471Y-113817599D01*
X84266207Y-113891463D01*
X84420529Y-113929500D01*
X84579469Y-113929500D01*
X84579471Y-113929500D01*
X84733793Y-113891463D01*
X84874529Y-113817599D01*
X84993498Y-113712201D01*
X85083787Y-113581395D01*
X85140149Y-113432782D01*
X85159307Y-113275000D01*
X85140149Y-113117218D01*
X85083787Y-112968605D01*
X84993498Y-112837799D01*
X84874529Y-112732401D01*
X84750312Y-112667207D01*
X84733795Y-112658538D01*
X84733794Y-112658537D01*
X84733793Y-112658537D01*
X84579471Y-112620500D01*
X84434384Y-112620500D01*
X84386166Y-112610909D01*
X84345289Y-112583595D01*
X84194164Y-112432470D01*
X84163544Y-112382673D01*
X84158694Y-112324416D01*
X84180656Y-112270240D01*
X84224701Y-112231810D01*
X84299029Y-112192800D01*
X84417998Y-112087402D01*
X84508287Y-111956596D01*
X84564649Y-111807983D01*
X84583807Y-111650201D01*
X84577925Y-111601761D01*
X84583898Y-111545476D01*
X84613907Y-111497486D01*
X85830406Y-110280988D01*
X85880564Y-110250252D01*
X85939211Y-110245636D01*
X85993561Y-110268149D01*
X86031767Y-110312882D01*
X86045500Y-110370085D01*
X86045500Y-112455097D01*
X86034400Y-112506809D01*
X86003054Y-112549409D01*
X85931501Y-112612799D01*
X85841212Y-112743605D01*
X85784850Y-112892219D01*
X85765693Y-113050000D01*
X85784850Y-113207780D01*
X85841212Y-113356394D01*
X85926141Y-113479435D01*
X85931502Y-113487201D01*
X86050471Y-113592599D01*
X86191207Y-113666463D01*
X86345529Y-113704500D01*
X86504469Y-113704500D01*
X86504471Y-113704500D01*
X86658793Y-113666463D01*
X86799529Y-113592599D01*
X86918498Y-113487201D01*
X87008787Y-113356395D01*
X87065149Y-113207782D01*
X87084307Y-113050000D01*
X87065149Y-112892218D01*
X87008787Y-112743605D01*
X86918498Y-112612799D01*
X86846946Y-112549409D01*
X86815600Y-112506809D01*
X86804500Y-112455097D01*
X86804500Y-110484384D01*
X86814091Y-110436166D01*
X86841405Y-110395289D01*
X87245289Y-109991405D01*
X87286166Y-109964091D01*
X87334384Y-109954500D01*
X88279615Y-109954500D01*
X88336818Y-109968233D01*
X88381551Y-110006439D01*
X88404064Y-110060790D01*
X88399448Y-110119436D01*
X88368710Y-110169594D01*
X88292669Y-110245636D01*
X88068721Y-110469583D01*
X88048547Y-110485966D01*
X88039419Y-110491930D01*
X88019792Y-110517146D01*
X88009463Y-110528842D01*
X88009418Y-110528886D01*
X87997212Y-110545981D01*
X87994105Y-110550148D01*
X87956691Y-110598218D01*
X87956638Y-110598322D01*
X87939259Y-110656695D01*
X87937672Y-110661650D01*
X87917888Y-110719281D01*
X87917875Y-110719369D01*
X87920392Y-110780214D01*
X87920500Y-110785421D01*
X87920500Y-112755097D01*
X87909400Y-112806809D01*
X87878054Y-112849409D01*
X87806501Y-112912799D01*
X87716212Y-113043605D01*
X87659850Y-113192219D01*
X87640693Y-113350000D01*
X87659850Y-113507780D01*
X87716212Y-113656394D01*
X87803188Y-113782401D01*
X87806502Y-113787201D01*
X87925471Y-113892599D01*
X88066207Y-113966463D01*
X88220529Y-114004500D01*
X88379469Y-114004500D01*
X88379471Y-114004500D01*
X88533793Y-113966463D01*
X88674529Y-113892599D01*
X88793498Y-113787201D01*
X88883787Y-113656395D01*
X88940149Y-113507782D01*
X88959307Y-113350000D01*
X88940149Y-113192218D01*
X88883787Y-113043605D01*
X88793498Y-112912799D01*
X88731315Y-112857709D01*
X88721946Y-112849409D01*
X88690600Y-112806809D01*
X88679500Y-112755097D01*
X88679500Y-112538780D01*
X88695752Y-112476882D01*
X88740315Y-112430952D01*
X88801694Y-112412838D01*
X88864054Y-112427212D01*
X88891207Y-112441463D01*
X89045529Y-112479500D01*
X89045531Y-112479500D01*
X89187104Y-112479500D01*
X89247074Y-112494687D01*
X89289123Y-112533396D01*
X89317137Y-112555200D01*
X89328848Y-112565543D01*
X89328886Y-112565581D01*
X89345989Y-112577792D01*
X89350150Y-112580895D01*
X89359441Y-112588126D01*
X89391881Y-112613375D01*
X89391882Y-112613375D01*
X89398238Y-112618322D01*
X89398298Y-112618353D01*
X89406017Y-112620651D01*
X89406020Y-112620653D01*
X89456735Y-112635751D01*
X89461607Y-112637312D01*
X89511673Y-112654500D01*
X89511676Y-112654500D01*
X89519282Y-112657111D01*
X89519367Y-112657124D01*
X89527407Y-112656791D01*
X89527410Y-112656792D01*
X89552438Y-112655756D01*
X89619454Y-112671850D01*
X89667978Y-112720798D01*
X89683487Y-112787954D01*
X89661342Y-112853223D01*
X89616212Y-112918605D01*
X89559850Y-113067219D01*
X89542764Y-113207946D01*
X89540693Y-113225000D01*
X89543058Y-113244478D01*
X89559850Y-113382780D01*
X89616212Y-113531394D01*
X89705136Y-113660223D01*
X89706502Y-113662201D01*
X89825471Y-113767599D01*
X89966207Y-113841463D01*
X90120529Y-113879500D01*
X90279469Y-113879500D01*
X90279471Y-113879500D01*
X90433793Y-113841463D01*
X90574529Y-113767599D01*
X90693498Y-113662201D01*
X90695761Y-113658921D01*
X90740901Y-113618932D01*
X90799456Y-113604500D01*
X94172574Y-113604500D01*
X94198431Y-113607181D01*
X94209100Y-113609419D01*
X94240796Y-113605468D01*
X94256382Y-113604500D01*
X94256440Y-113604500D01*
X94256443Y-113604500D01*
X94277194Y-113601036D01*
X94282243Y-113600300D01*
X94334783Y-113593752D01*
X94334786Y-113593750D01*
X94342781Y-113592754D01*
X94342839Y-113592735D01*
X94349924Y-113588900D01*
X94349927Y-113588900D01*
X94396467Y-113563713D01*
X94400993Y-113561383D01*
X94448568Y-113538126D01*
X94448571Y-113538122D01*
X94455810Y-113534584D01*
X94455856Y-113534550D01*
X94468309Y-113521023D01*
X94497130Y-113489713D01*
X94500689Y-113486003D01*
X95120291Y-112866401D01*
X95161165Y-112839091D01*
X95209383Y-112829500D01*
X95354469Y-112829500D01*
X95354471Y-112829500D01*
X95508793Y-112791463D01*
X95649529Y-112717599D01*
X95768498Y-112612201D01*
X95858787Y-112481395D01*
X95915149Y-112332782D01*
X95934307Y-112175000D01*
X95915149Y-112017218D01*
X95858787Y-111868605D01*
X95768498Y-111737799D01*
X95705593Y-111682070D01*
X95668123Y-111622814D01*
X95668123Y-111552703D01*
X95705594Y-111493448D01*
X95756046Y-111448752D01*
X95846335Y-111317946D01*
X95902697Y-111169333D01*
X95921855Y-111011551D01*
X95902697Y-110853769D01*
X95846335Y-110705156D01*
X95756046Y-110574350D01*
X95756045Y-110574349D01*
X95751671Y-110568012D01*
X95731913Y-110521639D01*
X95731913Y-110471233D01*
X95751671Y-110424860D01*
X95833787Y-110305895D01*
X95890149Y-110157282D01*
X95909307Y-109999500D01*
X95890149Y-109841718D01*
X95833787Y-109693105D01*
X95743498Y-109562299D01*
X95624529Y-109456901D01*
X95483793Y-109383037D01*
X95329471Y-109345000D01*
X95170529Y-109345000D01*
X95016207Y-109383037D01*
X95016206Y-109383037D01*
X95016204Y-109383038D01*
X94875472Y-109456900D01*
X94756501Y-109562299D01*
X94666212Y-109693105D01*
X94609850Y-109841719D01*
X94592794Y-109982194D01*
X94590693Y-109999500D01*
X94596574Y-110047937D01*
X94590599Y-110104225D01*
X94560587Y-110152217D01*
X93579208Y-111133597D01*
X93538334Y-111160909D01*
X93490116Y-111170500D01*
X91424456Y-111170500D01*
X91365901Y-111156068D01*
X91320761Y-111116078D01*
X91318498Y-111112799D01*
X91199529Y-111007401D01*
X91058793Y-110933537D01*
X90904471Y-110895500D01*
X90745529Y-110895500D01*
X90591207Y-110933537D01*
X90591206Y-110933537D01*
X90591204Y-110933538D01*
X90450472Y-111007400D01*
X90331501Y-111112799D01*
X90241212Y-111243605D01*
X90184850Y-111392219D01*
X90165693Y-111549999D01*
X90184850Y-111707779D01*
X90184850Y-111707781D01*
X90184851Y-111707782D01*
X90191313Y-111724821D01*
X90198582Y-111784687D01*
X90177197Y-111841076D01*
X90132056Y-111881067D01*
X90073501Y-111895500D01*
X89904493Y-111895500D01*
X89845938Y-111881067D01*
X89800797Y-111841076D01*
X89779412Y-111784687D01*
X89770853Y-111714200D01*
X89765149Y-111667218D01*
X89708787Y-111518605D01*
X89618498Y-111387799D01*
X89499529Y-111282401D01*
X89358793Y-111208537D01*
X89204471Y-111170500D01*
X89045529Y-111170500D01*
X88891207Y-111208537D01*
X88891205Y-111208537D01*
X88891205Y-111208538D01*
X88864054Y-111222788D01*
X88801694Y-111237162D01*
X88740315Y-111219048D01*
X88695752Y-111173118D01*
X88679500Y-111111220D01*
X88679500Y-110984384D01*
X88689091Y-110936166D01*
X88716405Y-110895289D01*
X89170289Y-110441405D01*
X89211166Y-110414091D01*
X89259384Y-110404500D01*
X93272574Y-110404500D01*
X93298431Y-110407181D01*
X93309100Y-110409419D01*
X93340796Y-110405468D01*
X93356382Y-110404500D01*
X93356440Y-110404500D01*
X93356443Y-110404500D01*
X93377194Y-110401036D01*
X93382243Y-110400300D01*
X93434783Y-110393752D01*
X93434788Y-110393749D01*
X93442782Y-110392753D01*
X93442842Y-110392734D01*
X93449926Y-110388900D01*
X93449927Y-110388900D01*
X93496411Y-110363742D01*
X93501043Y-110361359D01*
X93521335Y-110351439D01*
X93548568Y-110338126D01*
X93548568Y-110338125D01*
X93555807Y-110334587D01*
X93555854Y-110334552D01*
X93570995Y-110318105D01*
X93597130Y-110289713D01*
X93600713Y-110285979D01*
X95095288Y-108791405D01*
X95136165Y-108764091D01*
X95184383Y-108754500D01*
X95329469Y-108754500D01*
X95329471Y-108754500D01*
X95483793Y-108716463D01*
X95624529Y-108642599D01*
X95743498Y-108537201D01*
X95833787Y-108406395D01*
X95890149Y-108257782D01*
X95909307Y-108100000D01*
X95909306Y-108099999D01*
X95911151Y-108084813D01*
X95914661Y-108085239D01*
X95918815Y-108052662D01*
X95954828Y-108002456D01*
X96010378Y-107975406D01*
X96072109Y-107978018D01*
X96125176Y-108009662D01*
X97621789Y-109506275D01*
X97638176Y-109526453D01*
X97643488Y-109534585D01*
X97644140Y-109535582D01*
X97669349Y-109555203D01*
X97681050Y-109565537D01*
X97681089Y-109565576D01*
X97681092Y-109565578D01*
X97681095Y-109565581D01*
X97698207Y-109577799D01*
X97702350Y-109580889D01*
X97750442Y-109618320D01*
X97750504Y-109618352D01*
X97758225Y-109620650D01*
X97758229Y-109620653D01*
X97808951Y-109635752D01*
X97813815Y-109637311D01*
X97863881Y-109654500D01*
X97863883Y-109654500D01*
X97871488Y-109657111D01*
X97871577Y-109657124D01*
X97879616Y-109656791D01*
X97879618Y-109656792D01*
X97932421Y-109654608D01*
X97937629Y-109654500D01*
X112090616Y-109654500D01*
X112138834Y-109664091D01*
X112179711Y-109691405D01*
X113183595Y-110695289D01*
X113210909Y-110736166D01*
X113220500Y-110784384D01*
X113220500Y-113615615D01*
X113210909Y-113663833D01*
X113183595Y-113704711D01*
X112313721Y-114574583D01*
X112293547Y-114590966D01*
X112284419Y-114596930D01*
X112264792Y-114622146D01*
X112254463Y-114633842D01*
X112254418Y-114633886D01*
X112242212Y-114650981D01*
X112239105Y-114655148D01*
X112201691Y-114703218D01*
X112201638Y-114703322D01*
X112184259Y-114761695D01*
X112182672Y-114766650D01*
X112162888Y-114824281D01*
X112160262Y-114842307D01*
X112158261Y-114849025D01*
X112154228Y-114873133D01*
X112125836Y-114916473D01*
X112082403Y-114944724D01*
X112050574Y-114957054D01*
X111876539Y-115064813D01*
X111857247Y-115082400D01*
X111735310Y-115193561D01*
X111725267Y-115202716D01*
X111601910Y-115366066D01*
X111510672Y-115549297D01*
X111454654Y-115746180D01*
X111435767Y-115949999D01*
X111454654Y-116153819D01*
X111510672Y-116350702D01*
X111601910Y-116533933D01*
X111630750Y-116572123D01*
X111725268Y-116697285D01*
X111812037Y-116776386D01*
X111845464Y-116826163D01*
X111852098Y-116885754D01*
X111830438Y-116941665D01*
X111785389Y-116981233D01*
X111727151Y-116995500D01*
X111228621Y-116995500D01*
X111174750Y-116983403D01*
X111131223Y-116949435D01*
X111106398Y-116900117D01*
X111105042Y-116844921D01*
X111109000Y-116825021D01*
X111109000Y-116077000D01*
X108901001Y-116077000D01*
X108901001Y-116825015D01*
X108904960Y-116844919D01*
X108903605Y-116900116D01*
X108878780Y-116949434D01*
X108835253Y-116983403D01*
X108781381Y-116995500D01*
X106953320Y-116995500D01*
X106895510Y-116981455D01*
X106850588Y-116942452D01*
X106828567Y-116887186D01*
X106834359Y-116827977D01*
X106866670Y-116778025D01*
X106887083Y-116758688D01*
X106924668Y-116723086D01*
X107156365Y-116450311D01*
X107357211Y-116154085D01*
X107524853Y-115837880D01*
X107530782Y-115823000D01*
X108901000Y-115823000D01*
X109878000Y-115823000D01*
X109878000Y-114846001D01*
X109129982Y-114846001D01*
X109055894Y-114860736D01*
X108971875Y-114916876D01*
X108915736Y-115000893D01*
X108901000Y-115074981D01*
X108901000Y-115823000D01*
X107530782Y-115823000D01*
X107657324Y-115505403D01*
X107657402Y-115505125D01*
X107734925Y-115225907D01*
X107753071Y-115160552D01*
X107804639Y-114846000D01*
X110132000Y-114846000D01*
X110132000Y-115823000D01*
X111108999Y-115823000D01*
X111108999Y-115074982D01*
X111094263Y-115000894D01*
X111038123Y-114916875D01*
X110954106Y-114860736D01*
X110880019Y-114846000D01*
X110132000Y-114846000D01*
X107804639Y-114846000D01*
X107810972Y-114807371D01*
X107830348Y-114450000D01*
X107810972Y-114092629D01*
X107753071Y-113739448D01*
X107723409Y-113632615D01*
X107657326Y-113394602D01*
X107653011Y-113383771D01*
X107524853Y-113062120D01*
X107392144Y-112811805D01*
X107357212Y-112745916D01*
X107241095Y-112574657D01*
X107156365Y-112449689D01*
X107138324Y-112428450D01*
X107035725Y-112307661D01*
X106924668Y-112176914D01*
X106664837Y-111930789D01*
X106379919Y-111714200D01*
X106226585Y-111621942D01*
X106073255Y-111529686D01*
X105867476Y-111434483D01*
X105748435Y-111379409D01*
X105748433Y-111379408D01*
X105748428Y-111379406D01*
X105409274Y-111265131D01*
X105059744Y-111188194D01*
X104703951Y-111149500D01*
X104703948Y-111149500D01*
X104346052Y-111149500D01*
X104346049Y-111149500D01*
X103990255Y-111188194D01*
X103640725Y-111265131D01*
X103301571Y-111379406D01*
X102976744Y-111529686D01*
X102670082Y-111714199D01*
X102670079Y-111714200D01*
X102670081Y-111714200D01*
X102385163Y-111930789D01*
X102125332Y-112176914D01*
X102125329Y-112176917D01*
X101893637Y-112449685D01*
X101692787Y-112745916D01*
X101525147Y-113062120D01*
X101392674Y-113394600D01*
X101325217Y-113637560D01*
X101292265Y-113693582D01*
X101235776Y-113725729D01*
X101170782Y-113725445D01*
X101114576Y-113692807D01*
X101088038Y-113666186D01*
X101082466Y-113660223D01*
X101079114Y-113656394D01*
X101074079Y-113650642D01*
X101074071Y-113650635D01*
X101061645Y-113639710D01*
X101061639Y-113639704D01*
X101055642Y-113635684D01*
X101051058Y-113632611D01*
X101044437Y-113627855D01*
X100985600Y-113582622D01*
X100979159Y-113577322D01*
X100969820Y-113569101D01*
X100969818Y-113569099D01*
X100969816Y-113569098D01*
X100969545Y-113568941D01*
X100955959Y-113559836D01*
X100955715Y-113559648D01*
X100944567Y-113554138D01*
X100937199Y-113550187D01*
X100873152Y-113513052D01*
X100865775Y-113508427D01*
X100855907Y-113501754D01*
X100855131Y-113501428D01*
X100840810Y-113494301D01*
X100840081Y-113493878D01*
X100828808Y-113490028D01*
X100820694Y-113486940D01*
X100752133Y-113458096D01*
X100743844Y-113454248D01*
X100733846Y-113449156D01*
X100732357Y-113448737D01*
X100717698Y-113443610D01*
X100716274Y-113443011D01*
X100716272Y-113443010D01*
X100716271Y-113443010D01*
X100705282Y-113440760D01*
X100696380Y-113438598D01*
X100624063Y-113418219D01*
X100614827Y-113415227D01*
X100605070Y-113411646D01*
X100602735Y-113411280D01*
X100588080Y-113408078D01*
X100585811Y-113407438D01*
X100575451Y-113406625D01*
X100565810Y-113405493D01*
X100491626Y-113393867D01*
X100480628Y-113391637D01*
X100472779Y-113389678D01*
X100470483Y-113389567D01*
X100468097Y-113389451D01*
X100454698Y-113388081D01*
X100450091Y-113387359D01*
X100441998Y-113387690D01*
X100430781Y-113387648D01*
X100379203Y-113385157D01*
X100364651Y-113383408D01*
X100348587Y-113383496D01*
X100341825Y-113383351D01*
X100324688Y-113382523D01*
X100318019Y-113383127D01*
X100315104Y-113383222D01*
X100306291Y-113381974D01*
X100292328Y-113383076D01*
X100278916Y-113382996D01*
X100264419Y-113384532D01*
X100255244Y-113385166D01*
X100240305Y-113385652D01*
X100213562Y-113388306D01*
X100206470Y-113388087D01*
X100188806Y-113394774D01*
X100169795Y-113398952D01*
X100147656Y-113406050D01*
X100140335Y-113407213D01*
X100102001Y-113419654D01*
X100043757Y-113410332D01*
X99996138Y-113375523D01*
X99969580Y-113322855D01*
X99969902Y-113263871D01*
X99970366Y-113261989D01*
X99990390Y-113218612D01*
X99997107Y-113209269D01*
X99997110Y-113209261D01*
X99997151Y-113209205D01*
X99997180Y-113209140D01*
X99997185Y-113209134D01*
X100007594Y-113186211D01*
X100032270Y-113131963D01*
X100042637Y-113109286D01*
X100042637Y-113109285D01*
X100042737Y-113109067D01*
X100042793Y-113108824D01*
X100042797Y-113108818D01*
X100045154Y-113098774D01*
X100046390Y-113096039D01*
X100051460Y-113073794D01*
X100051463Y-113073792D01*
X100062441Y-113025632D01*
X100062538Y-113025215D01*
X100068012Y-113002099D01*
X100068012Y-113002091D01*
X100068257Y-113001058D01*
X100068504Y-112992218D01*
X100068940Y-112976522D01*
X100068972Y-112975523D01*
X100069235Y-112968233D01*
X100069694Y-112955517D01*
X100072034Y-112935486D01*
X100073157Y-112929841D01*
X100075447Y-112918331D01*
X100073926Y-112910686D01*
X100073077Y-112900634D01*
X100069809Y-112881420D01*
X100068124Y-112865305D01*
X100067822Y-112857708D01*
X100067561Y-112856625D01*
X100064831Y-112841024D01*
X100064710Y-112839928D01*
X100063109Y-112834873D01*
X100059011Y-112817954D01*
X100055843Y-112799332D01*
X100051354Y-112787919D01*
X100048669Y-112773828D01*
X100046130Y-112765911D01*
X100038617Y-112749637D01*
X100036223Y-112744107D01*
X100025250Y-112717002D01*
X100022601Y-112709842D01*
X100018156Y-112696611D01*
X100011761Y-112683457D01*
X100007854Y-112677506D01*
X99990724Y-112638024D01*
X99989065Y-112612974D01*
X99988426Y-112613033D01*
X99988148Y-112609997D01*
X99988144Y-112604515D01*
X99986697Y-112591033D01*
X99984935Y-112574611D01*
X99984742Y-112572654D01*
X99978987Y-112509536D01*
X99978752Y-112506571D01*
X99977390Y-112486116D01*
X99977389Y-112486112D01*
X99977181Y-112482987D01*
X99976292Y-112479978D01*
X99976292Y-112479975D01*
X99970482Y-112460308D01*
X99969664Y-112457409D01*
X99969042Y-112455097D01*
X99953824Y-112398548D01*
X99952939Y-112395054D01*
X99948412Y-112376025D01*
X99948410Y-112376022D01*
X99947540Y-112372362D01*
X99945868Y-112368981D01*
X99945868Y-112368979D01*
X99937234Y-112351518D01*
X99935648Y-112348189D01*
X99910555Y-112293466D01*
X99909039Y-112290025D01*
X99899999Y-112268649D01*
X99886363Y-112249801D01*
X99884226Y-112246752D01*
X99849964Y-112196286D01*
X99848150Y-112193537D01*
X99835470Y-112173762D01*
X99818766Y-112157304D01*
X99816488Y-112155000D01*
X99775925Y-112112879D01*
X99772043Y-112108658D01*
X99759745Y-112094659D01*
X99754358Y-112089849D01*
X99739080Y-112079219D01*
X99734424Y-112075819D01*
X99726122Y-112069460D01*
X99714210Y-112060335D01*
X99705352Y-112052879D01*
X99699801Y-112047753D01*
X99695360Y-112045034D01*
X99684538Y-112037607D01*
X99680400Y-112034438D01*
X99673629Y-112031106D01*
X99663480Y-112025518D01*
X99647993Y-112016038D01*
X99639579Y-112010411D01*
X99631676Y-112004653D01*
X99628972Y-112003402D01*
X99616110Y-111996521D01*
X99613570Y-111994966D01*
X99613568Y-111994965D01*
X99613566Y-111994964D01*
X99604392Y-111991584D01*
X99595054Y-111987711D01*
X99576599Y-111979174D01*
X99571088Y-111976460D01*
X99555459Y-111968283D01*
X99547207Y-111965182D01*
X99530080Y-111961046D01*
X99524147Y-111959459D01*
X99501992Y-111952951D01*
X99494614Y-111950535D01*
X99481785Y-111945890D01*
X99466989Y-111942607D01*
X99453409Y-111941391D01*
X99445701Y-111940460D01*
X99430506Y-111938148D01*
X99416559Y-111935211D01*
X99413177Y-111934296D01*
X99403950Y-111933668D01*
X99393563Y-111932527D01*
X99378392Y-111930219D01*
X99374753Y-111929865D01*
X99374712Y-111930825D01*
X99363825Y-111930356D01*
X99355773Y-111928019D01*
X99351178Y-111927573D01*
X99350288Y-111927356D01*
X99350499Y-111926489D01*
X99306454Y-111913711D01*
X99291394Y-111905054D01*
X99288994Y-111903639D01*
X99268720Y-111891380D01*
X99259082Y-111888129D01*
X99254025Y-111885275D01*
X99223856Y-111875624D01*
X99219341Y-111874085D01*
X99182602Y-111860779D01*
X99174712Y-111859666D01*
X99164655Y-111856274D01*
X99158585Y-111855584D01*
X99156352Y-111854878D01*
X99125406Y-111851551D01*
X99122671Y-111851226D01*
X99071434Y-111844580D01*
X99065647Y-111845016D01*
X99058957Y-111844255D01*
X99034433Y-111846451D01*
X99033666Y-111846518D01*
X98996326Y-111849630D01*
X98984320Y-111850631D01*
X98984319Y-111850631D01*
X98960965Y-111852578D01*
X98958928Y-111853166D01*
X98955895Y-111853431D01*
X98946215Y-111856274D01*
X98931947Y-111860464D01*
X98931784Y-111860511D01*
X98931689Y-111860539D01*
X98882734Y-111874802D01*
X98881947Y-111875029D01*
X98858245Y-111881767D01*
X98836237Y-111893219D01*
X98835516Y-111893591D01*
X98790857Y-111916464D01*
X98790238Y-111916779D01*
X98768133Y-111927946D01*
X98751426Y-111941173D01*
X98750918Y-111941573D01*
X98706704Y-111976207D01*
X98706672Y-111976232D01*
X98687701Y-111991082D01*
X98684774Y-111994488D01*
X98682013Y-111996674D01*
X98636266Y-112050918D01*
X98635508Y-112051808D01*
X98619556Y-112070370D01*
X98615572Y-112077589D01*
X98611424Y-112082598D01*
X98601017Y-112102275D01*
X98554112Y-112151618D01*
X98488384Y-112169357D01*
X98450397Y-112168979D01*
X98446640Y-112168885D01*
X98423442Y-112167961D01*
X98400623Y-112172264D01*
X98396921Y-112172905D01*
X98338233Y-112182167D01*
X98334748Y-112182667D01*
X98311615Y-112185657D01*
X98289670Y-112193739D01*
X98286354Y-112194907D01*
X98228599Y-112214362D01*
X98225643Y-112215318D01*
X98203119Y-112222291D01*
X98182717Y-112234007D01*
X98179997Y-112235524D01*
X98126062Y-112264745D01*
X98122428Y-112266638D01*
X98101797Y-112276962D01*
X98095181Y-112282454D01*
X98041583Y-112308601D01*
X98041212Y-112308682D01*
X98025830Y-112311057D01*
X98024539Y-112311175D01*
X98013535Y-112314429D01*
X98004821Y-112316670D01*
X97998101Y-112318145D01*
X97993032Y-112319149D01*
X97973150Y-112322665D01*
X97968675Y-112324018D01*
X97951526Y-112331521D01*
X97932044Y-112338206D01*
X97930883Y-112338500D01*
X97920890Y-112343265D01*
X97912394Y-112346938D01*
X97895207Y-112353631D01*
X97894823Y-112353827D01*
X97890174Y-112356811D01*
X97876361Y-112364498D01*
X97873597Y-112365816D01*
X97819723Y-112402006D01*
X97817542Y-112403439D01*
X97797495Y-112416310D01*
X97788181Y-112425670D01*
X97784105Y-112428450D01*
X97763651Y-112449557D01*
X97760624Y-112452576D01*
X97731689Y-112480474D01*
X97727457Y-112486697D01*
X97717797Y-112496404D01*
X97710849Y-112507168D01*
X97706714Y-112511507D01*
X97686195Y-112544460D01*
X97684188Y-112547579D01*
X97679124Y-112555200D01*
X97665519Y-112575671D01*
X97663670Y-112580250D01*
X97656830Y-112590845D01*
X97648346Y-112613347D01*
X97647606Y-112615261D01*
X97620889Y-112682764D01*
X97620882Y-112682761D01*
X97620248Y-112686100D01*
X97618461Y-112690434D01*
X97614667Y-112713322D01*
X97613983Y-112717092D01*
X97610580Y-112734350D01*
X97609850Y-112737794D01*
X97604696Y-112760559D01*
X97604705Y-112766379D01*
X97603470Y-112772565D01*
X97603241Y-112841205D01*
X97603199Y-112844087D01*
X97602578Y-112867755D01*
X97604758Y-112878908D01*
X97604777Y-112883915D01*
X97610739Y-112912375D01*
X97611596Y-112916876D01*
X97618557Y-112957406D01*
X97621601Y-112965076D01*
X97623897Y-112976820D01*
X97627124Y-112984393D01*
X97627666Y-112986928D01*
X97640647Y-113016816D01*
X97641645Y-113019178D01*
X97660235Y-113064483D01*
X97663030Y-113068635D01*
X97666422Y-113076593D01*
X97670317Y-113082213D01*
X97671161Y-113084141D01*
X97694664Y-113117655D01*
X97695548Y-113118933D01*
X97721683Y-113157196D01*
X97723537Y-113159001D01*
X97727493Y-113164709D01*
X97732976Y-113169950D01*
X97735176Y-113173054D01*
X97751164Y-113188030D01*
X97751165Y-113188031D01*
X97771714Y-113207279D01*
X97773134Y-113208630D01*
X97773729Y-113209205D01*
X97798299Y-113232951D01*
X97800063Y-113234080D01*
X97805300Y-113239086D01*
X97813970Y-113244478D01*
X97819125Y-113249214D01*
X97835713Y-113259091D01*
X97835714Y-113259092D01*
X97840271Y-113261805D01*
X97857876Y-113272288D01*
X97861042Y-113274237D01*
X97886731Y-113290578D01*
X97890287Y-113291936D01*
X97898407Y-113296985D01*
X97900743Y-113297813D01*
X97900746Y-113297815D01*
X97916053Y-113303242D01*
X97920910Y-113304964D01*
X97923147Y-113305781D01*
X97967142Y-113322341D01*
X97967142Y-113322340D01*
X97988431Y-113330354D01*
X97993644Y-113331221D01*
X97995770Y-113332029D01*
X97995771Y-113332029D01*
X97997882Y-113332831D01*
X98020795Y-113347392D01*
X98022097Y-113345374D01*
X98032533Y-113352105D01*
X98032534Y-113352106D01*
X98033915Y-113352997D01*
X98035021Y-113353710D01*
X98056103Y-113370784D01*
X98057286Y-113371974D01*
X98060637Y-113374229D01*
X98064714Y-113376973D01*
X98073284Y-113383281D01*
X98080275Y-113388899D01*
X98081769Y-113389678D01*
X98082040Y-113389819D01*
X98103367Y-113403855D01*
X98106302Y-113406245D01*
X98107629Y-113407326D01*
X98109049Y-113408078D01*
X98112087Y-113409688D01*
X98123451Y-113416496D01*
X98127642Y-113419316D01*
X98127645Y-113419318D01*
X98134745Y-113422286D01*
X98145125Y-113427192D01*
X98149864Y-113429702D01*
X98155126Y-113432490D01*
X98170554Y-113440760D01*
X98171317Y-113441169D01*
X98181753Y-113447816D01*
X98182992Y-113448131D01*
X98182994Y-113448133D01*
X98223541Y-113458462D01*
X98229138Y-113460027D01*
X98231864Y-113460858D01*
X98232527Y-113461060D01*
X98236893Y-113462478D01*
X98251113Y-113467385D01*
X98262275Y-113471237D01*
X98281660Y-113470064D01*
X98301758Y-113470454D01*
X98320017Y-113472275D01*
X98320017Y-113472274D01*
X98323301Y-113472602D01*
X98370769Y-113468833D01*
X98399891Y-113479435D01*
X98400756Y-113477184D01*
X98412351Y-113481634D01*
X98412352Y-113481635D01*
X98432968Y-113489548D01*
X98434746Y-113490248D01*
X98462043Y-113501228D01*
X98469739Y-113504627D01*
X98473407Y-113506396D01*
X98473409Y-113506396D01*
X98481488Y-113510292D01*
X98524579Y-113518050D01*
X98567163Y-113546364D01*
X98573140Y-113555581D01*
X98581276Y-113564080D01*
X98590587Y-113577496D01*
X98591546Y-113576774D01*
X98607446Y-113597855D01*
X98619517Y-113617314D01*
X98619571Y-113617422D01*
X98627087Y-113627098D01*
X98632063Y-113633970D01*
X98639778Y-113645416D01*
X98645121Y-113651324D01*
X98649850Y-113657158D01*
X98657390Y-113666461D01*
X98657694Y-113666835D01*
X98666304Y-113678832D01*
X98667764Y-113681140D01*
X98670554Y-113684075D01*
X98678737Y-113693588D01*
X98681928Y-113697695D01*
X98686727Y-113702655D01*
X98687538Y-113703656D01*
X98689648Y-113705409D01*
X98700431Y-113715493D01*
X98733407Y-113750172D01*
X98738380Y-113755722D01*
X98747634Y-113766687D01*
X98758000Y-113776191D01*
X98758454Y-113776511D01*
X98758456Y-113776513D01*
X98766806Y-113782401D01*
X98769716Y-113784453D01*
X98775692Y-113788939D01*
X98822916Y-113826623D01*
X98830082Y-113832795D01*
X98837982Y-113840134D01*
X98839660Y-113841168D01*
X98852153Y-113849953D01*
X98853686Y-113851176D01*
X98863270Y-113856131D01*
X98871465Y-113860765D01*
X98920542Y-113891006D01*
X98966177Y-113940042D01*
X98980231Y-114005539D01*
X98958731Y-114068984D01*
X98946430Y-114087127D01*
X98940755Y-114094847D01*
X98934167Y-114103130D01*
X98933166Y-114105074D01*
X98925448Y-114118074D01*
X98882834Y-114180933D01*
X98875701Y-114190454D01*
X98871198Y-114195907D01*
X98868505Y-114200908D01*
X98861874Y-114211851D01*
X98858676Y-114216569D01*
X98855923Y-114223091D01*
X98850784Y-114233820D01*
X98814190Y-114301783D01*
X98808470Y-114311364D01*
X98803963Y-114318204D01*
X98802236Y-114322451D01*
X98796477Y-114334682D01*
X98794307Y-114338713D01*
X98791904Y-114346549D01*
X98788159Y-114357069D01*
X98759815Y-114426766D01*
X98755499Y-114436240D01*
X98751276Y-114444575D01*
X98750346Y-114447901D01*
X98745734Y-114461391D01*
X98744436Y-114464584D01*
X98742676Y-114473738D01*
X98740289Y-114483876D01*
X98720370Y-114555113D01*
X98717402Y-114564342D01*
X98713837Y-114574119D01*
X98713478Y-114576442D01*
X98710310Y-114591092D01*
X98709674Y-114593366D01*
X98708879Y-114603760D01*
X98707768Y-114613384D01*
X98696582Y-114685779D01*
X98694881Y-114694663D01*
X98692336Y-114705776D01*
X98692297Y-114707135D01*
X98690871Y-114722739D01*
X98690665Y-114724069D01*
X98691155Y-114735464D01*
X98691219Y-114744500D01*
X98689115Y-114817558D01*
X98688582Y-114826056D01*
X98687408Y-114838192D01*
X98687464Y-114838744D01*
X98688040Y-114854924D01*
X98688023Y-114855481D01*
X98690057Y-114867509D01*
X98691191Y-114875941D01*
X98698508Y-114948930D01*
X98699059Y-114957080D01*
X98699505Y-114969795D01*
X98699510Y-114969816D01*
X98702237Y-114986125D01*
X98702240Y-114986162D01*
X98705958Y-114998345D01*
X98708086Y-115006222D01*
X98712197Y-115023669D01*
X98721890Y-115064813D01*
X98723760Y-115072747D01*
X98724104Y-115129036D01*
X98699903Y-115179858D01*
X98655986Y-115215069D01*
X98601118Y-115227643D01*
X97689548Y-115227643D01*
X97689548Y-116869500D01*
X97672667Y-116932500D01*
X97626548Y-116978619D01*
X97563548Y-116995500D01*
X80204956Y-116995500D01*
X80195070Y-116995112D01*
X80018726Y-116981233D01*
X79983758Y-116978480D01*
X79964231Y-116975388D01*
X79762957Y-116927066D01*
X79744153Y-116920956D01*
X79552920Y-116841745D01*
X79535303Y-116832769D01*
X79358806Y-116724612D01*
X79342811Y-116712990D01*
X79324423Y-116697285D01*
X79185415Y-116578561D01*
X79171436Y-116564582D01*
X79165628Y-116557782D01*
X79037007Y-116407186D01*
X79025387Y-116391193D01*
X79003053Y-116354747D01*
X78984539Y-116292565D01*
X78999418Y-116229415D01*
X79043745Y-116182040D01*
X79105768Y-116163000D01*
X79169040Y-116177344D01*
X79291207Y-116241463D01*
X79445529Y-116279500D01*
X79604469Y-116279500D01*
X79604471Y-116279500D01*
X79758793Y-116241463D01*
X79899529Y-116167599D01*
X80018498Y-116062201D01*
X80108787Y-115931395D01*
X80165149Y-115782782D01*
X80184307Y-115625000D01*
X80165149Y-115467218D01*
X80108787Y-115318605D01*
X80044642Y-115225675D01*
X80023257Y-115169287D01*
X80030526Y-115109419D01*
X80064785Y-115059787D01*
X80072780Y-115052703D01*
X80118498Y-115012201D01*
X80208787Y-114881395D01*
X80265149Y-114732782D01*
X80284307Y-114575000D01*
X80265149Y-114417218D01*
X80208787Y-114268605D01*
X80118498Y-114137799D01*
X80076088Y-114100227D01*
X80046946Y-114074409D01*
X80015600Y-114031809D01*
X80004500Y-113980097D01*
X80004500Y-112977421D01*
X80007182Y-112951563D01*
X80008472Y-112945412D01*
X80009418Y-112940900D01*
X80005467Y-112909210D01*
X80004500Y-112893625D01*
X80004500Y-112893559D01*
X80004500Y-112893557D01*
X80001035Y-112872794D01*
X80000295Y-112867708D01*
X79993752Y-112815217D01*
X79993751Y-112815215D01*
X79992756Y-112807230D01*
X79992730Y-112807150D01*
X79963734Y-112753568D01*
X79961351Y-112748939D01*
X79934592Y-112694203D01*
X79934545Y-112694140D01*
X79928619Y-112688685D01*
X79928619Y-112688684D01*
X79889713Y-112652868D01*
X79885957Y-112649263D01*
X79745405Y-112508711D01*
X79718091Y-112467834D01*
X79708500Y-112419616D01*
X79708500Y-108825274D01*
X79724752Y-108763376D01*
X79769315Y-108717446D01*
X79830694Y-108699331D01*
X79893055Y-108713706D01*
X79900468Y-108717597D01*
X79900471Y-108717599D01*
X80041207Y-108791463D01*
X80195529Y-108829500D01*
X80354469Y-108829500D01*
X80354471Y-108829500D01*
X80508793Y-108791463D01*
X80649529Y-108717599D01*
X80768498Y-108612201D01*
X80858787Y-108481395D01*
X80915149Y-108332782D01*
X80934307Y-108175000D01*
X80915149Y-108017218D01*
X80858787Y-107868605D01*
X80768498Y-107737799D01*
X80733389Y-107706695D01*
X80696946Y-107674409D01*
X80665600Y-107631809D01*
X80654500Y-107580097D01*
X80654500Y-105169903D01*
X80665600Y-105118191D01*
X80696946Y-105075591D01*
X80725165Y-105050591D01*
X80768498Y-105012201D01*
X80770761Y-105008921D01*
X80815901Y-104968932D01*
X80874456Y-104954500D01*
X86107982Y-104954500D01*
X86166537Y-104968933D01*
G37*
%TD.AperFunction*%
%TA.AperFunction,Conductor*%
G36*
X120238834Y-104064091D02*
G01*
X120279711Y-104091405D01*
X120585587Y-104397281D01*
X120615599Y-104445273D01*
X120621574Y-104501561D01*
X120615693Y-104550001D01*
X120634850Y-104707780D01*
X120691212Y-104856394D01*
X120781501Y-104987200D01*
X120853054Y-105050591D01*
X120884400Y-105093191D01*
X120895500Y-105144903D01*
X120895500Y-107465616D01*
X120885909Y-107513834D01*
X120858597Y-107554708D01*
X119446424Y-108966881D01*
X118989094Y-109424211D01*
X118932610Y-109456822D01*
X118867388Y-109456822D01*
X118810904Y-109424210D01*
X113730418Y-104343724D01*
X113714030Y-104323544D01*
X113708067Y-104314417D01*
X113682855Y-104294793D01*
X113671153Y-104284458D01*
X113671114Y-104284419D01*
X113669188Y-104283044D01*
X113666297Y-104279602D01*
X113663732Y-104277037D01*
X113663955Y-104276813D01*
X113628753Y-104234900D01*
X113616615Y-104173212D01*
X113635796Y-104113338D01*
X113681521Y-104070186D01*
X113742404Y-104054500D01*
X120190616Y-104054500D01*
X120238834Y-104064091D01*
G37*
%TD.AperFunction*%
%TA.AperFunction,Conductor*%
G36*
X135888834Y-101639091D02*
G01*
X135929711Y-101666405D01*
X136835587Y-102572281D01*
X136865599Y-102620273D01*
X136871574Y-102676561D01*
X136866737Y-102716405D01*
X136865693Y-102725000D01*
X136871574Y-102773437D01*
X136865599Y-102829725D01*
X136835587Y-102877717D01*
X133954711Y-105758595D01*
X133913834Y-105785909D01*
X133865616Y-105795500D01*
X127858988Y-105795500D01*
X127801785Y-105781767D01*
X127757052Y-105743561D01*
X127734539Y-105689211D01*
X127739155Y-105630564D01*
X127769893Y-105580405D01*
X128333893Y-105016405D01*
X128374770Y-104989091D01*
X128422988Y-104979500D01*
X130175544Y-104979500D01*
X130234099Y-104993932D01*
X130279238Y-105033921D01*
X130281502Y-105037201D01*
X130400471Y-105142599D01*
X130541207Y-105216463D01*
X130695529Y-105254500D01*
X130854469Y-105254500D01*
X130854471Y-105254500D01*
X131008793Y-105216463D01*
X131149529Y-105142599D01*
X131268498Y-105037201D01*
X131358787Y-104906395D01*
X131415149Y-104757782D01*
X131434307Y-104600000D01*
X131415149Y-104442218D01*
X131358787Y-104293605D01*
X131268498Y-104162799D01*
X131213654Y-104114211D01*
X131202056Y-104103936D01*
X131174135Y-104068355D01*
X131160577Y-104025208D01*
X131159417Y-104015903D01*
X131159418Y-104015900D01*
X131155466Y-103984196D01*
X131154500Y-103968625D01*
X131154500Y-103968555D01*
X131151044Y-103947851D01*
X131150296Y-103942727D01*
X131143752Y-103890217D01*
X131143751Y-103890215D01*
X131142756Y-103882230D01*
X131142730Y-103882150D01*
X131113734Y-103828568D01*
X131111351Y-103823939D01*
X131084592Y-103769203D01*
X131084545Y-103769140D01*
X131078619Y-103763685D01*
X131078619Y-103763684D01*
X131039713Y-103727868D01*
X131035957Y-103724263D01*
X129156289Y-101844595D01*
X129125551Y-101794436D01*
X129120935Y-101735789D01*
X129143448Y-101681439D01*
X129188181Y-101643233D01*
X129245384Y-101629500D01*
X135840616Y-101629500D01*
X135888834Y-101639091D01*
G37*
%TD.AperFunction*%
%TD*%
M02*
