%TF.GenerationSoftware,KiCad,Pcbnew,7.0.1*%
%TF.CreationDate,2023-05-06T15:11:30-03:00*%
%TF.ProjectId,Self_Balancing,53656c66-5f42-4616-9c61-6e63696e672e,rev?*%
%TF.SameCoordinates,Original*%
%TF.FileFunction,Legend,Bot*%
%TF.FilePolarity,Positive*%
%FSLAX46Y46*%
G04 Gerber Fmt 4.6, Leading zero omitted, Abs format (unit mm)*
G04 Created by KiCad (PCBNEW 7.0.1) date 2023-05-06 15:11:30*
%MOMM*%
%LPD*%
G01*
G04 APERTURE LIST*
G04 Aperture macros list*
%AMRoundRect*
0 Rectangle with rounded corners*
0 $1 Rounding radius*
0 $2 $3 $4 $5 $6 $7 $8 $9 X,Y pos of 4 corners*
0 Add a 4 corners polygon primitive as box body*
4,1,4,$2,$3,$4,$5,$6,$7,$8,$9,$2,$3,0*
0 Add four circle primitives for the rounded corners*
1,1,$1+$1,$2,$3*
1,1,$1+$1,$4,$5*
1,1,$1+$1,$6,$7*
1,1,$1+$1,$8,$9*
0 Add four rect primitives between the rounded corners*
20,1,$1+$1,$2,$3,$4,$5,0*
20,1,$1+$1,$4,$5,$6,$7,0*
20,1,$1+$1,$6,$7,$8,$9,0*
20,1,$1+$1,$8,$9,$2,$3,0*%
G04 Aperture macros list end*
%ADD10C,0.150000*%
%ADD11C,0.200000*%
%ADD12C,1.600000*%
%ADD13R,1.600000X1.600000*%
%ADD14C,1.524000*%
%ADD15R,1.524000X1.524000*%
%ADD16O,1.700000X1.700000*%
%ADD17R,1.700000X1.700000*%
%ADD18O,1.850000X3.048000*%
%ADD19RoundRect,0.462500X0.462500X-1.061500X0.462500X1.061500X-0.462500X1.061500X-0.462500X-1.061500X0*%
%ADD20O,1.600000X1.600000*%
G04 APERTURE END LIST*
D10*
X172300000Y-80125000D02*
X178300000Y-80125000D01*
X178300000Y-82175000D01*
X172300000Y-82175000D01*
X172300000Y-80125000D01*
G36*
X172300000Y-80125000D02*
G01*
X178300000Y-80125000D01*
X178300000Y-82175000D01*
X172300000Y-82175000D01*
X172300000Y-80125000D01*
G37*
X130300000Y-105274600D02*
X136300000Y-105274600D01*
X136300000Y-109850000D01*
X130300000Y-109850000D01*
X130300000Y-105274600D01*
G36*
X130300000Y-105274600D02*
G01*
X136300000Y-105274600D01*
X136300000Y-109850000D01*
X130300000Y-109850000D01*
X130300000Y-105274600D01*
G37*
X152600000Y-125550000D02*
X157750000Y-125550000D01*
X157750000Y-128300000D01*
X152600000Y-128300000D01*
X152600000Y-125550000D01*
G36*
X152600000Y-125550000D02*
G01*
X157750000Y-125550000D01*
X157750000Y-128300000D01*
X152600000Y-128300000D01*
X152600000Y-125550000D01*
G37*
X150300000Y-95200000D02*
X152300000Y-95200000D01*
X152300000Y-109850000D01*
X150300000Y-109850000D01*
X150300000Y-95200000D01*
G36*
X150300000Y-95200000D02*
G01*
X152300000Y-95200000D01*
X152300000Y-109850000D01*
X150300000Y-109850000D01*
X150300000Y-95200000D01*
G37*
X138350000Y-77200000D02*
X140950000Y-77200000D01*
X140950000Y-79900000D01*
X138350000Y-79900000D01*
X138350000Y-77200000D01*
G36*
X138350000Y-77200000D02*
G01*
X140950000Y-77200000D01*
X140950000Y-79900000D01*
X138350000Y-79900000D01*
X138350000Y-77200000D01*
G37*
X172300000Y-123300000D02*
X178300000Y-123300000D01*
X178300000Y-125350000D01*
X172300000Y-125350000D01*
X172300000Y-123300000D01*
G36*
X172300000Y-123300000D02*
G01*
X178300000Y-123300000D01*
X178300000Y-125350000D01*
X172300000Y-125350000D01*
X172300000Y-123300000D01*
G37*
D11*
X134716666Y-101662619D02*
X135049999Y-101186428D01*
X135288094Y-101662619D02*
X135288094Y-100662619D01*
X135288094Y-100662619D02*
X134907142Y-100662619D01*
X134907142Y-100662619D02*
X134811904Y-100710238D01*
X134811904Y-100710238D02*
X134764285Y-100757857D01*
X134764285Y-100757857D02*
X134716666Y-100853095D01*
X134716666Y-100853095D02*
X134716666Y-100995952D01*
X134716666Y-100995952D02*
X134764285Y-101091190D01*
X134764285Y-101091190D02*
X134811904Y-101138809D01*
X134811904Y-101138809D02*
X134907142Y-101186428D01*
X134907142Y-101186428D02*
X135288094Y-101186428D01*
X134383332Y-100662619D02*
X133716666Y-101662619D01*
X133716666Y-100662619D02*
X134383332Y-101662619D01*
D10*
X135769047Y-96520095D02*
X135769047Y-95720095D01*
X135769047Y-95720095D02*
X135578571Y-95720095D01*
X135578571Y-95720095D02*
X135464285Y-95758190D01*
X135464285Y-95758190D02*
X135388095Y-95834380D01*
X135388095Y-95834380D02*
X135350000Y-95910571D01*
X135350000Y-95910571D02*
X135311904Y-96062952D01*
X135311904Y-96062952D02*
X135311904Y-96177238D01*
X135311904Y-96177238D02*
X135350000Y-96329619D01*
X135350000Y-96329619D02*
X135388095Y-96405809D01*
X135388095Y-96405809D02*
X135464285Y-96482000D01*
X135464285Y-96482000D02*
X135578571Y-96520095D01*
X135578571Y-96520095D02*
X135769047Y-96520095D01*
X135083333Y-95720095D02*
X134626190Y-95720095D01*
X134854762Y-96520095D02*
X134854762Y-95720095D01*
X133902380Y-96520095D02*
X134169047Y-96139142D01*
X134359523Y-96520095D02*
X134359523Y-95720095D01*
X134359523Y-95720095D02*
X134054761Y-95720095D01*
X134054761Y-95720095D02*
X133978571Y-95758190D01*
X133978571Y-95758190D02*
X133940476Y-95796285D01*
X133940476Y-95796285D02*
X133902380Y-95872476D01*
X133902380Y-95872476D02*
X133902380Y-95986761D01*
X133902380Y-95986761D02*
X133940476Y-96062952D01*
X133940476Y-96062952D02*
X133978571Y-96101047D01*
X133978571Y-96101047D02*
X134054761Y-96139142D01*
X134054761Y-96139142D02*
X134359523Y-96139142D01*
X133445238Y-95720095D02*
X133445238Y-95910571D01*
X133635714Y-95834380D02*
X133445238Y-95910571D01*
X133445238Y-95910571D02*
X133254761Y-95834380D01*
X133559523Y-96062952D02*
X133445238Y-95910571D01*
X133445238Y-95910571D02*
X133330952Y-96062952D01*
D11*
X175188094Y-83112619D02*
X174569047Y-83112619D01*
X174569047Y-83112619D02*
X174902380Y-83493571D01*
X174902380Y-83493571D02*
X174759523Y-83493571D01*
X174759523Y-83493571D02*
X174664285Y-83541190D01*
X174664285Y-83541190D02*
X174616666Y-83588809D01*
X174616666Y-83588809D02*
X174569047Y-83684047D01*
X174569047Y-83684047D02*
X174569047Y-83922142D01*
X174569047Y-83922142D02*
X174616666Y-84017380D01*
X174616666Y-84017380D02*
X174664285Y-84065000D01*
X174664285Y-84065000D02*
X174759523Y-84112619D01*
X174759523Y-84112619D02*
X175045237Y-84112619D01*
X175045237Y-84112619D02*
X175140475Y-84065000D01*
X175140475Y-84065000D02*
X175188094Y-84017380D01*
X174283332Y-83112619D02*
X173949999Y-84112619D01*
X173949999Y-84112619D02*
X173616666Y-83112619D01*
X173378570Y-83112619D02*
X172759523Y-83112619D01*
X172759523Y-83112619D02*
X173092856Y-83493571D01*
X173092856Y-83493571D02*
X172949999Y-83493571D01*
X172949999Y-83493571D02*
X172854761Y-83541190D01*
X172854761Y-83541190D02*
X172807142Y-83588809D01*
X172807142Y-83588809D02*
X172759523Y-83684047D01*
X172759523Y-83684047D02*
X172759523Y-83922142D01*
X172759523Y-83922142D02*
X172807142Y-84017380D01*
X172807142Y-84017380D02*
X172854761Y-84065000D01*
X172854761Y-84065000D02*
X172949999Y-84112619D01*
X172949999Y-84112619D02*
X173235713Y-84112619D01*
X173235713Y-84112619D02*
X173330951Y-84065000D01*
X173330951Y-84065000D02*
X173378570Y-84017380D01*
X143062619Y-104961905D02*
X143062619Y-105580952D01*
X143062619Y-105580952D02*
X143443571Y-105247619D01*
X143443571Y-105247619D02*
X143443571Y-105390476D01*
X143443571Y-105390476D02*
X143491190Y-105485714D01*
X143491190Y-105485714D02*
X143538809Y-105533333D01*
X143538809Y-105533333D02*
X143634047Y-105580952D01*
X143634047Y-105580952D02*
X143872142Y-105580952D01*
X143872142Y-105580952D02*
X143967380Y-105533333D01*
X143967380Y-105533333D02*
X144015000Y-105485714D01*
X144015000Y-105485714D02*
X144062619Y-105390476D01*
X144062619Y-105390476D02*
X144062619Y-105104762D01*
X144062619Y-105104762D02*
X144015000Y-105009524D01*
X144015000Y-105009524D02*
X143967380Y-104961905D01*
X143062619Y-105866667D02*
X144062619Y-106200000D01*
X144062619Y-106200000D02*
X143062619Y-106533333D01*
X143062619Y-106771429D02*
X143062619Y-107390476D01*
X143062619Y-107390476D02*
X143443571Y-107057143D01*
X143443571Y-107057143D02*
X143443571Y-107200000D01*
X143443571Y-107200000D02*
X143491190Y-107295238D01*
X143491190Y-107295238D02*
X143538809Y-107342857D01*
X143538809Y-107342857D02*
X143634047Y-107390476D01*
X143634047Y-107390476D02*
X143872142Y-107390476D01*
X143872142Y-107390476D02*
X143967380Y-107342857D01*
X143967380Y-107342857D02*
X144015000Y-107295238D01*
X144015000Y-107295238D02*
X144062619Y-107200000D01*
X144062619Y-107200000D02*
X144062619Y-106914286D01*
X144062619Y-106914286D02*
X144015000Y-106819048D01*
X144015000Y-106819048D02*
X143967380Y-106771429D01*
X146712619Y-106483333D02*
X146236428Y-106150000D01*
X146712619Y-105911905D02*
X145712619Y-105911905D01*
X145712619Y-105911905D02*
X145712619Y-106292857D01*
X145712619Y-106292857D02*
X145760238Y-106388095D01*
X145760238Y-106388095D02*
X145807857Y-106435714D01*
X145807857Y-106435714D02*
X145903095Y-106483333D01*
X145903095Y-106483333D02*
X146045952Y-106483333D01*
X146045952Y-106483333D02*
X146141190Y-106435714D01*
X146141190Y-106435714D02*
X146188809Y-106388095D01*
X146188809Y-106388095D02*
X146236428Y-106292857D01*
X146236428Y-106292857D02*
X146236428Y-105911905D01*
X145712619Y-106816667D02*
X146712619Y-107483333D01*
X145712619Y-107483333D02*
X146712619Y-106816667D01*
X148262619Y-106038095D02*
X148262619Y-106609523D01*
X149262619Y-106323809D02*
X148262619Y-106323809D01*
X148262619Y-106847619D02*
X149262619Y-107514285D01*
X148262619Y-107514285D02*
X149262619Y-106847619D01*
X140612619Y-106716667D02*
X141612619Y-107383333D01*
X140612619Y-107383333D02*
X141612619Y-106716667D01*
X149165000Y-97535714D02*
X149212619Y-97678571D01*
X149212619Y-97678571D02*
X149212619Y-97916666D01*
X149212619Y-97916666D02*
X149165000Y-98011904D01*
X149165000Y-98011904D02*
X149117380Y-98059523D01*
X149117380Y-98059523D02*
X149022142Y-98107142D01*
X149022142Y-98107142D02*
X148926904Y-98107142D01*
X148926904Y-98107142D02*
X148831666Y-98059523D01*
X148831666Y-98059523D02*
X148784047Y-98011904D01*
X148784047Y-98011904D02*
X148736428Y-97916666D01*
X148736428Y-97916666D02*
X148688809Y-97726190D01*
X148688809Y-97726190D02*
X148641190Y-97630952D01*
X148641190Y-97630952D02*
X148593571Y-97583333D01*
X148593571Y-97583333D02*
X148498333Y-97535714D01*
X148498333Y-97535714D02*
X148403095Y-97535714D01*
X148403095Y-97535714D02*
X148307857Y-97583333D01*
X148307857Y-97583333D02*
X148260238Y-97630952D01*
X148260238Y-97630952D02*
X148212619Y-97726190D01*
X148212619Y-97726190D02*
X148212619Y-97964285D01*
X148212619Y-97964285D02*
X148260238Y-98107142D01*
X149212619Y-98535714D02*
X148212619Y-98535714D01*
X148212619Y-98535714D02*
X148212619Y-98773809D01*
X148212619Y-98773809D02*
X148260238Y-98916666D01*
X148260238Y-98916666D02*
X148355476Y-99011904D01*
X148355476Y-99011904D02*
X148450714Y-99059523D01*
X148450714Y-99059523D02*
X148641190Y-99107142D01*
X148641190Y-99107142D02*
X148784047Y-99107142D01*
X148784047Y-99107142D02*
X148974523Y-99059523D01*
X148974523Y-99059523D02*
X149069761Y-99011904D01*
X149069761Y-99011904D02*
X149165000Y-98916666D01*
X149165000Y-98916666D02*
X149212619Y-98773809D01*
X149212619Y-98773809D02*
X149212619Y-98535714D01*
X148926904Y-99488095D02*
X148926904Y-99964285D01*
X149212619Y-99392857D02*
X148212619Y-99726190D01*
X148212619Y-99726190D02*
X149212619Y-100059523D01*
X174690476Y-119617380D02*
X174738095Y-119665000D01*
X174738095Y-119665000D02*
X174880952Y-119712619D01*
X174880952Y-119712619D02*
X174976190Y-119712619D01*
X174976190Y-119712619D02*
X175119047Y-119665000D01*
X175119047Y-119665000D02*
X175214285Y-119569761D01*
X175214285Y-119569761D02*
X175261904Y-119474523D01*
X175261904Y-119474523D02*
X175309523Y-119284047D01*
X175309523Y-119284047D02*
X175309523Y-119141190D01*
X175309523Y-119141190D02*
X175261904Y-118950714D01*
X175261904Y-118950714D02*
X175214285Y-118855476D01*
X175214285Y-118855476D02*
X175119047Y-118760238D01*
X175119047Y-118760238D02*
X174976190Y-118712619D01*
X174976190Y-118712619D02*
X174880952Y-118712619D01*
X174880952Y-118712619D02*
X174738095Y-118760238D01*
X174738095Y-118760238D02*
X174690476Y-118807857D01*
X174261904Y-119712619D02*
X174261904Y-118712619D01*
X174261904Y-119188809D02*
X173690476Y-119188809D01*
X173690476Y-119712619D02*
X173690476Y-118712619D01*
X172690476Y-119712619D02*
X173261904Y-119712619D01*
X172976190Y-119712619D02*
X172976190Y-118712619D01*
X172976190Y-118712619D02*
X173071428Y-118855476D01*
X173071428Y-118855476D02*
X173166666Y-118950714D01*
X173166666Y-118950714D02*
X173261904Y-118998333D01*
X174690476Y-117067380D02*
X174738095Y-117115000D01*
X174738095Y-117115000D02*
X174880952Y-117162619D01*
X174880952Y-117162619D02*
X174976190Y-117162619D01*
X174976190Y-117162619D02*
X175119047Y-117115000D01*
X175119047Y-117115000D02*
X175214285Y-117019761D01*
X175214285Y-117019761D02*
X175261904Y-116924523D01*
X175261904Y-116924523D02*
X175309523Y-116734047D01*
X175309523Y-116734047D02*
X175309523Y-116591190D01*
X175309523Y-116591190D02*
X175261904Y-116400714D01*
X175261904Y-116400714D02*
X175214285Y-116305476D01*
X175214285Y-116305476D02*
X175119047Y-116210238D01*
X175119047Y-116210238D02*
X174976190Y-116162619D01*
X174976190Y-116162619D02*
X174880952Y-116162619D01*
X174880952Y-116162619D02*
X174738095Y-116210238D01*
X174738095Y-116210238D02*
X174690476Y-116257857D01*
X174261904Y-117162619D02*
X174261904Y-116162619D01*
X174261904Y-116638809D02*
X173690476Y-116638809D01*
X173690476Y-117162619D02*
X173690476Y-116162619D01*
X173261904Y-116257857D02*
X173214285Y-116210238D01*
X173214285Y-116210238D02*
X173119047Y-116162619D01*
X173119047Y-116162619D02*
X172880952Y-116162619D01*
X172880952Y-116162619D02*
X172785714Y-116210238D01*
X172785714Y-116210238D02*
X172738095Y-116257857D01*
X172738095Y-116257857D02*
X172690476Y-116353095D01*
X172690476Y-116353095D02*
X172690476Y-116448333D01*
X172690476Y-116448333D02*
X172738095Y-116591190D01*
X172738095Y-116591190D02*
X173309523Y-117162619D01*
X173309523Y-117162619D02*
X172690476Y-117162619D01*
X135883332Y-103262619D02*
X135549999Y-104262619D01*
X135549999Y-104262619D02*
X135216666Y-103262619D01*
X134311904Y-104167380D02*
X134359523Y-104215000D01*
X134359523Y-104215000D02*
X134502380Y-104262619D01*
X134502380Y-104262619D02*
X134597618Y-104262619D01*
X134597618Y-104262619D02*
X134740475Y-104215000D01*
X134740475Y-104215000D02*
X134835713Y-104119761D01*
X134835713Y-104119761D02*
X134883332Y-104024523D01*
X134883332Y-104024523D02*
X134930951Y-103834047D01*
X134930951Y-103834047D02*
X134930951Y-103691190D01*
X134930951Y-103691190D02*
X134883332Y-103500714D01*
X134883332Y-103500714D02*
X134835713Y-103405476D01*
X134835713Y-103405476D02*
X134740475Y-103310238D01*
X134740475Y-103310238D02*
X134597618Y-103262619D01*
X134597618Y-103262619D02*
X134502380Y-103262619D01*
X134502380Y-103262619D02*
X134359523Y-103310238D01*
X134359523Y-103310238D02*
X134311904Y-103357857D01*
X133311904Y-104167380D02*
X133359523Y-104215000D01*
X133359523Y-104215000D02*
X133502380Y-104262619D01*
X133502380Y-104262619D02*
X133597618Y-104262619D01*
X133597618Y-104262619D02*
X133740475Y-104215000D01*
X133740475Y-104215000D02*
X133835713Y-104119761D01*
X133835713Y-104119761D02*
X133883332Y-104024523D01*
X133883332Y-104024523D02*
X133930951Y-103834047D01*
X133930951Y-103834047D02*
X133930951Y-103691190D01*
X133930951Y-103691190D02*
X133883332Y-103500714D01*
X133883332Y-103500714D02*
X133835713Y-103405476D01*
X133835713Y-103405476D02*
X133740475Y-103310238D01*
X133740475Y-103310238D02*
X133597618Y-103262619D01*
X133597618Y-103262619D02*
X133502380Y-103262619D01*
X133502380Y-103262619D02*
X133359523Y-103310238D01*
X133359523Y-103310238D02*
X133311904Y-103357857D01*
X174540476Y-86567380D02*
X174588095Y-86615000D01*
X174588095Y-86615000D02*
X174730952Y-86662619D01*
X174730952Y-86662619D02*
X174826190Y-86662619D01*
X174826190Y-86662619D02*
X174969047Y-86615000D01*
X174969047Y-86615000D02*
X175064285Y-86519761D01*
X175064285Y-86519761D02*
X175111904Y-86424523D01*
X175111904Y-86424523D02*
X175159523Y-86234047D01*
X175159523Y-86234047D02*
X175159523Y-86091190D01*
X175159523Y-86091190D02*
X175111904Y-85900714D01*
X175111904Y-85900714D02*
X175064285Y-85805476D01*
X175064285Y-85805476D02*
X174969047Y-85710238D01*
X174969047Y-85710238D02*
X174826190Y-85662619D01*
X174826190Y-85662619D02*
X174730952Y-85662619D01*
X174730952Y-85662619D02*
X174588095Y-85710238D01*
X174588095Y-85710238D02*
X174540476Y-85757857D01*
X174111904Y-86662619D02*
X174111904Y-85662619D01*
X174111904Y-86138809D02*
X173540476Y-86138809D01*
X173540476Y-86662619D02*
X173540476Y-85662619D01*
X172540476Y-86662619D02*
X173111904Y-86662619D01*
X172826190Y-86662619D02*
X172826190Y-85662619D01*
X172826190Y-85662619D02*
X172921428Y-85805476D01*
X172921428Y-85805476D02*
X173016666Y-85900714D01*
X173016666Y-85900714D02*
X173111904Y-85948333D01*
X146665000Y-97559524D02*
X146712619Y-97702381D01*
X146712619Y-97702381D02*
X146712619Y-97940476D01*
X146712619Y-97940476D02*
X146665000Y-98035714D01*
X146665000Y-98035714D02*
X146617380Y-98083333D01*
X146617380Y-98083333D02*
X146522142Y-98130952D01*
X146522142Y-98130952D02*
X146426904Y-98130952D01*
X146426904Y-98130952D02*
X146331666Y-98083333D01*
X146331666Y-98083333D02*
X146284047Y-98035714D01*
X146284047Y-98035714D02*
X146236428Y-97940476D01*
X146236428Y-97940476D02*
X146188809Y-97750000D01*
X146188809Y-97750000D02*
X146141190Y-97654762D01*
X146141190Y-97654762D02*
X146093571Y-97607143D01*
X146093571Y-97607143D02*
X145998333Y-97559524D01*
X145998333Y-97559524D02*
X145903095Y-97559524D01*
X145903095Y-97559524D02*
X145807857Y-97607143D01*
X145807857Y-97607143D02*
X145760238Y-97654762D01*
X145760238Y-97654762D02*
X145712619Y-97750000D01*
X145712619Y-97750000D02*
X145712619Y-97988095D01*
X145712619Y-97988095D02*
X145760238Y-98130952D01*
X146617380Y-99130952D02*
X146665000Y-99083333D01*
X146665000Y-99083333D02*
X146712619Y-98940476D01*
X146712619Y-98940476D02*
X146712619Y-98845238D01*
X146712619Y-98845238D02*
X146665000Y-98702381D01*
X146665000Y-98702381D02*
X146569761Y-98607143D01*
X146569761Y-98607143D02*
X146474523Y-98559524D01*
X146474523Y-98559524D02*
X146284047Y-98511905D01*
X146284047Y-98511905D02*
X146141190Y-98511905D01*
X146141190Y-98511905D02*
X145950714Y-98559524D01*
X145950714Y-98559524D02*
X145855476Y-98607143D01*
X145855476Y-98607143D02*
X145760238Y-98702381D01*
X145760238Y-98702381D02*
X145712619Y-98845238D01*
X145712619Y-98845238D02*
X145712619Y-98940476D01*
X145712619Y-98940476D02*
X145760238Y-99083333D01*
X145760238Y-99083333D02*
X145807857Y-99130952D01*
X146712619Y-100035714D02*
X146712619Y-99559524D01*
X146712619Y-99559524D02*
X145712619Y-99559524D01*
X140612619Y-97416667D02*
X141612619Y-98083333D01*
X140612619Y-98083333D02*
X141612619Y-97416667D01*
X153312619Y-97566667D02*
X154312619Y-98233333D01*
X153312619Y-98233333D02*
X154312619Y-97566667D01*
X135311904Y-98162619D02*
X134740476Y-98162619D01*
X135026190Y-99162619D02*
X135026190Y-98162619D01*
X134502380Y-98162619D02*
X133835714Y-99162619D01*
X133835714Y-98162619D02*
X134502380Y-99162619D01*
X174540476Y-89117380D02*
X174588095Y-89165000D01*
X174588095Y-89165000D02*
X174730952Y-89212619D01*
X174730952Y-89212619D02*
X174826190Y-89212619D01*
X174826190Y-89212619D02*
X174969047Y-89165000D01*
X174969047Y-89165000D02*
X175064285Y-89069761D01*
X175064285Y-89069761D02*
X175111904Y-88974523D01*
X175111904Y-88974523D02*
X175159523Y-88784047D01*
X175159523Y-88784047D02*
X175159523Y-88641190D01*
X175159523Y-88641190D02*
X175111904Y-88450714D01*
X175111904Y-88450714D02*
X175064285Y-88355476D01*
X175064285Y-88355476D02*
X174969047Y-88260238D01*
X174969047Y-88260238D02*
X174826190Y-88212619D01*
X174826190Y-88212619D02*
X174730952Y-88212619D01*
X174730952Y-88212619D02*
X174588095Y-88260238D01*
X174588095Y-88260238D02*
X174540476Y-88307857D01*
X174111904Y-89212619D02*
X174111904Y-88212619D01*
X174111904Y-88688809D02*
X173540476Y-88688809D01*
X173540476Y-89212619D02*
X173540476Y-88212619D01*
X173111904Y-88307857D02*
X173064285Y-88260238D01*
X173064285Y-88260238D02*
X172969047Y-88212619D01*
X172969047Y-88212619D02*
X172730952Y-88212619D01*
X172730952Y-88212619D02*
X172635714Y-88260238D01*
X172635714Y-88260238D02*
X172588095Y-88307857D01*
X172588095Y-88307857D02*
X172540476Y-88403095D01*
X172540476Y-88403095D02*
X172540476Y-88498333D01*
X172540476Y-88498333D02*
X172588095Y-88641190D01*
X172588095Y-88641190D02*
X173159523Y-89212619D01*
X173159523Y-89212619D02*
X172540476Y-89212619D01*
X143162619Y-97511905D02*
X143162619Y-98130952D01*
X143162619Y-98130952D02*
X143543571Y-97797619D01*
X143543571Y-97797619D02*
X143543571Y-97940476D01*
X143543571Y-97940476D02*
X143591190Y-98035714D01*
X143591190Y-98035714D02*
X143638809Y-98083333D01*
X143638809Y-98083333D02*
X143734047Y-98130952D01*
X143734047Y-98130952D02*
X143972142Y-98130952D01*
X143972142Y-98130952D02*
X144067380Y-98083333D01*
X144067380Y-98083333D02*
X144115000Y-98035714D01*
X144115000Y-98035714D02*
X144162619Y-97940476D01*
X144162619Y-97940476D02*
X144162619Y-97654762D01*
X144162619Y-97654762D02*
X144115000Y-97559524D01*
X144115000Y-97559524D02*
X144067380Y-97511905D01*
X143162619Y-98416667D02*
X144162619Y-98750000D01*
X144162619Y-98750000D02*
X143162619Y-99083333D01*
X143162619Y-99321429D02*
X143162619Y-99940476D01*
X143162619Y-99940476D02*
X143543571Y-99607143D01*
X143543571Y-99607143D02*
X143543571Y-99750000D01*
X143543571Y-99750000D02*
X143591190Y-99845238D01*
X143591190Y-99845238D02*
X143638809Y-99892857D01*
X143638809Y-99892857D02*
X143734047Y-99940476D01*
X143734047Y-99940476D02*
X143972142Y-99940476D01*
X143972142Y-99940476D02*
X144067380Y-99892857D01*
X144067380Y-99892857D02*
X144115000Y-99845238D01*
X144115000Y-99845238D02*
X144162619Y-99750000D01*
X144162619Y-99750000D02*
X144162619Y-99464286D01*
X144162619Y-99464286D02*
X144115000Y-99369048D01*
X144115000Y-99369048D02*
X144067380Y-99321429D01*
X175338094Y-121262619D02*
X174719047Y-121262619D01*
X174719047Y-121262619D02*
X175052380Y-121643571D01*
X175052380Y-121643571D02*
X174909523Y-121643571D01*
X174909523Y-121643571D02*
X174814285Y-121691190D01*
X174814285Y-121691190D02*
X174766666Y-121738809D01*
X174766666Y-121738809D02*
X174719047Y-121834047D01*
X174719047Y-121834047D02*
X174719047Y-122072142D01*
X174719047Y-122072142D02*
X174766666Y-122167380D01*
X174766666Y-122167380D02*
X174814285Y-122215000D01*
X174814285Y-122215000D02*
X174909523Y-122262619D01*
X174909523Y-122262619D02*
X175195237Y-122262619D01*
X175195237Y-122262619D02*
X175290475Y-122215000D01*
X175290475Y-122215000D02*
X175338094Y-122167380D01*
X174433332Y-121262619D02*
X174099999Y-122262619D01*
X174099999Y-122262619D02*
X173766666Y-121262619D01*
X173528570Y-121262619D02*
X172909523Y-121262619D01*
X172909523Y-121262619D02*
X173242856Y-121643571D01*
X173242856Y-121643571D02*
X173099999Y-121643571D01*
X173099999Y-121643571D02*
X173004761Y-121691190D01*
X173004761Y-121691190D02*
X172957142Y-121738809D01*
X172957142Y-121738809D02*
X172909523Y-121834047D01*
X172909523Y-121834047D02*
X172909523Y-122072142D01*
X172909523Y-122072142D02*
X172957142Y-122167380D01*
X172957142Y-122167380D02*
X173004761Y-122215000D01*
X173004761Y-122215000D02*
X173099999Y-122262619D01*
X173099999Y-122262619D02*
X173385713Y-122262619D01*
X173385713Y-122262619D02*
X173480951Y-122215000D01*
X173480951Y-122215000D02*
X173528570Y-122167380D01*
X153312619Y-106866667D02*
X154312619Y-107533333D01*
X153312619Y-107533333D02*
X154312619Y-106866667D01*
%TO.C,G\u002A\u002A\u002A*%
G36*
X136177535Y-118497402D02*
G01*
X136195876Y-118515713D01*
X136211826Y-118555433D01*
X136230646Y-118601175D01*
X136260102Y-118637489D01*
X136300329Y-118656210D01*
X136311980Y-118660136D01*
X136347892Y-118678720D01*
X136385390Y-118704600D01*
X136401633Y-118716168D01*
X136451449Y-118743171D01*
X136502412Y-118762117D01*
X136523714Y-118768391D01*
X136580982Y-118789298D01*
X136633294Y-118812947D01*
X136655924Y-118824482D01*
X136687179Y-118837878D01*
X136715375Y-118843455D01*
X136747521Y-118841230D01*
X136790621Y-118831218D01*
X136851683Y-118813435D01*
X136900057Y-118800060D01*
X136965581Y-118786236D01*
X137016363Y-118781142D01*
X137049188Y-118785012D01*
X137060844Y-118798083D01*
X137057540Y-118809284D01*
X137038240Y-118834660D01*
X137008952Y-118859851D01*
X136978100Y-118876839D01*
X136970196Y-118880370D01*
X136959927Y-118895467D01*
X136963062Y-118925746D01*
X136966855Y-118957824D01*
X136964239Y-119011406D01*
X136953535Y-119062555D01*
X136936523Y-119099611D01*
X136925953Y-119109605D01*
X136893466Y-119129251D01*
X136852136Y-119146632D01*
X136786274Y-119168928D01*
X136894146Y-119279728D01*
X136897578Y-119283247D01*
X136951379Y-119336230D01*
X136994220Y-119372941D01*
X137031190Y-119397301D01*
X137067380Y-119413233D01*
X137106347Y-119427025D01*
X137163897Y-119447874D01*
X137220079Y-119468642D01*
X137307414Y-119501345D01*
X137370309Y-119467863D01*
X137395588Y-119455065D01*
X137429424Y-119440181D01*
X137449400Y-119434382D01*
X137462692Y-119424485D01*
X137473444Y-119398432D01*
X137476633Y-119384640D01*
X137500784Y-119314737D01*
X137532938Y-119269633D01*
X137544481Y-119259990D01*
X137558633Y-119255629D01*
X137575942Y-119265267D01*
X137604007Y-119291215D01*
X137618528Y-119305014D01*
X137642004Y-119323448D01*
X137659271Y-119326779D01*
X137678293Y-119317865D01*
X137698444Y-119308955D01*
X137710823Y-119311679D01*
X137718872Y-119329826D01*
X137733539Y-119345376D01*
X137758407Y-119355103D01*
X137798790Y-119360895D01*
X137860003Y-119364637D01*
X137884782Y-119365858D01*
X137943301Y-119369405D01*
X137993151Y-119373291D01*
X138025604Y-119376872D01*
X138049648Y-119381534D01*
X138062609Y-119390826D01*
X138066396Y-119411710D01*
X138064822Y-119451438D01*
X138060896Y-119519353D01*
X138003512Y-119514999D01*
X137990278Y-119514273D01*
X137950603Y-119518560D01*
X137932265Y-119535541D01*
X137933321Y-119566648D01*
X137933415Y-119566997D01*
X137950947Y-119587526D01*
X137991312Y-119599675D01*
X137997835Y-119600857D01*
X138039278Y-119613544D01*
X138071220Y-119630909D01*
X138073587Y-119632834D01*
X138087845Y-119646643D01*
X138093236Y-119662294D01*
X138090471Y-119687593D01*
X138080258Y-119730347D01*
X138079423Y-119733620D01*
X138064950Y-119779697D01*
X138048457Y-119807285D01*
X138025765Y-119823530D01*
X138013070Y-119831337D01*
X137986759Y-119862371D01*
X137962167Y-119915119D01*
X137958344Y-119925246D01*
X137949529Y-119950700D01*
X137943518Y-119975015D01*
X137940126Y-120002730D01*
X137939169Y-120038382D01*
X137940464Y-120086510D01*
X137943827Y-120151651D01*
X137949074Y-120238344D01*
X137954099Y-120315334D01*
X137959712Y-120393238D01*
X137965142Y-120461157D01*
X137969957Y-120513719D01*
X137973726Y-120545550D01*
X137983002Y-120604376D01*
X138049164Y-120600102D01*
X138052310Y-120599905D01*
X138095569Y-120599997D01*
X138126296Y-120609112D01*
X138156848Y-120630768D01*
X138166400Y-120638034D01*
X138214913Y-120663403D01*
X138273432Y-120681294D01*
X138305288Y-120689697D01*
X138372261Y-120718278D01*
X138449212Y-120765012D01*
X138475056Y-120782709D01*
X138514708Y-120812025D01*
X138538819Y-120835088D01*
X138552003Y-120856825D01*
X138558872Y-120882167D01*
X138559399Y-120884910D01*
X138572943Y-120928504D01*
X138592146Y-120965890D01*
X138607569Y-120992653D01*
X138614912Y-121035568D01*
X138597287Y-121075758D01*
X138593204Y-121081379D01*
X138578393Y-121115525D01*
X138588226Y-121141263D01*
X138623136Y-121160000D01*
X138626154Y-121161011D01*
X138674142Y-121183910D01*
X138700158Y-121214571D01*
X138707988Y-121257338D01*
X138707993Y-121258339D01*
X138713898Y-121293094D01*
X138727597Y-121316831D01*
X138738127Y-121327874D01*
X138747205Y-121347732D01*
X138745704Y-121356000D01*
X138730514Y-121386498D01*
X138702769Y-121426433D01*
X138667193Y-121469865D01*
X138628512Y-121510857D01*
X138591452Y-121543469D01*
X138585949Y-121547697D01*
X138543215Y-121584814D01*
X138521386Y-121616121D01*
X138518174Y-121646904D01*
X138531292Y-121682445D01*
X138543140Y-121707617D01*
X138544142Y-121722380D01*
X138531936Y-121730262D01*
X138511697Y-121733252D01*
X138478699Y-121729655D01*
X138466192Y-121727292D01*
X138411216Y-121730878D01*
X138357839Y-121752627D01*
X138317075Y-121788530D01*
X138306193Y-121802724D01*
X138287505Y-121819781D01*
X138264389Y-121824391D01*
X138226231Y-121820261D01*
X138162661Y-121803796D01*
X138102685Y-121770426D01*
X138041991Y-121716407D01*
X138025990Y-121700319D01*
X138002144Y-121678390D01*
X137989596Y-121669791D01*
X137987501Y-121674715D01*
X137984358Y-121700408D01*
X137981809Y-121743121D01*
X137980266Y-121797248D01*
X137979412Y-121827776D01*
X137975814Y-121885328D01*
X137970343Y-121932779D01*
X137963802Y-121962106D01*
X137953448Y-121983979D01*
X137937210Y-121994055D01*
X137907065Y-121990309D01*
X137906981Y-121990291D01*
X137877526Y-121986043D01*
X137828744Y-121981278D01*
X137767397Y-121976575D01*
X137700245Y-121972518D01*
X137660372Y-121970338D01*
X137602052Y-121966231D01*
X137561020Y-121961131D01*
X137531495Y-121953848D01*
X137507698Y-121943193D01*
X137483845Y-121927974D01*
X137467326Y-121917276D01*
X137432641Y-121899179D01*
X137407987Y-121892024D01*
X137394707Y-121886443D01*
X137365588Y-121865214D01*
X137327256Y-121831827D01*
X137284500Y-121790228D01*
X137248931Y-121754466D01*
X137209738Y-121718392D01*
X137176874Y-121694320D01*
X137143980Y-121677801D01*
X137104697Y-121664383D01*
X137066313Y-121654143D01*
X137014395Y-121643494D01*
X136973971Y-121638722D01*
X136923582Y-121637109D01*
X136921318Y-121709008D01*
X136921296Y-121709683D01*
X136918579Y-121760069D01*
X136913708Y-121822765D01*
X136907721Y-121884362D01*
X136896389Y-121987816D01*
X136818478Y-122059305D01*
X136769063Y-122101528D01*
X136698984Y-122148150D01*
X136636180Y-122171851D01*
X136579032Y-122173401D01*
X136539145Y-122170554D01*
X136481102Y-122177051D01*
X136428879Y-122193561D01*
X136392367Y-122217734D01*
X136367325Y-122235586D01*
X136332796Y-122244984D01*
X136332783Y-122244984D01*
X136304349Y-122251259D01*
X136262681Y-122267696D01*
X136216796Y-122290738D01*
X136196872Y-122301608D01*
X136149780Y-122323247D01*
X136107832Y-122333745D01*
X136059371Y-122336492D01*
X136013939Y-122338649D01*
X135973102Y-122348772D01*
X135934956Y-122370315D01*
X135934175Y-122370856D01*
X135907577Y-122391354D01*
X135892018Y-122412041D01*
X135883271Y-122441552D01*
X135877113Y-122488522D01*
X135874077Y-122529162D01*
X135873347Y-122583199D01*
X135876416Y-122625061D01*
X135879617Y-122656316D01*
X135873519Y-122682740D01*
X135852841Y-122706794D01*
X135840168Y-122720891D01*
X135821767Y-122758256D01*
X135809875Y-122814224D01*
X135806396Y-122843077D01*
X135802908Y-122864378D01*
X135795748Y-122878610D01*
X135781172Y-122886826D01*
X135755438Y-122890079D01*
X135714800Y-122889420D01*
X135655515Y-122885904D01*
X135573840Y-122880581D01*
X135426773Y-122871401D01*
X135426773Y-122951375D01*
X135426494Y-122986397D01*
X135423482Y-123013279D01*
X135414417Y-123035769D01*
X135395975Y-123059363D01*
X135364835Y-123089558D01*
X135317675Y-123131848D01*
X135288450Y-123169838D01*
X135268812Y-123230942D01*
X135265848Y-123305879D01*
X135279632Y-123391157D01*
X135310240Y-123483285D01*
X135317121Y-123502072D01*
X135320734Y-123534274D01*
X135310681Y-123572456D01*
X135301528Y-123602196D01*
X135302272Y-123624225D01*
X135315920Y-123644040D01*
X135324840Y-123654737D01*
X135331436Y-123670797D01*
X135328576Y-123693349D01*
X135316297Y-123731348D01*
X135312654Y-123743118D01*
X135301914Y-123791898D01*
X135292720Y-123852884D01*
X135286747Y-123915635D01*
X135285269Y-123937818D01*
X135280539Y-123989704D01*
X135274343Y-124022959D01*
X135265284Y-124043230D01*
X135251963Y-124056165D01*
X135246695Y-124059179D01*
X135212371Y-124068635D01*
X135162862Y-124074040D01*
X135106374Y-124075412D01*
X135051114Y-124072772D01*
X135005286Y-124066137D01*
X134977097Y-124055526D01*
X134963750Y-124046779D01*
X134944258Y-124044506D01*
X134916774Y-124057714D01*
X134913112Y-124059934D01*
X134880075Y-124087761D01*
X134856048Y-124126872D01*
X134838813Y-124182186D01*
X134826152Y-124258620D01*
X134823957Y-124276334D01*
X134818039Y-124326472D01*
X134813913Y-124365085D01*
X134812362Y-124384972D01*
X134802658Y-124402835D01*
X134778870Y-124423300D01*
X134775661Y-124425388D01*
X134752475Y-124437405D01*
X134731434Y-124436794D01*
X134699991Y-124423601D01*
X134660043Y-124407123D01*
X134626440Y-124403054D01*
X134604470Y-124417541D01*
X134589314Y-124451811D01*
X134587791Y-124457065D01*
X134581556Y-124491986D01*
X134584244Y-124529064D01*
X134596470Y-124579268D01*
X134605792Y-124614870D01*
X134615905Y-124661928D01*
X134620686Y-124696090D01*
X134621103Y-124706457D01*
X134617903Y-124726310D01*
X134602637Y-124735318D01*
X134568270Y-124739278D01*
X134558943Y-124740055D01*
X134522940Y-124747225D01*
X134499564Y-124764007D01*
X134483932Y-124795885D01*
X134471160Y-124848346D01*
X134467186Y-124872632D01*
X134466906Y-124947947D01*
X134485105Y-125013217D01*
X134520563Y-125063140D01*
X134541819Y-125080281D01*
X134582092Y-125107983D01*
X134626912Y-125135200D01*
X134627993Y-125135813D01*
X134675277Y-125166737D01*
X134728855Y-125207705D01*
X134777335Y-125250021D01*
X134779045Y-125251663D01*
X134808291Y-125282364D01*
X134846779Y-125326215D01*
X134891609Y-125379534D01*
X134939877Y-125438643D01*
X134988682Y-125499860D01*
X135035121Y-125559508D01*
X135076292Y-125613906D01*
X135109293Y-125659374D01*
X135131222Y-125692233D01*
X135139177Y-125708803D01*
X135131549Y-125713798D01*
X135102772Y-125716309D01*
X135057473Y-125714234D01*
X135042416Y-125712954D01*
X135002588Y-125711110D01*
X134975731Y-125715953D01*
X134951664Y-125730801D01*
X134920211Y-125758969D01*
X134908344Y-125770434D01*
X134875323Y-125811127D01*
X134864653Y-125844966D01*
X134864402Y-125852084D01*
X134855802Y-125874104D01*
X134832887Y-125877747D01*
X134792843Y-125863747D01*
X134787411Y-125861347D01*
X134765759Y-125855981D01*
X134746775Y-125864356D01*
X134721066Y-125889892D01*
X134711393Y-125899920D01*
X134684717Y-125922454D01*
X134665743Y-125931448D01*
X134659495Y-125932788D01*
X134634269Y-125945964D01*
X134602912Y-125968659D01*
X134592449Y-125977026D01*
X134556990Y-126003148D01*
X134528644Y-126021083D01*
X134509804Y-126036393D01*
X134481389Y-126068287D01*
X134452158Y-126108134D01*
X134438266Y-126129260D01*
X134419356Y-126161827D01*
X134410565Y-126189578D01*
X134409480Y-126222780D01*
X134413686Y-126271702D01*
X134417181Y-126319625D01*
X134415515Y-126360268D01*
X134406869Y-126382746D01*
X134396038Y-126393350D01*
X134371446Y-126400447D01*
X134341201Y-126386579D01*
X134301933Y-126350718D01*
X134295798Y-126344079D01*
X134255600Y-126290434D01*
X134215663Y-126218365D01*
X134173888Y-126124162D01*
X134163450Y-126107069D01*
X134134318Y-126075733D01*
X134096871Y-126045818D01*
X134039808Y-126004331D01*
X133989006Y-125959463D01*
X133944467Y-125908928D01*
X133902515Y-125847957D01*
X133859475Y-125771779D01*
X133811672Y-125675625D01*
X133806311Y-125664415D01*
X133767367Y-125585154D01*
X133735354Y-125525090D01*
X133707578Y-125479783D01*
X133681347Y-125444796D01*
X133653966Y-125415690D01*
X133622332Y-125386657D01*
X133595633Y-125364666D01*
X133581538Y-125356255D01*
X133574376Y-125354356D01*
X133557315Y-125332355D01*
X133542837Y-125287613D01*
X133531297Y-125222531D01*
X133523055Y-125139509D01*
X133518468Y-125040947D01*
X133517893Y-124929244D01*
X133519820Y-124783293D01*
X133431731Y-124689914D01*
X133390268Y-124647510D01*
X133291830Y-124558681D01*
X133194571Y-124486801D01*
X133101130Y-124433472D01*
X133014147Y-124400299D01*
X132936260Y-124388885D01*
X132903019Y-124387120D01*
X132876051Y-124377554D01*
X132856590Y-124355865D01*
X132830451Y-124322290D01*
X132796777Y-124295317D01*
X132752368Y-124275714D01*
X132692090Y-124261264D01*
X132610811Y-124249751D01*
X132563130Y-124244913D01*
X132501596Y-124240543D01*
X132450445Y-124238993D01*
X132417436Y-124240630D01*
X132385335Y-124244410D01*
X132325117Y-124240917D01*
X132281001Y-124219587D01*
X132249923Y-124179300D01*
X132224391Y-124142060D01*
X132172892Y-124101894D01*
X132135502Y-124081035D01*
X132102502Y-124053669D01*
X132083966Y-124019887D01*
X132073816Y-123971701D01*
X132073743Y-123971172D01*
X132067712Y-123939674D01*
X132057244Y-123908447D01*
X132040020Y-123873309D01*
X132013719Y-123830073D01*
X131976022Y-123774557D01*
X131924609Y-123702575D01*
X131879256Y-123636762D01*
X131830851Y-123554063D01*
X131802195Y-123484934D01*
X131792654Y-123428051D01*
X131789756Y-123381633D01*
X131767518Y-123299496D01*
X131722275Y-123227312D01*
X131708206Y-123209585D01*
X131688747Y-123177026D01*
X131677465Y-123139345D01*
X131670508Y-123086033D01*
X131664244Y-123038101D01*
X131651321Y-122968567D01*
X131635950Y-122905559D01*
X131634142Y-122899243D01*
X131623157Y-122858682D01*
X131615418Y-122822703D01*
X131610649Y-122786194D01*
X131608571Y-122744040D01*
X131608908Y-122691128D01*
X131611382Y-122622346D01*
X131615715Y-122532580D01*
X131616888Y-122508841D01*
X131619995Y-122422760D01*
X131618986Y-122357176D01*
X131612405Y-122307601D01*
X131598798Y-122269546D01*
X131576709Y-122238523D01*
X131544682Y-122210044D01*
X131501263Y-122179621D01*
X131478721Y-122164244D01*
X131443752Y-122137396D01*
X131412634Y-122107770D01*
X131382124Y-122071313D01*
X131348979Y-122023974D01*
X131309957Y-121961702D01*
X131261814Y-121880444D01*
X131225537Y-121823457D01*
X131180735Y-121764933D01*
X131139624Y-121723573D01*
X131118106Y-121705487D01*
X131059903Y-121651850D01*
X130998701Y-121589966D01*
X130939050Y-121524910D01*
X130885503Y-121461758D01*
X130842608Y-121405583D01*
X130814917Y-121361460D01*
X130813902Y-121359434D01*
X130795630Y-121312452D01*
X130777575Y-121249642D01*
X130761946Y-121180675D01*
X130750950Y-121115226D01*
X130746794Y-121062965D01*
X130746916Y-121058598D01*
X130752194Y-121020853D01*
X130763707Y-120969855D01*
X130779308Y-120915348D01*
X130781777Y-120907472D01*
X130797080Y-120851448D01*
X130807988Y-120799242D01*
X130812277Y-120761247D01*
X130814597Y-120734126D01*
X130829734Y-120676156D01*
X130855012Y-120621730D01*
X130885797Y-120582142D01*
X130909509Y-120569309D01*
X130952523Y-120559885D01*
X131017581Y-120554143D01*
X131033165Y-120553258D01*
X131076985Y-120549554D01*
X131113319Y-120542826D01*
X131147953Y-120530692D01*
X131186678Y-120510766D01*
X131235280Y-120480666D01*
X131299547Y-120438008D01*
X131315743Y-120426641D01*
X131363783Y-120389711D01*
X131417873Y-120344840D01*
X131469102Y-120299316D01*
X131535282Y-120242333D01*
X131655161Y-120159396D01*
X131778114Y-120098721D01*
X131901582Y-120061467D01*
X132023003Y-120048792D01*
X132044464Y-120048032D01*
X132100592Y-120041162D01*
X132149287Y-120029463D01*
X132181305Y-120020180D01*
X132236137Y-120007716D01*
X132291811Y-119998013D01*
X132333990Y-119990266D01*
X132384634Y-119976817D01*
X132421619Y-119962331D01*
X132470739Y-119944601D01*
X132543245Y-119937898D01*
X132619950Y-119948174D01*
X132692471Y-119975036D01*
X132762235Y-120011163D01*
X132751298Y-119980956D01*
X132744449Y-119958639D01*
X132739070Y-119893137D01*
X132756068Y-119835606D01*
X132793676Y-119789986D01*
X132850131Y-119760218D01*
X132861834Y-119756220D01*
X132902505Y-119740459D01*
X132954904Y-119718555D01*
X133010650Y-119693968D01*
X133044644Y-119679305D01*
X133128409Y-119648007D01*
X133217075Y-119620330D01*
X133303518Y-119598190D01*
X133380619Y-119583501D01*
X133441255Y-119578180D01*
X133462813Y-119578471D01*
X133493906Y-119582993D01*
X133514746Y-119597388D01*
X133536059Y-119627202D01*
X133542079Y-119636315D01*
X133566813Y-119669181D01*
X133592692Y-119698391D01*
X133615372Y-119719736D01*
X133630512Y-119729002D01*
X133633770Y-119721978D01*
X133629412Y-119706832D01*
X133618433Y-119671859D01*
X133604270Y-119628616D01*
X133591586Y-119584305D01*
X133587705Y-119543175D01*
X133598912Y-119519983D01*
X133625617Y-119512507D01*
X133651337Y-119508493D01*
X133699282Y-119493221D01*
X133756655Y-119469413D01*
X133816244Y-119440129D01*
X133870838Y-119408429D01*
X133901956Y-119386160D01*
X133937376Y-119347988D01*
X133947008Y-119311977D01*
X133930741Y-119278369D01*
X133926351Y-119272928D01*
X133914048Y-119240832D01*
X133912851Y-119191211D01*
X133913961Y-119176084D01*
X133918794Y-119147113D01*
X133930445Y-119124627D01*
X133953728Y-119101394D01*
X133993461Y-119070183D01*
X134033515Y-119037986D01*
X134071781Y-118999733D01*
X134101315Y-118957106D01*
X134126820Y-118903035D01*
X134153004Y-118830448D01*
X134161220Y-118806712D01*
X134195170Y-118725629D01*
X134230507Y-118666740D01*
X134266107Y-118632012D01*
X134281401Y-118628166D01*
X134310459Y-118640119D01*
X134343087Y-118671020D01*
X134376727Y-118717169D01*
X134408825Y-118774865D01*
X134436823Y-118840407D01*
X134458166Y-118910094D01*
X134470547Y-118956054D01*
X134483730Y-118986350D01*
X134502275Y-119006743D01*
X134531302Y-119025300D01*
X134540172Y-119030128D01*
X134594221Y-119050809D01*
X134638597Y-119052363D01*
X134669505Y-119034535D01*
X134681937Y-119024495D01*
X134706142Y-119019476D01*
X134744460Y-119023347D01*
X134802105Y-119036173D01*
X134806392Y-119037090D01*
X134849931Y-119034812D01*
X134910387Y-119014912D01*
X134931861Y-119006284D01*
X134970444Y-118994126D01*
X135001484Y-118992106D01*
X135035922Y-118998824D01*
X135083236Y-119005906D01*
X135135119Y-119002428D01*
X135173950Y-118996005D01*
X135202414Y-119000681D01*
X135213824Y-119021645D01*
X135211780Y-119061677D01*
X135203537Y-119116644D01*
X135334048Y-119125197D01*
X135341329Y-119125688D01*
X135416821Y-119133131D01*
X135470881Y-119143845D01*
X135507761Y-119158650D01*
X135512856Y-119161494D01*
X135549573Y-119179839D01*
X135599437Y-119202627D01*
X135653186Y-119225593D01*
X135721603Y-119249669D01*
X135789552Y-119261280D01*
X135846170Y-119254303D01*
X135895243Y-119228790D01*
X135913367Y-119214498D01*
X135927785Y-119199353D01*
X135941491Y-119178032D01*
X135958258Y-119144627D01*
X135981861Y-119093233D01*
X135990497Y-119073453D01*
X136008371Y-119019807D01*
X136012873Y-118970625D01*
X136003998Y-118916934D01*
X135981741Y-118849758D01*
X135966247Y-118802562D01*
X135956607Y-118759424D01*
X135955843Y-118731815D01*
X135959937Y-118722357D01*
X135982266Y-118695419D01*
X136015286Y-118669480D01*
X136015862Y-118669116D01*
X136048583Y-118645230D01*
X136063675Y-118622589D01*
X136067329Y-118591971D01*
X136071627Y-118559289D01*
X136095446Y-118520606D01*
X136139399Y-118498482D01*
X136151055Y-118495978D01*
X136177535Y-118497402D01*
G37*
G36*
X176492419Y-108619995D02*
G01*
X176536725Y-108683367D01*
X176611957Y-108802312D01*
X176713213Y-108968722D01*
X176835590Y-109174486D01*
X176974188Y-109411495D01*
X177124104Y-109671638D01*
X177200543Y-109805453D01*
X177342568Y-110055438D01*
X177468522Y-110278908D01*
X177573854Y-110467683D01*
X177654015Y-110613584D01*
X177704454Y-110708430D01*
X177720621Y-110744040D01*
X177695743Y-110742257D01*
X177629800Y-110713556D01*
X177577504Y-110683954D01*
X177470453Y-110621981D01*
X177319403Y-110533929D01*
X177134459Y-110425741D01*
X176925723Y-110303360D01*
X176703301Y-110172729D01*
X176477294Y-110039791D01*
X176257807Y-109910489D01*
X176054943Y-109790766D01*
X175878807Y-109686566D01*
X175739501Y-109603831D01*
X175647128Y-109548505D01*
X175611794Y-109526530D01*
X175611078Y-109517647D01*
X175627432Y-109456286D01*
X175663215Y-109358721D01*
X175737617Y-109230069D01*
X175849183Y-109150807D01*
X175870094Y-109140536D01*
X175965887Y-109075029D01*
X176086449Y-108974284D01*
X176210701Y-108855517D01*
X176257957Y-108807773D01*
X176362547Y-108707267D01*
X176442489Y-108637619D01*
X176483406Y-108611684D01*
X176492419Y-108619995D01*
G37*
G36*
X175239495Y-106414939D02*
G01*
X175283942Y-106481623D01*
X175285796Y-106485483D01*
X175323270Y-106588816D01*
X175308116Y-106658153D01*
X175234714Y-106720800D01*
X175180079Y-106760630D01*
X175123504Y-106819539D01*
X175078739Y-106897962D01*
X175042118Y-107007501D01*
X175009971Y-107159756D01*
X174978630Y-107366329D01*
X174944427Y-107638821D01*
X174922537Y-107816331D01*
X174893078Y-108038270D01*
X174865149Y-108231288D01*
X174841113Y-108379254D01*
X174823330Y-108466036D01*
X174787743Y-108553679D01*
X174721779Y-108666198D01*
X174643576Y-108772812D01*
X174568869Y-108852324D01*
X174513394Y-108883538D01*
X174502637Y-108880027D01*
X174435226Y-108846351D01*
X174317363Y-108782080D01*
X174159780Y-108693490D01*
X173973211Y-108586861D01*
X173768392Y-108468469D01*
X173556055Y-108344594D01*
X173346936Y-108221512D01*
X173151768Y-108105503D01*
X172981285Y-108002844D01*
X172846222Y-107919812D01*
X172757312Y-107862686D01*
X172725290Y-107837745D01*
X172741013Y-107824697D01*
X172814788Y-107776832D01*
X172940737Y-107699421D01*
X173109756Y-107597761D01*
X173312737Y-107477150D01*
X173540574Y-107342885D01*
X173784160Y-107200262D01*
X174034388Y-107054580D01*
X174282154Y-106911135D01*
X174518348Y-106775226D01*
X174733866Y-106652148D01*
X174919601Y-106547200D01*
X175066446Y-106465678D01*
X175165295Y-106412881D01*
X175207041Y-106394104D01*
X175239495Y-106414939D01*
G37*
G36*
X177471439Y-105048421D02*
G01*
X177654864Y-104942339D01*
X177839250Y-104836403D01*
X177983392Y-104754386D01*
X178078327Y-104701415D01*
X178115090Y-104682619D01*
X178115123Y-104682624D01*
X178117840Y-104721402D01*
X178120389Y-104831859D01*
X178122737Y-105007952D01*
X178124851Y-105243637D01*
X178126699Y-105532871D01*
X178128248Y-105869610D01*
X178129464Y-106247812D01*
X178130315Y-106661431D01*
X178130769Y-107104425D01*
X178130791Y-107570751D01*
X178130607Y-107886345D01*
X178130016Y-108394934D01*
X178129013Y-108833126D01*
X178127505Y-109205670D01*
X178125401Y-109517317D01*
X178122607Y-109772817D01*
X178119032Y-109976920D01*
X178114583Y-110134377D01*
X178109167Y-110249938D01*
X178102692Y-110328353D01*
X178095066Y-110374373D01*
X178086197Y-110392747D01*
X178075991Y-110388227D01*
X178063087Y-110369456D01*
X178011144Y-110285625D01*
X177931391Y-110151374D01*
X177829392Y-109976516D01*
X177710707Y-109770866D01*
X177580900Y-109544239D01*
X177445533Y-109306447D01*
X177310168Y-109067305D01*
X177180368Y-108836627D01*
X177061694Y-108624227D01*
X176959710Y-108439919D01*
X176879978Y-108293518D01*
X176828059Y-108194837D01*
X176809517Y-108153690D01*
X176817494Y-108136785D01*
X176869821Y-108072369D01*
X176897190Y-108043408D01*
X177132320Y-108043408D01*
X177158913Y-108078840D01*
X177241447Y-108120718D01*
X177341944Y-108137371D01*
X177424203Y-108119376D01*
X177430458Y-108115336D01*
X177493161Y-108045252D01*
X177478762Y-107970925D01*
X177387642Y-107894690D01*
X177354369Y-107875170D01*
X177285806Y-107843047D01*
X177241880Y-107854107D01*
X177190765Y-107910984D01*
X177144348Y-107985289D01*
X177132320Y-108043408D01*
X176897190Y-108043408D01*
X176960215Y-107976718D01*
X177076033Y-107863595D01*
X177169670Y-107774070D01*
X177418886Y-107774070D01*
X177435230Y-107817902D01*
X177476835Y-107850990D01*
X177583220Y-107869584D01*
X177706714Y-107831939D01*
X177722802Y-107821941D01*
X177773585Y-107753153D01*
X177773018Y-107676382D01*
X177719220Y-107623072D01*
X177704951Y-107620006D01*
X177623100Y-107634264D01*
X177523325Y-107681299D01*
X177455886Y-107727183D01*
X177418886Y-107774070D01*
X177169670Y-107774070D01*
X177175622Y-107768379D01*
X177260690Y-107680170D01*
X177285806Y-107644756D01*
X177302494Y-107621226D01*
X177309449Y-107578831D01*
X177289968Y-107540270D01*
X177246420Y-107432257D01*
X177360994Y-107432257D01*
X177366716Y-107469613D01*
X177397331Y-107524642D01*
X177468149Y-107531054D01*
X177486451Y-107527752D01*
X177585978Y-107488161D01*
X177691809Y-107422106D01*
X177704951Y-107409052D01*
X177787723Y-107326834D01*
X177823496Y-107237292D01*
X177795640Y-107173045D01*
X177710078Y-107146608D01*
X177572732Y-107170496D01*
X177571166Y-107171014D01*
X177437256Y-107233679D01*
X177370567Y-107316596D01*
X177360994Y-107432257D01*
X177246420Y-107432257D01*
X177239546Y-107415207D01*
X177256670Y-107284343D01*
X177339877Y-107174875D01*
X177344201Y-107171511D01*
X177430002Y-107116836D01*
X177495467Y-107094257D01*
X177517468Y-107090699D01*
X177548567Y-107054900D01*
X177548515Y-107053541D01*
X177513177Y-107032022D01*
X177425550Y-107035111D01*
X177304977Y-107059018D01*
X177170801Y-107099950D01*
X177042364Y-107154117D01*
X176959957Y-107203683D01*
X176823979Y-107309123D01*
X176703368Y-107426774D01*
X176677683Y-107455362D01*
X176579425Y-107548050D01*
X176505519Y-107575024D01*
X176442151Y-107536543D01*
X176375506Y-107432862D01*
X176369043Y-107419433D01*
X176366380Y-107345704D01*
X176423570Y-107305169D01*
X176527511Y-107308547D01*
X176583511Y-107312237D01*
X176615030Y-107288265D01*
X176614364Y-107279361D01*
X176575172Y-107232974D01*
X176494416Y-107222087D01*
X176398529Y-107251220D01*
X176374775Y-107262960D01*
X176299062Y-107281142D01*
X176272564Y-107253699D01*
X176306504Y-107188304D01*
X176346986Y-107155948D01*
X176428959Y-107137745D01*
X176564880Y-107141942D01*
X176694118Y-107145237D01*
X176760390Y-107129540D01*
X176756196Y-107097101D01*
X176678302Y-107050527D01*
X176612578Y-107031881D01*
X176526165Y-107042363D01*
X176401075Y-107090258D01*
X176351704Y-107112041D01*
X176250095Y-107154423D01*
X176200150Y-107165798D01*
X176187444Y-107146687D01*
X176197552Y-107097612D01*
X176198424Y-107046089D01*
X176143742Y-107004010D01*
X176114593Y-106989836D01*
X176101856Y-106972889D01*
X176316130Y-106972889D01*
X176365892Y-106976187D01*
X176444411Y-106961325D01*
X176526241Y-106925777D01*
X176583182Y-106883676D01*
X176585942Y-106870314D01*
X176649762Y-106870314D01*
X176785754Y-106962723D01*
X176856757Y-107006620D01*
X176940011Y-107033164D01*
X177021221Y-107017311D01*
X177088524Y-106982159D01*
X177120696Y-106943436D01*
X177088710Y-106902976D01*
X177003764Y-106868650D01*
X176891607Y-106849178D01*
X176778051Y-106851485D01*
X176649762Y-106870314D01*
X176585942Y-106870314D01*
X176590318Y-106849127D01*
X176542274Y-106824424D01*
X176451453Y-106836266D01*
X176362197Y-106899770D01*
X176321259Y-106947195D01*
X176316130Y-106972889D01*
X176101856Y-106972889D01*
X176076681Y-106939394D01*
X176071840Y-106885804D01*
X176108010Y-106860873D01*
X176124038Y-106856108D01*
X176190635Y-106814577D01*
X176278407Y-106744226D01*
X176339552Y-106691807D01*
X176403949Y-106652671D01*
X176466625Y-106654321D01*
X176542274Y-106683049D01*
X176561398Y-106690311D01*
X176640597Y-106719605D01*
X176737437Y-106731965D01*
X176841093Y-106706194D01*
X176891607Y-106690527D01*
X176913491Y-106683739D01*
X176983628Y-106685179D01*
X177048530Y-106729826D01*
X177084017Y-106754084D01*
X177201068Y-106794938D01*
X177349718Y-106817266D01*
X177503522Y-106819847D01*
X177636032Y-106801458D01*
X177710078Y-106766011D01*
X177720800Y-106760878D01*
X177753167Y-106724411D01*
X177753376Y-106695850D01*
X177702130Y-106671348D01*
X177587306Y-106639918D01*
X177526539Y-106624167D01*
X177409700Y-106589621D01*
X177346359Y-106557376D01*
X177320269Y-106516440D01*
X177316622Y-106472977D01*
X177397256Y-106472977D01*
X177448267Y-106511949D01*
X177552494Y-106550751D01*
X177593271Y-106561054D01*
X177684365Y-106578220D01*
X177728472Y-106577242D01*
X177732953Y-106561740D01*
X177696584Y-106521105D01*
X177617073Y-106478820D01*
X177515687Y-106447819D01*
X177471439Y-106440830D01*
X177403600Y-106445411D01*
X177397256Y-106472977D01*
X177316622Y-106472977D01*
X177315183Y-106455821D01*
X177314872Y-106444671D01*
X177301119Y-106399753D01*
X177256197Y-106362554D01*
X177165327Y-106324258D01*
X177013728Y-106276052D01*
X176759119Y-106207302D01*
X176546258Y-106171003D01*
X176367043Y-106170137D01*
X176203374Y-106204676D01*
X176037153Y-106274593D01*
X176031996Y-106277187D01*
X175907045Y-106334194D01*
X175808561Y-106368775D01*
X175757465Y-106373529D01*
X175756932Y-106373193D01*
X175713507Y-106323719D01*
X175662163Y-106238745D01*
X175604489Y-106127216D01*
X175963894Y-105922214D01*
X176052007Y-105871738D01*
X176225784Y-105771606D01*
X176442702Y-105646155D01*
X176688604Y-105503589D01*
X176949332Y-105352108D01*
X177210726Y-105199916D01*
X177439199Y-105067067D01*
X177471439Y-105048421D01*
G37*
G36*
X178112779Y-96950603D02*
G01*
X178112779Y-99025158D01*
X177607438Y-99025158D01*
X177102098Y-99025158D01*
X177102098Y-96950603D01*
X177102098Y-94876048D01*
X177607438Y-94876048D01*
X178112779Y-94876048D01*
X178112779Y-96950603D01*
G37*
G36*
X175278313Y-97710514D02*
G01*
X175310925Y-97765906D01*
X175317079Y-97840821D01*
X175288192Y-97902771D01*
X175251985Y-97923076D01*
X175187124Y-97934687D01*
X175135746Y-97928085D01*
X175075215Y-97887014D01*
X175054140Y-97811582D01*
X175055203Y-97793357D01*
X175084312Y-97722686D01*
X175141639Y-97680616D01*
X175211525Y-97674205D01*
X175278313Y-97710514D01*
G37*
G36*
X172072474Y-95815999D02*
G01*
X172084500Y-95824541D01*
X172140766Y-95836442D01*
X172237943Y-95847142D01*
X172244218Y-95847765D01*
X172336926Y-95855105D01*
X172405806Y-95857242D01*
X172436353Y-95853696D01*
X172424332Y-95838560D01*
X172378782Y-95791248D01*
X172304246Y-95716720D01*
X172205913Y-95619962D01*
X172088972Y-95505961D01*
X171958612Y-95379700D01*
X171820021Y-95246167D01*
X171678388Y-95110347D01*
X171538902Y-94977226D01*
X171406750Y-94851790D01*
X171287123Y-94739024D01*
X171185207Y-94643915D01*
X171106193Y-94571447D01*
X171055269Y-94526607D01*
X170998119Y-94478865D01*
X171080162Y-94477980D01*
X171099002Y-94478205D01*
X171118035Y-94481184D01*
X171140302Y-94489739D01*
X171169017Y-94506691D01*
X171207397Y-94534860D01*
X171258657Y-94577066D01*
X171326013Y-94636128D01*
X171412678Y-94714868D01*
X171521870Y-94816105D01*
X171656803Y-94942659D01*
X171820693Y-95097350D01*
X172016755Y-95282999D01*
X172248205Y-95502425D01*
X172647191Y-95880745D01*
X172887474Y-95901762D01*
X173578048Y-95962166D01*
X174508904Y-96043587D01*
X175160527Y-95399341D01*
X175340329Y-95221570D01*
X175509641Y-95054373D01*
X175647622Y-94918714D01*
X175757740Y-94811522D01*
X175843465Y-94729727D01*
X175908265Y-94670258D01*
X175955608Y-94630046D01*
X175988964Y-94606021D01*
X176011800Y-94595111D01*
X176027587Y-94594248D01*
X176039791Y-94600361D01*
X176051882Y-94610379D01*
X176069833Y-94626549D01*
X176078401Y-94653400D01*
X176046323Y-94689653D01*
X176023755Y-94711216D01*
X175965828Y-94767457D01*
X175878615Y-94852551D01*
X175766815Y-94961900D01*
X175635126Y-95090910D01*
X175488247Y-95234984D01*
X175330876Y-95389524D01*
X175235364Y-95483626D01*
X175057388Y-95660823D01*
X174916833Y-95803756D01*
X174812551Y-95913652D01*
X174743392Y-95991739D01*
X174708208Y-96039244D01*
X174705850Y-96057397D01*
X174734303Y-96062182D01*
X174808893Y-96070231D01*
X174913660Y-96079153D01*
X175035563Y-96087749D01*
X175065187Y-96089740D01*
X175211782Y-96103782D01*
X175310802Y-96121582D01*
X175359475Y-96142670D01*
X175362749Y-96145633D01*
X175416816Y-96169503D01*
X175491088Y-96179294D01*
X175586077Y-96179294D01*
X175586094Y-96305630D01*
X175586112Y-96431965D01*
X175486356Y-96431965D01*
X175386601Y-96431965D01*
X175379356Y-96933009D01*
X175372111Y-97434053D01*
X175439730Y-97487242D01*
X175470077Y-97513676D01*
X175547299Y-97619180D01*
X175584008Y-97739040D01*
X175582900Y-97862981D01*
X175546674Y-97980725D01*
X175478025Y-98081996D01*
X175379650Y-98156517D01*
X175254247Y-98194012D01*
X175215300Y-98199350D01*
X175158500Y-98212142D01*
X175139555Y-98224702D01*
X175149074Y-98235523D01*
X175192164Y-98278895D01*
X175264958Y-98350062D01*
X175362025Y-98443766D01*
X175477935Y-98554745D01*
X175607258Y-98677740D01*
X175698786Y-98764687D01*
X175822648Y-98883507D01*
X175914021Y-98973578D01*
X175976974Y-99039543D01*
X176015579Y-99086041D01*
X176033907Y-99117714D01*
X176036029Y-99139204D01*
X176026016Y-99155152D01*
X176005084Y-99170189D01*
X175978730Y-99169025D01*
X175939944Y-99145261D01*
X175880472Y-99093754D01*
X175792060Y-99009360D01*
X175756181Y-98974656D01*
X175663626Y-98885689D01*
X175545242Y-98772376D01*
X175409378Y-98642693D01*
X175264385Y-98504616D01*
X175118614Y-98366122D01*
X174637853Y-97909947D01*
X173708981Y-97995800D01*
X172780108Y-98081652D01*
X172772190Y-98247542D01*
X172764272Y-98413431D01*
X172498944Y-98413431D01*
X172233617Y-98413431D01*
X171690924Y-98947319D01*
X171537452Y-99097773D01*
X171408238Y-99222815D01*
X171307614Y-99317589D01*
X171231051Y-99385958D01*
X171174019Y-99431782D01*
X171131989Y-99458923D01*
X171100431Y-99471245D01*
X171074815Y-99472607D01*
X171071986Y-99472240D01*
X171055740Y-99466823D01*
X171051354Y-99454166D01*
X171062146Y-99430571D01*
X171091432Y-99392341D01*
X171142529Y-99335779D01*
X171218754Y-99257189D01*
X171323423Y-99152873D01*
X171459854Y-99019136D01*
X171631362Y-98852279D01*
X171766430Y-98720719D01*
X171928305Y-98561138D01*
X172055181Y-98432615D01*
X172149342Y-98332059D01*
X172192803Y-98280446D01*
X172384019Y-98280446D01*
X172508922Y-98280446D01*
X172633826Y-98280446D01*
X172633826Y-98187357D01*
X172633826Y-98187284D01*
X172624692Y-98118747D01*
X172599148Y-98094268D01*
X172583203Y-98099225D01*
X172533862Y-98132708D01*
X172474245Y-98187357D01*
X172384019Y-98280446D01*
X172192803Y-98280446D01*
X172213069Y-98256378D01*
X172248645Y-98202480D01*
X172258352Y-98167276D01*
X172244473Y-98147672D01*
X172209288Y-98140579D01*
X172155082Y-98142904D01*
X172141447Y-98144258D01*
X172079838Y-98155529D01*
X172053961Y-98179997D01*
X172048695Y-98230046D01*
X172048164Y-98244778D01*
X172020550Y-98329360D01*
X171961085Y-98386504D01*
X171883757Y-98411214D01*
X171802554Y-98398495D01*
X171731463Y-98343352D01*
X171694102Y-98285569D01*
X171679440Y-98209362D01*
X171712516Y-98134750D01*
X171720627Y-98122815D01*
X171731419Y-98088110D01*
X171716847Y-98044869D01*
X171701699Y-98021438D01*
X172048695Y-98021438D01*
X172148224Y-98005286D01*
X172164978Y-98002206D01*
X172227085Y-97983421D01*
X172256828Y-97961911D01*
X172274944Y-97950405D01*
X172333736Y-97939072D01*
X172417386Y-97934687D01*
X172436107Y-97934671D01*
X172503023Y-97932409D01*
X172511731Y-97930474D01*
X172767469Y-97930474D01*
X172777944Y-97931300D01*
X172835498Y-97929502D01*
X172936078Y-97923437D01*
X173073014Y-97913597D01*
X173239641Y-97900475D01*
X173429292Y-97884563D01*
X173635299Y-97866353D01*
X173742727Y-97856475D01*
X173938292Y-97837672D01*
X174112483Y-97819861D01*
X174258975Y-97803754D01*
X174315205Y-97796907D01*
X174974349Y-97796907D01*
X174976139Y-97826844D01*
X175009077Y-97919358D01*
X175073952Y-97983159D01*
X175158206Y-98012938D01*
X175249280Y-98003386D01*
X175334616Y-97949195D01*
X175375036Y-97895051D01*
X175399899Y-97801703D01*
X175389001Y-97739906D01*
X175334616Y-97654211D01*
X175280473Y-97613791D01*
X175187124Y-97588928D01*
X175145036Y-97594124D01*
X175060384Y-97636436D01*
X174998402Y-97709003D01*
X174974349Y-97796907D01*
X174315205Y-97796907D01*
X174371444Y-97790059D01*
X174443564Y-97779487D01*
X174469009Y-97772748D01*
X174467920Y-97770367D01*
X174441089Y-97739584D01*
X174382603Y-97679493D01*
X174298220Y-97595822D01*
X174193699Y-97494299D01*
X174074800Y-97380654D01*
X173680591Y-97006670D01*
X173206970Y-97462885D01*
X173112242Y-97554972D01*
X172991509Y-97675192D01*
X172892347Y-97777446D01*
X172819074Y-97857141D01*
X172776009Y-97909681D01*
X172767469Y-97930474D01*
X172511731Y-97930474D01*
X172553407Y-97921213D01*
X172599148Y-97894783D01*
X172600744Y-97893861D01*
X172658517Y-97843133D01*
X172740213Y-97761808D01*
X172818997Y-97681387D01*
X172864815Y-97630367D01*
X172880763Y-97602648D01*
X172870875Y-97591184D01*
X172839183Y-97588928D01*
X172766810Y-97588928D01*
X172766810Y-97150080D01*
X172766810Y-96711232D01*
X172899064Y-96711232D01*
X173031318Y-96711232D01*
X173038698Y-97085804D01*
X173046077Y-97460376D01*
X173318695Y-97203144D01*
X173354173Y-97169496D01*
X173447166Y-97079512D01*
X173521825Y-97004642D01*
X173571258Y-96951902D01*
X173588575Y-96928310D01*
X173587829Y-96927388D01*
X173764192Y-96927388D01*
X174203040Y-97350230D01*
X174336619Y-97477322D01*
X174475234Y-97604540D01*
X174583022Y-97697434D01*
X174658181Y-97754464D01*
X174698910Y-97774089D01*
X174727723Y-97768391D01*
X174770976Y-97730203D01*
X174818596Y-97648809D01*
X174842714Y-97605387D01*
X174931319Y-97498160D01*
X175037749Y-97427939D01*
X175151162Y-97402750D01*
X175187124Y-97402750D01*
X175240318Y-97402750D01*
X175240318Y-96821053D01*
X175240318Y-96239357D01*
X175020894Y-96221701D01*
X175010845Y-96220889D01*
X174882862Y-96210213D01*
X174755588Y-96199078D01*
X174655187Y-96189767D01*
X174508904Y-96175490D01*
X174136548Y-96551439D01*
X173764192Y-96927388D01*
X173587829Y-96927388D01*
X173578271Y-96915568D01*
X173534261Y-96870254D01*
X173460543Y-96797525D01*
X173362439Y-96702563D01*
X173245270Y-96590548D01*
X173114359Y-96466661D01*
X172674135Y-96052050D01*
X172858592Y-96052050D01*
X172859914Y-96056324D01*
X172888061Y-96090310D01*
X172947544Y-96153071D01*
X173032976Y-96239143D01*
X173138971Y-96343061D01*
X173260142Y-96459362D01*
X173674849Y-96853517D01*
X173680591Y-96847775D01*
X174020082Y-96508285D01*
X174365315Y-96163052D01*
X173618532Y-96100972D01*
X173587376Y-96098395D01*
X173396129Y-96083130D01*
X173223676Y-96070294D01*
X173076855Y-96060328D01*
X172962508Y-96053672D01*
X172887474Y-96050766D01*
X172858592Y-96052050D01*
X172674135Y-96052050D01*
X172642881Y-96022614D01*
X172369567Y-95994567D01*
X172286876Y-95986193D01*
X172183057Y-95976039D01*
X172107479Y-95969094D01*
X172072474Y-95966520D01*
X172072151Y-95966603D01*
X172066631Y-95995189D01*
X172061639Y-96071615D01*
X172057292Y-96190814D01*
X172053707Y-96347717D01*
X172051001Y-96537257D01*
X172049291Y-96754367D01*
X172048695Y-96993979D01*
X172048695Y-98021438D01*
X171701699Y-98021438D01*
X171672799Y-97976735D01*
X171669872Y-97972455D01*
X171624855Y-97888130D01*
X171579589Y-97775106D01*
X171542979Y-97655420D01*
X171534429Y-97622787D01*
X171506478Y-97529261D01*
X171481133Y-97461991D01*
X171463010Y-97433780D01*
X171454930Y-97415261D01*
X171446870Y-97354345D01*
X171441200Y-97262675D01*
X171437968Y-97152233D01*
X171437532Y-97083588D01*
X171569951Y-97083588D01*
X171570040Y-97102622D01*
X171574121Y-97203540D01*
X171583377Y-97271478D01*
X171596548Y-97296363D01*
X171598928Y-97295653D01*
X171611542Y-97263006D01*
X171620035Y-97188959D01*
X171623145Y-97083588D01*
X171623056Y-97064553D01*
X171618975Y-96963636D01*
X171609720Y-96895697D01*
X171596548Y-96870813D01*
X171594169Y-96871522D01*
X171581554Y-96904170D01*
X171573062Y-96978216D01*
X171569951Y-97083588D01*
X171437532Y-97083588D01*
X171437224Y-97035001D01*
X171439019Y-96922962D01*
X171443401Y-96828098D01*
X171450421Y-96762393D01*
X171460127Y-96737828D01*
X171616292Y-96737828D01*
X171699509Y-96737828D01*
X171782726Y-96737828D01*
X171782726Y-97083588D01*
X171782726Y-97429347D01*
X171712619Y-97429347D01*
X171680791Y-97430475D01*
X171656140Y-97442678D01*
X171651014Y-97479800D01*
X171659606Y-97555682D01*
X171666908Y-97595177D01*
X171694625Y-97689956D01*
X171733896Y-97790237D01*
X171778205Y-97881852D01*
X171821034Y-97950630D01*
X171855868Y-97982402D01*
X171859055Y-97982390D01*
X171868119Y-97967316D01*
X171875290Y-97925801D01*
X171880750Y-97853388D01*
X171884681Y-97745619D01*
X171887265Y-97598035D01*
X171888682Y-97406180D01*
X171889114Y-97165595D01*
X171889114Y-96338876D01*
X171785610Y-96338876D01*
X171765898Y-96338985D01*
X171718446Y-96343549D01*
X171687246Y-96362030D01*
X171666632Y-96404150D01*
X171650940Y-96479630D01*
X171634504Y-96598195D01*
X171616292Y-96737828D01*
X171460127Y-96737828D01*
X171462140Y-96737260D01*
X171476397Y-96706049D01*
X171490622Y-96636264D01*
X171503369Y-96540627D01*
X171513193Y-96431862D01*
X171518648Y-96322691D01*
X171518290Y-96225839D01*
X171517784Y-96213251D01*
X171518830Y-96141340D01*
X171531875Y-96107438D01*
X171561330Y-96098494D01*
X171580194Y-96092847D01*
X171596548Y-96080308D01*
X171616425Y-96065068D01*
X171789196Y-96065068D01*
X171793322Y-96091936D01*
X171842569Y-96099504D01*
X171847967Y-96099429D01*
X171889114Y-96084823D01*
X171890859Y-96084204D01*
X171902412Y-96033012D01*
X171902409Y-96031074D01*
X171895681Y-95978223D01*
X171872321Y-95973357D01*
X171826744Y-96015158D01*
X171789196Y-96065068D01*
X171616425Y-96065068D01*
X171630380Y-96054369D01*
X171683033Y-95991689D01*
X171703864Y-95963506D01*
X171768756Y-95890681D01*
X171829316Y-95839766D01*
X171872321Y-95802219D01*
X171876780Y-95798326D01*
X171902412Y-95727148D01*
X171902693Y-95714894D01*
X171918290Y-95671641D01*
X171968904Y-95660656D01*
X171997351Y-95662730D01*
X172030268Y-95685021D01*
X172043541Y-95744546D01*
X172046575Y-95771736D01*
X172057114Y-95805089D01*
X172072474Y-95815999D01*
G37*
%TD*%
%LPC*%
X135432704Y-105783838D02*
X135527942Y-105736219D01*
X135527942Y-105736219D02*
X135670799Y-105736219D01*
X135670799Y-105736219D02*
X135813656Y-105783838D01*
X135813656Y-105783838D02*
X135908894Y-105879076D01*
X135908894Y-105879076D02*
X135956513Y-105974314D01*
X135956513Y-105974314D02*
X136004132Y-106164790D01*
X136004132Y-106164790D02*
X136004132Y-106307647D01*
X136004132Y-106307647D02*
X135956513Y-106498123D01*
X135956513Y-106498123D02*
X135908894Y-106593361D01*
X135908894Y-106593361D02*
X135813656Y-106688600D01*
X135813656Y-106688600D02*
X135670799Y-106736219D01*
X135670799Y-106736219D02*
X135575561Y-106736219D01*
X135575561Y-106736219D02*
X135432704Y-106688600D01*
X135432704Y-106688600D02*
X135385085Y-106640980D01*
X135385085Y-106640980D02*
X135385085Y-106307647D01*
X135385085Y-106307647D02*
X135575561Y-106307647D01*
X134956513Y-106736219D02*
X134956513Y-105736219D01*
X134956513Y-105736219D02*
X134385085Y-106736219D01*
X134385085Y-106736219D02*
X134385085Y-105736219D01*
X133908894Y-106736219D02*
X133908894Y-105736219D01*
X133908894Y-105736219D02*
X133670799Y-105736219D01*
X133670799Y-105736219D02*
X133527942Y-105783838D01*
X133527942Y-105783838D02*
X133432704Y-105879076D01*
X133432704Y-105879076D02*
X133385085Y-105974314D01*
X133385085Y-105974314D02*
X133337466Y-106164790D01*
X133337466Y-106164790D02*
X133337466Y-106307647D01*
X133337466Y-106307647D02*
X133385085Y-106498123D01*
X133385085Y-106498123D02*
X133432704Y-106593361D01*
X133432704Y-106593361D02*
X133527942Y-106688600D01*
X133527942Y-106688600D02*
X133670799Y-106736219D01*
X133670799Y-106736219D02*
X133908894Y-106736219D01*
X174661904Y-80710238D02*
X174757142Y-80662619D01*
X174757142Y-80662619D02*
X174899999Y-80662619D01*
X174899999Y-80662619D02*
X175042856Y-80710238D01*
X175042856Y-80710238D02*
X175138094Y-80805476D01*
X175138094Y-80805476D02*
X175185713Y-80900714D01*
X175185713Y-80900714D02*
X175233332Y-81091190D01*
X175233332Y-81091190D02*
X175233332Y-81234047D01*
X175233332Y-81234047D02*
X175185713Y-81424523D01*
X175185713Y-81424523D02*
X175138094Y-81519761D01*
X175138094Y-81519761D02*
X175042856Y-81615000D01*
X175042856Y-81615000D02*
X174899999Y-81662619D01*
X174899999Y-81662619D02*
X174804761Y-81662619D01*
X174804761Y-81662619D02*
X174661904Y-81615000D01*
X174661904Y-81615000D02*
X174614285Y-81567380D01*
X174614285Y-81567380D02*
X174614285Y-81234047D01*
X174614285Y-81234047D02*
X174804761Y-81234047D01*
X174185713Y-81662619D02*
X174185713Y-80662619D01*
X174185713Y-80662619D02*
X173614285Y-81662619D01*
X173614285Y-81662619D02*
X173614285Y-80662619D01*
X173138094Y-81662619D02*
X173138094Y-80662619D01*
X173138094Y-80662619D02*
X172899999Y-80662619D01*
X172899999Y-80662619D02*
X172757142Y-80710238D01*
X172757142Y-80710238D02*
X172661904Y-80805476D01*
X172661904Y-80805476D02*
X172614285Y-80900714D01*
X172614285Y-80900714D02*
X172566666Y-81091190D01*
X172566666Y-81091190D02*
X172566666Y-81234047D01*
X172566666Y-81234047D02*
X172614285Y-81424523D01*
X172614285Y-81424523D02*
X172661904Y-81519761D01*
X172661904Y-81519761D02*
X172757142Y-81615000D01*
X172757142Y-81615000D02*
X172899999Y-81662619D01*
X172899999Y-81662619D02*
X173138094Y-81662619D01*
X174661904Y-123860238D02*
X174757142Y-123812619D01*
X174757142Y-123812619D02*
X174899999Y-123812619D01*
X174899999Y-123812619D02*
X175042856Y-123860238D01*
X175042856Y-123860238D02*
X175138094Y-123955476D01*
X175138094Y-123955476D02*
X175185713Y-124050714D01*
X175185713Y-124050714D02*
X175233332Y-124241190D01*
X175233332Y-124241190D02*
X175233332Y-124384047D01*
X175233332Y-124384047D02*
X175185713Y-124574523D01*
X175185713Y-124574523D02*
X175138094Y-124669761D01*
X175138094Y-124669761D02*
X175042856Y-124765000D01*
X175042856Y-124765000D02*
X174899999Y-124812619D01*
X174899999Y-124812619D02*
X174804761Y-124812619D01*
X174804761Y-124812619D02*
X174661904Y-124765000D01*
X174661904Y-124765000D02*
X174614285Y-124717380D01*
X174614285Y-124717380D02*
X174614285Y-124384047D01*
X174614285Y-124384047D02*
X174804761Y-124384047D01*
X174185713Y-124812619D02*
X174185713Y-123812619D01*
X174185713Y-123812619D02*
X173614285Y-124812619D01*
X173614285Y-124812619D02*
X173614285Y-123812619D01*
X173138094Y-124812619D02*
X173138094Y-123812619D01*
X173138094Y-123812619D02*
X172899999Y-123812619D01*
X172899999Y-123812619D02*
X172757142Y-123860238D01*
X172757142Y-123860238D02*
X172661904Y-123955476D01*
X172661904Y-123955476D02*
X172614285Y-124050714D01*
X172614285Y-124050714D02*
X172566666Y-124241190D01*
X172566666Y-124241190D02*
X172566666Y-124384047D01*
X172566666Y-124384047D02*
X172614285Y-124574523D01*
X172614285Y-124574523D02*
X172661904Y-124669761D01*
X172661904Y-124669761D02*
X172757142Y-124765000D01*
X172757142Y-124765000D02*
X172899999Y-124812619D01*
X172899999Y-124812619D02*
X173138094Y-124812619D01*
X150810238Y-98088095D02*
X150762619Y-97992857D01*
X150762619Y-97992857D02*
X150762619Y-97850000D01*
X150762619Y-97850000D02*
X150810238Y-97707143D01*
X150810238Y-97707143D02*
X150905476Y-97611905D01*
X150905476Y-97611905D02*
X151000714Y-97564286D01*
X151000714Y-97564286D02*
X151191190Y-97516667D01*
X151191190Y-97516667D02*
X151334047Y-97516667D01*
X151334047Y-97516667D02*
X151524523Y-97564286D01*
X151524523Y-97564286D02*
X151619761Y-97611905D01*
X151619761Y-97611905D02*
X151715000Y-97707143D01*
X151715000Y-97707143D02*
X151762619Y-97850000D01*
X151762619Y-97850000D02*
X151762619Y-97945238D01*
X151762619Y-97945238D02*
X151715000Y-98088095D01*
X151715000Y-98088095D02*
X151667380Y-98135714D01*
X151667380Y-98135714D02*
X151334047Y-98135714D01*
X151334047Y-98135714D02*
X151334047Y-97945238D01*
X151762619Y-98564286D02*
X150762619Y-98564286D01*
X150762619Y-98564286D02*
X151762619Y-99135714D01*
X151762619Y-99135714D02*
X150762619Y-99135714D01*
X151762619Y-99611905D02*
X150762619Y-99611905D01*
X150762619Y-99611905D02*
X150762619Y-99850000D01*
X150762619Y-99850000D02*
X150810238Y-99992857D01*
X150810238Y-99992857D02*
X150905476Y-100088095D01*
X150905476Y-100088095D02*
X151000714Y-100135714D01*
X151000714Y-100135714D02*
X151191190Y-100183333D01*
X151191190Y-100183333D02*
X151334047Y-100183333D01*
X151334047Y-100183333D02*
X151524523Y-100135714D01*
X151524523Y-100135714D02*
X151619761Y-100088095D01*
X151619761Y-100088095D02*
X151715000Y-99992857D01*
X151715000Y-99992857D02*
X151762619Y-99850000D01*
X151762619Y-99850000D02*
X151762619Y-99611905D01*
X135432704Y-108374638D02*
X135527942Y-108327019D01*
X135527942Y-108327019D02*
X135670799Y-108327019D01*
X135670799Y-108327019D02*
X135813656Y-108374638D01*
X135813656Y-108374638D02*
X135908894Y-108469876D01*
X135908894Y-108469876D02*
X135956513Y-108565114D01*
X135956513Y-108565114D02*
X136004132Y-108755590D01*
X136004132Y-108755590D02*
X136004132Y-108898447D01*
X136004132Y-108898447D02*
X135956513Y-109088923D01*
X135956513Y-109088923D02*
X135908894Y-109184161D01*
X135908894Y-109184161D02*
X135813656Y-109279400D01*
X135813656Y-109279400D02*
X135670799Y-109327019D01*
X135670799Y-109327019D02*
X135575561Y-109327019D01*
X135575561Y-109327019D02*
X135432704Y-109279400D01*
X135432704Y-109279400D02*
X135385085Y-109231780D01*
X135385085Y-109231780D02*
X135385085Y-108898447D01*
X135385085Y-108898447D02*
X135575561Y-108898447D01*
X134956513Y-109327019D02*
X134956513Y-108327019D01*
X134956513Y-108327019D02*
X134385085Y-109327019D01*
X134385085Y-109327019D02*
X134385085Y-108327019D01*
X133908894Y-109327019D02*
X133908894Y-108327019D01*
X133908894Y-108327019D02*
X133670799Y-108327019D01*
X133670799Y-108327019D02*
X133527942Y-108374638D01*
X133527942Y-108374638D02*
X133432704Y-108469876D01*
X133432704Y-108469876D02*
X133385085Y-108565114D01*
X133385085Y-108565114D02*
X133337466Y-108755590D01*
X133337466Y-108755590D02*
X133337466Y-108898447D01*
X133337466Y-108898447D02*
X133385085Y-109088923D01*
X133385085Y-109088923D02*
X133432704Y-109184161D01*
X133432704Y-109184161D02*
X133527942Y-109279400D01*
X133527942Y-109279400D02*
X133670799Y-109327019D01*
X133670799Y-109327019D02*
X133908894Y-109327019D01*
X150810238Y-105388095D02*
X150762619Y-105292857D01*
X150762619Y-105292857D02*
X150762619Y-105150000D01*
X150762619Y-105150000D02*
X150810238Y-105007143D01*
X150810238Y-105007143D02*
X150905476Y-104911905D01*
X150905476Y-104911905D02*
X151000714Y-104864286D01*
X151000714Y-104864286D02*
X151191190Y-104816667D01*
X151191190Y-104816667D02*
X151334047Y-104816667D01*
X151334047Y-104816667D02*
X151524523Y-104864286D01*
X151524523Y-104864286D02*
X151619761Y-104911905D01*
X151619761Y-104911905D02*
X151715000Y-105007143D01*
X151715000Y-105007143D02*
X151762619Y-105150000D01*
X151762619Y-105150000D02*
X151762619Y-105245238D01*
X151762619Y-105245238D02*
X151715000Y-105388095D01*
X151715000Y-105388095D02*
X151667380Y-105435714D01*
X151667380Y-105435714D02*
X151334047Y-105435714D01*
X151334047Y-105435714D02*
X151334047Y-105245238D01*
X151762619Y-105864286D02*
X150762619Y-105864286D01*
X150762619Y-105864286D02*
X151762619Y-106435714D01*
X151762619Y-106435714D02*
X150762619Y-106435714D01*
X151762619Y-106911905D02*
X150762619Y-106911905D01*
X150762619Y-106911905D02*
X150762619Y-107150000D01*
X150762619Y-107150000D02*
X150810238Y-107292857D01*
X150810238Y-107292857D02*
X150905476Y-107388095D01*
X150905476Y-107388095D02*
X151000714Y-107435714D01*
X151000714Y-107435714D02*
X151191190Y-107483333D01*
X151191190Y-107483333D02*
X151334047Y-107483333D01*
X151334047Y-107483333D02*
X151524523Y-107435714D01*
X151524523Y-107435714D02*
X151619761Y-107388095D01*
X151619761Y-107388095D02*
X151715000Y-107292857D01*
X151715000Y-107292857D02*
X151762619Y-107150000D01*
X151762619Y-107150000D02*
X151762619Y-106911905D01*
D12*
%TO.C,R2*%
X173000000Y-100810000D03*
D13*
X173000000Y-93190000D03*
%TD*%
D14*
%TO.C,J3*%
X141150000Y-108850000D03*
X143690000Y-108850000D03*
X146230000Y-108850000D03*
X148770000Y-108850000D03*
D15*
X151310000Y-108850000D03*
D14*
X153850000Y-108850000D03*
X153850000Y-96150000D03*
D15*
X151310000Y-96150000D03*
D14*
X148770000Y-96150000D03*
X146230000Y-96150000D03*
X143690000Y-96150000D03*
X141150000Y-96150000D03*
%TD*%
D16*
%TO.C,J4*%
X131900000Y-96150000D03*
X131900000Y-98690000D03*
X131900000Y-101230000D03*
X131900000Y-103770000D03*
D17*
X131900000Y-106310000D03*
X131900000Y-108850000D03*
%TD*%
D18*
%TO.C,SW1*%
X162500000Y-108740000D03*
X162500000Y-96240000D03*
D19*
X167500000Y-108740000D03*
X167500000Y-96240000D03*
%TD*%
D12*
%TO.C,A1*%
X141190000Y-126860000D03*
D20*
X143730000Y-126860000D03*
X146270000Y-126860000D03*
X148810000Y-126860000D03*
X151350000Y-126860000D03*
D13*
X153890000Y-126860000D03*
X156430000Y-126860000D03*
D20*
X158970000Y-126860000D03*
X164050000Y-126860000D03*
X166590000Y-126860000D03*
X169130000Y-126860000D03*
X171670000Y-126860000D03*
X174210000Y-126860000D03*
X176750000Y-126860000D03*
X176750000Y-78600000D03*
X174210000Y-78600000D03*
X171670000Y-78600000D03*
X169130000Y-78600000D03*
X166590000Y-78600000D03*
X164050000Y-78600000D03*
X161510000Y-78600000D03*
X158970000Y-78600000D03*
X154910000Y-78600000D03*
X152370000Y-78600000D03*
X149830000Y-78600000D03*
X147290000Y-78600000D03*
X144750000Y-78600000D03*
X142210000Y-78600000D03*
D13*
X139670000Y-78600000D03*
D20*
X137130000Y-78600000D03*
X134590000Y-78600000D03*
X132050000Y-78600000D03*
%TD*%
D12*
%TO.C,R3*%
X176500000Y-93190000D03*
D20*
X176500000Y-100810000D03*
%TD*%
D17*
%TO.C,J2*%
X176733200Y-81127600D03*
D16*
X176733200Y-83667600D03*
X176733200Y-86207600D03*
X176733200Y-88747600D03*
%TD*%
D12*
%TO.C,R1*%
X173000000Y-111760000D03*
D20*
X173000000Y-104140000D03*
%TD*%
D12*
%TO.C,R4*%
X176500000Y-104140000D03*
D13*
X176500000Y-111760000D03*
%TD*%
D17*
%TO.C,J1*%
X176733200Y-124307600D03*
D16*
X176733200Y-121767600D03*
X176733200Y-119227600D03*
X176733200Y-116687600D03*
%TD*%
M02*
