%TF.GenerationSoftware,KiCad,Pcbnew,7.0.1*%
%TF.CreationDate,2023-05-06T15:11:30-03:00*%
%TF.ProjectId,Self_Balancing,53656c66-5f42-4616-9c61-6e63696e672e,rev?*%
%TF.SameCoordinates,Original*%
%TF.FileFunction,Legend,Top*%
%TF.FilePolarity,Positive*%
%FSLAX46Y46*%
G04 Gerber Fmt 4.6, Leading zero omitted, Abs format (unit mm)*
G04 Created by KiCad (PCBNEW 7.0.1) date 2023-05-06 15:11:30*
%MOMM*%
%LPD*%
G01*
G04 APERTURE LIST*
G04 Aperture macros list*
%AMRoundRect*
0 Rectangle with rounded corners*
0 $1 Rounding radius*
0 $2 $3 $4 $5 $6 $7 $8 $9 X,Y pos of 4 corners*
0 Add a 4 corners polygon primitive as box body*
4,1,4,$2,$3,$4,$5,$6,$7,$8,$9,$2,$3,0*
0 Add four circle primitives for the rounded corners*
1,1,$1+$1,$2,$3*
1,1,$1+$1,$4,$5*
1,1,$1+$1,$6,$7*
1,1,$1+$1,$8,$9*
0 Add four rect primitives between the rounded corners*
20,1,$1+$1,$2,$3,$4,$5,0*
20,1,$1+$1,$4,$5,$6,$7,0*
20,1,$1+$1,$6,$7,$8,$9,0*
20,1,$1+$1,$8,$9,$2,$3,0*%
G04 Aperture macros list end*
%ADD10C,0.150000*%
%ADD11C,0.200000*%
%ADD12C,0.300000*%
%ADD13C,0.100000*%
%ADD14C,0.120000*%
%ADD15RoundRect,0.250000X0.262500X0.450000X-0.262500X0.450000X-0.262500X-0.450000X0.262500X-0.450000X0*%
%ADD16RoundRect,0.250000X-0.400000X-0.600000X0.400000X-0.600000X0.400000X0.600000X-0.400000X0.600000X0*%
%ADD17C,1.600000*%
%ADD18R,1.600000X1.600000*%
%ADD19RoundRect,0.250000X-0.262500X-0.450000X0.262500X-0.450000X0.262500X0.450000X-0.262500X0.450000X0*%
%ADD20RoundRect,0.200000X-0.250000X-0.200000X0.250000X-0.200000X0.250000X0.200000X-0.250000X0.200000X0*%
%ADD21C,1.524000*%
%ADD22R,1.524000X1.524000*%
%ADD23RoundRect,0.250000X0.475000X-0.250000X0.475000X0.250000X-0.475000X0.250000X-0.475000X-0.250000X0*%
%ADD24O,1.700000X1.700000*%
%ADD25R,1.700000X1.700000*%
%ADD26RoundRect,0.250000X-0.412500X-0.925000X0.412500X-0.925000X0.412500X0.925000X-0.412500X0.925000X0*%
%ADD27RoundRect,0.250000X0.400000X0.600000X-0.400000X0.600000X-0.400000X-0.600000X0.400000X-0.600000X0*%
%ADD28RoundRect,0.250000X0.250000X0.475000X-0.250000X0.475000X-0.250000X-0.475000X0.250000X-0.475000X0*%
%ADD29R,2.000000X1.100000*%
%ADD30RoundRect,0.250000X0.450000X0.425000X-0.450000X0.425000X-0.450000X-0.425000X0.450000X-0.425000X0*%
%ADD31O,1.850000X3.048000*%
%ADD32RoundRect,0.462500X0.462500X-1.061500X0.462500X1.061500X-0.462500X1.061500X-0.462500X-1.061500X0*%
%ADD33RoundRect,0.250000X0.550000X-1.050000X0.550000X1.050000X-0.550000X1.050000X-0.550000X-1.050000X0*%
%ADD34O,1.600000X1.600000*%
%ADD35RoundRect,0.250000X-0.250000X-0.475000X0.250000X-0.475000X0.250000X0.475000X-0.250000X0.475000X0*%
%ADD36RoundRect,0.243750X-0.243750X-0.456250X0.243750X-0.456250X0.243750X0.456250X-0.243750X0.456250X0*%
%ADD37R,3.000000X3.342000*%
%ADD38R,3.000000X3.469000*%
%ADD39R,1.500000X2.000000*%
%ADD40R,3.800000X2.000000*%
G04 APERTURE END LIST*
D10*
X138350000Y-77200000D02*
X140950000Y-77200000D01*
X140950000Y-79900000D01*
X138350000Y-79900000D01*
X138350000Y-77200000D01*
G36*
X138350000Y-77200000D02*
G01*
X140950000Y-77200000D01*
X140950000Y-79900000D01*
X138350000Y-79900000D01*
X138350000Y-77200000D01*
G37*
D11*
X143000000Y-90750000D02*
X130300000Y-90750000D01*
D10*
X158500000Y-102500000D02*
X155700000Y-105000000D01*
X155700000Y-100000000D01*
X158500000Y-102500000D01*
G36*
X158500000Y-102500000D02*
G01*
X155700000Y-105000000D01*
X155700000Y-100000000D01*
X158500000Y-102500000D01*
G37*
D11*
X143000000Y-80250000D02*
X143000000Y-90750000D01*
D10*
X152600000Y-125550000D02*
X157750000Y-125550000D01*
X157750000Y-128300000D01*
X152600000Y-128300000D01*
X152600000Y-125550000D01*
G36*
X152600000Y-125550000D02*
G01*
X157750000Y-125550000D01*
X157750000Y-128300000D01*
X152600000Y-128300000D01*
X152600000Y-125550000D01*
G37*
X130300000Y-105249200D02*
X133962800Y-105249200D01*
X133962800Y-109875400D01*
X130300000Y-109875400D01*
X130300000Y-105249200D01*
G36*
X130300000Y-105249200D02*
G01*
X133962800Y-105249200D01*
X133962800Y-109875400D01*
X130300000Y-109875400D01*
X130300000Y-105249200D01*
G37*
X170649000Y-123300000D02*
X178300000Y-123300000D01*
X178300000Y-125350000D01*
X170649000Y-125350000D01*
X170649000Y-123300000D01*
G36*
X170649000Y-123300000D02*
G01*
X178300000Y-123300000D01*
X178300000Y-125350000D01*
X170649000Y-125350000D01*
X170649000Y-123300000D01*
G37*
D11*
X133950000Y-109850000D02*
X133950000Y-94700000D01*
D10*
X170649000Y-80125000D02*
X178300000Y-80125000D01*
X178300000Y-82175000D01*
X170649000Y-82175000D01*
X170649000Y-80125000D01*
G36*
X170649000Y-80125000D02*
G01*
X178300000Y-80125000D01*
X178300000Y-82175000D01*
X170649000Y-82175000D01*
X170649000Y-80125000D01*
G37*
X150300000Y-95200000D02*
X152300000Y-95200000D01*
X152300000Y-109850000D01*
X150300000Y-109850000D01*
X150300000Y-95200000D01*
G36*
X150300000Y-95200000D02*
G01*
X152300000Y-95200000D01*
X152300000Y-109850000D01*
X150300000Y-109850000D01*
X150300000Y-95200000D01*
G37*
D11*
X130250000Y-94700000D02*
X133950000Y-94700000D01*
D12*
X138787714Y-122957143D02*
X138787714Y-123528572D01*
X138444857Y-122842857D02*
X139644857Y-123242857D01*
X139644857Y-123242857D02*
X138444857Y-123642857D01*
X138444857Y-124042857D02*
X139644857Y-124042857D01*
X139644857Y-124042857D02*
X138444857Y-124728571D01*
X138444857Y-124728571D02*
X139644857Y-124728571D01*
X139587714Y-125928571D02*
X139644857Y-125814286D01*
X139644857Y-125814286D02*
X139644857Y-125642857D01*
X139644857Y-125642857D02*
X139587714Y-125471428D01*
X139587714Y-125471428D02*
X139473428Y-125357143D01*
X139473428Y-125357143D02*
X139359142Y-125300000D01*
X139359142Y-125300000D02*
X139130571Y-125242857D01*
X139130571Y-125242857D02*
X138959142Y-125242857D01*
X138959142Y-125242857D02*
X138730571Y-125300000D01*
X138730571Y-125300000D02*
X138616285Y-125357143D01*
X138616285Y-125357143D02*
X138502000Y-125471428D01*
X138502000Y-125471428D02*
X138444857Y-125642857D01*
X138444857Y-125642857D02*
X138444857Y-125757143D01*
X138444857Y-125757143D02*
X138502000Y-125928571D01*
X138502000Y-125928571D02*
X138559142Y-125985714D01*
X138559142Y-125985714D02*
X138959142Y-125985714D01*
X138959142Y-125985714D02*
X138959142Y-125757143D01*
X138444857Y-127071428D02*
X138444857Y-126500000D01*
X138444857Y-126500000D02*
X139644857Y-126500000D01*
X139073428Y-127471429D02*
X139073428Y-127871429D01*
X138444857Y-128042857D02*
X138444857Y-127471429D01*
X138444857Y-127471429D02*
X139644857Y-127471429D01*
X139644857Y-127471429D02*
X139644857Y-128042857D01*
D11*
X130966666Y-92114895D02*
X130585714Y-92114895D01*
X130585714Y-92114895D02*
X130585714Y-91314895D01*
X131233333Y-91695847D02*
X131499999Y-91695847D01*
X131614285Y-92114895D02*
X131233333Y-92114895D01*
X131233333Y-92114895D02*
X131233333Y-91314895D01*
X131233333Y-91314895D02*
X131614285Y-91314895D01*
X131957143Y-92114895D02*
X131957143Y-91314895D01*
X131957143Y-91314895D02*
X132147619Y-91314895D01*
X132147619Y-91314895D02*
X132261905Y-91352990D01*
X132261905Y-91352990D02*
X132338095Y-91429180D01*
X132338095Y-91429180D02*
X132376190Y-91505371D01*
X132376190Y-91505371D02*
X132414286Y-91657752D01*
X132414286Y-91657752D02*
X132414286Y-91772038D01*
X132414286Y-91772038D02*
X132376190Y-91924419D01*
X132376190Y-91924419D02*
X132338095Y-92000609D01*
X132338095Y-92000609D02*
X132261905Y-92076800D01*
X132261905Y-92076800D02*
X132147619Y-92114895D01*
X132147619Y-92114895D02*
X131957143Y-92114895D01*
X132719047Y-92076800D02*
X132795238Y-92114895D01*
X132795238Y-92114895D02*
X132947619Y-92114895D01*
X132947619Y-92114895D02*
X133023809Y-92076800D01*
X133023809Y-92076800D02*
X133061905Y-92000609D01*
X133061905Y-92000609D02*
X133061905Y-91962514D01*
X133061905Y-91962514D02*
X133023809Y-91886323D01*
X133023809Y-91886323D02*
X132947619Y-91848228D01*
X132947619Y-91848228D02*
X132833333Y-91848228D01*
X132833333Y-91848228D02*
X132757143Y-91810133D01*
X132757143Y-91810133D02*
X132719047Y-91733942D01*
X132719047Y-91733942D02*
X132719047Y-91695847D01*
X132719047Y-91695847D02*
X132757143Y-91619657D01*
X132757143Y-91619657D02*
X132833333Y-91581561D01*
X132833333Y-91581561D02*
X132947619Y-91581561D01*
X132947619Y-91581561D02*
X133023809Y-91619657D01*
X134166667Y-91314895D02*
X134319048Y-91314895D01*
X134319048Y-91314895D02*
X134395238Y-91352990D01*
X134395238Y-91352990D02*
X134471429Y-91429180D01*
X134471429Y-91429180D02*
X134509524Y-91581561D01*
X134509524Y-91581561D02*
X134509524Y-91848228D01*
X134509524Y-91848228D02*
X134471429Y-92000609D01*
X134471429Y-92000609D02*
X134395238Y-92076800D01*
X134395238Y-92076800D02*
X134319048Y-92114895D01*
X134319048Y-92114895D02*
X134166667Y-92114895D01*
X134166667Y-92114895D02*
X134090476Y-92076800D01*
X134090476Y-92076800D02*
X134014286Y-92000609D01*
X134014286Y-92000609D02*
X133976190Y-91848228D01*
X133976190Y-91848228D02*
X133976190Y-91581561D01*
X133976190Y-91581561D02*
X134014286Y-91429180D01*
X134014286Y-91429180D02*
X134090476Y-91352990D01*
X134090476Y-91352990D02*
X134166667Y-91314895D01*
X134852381Y-92114895D02*
X134852381Y-91314895D01*
X134852381Y-91314895D02*
X135309524Y-92114895D01*
X135309524Y-92114895D02*
X135309524Y-91314895D01*
X136261904Y-91276800D02*
X135576190Y-92305371D01*
X136490475Y-92076800D02*
X136604761Y-92114895D01*
X136604761Y-92114895D02*
X136795237Y-92114895D01*
X136795237Y-92114895D02*
X136871428Y-92076800D01*
X136871428Y-92076800D02*
X136909523Y-92038704D01*
X136909523Y-92038704D02*
X136947618Y-91962514D01*
X136947618Y-91962514D02*
X136947618Y-91886323D01*
X136947618Y-91886323D02*
X136909523Y-91810133D01*
X136909523Y-91810133D02*
X136871428Y-91772038D01*
X136871428Y-91772038D02*
X136795237Y-91733942D01*
X136795237Y-91733942D02*
X136642856Y-91695847D01*
X136642856Y-91695847D02*
X136566666Y-91657752D01*
X136566666Y-91657752D02*
X136528571Y-91619657D01*
X136528571Y-91619657D02*
X136490475Y-91543466D01*
X136490475Y-91543466D02*
X136490475Y-91467276D01*
X136490475Y-91467276D02*
X136528571Y-91391085D01*
X136528571Y-91391085D02*
X136566666Y-91352990D01*
X136566666Y-91352990D02*
X136642856Y-91314895D01*
X136642856Y-91314895D02*
X136833333Y-91314895D01*
X136833333Y-91314895D02*
X136947618Y-91352990D01*
X137176190Y-91314895D02*
X137633333Y-91314895D01*
X137404761Y-92114895D02*
X137404761Y-91314895D01*
X137861904Y-91886323D02*
X138242857Y-91886323D01*
X137785714Y-92114895D02*
X138052381Y-91314895D01*
X138052381Y-91314895D02*
X138319047Y-92114895D01*
X138471428Y-91314895D02*
X138928571Y-91314895D01*
X138699999Y-92114895D02*
X138699999Y-91314895D01*
X139195238Y-91314895D02*
X139195238Y-91962514D01*
X139195238Y-91962514D02*
X139233333Y-92038704D01*
X139233333Y-92038704D02*
X139271428Y-92076800D01*
X139271428Y-92076800D02*
X139347619Y-92114895D01*
X139347619Y-92114895D02*
X139500000Y-92114895D01*
X139500000Y-92114895D02*
X139576190Y-92076800D01*
X139576190Y-92076800D02*
X139614285Y-92038704D01*
X139614285Y-92038704D02*
X139652381Y-91962514D01*
X139652381Y-91962514D02*
X139652381Y-91314895D01*
X139995237Y-92076800D02*
X140109523Y-92114895D01*
X140109523Y-92114895D02*
X140299999Y-92114895D01*
X140299999Y-92114895D02*
X140376190Y-92076800D01*
X140376190Y-92076800D02*
X140414285Y-92038704D01*
X140414285Y-92038704D02*
X140452380Y-91962514D01*
X140452380Y-91962514D02*
X140452380Y-91886323D01*
X140452380Y-91886323D02*
X140414285Y-91810133D01*
X140414285Y-91810133D02*
X140376190Y-91772038D01*
X140376190Y-91772038D02*
X140299999Y-91733942D01*
X140299999Y-91733942D02*
X140147618Y-91695847D01*
X140147618Y-91695847D02*
X140071428Y-91657752D01*
X140071428Y-91657752D02*
X140033333Y-91619657D01*
X140033333Y-91619657D02*
X139995237Y-91543466D01*
X139995237Y-91543466D02*
X139995237Y-91467276D01*
X139995237Y-91467276D02*
X140033333Y-91391085D01*
X140033333Y-91391085D02*
X140071428Y-91352990D01*
X140071428Y-91352990D02*
X140147618Y-91314895D01*
X140147618Y-91314895D02*
X140338095Y-91314895D01*
X140338095Y-91314895D02*
X140452380Y-91352990D01*
X138361905Y-86262619D02*
X138980952Y-86262619D01*
X138980952Y-86262619D02*
X138647619Y-86643571D01*
X138647619Y-86643571D02*
X138790476Y-86643571D01*
X138790476Y-86643571D02*
X138885714Y-86691190D01*
X138885714Y-86691190D02*
X138933333Y-86738809D01*
X138933333Y-86738809D02*
X138980952Y-86834047D01*
X138980952Y-86834047D02*
X138980952Y-87072142D01*
X138980952Y-87072142D02*
X138933333Y-87167380D01*
X138933333Y-87167380D02*
X138885714Y-87215000D01*
X138885714Y-87215000D02*
X138790476Y-87262619D01*
X138790476Y-87262619D02*
X138504762Y-87262619D01*
X138504762Y-87262619D02*
X138409524Y-87215000D01*
X138409524Y-87215000D02*
X138361905Y-87167380D01*
X139266667Y-86262619D02*
X139600000Y-87262619D01*
X139600000Y-87262619D02*
X139933333Y-86262619D01*
X140171429Y-86262619D02*
X140790476Y-86262619D01*
X140790476Y-86262619D02*
X140457143Y-86643571D01*
X140457143Y-86643571D02*
X140600000Y-86643571D01*
X140600000Y-86643571D02*
X140695238Y-86691190D01*
X140695238Y-86691190D02*
X140742857Y-86738809D01*
X140742857Y-86738809D02*
X140790476Y-86834047D01*
X140790476Y-86834047D02*
X140790476Y-87072142D01*
X140790476Y-87072142D02*
X140742857Y-87167380D01*
X140742857Y-87167380D02*
X140695238Y-87215000D01*
X140695238Y-87215000D02*
X140600000Y-87262619D01*
X140600000Y-87262619D02*
X140314286Y-87262619D01*
X140314286Y-87262619D02*
X140219048Y-87215000D01*
X140219048Y-87215000D02*
X140171429Y-87167380D01*
X138809523Y-81662619D02*
X138333333Y-81662619D01*
X138333333Y-81662619D02*
X138333333Y-80662619D01*
X138345238Y-84462619D02*
X138345238Y-83462619D01*
X139011904Y-83462619D02*
X139202380Y-83462619D01*
X139202380Y-83462619D02*
X139297618Y-83510238D01*
X139297618Y-83510238D02*
X139392856Y-83605476D01*
X139392856Y-83605476D02*
X139440475Y-83795952D01*
X139440475Y-83795952D02*
X139440475Y-84129285D01*
X139440475Y-84129285D02*
X139392856Y-84319761D01*
X139392856Y-84319761D02*
X139297618Y-84415000D01*
X139297618Y-84415000D02*
X139202380Y-84462619D01*
X139202380Y-84462619D02*
X139011904Y-84462619D01*
X139011904Y-84462619D02*
X138916666Y-84415000D01*
X138916666Y-84415000D02*
X138821428Y-84319761D01*
X138821428Y-84319761D02*
X138773809Y-84129285D01*
X138773809Y-84129285D02*
X138773809Y-83795952D01*
X138773809Y-83795952D02*
X138821428Y-83605476D01*
X138821428Y-83605476D02*
X138916666Y-83510238D01*
X138916666Y-83510238D02*
X139011904Y-83462619D01*
X140440475Y-84462619D02*
X140107142Y-83986428D01*
X139869047Y-84462619D02*
X139869047Y-83462619D01*
X139869047Y-83462619D02*
X140249999Y-83462619D01*
X140249999Y-83462619D02*
X140345237Y-83510238D01*
X140345237Y-83510238D02*
X140392856Y-83557857D01*
X140392856Y-83557857D02*
X140440475Y-83653095D01*
X140440475Y-83653095D02*
X140440475Y-83795952D01*
X140440475Y-83795952D02*
X140392856Y-83891190D01*
X140392856Y-83891190D02*
X140345237Y-83938809D01*
X140345237Y-83938809D02*
X140249999Y-83986428D01*
X140249999Y-83986428D02*
X139869047Y-83986428D01*
X140869047Y-83938809D02*
X141202380Y-83938809D01*
X141345237Y-84462619D02*
X140869047Y-84462619D01*
X140869047Y-84462619D02*
X140869047Y-83462619D01*
X140869047Y-83462619D02*
X141345237Y-83462619D01*
X142107142Y-83938809D02*
X141773809Y-83938809D01*
X141773809Y-84462619D02*
X141773809Y-83462619D01*
X141773809Y-83462619D02*
X142249999Y-83462619D01*
X138357143Y-89012619D02*
X138690476Y-90012619D01*
X138690476Y-90012619D02*
X139023809Y-89012619D01*
X139690476Y-89488809D02*
X139833333Y-89536428D01*
X139833333Y-89536428D02*
X139880952Y-89584047D01*
X139880952Y-89584047D02*
X139928571Y-89679285D01*
X139928571Y-89679285D02*
X139928571Y-89822142D01*
X139928571Y-89822142D02*
X139880952Y-89917380D01*
X139880952Y-89917380D02*
X139833333Y-89965000D01*
X139833333Y-89965000D02*
X139738095Y-90012619D01*
X139738095Y-90012619D02*
X139357143Y-90012619D01*
X139357143Y-90012619D02*
X139357143Y-89012619D01*
X139357143Y-89012619D02*
X139690476Y-89012619D01*
X139690476Y-89012619D02*
X139785714Y-89060238D01*
X139785714Y-89060238D02*
X139833333Y-89107857D01*
X139833333Y-89107857D02*
X139880952Y-89203095D01*
X139880952Y-89203095D02*
X139880952Y-89298333D01*
X139880952Y-89298333D02*
X139833333Y-89393571D01*
X139833333Y-89393571D02*
X139785714Y-89441190D01*
X139785714Y-89441190D02*
X139690476Y-89488809D01*
X139690476Y-89488809D02*
X139357143Y-89488809D01*
X140309524Y-89726904D02*
X140785714Y-89726904D01*
X140214286Y-90012619D02*
X140547619Y-89012619D01*
X140547619Y-89012619D02*
X140880952Y-90012619D01*
X141071429Y-89012619D02*
X141642857Y-89012619D01*
X141357143Y-90012619D02*
X141357143Y-89012619D01*
X130588095Y-93290219D02*
X130588095Y-94099742D01*
X130588095Y-94099742D02*
X130635714Y-94194980D01*
X130635714Y-94194980D02*
X130683333Y-94242600D01*
X130683333Y-94242600D02*
X130778571Y-94290219D01*
X130778571Y-94290219D02*
X130969047Y-94290219D01*
X130969047Y-94290219D02*
X131064285Y-94242600D01*
X131064285Y-94242600D02*
X131111904Y-94194980D01*
X131111904Y-94194980D02*
X131159523Y-94099742D01*
X131159523Y-94099742D02*
X131159523Y-93290219D01*
X131588095Y-94004504D02*
X132064285Y-94004504D01*
X131492857Y-94290219D02*
X131826190Y-93290219D01*
X131826190Y-93290219D02*
X132159523Y-94290219D01*
X133064285Y-94290219D02*
X132730952Y-93814028D01*
X132492857Y-94290219D02*
X132492857Y-93290219D01*
X132492857Y-93290219D02*
X132873809Y-93290219D01*
X132873809Y-93290219D02*
X132969047Y-93337838D01*
X132969047Y-93337838D02*
X133016666Y-93385457D01*
X133016666Y-93385457D02*
X133064285Y-93480695D01*
X133064285Y-93480695D02*
X133064285Y-93623552D01*
X133064285Y-93623552D02*
X133016666Y-93718790D01*
X133016666Y-93718790D02*
X132969047Y-93766409D01*
X132969047Y-93766409D02*
X132873809Y-93814028D01*
X132873809Y-93814028D02*
X132492857Y-93814028D01*
X133350000Y-93290219D02*
X133921428Y-93290219D01*
X133635714Y-94290219D02*
X133635714Y-93290219D01*
D13*
%TO.C,U1*%
X151211905Y-118812619D02*
X151830952Y-118812619D01*
X151830952Y-118812619D02*
X151497619Y-119193571D01*
X151497619Y-119193571D02*
X151640476Y-119193571D01*
X151640476Y-119193571D02*
X151735714Y-119241190D01*
X151735714Y-119241190D02*
X151783333Y-119288809D01*
X151783333Y-119288809D02*
X151830952Y-119384047D01*
X151830952Y-119384047D02*
X151830952Y-119622142D01*
X151830952Y-119622142D02*
X151783333Y-119717380D01*
X151783333Y-119717380D02*
X151735714Y-119765000D01*
X151735714Y-119765000D02*
X151640476Y-119812619D01*
X151640476Y-119812619D02*
X151354762Y-119812619D01*
X151354762Y-119812619D02*
X151259524Y-119765000D01*
X151259524Y-119765000D02*
X151211905Y-119717380D01*
X152116667Y-118812619D02*
X152450000Y-119812619D01*
X152450000Y-119812619D02*
X152783333Y-118812619D01*
X153021429Y-118812619D02*
X153640476Y-118812619D01*
X153640476Y-118812619D02*
X153307143Y-119193571D01*
X153307143Y-119193571D02*
X153450000Y-119193571D01*
X153450000Y-119193571D02*
X153545238Y-119241190D01*
X153545238Y-119241190D02*
X153592857Y-119288809D01*
X153592857Y-119288809D02*
X153640476Y-119384047D01*
X153640476Y-119384047D02*
X153640476Y-119622142D01*
X153640476Y-119622142D02*
X153592857Y-119717380D01*
X153592857Y-119717380D02*
X153545238Y-119765000D01*
X153545238Y-119765000D02*
X153450000Y-119812619D01*
X153450000Y-119812619D02*
X153164286Y-119812619D01*
X153164286Y-119812619D02*
X153069048Y-119765000D01*
X153069048Y-119765000D02*
X153021429Y-119717380D01*
%TO.C,R19*%
X136000000Y-115908000D02*
X136000000Y-114892000D01*
%TO.C,D2*%
X148504000Y-83831000D02*
X147869000Y-83450000D01*
X148504000Y-83069000D01*
X148504000Y-83831000D01*
G36*
X148504000Y-83831000D02*
G01*
X147869000Y-83450000D01*
X148504000Y-83069000D01*
X148504000Y-83831000D01*
G37*
%TO.C,R2*%
X172492000Y-99540000D02*
X173508000Y-99540000D01*
X173508000Y-99540000D02*
X173508000Y-94460000D01*
X173508000Y-94460000D02*
X172492000Y-94460000D01*
X172492000Y-94460000D02*
X172492000Y-99540000D01*
%TO.C,R16*%
X172600000Y-85692000D02*
X172600000Y-86708000D01*
%TO.C,Q1*%
X131769000Y-117434000D02*
X132531000Y-117434000D01*
X132531000Y-117434000D02*
X132531000Y-119466000D01*
X132531000Y-119466000D02*
X131769000Y-119466000D01*
%TO.C,R9*%
X165000000Y-93708000D02*
X165000000Y-92692000D01*
D14*
%TO.C,C5*%
X151942000Y-113011252D02*
X151942000Y-112488748D01*
X152958000Y-113011252D02*
X152958000Y-112488748D01*
D13*
%TO.C,C12*%
X144475500Y-91761000D02*
X145110500Y-91761000D01*
X145110500Y-91761000D02*
X145110500Y-93539000D01*
X145110500Y-93539000D02*
X144475500Y-93539000D01*
X144475500Y-93539000D02*
X144475500Y-91761000D01*
G36*
X144475500Y-91761000D02*
G01*
X145110500Y-91761000D01*
X145110500Y-93539000D01*
X144475500Y-93539000D01*
X144475500Y-91761000D01*
G37*
%TO.C,G\u002A\u002A\u002A*%
G36*
X158381564Y-86345200D02*
G01*
X158489187Y-86383265D01*
X158574024Y-86415490D01*
X158757981Y-86504694D01*
X158855736Y-86594853D01*
X158867290Y-86685007D01*
X158792647Y-86774197D01*
X158631811Y-86861461D01*
X158572582Y-86884951D01*
X158441729Y-86932746D01*
X158346955Y-86965190D01*
X158313663Y-86974363D01*
X158304129Y-86934757D01*
X158297076Y-86829989D01*
X158293805Y-86681139D01*
X158293718Y-86650934D01*
X158297673Y-86496677D01*
X158308136Y-86382991D01*
X158323003Y-86330775D01*
X158326061Y-86329521D01*
X158381564Y-86345200D01*
G37*
G36*
X157387336Y-86612803D02*
G01*
X157388116Y-86686300D01*
X157388116Y-87116969D01*
X156687352Y-87089033D01*
X156201701Y-87059537D01*
X155794673Y-87013068D01*
X155467609Y-86949932D01*
X155221853Y-86870432D01*
X155058749Y-86774871D01*
X155001436Y-86709546D01*
X156637962Y-86709546D01*
X156695311Y-86839933D01*
X156758493Y-86898236D01*
X156866114Y-86929009D01*
X157001170Y-86919637D01*
X157117421Y-86874811D01*
X157136757Y-86859870D01*
X157199713Y-86751448D01*
X157210756Y-86612803D01*
X157169170Y-86483118D01*
X157144250Y-86449491D01*
X157040447Y-86389311D01*
X156904084Y-86372707D01*
X156776425Y-86401053D01*
X156725600Y-86435570D01*
X156647391Y-86565383D01*
X156637962Y-86709546D01*
X155001436Y-86709546D01*
X154999521Y-86707363D01*
X154987704Y-86618138D01*
X155056996Y-86530419D01*
X155202269Y-86446883D01*
X155418392Y-86370208D01*
X155700236Y-86303071D01*
X155814092Y-86282214D01*
X155958960Y-86262973D01*
X156149785Y-86245384D01*
X156369717Y-86230112D01*
X156601905Y-86217817D01*
X156829497Y-86209164D01*
X157035643Y-86204813D01*
X157203492Y-86205429D01*
X157316193Y-86211673D01*
X157355773Y-86221596D01*
X157369468Y-86276770D01*
X157380289Y-86397939D01*
X157386828Y-86564865D01*
X157387336Y-86612803D01*
G37*
G36*
X158560989Y-85513817D02*
G01*
X158678019Y-85521752D01*
X158843154Y-85536877D01*
X159005263Y-85554205D01*
X159556974Y-85629638D01*
X160053536Y-85721756D01*
X160491729Y-85828800D01*
X160868332Y-85949008D01*
X161180124Y-86080622D01*
X161423885Y-86221882D01*
X161596394Y-86371026D01*
X161694430Y-86526297D01*
X161714772Y-86685932D01*
X161654201Y-86848173D01*
X161568981Y-86955157D01*
X161379145Y-87105464D01*
X161112341Y-87248321D01*
X160777719Y-87381062D01*
X160384426Y-87501019D01*
X159941612Y-87605523D01*
X159458424Y-87691906D01*
X158944011Y-87757501D01*
X158757301Y-87775138D01*
X158423090Y-87803851D01*
X158423090Y-87587779D01*
X158431795Y-87445628D01*
X158470175Y-87364658D01*
X158556633Y-87328089D01*
X158709569Y-87319143D01*
X158717704Y-87319121D01*
X158865820Y-87310509D01*
X159077871Y-87287162D01*
X159333438Y-87252325D01*
X159612104Y-87209248D01*
X159893451Y-87161175D01*
X160157060Y-87111356D01*
X160382514Y-87063036D01*
X160481658Y-87038592D01*
X160802462Y-86944034D01*
X161037598Y-86851907D01*
X161187599Y-86761831D01*
X161253002Y-86673430D01*
X161234338Y-86586326D01*
X161188446Y-86538844D01*
X161043967Y-86453646D01*
X160825039Y-86367302D01*
X160543372Y-86282621D01*
X160210673Y-86202414D01*
X159838652Y-86129488D01*
X159439016Y-86066654D01*
X159023475Y-86016720D01*
X159004246Y-86014788D01*
X158444652Y-85959032D01*
X158431617Y-85733591D01*
X158418583Y-85508150D01*
X158560989Y-85513817D01*
G37*
G36*
X157388116Y-85674326D02*
G01*
X157388116Y-85896265D01*
X156895621Y-85896265D01*
X156420324Y-85903890D01*
X155942831Y-85925821D01*
X155470917Y-85960638D01*
X155012362Y-86006924D01*
X154574941Y-86063260D01*
X154166434Y-86128229D01*
X153794618Y-86200412D01*
X153467269Y-86278390D01*
X153192167Y-86360747D01*
X152977087Y-86446063D01*
X152829809Y-86532920D01*
X152758109Y-86619901D01*
X152752292Y-86651775D01*
X152792732Y-86725284D01*
X152906179Y-86808561D01*
X153080822Y-86895726D01*
X153304852Y-86980899D01*
X153566460Y-87058201D01*
X153570795Y-87059318D01*
X153925159Y-87137620D01*
X154347066Y-87209544D01*
X154817926Y-87273136D01*
X155319149Y-87326439D01*
X155832144Y-87367499D01*
X156338320Y-87394362D01*
X156819086Y-87405072D01*
X156859847Y-87405176D01*
X157388116Y-87405603D01*
X157388116Y-87621223D01*
X157388116Y-87836842D01*
X156665790Y-87836397D01*
X156058488Y-87824365D01*
X155474496Y-87790081D01*
X154919986Y-87735125D01*
X154401135Y-87661075D01*
X153924117Y-87569510D01*
X153495107Y-87462010D01*
X153120280Y-87340153D01*
X152805811Y-87205519D01*
X152557875Y-87059687D01*
X152382646Y-86904236D01*
X152286301Y-86740744D01*
X152278764Y-86714540D01*
X152286572Y-86572841D01*
X152372970Y-86425114D01*
X152531069Y-86276793D01*
X152753975Y-86133310D01*
X153034797Y-86000098D01*
X153312903Y-85899314D01*
X153748780Y-85774573D01*
X154203128Y-85674014D01*
X154689697Y-85595743D01*
X155222236Y-85537862D01*
X155814492Y-85498474D01*
X156363922Y-85478400D01*
X157388116Y-85452387D01*
X157388116Y-85674326D01*
G37*
G36*
X157024947Y-82026498D02*
G01*
X157110958Y-82071297D01*
X157210327Y-82165460D01*
X157253667Y-82213636D01*
X157417082Y-82448530D01*
X157565700Y-82760235D01*
X157698639Y-83140446D01*
X157815013Y-83580856D01*
X157913940Y-84073158D01*
X157994536Y-84609046D01*
X158055916Y-85180213D01*
X158097198Y-85778353D01*
X158117498Y-86395158D01*
X158115932Y-87022324D01*
X158091616Y-87651543D01*
X158043666Y-88274508D01*
X157971199Y-88882913D01*
X157966607Y-88914941D01*
X157884986Y-89394772D01*
X157785947Y-89834742D01*
X157672246Y-90228511D01*
X157546638Y-90569744D01*
X157411882Y-90852103D01*
X157270732Y-91069252D01*
X157125946Y-91214854D01*
X156980279Y-91282570D01*
X156934958Y-91286757D01*
X156781085Y-91253207D01*
X156637380Y-91148934D01*
X156498158Y-90968508D01*
X156383064Y-90759328D01*
X156241865Y-90421335D01*
X156111906Y-90010860D01*
X155996427Y-89541301D01*
X155898674Y-89026051D01*
X155821887Y-88478507D01*
X155813899Y-88408234D01*
X155784061Y-88138710D01*
X156001961Y-88138710D01*
X156079193Y-88136317D01*
X156136564Y-88136498D01*
X156178506Y-88150295D01*
X156209446Y-88188748D01*
X156233814Y-88262899D01*
X156256040Y-88383789D01*
X156280554Y-88562459D01*
X156311785Y-88809950D01*
X156330673Y-88958065D01*
X156392638Y-89375217D01*
X156465489Y-89757763D01*
X156546600Y-90096805D01*
X156633349Y-90383447D01*
X156723109Y-90608792D01*
X156813257Y-90763942D01*
X156883220Y-90831148D01*
X156962763Y-90839586D01*
X157044037Y-90769230D01*
X157128641Y-90617813D01*
X157218175Y-90383071D01*
X157234170Y-90334189D01*
X157361249Y-89865415D01*
X157466738Y-89326408D01*
X157550247Y-88730538D01*
X157611384Y-88091174D01*
X157649759Y-87421687D01*
X157664981Y-86735445D01*
X157656659Y-86045819D01*
X157624401Y-85366177D01*
X157567817Y-84709890D01*
X157486515Y-84090327D01*
X157426808Y-83747488D01*
X157349737Y-83389730D01*
X157266333Y-83079430D01*
X157179506Y-82823701D01*
X157092166Y-82629654D01*
X157007223Y-82504403D01*
X156927587Y-82455060D01*
X156899135Y-82457752D01*
X156821305Y-82522868D01*
X156738571Y-82663993D01*
X156653911Y-82871251D01*
X156570301Y-83134762D01*
X156490719Y-83444651D01*
X156418142Y-83791039D01*
X156355547Y-84164048D01*
X156330673Y-84343803D01*
X156294571Y-84628634D01*
X156267334Y-84839285D01*
X156244587Y-84986799D01*
X156221955Y-85082223D01*
X156195065Y-85136602D01*
X156159544Y-85160981D01*
X156111016Y-85166404D01*
X156045108Y-85163918D01*
X156006195Y-85163158D01*
X155920026Y-85164019D01*
X155858670Y-85158661D01*
X155820017Y-85135170D01*
X155801953Y-85081634D01*
X155802366Y-84986140D01*
X155819144Y-84836774D01*
X155850175Y-84621624D01*
X155877500Y-84437373D01*
X155965865Y-83918947D01*
X156069843Y-83452572D01*
X156187361Y-83043043D01*
X156316343Y-82695153D01*
X156454714Y-82413697D01*
X156600399Y-82203467D01*
X156751323Y-82069259D01*
X156905412Y-82015866D01*
X156925960Y-82015110D01*
X157024947Y-82026498D01*
G37*
G36*
X162456084Y-86299705D02*
G01*
X162468722Y-86741812D01*
X162410628Y-87370766D01*
X162276369Y-87992286D01*
X162065890Y-88600279D01*
X161779135Y-89188655D01*
X161416048Y-89751324D01*
X160976576Y-90282196D01*
X160818257Y-90445905D01*
X160302153Y-90906632D01*
X159756466Y-91287990D01*
X159173945Y-91593917D01*
X158547338Y-91828349D01*
X158021678Y-91964459D01*
X157732954Y-92008674D01*
X157388909Y-92033778D01*
X157018309Y-92039853D01*
X156649917Y-92026983D01*
X156312499Y-91995249D01*
X156096144Y-91958923D01*
X155409853Y-91769414D01*
X154759988Y-91502123D01*
X154149859Y-91158909D01*
X153582777Y-90741627D01*
X153072508Y-90263165D01*
X152618250Y-89728448D01*
X152240736Y-89162745D01*
X151941628Y-88570310D01*
X151722584Y-87955398D01*
X151585265Y-87322263D01*
X151531330Y-86675161D01*
X151532909Y-86580773D01*
X151978988Y-86580773D01*
X152020276Y-87192235D01*
X152140825Y-87794495D01*
X152339324Y-88380940D01*
X152614462Y-88944957D01*
X152964927Y-89479934D01*
X153376417Y-89965703D01*
X153861376Y-90416027D01*
X154384660Y-90795701D01*
X154939414Y-91103400D01*
X155518784Y-91337799D01*
X156115917Y-91497571D01*
X156723957Y-91581392D01*
X157336052Y-91587935D01*
X157945346Y-91515875D01*
X158544987Y-91363887D01*
X159128119Y-91130646D01*
X159205060Y-91092933D01*
X159748234Y-90775192D01*
X160250901Y-90390410D01*
X160704677Y-89948056D01*
X161101179Y-89457601D01*
X161432025Y-88928513D01*
X161688831Y-88370263D01*
X161739617Y-88229782D01*
X161916067Y-87586801D01*
X162006985Y-86942142D01*
X162012606Y-86299705D01*
X161933160Y-85663392D01*
X161768880Y-85037103D01*
X161519999Y-84424741D01*
X161512134Y-84408489D01*
X161190530Y-83841038D01*
X160804911Y-83324454D01*
X160361985Y-82863662D01*
X159868463Y-82463589D01*
X159331054Y-82129161D01*
X158756467Y-81865305D01*
X158151413Y-81676946D01*
X157668421Y-81586381D01*
X157413907Y-81565742D01*
X157106632Y-81561632D01*
X156778226Y-81572776D01*
X156460319Y-81597897D01*
X156184540Y-81635720D01*
X156116513Y-81648978D01*
X155484459Y-81826019D01*
X154882512Y-82079201D01*
X154317717Y-82402719D01*
X153797124Y-82790765D01*
X153327777Y-83237534D01*
X152916726Y-83737220D01*
X152571017Y-84284017D01*
X152343798Y-84757306D01*
X152139438Y-85356696D01*
X152018271Y-85966723D01*
X151978988Y-86580773D01*
X151532909Y-86580773D01*
X151537145Y-86327504D01*
X151612757Y-85679033D01*
X151769692Y-85048453D01*
X152003867Y-84441632D01*
X152311197Y-83864441D01*
X152687601Y-83322749D01*
X153128994Y-82822426D01*
X153631293Y-82369342D01*
X154190415Y-81969367D01*
X154802277Y-81628369D01*
X154808166Y-81625510D01*
X155326963Y-81412737D01*
X155885485Y-81253567D01*
X156463478Y-81150943D01*
X157040691Y-81107805D01*
X157596870Y-81127094D01*
X157927165Y-81172590D01*
X158584097Y-81334834D01*
X159205736Y-81574853D01*
X159794027Y-81893661D01*
X160350915Y-82292273D01*
X160747398Y-82642538D01*
X161220912Y-83153006D01*
X161618648Y-83698673D01*
X161940551Y-84273448D01*
X162186565Y-84871239D01*
X162356635Y-85485957D01*
X162450705Y-86111512D01*
X162456084Y-86299705D01*
G37*
%TO.C,D7*%
X168131000Y-119250000D02*
X167496000Y-119631000D01*
X167496000Y-118869000D01*
X168131000Y-119250000D01*
G36*
X168131000Y-119250000D02*
G01*
X167496000Y-119631000D01*
X167496000Y-118869000D01*
X168131000Y-119250000D01*
G37*
%TO.C,D10*%
X168131000Y-88750000D02*
X167496000Y-89131000D01*
X167496000Y-88369000D01*
X168131000Y-88750000D01*
G36*
X168131000Y-88750000D02*
G01*
X167496000Y-89131000D01*
X167496000Y-88369000D01*
X168131000Y-88750000D01*
G37*
D14*
%TO.C,C2*%
X169811252Y-112358000D02*
X169288748Y-112358000D01*
X169811252Y-111342000D02*
X169288748Y-111342000D01*
%TO.C,D11*%
X136561200Y-128176000D02*
X131561200Y-128176000D01*
D13*
X135331200Y-126746000D02*
X132791200Y-125476000D01*
X135331200Y-124206000D01*
X135331200Y-126746000D01*
G36*
X135331200Y-126746000D02*
G01*
X132791200Y-125476000D01*
X135331200Y-124206000D01*
X135331200Y-126746000D01*
G37*
%TO.C,C10*%
X171158000Y-84158000D02*
X170777000Y-84158000D01*
X170777000Y-84158000D02*
X170777000Y-83142000D01*
X170777000Y-83142000D02*
X171158000Y-83142000D01*
X171158000Y-83142000D02*
X171158000Y-84158000D01*
G36*
X171158000Y-84158000D02*
G01*
X170777000Y-84158000D01*
X170777000Y-83142000D01*
X171158000Y-83142000D01*
X171158000Y-84158000D01*
G37*
D14*
%TO.C,SW1*%
X169619050Y-102390000D02*
G75*
G03*
X169619050Y-102390000I-4579050J0D01*
G01*
%TO.C,C3*%
D13*
X158061000Y-118715000D02*
X157172000Y-118715000D01*
X158061000Y-117572000D01*
X158061000Y-118715000D01*
G36*
X158061000Y-118715000D02*
G01*
X157172000Y-118715000D01*
X158061000Y-117572000D01*
X158061000Y-118715000D01*
G37*
X160728000Y-118715000D02*
X159839000Y-118715000D01*
X159839000Y-117572000D01*
X160728000Y-118715000D01*
G36*
X160728000Y-118715000D02*
G01*
X159839000Y-118715000D01*
X159839000Y-117572000D01*
X160728000Y-118715000D01*
G37*
%TO.C,G\u002A\u002A\u002A*%
G36*
X134450000Y-112200000D02*
G01*
X134450000Y-114200000D01*
X132449639Y-114200000D01*
X130449278Y-114199999D01*
X130452139Y-113712500D01*
X130455000Y-113225000D01*
X130482621Y-113178014D01*
X130503655Y-113148686D01*
X130534354Y-113113552D01*
X130568778Y-113079309D01*
X130575748Y-113073014D01*
X130659166Y-112988840D01*
X130723836Y-112900137D01*
X130770815Y-112805162D01*
X130801159Y-112702175D01*
X130801362Y-112701195D01*
X130809111Y-112667315D01*
X130816083Y-112649257D01*
X130824580Y-112643078D01*
X130834627Y-112644200D01*
X130851009Y-112646337D01*
X130883668Y-112648871D01*
X130928890Y-112651573D01*
X130982961Y-112654218D01*
X131030000Y-112656136D01*
X131230450Y-112657230D01*
X131441436Y-112646472D01*
X131657808Y-112624414D01*
X131874413Y-112591607D01*
X132086100Y-112548603D01*
X132128708Y-112538508D01*
X132176960Y-112526619D01*
X132218962Y-112515967D01*
X132250438Y-112507657D01*
X132267109Y-112502796D01*
X132267715Y-112502574D01*
X132276602Y-112506879D01*
X132279235Y-112527597D01*
X132276245Y-112562365D01*
X132268260Y-112608815D01*
X132255909Y-112664584D01*
X132239823Y-112727307D01*
X132220629Y-112794618D01*
X132198957Y-112864153D01*
X132175436Y-112933546D01*
X132150696Y-113000432D01*
X132125365Y-113062447D01*
X132109261Y-113098215D01*
X132060717Y-113201431D01*
X132092859Y-113194622D01*
X132157064Y-113176467D01*
X132233388Y-113147312D01*
X132318509Y-113108867D01*
X132409104Y-113062840D01*
X132501850Y-113010941D01*
X132593423Y-112954880D01*
X132680502Y-112896366D01*
X132700781Y-112881845D01*
X132756562Y-112841361D01*
X132809860Y-112908180D01*
X132874713Y-112995340D01*
X132944471Y-113100170D01*
X133018195Y-113221212D01*
X133070468Y-113312672D01*
X133101799Y-113368797D01*
X133125021Y-113408579D01*
X133142128Y-113432934D01*
X133155114Y-113442781D01*
X133165975Y-113439035D01*
X133176704Y-113422613D01*
X133189297Y-113394433D01*
X133198823Y-113371677D01*
X133229391Y-113289500D01*
X133257726Y-113195177D01*
X133283055Y-113092994D01*
X133304607Y-112987239D01*
X133321610Y-112882197D01*
X133333292Y-112782154D01*
X133338882Y-112691397D01*
X133337608Y-112614212D01*
X133336862Y-112605000D01*
X133331440Y-112545000D01*
X133382695Y-112510000D01*
X133463024Y-112450668D01*
X133550282Y-112378274D01*
X133640454Y-112296496D01*
X133729526Y-112209013D01*
X133813484Y-112119502D01*
X133833347Y-112097075D01*
X133858003Y-112067712D01*
X133886324Y-112032159D01*
X133915855Y-111993742D01*
X133944138Y-111955786D01*
X133968720Y-111921617D01*
X133987143Y-111894561D01*
X133996953Y-111877944D01*
X133997758Y-111874425D01*
X133987369Y-111872829D01*
X133960438Y-111870193D01*
X133920377Y-111866812D01*
X133870599Y-111862980D01*
X133835000Y-111860411D01*
X133676998Y-111847533D01*
X133537777Y-111832407D01*
X133416228Y-111814881D01*
X133311244Y-111794802D01*
X133249102Y-111779707D01*
X133228565Y-111772792D01*
X133216169Y-111762241D01*
X133207919Y-111742500D01*
X133200795Y-111712545D01*
X133171912Y-111599016D01*
X133133802Y-111480569D01*
X133088390Y-111361703D01*
X133037600Y-111246917D01*
X132983357Y-111140711D01*
X132927587Y-111047584D01*
X132898225Y-111005283D01*
X132846847Y-110935566D01*
X132819692Y-111045283D01*
X132794067Y-111142221D01*
X132764865Y-111241441D01*
X132733489Y-111338843D01*
X132701337Y-111430323D01*
X132669811Y-111511781D01*
X132640310Y-111579114D01*
X132631027Y-111597987D01*
X132610174Y-111638863D01*
X132501245Y-111600006D01*
X132448577Y-111582451D01*
X132384284Y-111562879D01*
X132316269Y-111543604D01*
X132252431Y-111526941D01*
X132248659Y-111526015D01*
X132192572Y-111513054D01*
X132131939Y-111500321D01*
X132070274Y-111488413D01*
X132011088Y-111477925D01*
X131957894Y-111469456D01*
X131914204Y-111463603D01*
X131883530Y-111460962D01*
X131870285Y-111461699D01*
X131872004Y-111470281D01*
X131884341Y-111490704D01*
X131905046Y-111519498D01*
X131921071Y-111540000D01*
X131976745Y-111612734D01*
X132033166Y-111692707D01*
X132086629Y-111774291D01*
X132133433Y-111851859D01*
X132166345Y-111912676D01*
X132185703Y-111953043D01*
X132205936Y-111998281D01*
X132225540Y-112044619D01*
X132243013Y-112088286D01*
X132256850Y-112125512D01*
X132265548Y-112152525D01*
X132267604Y-112165555D01*
X132267346Y-112165987D01*
X132255271Y-112169901D01*
X132227238Y-112175643D01*
X132187139Y-112182604D01*
X132138866Y-112190175D01*
X132086312Y-112197748D01*
X132033370Y-112204715D01*
X131983932Y-112210468D01*
X131980195Y-112210863D01*
X131905698Y-112216341D01*
X131818398Y-112218976D01*
X131723377Y-112218930D01*
X131625717Y-112216364D01*
X131530498Y-112211440D01*
X131442802Y-112204319D01*
X131367710Y-112195162D01*
X131340000Y-112190535D01*
X131157851Y-112151797D01*
X130981506Y-112103738D01*
X130912511Y-112082089D01*
X130795173Y-112044014D01*
X130778902Y-111939507D01*
X130760165Y-111834579D01*
X130738436Y-111745587D01*
X130712080Y-111668515D01*
X130679464Y-111599346D01*
X130638954Y-111534062D01*
X130588915Y-111468647D01*
X130585883Y-111465000D01*
X130552536Y-111423567D01*
X130521119Y-111381936D01*
X130495699Y-111345633D01*
X130482887Y-111325000D01*
X130455000Y-111275000D01*
X130452169Y-110737500D01*
X130449338Y-110200000D01*
X132449669Y-110200000D01*
X134450000Y-110200000D01*
X134450000Y-112200000D01*
G37*
%TO.C,C11*%
X144475500Y-111461000D02*
X145110500Y-111461000D01*
X145110500Y-111461000D02*
X145110500Y-113239000D01*
X145110500Y-113239000D02*
X144475500Y-113239000D01*
X144475500Y-113239000D02*
X144475500Y-111461000D01*
G36*
X144475500Y-111461000D02*
G01*
X145110500Y-111461000D01*
X145110500Y-113239000D01*
X144475500Y-113239000D01*
X144475500Y-111461000D01*
G37*
%TO.C,D8*%
X168131000Y-116700000D02*
X167496000Y-117081000D01*
X167496000Y-116319000D01*
X168131000Y-116700000D01*
G36*
X168131000Y-116700000D02*
G01*
X167496000Y-117081000D01*
X167496000Y-116319000D01*
X168131000Y-116700000D01*
G37*
D14*
%TO.C,C8*%
X147988748Y-80442000D02*
X148511252Y-80442000D01*
X147988748Y-81458000D02*
X148511252Y-81458000D01*
%TO.C,D6*%
D13*
X132568500Y-81708000D02*
X131806500Y-81200000D01*
X132568500Y-80692000D01*
X132568500Y-81708000D01*
G36*
X132568500Y-81708000D02*
G01*
X131806500Y-81200000D01*
X132568500Y-80692000D01*
X132568500Y-81708000D01*
G37*
%TO.C,R13*%
X136251500Y-81708000D02*
X136251500Y-80692000D01*
%TO.C,R14*%
X172600000Y-118742000D02*
X172600000Y-119758000D01*
%TO.C,C9*%
X171158000Y-122258000D02*
X170777000Y-122258000D01*
X170777000Y-122258000D02*
X170777000Y-121242000D01*
X170777000Y-121242000D02*
X171158000Y-121242000D01*
X171158000Y-121242000D02*
X171158000Y-122258000D01*
G36*
X171158000Y-122258000D02*
G01*
X170777000Y-122258000D01*
X170777000Y-121242000D01*
X171158000Y-121242000D01*
X171158000Y-122258000D01*
G37*
%TO.C,D5*%
X132568500Y-84502000D02*
X131806500Y-83994000D01*
X132568500Y-83486000D01*
X132568500Y-84502000D01*
G36*
X132568500Y-84502000D02*
G01*
X131806500Y-83994000D01*
X132568500Y-83486000D01*
X132568500Y-84502000D01*
G37*
%TO.C,R11*%
X136251500Y-87296000D02*
X136251500Y-86280000D01*
%TO.C,R12*%
X136251500Y-84502000D02*
X136251500Y-83486000D01*
%TO.C,R3*%
X177008000Y-94460000D02*
X175992000Y-94460000D01*
X175992000Y-94460000D02*
X175992000Y-99540000D01*
X175992000Y-99540000D02*
X177008000Y-99540000D01*
X177008000Y-99540000D02*
X177008000Y-94460000D01*
%TO.C,Q2*%
X135619000Y-117434000D02*
X136381000Y-117434000D01*
X136381000Y-117434000D02*
X136381000Y-119466000D01*
X136381000Y-119466000D02*
X135619000Y-119466000D01*
%TO.C,D4*%
X132568500Y-87296000D02*
X131806500Y-86788000D01*
X132568500Y-86280000D01*
X132568500Y-87296000D01*
G36*
X132568500Y-87296000D02*
G01*
X131806500Y-86788000D01*
X132568500Y-86280000D01*
X132568500Y-87296000D01*
G37*
%TO.C,F1*%
X144234000Y-120366000D02*
X146266000Y-118334000D01*
X146266000Y-120366000D02*
X144234000Y-118334000D01*
%TO.C,R20*%
X136000000Y-122008000D02*
X136000000Y-120992000D01*
%TO.C,G\u002A\u002A\u002A*%
G36*
X136340894Y-110484085D02*
G01*
X136385651Y-110484387D01*
X136428278Y-110484945D01*
X136467247Y-110485755D01*
X136501029Y-110486815D01*
X136528096Y-110488123D01*
X136546919Y-110489676D01*
X136555970Y-110491473D01*
X136556457Y-110491839D01*
X136558726Y-110499035D01*
X136562780Y-110516373D01*
X136568354Y-110542545D01*
X136575183Y-110576244D01*
X136583003Y-110616164D01*
X136591550Y-110660998D01*
X136600559Y-110709439D01*
X136601445Y-110714263D01*
X136613261Y-110777781D01*
X136623395Y-110830199D01*
X136631935Y-110871916D01*
X136638965Y-110903326D01*
X136644573Y-110924826D01*
X136648844Y-110936812D01*
X136650400Y-110939256D01*
X136658652Y-110944582D01*
X136675846Y-110953405D01*
X136700340Y-110965026D01*
X136730494Y-110978748D01*
X136764666Y-110993873D01*
X136801216Y-111009704D01*
X136838503Y-111025543D01*
X136874886Y-111040692D01*
X136908724Y-111054454D01*
X136938377Y-111066131D01*
X136962203Y-111075026D01*
X136978562Y-111080440D01*
X136985554Y-111081759D01*
X136992849Y-111078040D01*
X137008559Y-111068426D01*
X137031553Y-111053664D01*
X137060699Y-111034498D01*
X137094863Y-111011674D01*
X137132913Y-110985936D01*
X137173717Y-110958031D01*
X137177207Y-110955630D01*
X137218163Y-110927567D01*
X137256422Y-110901580D01*
X137290858Y-110878419D01*
X137320343Y-110858831D01*
X137343750Y-110843566D01*
X137359952Y-110833370D01*
X137367822Y-110828994D01*
X137368069Y-110828914D01*
X137373157Y-110830290D01*
X137382385Y-110836461D01*
X137396346Y-110847973D01*
X137415633Y-110865369D01*
X137440841Y-110889193D01*
X137472561Y-110919989D01*
X137511387Y-110958303D01*
X137538401Y-110985186D01*
X137577383Y-111024347D01*
X137612130Y-111059798D01*
X137641943Y-111090794D01*
X137666120Y-111116588D01*
X137683960Y-111136434D01*
X137694764Y-111149587D01*
X137697894Y-111155023D01*
X137694694Y-111162068D01*
X137685572Y-111177560D01*
X137671244Y-111200396D01*
X137652425Y-111229472D01*
X137629831Y-111263686D01*
X137604178Y-111301934D01*
X137576180Y-111343115D01*
X137569963Y-111352188D01*
X137534128Y-111404790D01*
X137503792Y-111450118D01*
X137479207Y-111487775D01*
X137460627Y-111517366D01*
X137448302Y-111538495D01*
X137442485Y-111550765D01*
X137442033Y-111552957D01*
X137444240Y-111562869D01*
X137450391Y-111581542D01*
X137459777Y-111607257D01*
X137471689Y-111638299D01*
X137485420Y-111672951D01*
X137500261Y-111709496D01*
X137515505Y-111746218D01*
X137530442Y-111781400D01*
X137544365Y-111813326D01*
X137556565Y-111840278D01*
X137566335Y-111860541D01*
X137572966Y-111872397D01*
X137574681Y-111874487D01*
X137583346Y-111877919D01*
X137602712Y-111883068D01*
X137632000Y-111889767D01*
X137670434Y-111897850D01*
X137717238Y-111907150D01*
X137771635Y-111917501D01*
X137800116Y-111922776D01*
X137849072Y-111931846D01*
X137894801Y-111940467D01*
X137935951Y-111948371D01*
X137971166Y-111955293D01*
X137999092Y-111960966D01*
X138018375Y-111965124D01*
X138027660Y-111967499D01*
X138027896Y-111967590D01*
X138040980Y-111972965D01*
X138040980Y-112202071D01*
X138040896Y-112262995D01*
X138040626Y-112313159D01*
X138040144Y-112353434D01*
X138039421Y-112384689D01*
X138038433Y-112407793D01*
X138037151Y-112423616D01*
X138035548Y-112433028D01*
X138033711Y-112436818D01*
X138026544Y-112439095D01*
X138009212Y-112443180D01*
X137982995Y-112448813D01*
X137949174Y-112455732D01*
X137909026Y-112463678D01*
X137863833Y-112472388D01*
X137814874Y-112481603D01*
X137803018Y-112483803D01*
X137753345Y-112493148D01*
X137707130Y-112502135D01*
X137665655Y-112510493D01*
X137630203Y-112517951D01*
X137602056Y-112524238D01*
X137582496Y-112529082D01*
X137572804Y-112532212D01*
X137572103Y-112532664D01*
X137567392Y-112540580D01*
X137559247Y-112557640D01*
X137548365Y-112582116D01*
X137535445Y-112612282D01*
X137521186Y-112646412D01*
X137506285Y-112682777D01*
X137491441Y-112719651D01*
X137477353Y-112755307D01*
X137464719Y-112788018D01*
X137454237Y-112816057D01*
X137446607Y-112837698D01*
X137442526Y-112851212D01*
X137442033Y-112854266D01*
X137445493Y-112863717D01*
X137455837Y-112882411D01*
X137473006Y-112910259D01*
X137496944Y-112947170D01*
X137527594Y-112993056D01*
X137564899Y-113047827D01*
X137569963Y-113055201D01*
X137598376Y-113096787D01*
X137624597Y-113135646D01*
X137647909Y-113170682D01*
X137667597Y-113200796D01*
X137682943Y-113224889D01*
X137693232Y-113241863D01*
X137697746Y-113250621D01*
X137697894Y-113251317D01*
X137693878Y-113257767D01*
X137682563Y-113271165D01*
X137665047Y-113290414D01*
X137642429Y-113314416D01*
X137615805Y-113342072D01*
X137586275Y-113372287D01*
X137554936Y-113403960D01*
X137522887Y-113435996D01*
X137491225Y-113467295D01*
X137461050Y-113496761D01*
X137433458Y-113523294D01*
X137409548Y-113545799D01*
X137390419Y-113563176D01*
X137377168Y-113574328D01*
X137370953Y-113578160D01*
X137364043Y-113574961D01*
X137348710Y-113565852D01*
X137326078Y-113551564D01*
X137297268Y-113532828D01*
X137263406Y-113510376D01*
X137225615Y-113484939D01*
X137185017Y-113457248D01*
X137182347Y-113455414D01*
X137141430Y-113427378D01*
X137103139Y-113401288D01*
X137068624Y-113377915D01*
X137039033Y-113358030D01*
X137015515Y-113342405D01*
X136999218Y-113331812D01*
X136991291Y-113327022D01*
X136991151Y-113326956D01*
X136985755Y-113326016D01*
X136976993Y-113327183D01*
X136963756Y-113330860D01*
X136944933Y-113337451D01*
X136919415Y-113347356D01*
X136886093Y-113360980D01*
X136843855Y-113378725D01*
X136817098Y-113390099D01*
X136768154Y-113411247D01*
X136726503Y-113429830D01*
X136692890Y-113445492D01*
X136668062Y-113457879D01*
X136652761Y-113466637D01*
X136648006Y-113470582D01*
X136645253Y-113478810D01*
X136640740Y-113497135D01*
X136634746Y-113524205D01*
X136627555Y-113558667D01*
X136619448Y-113599169D01*
X136610707Y-113644359D01*
X136601615Y-113692884D01*
X136601324Y-113694460D01*
X136592297Y-113742841D01*
X136583703Y-113787738D01*
X136575811Y-113827834D01*
X136568890Y-113861812D01*
X136563207Y-113888357D01*
X136559031Y-113906152D01*
X136556631Y-113913881D01*
X136556564Y-113913977D01*
X136549465Y-113915858D01*
X136532310Y-113917485D01*
X136506629Y-113918857D01*
X136473950Y-113919970D01*
X136435801Y-113920825D01*
X136393713Y-113921419D01*
X136349212Y-113921752D01*
X136303829Y-113921821D01*
X136259092Y-113921625D01*
X136216530Y-113921163D01*
X136177671Y-113920432D01*
X136144044Y-113919432D01*
X136117179Y-113918161D01*
X136098604Y-113916618D01*
X136089847Y-113914801D01*
X136089428Y-113914439D01*
X136087439Y-113907345D01*
X136083616Y-113890123D01*
X136078221Y-113864084D01*
X136071514Y-113830539D01*
X136063759Y-113790799D01*
X136055217Y-113746175D01*
X136046151Y-113697978D01*
X136045653Y-113695310D01*
X136036478Y-113646943D01*
X136027657Y-113602079D01*
X136019473Y-113562031D01*
X136012206Y-113528111D01*
X136006139Y-113501633D01*
X136001552Y-113483907D01*
X135998728Y-113476248D01*
X135998635Y-113476151D01*
X135990700Y-113471642D01*
X135973727Y-113463832D01*
X135949299Y-113453339D01*
X135919000Y-113440781D01*
X135884413Y-113426775D01*
X135847119Y-113411939D01*
X135808702Y-113396891D01*
X135770745Y-113382248D01*
X135734830Y-113368627D01*
X135702540Y-113356647D01*
X135675458Y-113346925D01*
X135655167Y-113340079D01*
X135643249Y-113336727D01*
X135640915Y-113336557D01*
X135634304Y-113340508D01*
X135619260Y-113350305D01*
X135596915Y-113365184D01*
X135568406Y-113384381D01*
X135534867Y-113407132D01*
X135497433Y-113432672D01*
X135459058Y-113458988D01*
X135418898Y-113486395D01*
X135381432Y-113511581D01*
X135347810Y-113533801D01*
X135319182Y-113552312D01*
X135296698Y-113566370D01*
X135281506Y-113575232D01*
X135274862Y-113578160D01*
X135268440Y-113574156D01*
X135255049Y-113562875D01*
X135235789Y-113545411D01*
X135211762Y-113522860D01*
X135184066Y-113496317D01*
X135153802Y-113466876D01*
X135122070Y-113435632D01*
X135089970Y-113403681D01*
X135058603Y-113372117D01*
X135029068Y-113342036D01*
X135002467Y-113314532D01*
X134979898Y-113290700D01*
X134962462Y-113271636D01*
X134951260Y-113258433D01*
X134947390Y-113252237D01*
X134950579Y-113245630D01*
X134959655Y-113230596D01*
X134973877Y-113208266D01*
X134992506Y-113179770D01*
X135014803Y-113146241D01*
X135040029Y-113108810D01*
X135066598Y-113069841D01*
X135093979Y-113029626D01*
X135119144Y-112992133D01*
X135141353Y-112958507D01*
X135159865Y-112929893D01*
X135173937Y-112907436D01*
X135182830Y-112892281D01*
X135185806Y-112885653D01*
X135183148Y-112877064D01*
X135175840Y-112860408D01*
X135164876Y-112837786D01*
X135151252Y-112811298D01*
X135145101Y-112799758D01*
X135130660Y-112772228D01*
X135118475Y-112747632D01*
X135109541Y-112728091D01*
X135104856Y-112715725D01*
X135104395Y-112713228D01*
X135105998Y-112710377D01*
X135111256Y-112706312D01*
X135120847Y-112700733D01*
X135135450Y-112693340D01*
X135155741Y-112683831D01*
X135182398Y-112671908D01*
X135216098Y-112657268D01*
X135257520Y-112639613D01*
X135307341Y-112618641D01*
X135366238Y-112594052D01*
X135434888Y-112565546D01*
X135473924Y-112549381D01*
X135536208Y-112523633D01*
X135595506Y-112499165D01*
X135650918Y-112476346D01*
X135701541Y-112455545D01*
X135746475Y-112437131D01*
X135784817Y-112421473D01*
X135815667Y-112408941D01*
X135838124Y-112399902D01*
X135851285Y-112394727D01*
X135854355Y-112393627D01*
X135863401Y-112394939D01*
X135873561Y-112404641D01*
X135881558Y-112416050D01*
X135928552Y-112482716D01*
X135976934Y-112538600D01*
X136027779Y-112584548D01*
X136082160Y-112621403D01*
X136141152Y-112650009D01*
X136205829Y-112671212D01*
X136206341Y-112671346D01*
X136244023Y-112678545D01*
X136288191Y-112682847D01*
X136334444Y-112684129D01*
X136378381Y-112682271D01*
X136415603Y-112677150D01*
X136415682Y-112677134D01*
X136486193Y-112656529D01*
X136552162Y-112625771D01*
X136612601Y-112585781D01*
X136666522Y-112537481D01*
X136712936Y-112481792D01*
X136750855Y-112419634D01*
X136779291Y-112351929D01*
X136785257Y-112332670D01*
X136795106Y-112286131D01*
X136800466Y-112233611D01*
X136801147Y-112179934D01*
X136796956Y-112129926D01*
X136793963Y-112112474D01*
X136773635Y-112040338D01*
X136743247Y-111973388D01*
X136703498Y-111912396D01*
X136655087Y-111858129D01*
X136598712Y-111811360D01*
X136535073Y-111772856D01*
X136464867Y-111743387D01*
X136456387Y-111740607D01*
X136431075Y-111733879D01*
X136402560Y-111729189D01*
X136367674Y-111726108D01*
X136340087Y-111724764D01*
X136278460Y-111725134D01*
X136223526Y-111731735D01*
X136171748Y-111745261D01*
X136119589Y-111766411D01*
X136113301Y-111769415D01*
X136060975Y-111798320D01*
X136014449Y-111832081D01*
X135971731Y-111872508D01*
X135930826Y-111921412D01*
X135902881Y-111960656D01*
X135888277Y-111981497D01*
X135875314Y-111998508D01*
X135865765Y-112009435D01*
X135862278Y-112012192D01*
X135855630Y-112010523D01*
X135838950Y-112004625D01*
X135812925Y-111994778D01*
X135778244Y-111981260D01*
X135735595Y-111964351D01*
X135685667Y-111944328D01*
X135629147Y-111921471D01*
X135566725Y-111896059D01*
X135499088Y-111868370D01*
X135426925Y-111838683D01*
X135350924Y-111807278D01*
X135271773Y-111774432D01*
X135190162Y-111740425D01*
X135152369Y-111724630D01*
X135127361Y-111713424D01*
X135112099Y-111704599D01*
X135105173Y-111697251D01*
X135104395Y-111693913D01*
X135107055Y-111685223D01*
X135114374Y-111668459D01*
X135125364Y-111645714D01*
X135139035Y-111619081D01*
X135145659Y-111606643D01*
X135163216Y-111572836D01*
X135175796Y-111545989D01*
X135182971Y-111527083D01*
X135184435Y-111517563D01*
X135180652Y-111510000D01*
X135171004Y-111494060D01*
X135156259Y-111470916D01*
X135137186Y-111441746D01*
X135114552Y-111407724D01*
X135089124Y-111370026D01*
X135064669Y-111334195D01*
X135037553Y-111294502D01*
X135012651Y-111257712D01*
X134990709Y-111224950D01*
X134972470Y-111197343D01*
X134958678Y-111176016D01*
X134950077Y-111162093D01*
X134947390Y-111156798D01*
X134951374Y-111151385D01*
X134962735Y-111138708D01*
X134980589Y-111119686D01*
X135004051Y-111095239D01*
X135032236Y-111066288D01*
X135064259Y-111033751D01*
X135099235Y-110998551D01*
X135108795Y-110988984D01*
X135144557Y-110953397D01*
X135177891Y-110920530D01*
X135207878Y-110891266D01*
X135233596Y-110866491D01*
X135254127Y-110847088D01*
X135268551Y-110833943D01*
X135275947Y-110827938D01*
X135276609Y-110827656D01*
X135282735Y-110830838D01*
X135297302Y-110839888D01*
X135319184Y-110854062D01*
X135347254Y-110872616D01*
X135380386Y-110894806D01*
X135417454Y-110919889D01*
X135453746Y-110944660D01*
X135493779Y-110972015D01*
X135531198Y-110997429D01*
X135564820Y-111020109D01*
X135593459Y-111039263D01*
X135615931Y-111054100D01*
X135631054Y-111063825D01*
X135637341Y-111067527D01*
X135642665Y-111068553D01*
X135651199Y-111067657D01*
X135664050Y-111064463D01*
X135682325Y-111058596D01*
X135707130Y-111049681D01*
X135739573Y-111037341D01*
X135780759Y-111021203D01*
X135820697Y-111005324D01*
X135862846Y-110988363D01*
X135901685Y-110972479D01*
X135935846Y-110958251D01*
X135963960Y-110946260D01*
X135984658Y-110937085D01*
X135996572Y-110931305D01*
X135998788Y-110929889D01*
X136001555Y-110922653D01*
X136006096Y-110905278D01*
X136012130Y-110879073D01*
X136019378Y-110845345D01*
X136027557Y-110805404D01*
X136036388Y-110760557D01*
X136045589Y-110712113D01*
X136045965Y-110710095D01*
X136055046Y-110661745D01*
X136063609Y-110616908D01*
X136071394Y-110576893D01*
X136078139Y-110543008D01*
X136083584Y-110516563D01*
X136087468Y-110498865D01*
X136089530Y-110491225D01*
X136089587Y-110491120D01*
X136096356Y-110489299D01*
X136113223Y-110487752D01*
X136138660Y-110486476D01*
X136171139Y-110485469D01*
X136209130Y-110484729D01*
X136251105Y-110484253D01*
X136295536Y-110484039D01*
X136340894Y-110484085D01*
G37*
%TO.C,R21*%
X132150000Y-122008000D02*
X132150000Y-120992000D01*
D14*
%TO.C,C1*%
X169811252Y-93708000D02*
X169288748Y-93708000D01*
X169811252Y-92692000D02*
X169288748Y-92692000D01*
%TO.C,D1*%
D13*
X163431000Y-124300000D02*
X162796000Y-124681000D01*
X162796000Y-123919000D01*
X163431000Y-124300000D01*
G36*
X163431000Y-124300000D02*
G01*
X162796000Y-124681000D01*
X162796000Y-123919000D01*
X163431000Y-124300000D01*
G37*
%TO.C,R15*%
X172600000Y-116192000D02*
X172600000Y-117208000D01*
%TO.C,R10*%
X136251500Y-90090000D02*
X136251500Y-89074000D01*
%TO.C,R18*%
X132150000Y-115908000D02*
X132150000Y-114892000D01*
%TO.C,R1*%
X172492000Y-110490000D02*
X173508000Y-110490000D01*
X173508000Y-110490000D02*
X173508000Y-105410000D01*
X173508000Y-105410000D02*
X172492000Y-105410000D01*
X172492000Y-105410000D02*
X172492000Y-110490000D01*
%TO.C,G\u002A\u002A\u002A*%
G36*
X138229593Y-103938956D02*
G01*
X138343885Y-104240885D01*
X138458176Y-104542813D01*
X138583859Y-104495506D01*
X138647212Y-104472687D01*
X138694193Y-104457699D01*
X138714974Y-104453668D01*
X138715115Y-104453773D01*
X138710350Y-104473061D01*
X138692099Y-104519713D01*
X138663781Y-104586263D01*
X138628814Y-104665242D01*
X138590617Y-104749181D01*
X138552608Y-104830615D01*
X138518205Y-104902073D01*
X138490827Y-104956089D01*
X138473892Y-104985195D01*
X138470513Y-104988146D01*
X138449555Y-104978598D01*
X138399520Y-104956196D01*
X138327063Y-104923908D01*
X138238837Y-104884703D01*
X138200648Y-104867760D01*
X138110341Y-104826459D01*
X138035780Y-104789943D01*
X137982843Y-104761285D01*
X137957407Y-104743560D01*
X137956417Y-104740038D01*
X137981459Y-104726690D01*
X138031248Y-104705675D01*
X138078307Y-104687733D01*
X138135869Y-104664054D01*
X138174868Y-104642966D01*
X138185769Y-104631617D01*
X138179286Y-104608375D01*
X138161393Y-104555211D01*
X138134423Y-104478784D01*
X138100709Y-104385751D01*
X138078904Y-104326593D01*
X137972039Y-104038400D01*
X137177415Y-104038400D01*
X137172970Y-104038398D01*
X136979064Y-104038291D01*
X136816096Y-104037860D01*
X136684817Y-104036958D01*
X136581533Y-104035433D01*
X136502549Y-104033133D01*
X136444172Y-104029909D01*
X136414502Y-104026831D01*
X136402708Y-104025607D01*
X136374464Y-104020078D01*
X136355744Y-104013169D01*
X136342855Y-104004730D01*
X136342229Y-104004208D01*
X136323645Y-103975776D01*
X136292975Y-103912497D01*
X136251069Y-103816397D01*
X136215064Y-103729024D01*
X136635634Y-103729024D01*
X136652868Y-103732778D01*
X136704829Y-103735954D01*
X136787167Y-103738479D01*
X136895535Y-103740276D01*
X137025586Y-103741273D01*
X137172970Y-103741394D01*
X137317140Y-103740691D01*
X138005243Y-103735554D01*
X138216277Y-103188477D01*
X138269225Y-103051173D01*
X138317397Y-102926167D01*
X138359058Y-102817967D01*
X138392475Y-102731082D01*
X138415912Y-102670019D01*
X138427636Y-102639286D01*
X138428655Y-102636516D01*
X138410171Y-102635390D01*
X138357004Y-102634369D01*
X138273549Y-102633483D01*
X138164200Y-102632760D01*
X138033351Y-102632232D01*
X137885398Y-102631927D01*
X137741269Y-102631868D01*
X137052538Y-102632104D01*
X136847384Y-103172163D01*
X136795244Y-103309400D01*
X136747542Y-103434923D01*
X136706059Y-103544043D01*
X136672578Y-103632077D01*
X136648879Y-103694338D01*
X136636745Y-103726140D01*
X136635634Y-103729024D01*
X136215064Y-103729024D01*
X136198778Y-103689502D01*
X136136953Y-103533839D01*
X136066444Y-103351434D01*
X136049011Y-103305708D01*
X135796354Y-102641400D01*
X135374254Y-102636135D01*
X134952153Y-102630869D01*
X134952153Y-102772790D01*
X134952153Y-102914712D01*
X134742229Y-102704787D01*
X134532304Y-102494862D01*
X134537105Y-102490061D01*
X136046307Y-102490061D01*
X136052974Y-102512404D01*
X136071478Y-102565254D01*
X136099574Y-102642665D01*
X136135018Y-102738693D01*
X136175566Y-102847393D01*
X136218971Y-102962820D01*
X136262990Y-103079030D01*
X136305379Y-103190076D01*
X136343891Y-103290015D01*
X136376284Y-103372902D01*
X136400311Y-103432792D01*
X136413728Y-103463739D01*
X136414502Y-103465196D01*
X136424058Y-103453380D01*
X136444975Y-103410493D01*
X136475063Y-103342117D01*
X136512130Y-103253831D01*
X136553986Y-103151216D01*
X136598439Y-103039854D01*
X136643298Y-102925325D01*
X136686373Y-102813211D01*
X136725473Y-102709091D01*
X136758406Y-102618546D01*
X136782981Y-102547158D01*
X136797008Y-102500507D01*
X136799284Y-102485093D01*
X136791175Y-102462248D01*
X136771041Y-102407900D01*
X136740767Y-102327064D01*
X136702236Y-102224754D01*
X136657332Y-102105986D01*
X136610661Y-101982941D01*
X136561534Y-101855189D01*
X136516526Y-101741152D01*
X136477548Y-101645427D01*
X136446507Y-101572610D01*
X136425313Y-101527297D01*
X136415923Y-101514018D01*
X136405462Y-101536225D01*
X136383774Y-101589046D01*
X136353119Y-101666512D01*
X136315756Y-101762652D01*
X136273948Y-101871499D01*
X136229953Y-101987082D01*
X136186034Y-102103432D01*
X136144449Y-102214579D01*
X136107461Y-102314555D01*
X136077329Y-102397389D01*
X136056314Y-102457112D01*
X136046677Y-102487755D01*
X136046307Y-102490061D01*
X134537105Y-102490061D01*
X134742229Y-102284937D01*
X134952153Y-102075012D01*
X134952153Y-102216552D01*
X134952153Y-102358093D01*
X135370714Y-102358093D01*
X135789274Y-102358093D01*
X135858877Y-102177362D01*
X135885326Y-102108478D01*
X135922852Y-102010449D01*
X135968638Y-101890654D01*
X136019865Y-101756471D01*
X136073714Y-101615279D01*
X136114179Y-101509083D01*
X136164861Y-101377805D01*
X136210822Y-101261988D01*
X136635634Y-101261988D01*
X136644019Y-101284210D01*
X136664523Y-101338248D01*
X136695357Y-101419398D01*
X136734734Y-101522957D01*
X136780864Y-101644222D01*
X136831961Y-101778490D01*
X136847384Y-101819009D01*
X137052538Y-102357938D01*
X137741111Y-102358016D01*
X138429683Y-102358093D01*
X138400500Y-102284823D01*
X138385685Y-102246853D01*
X138359192Y-102178161D01*
X138323246Y-102084546D01*
X138280070Y-101971807D01*
X138231888Y-101845744D01*
X138188818Y-101732862D01*
X138006318Y-101254170D01*
X137317678Y-101249033D01*
X137135900Y-101248174D01*
X136977881Y-101248437D01*
X136846411Y-101249768D01*
X136744285Y-101252115D01*
X136674294Y-101255425D01*
X136639233Y-101259644D01*
X136635634Y-101261988D01*
X136210822Y-101261988D01*
X136212552Y-101257628D01*
X136255105Y-101153705D01*
X136290371Y-101071186D01*
X136316202Y-101015223D01*
X136330079Y-100991314D01*
X136342031Y-100983714D01*
X136363701Y-100977320D01*
X136398569Y-100971968D01*
X136450116Y-100967492D01*
X136521823Y-100963726D01*
X136617170Y-100960506D01*
X136739637Y-100957667D01*
X136892707Y-100955043D01*
X137079859Y-100952469D01*
X137172760Y-100951323D01*
X137985238Y-100941554D01*
X138088195Y-100663381D01*
X138191151Y-100385208D01*
X138075514Y-100343044D01*
X138013887Y-100318957D01*
X137968687Y-100298265D01*
X137951155Y-100286769D01*
X137964859Y-100274295D01*
X138008420Y-100249365D01*
X138075853Y-100215094D01*
X138161173Y-100174596D01*
X138205829Y-100154260D01*
X138308832Y-100108505D01*
X138382025Y-100077765D01*
X138430926Y-100060353D01*
X138461053Y-100054583D01*
X138477924Y-100058766D01*
X138485835Y-100068632D01*
X138516006Y-100130912D01*
X138551542Y-100208465D01*
X138589233Y-100293726D01*
X138625868Y-100379128D01*
X138658240Y-100457108D01*
X138683136Y-100520100D01*
X138697349Y-100560538D01*
X138699166Y-100571439D01*
X138677305Y-100569959D01*
X138632091Y-100555558D01*
X138599657Y-100542550D01*
X138544675Y-100519011D01*
X138503938Y-100505656D01*
X138472975Y-100506605D01*
X138447315Y-100525975D01*
X138422489Y-100567883D01*
X138394025Y-100636448D01*
X138357454Y-100735788D01*
X138341158Y-100780657D01*
X138236127Y-101069145D01*
X138499140Y-101757263D01*
X138558974Y-101915467D01*
X138613845Y-102063767D01*
X138662226Y-102197787D01*
X138702586Y-102313150D01*
X138733396Y-102405479D01*
X138753125Y-102470396D01*
X138760244Y-102503526D01*
X138760240Y-102504314D01*
X138752939Y-102535515D01*
X138732982Y-102598681D01*
X138701947Y-102689383D01*
X138661413Y-102803195D01*
X138612958Y-102935689D01*
X138558162Y-103082437D01*
X138498603Y-103239013D01*
X138493960Y-103251101D01*
X138429683Y-103418343D01*
X138229593Y-103938956D01*
G37*
%TO.C,D9*%
X168131000Y-86200000D02*
X167496000Y-86581000D01*
X167496000Y-85819000D01*
X168131000Y-86200000D01*
G36*
X168131000Y-86200000D02*
G01*
X167496000Y-86581000D01*
X167496000Y-85819000D01*
X168131000Y-86200000D01*
G37*
%TO.C,R5*%
X168200000Y-123792000D02*
X168200000Y-124808000D01*
%TO.C,R4*%
X177008000Y-105410000D02*
X175992000Y-105410000D01*
X175992000Y-105410000D02*
X175992000Y-110490000D01*
X175992000Y-110490000D02*
X177008000Y-110490000D01*
X177008000Y-110490000D02*
X177008000Y-105410000D01*
%TO.C,D3*%
X132568500Y-90090000D02*
X131806500Y-89582000D01*
X132568500Y-89074000D01*
X132568500Y-90090000D01*
G36*
X132568500Y-90090000D02*
G01*
X131806500Y-89582000D01*
X132568500Y-89074000D01*
X132568500Y-90090000D01*
G37*
%TO.C,R17*%
X172600000Y-88242000D02*
X172600000Y-89258000D01*
%TD*%
%LPC*%
D15*
%TO.C,R19*%
X136912500Y-115400000D03*
X135087500Y-115400000D03*
%TD*%
D16*
%TO.C,D2*%
X146500000Y-83450000D03*
X150000000Y-83450000D03*
%TD*%
D17*
%TO.C,R2*%
X173000000Y-100810000D03*
D18*
X173000000Y-93190000D03*
%TD*%
D19*
%TO.C,R16*%
X171687500Y-86200000D03*
X173512500Y-86200000D03*
%TD*%
D20*
%TO.C,Q1*%
X131150000Y-117500000D03*
X131150000Y-119400000D03*
X133150000Y-118450000D03*
%TD*%
D15*
%TO.C,R9*%
X165912500Y-93200000D03*
X164087500Y-93200000D03*
%TD*%
D21*
%TO.C,J3*%
X141150000Y-108850000D03*
X143690000Y-108850000D03*
X146230000Y-108850000D03*
X148770000Y-108850000D03*
D22*
X151310000Y-108850000D03*
D21*
X153850000Y-108850000D03*
X153850000Y-96150000D03*
D22*
X151310000Y-96150000D03*
D21*
X148770000Y-96150000D03*
X146230000Y-96150000D03*
X143690000Y-96150000D03*
X141150000Y-96150000D03*
%TD*%
D23*
%TO.C,C5*%
X152450000Y-113700000D03*
X152450000Y-111800000D03*
%TD*%
D24*
%TO.C,J4*%
X131900000Y-96150000D03*
X131900000Y-98690000D03*
X131900000Y-101230000D03*
X131900000Y-103770000D03*
D25*
X131900000Y-106310000D03*
X131900000Y-108850000D03*
%TD*%
D26*
%TO.C,C12*%
X143700000Y-92650000D03*
X146775000Y-92650000D03*
%TD*%
D27*
%TO.C,D7*%
X169500000Y-119250000D03*
X166000000Y-119250000D03*
%TD*%
%TO.C,D10*%
X169500000Y-88750000D03*
X166000000Y-88750000D03*
%TD*%
D28*
%TO.C,C2*%
X170500000Y-111850000D03*
X168600000Y-111850000D03*
%TD*%
D29*
%TO.C,D11*%
X131661200Y-123776000D03*
X131661200Y-125476000D03*
X131661200Y-127176000D03*
X136461200Y-127176000D03*
X136461200Y-125476000D03*
X136461200Y-123776000D03*
%TD*%
D30*
%TO.C,C10*%
X172000000Y-83650000D03*
X169300000Y-83650000D03*
%TD*%
D31*
%TO.C,SW1*%
X162500000Y-108740000D03*
X162500000Y-96240000D03*
D32*
X167500000Y-108740000D03*
X167500000Y-96240000D03*
%TD*%
D33*
%TO.C,C3*%
X158950000Y-121150000D03*
X158950000Y-117550000D03*
%TD*%
D26*
%TO.C,C11*%
X143700000Y-112350000D03*
X146775000Y-112350000D03*
%TD*%
D27*
%TO.C,D8*%
X169500000Y-116700000D03*
X166000000Y-116700000D03*
%TD*%
D17*
%TO.C,A1*%
X141190000Y-126860000D03*
D34*
X143730000Y-126860000D03*
X146270000Y-126860000D03*
X148810000Y-126860000D03*
X151350000Y-126860000D03*
D18*
X153890000Y-126860000D03*
X156430000Y-126860000D03*
D34*
X158970000Y-126860000D03*
X164050000Y-126860000D03*
X166590000Y-126860000D03*
X169130000Y-126860000D03*
X171670000Y-126860000D03*
X174210000Y-126860000D03*
X176750000Y-126860000D03*
X176750000Y-78600000D03*
X174210000Y-78600000D03*
X171670000Y-78600000D03*
X169130000Y-78600000D03*
X166590000Y-78600000D03*
X164050000Y-78600000D03*
X161510000Y-78600000D03*
X158970000Y-78600000D03*
X154910000Y-78600000D03*
X152370000Y-78600000D03*
X149830000Y-78600000D03*
X147290000Y-78600000D03*
X144750000Y-78600000D03*
X142210000Y-78600000D03*
D18*
X139670000Y-78600000D03*
D34*
X137130000Y-78600000D03*
X134590000Y-78600000D03*
X132050000Y-78600000D03*
%TD*%
D35*
%TO.C,C8*%
X147300000Y-80950000D03*
X149200000Y-80950000D03*
%TD*%
D36*
%TO.C,D6*%
X131250000Y-81200000D03*
X133125000Y-81200000D03*
%TD*%
D15*
%TO.C,R13*%
X137164000Y-81200000D03*
X135339000Y-81200000D03*
%TD*%
D19*
%TO.C,R14*%
X171687500Y-119250000D03*
X173512500Y-119250000D03*
%TD*%
D30*
%TO.C,C9*%
X172000000Y-121750000D03*
X169300000Y-121750000D03*
%TD*%
D36*
%TO.C,D5*%
X131250000Y-83994000D03*
X133125000Y-83994000D03*
%TD*%
D15*
%TO.C,R11*%
X137164000Y-86788000D03*
X135339000Y-86788000D03*
%TD*%
%TO.C,R12*%
X137164000Y-83994000D03*
X135339000Y-83994000D03*
%TD*%
D17*
%TO.C,R3*%
X176500000Y-93190000D03*
D34*
X176500000Y-100810000D03*
%TD*%
D20*
%TO.C,Q2*%
X135000000Y-117500000D03*
X135000000Y-119400000D03*
X137000000Y-118450000D03*
%TD*%
D36*
%TO.C,D4*%
X131250000Y-86788000D03*
X133125000Y-86788000D03*
%TD*%
D37*
%TO.C,F1*%
X145250000Y-122251000D03*
D38*
X145250000Y-116385500D03*
%TD*%
D15*
%TO.C,R20*%
X136912500Y-121500000D03*
X135087500Y-121500000D03*
%TD*%
D25*
%TO.C,J2*%
X176733200Y-81127600D03*
D24*
X176733200Y-83667600D03*
X176733200Y-86207600D03*
X176733200Y-88747600D03*
%TD*%
D15*
%TO.C,R21*%
X133062500Y-121500000D03*
X131237500Y-121500000D03*
%TD*%
D28*
%TO.C,C1*%
X170500000Y-93200000D03*
X168600000Y-93200000D03*
%TD*%
D39*
%TO.C,U1*%
X150150000Y-122500000D03*
X152450000Y-122500000D03*
D40*
X152450000Y-116200000D03*
D39*
X154750000Y-122500000D03*
%TD*%
D27*
%TO.C,D1*%
X164800000Y-124300000D03*
X161300000Y-124300000D03*
%TD*%
D19*
%TO.C,R15*%
X171687500Y-116700000D03*
X173512500Y-116700000D03*
%TD*%
D15*
%TO.C,R10*%
X137164000Y-89582000D03*
X135339000Y-89582000D03*
%TD*%
%TO.C,R18*%
X133062500Y-115400000D03*
X131237500Y-115400000D03*
%TD*%
D17*
%TO.C,R1*%
X173000000Y-111760000D03*
D34*
X173000000Y-104140000D03*
%TD*%
D27*
%TO.C,D9*%
X169500000Y-86200000D03*
X166000000Y-86200000D03*
%TD*%
D19*
%TO.C,R5*%
X167287500Y-124300000D03*
X169112500Y-124300000D03*
%TD*%
D17*
%TO.C,R4*%
X176500000Y-104140000D03*
D18*
X176500000Y-111760000D03*
%TD*%
D25*
%TO.C,J1*%
X176733200Y-124307600D03*
D24*
X176733200Y-121767600D03*
X176733200Y-119227600D03*
X176733200Y-116687600D03*
%TD*%
D36*
%TO.C,D3*%
X131250000Y-89582000D03*
X133125000Y-89582000D03*
%TD*%
D19*
%TO.C,R17*%
X171687500Y-88750000D03*
X173512500Y-88750000D03*
%TD*%
M02*
