%TF.GenerationSoftware,KiCad,Pcbnew,7.0.1*%
%TF.CreationDate,2023-05-06T15:11:30-03:00*%
%TF.ProjectId,Self_Balancing,53656c66-5f42-4616-9c61-6e63696e672e,rev?*%
%TF.SameCoordinates,Original*%
%TF.FileFunction,Copper,L2,Bot*%
%TF.FilePolarity,Positive*%
%FSLAX46Y46*%
G04 Gerber Fmt 4.6, Leading zero omitted, Abs format (unit mm)*
G04 Created by KiCad (PCBNEW 7.0.1) date 2023-05-06 15:11:30*
%MOMM*%
%LPD*%
G01*
G04 APERTURE LIST*
G04 Aperture macros list*
%AMRoundRect*
0 Rectangle with rounded corners*
0 $1 Rounding radius*
0 $2 $3 $4 $5 $6 $7 $8 $9 X,Y pos of 4 corners*
0 Add a 4 corners polygon primitive as box body*
4,1,4,$2,$3,$4,$5,$6,$7,$8,$9,$2,$3,0*
0 Add four circle primitives for the rounded corners*
1,1,$1+$1,$2,$3*
1,1,$1+$1,$4,$5*
1,1,$1+$1,$6,$7*
1,1,$1+$1,$8,$9*
0 Add four rect primitives between the rounded corners*
20,1,$1+$1,$2,$3,$4,$5,0*
20,1,$1+$1,$4,$5,$6,$7,0*
20,1,$1+$1,$6,$7,$8,$9,0*
20,1,$1+$1,$8,$9,$2,$3,0*%
G04 Aperture macros list end*
%ADD10C,0.150000*%
%TA.AperFunction,NonConductor*%
%ADD11C,0.150000*%
%TD*%
%TA.AperFunction,ComponentPad*%
%ADD12C,1.600000*%
%TD*%
%TA.AperFunction,ComponentPad*%
%ADD13R,1.600000X1.600000*%
%TD*%
%TA.AperFunction,ComponentPad*%
%ADD14C,1.524000*%
%TD*%
%TA.AperFunction,ComponentPad*%
%ADD15R,1.524000X1.524000*%
%TD*%
%TA.AperFunction,ComponentPad*%
%ADD16O,1.700000X1.700000*%
%TD*%
%TA.AperFunction,ComponentPad*%
%ADD17R,1.700000X1.700000*%
%TD*%
%TA.AperFunction,ComponentPad*%
%ADD18O,1.850000X3.048000*%
%TD*%
%TA.AperFunction,ComponentPad*%
%ADD19RoundRect,0.462500X0.462500X-1.061500X0.462500X1.061500X-0.462500X1.061500X-0.462500X-1.061500X0*%
%TD*%
%TA.AperFunction,ComponentPad*%
%ADD20O,1.600000X1.600000*%
%TD*%
%TA.AperFunction,ViaPad*%
%ADD21C,0.800000*%
%TD*%
%TA.AperFunction,Conductor*%
%ADD22C,0.250000*%
%TD*%
%TA.AperFunction,Conductor*%
%ADD23C,0.400000*%
%TD*%
G04 APERTURE END LIST*
D10*
D11*
X137523809Y-127252095D02*
X137257142Y-128052095D01*
X137257142Y-128052095D02*
X136990476Y-127252095D01*
X136304762Y-128052095D02*
X136761905Y-128052095D01*
X136533333Y-128052095D02*
X136533333Y-127252095D01*
X136533333Y-127252095D02*
X136609524Y-127366380D01*
X136609524Y-127366380D02*
X136685714Y-127442571D01*
X136685714Y-127442571D02*
X136761905Y-127480666D01*
X135961904Y-127975904D02*
X135923809Y-128014000D01*
X135923809Y-128014000D02*
X135961904Y-128052095D01*
X135961904Y-128052095D02*
X136000000Y-128014000D01*
X136000000Y-128014000D02*
X135961904Y-127975904D01*
X135961904Y-127975904D02*
X135961904Y-128052095D01*
X135428571Y-127252095D02*
X135352381Y-127252095D01*
X135352381Y-127252095D02*
X135276190Y-127290190D01*
X135276190Y-127290190D02*
X135238095Y-127328285D01*
X135238095Y-127328285D02*
X135200000Y-127404476D01*
X135200000Y-127404476D02*
X135161905Y-127556857D01*
X135161905Y-127556857D02*
X135161905Y-127747333D01*
X135161905Y-127747333D02*
X135200000Y-127899714D01*
X135200000Y-127899714D02*
X135238095Y-127975904D01*
X135238095Y-127975904D02*
X135276190Y-128014000D01*
X135276190Y-128014000D02*
X135352381Y-128052095D01*
X135352381Y-128052095D02*
X135428571Y-128052095D01*
X135428571Y-128052095D02*
X135504762Y-128014000D01*
X135504762Y-128014000D02*
X135542857Y-127975904D01*
X135542857Y-127975904D02*
X135580952Y-127899714D01*
X135580952Y-127899714D02*
X135619048Y-127747333D01*
X135619048Y-127747333D02*
X135619048Y-127556857D01*
X135619048Y-127556857D02*
X135580952Y-127404476D01*
X135580952Y-127404476D02*
X135542857Y-127328285D01*
X135542857Y-127328285D02*
X135504762Y-127290190D01*
X135504762Y-127290190D02*
X135428571Y-127252095D01*
%TA.AperFunction,EtchedComponent*%
%TO.C,G\u002A\u002A\u002A*%
G36*
X139579408Y-126797399D02*
G01*
X139598504Y-126803957D01*
X139615309Y-126820019D01*
X139625708Y-126841706D01*
X139626963Y-126854074D01*
X139621923Y-126869817D01*
X139608044Y-126886160D01*
X139584018Y-126904539D01*
X139548537Y-126926389D01*
X139531525Y-126935879D01*
X139505839Y-126948930D01*
X139485111Y-126957923D01*
X139472691Y-126961314D01*
X139453634Y-126956207D01*
X139437233Y-126941403D01*
X139426910Y-126920861D01*
X139424621Y-126898588D01*
X139432319Y-126878588D01*
X139433405Y-126877306D01*
X139445983Y-126866984D01*
X139466734Y-126853274D01*
X139492390Y-126837991D01*
X139519683Y-126822947D01*
X139545343Y-126809957D01*
X139566101Y-126800833D01*
X139578690Y-126797389D01*
X139579408Y-126797399D01*
G37*
%TD.AperFunction*%
%TA.AperFunction,EtchedComponent*%
G36*
X139125468Y-126440322D02*
G01*
X139141825Y-126454899D01*
X139150212Y-126475266D01*
X139149223Y-126497928D01*
X139137457Y-126519391D01*
X139128005Y-126527042D01*
X139108991Y-126539763D01*
X139083483Y-126555478D01*
X139054319Y-126572377D01*
X139026014Y-126587631D01*
X138999418Y-126600695D01*
X138978673Y-126609535D01*
X138966742Y-126612785D01*
X138955228Y-126610262D01*
X138937252Y-126598358D01*
X138923174Y-126580800D01*
X138917483Y-126562200D01*
X138921976Y-126545309D01*
X138932867Y-126528409D01*
X138937304Y-126524138D01*
X138955209Y-126510599D01*
X138980195Y-126494522D01*
X139009182Y-126477592D01*
X139039093Y-126461493D01*
X139066848Y-126447908D01*
X139089371Y-126438523D01*
X139103582Y-126435020D01*
X139125468Y-126440322D01*
G37*
%TD.AperFunction*%
%TA.AperFunction,EtchedComponent*%
G36*
X138665961Y-125168331D02*
G01*
X138664583Y-125217862D01*
X138650757Y-125276264D01*
X138625824Y-125331080D01*
X138590846Y-125379804D01*
X138546887Y-125419930D01*
X138528404Y-125433378D01*
X138538751Y-125481238D01*
X138548324Y-125533516D01*
X138557598Y-125605295D01*
X138564330Y-125683507D01*
X138568341Y-125764307D01*
X138569226Y-125827784D01*
X138569450Y-125843847D01*
X138567477Y-125918283D01*
X138562244Y-125983769D01*
X138561716Y-125988425D01*
X138559413Y-126012536D01*
X138558436Y-126030163D01*
X138558996Y-126037767D01*
X138560847Y-126037764D01*
X138572517Y-126034023D01*
X138592248Y-126026107D01*
X138617093Y-126015163D01*
X138639587Y-126005106D01*
X138735691Y-125966815D01*
X138830082Y-125936435D01*
X138841957Y-125933147D01*
X138864958Y-125927446D01*
X138880213Y-125925502D01*
X138891539Y-125927080D01*
X138902753Y-125931944D01*
X138915623Y-125940114D01*
X138927700Y-125956587D01*
X138931157Y-125980909D01*
X138927562Y-125997202D01*
X138914684Y-126012127D01*
X138891047Y-126025314D01*
X138855196Y-126037855D01*
X138837369Y-126043287D01*
X138734397Y-126079926D01*
X138629459Y-126125556D01*
X138527145Y-126178035D01*
X138432046Y-126235223D01*
X138338555Y-126301097D01*
X138239251Y-126383571D01*
X138151538Y-126471201D01*
X138075769Y-126563553D01*
X138012292Y-126660193D01*
X137961459Y-126760689D01*
X137923620Y-126864606D01*
X137912830Y-126901057D01*
X137938266Y-126885982D01*
X137991128Y-126854790D01*
X138063263Y-126812704D01*
X138129103Y-126774872D01*
X138187884Y-126741713D01*
X138238845Y-126713645D01*
X138281221Y-126691085D01*
X138314251Y-126674454D01*
X138337171Y-126664168D01*
X138349217Y-126660646D01*
X138358059Y-126661385D01*
X138379481Y-126670818D01*
X138393357Y-126688528D01*
X138397853Y-126711233D01*
X138391133Y-126735648D01*
X138390291Y-126736663D01*
X138380051Y-126744443D01*
X138359592Y-126757951D01*
X138330233Y-126776380D01*
X138293289Y-126798924D01*
X138250078Y-126824777D01*
X138201917Y-126853132D01*
X138150124Y-126883183D01*
X138135974Y-126891341D01*
X138084892Y-126920896D01*
X138037664Y-126948380D01*
X137995626Y-126973006D01*
X137960113Y-126993986D01*
X137932460Y-127010533D01*
X137914002Y-127021858D01*
X137906074Y-127027174D01*
X137903657Y-127030682D01*
X137899411Y-127047407D01*
X137897526Y-127073181D01*
X137898002Y-127104868D01*
X137900841Y-127139330D01*
X137906042Y-127173432D01*
X137906185Y-127174165D01*
X137912113Y-127200874D01*
X137919590Y-127229595D01*
X137927673Y-127257264D01*
X137935416Y-127280819D01*
X137941876Y-127297198D01*
X137946108Y-127303338D01*
X137946316Y-127303309D01*
X137953534Y-127298111D01*
X137967174Y-127285684D01*
X137984470Y-127268539D01*
X137986943Y-127266017D01*
X138051457Y-127209733D01*
X138123981Y-127163699D01*
X138204999Y-127127698D01*
X138294996Y-127101513D01*
X138394457Y-127084928D01*
X138406979Y-127083642D01*
X138444701Y-127081673D01*
X138482512Y-127083031D01*
X138522138Y-127088128D01*
X138565306Y-127097382D01*
X138613743Y-127111205D01*
X138669173Y-127130012D01*
X138733325Y-127154219D01*
X138807923Y-127184240D01*
X138811492Y-127185707D01*
X138853313Y-127202619D01*
X138885520Y-127214857D01*
X138910803Y-127223223D01*
X138931853Y-127228518D01*
X138951360Y-127231542D01*
X138972014Y-127233097D01*
X138996252Y-127233858D01*
X139017471Y-127232623D01*
X139033932Y-127228234D01*
X139050489Y-127219873D01*
X139063409Y-127211112D01*
X139091178Y-127184669D01*
X139114790Y-127152605D01*
X139129976Y-127120272D01*
X139131546Y-127112594D01*
X139134061Y-127090722D01*
X139136563Y-127058532D01*
X139138920Y-127018064D01*
X139141004Y-126971360D01*
X139142683Y-126920458D01*
X139143724Y-126883859D01*
X139145280Y-126836827D01*
X139146920Y-126800166D01*
X139148831Y-126771864D01*
X139151199Y-126749912D01*
X139154209Y-126732297D01*
X139158049Y-126717009D01*
X139162903Y-126702038D01*
X139173883Y-126673961D01*
X139202845Y-126620853D01*
X139240704Y-126575326D01*
X139288961Y-126535752D01*
X139349120Y-126500505D01*
X139414993Y-126474056D01*
X139485395Y-126459650D01*
X139557199Y-126458397D01*
X139629695Y-126470180D01*
X139702171Y-126494880D01*
X139773917Y-126532381D01*
X139844222Y-126582563D01*
X139845313Y-126583451D01*
X139864013Y-126598263D01*
X139878187Y-126608784D01*
X139884843Y-126612786D01*
X139886321Y-126611741D01*
X139888520Y-126600996D01*
X139888758Y-126581117D01*
X139887261Y-126555211D01*
X139884257Y-126526386D01*
X139879970Y-126497748D01*
X139874628Y-126472406D01*
X139869565Y-126454058D01*
X139839620Y-126375893D01*
X139797628Y-126301168D01*
X139744834Y-126231366D01*
X139682482Y-126167972D01*
X139611817Y-126112471D01*
X139534085Y-126066345D01*
X139504576Y-126051402D01*
X139320862Y-126157747D01*
X139300915Y-126169238D01*
X139255980Y-126194715D01*
X139214908Y-126217447D01*
X139179283Y-126236592D01*
X139150686Y-126251308D01*
X139130699Y-126260756D01*
X139120906Y-126264092D01*
X139120169Y-126264081D01*
X139100804Y-126257802D01*
X139082842Y-126242834D01*
X139071427Y-126223410D01*
X139069451Y-126214419D01*
X139070430Y-126203354D01*
X139076452Y-126191909D01*
X139088692Y-126179081D01*
X139108323Y-126163870D01*
X139136522Y-126145274D01*
X139174461Y-126122292D01*
X139223317Y-126093923D01*
X139247340Y-126080072D01*
X139284096Y-126058615D01*
X139315570Y-126039910D01*
X139340109Y-126024958D01*
X139356059Y-126014756D01*
X139361769Y-126010302D01*
X139361514Y-126009675D01*
X139352791Y-126006290D01*
X139333603Y-126002660D01*
X139306612Y-125999064D01*
X139274480Y-125995782D01*
X139239869Y-125993092D01*
X139205439Y-125991274D01*
X139173854Y-125990606D01*
X139150106Y-125990459D01*
X139126010Y-125989475D01*
X139110168Y-125987071D01*
X139099409Y-125982681D01*
X139090562Y-125975740D01*
X139084267Y-125968434D01*
X139075462Y-125946058D01*
X139076794Y-125922082D01*
X139088412Y-125901723D01*
X139091538Y-125898831D01*
X139099232Y-125894026D01*
X139110336Y-125890892D01*
X139127416Y-125889081D01*
X139153037Y-125888249D01*
X139189764Y-125888049D01*
X139285456Y-125892672D01*
X139390904Y-125909197D01*
X139490688Y-125937317D01*
X139584112Y-125976621D01*
X139670479Y-126026697D01*
X139749094Y-126087133D01*
X139819260Y-126157519D01*
X139880280Y-126237442D01*
X139931459Y-126326491D01*
X139938154Y-126340473D01*
X139969470Y-126421607D01*
X139987880Y-126503109D01*
X139993341Y-126585536D01*
X139985810Y-126669443D01*
X139965245Y-126755387D01*
X139931603Y-126843926D01*
X139884842Y-126935616D01*
X139884055Y-126936989D01*
X139869565Y-126961338D01*
X139849416Y-126993997D01*
X139825408Y-127032108D01*
X139799340Y-127072814D01*
X139773010Y-127113256D01*
X139772439Y-127114126D01*
X139741690Y-127160241D01*
X139716794Y-127195584D01*
X139696604Y-127221103D01*
X139679971Y-127237744D01*
X139665747Y-127246455D01*
X139652784Y-127248181D01*
X139639934Y-127243871D01*
X139626050Y-127234470D01*
X139625071Y-127233692D01*
X139613975Y-127222668D01*
X139608147Y-127210350D01*
X139608074Y-127195128D01*
X139614247Y-127175396D01*
X139627154Y-127149545D01*
X139647285Y-127115967D01*
X139675127Y-127073055D01*
X139691197Y-127048680D01*
X139735489Y-126980088D01*
X139772081Y-126920963D01*
X139801543Y-126870338D01*
X139824444Y-126827245D01*
X139841354Y-126790716D01*
X139862244Y-126740996D01*
X139829150Y-126707139D01*
X139827810Y-126705779D01*
X139798317Y-126679335D01*
X139761705Y-126651314D01*
X139722149Y-126624552D01*
X139683823Y-126601880D01*
X139650901Y-126586134D01*
X139616132Y-126574530D01*
X139552775Y-126563459D01*
X139490164Y-126564860D01*
X139430033Y-126578443D01*
X139374121Y-126603915D01*
X139324163Y-126640985D01*
X139304690Y-126660455D01*
X139286167Y-126683978D01*
X139271803Y-126710038D01*
X139261119Y-126740481D01*
X139253634Y-126777155D01*
X139248866Y-126821904D01*
X139246337Y-126876575D01*
X139245565Y-126943015D01*
X139245285Y-126987111D01*
X139243888Y-127039479D01*
X139241022Y-127082084D01*
X139236356Y-127117202D01*
X139229561Y-127147108D01*
X139220306Y-127174076D01*
X139208264Y-127200383D01*
X139191172Y-127227786D01*
X139160599Y-127263367D01*
X139124483Y-127295153D01*
X139087130Y-127318930D01*
X139081106Y-127321869D01*
X139048261Y-127334498D01*
X139014155Y-127341230D01*
X138977058Y-127341853D01*
X138935243Y-127336151D01*
X138886978Y-127323912D01*
X138830534Y-127304920D01*
X138764183Y-127278962D01*
X138737093Y-127267859D01*
X138683256Y-127246029D01*
X138639222Y-127228765D01*
X138603048Y-127215539D01*
X138572793Y-127205821D01*
X138546514Y-127199083D01*
X138522267Y-127194795D01*
X138498112Y-127192430D01*
X138472104Y-127191459D01*
X138442301Y-127191352D01*
X138440811Y-127191360D01*
X138395891Y-127192286D01*
X138360167Y-127194828D01*
X138329335Y-127199443D01*
X138299090Y-127206591D01*
X138254978Y-127220502D01*
X138186411Y-127249958D01*
X138124178Y-127286505D01*
X138070637Y-127328677D01*
X138028145Y-127375008D01*
X137999570Y-127412855D01*
X138018630Y-127441852D01*
X138029901Y-127456958D01*
X138047142Y-127477190D01*
X138067376Y-127499193D01*
X138088224Y-127520537D01*
X138107307Y-127538792D01*
X138122247Y-127551527D01*
X138130664Y-127556312D01*
X138135603Y-127554241D01*
X138151146Y-127546169D01*
X138175517Y-127532870D01*
X138207047Y-127515266D01*
X138244069Y-127494284D01*
X138284912Y-127470848D01*
X138307417Y-127457958D01*
X138350494Y-127433890D01*
X138387878Y-127413827D01*
X138418069Y-127398540D01*
X138439569Y-127388801D01*
X138450877Y-127385384D01*
X138456275Y-127385692D01*
X138477401Y-127393799D01*
X138492292Y-127410169D01*
X138499497Y-127431118D01*
X138497561Y-127452961D01*
X138485034Y-127472015D01*
X138474899Y-127479347D01*
X138454775Y-127492248D01*
X138427032Y-127509217D01*
X138393859Y-127528915D01*
X138357450Y-127550002D01*
X138245249Y-127614181D01*
X138274841Y-127622749D01*
X138303851Y-127630100D01*
X138342890Y-127636923D01*
X138387172Y-127641299D01*
X138438770Y-127643355D01*
X138499757Y-127643220D01*
X138572207Y-127641021D01*
X138607210Y-127639669D01*
X138715880Y-127636389D01*
X138812706Y-127634962D01*
X138897346Y-127635384D01*
X138969459Y-127637650D01*
X139028703Y-127641756D01*
X139074737Y-127647697D01*
X139150494Y-127662706D01*
X139281965Y-127698169D01*
X139404630Y-127744047D01*
X139410524Y-127745809D01*
X139415409Y-127741841D01*
X139416595Y-127727122D01*
X139417519Y-127711324D01*
X139422181Y-127678326D01*
X139430094Y-127637343D01*
X139440492Y-127591354D01*
X139452612Y-127543340D01*
X139465687Y-127496279D01*
X139478952Y-127453150D01*
X139491644Y-127416935D01*
X139502996Y-127390611D01*
X139514608Y-127376274D01*
X139534713Y-127366848D01*
X139557194Y-127366826D01*
X139578011Y-127376041D01*
X139593122Y-127394326D01*
X139593644Y-127395434D01*
X139596936Y-127404981D01*
X139597491Y-127416009D01*
X139594843Y-127431366D01*
X139588527Y-127453903D01*
X139578078Y-127486468D01*
X139573155Y-127501562D01*
X139556437Y-127555719D01*
X139543790Y-127602778D01*
X139534122Y-127647103D01*
X139526341Y-127693055D01*
X139526162Y-127694251D01*
X139521888Y-127722706D01*
X139517967Y-127748561D01*
X139515226Y-127766353D01*
X139513109Y-127775131D01*
X139499835Y-127801052D01*
X139478974Y-127824543D01*
X139454538Y-127840693D01*
X139438002Y-127846489D01*
X139416524Y-127849192D01*
X139391682Y-127846398D01*
X139360614Y-127837727D01*
X139320457Y-127822795D01*
X139264078Y-127802094D01*
X139165855Y-127773549D01*
X139057645Y-127750883D01*
X139054257Y-127750301D01*
X139021767Y-127745782D01*
X138983798Y-127742345D01*
X138939184Y-127739972D01*
X138886758Y-127738645D01*
X138825355Y-127738347D01*
X138753810Y-127739059D01*
X138670955Y-127740763D01*
X138575626Y-127743441D01*
X138565714Y-127743742D01*
X138495321Y-127745405D01*
X138436181Y-127745695D01*
X138386190Y-127744407D01*
X138343243Y-127741340D01*
X138305235Y-127736290D01*
X138270063Y-127729055D01*
X138235621Y-127719431D01*
X138199805Y-127707216D01*
X138183318Y-127700879D01*
X138107853Y-127663149D01*
X138038279Y-127613606D01*
X137975708Y-127553150D01*
X137921253Y-127482675D01*
X137909216Y-127464036D01*
X137860955Y-127374670D01*
X137825558Y-127281704D01*
X137802971Y-127185832D01*
X137793140Y-127087754D01*
X137796009Y-126988164D01*
X137811524Y-126887760D01*
X137839630Y-126787239D01*
X137880273Y-126687297D01*
X137933398Y-126588631D01*
X137998950Y-126491938D01*
X138029687Y-126453295D01*
X138084610Y-126391718D01*
X138146461Y-126329526D01*
X138211937Y-126269829D01*
X138277736Y-126215735D01*
X138340557Y-126170352D01*
X138358317Y-126157892D01*
X138372079Y-126146826D01*
X138377349Y-126140580D01*
X138372649Y-126134198D01*
X138358135Y-126122662D01*
X138336317Y-126107928D01*
X138309754Y-126091566D01*
X138281008Y-126075148D01*
X138252639Y-126060247D01*
X138227207Y-126048433D01*
X138208738Y-126041118D01*
X138173234Y-126028464D01*
X138133790Y-126015642D01*
X138096038Y-126004537D01*
X138091674Y-126003326D01*
X138002793Y-125972972D01*
X137919203Y-125933674D01*
X137842832Y-125886614D01*
X137775610Y-125832972D01*
X137719466Y-125773930D01*
X137713343Y-125766376D01*
X137685934Y-125731092D01*
X137667287Y-125703425D01*
X137656726Y-125681557D01*
X137653573Y-125663672D01*
X137657150Y-125647951D01*
X137666782Y-125632578D01*
X137681224Y-125619592D01*
X137703079Y-125614563D01*
X137716838Y-125615611D01*
X137732235Y-125621691D01*
X137746567Y-125635371D01*
X137763137Y-125659101D01*
X137787600Y-125692468D01*
X137820458Y-125729600D01*
X137857276Y-125765592D01*
X137894117Y-125796316D01*
X137933399Y-125823328D01*
X138005568Y-125861547D01*
X138086879Y-125891296D01*
X138091728Y-125892747D01*
X138156305Y-125912662D01*
X138209637Y-125930389D01*
X138253695Y-125946651D01*
X138290447Y-125962174D01*
X138321866Y-125977682D01*
X138330533Y-125982253D01*
X138352480Y-125993145D01*
X138368433Y-126000058D01*
X138375414Y-126001657D01*
X138374867Y-125997021D01*
X138368925Y-125982108D01*
X138358095Y-125959140D01*
X138343507Y-125930255D01*
X138326292Y-125897588D01*
X138307579Y-125863274D01*
X138288500Y-125829450D01*
X138270185Y-125798253D01*
X138253764Y-125771817D01*
X138233772Y-125741940D01*
X138172699Y-125660061D01*
X138103200Y-125578356D01*
X138028465Y-125500436D01*
X137951687Y-125429913D01*
X137925999Y-125407946D01*
X137899551Y-125431839D01*
X137858301Y-125463408D01*
X137803374Y-125491464D01*
X137745158Y-125507783D01*
X137685580Y-125512063D01*
X137626566Y-125504004D01*
X137570042Y-125483304D01*
X137566504Y-125481553D01*
X137543045Y-125470554D01*
X137527690Y-125465295D01*
X137516999Y-125464976D01*
X137507534Y-125468801D01*
X137504261Y-125470534D01*
X137483935Y-125479181D01*
X137457483Y-125488400D01*
X137429604Y-125496760D01*
X137404994Y-125502827D01*
X137388350Y-125505168D01*
X137376962Y-125503024D01*
X137358131Y-125491142D01*
X137343799Y-125472666D01*
X137338102Y-125451974D01*
X137338408Y-125446792D01*
X137347642Y-125425356D01*
X137369360Y-125408367D01*
X137403055Y-125396260D01*
X137424015Y-125389623D01*
X137452843Y-125377730D01*
X137480475Y-125363935D01*
X137496145Y-125355549D01*
X137519888Y-125345869D01*
X137539082Y-125344645D01*
X137557935Y-125352059D01*
X137580655Y-125368294D01*
X137592074Y-125376326D01*
X137625590Y-125393157D01*
X137662802Y-125404983D01*
X137697052Y-125409448D01*
X137708510Y-125408877D01*
X137745754Y-125401161D01*
X137782667Y-125386330D01*
X137812674Y-125366809D01*
X137838530Y-125344458D01*
X137773364Y-125306891D01*
X137978465Y-125306891D01*
X137981507Y-125316663D01*
X137996100Y-125332557D01*
X138022486Y-125354751D01*
X138053683Y-125380592D01*
X138110238Y-125433154D01*
X138168547Y-125493776D01*
X138226129Y-125559695D01*
X138280501Y-125628147D01*
X138329184Y-125696368D01*
X138331350Y-125699619D01*
X138349308Y-125727586D01*
X138369023Y-125759751D01*
X138389216Y-125793855D01*
X138408607Y-125827636D01*
X138425916Y-125858835D01*
X138439863Y-125885189D01*
X138449170Y-125904440D01*
X138452557Y-125914326D01*
X138452931Y-125916900D01*
X138459394Y-125922234D01*
X138460178Y-125921721D01*
X138462607Y-125911916D01*
X138464397Y-125891435D01*
X138465552Y-125862612D01*
X138466072Y-125827784D01*
X138465959Y-125789287D01*
X138465214Y-125749456D01*
X138463840Y-125710630D01*
X138461837Y-125675142D01*
X138459208Y-125645330D01*
X138458740Y-125641248D01*
X138453764Y-125603416D01*
X138447576Y-125563055D01*
X138441404Y-125528238D01*
X138430512Y-125472680D01*
X138388444Y-125476057D01*
X138335982Y-125474899D01*
X138279136Y-125461635D01*
X138225723Y-125436855D01*
X138177626Y-125401696D01*
X138136725Y-125357293D01*
X138104901Y-125304783D01*
X138099486Y-125293475D01*
X138089578Y-125275317D01*
X138079598Y-125264462D01*
X138065530Y-125257366D01*
X138043357Y-125250485D01*
X138023400Y-125244932D01*
X138005087Y-125240299D01*
X137995654Y-125238520D01*
X137993876Y-125239556D01*
X137989332Y-125249841D01*
X137985857Y-125267577D01*
X137985015Y-125273985D01*
X137981688Y-125293871D01*
X137978465Y-125306891D01*
X137773364Y-125306891D01*
X137771210Y-125305649D01*
X137751863Y-125294716D01*
X137715981Y-125275296D01*
X137681008Y-125257273D01*
X137652348Y-125243472D01*
X137633959Y-125235277D01*
X137612975Y-125227153D01*
X137595944Y-125223466D01*
X137577819Y-125223314D01*
X137553552Y-125225793D01*
X137542906Y-125227174D01*
X137474904Y-125239863D01*
X137403013Y-125259110D01*
X137333160Y-125283369D01*
X137315023Y-125290420D01*
X137288107Y-125300129D01*
X137269366Y-125304941D01*
X137255885Y-125305129D01*
X137244751Y-125300964D01*
X137233049Y-125292721D01*
X137219047Y-125274343D01*
X137214796Y-125250078D01*
X137221824Y-125224933D01*
X137225078Y-125221734D01*
X137239180Y-125213108D01*
X137261220Y-125201927D01*
X137288049Y-125189565D01*
X137316520Y-125177396D01*
X137343488Y-125166792D01*
X137365803Y-125159127D01*
X137380319Y-125155774D01*
X137384535Y-125154914D01*
X137381261Y-125152358D01*
X137367506Y-125148609D01*
X137345159Y-125143981D01*
X137316109Y-125138786D01*
X137282244Y-125133339D01*
X137245454Y-125127952D01*
X137207626Y-125122940D01*
X137170649Y-125118616D01*
X137136413Y-125115292D01*
X137133828Y-125115073D01*
X137096609Y-125111598D01*
X137070365Y-125108221D01*
X137052563Y-125104408D01*
X137040668Y-125099625D01*
X137032146Y-125093340D01*
X137025314Y-125085567D01*
X137017141Y-125064697D01*
X137019752Y-125043403D01*
X137031642Y-125024594D01*
X137051311Y-125011175D01*
X137077255Y-125006057D01*
X137077458Y-125006057D01*
X137102412Y-125007055D01*
X137136985Y-125009731D01*
X137177325Y-125013679D01*
X137219580Y-125018489D01*
X137259896Y-125023753D01*
X137294423Y-125029063D01*
X137309523Y-125031538D01*
X137328748Y-125033772D01*
X137336409Y-125032358D01*
X137332375Y-125026612D01*
X137316513Y-125015849D01*
X137288691Y-124999386D01*
X137288362Y-124999195D01*
X137257132Y-124978335D01*
X137238625Y-124958786D01*
X137232116Y-124939425D01*
X137236881Y-124919131D01*
X137247138Y-124904492D01*
X137263665Y-124890565D01*
X137274113Y-124885562D01*
X137287167Y-124884373D01*
X137304688Y-124890102D01*
X137316951Y-124895691D01*
X137352096Y-124915622D01*
X137391940Y-124942460D01*
X137433410Y-124973811D01*
X137473434Y-125007283D01*
X137508940Y-125040480D01*
X137536857Y-125071009D01*
X137542967Y-125077367D01*
X137561229Y-125090323D01*
X137589223Y-125104658D01*
X137628715Y-125121342D01*
X137647694Y-125129128D01*
X137692782Y-125149140D01*
X137740753Y-125172103D01*
X137787696Y-125196051D01*
X137829700Y-125219019D01*
X137862853Y-125239040D01*
X137885074Y-125253537D01*
X137885074Y-125212258D01*
X137884592Y-125191619D01*
X137881438Y-125173881D01*
X137873313Y-125158587D01*
X137857932Y-125139620D01*
X137847260Y-125126903D01*
X137826947Y-125101183D01*
X137809888Y-125077880D01*
X137795869Y-125059958D01*
X137778347Y-125046476D01*
X137753743Y-125037034D01*
X137742406Y-125034057D01*
X137713073Y-125028693D01*
X137686863Y-125026568D01*
X137678056Y-125026260D01*
X137657434Y-125023234D01*
X137643944Y-125018022D01*
X137641231Y-125015311D01*
X137631429Y-125001431D01*
X137618725Y-124979932D01*
X137605169Y-124954190D01*
X137589768Y-124926193D01*
X137550681Y-124874100D01*
X137503310Y-124832885D01*
X137447578Y-124802486D01*
X137383406Y-124782844D01*
X137339830Y-124776876D01*
X137277343Y-124779633D01*
X137215034Y-124795981D01*
X137190660Y-124805810D01*
X137155850Y-124824103D01*
X137123561Y-124847768D01*
X137089021Y-124879987D01*
X137050770Y-124918544D01*
X137003330Y-124913780D01*
X136991023Y-124912877D01*
X136942108Y-124916361D01*
X136898978Y-124930762D01*
X136863011Y-124954925D01*
X136835584Y-124987694D01*
X136818074Y-125027913D01*
X136811859Y-125074428D01*
X136816091Y-125114259D01*
X136831762Y-125155993D01*
X136857856Y-125190412D01*
X136893176Y-125216388D01*
X136936522Y-125232799D01*
X136986696Y-125238520D01*
X137032284Y-125238520D01*
X137087764Y-125294985D01*
X137107061Y-125314245D01*
X137131823Y-125337977D01*
X137153486Y-125357706D01*
X137168883Y-125370485D01*
X137183396Y-125382622D01*
X137192262Y-125396107D01*
X137194522Y-125413158D01*
X137194361Y-125417658D01*
X137187017Y-125441682D01*
X137170545Y-125458079D01*
X137147441Y-125464145D01*
X137144883Y-125464009D01*
X137124838Y-125457903D01*
X137098927Y-125444175D01*
X137070163Y-125424820D01*
X137041560Y-125401833D01*
X137016129Y-125377209D01*
X136999247Y-125359852D01*
X136984851Y-125349297D01*
X136968434Y-125343802D01*
X136944508Y-125340558D01*
X136912688Y-125335208D01*
X136859416Y-125316321D01*
X136812091Y-125286891D01*
X136771985Y-125248553D01*
X136740372Y-125202941D01*
X136718528Y-125151690D01*
X136707727Y-125096434D01*
X136709242Y-125038808D01*
X136714796Y-125010649D01*
X136735381Y-124956055D01*
X136767090Y-124906935D01*
X136808332Y-124865488D01*
X136857517Y-124833912D01*
X136867799Y-124829009D01*
X136895031Y-124818405D01*
X136922691Y-124812333D01*
X136957373Y-124809160D01*
X136975712Y-124808021D01*
X136997922Y-124805596D01*
X137013303Y-124801274D01*
X137026132Y-124793620D01*
X137040686Y-124781197D01*
X137091843Y-124741471D01*
X137155357Y-124707059D01*
X137222673Y-124684383D01*
X137292193Y-124673411D01*
X137362318Y-124674110D01*
X137431451Y-124686448D01*
X137497993Y-124710392D01*
X137560345Y-124745909D01*
X137616910Y-124792967D01*
X137623479Y-124799675D01*
X137647852Y-124827173D01*
X137670346Y-124856074D01*
X137686797Y-124881125D01*
X137696499Y-124897710D01*
X137707944Y-124913803D01*
X137717906Y-124921659D01*
X137728881Y-124923807D01*
X137732726Y-124923830D01*
X137740879Y-124922688D01*
X137744654Y-124917299D01*
X137745112Y-124904537D01*
X137743314Y-124881279D01*
X137741392Y-124863367D01*
X137736724Y-124843429D01*
X137727579Y-124826955D01*
X137711268Y-124807779D01*
X137674660Y-124761304D01*
X137648790Y-124710938D01*
X137635322Y-124657429D01*
X137634115Y-124616339D01*
X137738510Y-124616339D01*
X137738769Y-124630254D01*
X137742330Y-124660929D01*
X137751330Y-124687399D01*
X137767369Y-124712426D01*
X137792045Y-124738776D01*
X137826958Y-124769211D01*
X137836093Y-124777314D01*
X137843430Y-124787851D01*
X137846112Y-124802086D01*
X137845813Y-124824976D01*
X137845682Y-124848948D01*
X137854152Y-124913509D01*
X137874843Y-124974883D01*
X137906856Y-125030861D01*
X137949293Y-125079235D01*
X137993587Y-125114424D01*
X138044930Y-125141393D01*
X138101588Y-125157355D01*
X138129291Y-125162979D01*
X138152703Y-125170442D01*
X138167973Y-125180671D01*
X138178100Y-125195822D01*
X138186083Y-125218049D01*
X138202310Y-125261900D01*
X138225977Y-125301528D01*
X138256479Y-125331556D01*
X138295303Y-125353836D01*
X138313870Y-125361116D01*
X138342268Y-125369272D01*
X138367247Y-125373164D01*
X138385766Y-125372401D01*
X138394779Y-125366592D01*
X138395024Y-125362283D01*
X138391932Y-125346368D01*
X138385014Y-125323005D01*
X138375200Y-125295563D01*
X138325387Y-125182700D01*
X138259372Y-125064525D01*
X138180621Y-124949762D01*
X138166738Y-124931265D01*
X138149135Y-124908707D01*
X138135024Y-124894351D01*
X138121198Y-124886726D01*
X138104446Y-124884358D01*
X138081560Y-124885774D01*
X138049332Y-124889503D01*
X138021670Y-124891642D01*
X137990122Y-124889449D01*
X137968991Y-124880302D01*
X137957143Y-124863600D01*
X137953445Y-124838745D01*
X137953488Y-124836788D01*
X137960775Y-124814845D01*
X137979293Y-124798283D01*
X138007218Y-124788800D01*
X138037061Y-124783786D01*
X137984998Y-124734641D01*
X137977760Y-124727725D01*
X137951898Y-124700543D01*
X137936756Y-124678626D01*
X137931739Y-124660157D01*
X137936257Y-124643316D01*
X137949716Y-124626284D01*
X137958834Y-124618139D01*
X137971266Y-124611279D01*
X137984748Y-124610167D01*
X138000628Y-124615539D01*
X138020257Y-124628133D01*
X138044982Y-124648685D01*
X138076153Y-124677932D01*
X138115118Y-124716610D01*
X138148065Y-124749734D01*
X138172898Y-124774031D01*
X138189831Y-124788940D01*
X138199762Y-124794595D01*
X138203593Y-124791128D01*
X138202223Y-124778674D01*
X138196552Y-124757365D01*
X138187482Y-124727336D01*
X138183697Y-124713022D01*
X138181247Y-124682562D01*
X138189274Y-124660190D01*
X138207956Y-124645199D01*
X138210728Y-124643936D01*
X138235422Y-124639199D01*
X138256933Y-124647296D01*
X138275043Y-124667757D01*
X138289535Y-124700111D01*
X138300191Y-124743887D01*
X138306793Y-124798616D01*
X138309123Y-124863826D01*
X138309270Y-124947941D01*
X138340025Y-124995419D01*
X138351226Y-125013336D01*
X138377265Y-125058623D01*
X138404694Y-125110365D01*
X138431321Y-125164203D01*
X138454957Y-125215780D01*
X138473410Y-125260740D01*
X138479070Y-125275323D01*
X138488925Y-125298571D01*
X138496862Y-125314595D01*
X138501549Y-125320565D01*
X138502147Y-125320514D01*
X138511203Y-125313854D01*
X138523236Y-125298473D01*
X138536033Y-125277896D01*
X138547382Y-125255651D01*
X138555069Y-125235264D01*
X138559984Y-125206296D01*
X138560188Y-125168331D01*
X138554956Y-125131294D01*
X138544747Y-125101176D01*
X138543143Y-125098258D01*
X138531002Y-125080614D01*
X138513108Y-125058397D01*
X138492720Y-125035706D01*
X138485977Y-125028500D01*
X138468923Y-125008931D01*
X138457060Y-124993283D01*
X138452631Y-124984428D01*
X138453042Y-124980516D01*
X138456380Y-124964878D01*
X138461963Y-124944522D01*
X138470379Y-124910288D01*
X138476276Y-124845777D01*
X138469421Y-124782908D01*
X138450233Y-124723276D01*
X138419134Y-124668478D01*
X138376543Y-124620109D01*
X138347887Y-124595884D01*
X138299384Y-124565397D01*
X138247238Y-124545942D01*
X138189175Y-124536774D01*
X138122919Y-124537148D01*
X138055993Y-124541757D01*
X138025280Y-124511479D01*
X138000901Y-124489556D01*
X137970012Y-124469728D01*
X137937358Y-124459195D01*
X137898748Y-124456123D01*
X137869131Y-124458446D01*
X137825590Y-124471616D01*
X137789460Y-124495287D01*
X137762039Y-124528162D01*
X137744623Y-124568946D01*
X137738510Y-124616339D01*
X137634115Y-124616339D01*
X137633606Y-124599027D01*
X137637506Y-124567424D01*
X137653538Y-124513719D01*
X137679687Y-124466334D01*
X137714345Y-124426009D01*
X137755904Y-124393479D01*
X137802755Y-124369484D01*
X137853290Y-124354761D01*
X137905902Y-124350049D01*
X137958980Y-124356084D01*
X138010918Y-124373605D01*
X138060108Y-124403349D01*
X138094980Y-124429978D01*
X138176339Y-124433479D01*
X138220904Y-124436509D01*
X138269010Y-124443830D01*
X138311314Y-124456256D01*
X138352074Y-124475112D01*
X138395546Y-124501724D01*
X138436575Y-124533151D01*
X138486584Y-124585081D01*
X138526857Y-124644401D01*
X138556625Y-124709319D01*
X138575119Y-124778044D01*
X138581568Y-124848784D01*
X138575203Y-124919749D01*
X138567943Y-124959022D01*
X138593060Y-124986824D01*
X138610977Y-125009868D01*
X138635025Y-125051826D01*
X138653729Y-125098032D01*
X138664520Y-125142877D01*
X138666238Y-125158378D01*
X138665961Y-125168331D01*
G37*
%TD.AperFunction*%
%TD*%
D12*
%TO.P,R2,1*%
%TO.N,Net-(C1-Pad1)*%
X173000000Y-100810000D03*
D13*
%TO.P,R2,2*%
%TO.N,GND*%
X173000000Y-93190000D03*
%TD*%
D14*
%TO.P,J3,1,Pin_1*%
%TO.N,unconnected-(J3-Pin_1-Pad1)*%
X141150000Y-108850000D03*
%TO.P,J3,2,Pin_2*%
%TO.N,+3V3*%
X143690000Y-108850000D03*
%TO.P,J3,3,Pin_3*%
%TO.N,RX*%
X146230000Y-108850000D03*
%TO.P,J3,4,Pin_4*%
%TO.N,TX*%
X148770000Y-108850000D03*
D15*
%TO.P,J3,5,Pin_5*%
%TO.N,GND*%
X151310000Y-108850000D03*
D14*
%TO.P,J3,6,Pin_6*%
%TO.N,unconnected-(J3-Pin_6-Pad6)*%
X153850000Y-108850000D03*
%TO.P,J3,7,Pin_7*%
%TO.N,unconnected-(J3-Pin_7-Pad7)*%
X153850000Y-96150000D03*
D15*
%TO.P,J3,8,Pin_8*%
%TO.N,GND*%
X151310000Y-96150000D03*
D14*
%TO.P,J3,9,Pin_9*%
%TO.N,SDA*%
X148770000Y-96150000D03*
%TO.P,J3,10,Pin_10*%
%TO.N,SCL*%
X146230000Y-96150000D03*
%TO.P,J3,11,Pin_11*%
%TO.N,+3V3*%
X143690000Y-96150000D03*
%TO.P,J3,12,Pin_12*%
%TO.N,unconnected-(J3-Pin_12-Pad12)*%
X141150000Y-96150000D03*
%TD*%
D16*
%TO.P,J4,1,Pin_1*%
%TO.N,unconnected-(J4-Pin_1-Pad1)*%
X131900000Y-96150000D03*
%TO.P,J4,2,Pin_2*%
%TO.N,TX*%
X131900000Y-98690000D03*
%TO.P,J4,3,Pin_3*%
%TO.N,RX*%
X131900000Y-101230000D03*
%TO.P,J4,4,Pin_4*%
%TO.N,+3V3*%
X131900000Y-103770000D03*
D17*
%TO.P,J4,5,Pin_5*%
%TO.N,GND*%
X131900000Y-106310000D03*
%TO.P,J4,6,Pin_6*%
X131900000Y-108850000D03*
%TD*%
D18*
%TO.P,SW1,1,1*%
%TO.N,ST*%
X162500000Y-108740000D03*
X162500000Y-96240000D03*
D19*
%TO.P,SW1,2,2*%
%TO.N,GND*%
X167500000Y-108740000D03*
X167500000Y-96240000D03*
%TD*%
D12*
%TO.P,A1,1,NC*%
%TO.N,unconnected-(A1-NC-Pad1)*%
X141190000Y-126860000D03*
D20*
%TO.P,A1,2,IOREF*%
%TO.N,IOREF*%
X143730000Y-126860000D03*
%TO.P,A1,3,~{RESET}*%
%TO.N,unconnected-(A1-~{RESET}-Pad3)*%
X146270000Y-126860000D03*
%TO.P,A1,4,3V3*%
%TO.N,unconnected-(A1-3V3-Pad4)*%
X148810000Y-126860000D03*
%TO.P,A1,5,+5V*%
%TO.N,unconnected-(A1-+5V-Pad5)*%
X151350000Y-126860000D03*
D13*
%TO.P,A1,6,GND*%
%TO.N,GND*%
X153890000Y-126860000D03*
%TO.P,A1,7,GND*%
X156430000Y-126860000D03*
D20*
%TO.P,A1,8,VIN*%
%TO.N,VDD*%
X158970000Y-126860000D03*
%TO.P,A1,9,A0*%
%TO.N,unconnected-(A1-A0-Pad9)*%
X164050000Y-126860000D03*
%TO.P,A1,10,A1*%
%TO.N,unconnected-(A1-A1-Pad10)*%
X166590000Y-126860000D03*
%TO.P,A1,11,A2*%
%TO.N,VBAT*%
X169130000Y-126860000D03*
%TO.P,A1,12,A3*%
%TO.N,unconnected-(A1-A3-Pad12)*%
X171670000Y-126860000D03*
%TO.P,A1,13,SDA/A4*%
%TO.N,unconnected-(A1-SDA{slash}A4-Pad13)*%
X174210000Y-126860000D03*
%TO.P,A1,14,SCL/A5*%
%TO.N,unconnected-(A1-SCL{slash}A5-Pad14)*%
X176750000Y-126860000D03*
%TO.P,A1,15,D0/RX*%
%TO.N,CH1*%
X176750000Y-78600000D03*
%TO.P,A1,16,D1/TX*%
%TO.N,CH2*%
X174210000Y-78600000D03*
%TO.P,A1,17,D2*%
%TO.N,CH3*%
X171670000Y-78600000D03*
%TO.P,A1,18,D3*%
%TO.N,CH4*%
X169130000Y-78600000D03*
%TO.P,A1,19,D4*%
%TO.N,unconnected-(A1-D4-Pad19)*%
X166590000Y-78600000D03*
%TO.P,A1,20,D5*%
%TO.N,LED_R*%
X164050000Y-78600000D03*
%TO.P,A1,21,D6*%
%TO.N,LED_B*%
X161510000Y-78600000D03*
%TO.P,A1,22,D7*%
%TO.N,unconnected-(A1-D7-Pad22)*%
X158970000Y-78600000D03*
%TO.P,A1,23,D8*%
%TO.N,unconnected-(A1-D8-Pad23)*%
X154910000Y-78600000D03*
%TO.P,A1,24,D9*%
%TO.N,unconnected-(A1-D9-Pad24)*%
X152370000Y-78600000D03*
%TO.P,A1,25,D10*%
%TO.N,unconnected-(A1-D10-Pad25)*%
X149830000Y-78600000D03*
%TO.P,A1,26,D11*%
%TO.N,ST*%
X147290000Y-78600000D03*
%TO.P,A1,27,D12*%
%TO.N,unconnected-(A1-D12-Pad27)*%
X144750000Y-78600000D03*
%TO.P,A1,28,D13*%
%TO.N,LED_L*%
X142210000Y-78600000D03*
D13*
%TO.P,A1,29,GND*%
%TO.N,GND*%
X139670000Y-78600000D03*
D20*
%TO.P,A1,30,AREF*%
%TO.N,unconnected-(A1-AREF-Pad30)*%
X137130000Y-78600000D03*
%TO.P,A1,31,SDA/A4*%
%TO.N,SDA*%
X134590000Y-78600000D03*
%TO.P,A1,32,SCL/A5*%
%TO.N,SCL*%
X132050000Y-78600000D03*
%TD*%
D12*
%TO.P,R3,1*%
%TO.N,Net-(C1-Pad1)*%
X176500000Y-93190000D03*
D20*
%TO.P,R3,2*%
%TO.N,Net-(D1-K)*%
X176500000Y-100810000D03*
%TD*%
D17*
%TO.P,J2,1,Pin_1*%
%TO.N,GND*%
X176733200Y-81127600D03*
D16*
%TO.P,J2,2,Pin_2*%
%TO.N,+3V3*%
X176733200Y-83667600D03*
%TO.P,J2,3,Pin_3*%
%TO.N,Net-(D9-K)*%
X176733200Y-86207600D03*
%TO.P,J2,4,Pin_4*%
%TO.N,Net-(D10-K)*%
X176733200Y-88747600D03*
%TD*%
D12*
%TO.P,R1,1*%
%TO.N,VDD*%
X173000000Y-111760000D03*
D20*
%TO.P,R1,2*%
%TO.N,Net-(C1-Pad1)*%
X173000000Y-104140000D03*
%TD*%
D12*
%TO.P,R4,1*%
%TO.N,Net-(D1-K)*%
X176500000Y-104140000D03*
D13*
%TO.P,R4,2*%
%TO.N,GND*%
X176500000Y-111760000D03*
%TD*%
D17*
%TO.P,J1,1,Pin_1*%
%TO.N,GND*%
X176733200Y-124307600D03*
D16*
%TO.P,J1,2,Pin_2*%
%TO.N,+3V3*%
X176733200Y-121767600D03*
%TO.P,J1,3,Pin_3*%
%TO.N,Net-(D7-K)*%
X176733200Y-119227600D03*
%TO.P,J1,4,Pin_4*%
%TO.N,Net-(D8-K)*%
X176733200Y-116687600D03*
%TD*%
D21*
%TO.N,IOREF*%
X136250000Y-107550000D03*
%TO.N,GND*%
X156400000Y-125100000D03*
X153900000Y-125100000D03*
X167450000Y-98750000D03*
X170650000Y-123050000D03*
X148100000Y-122500000D03*
X150650000Y-111800000D03*
X151300000Y-110550000D03*
X150150000Y-125100000D03*
X133900000Y-106300000D03*
X139700000Y-80400000D03*
X173600000Y-81100000D03*
X134050000Y-127200000D03*
X133900000Y-108850000D03*
X148450000Y-112350000D03*
X151300000Y-94450000D03*
X175000000Y-124300000D03*
X167600000Y-83600000D03*
%TO.N,VDD*%
X139700000Y-114800000D03*
%TO.N,CH3*%
X173500000Y-115400000D03*
%TO.N,CH4*%
X173500000Y-120550000D03*
%TO.N,LED_R*%
X133050000Y-113900000D03*
%TO.N,LED_B*%
X136950000Y-113200000D03*
%TO.N,Net-(D1-K)*%
X166100000Y-113500000D03*
X166100000Y-124300000D03*
%TO.N,Net-(D7-K)*%
X170650000Y-119250000D03*
%TO.N,Net-(D8-K)*%
X170650000Y-116700000D03*
%TO.N,Net-(D9-K)*%
X170650000Y-86200000D03*
%TO.N,Net-(D10-K)*%
X170650000Y-88750000D03*
%TO.N,+3V3*%
X159700000Y-99450000D03*
X174950000Y-115400000D03*
X170650000Y-90600000D03*
X173300000Y-83700000D03*
X174950000Y-121767600D03*
%TO.N,Net-(U1-VO)*%
X150000000Y-116500000D03*
X155000000Y-117500000D03*
X150000000Y-119500000D03*
X155000000Y-116500000D03*
X150000000Y-118500000D03*
X155000000Y-120500000D03*
X155000000Y-119500000D03*
X150000000Y-115500000D03*
X150000000Y-117500000D03*
X150000000Y-120500000D03*
X155000000Y-118500000D03*
X155000000Y-115500000D03*
%TD*%
D22*
%TO.N,IOREF*%
X136250000Y-107550000D02*
X136250000Y-108200000D01*
X136250000Y-108200000D02*
X131650000Y-112800000D01*
X131650000Y-114780000D02*
X143730000Y-126860000D01*
X131650000Y-112800000D02*
X131650000Y-114780000D01*
%TO.N,VDD*%
X158970000Y-125870000D02*
X158970000Y-126860000D01*
X141756396Y-124250000D02*
X157350000Y-124250000D01*
X139700000Y-114800000D02*
X139700000Y-122193604D01*
X157350000Y-124250000D02*
X158970000Y-125870000D01*
X139700000Y-122193604D02*
X141756396Y-124250000D01*
%TO.N,CH3*%
X171670000Y-79680000D02*
X169600000Y-81750000D01*
X171670000Y-78600000D02*
X171670000Y-79680000D01*
X169600000Y-81750000D02*
X169600000Y-111500000D01*
X169600000Y-111500000D02*
X173500000Y-115400000D01*
%TO.N,CH4*%
X169150000Y-119150000D02*
X170550000Y-120550000D01*
X169130000Y-78600000D02*
X169150000Y-78620000D01*
X170550000Y-120550000D02*
X173500000Y-120550000D01*
X169150000Y-78620000D02*
X169150000Y-119150000D01*
%TO.N,LED_R*%
X133075000Y-113925000D02*
X152725000Y-113925000D01*
X161150000Y-82550000D02*
X164050000Y-79650000D01*
X152725000Y-113925000D02*
X161150000Y-105500000D01*
X161150000Y-105500000D02*
X161150000Y-82550000D01*
X133050000Y-113900000D02*
X133075000Y-113925000D01*
X164050000Y-79650000D02*
X164050000Y-78600000D01*
%TO.N,LED_B*%
X136950000Y-113200000D02*
X152813604Y-113200000D01*
X160700000Y-105313604D02*
X160700000Y-79410000D01*
X160700000Y-79410000D02*
X161510000Y-78600000D01*
X152813604Y-113200000D02*
X160700000Y-105313604D01*
%TO.N,ST*%
X162500000Y-108740000D02*
X162500000Y-96240000D01*
%TO.N,SDA*%
X134590000Y-78600000D02*
X134590000Y-79500000D01*
X134299404Y-80400000D02*
X134299405Y-80400000D01*
X134590000Y-81300000D02*
X134590000Y-81970000D01*
X134590000Y-81970000D02*
X148770000Y-96150000D01*
X134299405Y-80400000D02*
X134880607Y-80400000D01*
X134008809Y-80081190D02*
X134008809Y-80109405D01*
X135171214Y-80690607D02*
X135171214Y-80709393D01*
X134590000Y-81290607D02*
X134590000Y-81300000D01*
X134299405Y-79790595D02*
X134299404Y-79790595D01*
X134299405Y-79790600D02*
G75*
G03*
X134590000Y-79500000I-5J290600D01*
G01*
X134299404Y-79790609D02*
G75*
G03*
X134008809Y-80081190I-4J-290591D01*
G01*
X134880607Y-81000014D02*
G75*
G03*
X135171214Y-80709393I-7J290614D01*
G01*
X135171200Y-80690607D02*
G75*
G03*
X134880607Y-80400000I-290600J7D01*
G01*
X134008800Y-80109405D02*
G75*
G03*
X134299404Y-80400000I290600J5D01*
G01*
X134880607Y-81000000D02*
G75*
G03*
X134590000Y-81290607I-7J-290600D01*
G01*
%TO.N,SCL*%
X132340595Y-80950000D02*
X131759393Y-80950000D01*
X132050000Y-81850000D02*
X132050000Y-81970000D01*
X132631191Y-80631190D02*
X132631191Y-80659405D01*
X131468786Y-81240607D02*
X131468786Y-81259393D01*
X132050000Y-78600000D02*
X132050000Y-80050000D01*
X132340596Y-80950000D02*
X132340595Y-80950000D01*
X132050000Y-81970000D02*
X146230000Y-96150000D01*
X132340595Y-80340595D02*
X132340596Y-80340595D01*
X132050000Y-81840607D02*
X132050000Y-81850000D01*
X132340596Y-80949991D02*
G75*
G03*
X132631191Y-80659405I4J290591D01*
G01*
X131759393Y-80949986D02*
G75*
G03*
X131468786Y-81240607I7J-290614D01*
G01*
X131468800Y-81259393D02*
G75*
G03*
X131759393Y-81550000I290600J-7D01*
G01*
X132050005Y-80050000D02*
G75*
G03*
X132340595Y-80340595I290595J0D01*
G01*
X132631205Y-80631190D02*
G75*
G03*
X132340596Y-80340595I-290605J-10D01*
G01*
X132050000Y-81840607D02*
G75*
G03*
X131759393Y-81550000I-290600J7D01*
G01*
%TO.N,Net-(D1-K)*%
X166100000Y-113500000D02*
X166100000Y-124300000D01*
%TO.N,Net-(D7-K)*%
X176733200Y-119227600D02*
X170672400Y-119227600D01*
X170672400Y-119227600D02*
X170650000Y-119250000D01*
%TO.N,Net-(D8-K)*%
X170662400Y-116687600D02*
X170650000Y-116700000D01*
X176733200Y-116687600D02*
X170662400Y-116687600D01*
%TO.N,Net-(D9-K)*%
X176733200Y-86207600D02*
X170657600Y-86207600D01*
X170657600Y-86207600D02*
X170650000Y-86200000D01*
%TO.N,Net-(D10-K)*%
X176733200Y-88747600D02*
X170652400Y-88747600D01*
X170652400Y-88747600D02*
X170650000Y-88750000D01*
D23*
%TO.N,+3V3*%
X143690000Y-108850000D02*
X138610000Y-103770000D01*
D22*
X173332400Y-83667600D02*
X173300000Y-83700000D01*
D23*
X138610000Y-103770000D02*
X131900000Y-103770000D01*
X146990000Y-99450000D02*
X159700000Y-99450000D01*
X174950000Y-121767600D02*
X176733200Y-121767600D01*
X176733200Y-83667600D02*
X173332400Y-83667600D01*
X143690000Y-96150000D02*
X146990000Y-99450000D01*
X172810000Y-90600000D02*
X170650000Y-90600000D01*
X174950000Y-115400000D02*
X174950000Y-92740000D01*
X174950000Y-92740000D02*
X172810000Y-90600000D01*
D22*
%TO.N,RX*%
X136150000Y-100624117D02*
X136150000Y-101230000D01*
X134950000Y-100624117D02*
X134950000Y-100930000D01*
X136750000Y-101230000D02*
X136750000Y-100624140D01*
X131900000Y-101230000D02*
X134050000Y-101230000D01*
X137350000Y-100624140D02*
X137350000Y-100930000D01*
X136750000Y-101835883D02*
X136750000Y-101230000D01*
X136150000Y-101230000D02*
X136150000Y-101835883D01*
X135550000Y-101835883D02*
X135550000Y-101230000D01*
X134950000Y-100930000D02*
X134950000Y-101835883D01*
X134350000Y-100930000D02*
X134350000Y-100624117D01*
X135550000Y-101230000D02*
X135550000Y-100624117D01*
X138610000Y-101230000D02*
X146230000Y-108850000D01*
X137650000Y-101230000D02*
X138610000Y-101230000D01*
X135250000Y-102135900D02*
G75*
G03*
X135550000Y-101835883I0J300000D01*
G01*
X136150017Y-101835883D02*
G75*
G03*
X136450000Y-102135883I299983J-17D01*
G01*
X134050000Y-101230000D02*
G75*
G03*
X134350000Y-100930000I0J300000D01*
G01*
X136149983Y-100624117D02*
G75*
G03*
X135850000Y-100324117I-299983J17D01*
G01*
X137349960Y-100624140D02*
G75*
G03*
X137050000Y-100324140I-299960J40D01*
G01*
X135850000Y-100324100D02*
G75*
G03*
X135550000Y-100624117I0J-300000D01*
G01*
X137050000Y-100324100D02*
G75*
G03*
X136750000Y-100624140I0J-300000D01*
G01*
X134950017Y-101835883D02*
G75*
G03*
X135250000Y-102135883I299983J-17D01*
G01*
X136450000Y-102135900D02*
G75*
G03*
X136750000Y-101835883I0J300000D01*
G01*
X134650000Y-100324100D02*
G75*
G03*
X134350000Y-100624117I0J-300000D01*
G01*
X137350000Y-100930000D02*
G75*
G03*
X137650000Y-101230000I300000J0D01*
G01*
X134949983Y-100624117D02*
G75*
G03*
X134650000Y-100324117I-299983J17D01*
G01*
%TO.N,TX*%
X136750000Y-98690000D02*
X136750000Y-99215293D01*
X138468205Y-98690000D02*
X138610000Y-98690000D01*
X131900000Y-98690000D02*
X135250000Y-98690000D01*
X136150000Y-99215270D02*
X136150000Y-98990000D01*
X136150000Y-98990000D02*
X136150000Y-98164730D01*
X138610000Y-98690000D02*
X148770000Y-108850000D01*
X135550000Y-98990000D02*
X135550000Y-99215270D01*
X137650000Y-98690000D02*
X138468205Y-98690000D01*
X137350000Y-99215293D02*
X137350000Y-98990000D01*
X136750000Y-98164730D02*
X136750000Y-98690000D01*
X137050000Y-99515300D02*
G75*
G03*
X137350000Y-99215293I0J300000D01*
G01*
X137650000Y-98690000D02*
G75*
G03*
X137350000Y-98990000I0J-300000D01*
G01*
X135850000Y-99515300D02*
G75*
G03*
X136150000Y-99215270I0J300000D01*
G01*
X136750007Y-99215293D02*
G75*
G03*
X137050000Y-99515293I299993J-7D01*
G01*
X136450000Y-97864700D02*
G75*
G03*
X136150000Y-98164730I0J-300000D01*
G01*
X135550000Y-98990000D02*
G75*
G03*
X135250000Y-98690000I-300000J0D01*
G01*
X136749970Y-98164730D02*
G75*
G03*
X136450000Y-97864730I-299970J30D01*
G01*
X135550030Y-99215270D02*
G75*
G03*
X135850000Y-99515270I299970J-30D01*
G01*
%TD*%
%TA.AperFunction,Conductor*%
%TO.N,GND*%
G36*
X166281731Y-77374381D02*
G01*
X166328226Y-77427749D01*
X166338612Y-77497764D01*
X166309611Y-77562331D01*
X166250377Y-77601073D01*
X166184508Y-77621055D01*
X166184505Y-77621056D01*
X166001317Y-77718972D01*
X165840747Y-77850747D01*
X165708972Y-78011317D01*
X165611056Y-78194505D01*
X165611055Y-78194507D01*
X165611055Y-78194508D01*
X165563888Y-78350000D01*
X165550757Y-78393286D01*
X165530397Y-78599999D01*
X165550757Y-78806713D01*
X165550757Y-78806715D01*
X165550758Y-78806718D01*
X165611055Y-79005492D01*
X165611056Y-79005494D01*
X165708972Y-79188682D01*
X165840747Y-79349252D01*
X165988821Y-79470772D01*
X166001317Y-79481027D01*
X166184508Y-79578945D01*
X166383282Y-79639242D01*
X166590000Y-79659602D01*
X166796718Y-79639242D01*
X166995492Y-79578945D01*
X167178683Y-79481027D01*
X167339252Y-79349252D01*
X167471027Y-79188683D01*
X167568945Y-79005492D01*
X167629242Y-78806718D01*
X167649602Y-78600000D01*
X167629242Y-78393282D01*
X167568945Y-78194508D01*
X167471027Y-78011317D01*
X167339252Y-77850747D01*
X167178682Y-77718972D01*
X166995494Y-77621056D01*
X166995493Y-77621055D01*
X166995492Y-77621055D01*
X166929622Y-77601073D01*
X166870389Y-77562331D01*
X166841388Y-77497764D01*
X166851774Y-77427749D01*
X166898269Y-77374381D01*
X166966200Y-77354500D01*
X168753800Y-77354500D01*
X168821731Y-77374381D01*
X168868226Y-77427749D01*
X168878612Y-77497764D01*
X168849611Y-77562331D01*
X168790377Y-77601073D01*
X168724508Y-77621055D01*
X168724505Y-77621056D01*
X168541317Y-77718972D01*
X168380747Y-77850747D01*
X168248972Y-78011317D01*
X168151056Y-78194505D01*
X168151055Y-78194507D01*
X168151055Y-78194508D01*
X168103888Y-78350000D01*
X168090757Y-78393286D01*
X168070397Y-78599999D01*
X168090757Y-78806713D01*
X168090757Y-78806715D01*
X168090758Y-78806718D01*
X168151055Y-79005492D01*
X168151056Y-79005494D01*
X168248972Y-79188682D01*
X168380747Y-79349252D01*
X168528821Y-79470772D01*
X168541317Y-79481027D01*
X168703897Y-79567928D01*
X168752574Y-79614272D01*
X168770500Y-79679049D01*
X168770500Y-94330110D01*
X168751005Y-94397435D01*
X168698552Y-94443927D01*
X168629374Y-94455199D01*
X168564876Y-94427762D01*
X168494889Y-94370695D01*
X168321378Y-94280060D01*
X168133182Y-94226210D01*
X168018332Y-94216000D01*
X167750000Y-94216000D01*
X167750000Y-98264000D01*
X168018332Y-98264000D01*
X168133182Y-98253789D01*
X168321378Y-98199939D01*
X168494889Y-98109304D01*
X168564876Y-98052238D01*
X168629374Y-98024801D01*
X168698552Y-98036073D01*
X168751005Y-98082565D01*
X168770500Y-98149890D01*
X168770500Y-106830110D01*
X168751005Y-106897435D01*
X168698552Y-106943927D01*
X168629374Y-106955199D01*
X168564876Y-106927762D01*
X168494889Y-106870695D01*
X168321378Y-106780060D01*
X168133182Y-106726210D01*
X168018332Y-106716000D01*
X167750000Y-106716000D01*
X167750000Y-110764000D01*
X168018332Y-110764000D01*
X168133182Y-110753789D01*
X168321378Y-110699939D01*
X168494889Y-110609304D01*
X168564876Y-110552238D01*
X168629374Y-110524801D01*
X168698552Y-110536073D01*
X168751005Y-110582565D01*
X168770500Y-110649890D01*
X168770500Y-119097574D01*
X168767818Y-119123432D01*
X168765580Y-119134100D01*
X168769532Y-119165796D01*
X168770500Y-119181382D01*
X168770500Y-119181448D01*
X168773955Y-119202159D01*
X168774705Y-119207304D01*
X168782241Y-119267751D01*
X168782276Y-119267861D01*
X168811255Y-119321410D01*
X168813638Y-119326039D01*
X168840406Y-119380793D01*
X168840461Y-119380866D01*
X168885284Y-119422130D01*
X168889041Y-119425735D01*
X170244581Y-120781275D01*
X170260966Y-120801450D01*
X170266932Y-120810582D01*
X170292141Y-120830203D01*
X170303842Y-120840537D01*
X170303881Y-120840576D01*
X170303884Y-120840578D01*
X170303887Y-120840581D01*
X170320999Y-120852799D01*
X170325142Y-120855889D01*
X170373234Y-120893320D01*
X170373296Y-120893352D01*
X170381017Y-120895650D01*
X170381021Y-120895653D01*
X170431743Y-120910752D01*
X170436607Y-120912311D01*
X170486673Y-120929500D01*
X170486675Y-120929500D01*
X170494280Y-120932111D01*
X170494369Y-120932124D01*
X170502408Y-120931791D01*
X170502410Y-120931792D01*
X170555213Y-120929608D01*
X170560421Y-120929500D01*
X172900544Y-120929500D01*
X172959099Y-120943932D01*
X173004238Y-120983921D01*
X173006502Y-120987201D01*
X173125471Y-121092599D01*
X173266207Y-121166463D01*
X173420529Y-121204500D01*
X173579469Y-121204500D01*
X173579471Y-121204500D01*
X173733793Y-121166463D01*
X173874529Y-121092599D01*
X173993498Y-120987201D01*
X174083787Y-120856395D01*
X174140149Y-120707782D01*
X174159307Y-120550000D01*
X174140149Y-120392218D01*
X174083787Y-120243605D01*
X173993498Y-120112799D01*
X173874529Y-120007401D01*
X173733793Y-119933537D01*
X173579471Y-119895500D01*
X173420529Y-119895500D01*
X173266207Y-119933537D01*
X173266206Y-119933537D01*
X173266204Y-119933538D01*
X173125472Y-120007400D01*
X173125470Y-120007401D01*
X173125471Y-120007401D01*
X173006502Y-120112799D01*
X173004238Y-120116078D01*
X172959099Y-120156068D01*
X172900544Y-120170500D01*
X170759384Y-120170500D01*
X170711166Y-120160909D01*
X170670289Y-120133595D01*
X170656167Y-120119473D01*
X170623393Y-120062376D01*
X170623890Y-119996543D01*
X170657522Y-119939947D01*
X170715108Y-119908039D01*
X170729466Y-119904500D01*
X170729471Y-119904500D01*
X170883793Y-119866463D01*
X171024529Y-119792599D01*
X171143498Y-119687201D01*
X171150583Y-119676937D01*
X171161223Y-119661523D01*
X171206363Y-119621532D01*
X171264918Y-119607100D01*
X175610299Y-119607100D01*
X175676629Y-119625973D01*
X175723089Y-119676937D01*
X175790110Y-119811533D01*
X175850514Y-119891520D01*
X175913468Y-119974885D01*
X176064738Y-120112786D01*
X176238773Y-120220544D01*
X176429644Y-120294488D01*
X176630853Y-120332100D01*
X176835545Y-120332100D01*
X176835547Y-120332100D01*
X177036756Y-120294488D01*
X177227627Y-120220544D01*
X177401662Y-120112786D01*
X177552932Y-119974885D01*
X177676288Y-119811535D01*
X177767528Y-119628301D01*
X177823545Y-119431421D01*
X177842432Y-119227600D01*
X177823545Y-119023779D01*
X177767528Y-118826899D01*
X177708025Y-118707401D01*
X177676289Y-118643666D01*
X177646086Y-118603671D01*
X177552932Y-118480315D01*
X177401662Y-118342414D01*
X177353287Y-118312461D01*
X177227628Y-118234656D01*
X177132191Y-118197683D01*
X177036756Y-118160712D01*
X176835547Y-118123100D01*
X176630853Y-118123100D01*
X176429644Y-118160711D01*
X176429644Y-118160712D01*
X176238771Y-118234656D01*
X176064739Y-118342413D01*
X175913467Y-118480316D01*
X175790110Y-118643666D01*
X175723089Y-118778263D01*
X175676629Y-118829227D01*
X175610299Y-118848100D01*
X171231130Y-118848100D01*
X171186450Y-118839912D01*
X171147576Y-118816412D01*
X171104515Y-118778263D01*
X171024529Y-118707401D01*
X170883793Y-118633537D01*
X170729471Y-118595500D01*
X170570529Y-118595500D01*
X170416207Y-118633537D01*
X170416206Y-118633537D01*
X170416204Y-118633538D01*
X170275472Y-118707400D01*
X170156501Y-118812799D01*
X170066212Y-118943605D01*
X170009850Y-119092218D01*
X169999797Y-119175020D01*
X169972716Y-119239028D01*
X169915818Y-119278940D01*
X169846413Y-119282612D01*
X169785621Y-119248927D01*
X169566405Y-119029711D01*
X169539091Y-118988834D01*
X169529500Y-118940616D01*
X169529500Y-116700000D01*
X169990693Y-116700000D01*
X170009850Y-116857780D01*
X170066212Y-117006394D01*
X170156319Y-117136937D01*
X170156502Y-117137201D01*
X170275471Y-117242599D01*
X170416207Y-117316463D01*
X170570529Y-117354500D01*
X170729469Y-117354500D01*
X170729471Y-117354500D01*
X170883793Y-117316463D01*
X171024529Y-117242599D01*
X171143498Y-117137201D01*
X171154319Y-117121523D01*
X171199460Y-117081533D01*
X171258015Y-117067100D01*
X175610299Y-117067100D01*
X175676629Y-117085973D01*
X175723089Y-117136937D01*
X175790110Y-117271533D01*
X175790112Y-117271535D01*
X175913468Y-117434885D01*
X176064738Y-117572786D01*
X176238773Y-117680544D01*
X176429644Y-117754488D01*
X176630853Y-117792100D01*
X176835545Y-117792100D01*
X176835547Y-117792100D01*
X177036756Y-117754488D01*
X177227627Y-117680544D01*
X177401662Y-117572786D01*
X177552932Y-117434885D01*
X177676288Y-117271535D01*
X177767528Y-117088301D01*
X177823545Y-116891421D01*
X177842432Y-116687600D01*
X177823545Y-116483779D01*
X177767528Y-116286899D01*
X177743310Y-116238263D01*
X177676289Y-116103666D01*
X177610436Y-116016463D01*
X177552932Y-115940315D01*
X177401662Y-115802414D01*
X177353287Y-115772461D01*
X177227628Y-115694656D01*
X177098655Y-115644692D01*
X177036756Y-115620712D01*
X176835547Y-115583100D01*
X176630853Y-115583100D01*
X176429644Y-115620711D01*
X176429644Y-115620712D01*
X176238771Y-115694656D01*
X176064739Y-115802413D01*
X175913467Y-115940316D01*
X175790110Y-116103666D01*
X175723089Y-116238263D01*
X175676629Y-116289227D01*
X175610299Y-116308100D01*
X171240897Y-116308100D01*
X171182344Y-116293669D01*
X171156708Y-116270958D01*
X171154949Y-116272944D01*
X171143498Y-116262799D01*
X171024529Y-116157401D01*
X170883793Y-116083537D01*
X170729471Y-116045500D01*
X170570529Y-116045500D01*
X170416207Y-116083537D01*
X170416206Y-116083537D01*
X170416204Y-116083538D01*
X170275472Y-116157400D01*
X170156501Y-116262799D01*
X170066212Y-116393605D01*
X170009850Y-116542219D01*
X169990693Y-116700000D01*
X169529500Y-116700000D01*
X169529500Y-112270384D01*
X169543233Y-112213181D01*
X169581439Y-112168448D01*
X169635789Y-112145935D01*
X169694436Y-112150551D01*
X169744595Y-112181289D01*
X172810587Y-115247281D01*
X172840599Y-115295273D01*
X172846574Y-115351561D01*
X172840693Y-115400001D01*
X172859850Y-115557780D01*
X172916212Y-115706394D01*
X172982489Y-115802413D01*
X173006502Y-115837201D01*
X173125471Y-115942599D01*
X173266207Y-116016463D01*
X173420529Y-116054500D01*
X173579469Y-116054500D01*
X173579471Y-116054500D01*
X173733793Y-116016463D01*
X173874529Y-115942599D01*
X173993498Y-115837201D01*
X174083787Y-115706395D01*
X174107188Y-115644691D01*
X174141447Y-115595060D01*
X174194846Y-115567033D01*
X174255154Y-115567033D01*
X174308553Y-115595060D01*
X174342812Y-115644692D01*
X174366212Y-115706394D01*
X174432489Y-115802413D01*
X174456502Y-115837201D01*
X174575471Y-115942599D01*
X174716207Y-116016463D01*
X174870529Y-116054500D01*
X175029469Y-116054500D01*
X175029471Y-116054500D01*
X175183793Y-116016463D01*
X175324529Y-115942599D01*
X175443498Y-115837201D01*
X175533787Y-115706395D01*
X175590149Y-115557782D01*
X175609307Y-115400000D01*
X175590149Y-115242218D01*
X175533787Y-115093605D01*
X175443498Y-114962799D01*
X175443497Y-114962798D01*
X175434807Y-114950208D01*
X175435222Y-114949921D01*
X175415601Y-114923254D01*
X175404500Y-114871542D01*
X175404500Y-113164906D01*
X175418852Y-113106505D01*
X175458639Y-113061407D01*
X175514796Y-113039888D01*
X175574531Y-113046850D01*
X175592622Y-113053597D01*
X175652172Y-113060000D01*
X176250000Y-113060000D01*
X176250000Y-112010000D01*
X176750000Y-112010000D01*
X176750000Y-113060000D01*
X177347828Y-113060000D01*
X177407375Y-113053597D01*
X177542088Y-113003353D01*
X177657189Y-112917189D01*
X177743353Y-112802088D01*
X177793597Y-112667375D01*
X177800000Y-112607828D01*
X177800000Y-112010000D01*
X176750000Y-112010000D01*
X176250000Y-112010000D01*
X176250000Y-110460000D01*
X176750000Y-110460000D01*
X176750000Y-111510000D01*
X177800000Y-111510000D01*
X177800000Y-110912172D01*
X177793597Y-110852624D01*
X177743353Y-110717911D01*
X177657189Y-110602810D01*
X177542088Y-110516646D01*
X177407375Y-110466402D01*
X177347828Y-110460000D01*
X176750000Y-110460000D01*
X176250000Y-110460000D01*
X175652172Y-110460000D01*
X175592622Y-110466402D01*
X175574531Y-110473150D01*
X175514796Y-110480112D01*
X175458639Y-110458593D01*
X175418852Y-110413495D01*
X175404500Y-110355094D01*
X175404500Y-104819494D01*
X175419378Y-104760098D01*
X175460498Y-104714729D01*
X175518150Y-104694101D01*
X175578718Y-104703085D01*
X175627900Y-104739561D01*
X175750747Y-104889252D01*
X175836955Y-104960000D01*
X175911317Y-105021027D01*
X176094508Y-105118945D01*
X176293282Y-105179242D01*
X176500000Y-105199602D01*
X176706718Y-105179242D01*
X176905492Y-105118945D01*
X177088683Y-105021027D01*
X177249252Y-104889252D01*
X177381027Y-104728683D01*
X177478945Y-104545492D01*
X177539242Y-104346718D01*
X177559602Y-104140000D01*
X177539242Y-103933282D01*
X177478945Y-103734508D01*
X177381027Y-103551317D01*
X177372100Y-103540439D01*
X177249252Y-103390747D01*
X177088682Y-103258972D01*
X176905494Y-103161056D01*
X176905493Y-103161055D01*
X176905492Y-103161055D01*
X176706718Y-103100758D01*
X176706715Y-103100757D01*
X176706713Y-103100757D01*
X176500000Y-103080397D01*
X176293286Y-103100757D01*
X176293283Y-103100757D01*
X176293282Y-103100758D01*
X176094508Y-103161055D01*
X176094505Y-103161056D01*
X175911317Y-103258972D01*
X175750747Y-103390747D01*
X175627900Y-103540439D01*
X175578718Y-103576915D01*
X175518150Y-103585899D01*
X175460498Y-103565271D01*
X175419378Y-103519902D01*
X175404500Y-103460506D01*
X175404500Y-101489494D01*
X175419378Y-101430098D01*
X175460498Y-101384729D01*
X175518150Y-101364101D01*
X175578718Y-101373085D01*
X175627900Y-101409561D01*
X175750747Y-101559252D01*
X175897073Y-101679337D01*
X175911317Y-101691027D01*
X176094508Y-101788945D01*
X176293282Y-101849242D01*
X176500000Y-101869602D01*
X176706718Y-101849242D01*
X176905492Y-101788945D01*
X177088683Y-101691027D01*
X177249252Y-101559252D01*
X177381027Y-101398683D01*
X177478945Y-101215492D01*
X177539242Y-101016718D01*
X177559602Y-100810000D01*
X177539242Y-100603282D01*
X177478945Y-100404508D01*
X177381027Y-100221317D01*
X177361961Y-100198085D01*
X177249252Y-100060747D01*
X177088682Y-99928972D01*
X176905494Y-99831056D01*
X176905493Y-99831055D01*
X176905492Y-99831055D01*
X176706718Y-99770758D01*
X176706715Y-99770757D01*
X176706713Y-99770757D01*
X176500000Y-99750397D01*
X176293286Y-99770757D01*
X176293283Y-99770757D01*
X176293282Y-99770758D01*
X176128499Y-99820744D01*
X176094505Y-99831056D01*
X175911317Y-99928972D01*
X175750747Y-100060747D01*
X175627900Y-100210439D01*
X175578718Y-100246915D01*
X175518150Y-100255899D01*
X175460498Y-100235271D01*
X175419378Y-100189902D01*
X175404500Y-100130506D01*
X175404500Y-93869494D01*
X175419378Y-93810098D01*
X175460498Y-93764729D01*
X175518150Y-93744101D01*
X175578718Y-93753085D01*
X175627900Y-93789561D01*
X175750747Y-93939252D01*
X175911316Y-94071026D01*
X175911317Y-94071027D01*
X176094508Y-94168945D01*
X176293282Y-94229242D01*
X176500000Y-94249602D01*
X176706718Y-94229242D01*
X176905492Y-94168945D01*
X177088683Y-94071027D01*
X177249252Y-93939252D01*
X177381027Y-93778683D01*
X177478945Y-93595492D01*
X177539242Y-93396718D01*
X177559602Y-93190000D01*
X177539242Y-92983282D01*
X177478945Y-92784508D01*
X177381027Y-92601317D01*
X177377246Y-92596710D01*
X177249252Y-92440747D01*
X177088682Y-92308972D01*
X176905494Y-92211056D01*
X176905493Y-92211055D01*
X176905492Y-92211055D01*
X176706718Y-92150758D01*
X176706715Y-92150757D01*
X176706713Y-92150757D01*
X176500000Y-92130397D01*
X176293286Y-92150757D01*
X176293283Y-92150757D01*
X176293282Y-92150758D01*
X176094508Y-92211055D01*
X176094505Y-92211056D01*
X175911317Y-92308972D01*
X175750747Y-92440747D01*
X175618972Y-92601317D01*
X175615627Y-92607576D01*
X175574310Y-92653075D01*
X175516384Y-92673617D01*
X175455632Y-92664313D01*
X175406508Y-92627377D01*
X175395475Y-92603530D01*
X175392717Y-92604988D01*
X175383841Y-92588194D01*
X175383841Y-92588193D01*
X175356892Y-92537203D01*
X175354786Y-92533031D01*
X175327087Y-92475514D01*
X175324188Y-92471428D01*
X175319820Y-92467060D01*
X175279049Y-92426289D01*
X175275807Y-92422924D01*
X175275661Y-92422766D01*
X175236577Y-92380644D01*
X175236574Y-92380642D01*
X175232379Y-92376121D01*
X175217338Y-92364578D01*
X173154434Y-90301673D01*
X173145018Y-90291137D01*
X173122631Y-90263064D01*
X173102179Y-90249120D01*
X173074983Y-90230577D01*
X173071143Y-90227852D01*
X173019812Y-90189969D01*
X173015317Y-90187700D01*
X172954341Y-90168892D01*
X172949863Y-90167419D01*
X172932156Y-90161223D01*
X172926301Y-90159174D01*
X172889639Y-90146345D01*
X172884663Y-90145500D01*
X172878505Y-90145500D01*
X172820868Y-90145500D01*
X172816157Y-90145412D01*
X172752371Y-90143025D01*
X172733574Y-90145500D01*
X171171758Y-90145500D01*
X171127078Y-90137312D01*
X171088204Y-90113812D01*
X171024530Y-90057401D01*
X170954161Y-90020469D01*
X170883793Y-89983537D01*
X170729471Y-89945500D01*
X170570529Y-89945500D01*
X170416207Y-89983537D01*
X170416206Y-89983537D01*
X170416204Y-89983538D01*
X170275472Y-90057400D01*
X170275470Y-90057401D01*
X170275471Y-90057401D01*
X170189051Y-90133962D01*
X170138601Y-90161223D01*
X170081292Y-90163302D01*
X170028998Y-90139766D01*
X169992550Y-90095491D01*
X169979500Y-90039649D01*
X169979500Y-89310351D01*
X169992550Y-89254509D01*
X170028998Y-89210234D01*
X170081292Y-89186698D01*
X170138601Y-89188777D01*
X170189051Y-89216037D01*
X170275471Y-89292599D01*
X170416207Y-89366463D01*
X170570529Y-89404500D01*
X170729469Y-89404500D01*
X170729471Y-89404500D01*
X170883793Y-89366463D01*
X171024529Y-89292599D01*
X171143498Y-89187201D01*
X171147417Y-89181522D01*
X171192559Y-89141532D01*
X171251113Y-89127100D01*
X175610299Y-89127100D01*
X175676629Y-89145973D01*
X175723089Y-89196937D01*
X175790110Y-89331533D01*
X175850514Y-89411520D01*
X175913468Y-89494885D01*
X176064738Y-89632786D01*
X176238773Y-89740544D01*
X176429644Y-89814488D01*
X176630853Y-89852100D01*
X176835545Y-89852100D01*
X176835547Y-89852100D01*
X177036756Y-89814488D01*
X177227627Y-89740544D01*
X177401662Y-89632786D01*
X177552932Y-89494885D01*
X177676288Y-89331535D01*
X177767528Y-89148301D01*
X177823545Y-88951421D01*
X177842432Y-88747600D01*
X177823545Y-88543779D01*
X177767528Y-88346899D01*
X177739079Y-88289766D01*
X177676289Y-88163666D01*
X177624812Y-88095500D01*
X177552932Y-88000315D01*
X177401662Y-87862414D01*
X177353287Y-87832461D01*
X177227628Y-87754656D01*
X177132191Y-87717684D01*
X177036756Y-87680712D01*
X176835547Y-87643100D01*
X176630853Y-87643100D01*
X176429643Y-87680712D01*
X176429644Y-87680712D01*
X176238771Y-87754656D01*
X176064739Y-87862413D01*
X175913467Y-88000316D01*
X175790110Y-88163666D01*
X175723089Y-88298263D01*
X175676629Y-88349227D01*
X175610299Y-88368100D01*
X171247800Y-88368100D01*
X171189247Y-88353669D01*
X171144107Y-88313680D01*
X171143500Y-88312801D01*
X171117499Y-88289766D01*
X171024529Y-88207401D01*
X170883793Y-88133537D01*
X170729471Y-88095500D01*
X170570529Y-88095500D01*
X170416207Y-88133537D01*
X170416206Y-88133537D01*
X170416204Y-88133538D01*
X170275472Y-88207400D01*
X170275470Y-88207401D01*
X170275471Y-88207401D01*
X170189051Y-88283962D01*
X170138601Y-88311223D01*
X170081292Y-88313302D01*
X170028998Y-88289766D01*
X169992550Y-88245491D01*
X169979500Y-88189649D01*
X169979500Y-86760351D01*
X169992550Y-86704509D01*
X170028998Y-86660234D01*
X170081292Y-86636698D01*
X170138601Y-86638777D01*
X170189051Y-86666037D01*
X170275471Y-86742599D01*
X170416207Y-86816463D01*
X170570529Y-86854500D01*
X170729469Y-86854500D01*
X170729471Y-86854500D01*
X170883793Y-86816463D01*
X171024529Y-86742599D01*
X171143498Y-86637201D01*
X171143498Y-86637200D01*
X171154949Y-86627056D01*
X171155782Y-86627997D01*
X171185655Y-86601533D01*
X171244210Y-86587100D01*
X175610299Y-86587100D01*
X175676629Y-86605973D01*
X175723089Y-86656937D01*
X175790110Y-86791533D01*
X175837661Y-86854500D01*
X175913468Y-86954885D01*
X176064738Y-87092786D01*
X176238773Y-87200544D01*
X176429644Y-87274488D01*
X176630853Y-87312100D01*
X176835545Y-87312100D01*
X176835547Y-87312100D01*
X177036756Y-87274488D01*
X177227627Y-87200544D01*
X177401662Y-87092786D01*
X177552932Y-86954885D01*
X177676288Y-86791535D01*
X177767528Y-86608301D01*
X177823545Y-86411421D01*
X177842432Y-86207600D01*
X177823545Y-86003779D01*
X177767528Y-85806899D01*
X177731209Y-85733961D01*
X177676289Y-85623666D01*
X177645985Y-85583537D01*
X177552932Y-85460315D01*
X177401662Y-85322414D01*
X177353287Y-85292461D01*
X177227628Y-85214656D01*
X177132191Y-85177683D01*
X177036756Y-85140712D01*
X176835547Y-85103100D01*
X176630853Y-85103100D01*
X176429644Y-85140711D01*
X176429644Y-85140712D01*
X176238771Y-85214656D01*
X176064739Y-85322413D01*
X175913467Y-85460316D01*
X175790110Y-85623666D01*
X175723089Y-85758263D01*
X175676629Y-85809227D01*
X175610299Y-85828100D01*
X171254702Y-85828100D01*
X171196147Y-85813668D01*
X171151007Y-85773678D01*
X171143498Y-85762799D01*
X171024529Y-85657401D01*
X170883793Y-85583537D01*
X170729471Y-85545500D01*
X170570529Y-85545500D01*
X170416207Y-85583537D01*
X170416206Y-85583537D01*
X170416204Y-85583538D01*
X170275472Y-85657400D01*
X170275470Y-85657401D01*
X170275471Y-85657401D01*
X170189051Y-85733962D01*
X170138601Y-85761223D01*
X170081292Y-85763302D01*
X170028998Y-85739766D01*
X169992550Y-85695491D01*
X169979500Y-85639649D01*
X169979500Y-81959384D01*
X169989091Y-81911166D01*
X170016405Y-81870289D01*
X170954861Y-80931833D01*
X171901280Y-79985413D01*
X171921457Y-79969028D01*
X171930582Y-79963068D01*
X171950198Y-79937863D01*
X171960542Y-79926152D01*
X171960581Y-79926114D01*
X171972810Y-79908983D01*
X171975875Y-79904872D01*
X172008375Y-79863119D01*
X172008375Y-79863116D01*
X172013325Y-79856758D01*
X172013351Y-79856708D01*
X172015651Y-79848981D01*
X172015653Y-79848979D01*
X172030750Y-79798265D01*
X172032305Y-79793409D01*
X172049500Y-79743327D01*
X172049500Y-79743322D01*
X172052111Y-79735717D01*
X172052124Y-79735630D01*
X172050887Y-79705722D01*
X172049608Y-79674786D01*
X172049500Y-79669579D01*
X172049500Y-79668360D01*
X172067426Y-79603583D01*
X172116104Y-79557238D01*
X172204067Y-79510220D01*
X172258683Y-79481027D01*
X172419252Y-79349252D01*
X172551027Y-79188683D01*
X172648945Y-79005492D01*
X172709242Y-78806718D01*
X172729602Y-78600000D01*
X172709242Y-78393282D01*
X172648945Y-78194508D01*
X172551027Y-78011317D01*
X172419252Y-77850747D01*
X172258682Y-77718972D01*
X172075494Y-77621056D01*
X172075493Y-77621055D01*
X172075492Y-77621055D01*
X172009622Y-77601073D01*
X171950389Y-77562331D01*
X171921388Y-77497764D01*
X171931774Y-77427749D01*
X171978269Y-77374381D01*
X172046200Y-77354500D01*
X173833800Y-77354500D01*
X173901731Y-77374381D01*
X173948226Y-77427749D01*
X173958612Y-77497764D01*
X173929611Y-77562331D01*
X173870377Y-77601073D01*
X173804508Y-77621055D01*
X173804505Y-77621056D01*
X173621317Y-77718972D01*
X173460747Y-77850747D01*
X173328972Y-78011317D01*
X173231056Y-78194505D01*
X173231055Y-78194507D01*
X173231055Y-78194508D01*
X173183888Y-78350000D01*
X173170757Y-78393286D01*
X173150397Y-78599999D01*
X173170757Y-78806713D01*
X173170757Y-78806715D01*
X173170758Y-78806718D01*
X173231055Y-79005492D01*
X173231056Y-79005494D01*
X173328972Y-79188682D01*
X173460747Y-79349252D01*
X173608821Y-79470772D01*
X173621317Y-79481027D01*
X173804508Y-79578945D01*
X174003282Y-79639242D01*
X174210000Y-79659602D01*
X174416718Y-79639242D01*
X174615492Y-79578945D01*
X174798683Y-79481027D01*
X174959252Y-79349252D01*
X175091027Y-79188683D01*
X175188945Y-79005492D01*
X175249242Y-78806718D01*
X175269602Y-78600000D01*
X175249242Y-78393282D01*
X175188945Y-78194508D01*
X175091027Y-78011317D01*
X174959252Y-77850747D01*
X174798682Y-77718972D01*
X174615494Y-77621056D01*
X174615493Y-77621055D01*
X174615492Y-77621055D01*
X174549622Y-77601073D01*
X174490389Y-77562331D01*
X174461388Y-77497764D01*
X174471774Y-77427749D01*
X174518269Y-77374381D01*
X174586200Y-77354500D01*
X176373800Y-77354500D01*
X176441731Y-77374381D01*
X176488226Y-77427749D01*
X176498612Y-77497764D01*
X176469611Y-77562331D01*
X176410377Y-77601073D01*
X176344508Y-77621055D01*
X176344505Y-77621056D01*
X176161317Y-77718972D01*
X176000747Y-77850747D01*
X175868972Y-78011317D01*
X175771056Y-78194505D01*
X175771055Y-78194507D01*
X175771055Y-78194508D01*
X175723888Y-78350000D01*
X175710757Y-78393286D01*
X175690397Y-78599999D01*
X175710757Y-78806713D01*
X175710757Y-78806715D01*
X175710758Y-78806718D01*
X175771055Y-79005492D01*
X175771056Y-79005494D01*
X175868972Y-79188682D01*
X176000747Y-79349252D01*
X176148821Y-79470772D01*
X176161317Y-79481027D01*
X176210610Y-79507375D01*
X176272542Y-79540478D01*
X176320579Y-79585765D01*
X176339122Y-79649126D01*
X176323081Y-79713166D01*
X176276859Y-79760305D01*
X176213146Y-79777600D01*
X175835372Y-79777600D01*
X175775824Y-79784002D01*
X175641111Y-79834246D01*
X175526010Y-79920410D01*
X175439846Y-80035511D01*
X175389602Y-80170224D01*
X175383200Y-80229772D01*
X175383200Y-80877600D01*
X176857200Y-80877600D01*
X176920200Y-80894481D01*
X176966319Y-80940600D01*
X176983200Y-81003600D01*
X176983200Y-81251600D01*
X176966319Y-81314600D01*
X176920200Y-81360719D01*
X176857200Y-81377600D01*
X175383200Y-81377600D01*
X175383200Y-82025428D01*
X175389602Y-82084975D01*
X175439846Y-82219688D01*
X175526010Y-82334789D01*
X175641111Y-82420953D01*
X175775824Y-82471197D01*
X175835372Y-82477600D01*
X176114185Y-82477600D01*
X176176512Y-82494095D01*
X176222520Y-82539260D01*
X176240163Y-82601271D01*
X176224823Y-82663892D01*
X176180516Y-82710727D01*
X176064739Y-82782413D01*
X175913467Y-82920316D01*
X175790110Y-83083666D01*
X175760435Y-83143263D01*
X175713975Y-83194227D01*
X175647645Y-83213100D01*
X173785186Y-83213100D01*
X173740506Y-83204912D01*
X173701632Y-83181412D01*
X173674530Y-83157401D01*
X173604161Y-83120469D01*
X173533793Y-83083537D01*
X173379471Y-83045500D01*
X173220529Y-83045500D01*
X173066207Y-83083537D01*
X173066206Y-83083537D01*
X173066204Y-83083538D01*
X172925472Y-83157400D01*
X172806501Y-83262799D01*
X172716212Y-83393605D01*
X172659850Y-83542219D01*
X172640693Y-83699999D01*
X172659850Y-83857780D01*
X172716212Y-84006394D01*
X172796078Y-84122100D01*
X172806502Y-84137201D01*
X172925471Y-84242599D01*
X173066207Y-84316463D01*
X173220529Y-84354500D01*
X173379469Y-84354500D01*
X173379471Y-84354500D01*
X173533793Y-84316463D01*
X173674529Y-84242599D01*
X173774775Y-84153787D01*
X173813649Y-84130288D01*
X173858329Y-84122100D01*
X175647645Y-84122100D01*
X175713975Y-84140973D01*
X175760435Y-84191937D01*
X175790110Y-84251533D01*
X175790112Y-84251535D01*
X175913468Y-84414885D01*
X176064738Y-84552786D01*
X176238773Y-84660544D01*
X176429644Y-84734488D01*
X176630853Y-84772100D01*
X176835545Y-84772100D01*
X176835547Y-84772100D01*
X177036756Y-84734488D01*
X177227627Y-84660544D01*
X177401662Y-84552786D01*
X177552932Y-84414885D01*
X177676288Y-84251535D01*
X177767528Y-84068301D01*
X177823545Y-83871421D01*
X177842432Y-83667600D01*
X177823545Y-83463779D01*
X177767528Y-83266899D01*
X177731342Y-83194227D01*
X177676289Y-83083666D01*
X177646086Y-83043672D01*
X177552932Y-82920315D01*
X177401662Y-82782414D01*
X177285884Y-82710727D01*
X177241577Y-82663892D01*
X177226237Y-82601271D01*
X177243880Y-82539260D01*
X177289888Y-82494095D01*
X177352215Y-82477600D01*
X177631028Y-82477600D01*
X177690575Y-82471197D01*
X177825288Y-82420953D01*
X177943990Y-82332093D01*
X178008269Y-82307463D01*
X178075899Y-82320288D01*
X178126697Y-82366743D01*
X178145500Y-82432961D01*
X178145500Y-123002239D01*
X178126697Y-123068457D01*
X178075899Y-123114912D01*
X178008269Y-123127737D01*
X177943990Y-123103107D01*
X177825288Y-123014246D01*
X177690575Y-122964002D01*
X177631028Y-122957600D01*
X177352215Y-122957600D01*
X177289888Y-122941105D01*
X177243880Y-122895940D01*
X177226237Y-122833929D01*
X177241577Y-122771308D01*
X177285884Y-122724473D01*
X177304510Y-122712939D01*
X177401662Y-122652786D01*
X177552932Y-122514885D01*
X177676288Y-122351535D01*
X177767528Y-122168301D01*
X177823545Y-121971421D01*
X177842432Y-121767600D01*
X177839324Y-121734065D01*
X177823545Y-121563780D01*
X177772330Y-121383777D01*
X177767528Y-121366899D01*
X177749353Y-121330399D01*
X177676289Y-121183666D01*
X177607518Y-121092599D01*
X177552932Y-121020315D01*
X177401662Y-120882414D01*
X177353287Y-120852461D01*
X177227628Y-120774656D01*
X177132191Y-120737684D01*
X177036756Y-120700712D01*
X176835547Y-120663100D01*
X176630853Y-120663100D01*
X176429643Y-120700712D01*
X176429644Y-120700712D01*
X176238771Y-120774656D01*
X176064739Y-120882413D01*
X175913467Y-121020316D01*
X175790110Y-121183666D01*
X175760435Y-121243263D01*
X175713975Y-121294227D01*
X175647645Y-121313100D01*
X175471758Y-121313100D01*
X175427078Y-121304912D01*
X175388204Y-121281412D01*
X175324530Y-121225001D01*
X175212990Y-121166461D01*
X175183793Y-121151137D01*
X175029471Y-121113100D01*
X174870529Y-121113100D01*
X174716207Y-121151137D01*
X174716206Y-121151137D01*
X174716204Y-121151138D01*
X174575472Y-121225000D01*
X174456501Y-121330399D01*
X174366212Y-121461205D01*
X174309850Y-121609819D01*
X174290693Y-121767599D01*
X174309850Y-121925380D01*
X174366212Y-122073994D01*
X174431308Y-122168302D01*
X174456502Y-122204801D01*
X174575471Y-122310199D01*
X174716207Y-122384063D01*
X174870529Y-122422100D01*
X175029469Y-122422100D01*
X175029471Y-122422100D01*
X175183793Y-122384063D01*
X175324529Y-122310199D01*
X175388203Y-122253788D01*
X175427078Y-122230288D01*
X175471758Y-122222100D01*
X175647645Y-122222100D01*
X175713975Y-122240973D01*
X175760435Y-122291937D01*
X175790110Y-122351533D01*
X175790112Y-122351535D01*
X175913468Y-122514885D01*
X176064738Y-122652786D01*
X176148425Y-122704603D01*
X176180516Y-122724473D01*
X176224823Y-122771308D01*
X176240163Y-122833929D01*
X176222520Y-122895940D01*
X176176512Y-122941105D01*
X176114185Y-122957600D01*
X175835372Y-122957600D01*
X175775824Y-122964002D01*
X175641111Y-123014246D01*
X175526010Y-123100410D01*
X175439846Y-123215511D01*
X175389602Y-123350224D01*
X175383200Y-123409772D01*
X175383200Y-124057600D01*
X176857200Y-124057600D01*
X176920200Y-124074481D01*
X176966319Y-124120600D01*
X176983200Y-124183600D01*
X176983200Y-124431600D01*
X176966319Y-124494600D01*
X176920200Y-124540719D01*
X176857200Y-124557600D01*
X175383200Y-124557600D01*
X175383200Y-125205428D01*
X175389602Y-125264975D01*
X175439846Y-125399688D01*
X175526010Y-125514789D01*
X175641111Y-125600953D01*
X175775824Y-125651197D01*
X175835372Y-125657600D01*
X176259543Y-125657600D01*
X176323256Y-125674895D01*
X176369477Y-125722034D01*
X176385519Y-125786074D01*
X176366976Y-125849435D01*
X176318939Y-125894722D01*
X176161317Y-125978972D01*
X176000747Y-126110747D01*
X175868972Y-126271317D01*
X175771056Y-126454505D01*
X175771055Y-126454507D01*
X175771055Y-126454508D01*
X175721207Y-126618838D01*
X175710757Y-126653286D01*
X175690397Y-126859999D01*
X175710757Y-127066713D01*
X175710757Y-127066715D01*
X175710758Y-127066718D01*
X175771055Y-127265492D01*
X175771056Y-127265494D01*
X175868972Y-127448682D01*
X176000747Y-127609252D01*
X176147549Y-127729728D01*
X176161317Y-127741027D01*
X176344508Y-127838945D01*
X176542240Y-127898926D01*
X176601474Y-127937669D01*
X176630475Y-128002236D01*
X176620089Y-128072251D01*
X176573594Y-128125619D01*
X176505663Y-128145500D01*
X174454337Y-128145500D01*
X174386406Y-128125619D01*
X174339911Y-128072251D01*
X174329525Y-128002236D01*
X174358526Y-127937669D01*
X174417759Y-127898926D01*
X174615492Y-127838945D01*
X174798683Y-127741027D01*
X174959252Y-127609252D01*
X175091027Y-127448683D01*
X175188945Y-127265492D01*
X175249242Y-127066718D01*
X175269602Y-126860000D01*
X175249242Y-126653282D01*
X175188945Y-126454508D01*
X175091027Y-126271317D01*
X175050068Y-126221408D01*
X174959252Y-126110747D01*
X174798682Y-125978972D01*
X174615494Y-125881056D01*
X174615493Y-125881055D01*
X174615492Y-125881055D01*
X174416718Y-125820758D01*
X174416715Y-125820757D01*
X174416713Y-125820757D01*
X174210000Y-125800397D01*
X174003286Y-125820757D01*
X174003283Y-125820757D01*
X174003282Y-125820758D01*
X173827040Y-125874220D01*
X173804505Y-125881056D01*
X173621317Y-125978972D01*
X173460747Y-126110747D01*
X173328972Y-126271317D01*
X173231056Y-126454505D01*
X173231055Y-126454507D01*
X173231055Y-126454508D01*
X173181207Y-126618838D01*
X173170757Y-126653286D01*
X173150397Y-126859999D01*
X173170757Y-127066713D01*
X173170757Y-127066715D01*
X173170758Y-127066718D01*
X173231055Y-127265492D01*
X173231056Y-127265494D01*
X173328972Y-127448682D01*
X173460747Y-127609252D01*
X173607549Y-127729728D01*
X173621317Y-127741027D01*
X173804508Y-127838945D01*
X174002240Y-127898926D01*
X174061474Y-127937669D01*
X174090475Y-128002236D01*
X174080089Y-128072251D01*
X174033594Y-128125619D01*
X173965663Y-128145500D01*
X171914337Y-128145500D01*
X171846406Y-128125619D01*
X171799911Y-128072251D01*
X171789525Y-128002236D01*
X171818526Y-127937669D01*
X171877759Y-127898926D01*
X172075492Y-127838945D01*
X172258683Y-127741027D01*
X172419252Y-127609252D01*
X172551027Y-127448683D01*
X172648945Y-127265492D01*
X172709242Y-127066718D01*
X172729602Y-126860000D01*
X172709242Y-126653282D01*
X172648945Y-126454508D01*
X172551027Y-126271317D01*
X172510068Y-126221408D01*
X172419252Y-126110747D01*
X172258682Y-125978972D01*
X172075494Y-125881056D01*
X172075493Y-125881055D01*
X172075492Y-125881055D01*
X171876718Y-125820758D01*
X171876715Y-125820757D01*
X171876713Y-125820757D01*
X171670000Y-125800397D01*
X171463286Y-125820757D01*
X171463283Y-125820757D01*
X171463282Y-125820758D01*
X171287040Y-125874220D01*
X171264505Y-125881056D01*
X171081317Y-125978972D01*
X170920747Y-126110747D01*
X170788972Y-126271317D01*
X170691056Y-126454505D01*
X170691055Y-126454507D01*
X170691055Y-126454508D01*
X170641207Y-126618838D01*
X170630757Y-126653286D01*
X170610397Y-126859999D01*
X170630757Y-127066713D01*
X170630757Y-127066715D01*
X170630758Y-127066718D01*
X170691055Y-127265492D01*
X170691056Y-127265494D01*
X170788972Y-127448682D01*
X170920747Y-127609252D01*
X171067549Y-127729728D01*
X171081317Y-127741027D01*
X171264508Y-127838945D01*
X171462240Y-127898926D01*
X171521474Y-127937669D01*
X171550475Y-128002236D01*
X171540089Y-128072251D01*
X171493594Y-128125619D01*
X171425663Y-128145500D01*
X169374337Y-128145500D01*
X169306406Y-128125619D01*
X169259911Y-128072251D01*
X169249525Y-128002236D01*
X169278526Y-127937669D01*
X169337759Y-127898926D01*
X169535492Y-127838945D01*
X169718683Y-127741027D01*
X169879252Y-127609252D01*
X170011027Y-127448683D01*
X170108945Y-127265492D01*
X170169242Y-127066718D01*
X170189602Y-126860000D01*
X170169242Y-126653282D01*
X170108945Y-126454508D01*
X170011027Y-126271317D01*
X169970068Y-126221408D01*
X169879252Y-126110747D01*
X169718682Y-125978972D01*
X169535494Y-125881056D01*
X169535493Y-125881055D01*
X169535492Y-125881055D01*
X169336718Y-125820758D01*
X169336715Y-125820757D01*
X169336713Y-125820757D01*
X169130000Y-125800397D01*
X168923286Y-125820757D01*
X168923283Y-125820757D01*
X168923282Y-125820758D01*
X168747040Y-125874220D01*
X168724505Y-125881056D01*
X168541317Y-125978972D01*
X168380747Y-126110747D01*
X168248972Y-126271317D01*
X168151056Y-126454505D01*
X168151055Y-126454507D01*
X168151055Y-126454508D01*
X168101207Y-126618838D01*
X168090757Y-126653286D01*
X168070397Y-126859999D01*
X168090757Y-127066713D01*
X168090757Y-127066715D01*
X168090758Y-127066718D01*
X168151055Y-127265492D01*
X168151056Y-127265494D01*
X168248972Y-127448682D01*
X168380747Y-127609252D01*
X168527549Y-127729728D01*
X168541317Y-127741027D01*
X168724508Y-127838945D01*
X168922240Y-127898926D01*
X168981474Y-127937669D01*
X169010475Y-128002236D01*
X169000089Y-128072251D01*
X168953594Y-128125619D01*
X168885663Y-128145500D01*
X166834337Y-128145500D01*
X166766406Y-128125619D01*
X166719911Y-128072251D01*
X166709525Y-128002236D01*
X166738526Y-127937669D01*
X166797759Y-127898926D01*
X166995492Y-127838945D01*
X167178683Y-127741027D01*
X167339252Y-127609252D01*
X167471027Y-127448683D01*
X167568945Y-127265492D01*
X167629242Y-127066718D01*
X167649602Y-126860000D01*
X167629242Y-126653282D01*
X167568945Y-126454508D01*
X167471027Y-126271317D01*
X167430068Y-126221408D01*
X167339252Y-126110747D01*
X167178682Y-125978972D01*
X166995494Y-125881056D01*
X166995493Y-125881055D01*
X166995492Y-125881055D01*
X166796718Y-125820758D01*
X166796715Y-125820757D01*
X166796713Y-125820757D01*
X166590000Y-125800397D01*
X166383286Y-125820757D01*
X166383283Y-125820757D01*
X166383282Y-125820758D01*
X166207040Y-125874220D01*
X166184505Y-125881056D01*
X166001317Y-125978972D01*
X165840747Y-126110747D01*
X165708972Y-126271317D01*
X165611056Y-126454505D01*
X165611055Y-126454507D01*
X165611055Y-126454508D01*
X165561207Y-126618838D01*
X165550757Y-126653286D01*
X165530397Y-126859999D01*
X165550757Y-127066713D01*
X165550757Y-127066715D01*
X165550758Y-127066718D01*
X165611055Y-127265492D01*
X165611056Y-127265494D01*
X165708972Y-127448682D01*
X165840747Y-127609252D01*
X165987549Y-127729728D01*
X166001317Y-127741027D01*
X166184508Y-127838945D01*
X166382240Y-127898926D01*
X166441474Y-127937669D01*
X166470475Y-128002236D01*
X166460089Y-128072251D01*
X166413594Y-128125619D01*
X166345663Y-128145500D01*
X164294337Y-128145500D01*
X164226406Y-128125619D01*
X164179911Y-128072251D01*
X164169525Y-128002236D01*
X164198526Y-127937669D01*
X164257759Y-127898926D01*
X164455492Y-127838945D01*
X164638683Y-127741027D01*
X164799252Y-127609252D01*
X164931027Y-127448683D01*
X165028945Y-127265492D01*
X165089242Y-127066718D01*
X165109602Y-126860000D01*
X165089242Y-126653282D01*
X165028945Y-126454508D01*
X164931027Y-126271317D01*
X164890068Y-126221408D01*
X164799252Y-126110747D01*
X164638682Y-125978972D01*
X164455494Y-125881056D01*
X164455493Y-125881055D01*
X164455492Y-125881055D01*
X164256718Y-125820758D01*
X164256715Y-125820757D01*
X164256713Y-125820757D01*
X164050000Y-125800397D01*
X163843286Y-125820757D01*
X163843283Y-125820757D01*
X163843282Y-125820758D01*
X163667040Y-125874220D01*
X163644505Y-125881056D01*
X163461317Y-125978972D01*
X163300747Y-126110747D01*
X163168972Y-126271317D01*
X163071056Y-126454505D01*
X163071055Y-126454507D01*
X163071055Y-126454508D01*
X163021207Y-126618838D01*
X163010757Y-126653286D01*
X162990397Y-126859999D01*
X163010757Y-127066713D01*
X163010757Y-127066715D01*
X163010758Y-127066718D01*
X163071055Y-127265492D01*
X163071056Y-127265494D01*
X163168972Y-127448682D01*
X163300747Y-127609252D01*
X163447549Y-127729728D01*
X163461317Y-127741027D01*
X163644508Y-127838945D01*
X163842240Y-127898926D01*
X163901474Y-127937669D01*
X163930475Y-128002236D01*
X163920089Y-128072251D01*
X163873594Y-128125619D01*
X163805663Y-128145500D01*
X159214337Y-128145500D01*
X159146406Y-128125619D01*
X159099911Y-128072251D01*
X159089525Y-128002236D01*
X159118526Y-127937669D01*
X159177759Y-127898926D01*
X159375492Y-127838945D01*
X159558683Y-127741027D01*
X159719252Y-127609252D01*
X159851027Y-127448683D01*
X159948945Y-127265492D01*
X160009242Y-127066718D01*
X160029602Y-126860000D01*
X160009242Y-126653282D01*
X159948945Y-126454508D01*
X159851027Y-126271317D01*
X159810068Y-126221408D01*
X159719252Y-126110747D01*
X159558682Y-125978972D01*
X159409829Y-125899408D01*
X159365372Y-125859634D01*
X159344193Y-125803873D01*
X159338752Y-125760217D01*
X159338751Y-125760215D01*
X159337756Y-125752230D01*
X159337730Y-125752150D01*
X159308734Y-125698568D01*
X159306351Y-125693939D01*
X159279592Y-125639203D01*
X159279545Y-125639140D01*
X159273619Y-125633685D01*
X159273619Y-125633684D01*
X159234713Y-125597868D01*
X159230957Y-125594263D01*
X157936694Y-124300000D01*
X165440693Y-124300000D01*
X165459850Y-124457780D01*
X165516212Y-124606394D01*
X165601858Y-124730474D01*
X165606502Y-124737201D01*
X165725471Y-124842599D01*
X165866207Y-124916463D01*
X166020529Y-124954500D01*
X166179469Y-124954500D01*
X166179471Y-124954500D01*
X166333793Y-124916463D01*
X166474529Y-124842599D01*
X166593498Y-124737201D01*
X166683787Y-124606395D01*
X166740149Y-124457782D01*
X166759307Y-124300000D01*
X166740149Y-124142218D01*
X166683787Y-123993605D01*
X166593498Y-123862799D01*
X166521946Y-123799409D01*
X166490600Y-123756809D01*
X166479500Y-123705097D01*
X166479500Y-114094903D01*
X166490600Y-114043191D01*
X166521946Y-114000591D01*
X166527997Y-113995229D01*
X166593498Y-113937201D01*
X166683787Y-113806395D01*
X166740149Y-113657782D01*
X166759307Y-113500000D01*
X166740149Y-113342218D01*
X166683787Y-113193605D01*
X166593498Y-113062799D01*
X166474529Y-112957401D01*
X166333793Y-112883537D01*
X166179471Y-112845500D01*
X166020529Y-112845500D01*
X165866207Y-112883537D01*
X165866206Y-112883537D01*
X165866204Y-112883538D01*
X165725472Y-112957400D01*
X165606501Y-113062799D01*
X165516212Y-113193605D01*
X165459850Y-113342219D01*
X165440693Y-113499999D01*
X165440693Y-113500000D01*
X165443340Y-113521804D01*
X165459850Y-113657780D01*
X165516212Y-113806394D01*
X165606501Y-113937200D01*
X165678054Y-114000591D01*
X165709400Y-114043191D01*
X165720500Y-114094903D01*
X165720500Y-123705097D01*
X165709400Y-123756809D01*
X165678054Y-123799409D01*
X165606501Y-123862799D01*
X165516212Y-123993605D01*
X165459850Y-124142219D01*
X165440693Y-124300000D01*
X157936694Y-124300000D01*
X157655418Y-124018724D01*
X157639030Y-123998544D01*
X157633067Y-123989417D01*
X157607855Y-123969793D01*
X157596153Y-123959458D01*
X157596117Y-123959422D01*
X157579032Y-123947223D01*
X157574863Y-123944114D01*
X157549981Y-123924749D01*
X157533119Y-123911625D01*
X157533117Y-123911624D01*
X157526767Y-123906682D01*
X157526692Y-123906643D01*
X157468311Y-123889262D01*
X157463353Y-123887673D01*
X157405722Y-123867888D01*
X157405630Y-123867875D01*
X157344786Y-123870392D01*
X157339579Y-123870500D01*
X153753414Y-123870500D01*
X153697686Y-123857506D01*
X153653452Y-123821204D01*
X153629835Y-123769082D01*
X153631707Y-123711889D01*
X153633777Y-123704164D01*
X153650658Y-123641164D01*
X153659500Y-123574000D01*
X153659500Y-121535500D01*
X153676381Y-121472500D01*
X153722500Y-121426381D01*
X153785500Y-121409500D01*
X155724000Y-121409500D01*
X155791164Y-121400658D01*
X155854164Y-121383777D01*
X155916750Y-121357852D01*
X155970494Y-121316613D01*
X156016613Y-121270494D01*
X156057852Y-121216750D01*
X156083777Y-121154164D01*
X156100658Y-121091164D01*
X156109500Y-121024000D01*
X156109500Y-115126000D01*
X156100658Y-115058836D01*
X156083777Y-114995836D01*
X156057852Y-114933250D01*
X156016613Y-114879506D01*
X156016610Y-114879502D01*
X155970497Y-114833389D01*
X155916750Y-114792148D01*
X155854165Y-114766223D01*
X155791161Y-114749341D01*
X155724000Y-114740500D01*
X149176000Y-114740500D01*
X149108838Y-114749341D01*
X149045834Y-114766223D01*
X148983249Y-114792148D01*
X148929502Y-114833389D01*
X148883389Y-114879502D01*
X148842148Y-114933249D01*
X148816223Y-114995834D01*
X148799341Y-115058838D01*
X148790500Y-115126000D01*
X148790500Y-121024000D01*
X148799341Y-121091161D01*
X148816223Y-121154165D01*
X148842148Y-121216750D01*
X148883389Y-121270497D01*
X148929502Y-121316610D01*
X148929506Y-121316613D01*
X148983250Y-121357852D01*
X149045836Y-121383777D01*
X149108836Y-121400658D01*
X149176000Y-121409500D01*
X151114500Y-121409500D01*
X151177500Y-121426381D01*
X151223619Y-121472500D01*
X151240500Y-121535500D01*
X151240500Y-123574000D01*
X151249341Y-123641161D01*
X151268293Y-123711889D01*
X151270165Y-123769082D01*
X151246548Y-123821204D01*
X151202314Y-123857506D01*
X151146586Y-123870500D01*
X141965780Y-123870500D01*
X141917562Y-123860909D01*
X141876685Y-123833595D01*
X140116405Y-122073315D01*
X140089091Y-122032438D01*
X140079500Y-121984220D01*
X140079500Y-115394903D01*
X140090600Y-115343191D01*
X140121946Y-115300591D01*
X140133153Y-115290662D01*
X140193498Y-115237201D01*
X140283787Y-115106395D01*
X140340149Y-114957782D01*
X140359307Y-114800000D01*
X140340149Y-114642218D01*
X140283787Y-114493605D01*
X140278362Y-114479300D01*
X140281379Y-114478155D01*
X140267560Y-114438110D01*
X140281762Y-114371946D01*
X140328145Y-114322672D01*
X140393330Y-114304500D01*
X152672574Y-114304500D01*
X152698431Y-114307181D01*
X152709100Y-114309419D01*
X152740796Y-114305468D01*
X152756382Y-114304500D01*
X152756440Y-114304500D01*
X152756443Y-114304500D01*
X152777194Y-114301036D01*
X152782243Y-114300300D01*
X152834783Y-114293752D01*
X152834788Y-114293749D01*
X152842782Y-114292753D01*
X152842842Y-114292734D01*
X152849926Y-114288900D01*
X152849927Y-114288900D01*
X152896411Y-114263742D01*
X152901043Y-114261359D01*
X152955807Y-114234587D01*
X152955854Y-114234552D01*
X152997130Y-114189714D01*
X153000713Y-114185979D01*
X161381276Y-105805416D01*
X161401457Y-105789029D01*
X161410582Y-105783068D01*
X161430201Y-105757859D01*
X161440546Y-105746147D01*
X161440580Y-105746114D01*
X161452774Y-105729033D01*
X161455880Y-105724867D01*
X161488375Y-105683119D01*
X161488375Y-105683117D01*
X161493319Y-105676766D01*
X161493355Y-105676695D01*
X161495651Y-105668982D01*
X161495653Y-105668980D01*
X161510743Y-105618289D01*
X161512326Y-105613351D01*
X161529500Y-105563327D01*
X161529500Y-105563325D01*
X161532111Y-105555720D01*
X161532124Y-105555631D01*
X161529608Y-105494787D01*
X161529500Y-105489580D01*
X161529500Y-97835692D01*
X161542709Y-97779529D01*
X161579568Y-97735142D01*
X161632348Y-97711837D01*
X161689982Y-97714502D01*
X161740385Y-97742576D01*
X161786147Y-97784294D01*
X161971999Y-97899368D01*
X162040018Y-97925718D01*
X162082212Y-97952752D01*
X162110534Y-97994096D01*
X162120500Y-98043209D01*
X162120500Y-106936791D01*
X162110534Y-106985904D01*
X162082212Y-107027248D01*
X162040018Y-107054281D01*
X161971999Y-107080631D01*
X161971999Y-107080632D01*
X161786146Y-107195706D01*
X161624604Y-107342973D01*
X161492871Y-107517414D01*
X161395437Y-107713087D01*
X161335617Y-107923334D01*
X161335616Y-107923339D01*
X161320500Y-108086469D01*
X161320500Y-109393531D01*
X161335616Y-109556661D01*
X161335616Y-109556664D01*
X161335617Y-109556665D01*
X161395437Y-109766912D01*
X161492871Y-109962585D01*
X161529746Y-110011415D01*
X161624605Y-110137028D01*
X161786147Y-110284294D01*
X161971999Y-110399368D01*
X162175832Y-110478333D01*
X162390703Y-110518500D01*
X162609294Y-110518500D01*
X162609297Y-110518500D01*
X162824168Y-110478333D01*
X163028001Y-110399368D01*
X163213853Y-110284294D01*
X163375395Y-110137028D01*
X163507127Y-109962587D01*
X163604563Y-109766910D01*
X163664384Y-109556661D01*
X163679500Y-109393531D01*
X163679500Y-108990000D01*
X166075000Y-108990000D01*
X166075000Y-109857332D01*
X166085210Y-109972182D01*
X166139060Y-110160378D01*
X166229694Y-110333886D01*
X166353400Y-110485599D01*
X166505113Y-110609305D01*
X166678621Y-110699939D01*
X166866817Y-110753789D01*
X166981668Y-110764000D01*
X167250000Y-110764000D01*
X167250000Y-108990000D01*
X166075000Y-108990000D01*
X163679500Y-108990000D01*
X163679500Y-108490000D01*
X166075000Y-108490000D01*
X167250000Y-108490000D01*
X167250000Y-106716000D01*
X166981668Y-106716000D01*
X166866817Y-106726210D01*
X166678621Y-106780060D01*
X166505113Y-106870694D01*
X166353400Y-106994400D01*
X166229694Y-107146113D01*
X166139060Y-107319621D01*
X166085210Y-107507817D01*
X166075000Y-107622668D01*
X166075000Y-108490000D01*
X163679500Y-108490000D01*
X163679500Y-108086469D01*
X163664384Y-107923339D01*
X163604563Y-107713090D01*
X163551628Y-107606782D01*
X163507128Y-107517414D01*
X163420037Y-107402088D01*
X163375395Y-107342972D01*
X163213853Y-107195706D01*
X163028001Y-107080632D01*
X162959981Y-107054281D01*
X162917788Y-107027248D01*
X162889466Y-106985904D01*
X162879500Y-106936791D01*
X162879500Y-98043209D01*
X162889466Y-97994096D01*
X162917788Y-97952752D01*
X162959981Y-97925718D01*
X163028001Y-97899368D01*
X163213853Y-97784294D01*
X163375395Y-97637028D01*
X163507127Y-97462587D01*
X163604563Y-97266910D01*
X163664384Y-97056661D01*
X163679500Y-96893531D01*
X163679500Y-96490000D01*
X166075000Y-96490000D01*
X166075000Y-97357332D01*
X166085210Y-97472182D01*
X166139060Y-97660378D01*
X166229694Y-97833886D01*
X166353400Y-97985599D01*
X166505113Y-98109305D01*
X166678621Y-98199939D01*
X166866817Y-98253789D01*
X166981668Y-98264000D01*
X167250000Y-98264000D01*
X167250000Y-96490000D01*
X166075000Y-96490000D01*
X163679500Y-96490000D01*
X163679500Y-95990000D01*
X166075000Y-95990000D01*
X167250000Y-95990000D01*
X167250000Y-94216000D01*
X166981668Y-94216000D01*
X166866817Y-94226210D01*
X166678621Y-94280060D01*
X166505113Y-94370694D01*
X166353400Y-94494400D01*
X166229694Y-94646113D01*
X166139060Y-94819621D01*
X166085210Y-95007817D01*
X166075000Y-95122668D01*
X166075000Y-95990000D01*
X163679500Y-95990000D01*
X163679500Y-95586469D01*
X163664384Y-95423339D01*
X163604563Y-95213090D01*
X163604562Y-95213087D01*
X163507128Y-95017414D01*
X163414233Y-94894402D01*
X163375395Y-94842972D01*
X163213853Y-94695706D01*
X163028001Y-94580632D01*
X162824168Y-94501667D01*
X162609297Y-94461500D01*
X162390703Y-94461500D01*
X162238244Y-94490000D01*
X162175831Y-94501667D01*
X161971999Y-94580632D01*
X161786146Y-94695706D01*
X161740386Y-94737423D01*
X161689982Y-94765498D01*
X161632348Y-94768163D01*
X161579568Y-94744858D01*
X161542709Y-94700471D01*
X161529500Y-94644308D01*
X161529500Y-82759384D01*
X161539091Y-82711166D01*
X161566405Y-82670289D01*
X162243133Y-81993561D01*
X164281276Y-79955416D01*
X164301457Y-79939029D01*
X164310582Y-79933068D01*
X164330201Y-79907859D01*
X164340546Y-79896147D01*
X164340580Y-79896114D01*
X164352774Y-79879033D01*
X164355880Y-79874867D01*
X164388375Y-79833119D01*
X164388375Y-79833116D01*
X164393321Y-79826763D01*
X164393355Y-79826698D01*
X164395653Y-79818980D01*
X164410746Y-79768276D01*
X164412312Y-79763388D01*
X164429500Y-79713327D01*
X164429500Y-79713324D01*
X164432110Y-79705722D01*
X164432123Y-79705635D01*
X164431790Y-79697593D01*
X164431791Y-79697591D01*
X164430771Y-79672942D01*
X164447273Y-79605208D01*
X164497265Y-79556616D01*
X164638683Y-79481027D01*
X164799252Y-79349252D01*
X164931027Y-79188683D01*
X165028945Y-79005492D01*
X165089242Y-78806718D01*
X165109602Y-78600000D01*
X165089242Y-78393282D01*
X165028945Y-78194508D01*
X164931027Y-78011317D01*
X164799252Y-77850747D01*
X164638682Y-77718972D01*
X164455494Y-77621056D01*
X164455493Y-77621055D01*
X164455492Y-77621055D01*
X164389622Y-77601073D01*
X164330389Y-77562331D01*
X164301388Y-77497764D01*
X164311774Y-77427749D01*
X164358269Y-77374381D01*
X164426200Y-77354500D01*
X166213800Y-77354500D01*
X166281731Y-77374381D01*
G37*
%TD.AperFunction*%
%TA.AperFunction,Conductor*%
G36*
X157188834Y-124639091D02*
G01*
X157229711Y-124666405D01*
X158371422Y-125808116D01*
X158405035Y-125868599D01*
X158401640Y-125937712D01*
X158362261Y-125994610D01*
X158220748Y-126110746D01*
X158088972Y-126271317D01*
X157991056Y-126454505D01*
X157991055Y-126454507D01*
X157991055Y-126454508D01*
X157976573Y-126502247D01*
X157937831Y-126561480D01*
X157873264Y-126590481D01*
X157803249Y-126580095D01*
X157749881Y-126533600D01*
X157730000Y-126465669D01*
X157730000Y-126012172D01*
X157723597Y-125952624D01*
X157673353Y-125817911D01*
X157587189Y-125702810D01*
X157472088Y-125616646D01*
X157337375Y-125566402D01*
X157277828Y-125560000D01*
X156680000Y-125560000D01*
X156680000Y-126984000D01*
X156663119Y-127047000D01*
X156617000Y-127093119D01*
X156554000Y-127110000D01*
X153766000Y-127110000D01*
X153703000Y-127093119D01*
X153656881Y-127047000D01*
X153640000Y-126984000D01*
X153640000Y-125560000D01*
X154140000Y-125560000D01*
X154140000Y-126610000D01*
X156180000Y-126610000D01*
X156180000Y-125560000D01*
X155582172Y-125560000D01*
X155522624Y-125566402D01*
X155387911Y-125616646D01*
X155272808Y-125702812D01*
X155260867Y-125718764D01*
X155216399Y-125755927D01*
X155160000Y-125769254D01*
X155103601Y-125755927D01*
X155059133Y-125718764D01*
X155047191Y-125702812D01*
X154932088Y-125616646D01*
X154797375Y-125566402D01*
X154737828Y-125560000D01*
X154140000Y-125560000D01*
X153640000Y-125560000D01*
X153042172Y-125560000D01*
X152982624Y-125566402D01*
X152847911Y-125616646D01*
X152732810Y-125702810D01*
X152646646Y-125817911D01*
X152596402Y-125952624D01*
X152590000Y-126012172D01*
X152590000Y-126465669D01*
X152570119Y-126533600D01*
X152516751Y-126580095D01*
X152446736Y-126590481D01*
X152382169Y-126561480D01*
X152343426Y-126502247D01*
X152328945Y-126454508D01*
X152231027Y-126271317D01*
X152190068Y-126221408D01*
X152099252Y-126110747D01*
X151938682Y-125978972D01*
X151755494Y-125881056D01*
X151755493Y-125881055D01*
X151755492Y-125881055D01*
X151556718Y-125820758D01*
X151556715Y-125820757D01*
X151556713Y-125820757D01*
X151350000Y-125800397D01*
X151143286Y-125820757D01*
X151143283Y-125820757D01*
X151143282Y-125820758D01*
X150967040Y-125874220D01*
X150944505Y-125881056D01*
X150761317Y-125978972D01*
X150600747Y-126110747D01*
X150468972Y-126271317D01*
X150371056Y-126454505D01*
X150371055Y-126454507D01*
X150371055Y-126454508D01*
X150321207Y-126618838D01*
X150310757Y-126653286D01*
X150290397Y-126859999D01*
X150310757Y-127066713D01*
X150310757Y-127066715D01*
X150310758Y-127066718D01*
X150371055Y-127265492D01*
X150371056Y-127265494D01*
X150468972Y-127448682D01*
X150600747Y-127609252D01*
X150747549Y-127729728D01*
X150761317Y-127741027D01*
X150944508Y-127838945D01*
X151142240Y-127898926D01*
X151201474Y-127937669D01*
X151230475Y-128002236D01*
X151220089Y-128072251D01*
X151173594Y-128125619D01*
X151105663Y-128145500D01*
X149054337Y-128145500D01*
X148986406Y-128125619D01*
X148939911Y-128072251D01*
X148929525Y-128002236D01*
X148958526Y-127937669D01*
X149017759Y-127898926D01*
X149215492Y-127838945D01*
X149398683Y-127741027D01*
X149559252Y-127609252D01*
X149691027Y-127448683D01*
X149788945Y-127265492D01*
X149849242Y-127066718D01*
X149869602Y-126860000D01*
X149849242Y-126653282D01*
X149788945Y-126454508D01*
X149691027Y-126271317D01*
X149650068Y-126221408D01*
X149559252Y-126110747D01*
X149398682Y-125978972D01*
X149215494Y-125881056D01*
X149215493Y-125881055D01*
X149215492Y-125881055D01*
X149016718Y-125820758D01*
X149016715Y-125820757D01*
X149016713Y-125820757D01*
X148810000Y-125800397D01*
X148603286Y-125820757D01*
X148603283Y-125820757D01*
X148603282Y-125820758D01*
X148427040Y-125874220D01*
X148404505Y-125881056D01*
X148221317Y-125978972D01*
X148060747Y-126110747D01*
X147928972Y-126271317D01*
X147831056Y-126454505D01*
X147831055Y-126454507D01*
X147831055Y-126454508D01*
X147781207Y-126618838D01*
X147770757Y-126653286D01*
X147750397Y-126859999D01*
X147770757Y-127066713D01*
X147770757Y-127066715D01*
X147770758Y-127066718D01*
X147831055Y-127265492D01*
X147831056Y-127265494D01*
X147928972Y-127448682D01*
X148060747Y-127609252D01*
X148207549Y-127729728D01*
X148221317Y-127741027D01*
X148404508Y-127838945D01*
X148602240Y-127898926D01*
X148661474Y-127937669D01*
X148690475Y-128002236D01*
X148680089Y-128072251D01*
X148633594Y-128125619D01*
X148565663Y-128145500D01*
X146514337Y-128145500D01*
X146446406Y-128125619D01*
X146399911Y-128072251D01*
X146389525Y-128002236D01*
X146418526Y-127937669D01*
X146477759Y-127898926D01*
X146675492Y-127838945D01*
X146858683Y-127741027D01*
X147019252Y-127609252D01*
X147151027Y-127448683D01*
X147248945Y-127265492D01*
X147309242Y-127066718D01*
X147329602Y-126860000D01*
X147309242Y-126653282D01*
X147248945Y-126454508D01*
X147151027Y-126271317D01*
X147110068Y-126221408D01*
X147019252Y-126110747D01*
X146858682Y-125978972D01*
X146675494Y-125881056D01*
X146675493Y-125881055D01*
X146675492Y-125881055D01*
X146476718Y-125820758D01*
X146476715Y-125820757D01*
X146476713Y-125820757D01*
X146270000Y-125800397D01*
X146063286Y-125820757D01*
X146063283Y-125820757D01*
X146063282Y-125820758D01*
X145887040Y-125874220D01*
X145864505Y-125881056D01*
X145681317Y-125978972D01*
X145520747Y-126110747D01*
X145388972Y-126271317D01*
X145291056Y-126454505D01*
X145291055Y-126454507D01*
X145291055Y-126454508D01*
X145241207Y-126618838D01*
X145230757Y-126653286D01*
X145210397Y-126859999D01*
X145230757Y-127066713D01*
X145230757Y-127066715D01*
X145230758Y-127066718D01*
X145291055Y-127265492D01*
X145291056Y-127265494D01*
X145388972Y-127448682D01*
X145520747Y-127609252D01*
X145667549Y-127729728D01*
X145681317Y-127741027D01*
X145864508Y-127838945D01*
X146062240Y-127898926D01*
X146121474Y-127937669D01*
X146150475Y-128002236D01*
X146140089Y-128072251D01*
X146093594Y-128125619D01*
X146025663Y-128145500D01*
X143974337Y-128145500D01*
X143906406Y-128125619D01*
X143859911Y-128072251D01*
X143849525Y-128002236D01*
X143878526Y-127937669D01*
X143937759Y-127898926D01*
X144135492Y-127838945D01*
X144318683Y-127741027D01*
X144479252Y-127609252D01*
X144611027Y-127448683D01*
X144708945Y-127265492D01*
X144769242Y-127066718D01*
X144789602Y-126860000D01*
X144769242Y-126653282D01*
X144708945Y-126454508D01*
X144611027Y-126271317D01*
X144570068Y-126221408D01*
X144479252Y-126110747D01*
X144318682Y-125978972D01*
X144135494Y-125881056D01*
X144135493Y-125881055D01*
X144135492Y-125881055D01*
X143936718Y-125820758D01*
X143936715Y-125820757D01*
X143936713Y-125820757D01*
X143730000Y-125800397D01*
X143523284Y-125820757D01*
X143368572Y-125867688D01*
X143301381Y-125869337D01*
X143242902Y-125836208D01*
X142251289Y-124844595D01*
X142220551Y-124794436D01*
X142215935Y-124735789D01*
X142238448Y-124681439D01*
X142283181Y-124643233D01*
X142340384Y-124629500D01*
X157140616Y-124629500D01*
X157188834Y-124639091D01*
G37*
%TD.AperFunction*%
%TA.AperFunction,Conductor*%
G36*
X131741731Y-77374381D02*
G01*
X131788226Y-77427749D01*
X131798612Y-77497764D01*
X131769611Y-77562331D01*
X131710377Y-77601073D01*
X131644508Y-77621055D01*
X131644505Y-77621056D01*
X131461317Y-77718972D01*
X131300747Y-77850747D01*
X131168972Y-78011317D01*
X131071056Y-78194505D01*
X131071055Y-78194507D01*
X131071055Y-78194508D01*
X131023888Y-78350000D01*
X131010757Y-78393286D01*
X130990397Y-78599999D01*
X131010757Y-78806713D01*
X131010757Y-78806715D01*
X131010758Y-78806718D01*
X131071055Y-79005492D01*
X131071056Y-79005494D01*
X131168972Y-79188682D01*
X131300747Y-79349252D01*
X131461317Y-79481027D01*
X131603896Y-79557238D01*
X131652574Y-79603583D01*
X131670500Y-79668360D01*
X131670500Y-80091841D01*
X131670505Y-80091901D01*
X131670505Y-80125501D01*
X131684066Y-80184914D01*
X131704106Y-80272717D01*
X131762747Y-80394488D01*
X131775225Y-80449157D01*
X131762748Y-80503825D01*
X131727787Y-80547666D01*
X131677266Y-80571997D01*
X131536661Y-80604093D01*
X131400607Y-80669617D01*
X131282547Y-80763770D01*
X131188399Y-80881836D01*
X131122883Y-81017887D01*
X131089284Y-81165113D01*
X131089286Y-81227281D01*
X131089286Y-81296497D01*
X131089288Y-81296545D01*
X131089292Y-81313497D01*
X131089291Y-81313497D01*
X131089298Y-81313549D01*
X131089298Y-81327045D01*
X131089298Y-81334886D01*
X131099046Y-81377600D01*
X131122896Y-81482107D01*
X131188410Y-81618156D01*
X131188411Y-81618157D01*
X131282558Y-81736219D01*
X131400616Y-81830371D01*
X131536664Y-81895893D01*
X131575150Y-81904678D01*
X131620123Y-81924829D01*
X131653929Y-81960694D01*
X131671390Y-82006783D01*
X131673955Y-82022158D01*
X131674705Y-82027304D01*
X131682241Y-82087751D01*
X131682276Y-82087861D01*
X131711255Y-82141410D01*
X131713638Y-82146039D01*
X131740406Y-82200793D01*
X131740461Y-82200866D01*
X131785284Y-82242130D01*
X131789041Y-82245735D01*
X145236676Y-95693370D01*
X145269805Y-95751849D01*
X145268155Y-95819041D01*
X145228209Y-95950730D01*
X145228207Y-95950735D01*
X145208581Y-96149999D01*
X145228207Y-96349269D01*
X145281591Y-96525249D01*
X145286333Y-96540880D01*
X145380722Y-96717469D01*
X145430355Y-96777948D01*
X145507747Y-96872252D01*
X145585139Y-96935764D01*
X145662531Y-96999278D01*
X145839120Y-97093667D01*
X145934925Y-97122729D01*
X146030730Y-97151792D01*
X146230000Y-97171418D01*
X146429269Y-97151792D01*
X146620880Y-97093667D01*
X146797469Y-96999278D01*
X146952252Y-96872252D01*
X147079278Y-96717469D01*
X147173667Y-96540880D01*
X147231792Y-96349269D01*
X147251418Y-96150000D01*
X147231792Y-95950731D01*
X147230411Y-95946180D01*
X147173667Y-95759121D01*
X147173667Y-95759120D01*
X147079278Y-95582531D01*
X147015765Y-95505139D01*
X146952252Y-95427747D01*
X146845539Y-95340172D01*
X146797469Y-95300722D01*
X146620880Y-95206333D01*
X146620879Y-95206332D01*
X146620878Y-95206332D01*
X146429269Y-95148207D01*
X146230000Y-95128581D01*
X146030735Y-95148207D01*
X146030732Y-95148207D01*
X146030731Y-95148208D01*
X145913446Y-95183786D01*
X145899041Y-95188156D01*
X145831849Y-95189805D01*
X145773370Y-95156676D01*
X132466405Y-81849711D01*
X132439089Y-81808828D01*
X132433127Y-81778846D01*
X132432660Y-81778953D01*
X132395901Y-81617890D01*
X132395901Y-81617888D01*
X132341322Y-81504551D01*
X132328846Y-81449884D01*
X132341325Y-81395215D01*
X132376288Y-81351374D01*
X132426808Y-81327046D01*
X132563308Y-81295893D01*
X132699357Y-81230378D01*
X132817417Y-81136231D01*
X132911567Y-81018175D01*
X132977086Y-80882128D01*
X133004103Y-80763770D01*
X133010691Y-80734909D01*
X133010691Y-80685744D01*
X133010692Y-80685741D01*
X133010691Y-80683380D01*
X133010706Y-80683307D01*
X133010704Y-80631177D01*
X133010705Y-80631177D01*
X133010702Y-80555675D01*
X132977096Y-80408459D01*
X132911575Y-80272411D01*
X132817422Y-80154355D01*
X132739029Y-80091841D01*
X132699360Y-80060207D01*
X132563312Y-79994693D01*
X132547117Y-79990997D01*
X132527463Y-79986511D01*
X132476942Y-79962183D01*
X132441978Y-79918341D01*
X132429500Y-79863671D01*
X132429500Y-79668360D01*
X132447426Y-79603583D01*
X132496104Y-79557238D01*
X132584067Y-79510220D01*
X132638683Y-79481027D01*
X132799252Y-79349252D01*
X132931027Y-79188683D01*
X133028945Y-79005492D01*
X133089242Y-78806718D01*
X133109602Y-78600000D01*
X133089242Y-78393282D01*
X133028945Y-78194508D01*
X132931027Y-78011317D01*
X132799252Y-77850747D01*
X132638682Y-77718972D01*
X132455494Y-77621056D01*
X132455493Y-77621055D01*
X132455492Y-77621055D01*
X132389622Y-77601073D01*
X132330389Y-77562331D01*
X132301388Y-77497764D01*
X132311774Y-77427749D01*
X132358269Y-77374381D01*
X132426200Y-77354500D01*
X134213800Y-77354500D01*
X134281731Y-77374381D01*
X134328226Y-77427749D01*
X134338612Y-77497764D01*
X134309611Y-77562331D01*
X134250377Y-77601073D01*
X134184508Y-77621055D01*
X134184505Y-77621056D01*
X134001317Y-77718972D01*
X133840747Y-77850747D01*
X133708972Y-78011317D01*
X133611056Y-78194505D01*
X133611055Y-78194507D01*
X133611055Y-78194508D01*
X133563888Y-78350000D01*
X133550757Y-78393286D01*
X133530397Y-78599999D01*
X133550757Y-78806713D01*
X133550757Y-78806715D01*
X133550758Y-78806718D01*
X133611055Y-79005492D01*
X133611056Y-79005494D01*
X133708972Y-79188682D01*
X133840747Y-79349252D01*
X133869061Y-79372488D01*
X133903219Y-79416416D01*
X133915125Y-79470772D01*
X133902457Y-79524956D01*
X133867686Y-79568400D01*
X133822587Y-79604363D01*
X133728437Y-79722418D01*
X133662916Y-79858465D01*
X133629309Y-80005688D01*
X133629309Y-80057212D01*
X133629299Y-80057262D01*
X133629300Y-80184914D01*
X133662839Y-80331843D01*
X133662905Y-80332131D01*
X133728426Y-80468180D01*
X133756853Y-80503825D01*
X133822577Y-80586239D01*
X133900935Y-80648724D01*
X133940638Y-80680385D01*
X134076689Y-80745902D01*
X134201941Y-80774487D01*
X134213185Y-80777054D01*
X134263707Y-80801383D01*
X134298670Y-80845224D01*
X134311149Y-80899893D01*
X134298672Y-80954563D01*
X134244098Y-81067890D01*
X134210499Y-81215110D01*
X134210500Y-81253620D01*
X134210500Y-81917574D01*
X134207818Y-81943432D01*
X134205580Y-81954100D01*
X134209532Y-81985796D01*
X134210500Y-82001382D01*
X134210500Y-82001448D01*
X134213955Y-82022159D01*
X134214705Y-82027304D01*
X134222241Y-82087751D01*
X134222276Y-82087861D01*
X134251255Y-82141410D01*
X134253638Y-82146039D01*
X134280406Y-82200793D01*
X134280461Y-82200866D01*
X134325284Y-82242130D01*
X134329041Y-82245735D01*
X147776676Y-95693370D01*
X147809805Y-95751849D01*
X147808155Y-95819041D01*
X147768209Y-95950730D01*
X147768207Y-95950735D01*
X147748581Y-96149999D01*
X147768207Y-96349269D01*
X147821591Y-96525249D01*
X147826333Y-96540880D01*
X147920722Y-96717469D01*
X147970355Y-96777948D01*
X148047747Y-96872252D01*
X148125139Y-96935764D01*
X148202531Y-96999278D01*
X148379120Y-97093667D01*
X148474925Y-97122729D01*
X148570730Y-97151792D01*
X148770000Y-97171418D01*
X148969269Y-97151792D01*
X149160880Y-97093667D01*
X149337469Y-96999278D01*
X149492252Y-96872252D01*
X149619278Y-96717469D01*
X149713667Y-96540880D01*
X149756403Y-96400000D01*
X150048000Y-96400000D01*
X150048000Y-96959828D01*
X150054402Y-97019375D01*
X150104646Y-97154088D01*
X150190810Y-97269189D01*
X150305911Y-97355353D01*
X150440624Y-97405597D01*
X150500172Y-97412000D01*
X151060000Y-97412000D01*
X151060000Y-96400000D01*
X151560000Y-96400000D01*
X151560000Y-97412000D01*
X152119828Y-97412000D01*
X152179375Y-97405597D01*
X152314088Y-97355353D01*
X152429189Y-97269189D01*
X152515353Y-97154088D01*
X152565597Y-97019375D01*
X152572000Y-96959828D01*
X152572000Y-96400000D01*
X151560000Y-96400000D01*
X151060000Y-96400000D01*
X150048000Y-96400000D01*
X149756403Y-96400000D01*
X149771792Y-96349269D01*
X149791418Y-96150000D01*
X149791418Y-96149999D01*
X152828581Y-96149999D01*
X152848207Y-96349269D01*
X152901591Y-96525249D01*
X152906333Y-96540880D01*
X153000722Y-96717469D01*
X153050355Y-96777948D01*
X153127747Y-96872252D01*
X153205139Y-96935764D01*
X153282531Y-96999278D01*
X153459120Y-97093667D01*
X153554925Y-97122729D01*
X153650730Y-97151792D01*
X153850000Y-97171418D01*
X154049269Y-97151792D01*
X154240880Y-97093667D01*
X154417469Y-96999278D01*
X154572252Y-96872252D01*
X154699278Y-96717469D01*
X154793667Y-96540880D01*
X154851792Y-96349269D01*
X154871418Y-96150000D01*
X154851792Y-95950731D01*
X154850411Y-95946180D01*
X154793667Y-95759121D01*
X154793667Y-95759120D01*
X154699278Y-95582531D01*
X154635765Y-95505139D01*
X154572252Y-95427747D01*
X154465539Y-95340172D01*
X154417469Y-95300722D01*
X154240880Y-95206333D01*
X154240879Y-95206332D01*
X154240878Y-95206332D01*
X154049269Y-95148207D01*
X153850000Y-95128581D01*
X153650730Y-95148207D01*
X153459121Y-95206332D01*
X153282532Y-95300721D01*
X153127747Y-95427747D01*
X153000721Y-95582532D01*
X152906332Y-95759121D01*
X152848207Y-95950730D01*
X152828581Y-96149999D01*
X149791418Y-96149999D01*
X149771792Y-95950731D01*
X149770411Y-95946180D01*
X149756402Y-95900000D01*
X150048000Y-95900000D01*
X151060000Y-95900000D01*
X151060000Y-94888000D01*
X151560000Y-94888000D01*
X151560000Y-95900000D01*
X152572000Y-95900000D01*
X152572000Y-95340172D01*
X152565597Y-95280624D01*
X152515353Y-95145911D01*
X152429189Y-95030810D01*
X152314088Y-94944646D01*
X152179375Y-94894402D01*
X152119828Y-94888000D01*
X151560000Y-94888000D01*
X151060000Y-94888000D01*
X150500172Y-94888000D01*
X150440624Y-94894402D01*
X150305911Y-94944646D01*
X150190810Y-95030810D01*
X150104646Y-95145911D01*
X150054402Y-95280624D01*
X150048000Y-95340172D01*
X150048000Y-95900000D01*
X149756402Y-95900000D01*
X149713667Y-95759121D01*
X149713667Y-95759120D01*
X149619278Y-95582531D01*
X149555765Y-95505139D01*
X149492252Y-95427747D01*
X149385539Y-95340172D01*
X149337469Y-95300722D01*
X149160880Y-95206333D01*
X149160879Y-95206332D01*
X149160878Y-95206332D01*
X148969269Y-95148207D01*
X148770000Y-95128581D01*
X148570735Y-95148207D01*
X148570732Y-95148207D01*
X148570731Y-95148208D01*
X148453446Y-95183786D01*
X148439041Y-95188156D01*
X148371849Y-95189805D01*
X148313370Y-95156676D01*
X135006405Y-81849711D01*
X134979091Y-81808834D01*
X134969500Y-81760616D01*
X134969500Y-81476937D01*
X134981977Y-81422269D01*
X135016938Y-81378428D01*
X135067459Y-81354097D01*
X135083081Y-81350530D01*
X135103340Y-81345906D01*
X135239392Y-81280383D01*
X135357452Y-81186229D01*
X135451600Y-81068164D01*
X135517117Y-80932110D01*
X135550716Y-80784888D01*
X135550714Y-80709384D01*
X135550714Y-80703619D01*
X135550714Y-80659164D01*
X135550714Y-80648748D01*
X135550712Y-80648724D01*
X135550712Y-80635428D01*
X135550701Y-80635356D01*
X135550702Y-80615115D01*
X135540517Y-80570488D01*
X135517104Y-80467895D01*
X135517103Y-80467894D01*
X135517103Y-80467891D01*
X135451589Y-80331843D01*
X135357442Y-80213781D01*
X135321244Y-80184913D01*
X135239384Y-80119629D01*
X135160096Y-80081443D01*
X135103333Y-80054105D01*
X134962732Y-80022011D01*
X134912211Y-79997680D01*
X134877250Y-79953839D01*
X134864773Y-79899170D01*
X134877250Y-79844504D01*
X134935899Y-79722718D01*
X134952210Y-79651250D01*
X134974909Y-79602819D01*
X135015653Y-79568168D01*
X135178683Y-79481027D01*
X135339252Y-79349252D01*
X135471027Y-79188683D01*
X135568945Y-79005492D01*
X135629242Y-78806718D01*
X135649602Y-78600000D01*
X135629242Y-78393282D01*
X135568945Y-78194508D01*
X135471027Y-78011317D01*
X135339252Y-77850747D01*
X135178682Y-77718972D01*
X134995494Y-77621056D01*
X134995493Y-77621055D01*
X134995492Y-77621055D01*
X134929622Y-77601073D01*
X134870389Y-77562331D01*
X134841388Y-77497764D01*
X134851774Y-77427749D01*
X134898269Y-77374381D01*
X134966200Y-77354500D01*
X136753800Y-77354500D01*
X136821731Y-77374381D01*
X136868226Y-77427749D01*
X136878612Y-77497764D01*
X136849611Y-77562331D01*
X136790377Y-77601073D01*
X136724508Y-77621055D01*
X136724505Y-77621056D01*
X136541317Y-77718972D01*
X136380747Y-77850747D01*
X136248972Y-78011317D01*
X136151056Y-78194505D01*
X136151055Y-78194507D01*
X136151055Y-78194508D01*
X136103888Y-78350000D01*
X136090757Y-78393286D01*
X136070397Y-78599999D01*
X136090757Y-78806713D01*
X136090757Y-78806715D01*
X136090758Y-78806718D01*
X136151055Y-79005492D01*
X136151056Y-79005494D01*
X136248972Y-79188682D01*
X136380747Y-79349252D01*
X136528821Y-79470772D01*
X136541317Y-79481027D01*
X136724508Y-79578945D01*
X136923282Y-79639242D01*
X137130000Y-79659602D01*
X137336718Y-79639242D01*
X137535492Y-79578945D01*
X137718683Y-79481027D01*
X137879252Y-79349252D01*
X138011027Y-79188683D01*
X138108945Y-79005492D01*
X138123426Y-78957752D01*
X138162169Y-78898520D01*
X138226736Y-78869519D01*
X138296751Y-78879905D01*
X138350119Y-78926400D01*
X138370000Y-78994331D01*
X138370000Y-79447828D01*
X138376402Y-79507375D01*
X138426646Y-79642088D01*
X138512810Y-79757189D01*
X138627911Y-79843353D01*
X138762624Y-79893597D01*
X138822172Y-79900000D01*
X139420000Y-79900000D01*
X139420000Y-78476000D01*
X139436881Y-78413000D01*
X139483000Y-78366881D01*
X139546000Y-78350000D01*
X139794000Y-78350000D01*
X139857000Y-78366881D01*
X139903119Y-78413000D01*
X139920000Y-78476000D01*
X139920000Y-79900000D01*
X140517828Y-79900000D01*
X140577375Y-79893597D01*
X140712088Y-79843353D01*
X140827189Y-79757189D01*
X140913353Y-79642088D01*
X140963597Y-79507375D01*
X140970000Y-79447828D01*
X140970000Y-78994331D01*
X140989881Y-78926400D01*
X141043249Y-78879905D01*
X141113264Y-78869519D01*
X141177831Y-78898520D01*
X141216573Y-78957752D01*
X141231055Y-79005492D01*
X141231056Y-79005494D01*
X141328972Y-79188682D01*
X141460747Y-79349252D01*
X141608821Y-79470772D01*
X141621317Y-79481027D01*
X141804508Y-79578945D01*
X142003282Y-79639242D01*
X142210000Y-79659602D01*
X142416718Y-79639242D01*
X142615492Y-79578945D01*
X142798683Y-79481027D01*
X142959252Y-79349252D01*
X143091027Y-79188683D01*
X143188945Y-79005492D01*
X143249242Y-78806718D01*
X143269602Y-78600000D01*
X143249242Y-78393282D01*
X143188945Y-78194508D01*
X143091027Y-78011317D01*
X142959252Y-77850747D01*
X142798682Y-77718972D01*
X142615494Y-77621056D01*
X142615493Y-77621055D01*
X142615492Y-77621055D01*
X142549622Y-77601073D01*
X142490389Y-77562331D01*
X142461388Y-77497764D01*
X142471774Y-77427749D01*
X142518269Y-77374381D01*
X142586200Y-77354500D01*
X144373800Y-77354500D01*
X144441731Y-77374381D01*
X144488226Y-77427749D01*
X144498612Y-77497764D01*
X144469611Y-77562331D01*
X144410377Y-77601073D01*
X144344508Y-77621055D01*
X144344505Y-77621056D01*
X144161317Y-77718972D01*
X144000747Y-77850747D01*
X143868972Y-78011317D01*
X143771056Y-78194505D01*
X143771055Y-78194507D01*
X143771055Y-78194508D01*
X143723888Y-78350000D01*
X143710757Y-78393286D01*
X143690397Y-78599999D01*
X143710757Y-78806713D01*
X143710757Y-78806715D01*
X143710758Y-78806718D01*
X143771055Y-79005492D01*
X143771056Y-79005494D01*
X143868972Y-79188682D01*
X144000747Y-79349252D01*
X144148821Y-79470772D01*
X144161317Y-79481027D01*
X144344508Y-79578945D01*
X144543282Y-79639242D01*
X144750000Y-79659602D01*
X144956718Y-79639242D01*
X145155492Y-79578945D01*
X145338683Y-79481027D01*
X145499252Y-79349252D01*
X145631027Y-79188683D01*
X145728945Y-79005492D01*
X145789242Y-78806718D01*
X145809602Y-78600000D01*
X145789242Y-78393282D01*
X145728945Y-78194508D01*
X145631027Y-78011317D01*
X145499252Y-77850747D01*
X145338682Y-77718972D01*
X145155494Y-77621056D01*
X145155493Y-77621055D01*
X145155492Y-77621055D01*
X145089622Y-77601073D01*
X145030389Y-77562331D01*
X145001388Y-77497764D01*
X145011774Y-77427749D01*
X145058269Y-77374381D01*
X145126200Y-77354500D01*
X146913800Y-77354500D01*
X146981731Y-77374381D01*
X147028226Y-77427749D01*
X147038612Y-77497764D01*
X147009611Y-77562331D01*
X146950377Y-77601073D01*
X146884508Y-77621055D01*
X146884505Y-77621056D01*
X146701317Y-77718972D01*
X146540747Y-77850747D01*
X146408972Y-78011317D01*
X146311056Y-78194505D01*
X146311055Y-78194507D01*
X146311055Y-78194508D01*
X146263888Y-78350000D01*
X146250757Y-78393286D01*
X146230397Y-78599999D01*
X146250757Y-78806713D01*
X146250757Y-78806715D01*
X146250758Y-78806718D01*
X146311055Y-79005492D01*
X146311056Y-79005494D01*
X146408972Y-79188682D01*
X146540747Y-79349252D01*
X146688821Y-79470772D01*
X146701317Y-79481027D01*
X146884508Y-79578945D01*
X147083282Y-79639242D01*
X147290000Y-79659602D01*
X147496718Y-79639242D01*
X147695492Y-79578945D01*
X147878683Y-79481027D01*
X148039252Y-79349252D01*
X148171027Y-79188683D01*
X148268945Y-79005492D01*
X148329242Y-78806718D01*
X148349602Y-78600000D01*
X148329242Y-78393282D01*
X148268945Y-78194508D01*
X148171027Y-78011317D01*
X148039252Y-77850747D01*
X147878682Y-77718972D01*
X147695494Y-77621056D01*
X147695493Y-77621055D01*
X147695492Y-77621055D01*
X147629622Y-77601073D01*
X147570389Y-77562331D01*
X147541388Y-77497764D01*
X147551774Y-77427749D01*
X147598269Y-77374381D01*
X147666200Y-77354500D01*
X149453800Y-77354500D01*
X149521731Y-77374381D01*
X149568226Y-77427749D01*
X149578612Y-77497764D01*
X149549611Y-77562331D01*
X149490377Y-77601073D01*
X149424508Y-77621055D01*
X149424505Y-77621056D01*
X149241317Y-77718972D01*
X149080747Y-77850747D01*
X148948972Y-78011317D01*
X148851056Y-78194505D01*
X148851055Y-78194507D01*
X148851055Y-78194508D01*
X148803888Y-78350000D01*
X148790757Y-78393286D01*
X148770397Y-78599999D01*
X148790757Y-78806713D01*
X148790757Y-78806715D01*
X148790758Y-78806718D01*
X148851055Y-79005492D01*
X148851056Y-79005494D01*
X148948972Y-79188682D01*
X149080747Y-79349252D01*
X149228821Y-79470772D01*
X149241317Y-79481027D01*
X149424508Y-79578945D01*
X149623282Y-79639242D01*
X149830000Y-79659602D01*
X150036718Y-79639242D01*
X150235492Y-79578945D01*
X150418683Y-79481027D01*
X150579252Y-79349252D01*
X150711027Y-79188683D01*
X150808945Y-79005492D01*
X150869242Y-78806718D01*
X150889602Y-78600000D01*
X150869242Y-78393282D01*
X150808945Y-78194508D01*
X150711027Y-78011317D01*
X150579252Y-77850747D01*
X150418682Y-77718972D01*
X150235494Y-77621056D01*
X150235493Y-77621055D01*
X150235492Y-77621055D01*
X150169622Y-77601073D01*
X150110389Y-77562331D01*
X150081388Y-77497764D01*
X150091774Y-77427749D01*
X150138269Y-77374381D01*
X150206200Y-77354500D01*
X151993800Y-77354500D01*
X152061731Y-77374381D01*
X152108226Y-77427749D01*
X152118612Y-77497764D01*
X152089611Y-77562331D01*
X152030377Y-77601073D01*
X151964508Y-77621055D01*
X151964505Y-77621056D01*
X151781317Y-77718972D01*
X151620747Y-77850747D01*
X151488972Y-78011317D01*
X151391056Y-78194505D01*
X151391055Y-78194507D01*
X151391055Y-78194508D01*
X151343888Y-78350000D01*
X151330757Y-78393286D01*
X151310397Y-78599999D01*
X151330757Y-78806713D01*
X151330757Y-78806715D01*
X151330758Y-78806718D01*
X151391055Y-79005492D01*
X151391056Y-79005494D01*
X151488972Y-79188682D01*
X151620747Y-79349252D01*
X151768821Y-79470772D01*
X151781317Y-79481027D01*
X151964508Y-79578945D01*
X152163282Y-79639242D01*
X152370000Y-79659602D01*
X152576718Y-79639242D01*
X152775492Y-79578945D01*
X152958683Y-79481027D01*
X153119252Y-79349252D01*
X153251027Y-79188683D01*
X153348945Y-79005492D01*
X153409242Y-78806718D01*
X153429602Y-78600000D01*
X153409242Y-78393282D01*
X153348945Y-78194508D01*
X153251027Y-78011317D01*
X153119252Y-77850747D01*
X152958682Y-77718972D01*
X152775494Y-77621056D01*
X152775493Y-77621055D01*
X152775492Y-77621055D01*
X152709622Y-77601073D01*
X152650389Y-77562331D01*
X152621388Y-77497764D01*
X152631774Y-77427749D01*
X152678269Y-77374381D01*
X152746200Y-77354500D01*
X154533800Y-77354500D01*
X154601731Y-77374381D01*
X154648226Y-77427749D01*
X154658612Y-77497764D01*
X154629611Y-77562331D01*
X154570377Y-77601073D01*
X154504508Y-77621055D01*
X154504505Y-77621056D01*
X154321317Y-77718972D01*
X154160747Y-77850747D01*
X154028972Y-78011317D01*
X153931056Y-78194505D01*
X153931055Y-78194507D01*
X153931055Y-78194508D01*
X153883888Y-78350000D01*
X153870757Y-78393286D01*
X153850397Y-78599999D01*
X153870757Y-78806713D01*
X153870757Y-78806715D01*
X153870758Y-78806718D01*
X153931055Y-79005492D01*
X153931056Y-79005494D01*
X154028972Y-79188682D01*
X154160747Y-79349252D01*
X154308821Y-79470772D01*
X154321317Y-79481027D01*
X154504508Y-79578945D01*
X154703282Y-79639242D01*
X154910000Y-79659602D01*
X155116718Y-79639242D01*
X155315492Y-79578945D01*
X155498683Y-79481027D01*
X155659252Y-79349252D01*
X155791027Y-79188683D01*
X155888945Y-79005492D01*
X155949242Y-78806718D01*
X155969602Y-78600000D01*
X155949242Y-78393282D01*
X155888945Y-78194508D01*
X155791027Y-78011317D01*
X155659252Y-77850747D01*
X155498682Y-77718972D01*
X155315494Y-77621056D01*
X155315493Y-77621055D01*
X155315492Y-77621055D01*
X155249622Y-77601073D01*
X155190389Y-77562331D01*
X155161388Y-77497764D01*
X155171774Y-77427749D01*
X155218269Y-77374381D01*
X155286200Y-77354500D01*
X158593800Y-77354500D01*
X158661731Y-77374381D01*
X158708226Y-77427749D01*
X158718612Y-77497764D01*
X158689611Y-77562331D01*
X158630377Y-77601073D01*
X158564508Y-77621055D01*
X158564505Y-77621056D01*
X158381317Y-77718972D01*
X158220747Y-77850747D01*
X158088972Y-78011317D01*
X157991056Y-78194505D01*
X157991055Y-78194507D01*
X157991055Y-78194508D01*
X157943888Y-78350000D01*
X157930757Y-78393286D01*
X157910397Y-78599999D01*
X157930757Y-78806713D01*
X157930757Y-78806715D01*
X157930758Y-78806718D01*
X157991055Y-79005492D01*
X157991056Y-79005494D01*
X158088972Y-79188682D01*
X158220747Y-79349252D01*
X158368821Y-79470772D01*
X158381317Y-79481027D01*
X158564508Y-79578945D01*
X158763282Y-79639242D01*
X158970000Y-79659602D01*
X159176718Y-79639242D01*
X159375492Y-79578945D01*
X159558683Y-79481027D01*
X159719252Y-79349252D01*
X159851027Y-79188683D01*
X159948945Y-79005492D01*
X160009242Y-78806718D01*
X160029602Y-78600000D01*
X160009242Y-78393282D01*
X159948945Y-78194508D01*
X159851027Y-78011317D01*
X159719252Y-77850747D01*
X159558682Y-77718972D01*
X159375494Y-77621056D01*
X159375493Y-77621055D01*
X159375492Y-77621055D01*
X159309622Y-77601073D01*
X159250389Y-77562331D01*
X159221388Y-77497764D01*
X159231774Y-77427749D01*
X159278269Y-77374381D01*
X159346200Y-77354500D01*
X161133800Y-77354500D01*
X161201731Y-77374381D01*
X161248226Y-77427749D01*
X161258612Y-77497764D01*
X161229611Y-77562331D01*
X161170377Y-77601073D01*
X161104508Y-77621055D01*
X161104505Y-77621056D01*
X160921317Y-77718972D01*
X160760747Y-77850747D01*
X160628972Y-78011317D01*
X160531056Y-78194505D01*
X160531055Y-78194507D01*
X160531055Y-78194508D01*
X160483888Y-78350000D01*
X160470757Y-78393286D01*
X160450397Y-78599999D01*
X160470757Y-78806713D01*
X160470757Y-78806715D01*
X160470758Y-78806718D01*
X160517688Y-78961425D01*
X160519337Y-79028617D01*
X160486208Y-79087096D01*
X160468724Y-79104580D01*
X160448550Y-79120964D01*
X160439419Y-79126930D01*
X160419792Y-79152146D01*
X160409463Y-79163842D01*
X160409418Y-79163886D01*
X160397212Y-79180981D01*
X160394105Y-79185148D01*
X160356691Y-79233218D01*
X160356638Y-79233322D01*
X160339259Y-79291695D01*
X160337672Y-79296650D01*
X160317888Y-79354281D01*
X160317875Y-79354369D01*
X160320392Y-79415214D01*
X160320500Y-79420421D01*
X160320500Y-98845352D01*
X160307450Y-98901194D01*
X160271003Y-98945469D01*
X160218708Y-98969005D01*
X160161399Y-98966926D01*
X160110947Y-98939665D01*
X160074529Y-98907401D01*
X159933793Y-98833537D01*
X159779471Y-98795500D01*
X159620529Y-98795500D01*
X159466206Y-98833537D01*
X159466207Y-98833537D01*
X159325469Y-98907401D01*
X159261796Y-98963812D01*
X159222922Y-98987312D01*
X159178242Y-98995500D01*
X147230451Y-98995500D01*
X147182233Y-98985909D01*
X147141356Y-98958595D01*
X144708010Y-96525249D01*
X144674881Y-96466769D01*
X144676531Y-96399577D01*
X144690411Y-96353821D01*
X144691792Y-96349269D01*
X144711418Y-96150000D01*
X144691792Y-95950731D01*
X144690411Y-95946180D01*
X144633667Y-95759121D01*
X144633667Y-95759120D01*
X144539278Y-95582531D01*
X144475765Y-95505139D01*
X144412252Y-95427747D01*
X144305539Y-95340172D01*
X144257469Y-95300722D01*
X144080880Y-95206333D01*
X144080879Y-95206332D01*
X144080878Y-95206332D01*
X143889269Y-95148207D01*
X143690000Y-95128581D01*
X143490730Y-95148207D01*
X143299121Y-95206332D01*
X143122532Y-95300721D01*
X142967747Y-95427747D01*
X142840721Y-95582532D01*
X142746332Y-95759121D01*
X142688207Y-95950730D01*
X142668581Y-96150000D01*
X142688207Y-96349269D01*
X142741591Y-96525249D01*
X142746333Y-96540880D01*
X142840722Y-96717469D01*
X142890355Y-96777948D01*
X142967747Y-96872252D01*
X143045139Y-96935764D01*
X143122531Y-96999278D01*
X143299120Y-97093667D01*
X143394925Y-97122729D01*
X143490730Y-97151792D01*
X143690000Y-97171418D01*
X143889269Y-97151792D01*
X143939579Y-97136529D01*
X144006768Y-97134880D01*
X144065249Y-97168009D01*
X146645556Y-99748316D01*
X146654972Y-99758851D01*
X146677369Y-99786936D01*
X146725018Y-99819422D01*
X146728838Y-99822132D01*
X146775227Y-99856369D01*
X146780196Y-99860036D01*
X146784674Y-99862296D01*
X146790569Y-99864114D01*
X146790572Y-99864116D01*
X146845683Y-99881114D01*
X146850110Y-99882571D01*
X146904549Y-99901621D01*
X146904552Y-99901621D01*
X146910379Y-99903660D01*
X146915320Y-99904500D01*
X146921495Y-99904500D01*
X146979132Y-99904500D01*
X146983842Y-99904587D01*
X147041463Y-99906744D01*
X147041465Y-99906743D01*
X147047628Y-99906974D01*
X147066426Y-99904500D01*
X159178242Y-99904500D01*
X159222922Y-99912688D01*
X159261796Y-99936188D01*
X159325469Y-99992598D01*
X159325471Y-99992599D01*
X159466207Y-100066463D01*
X159620529Y-100104500D01*
X159779469Y-100104500D01*
X159779471Y-100104500D01*
X159933793Y-100066463D01*
X160074529Y-99992599D01*
X160110947Y-99960334D01*
X160161399Y-99933074D01*
X160218708Y-99930995D01*
X160271003Y-99954531D01*
X160307450Y-99998806D01*
X160320500Y-100054648D01*
X160320500Y-105104220D01*
X160310909Y-105152438D01*
X160283595Y-105193315D01*
X152693315Y-112783595D01*
X152652438Y-112810909D01*
X152604220Y-112820500D01*
X137549456Y-112820500D01*
X137490901Y-112806068D01*
X137445761Y-112766078D01*
X137443498Y-112762799D01*
X137324529Y-112657401D01*
X137183793Y-112583537D01*
X137029471Y-112545500D01*
X136870529Y-112545500D01*
X136716207Y-112583537D01*
X136716206Y-112583537D01*
X136716204Y-112583538D01*
X136575472Y-112657400D01*
X136456501Y-112762799D01*
X136366212Y-112893605D01*
X136309850Y-113042219D01*
X136290693Y-113200000D01*
X136309850Y-113357779D01*
X136309850Y-113357781D01*
X136309851Y-113357782D01*
X136316313Y-113374821D01*
X136323582Y-113434687D01*
X136302197Y-113491076D01*
X136257056Y-113531067D01*
X136198501Y-113545500D01*
X133666712Y-113545500D01*
X133608157Y-113531067D01*
X133563016Y-113491076D01*
X133543498Y-113462799D01*
X133511766Y-113434687D01*
X133424529Y-113357401D01*
X133283793Y-113283537D01*
X133129471Y-113245500D01*
X132970529Y-113245500D01*
X132816207Y-113283537D01*
X132816206Y-113283537D01*
X132816204Y-113283538D01*
X132675472Y-113357400D01*
X132556501Y-113462799D01*
X132466212Y-113593605D01*
X132409850Y-113742219D01*
X132390693Y-113900000D01*
X132409850Y-114057780D01*
X132466212Y-114206394D01*
X132555802Y-114336188D01*
X132556502Y-114337201D01*
X132675471Y-114442599D01*
X132816207Y-114516463D01*
X132970529Y-114554500D01*
X133129469Y-114554500D01*
X133129471Y-114554500D01*
X133283793Y-114516463D01*
X133424529Y-114442599D01*
X133543498Y-114337201D01*
X133543498Y-114337199D01*
X133544641Y-114336188D01*
X133583515Y-114312688D01*
X133628195Y-114304500D01*
X139006670Y-114304500D01*
X139071855Y-114322672D01*
X139118238Y-114371946D01*
X139132440Y-114438110D01*
X139118620Y-114478155D01*
X139121638Y-114479300D01*
X139059850Y-114642219D01*
X139040693Y-114799999D01*
X139059850Y-114957780D01*
X139116212Y-115106394D01*
X139206501Y-115237200D01*
X139278054Y-115300591D01*
X139309400Y-115343191D01*
X139320500Y-115394903D01*
X139320500Y-121609616D01*
X139306767Y-121666819D01*
X139268561Y-121711552D01*
X139214211Y-121734065D01*
X139155564Y-121729449D01*
X139105405Y-121698711D01*
X132066405Y-114659711D01*
X132039091Y-114618834D01*
X132029500Y-114570616D01*
X132029500Y-113009384D01*
X132039091Y-112961166D01*
X132066405Y-112920289D01*
X133020500Y-111966194D01*
X136136692Y-108850000D01*
X140128581Y-108850000D01*
X140148207Y-109049269D01*
X140206332Y-109240878D01*
X140206333Y-109240880D01*
X140300722Y-109417469D01*
X140350355Y-109477948D01*
X140427747Y-109572252D01*
X140505139Y-109635764D01*
X140582531Y-109699278D01*
X140759120Y-109793667D01*
X140804309Y-109807375D01*
X140950730Y-109851792D01*
X141150000Y-109871418D01*
X141349269Y-109851792D01*
X141540880Y-109793667D01*
X141717469Y-109699278D01*
X141872252Y-109572252D01*
X141999278Y-109417469D01*
X142093667Y-109240880D01*
X142151792Y-109049269D01*
X142171418Y-108850000D01*
X142151792Y-108650731D01*
X142093667Y-108459120D01*
X141999278Y-108282531D01*
X141886331Y-108144903D01*
X141872252Y-108127747D01*
X141759120Y-108034904D01*
X141717469Y-108000722D01*
X141540880Y-107906333D01*
X141540879Y-107906332D01*
X141540878Y-107906332D01*
X141349269Y-107848207D01*
X141150000Y-107828581D01*
X140950730Y-107848207D01*
X140759121Y-107906332D01*
X140582532Y-108000721D01*
X140427747Y-108127747D01*
X140300721Y-108282532D01*
X140206332Y-108459121D01*
X140148207Y-108650730D01*
X140128581Y-108850000D01*
X136136692Y-108850000D01*
X136481276Y-108505416D01*
X136501457Y-108489029D01*
X136510582Y-108483068D01*
X136530201Y-108457859D01*
X136540546Y-108446147D01*
X136540580Y-108446114D01*
X136552774Y-108429033D01*
X136555880Y-108424867D01*
X136588375Y-108383119D01*
X136588375Y-108383116D01*
X136593321Y-108376763D01*
X136593355Y-108376698D01*
X136595653Y-108368980D01*
X136610746Y-108318276D01*
X136612312Y-108313388D01*
X136629500Y-108263327D01*
X136629500Y-108263324D01*
X136632110Y-108255722D01*
X136632123Y-108255633D01*
X136629608Y-108194800D01*
X136629500Y-108189594D01*
X136629500Y-108144903D01*
X136640600Y-108093191D01*
X136671946Y-108050591D01*
X136726626Y-108002148D01*
X136743498Y-107987201D01*
X136833787Y-107856395D01*
X136890149Y-107707782D01*
X136909307Y-107550000D01*
X136890149Y-107392218D01*
X136833787Y-107243605D01*
X136743498Y-107112799D01*
X136624529Y-107007401D01*
X136554161Y-106970469D01*
X136483795Y-106933538D01*
X136483794Y-106933537D01*
X136483793Y-106933537D01*
X136329471Y-106895500D01*
X136170529Y-106895500D01*
X136016207Y-106933537D01*
X136016206Y-106933537D01*
X136016204Y-106933538D01*
X135875472Y-107007400D01*
X135756501Y-107112799D01*
X135666212Y-107243605D01*
X135609850Y-107392219D01*
X135590693Y-107550000D01*
X135609850Y-107707780D01*
X135666212Y-107856394D01*
X135765193Y-107999792D01*
X135761779Y-108002148D01*
X135782974Y-108034904D01*
X135785033Y-108102560D01*
X135751785Y-108161519D01*
X131418724Y-112494580D01*
X131398550Y-112510964D01*
X131389419Y-112516930D01*
X131369792Y-112542146D01*
X131359463Y-112553842D01*
X131359418Y-112553886D01*
X131347212Y-112570981D01*
X131344105Y-112575148D01*
X131306691Y-112623218D01*
X131306638Y-112623322D01*
X131289259Y-112681695D01*
X131287672Y-112686650D01*
X131267888Y-112744281D01*
X131267875Y-112744369D01*
X131270392Y-112805214D01*
X131270500Y-112810421D01*
X131270500Y-114727574D01*
X131267818Y-114753432D01*
X131265580Y-114764100D01*
X131269532Y-114795796D01*
X131270500Y-114811382D01*
X131270500Y-114811448D01*
X131273955Y-114832159D01*
X131274705Y-114837304D01*
X131282241Y-114897751D01*
X131282276Y-114897861D01*
X131311255Y-114951410D01*
X131313638Y-114956039D01*
X131340406Y-115010793D01*
X131340461Y-115010866D01*
X131385284Y-115052130D01*
X131389041Y-115055735D01*
X142706208Y-126372902D01*
X142739337Y-126431381D01*
X142737688Y-126498572D01*
X142690757Y-126653284D01*
X142670397Y-126859999D01*
X142690757Y-127066713D01*
X142690757Y-127066715D01*
X142690758Y-127066718D01*
X142751055Y-127265492D01*
X142751056Y-127265494D01*
X142848972Y-127448682D01*
X142980747Y-127609252D01*
X143127549Y-127729728D01*
X143141317Y-127741027D01*
X143324508Y-127838945D01*
X143522240Y-127898926D01*
X143581474Y-127937669D01*
X143610475Y-128002236D01*
X143600089Y-128072251D01*
X143553594Y-128125619D01*
X143485663Y-128145500D01*
X141434337Y-128145500D01*
X141366406Y-128125619D01*
X141319911Y-128072251D01*
X141309525Y-128002236D01*
X141338526Y-127937669D01*
X141397759Y-127898926D01*
X141595492Y-127838945D01*
X141778683Y-127741027D01*
X141939252Y-127609252D01*
X142071027Y-127448683D01*
X142168945Y-127265492D01*
X142229242Y-127066718D01*
X142249602Y-126860000D01*
X142229242Y-126653282D01*
X142168945Y-126454508D01*
X142071027Y-126271317D01*
X142030068Y-126221408D01*
X141939252Y-126110747D01*
X141778682Y-125978972D01*
X141595494Y-125881056D01*
X141595493Y-125881055D01*
X141595492Y-125881055D01*
X141396718Y-125820758D01*
X141396715Y-125820757D01*
X141396713Y-125820757D01*
X141190000Y-125800397D01*
X140983286Y-125820757D01*
X140983283Y-125820757D01*
X140983282Y-125820758D01*
X140807040Y-125874220D01*
X140784505Y-125881056D01*
X140601317Y-125978972D01*
X140440746Y-126110748D01*
X140357640Y-126212014D01*
X140307164Y-126249017D01*
X140245112Y-126257168D01*
X140186792Y-126234458D01*
X140159809Y-126202259D01*
X140157616Y-126203902D01*
X140148993Y-126192390D01*
X140140596Y-126179637D01*
X140125474Y-126153326D01*
X140107182Y-126121499D01*
X140103288Y-126114174D01*
X140097775Y-126102926D01*
X140097647Y-126102759D01*
X140088545Y-126089070D01*
X140088444Y-126088895D01*
X140088443Y-126088893D01*
X140080191Y-126079446D01*
X140074956Y-126073039D01*
X140028986Y-126012828D01*
X140024277Y-126006227D01*
X140017184Y-125995576D01*
X140006342Y-125983164D01*
X140001586Y-125978973D01*
X139996746Y-125974707D01*
X139990818Y-125969132D01*
X139938037Y-125916185D01*
X139932466Y-125910223D01*
X139927723Y-125904805D01*
X139924079Y-125900642D01*
X139924071Y-125900635D01*
X139911645Y-125889710D01*
X139911639Y-125889704D01*
X139905642Y-125885684D01*
X139901058Y-125882611D01*
X139894437Y-125877855D01*
X139835600Y-125832622D01*
X139829159Y-125827322D01*
X139819820Y-125819101D01*
X139819818Y-125819099D01*
X139819816Y-125819098D01*
X139819545Y-125818941D01*
X139805959Y-125809836D01*
X139805715Y-125809648D01*
X139794567Y-125804138D01*
X139787199Y-125800187D01*
X139723152Y-125763052D01*
X139715775Y-125758427D01*
X139705907Y-125751754D01*
X139705131Y-125751428D01*
X139690810Y-125744301D01*
X139690081Y-125743878D01*
X139678808Y-125740028D01*
X139670694Y-125736940D01*
X139602133Y-125708096D01*
X139593844Y-125704248D01*
X139583846Y-125699156D01*
X139582357Y-125698737D01*
X139567698Y-125693610D01*
X139566274Y-125693011D01*
X139566272Y-125693010D01*
X139566271Y-125693010D01*
X139555282Y-125690760D01*
X139546380Y-125688598D01*
X139474063Y-125668219D01*
X139464827Y-125665227D01*
X139455070Y-125661646D01*
X139452735Y-125661280D01*
X139438080Y-125658078D01*
X139435811Y-125657438D01*
X139425451Y-125656625D01*
X139415810Y-125655493D01*
X139341626Y-125643867D01*
X139330628Y-125641637D01*
X139322779Y-125639678D01*
X139320483Y-125639567D01*
X139318097Y-125639451D01*
X139304698Y-125638081D01*
X139300091Y-125637359D01*
X139291998Y-125637690D01*
X139280781Y-125637648D01*
X139229203Y-125635157D01*
X139214651Y-125633408D01*
X139198587Y-125633496D01*
X139191825Y-125633351D01*
X139174688Y-125632523D01*
X139168019Y-125633127D01*
X139165104Y-125633222D01*
X139156291Y-125631974D01*
X139142328Y-125633076D01*
X139128916Y-125632996D01*
X139114419Y-125634532D01*
X139105244Y-125635166D01*
X139090305Y-125635652D01*
X139063562Y-125638306D01*
X139056470Y-125638087D01*
X139038806Y-125644774D01*
X139019795Y-125648952D01*
X138997656Y-125656050D01*
X138990335Y-125657213D01*
X138952001Y-125669654D01*
X138893757Y-125660332D01*
X138846138Y-125625523D01*
X138819580Y-125572855D01*
X138819902Y-125513871D01*
X138820366Y-125511989D01*
X138840390Y-125468612D01*
X138847107Y-125459269D01*
X138847110Y-125459261D01*
X138847151Y-125459205D01*
X138847180Y-125459140D01*
X138847185Y-125459134D01*
X138857594Y-125436211D01*
X138882270Y-125381963D01*
X138892637Y-125359286D01*
X138892637Y-125359285D01*
X138892737Y-125359067D01*
X138892793Y-125358824D01*
X138892797Y-125358818D01*
X138895154Y-125348774D01*
X138896390Y-125346039D01*
X138901460Y-125323794D01*
X138901463Y-125323792D01*
X138912441Y-125275632D01*
X138912538Y-125275215D01*
X138918012Y-125252099D01*
X138918012Y-125252091D01*
X138918257Y-125251058D01*
X138918651Y-125236928D01*
X138918940Y-125226522D01*
X138918972Y-125225523D01*
X138918987Y-125225115D01*
X138919694Y-125205517D01*
X138922034Y-125185486D01*
X138925447Y-125168331D01*
X138923926Y-125160686D01*
X138923077Y-125150634D01*
X138919809Y-125131420D01*
X138918124Y-125115305D01*
X138917822Y-125107708D01*
X138917561Y-125106625D01*
X138914831Y-125091024D01*
X138914710Y-125089928D01*
X138913109Y-125084873D01*
X138909011Y-125067954D01*
X138905843Y-125049332D01*
X138901354Y-125037919D01*
X138898669Y-125023828D01*
X138896130Y-125015911D01*
X138888617Y-124999637D01*
X138886223Y-124994107D01*
X138875250Y-124967002D01*
X138872601Y-124959842D01*
X138868156Y-124946611D01*
X138861761Y-124933457D01*
X138861305Y-124932763D01*
X138857853Y-124927505D01*
X138840724Y-124888024D01*
X138839065Y-124862974D01*
X138838426Y-124863033D01*
X138838148Y-124859997D01*
X138838144Y-124854515D01*
X138836865Y-124842599D01*
X138834935Y-124824611D01*
X138834742Y-124822654D01*
X138828987Y-124759536D01*
X138828752Y-124756571D01*
X138827390Y-124736116D01*
X138827389Y-124736112D01*
X138827181Y-124732987D01*
X138826292Y-124729978D01*
X138826292Y-124729975D01*
X138820482Y-124710308D01*
X138819664Y-124707409D01*
X138803824Y-124648548D01*
X138802939Y-124645054D01*
X138798412Y-124626025D01*
X138798410Y-124626022D01*
X138797540Y-124622362D01*
X138795868Y-124618981D01*
X138795868Y-124618979D01*
X138787234Y-124601518D01*
X138785648Y-124598189D01*
X138760555Y-124543466D01*
X138759039Y-124540025D01*
X138749999Y-124518649D01*
X138736363Y-124499801D01*
X138734226Y-124496752D01*
X138699964Y-124446286D01*
X138698150Y-124443537D01*
X138685470Y-124423762D01*
X138668766Y-124407304D01*
X138666488Y-124405000D01*
X138625925Y-124362879D01*
X138622043Y-124358658D01*
X138609745Y-124344659D01*
X138604358Y-124339849D01*
X138589080Y-124329219D01*
X138584424Y-124325819D01*
X138576122Y-124319460D01*
X138564210Y-124310335D01*
X138555352Y-124302879D01*
X138549801Y-124297753D01*
X138545360Y-124295034D01*
X138534538Y-124287607D01*
X138530400Y-124284438D01*
X138523629Y-124281106D01*
X138513480Y-124275518D01*
X138497993Y-124266038D01*
X138489579Y-124260411D01*
X138481676Y-124254653D01*
X138478972Y-124253402D01*
X138466110Y-124246521D01*
X138463570Y-124244966D01*
X138463568Y-124244965D01*
X138463566Y-124244964D01*
X138454392Y-124241584D01*
X138445054Y-124237711D01*
X138426599Y-124229174D01*
X138421088Y-124226460D01*
X138405459Y-124218283D01*
X138397207Y-124215182D01*
X138380080Y-124211046D01*
X138374147Y-124209459D01*
X138351992Y-124202951D01*
X138344614Y-124200535D01*
X138331785Y-124195890D01*
X138316989Y-124192607D01*
X138303409Y-124191391D01*
X138295701Y-124190460D01*
X138280506Y-124188148D01*
X138266559Y-124185211D01*
X138263177Y-124184296D01*
X138253950Y-124183668D01*
X138243563Y-124182527D01*
X138228392Y-124180219D01*
X138224753Y-124179865D01*
X138224712Y-124180825D01*
X138213825Y-124180356D01*
X138205773Y-124178019D01*
X138201178Y-124177573D01*
X138200288Y-124177356D01*
X138200499Y-124176489D01*
X138156454Y-124163711D01*
X138141394Y-124155054D01*
X138138994Y-124153639D01*
X138118720Y-124141380D01*
X138109082Y-124138129D01*
X138104025Y-124135275D01*
X138073856Y-124125624D01*
X138069341Y-124124085D01*
X138032602Y-124110779D01*
X138024712Y-124109666D01*
X138014655Y-124106274D01*
X138008585Y-124105584D01*
X138006352Y-124104878D01*
X137975406Y-124101551D01*
X137972671Y-124101226D01*
X137921434Y-124094580D01*
X137915647Y-124095016D01*
X137908957Y-124094255D01*
X137884433Y-124096451D01*
X137883666Y-124096518D01*
X137846326Y-124099630D01*
X137834320Y-124100631D01*
X137834319Y-124100631D01*
X137810965Y-124102578D01*
X137808928Y-124103166D01*
X137805895Y-124103431D01*
X137796215Y-124106274D01*
X137781947Y-124110464D01*
X137781784Y-124110511D01*
X137781689Y-124110539D01*
X137732734Y-124124802D01*
X137731947Y-124125029D01*
X137708245Y-124131767D01*
X137686237Y-124143219D01*
X137685516Y-124143591D01*
X137640857Y-124166464D01*
X137640238Y-124166779D01*
X137618133Y-124177946D01*
X137601426Y-124191173D01*
X137600918Y-124191573D01*
X137556704Y-124226207D01*
X137556672Y-124226232D01*
X137537701Y-124241082D01*
X137534774Y-124244488D01*
X137532013Y-124246674D01*
X137486266Y-124300918D01*
X137485508Y-124301808D01*
X137469556Y-124320370D01*
X137465572Y-124327589D01*
X137461424Y-124332598D01*
X137451017Y-124352275D01*
X137404112Y-124401618D01*
X137338384Y-124419357D01*
X137300397Y-124418979D01*
X137296640Y-124418885D01*
X137273442Y-124417961D01*
X137250623Y-124422264D01*
X137246921Y-124422905D01*
X137188233Y-124432167D01*
X137184748Y-124432667D01*
X137161615Y-124435657D01*
X137139670Y-124443739D01*
X137136354Y-124444907D01*
X137078599Y-124464362D01*
X137075643Y-124465318D01*
X137053119Y-124472291D01*
X137032717Y-124484007D01*
X137029997Y-124485524D01*
X136976062Y-124514745D01*
X136972428Y-124516638D01*
X136951797Y-124526962D01*
X136945181Y-124532454D01*
X136891583Y-124558601D01*
X136891212Y-124558682D01*
X136875830Y-124561057D01*
X136874539Y-124561175D01*
X136863535Y-124564429D01*
X136854821Y-124566670D01*
X136848101Y-124568145D01*
X136843032Y-124569149D01*
X136823150Y-124572665D01*
X136818675Y-124574018D01*
X136801526Y-124581521D01*
X136782044Y-124588206D01*
X136780883Y-124588500D01*
X136770890Y-124593265D01*
X136762394Y-124596938D01*
X136745207Y-124603631D01*
X136744823Y-124603827D01*
X136740174Y-124606811D01*
X136726361Y-124614498D01*
X136723597Y-124615816D01*
X136669723Y-124652006D01*
X136667542Y-124653439D01*
X136647495Y-124666310D01*
X136638181Y-124675670D01*
X136634105Y-124678450D01*
X136613651Y-124699557D01*
X136610624Y-124702576D01*
X136581689Y-124730474D01*
X136577457Y-124736697D01*
X136567797Y-124746404D01*
X136560849Y-124757168D01*
X136556714Y-124761507D01*
X136536195Y-124794460D01*
X136534177Y-124797597D01*
X136515519Y-124825671D01*
X136513670Y-124830250D01*
X136506831Y-124840844D01*
X136498336Y-124863371D01*
X136497599Y-124865276D01*
X136470890Y-124932763D01*
X136470882Y-124932760D01*
X136470248Y-124936100D01*
X136468461Y-124940434D01*
X136464667Y-124963322D01*
X136463983Y-124967092D01*
X136460580Y-124984350D01*
X136459850Y-124987794D01*
X136454696Y-125010559D01*
X136454705Y-125016379D01*
X136453470Y-125022565D01*
X136453241Y-125091205D01*
X136453199Y-125094087D01*
X136452578Y-125117755D01*
X136454758Y-125128908D01*
X136454777Y-125133915D01*
X136460739Y-125162375D01*
X136461596Y-125166876D01*
X136468557Y-125207406D01*
X136471601Y-125215076D01*
X136473897Y-125226820D01*
X136477124Y-125234393D01*
X136477666Y-125236928D01*
X136490647Y-125266816D01*
X136491645Y-125269178D01*
X136510235Y-125314483D01*
X136513030Y-125318635D01*
X136516422Y-125326593D01*
X136520317Y-125332213D01*
X136521161Y-125334141D01*
X136544664Y-125367655D01*
X136545548Y-125368933D01*
X136571683Y-125407196D01*
X136573537Y-125409001D01*
X136577493Y-125414709D01*
X136582976Y-125419950D01*
X136585176Y-125423054D01*
X136621714Y-125457279D01*
X136623134Y-125458630D01*
X136623729Y-125459205D01*
X136648299Y-125482951D01*
X136650063Y-125484080D01*
X136655300Y-125489086D01*
X136663970Y-125494478D01*
X136669125Y-125499214D01*
X136707876Y-125522288D01*
X136711042Y-125524237D01*
X136736731Y-125540578D01*
X136740287Y-125541936D01*
X136748407Y-125546985D01*
X136750743Y-125547813D01*
X136750746Y-125547815D01*
X136766053Y-125553242D01*
X136770910Y-125554964D01*
X136773147Y-125555781D01*
X136817142Y-125572341D01*
X136817142Y-125572340D01*
X136838431Y-125580354D01*
X136843644Y-125581221D01*
X136845770Y-125582029D01*
X136845771Y-125582029D01*
X136847882Y-125582831D01*
X136870795Y-125597392D01*
X136872097Y-125595374D01*
X136882533Y-125602105D01*
X136882534Y-125602106D01*
X136883915Y-125602997D01*
X136885021Y-125603710D01*
X136906103Y-125620784D01*
X136907286Y-125621974D01*
X136910637Y-125624229D01*
X136914714Y-125626973D01*
X136923284Y-125633281D01*
X136930275Y-125638899D01*
X136931769Y-125639678D01*
X136932040Y-125639819D01*
X136953367Y-125653855D01*
X136956302Y-125656245D01*
X136957629Y-125657326D01*
X136959049Y-125658078D01*
X136962087Y-125659688D01*
X136973451Y-125666496D01*
X136977642Y-125669316D01*
X136977645Y-125669318D01*
X136984745Y-125672286D01*
X136995125Y-125677192D01*
X136999864Y-125679702D01*
X137005126Y-125682490D01*
X137020554Y-125690760D01*
X137021317Y-125691169D01*
X137031753Y-125697816D01*
X137032992Y-125698131D01*
X137032994Y-125698133D01*
X137073541Y-125708462D01*
X137079138Y-125710027D01*
X137081864Y-125710858D01*
X137082527Y-125711060D01*
X137086893Y-125712478D01*
X137101113Y-125717385D01*
X137112275Y-125721237D01*
X137131660Y-125720064D01*
X137151758Y-125720454D01*
X137170017Y-125722275D01*
X137170017Y-125722274D01*
X137173301Y-125722602D01*
X137220769Y-125718833D01*
X137249891Y-125729435D01*
X137250756Y-125727184D01*
X137262351Y-125731634D01*
X137262352Y-125731635D01*
X137282968Y-125739548D01*
X137284746Y-125740248D01*
X137312043Y-125751228D01*
X137319739Y-125754627D01*
X137323407Y-125756396D01*
X137323409Y-125756396D01*
X137331488Y-125760292D01*
X137374579Y-125768050D01*
X137417163Y-125796364D01*
X137423140Y-125805581D01*
X137431276Y-125814080D01*
X137440587Y-125827496D01*
X137441546Y-125826774D01*
X137457446Y-125847855D01*
X137469517Y-125867314D01*
X137469571Y-125867422D01*
X137477087Y-125877098D01*
X137482063Y-125883970D01*
X137489778Y-125895416D01*
X137495121Y-125901324D01*
X137507694Y-125916835D01*
X137516304Y-125928832D01*
X137517764Y-125931140D01*
X137520554Y-125934075D01*
X137528737Y-125943588D01*
X137531928Y-125947695D01*
X137536727Y-125952655D01*
X137537538Y-125953656D01*
X137539648Y-125955409D01*
X137550431Y-125965493D01*
X137583407Y-126000172D01*
X137588380Y-126005722D01*
X137597634Y-126016687D01*
X137608000Y-126026191D01*
X137608454Y-126026511D01*
X137608456Y-126026513D01*
X137619716Y-126034453D01*
X137625692Y-126038939D01*
X137672916Y-126076623D01*
X137680082Y-126082795D01*
X137687982Y-126090134D01*
X137689660Y-126091168D01*
X137702153Y-126099953D01*
X137703686Y-126101176D01*
X137713270Y-126106131D01*
X137721465Y-126110765D01*
X137770542Y-126141006D01*
X137816177Y-126190042D01*
X137830231Y-126255539D01*
X137808731Y-126318984D01*
X137796430Y-126337127D01*
X137790755Y-126344847D01*
X137784167Y-126353130D01*
X137783166Y-126355074D01*
X137775448Y-126368074D01*
X137732834Y-126430933D01*
X137725701Y-126440454D01*
X137721198Y-126445907D01*
X137718505Y-126450908D01*
X137711874Y-126461851D01*
X137708676Y-126466569D01*
X137705923Y-126473091D01*
X137700785Y-126483818D01*
X137670564Y-126539947D01*
X137624236Y-126588386D01*
X137559623Y-126606214D01*
X134425738Y-126606214D01*
X134425738Y-128019500D01*
X134408857Y-128082500D01*
X134362738Y-128128619D01*
X134299738Y-128145500D01*
X130580500Y-128145500D01*
X130517500Y-128128619D01*
X130471381Y-128082500D01*
X130454500Y-128019500D01*
X130454500Y-110117413D01*
X130469912Y-110057028D01*
X130512379Y-110011415D01*
X130571511Y-109991734D01*
X130632842Y-110002799D01*
X130681368Y-110041904D01*
X130692809Y-110057188D01*
X130807911Y-110143353D01*
X130942624Y-110193597D01*
X131002172Y-110200000D01*
X131650000Y-110200000D01*
X131650000Y-109100000D01*
X132150000Y-109100000D01*
X132150000Y-110200000D01*
X132797828Y-110200000D01*
X132857375Y-110193597D01*
X132992088Y-110143353D01*
X133107189Y-110057189D01*
X133193353Y-109942088D01*
X133243597Y-109807375D01*
X133250000Y-109747828D01*
X133250000Y-109100000D01*
X132150000Y-109100000D01*
X131650000Y-109100000D01*
X131650000Y-106560000D01*
X132150000Y-106560000D01*
X132150000Y-108600000D01*
X133250000Y-108600000D01*
X133250000Y-107952172D01*
X133243597Y-107892624D01*
X133193352Y-107757909D01*
X133116695Y-107655509D01*
X133094442Y-107606782D01*
X133094442Y-107553215D01*
X133116695Y-107504488D01*
X133193353Y-107402088D01*
X133243597Y-107267375D01*
X133250000Y-107207828D01*
X133250000Y-106560000D01*
X132150000Y-106560000D01*
X131650000Y-106560000D01*
X131650000Y-106186000D01*
X131666881Y-106123000D01*
X131713000Y-106076881D01*
X131776000Y-106060000D01*
X133250000Y-106060000D01*
X133250000Y-105412172D01*
X133243597Y-105352624D01*
X133193353Y-105217911D01*
X133107189Y-105102810D01*
X132992088Y-105016646D01*
X132857375Y-104966402D01*
X132797828Y-104960000D01*
X132519015Y-104960000D01*
X132456688Y-104943505D01*
X132410680Y-104898340D01*
X132393037Y-104836329D01*
X132408377Y-104773708D01*
X132452684Y-104726873D01*
X132472297Y-104714729D01*
X132568462Y-104655186D01*
X132719732Y-104517285D01*
X132843088Y-104353935D01*
X132846684Y-104346713D01*
X132872765Y-104294337D01*
X132919225Y-104243373D01*
X132985555Y-104224500D01*
X138369550Y-104224500D01*
X138417768Y-104234091D01*
X138458645Y-104261405D01*
X142671990Y-108474750D01*
X142705119Y-108533230D01*
X142703469Y-108600421D01*
X142688207Y-108650730D01*
X142668581Y-108850000D01*
X142688207Y-109049269D01*
X142746332Y-109240878D01*
X142746333Y-109240880D01*
X142840722Y-109417469D01*
X142890355Y-109477948D01*
X142967747Y-109572252D01*
X143045139Y-109635764D01*
X143122531Y-109699278D01*
X143299120Y-109793667D01*
X143344309Y-109807375D01*
X143490730Y-109851792D01*
X143690000Y-109871418D01*
X143889269Y-109851792D01*
X144080880Y-109793667D01*
X144257469Y-109699278D01*
X144412252Y-109572252D01*
X144539278Y-109417469D01*
X144633667Y-109240880D01*
X144691792Y-109049269D01*
X144711418Y-108850000D01*
X144691792Y-108650731D01*
X144633667Y-108459120D01*
X144539278Y-108282531D01*
X144426331Y-108144903D01*
X144412252Y-108127747D01*
X144299120Y-108034904D01*
X144257469Y-108000722D01*
X144080880Y-107906333D01*
X144080879Y-107906332D01*
X144080878Y-107906332D01*
X143889269Y-107848207D01*
X143690000Y-107828581D01*
X143490730Y-107848207D01*
X143440421Y-107863469D01*
X143373230Y-107865119D01*
X143314750Y-107831990D01*
X141158279Y-105675519D01*
X138954434Y-103471673D01*
X138945018Y-103461137D01*
X138944515Y-103460506D01*
X138922631Y-103433064D01*
X138902179Y-103419120D01*
X138874983Y-103400577D01*
X138871143Y-103397852D01*
X138819812Y-103359969D01*
X138815317Y-103357700D01*
X138754341Y-103338892D01*
X138749863Y-103337419D01*
X138689639Y-103316345D01*
X138684663Y-103315500D01*
X138678505Y-103315500D01*
X138620868Y-103315500D01*
X138616157Y-103315412D01*
X138552371Y-103313025D01*
X138533574Y-103315500D01*
X132985555Y-103315500D01*
X132919225Y-103296627D01*
X132872765Y-103245663D01*
X132843089Y-103186066D01*
X132763291Y-103080397D01*
X132719732Y-103022715D01*
X132568462Y-102884814D01*
X132520087Y-102854861D01*
X132394428Y-102777056D01*
X132298991Y-102740083D01*
X132203556Y-102703112D01*
X132002347Y-102665500D01*
X131797653Y-102665500D01*
X131596443Y-102703112D01*
X131596444Y-102703112D01*
X131405571Y-102777056D01*
X131231539Y-102884813D01*
X131080267Y-103022716D01*
X130956910Y-103186066D01*
X130865672Y-103369297D01*
X130809654Y-103566180D01*
X130790767Y-103770000D01*
X130809654Y-103973819D01*
X130865672Y-104170702D01*
X130956910Y-104353933D01*
X130956912Y-104353935D01*
X131080268Y-104517285D01*
X131231538Y-104655186D01*
X131315225Y-104707003D01*
X131347316Y-104726873D01*
X131391623Y-104773708D01*
X131406963Y-104836329D01*
X131389320Y-104898340D01*
X131343312Y-104943505D01*
X131280985Y-104960000D01*
X131002172Y-104960000D01*
X130942624Y-104966402D01*
X130807911Y-105016646D01*
X130692809Y-105102811D01*
X130681368Y-105118096D01*
X130632842Y-105157201D01*
X130571511Y-105168266D01*
X130512379Y-105148585D01*
X130469912Y-105102972D01*
X130454500Y-105042587D01*
X130454500Y-101229999D01*
X130790767Y-101229999D01*
X130809654Y-101433819D01*
X130865672Y-101630702D01*
X130956910Y-101813933D01*
X130997231Y-101867326D01*
X131080268Y-101977285D01*
X131231538Y-102115186D01*
X131405573Y-102222944D01*
X131596444Y-102296888D01*
X131797653Y-102334500D01*
X132002345Y-102334500D01*
X132002347Y-102334500D01*
X132203556Y-102296888D01*
X132394427Y-102222944D01*
X132568462Y-102115186D01*
X132719732Y-101977285D01*
X132843088Y-101813935D01*
X132855533Y-101788943D01*
X132910111Y-101679337D01*
X132956571Y-101628373D01*
X133022901Y-101609500D01*
X134126561Y-101609500D01*
X134275845Y-101575427D01*
X134347373Y-101540980D01*
X134389831Y-101520535D01*
X134451565Y-101508255D01*
X134511536Y-101527370D01*
X134554778Y-101573109D01*
X134570500Y-101634057D01*
X134570500Y-101877558D01*
X134570514Y-101877733D01*
X134570512Y-101912424D01*
X134604579Y-102061709D01*
X134671011Y-102199671D01*
X134671012Y-102199673D01*
X134766479Y-102319393D01*
X134886194Y-102414867D01*
X135024153Y-102481308D01*
X135173438Y-102515382D01*
X135174986Y-102515382D01*
X135174992Y-102515383D01*
X135195436Y-102515383D01*
X135197792Y-102515383D01*
X135197877Y-102515400D01*
X135250000Y-102515400D01*
X135326563Y-102515400D01*
X135326564Y-102515400D01*
X135475853Y-102481325D01*
X135613815Y-102414883D01*
X135733533Y-102319406D01*
X135751497Y-102296877D01*
X135795339Y-102261913D01*
X135850011Y-102249434D01*
X135904682Y-102261913D01*
X135948524Y-102296878D01*
X135966476Y-102319391D01*
X136086193Y-102414866D01*
X136086194Y-102414867D01*
X136224153Y-102481308D01*
X136373438Y-102515382D01*
X136374986Y-102515382D01*
X136374992Y-102515383D01*
X136395436Y-102515383D01*
X136397792Y-102515383D01*
X136397877Y-102515400D01*
X136450000Y-102515400D01*
X136526563Y-102515400D01*
X136526564Y-102515400D01*
X136675853Y-102481325D01*
X136813815Y-102414883D01*
X136933533Y-102319406D01*
X137029003Y-102199682D01*
X137095437Y-102061716D01*
X137129504Y-101912426D01*
X137129500Y-101835861D01*
X137129500Y-101634057D01*
X137145222Y-101573109D01*
X137188464Y-101527370D01*
X137248435Y-101508255D01*
X137310169Y-101520535D01*
X137390567Y-101559252D01*
X137424155Y-101575427D01*
X137573439Y-101609500D01*
X137586673Y-101609500D01*
X137650000Y-101609500D01*
X137704564Y-101609500D01*
X138400616Y-101609500D01*
X138448834Y-101619091D01*
X138489711Y-101646405D01*
X145236676Y-108393370D01*
X145269805Y-108451849D01*
X145268155Y-108519041D01*
X145228209Y-108650730D01*
X145228207Y-108650735D01*
X145208581Y-108849999D01*
X145228207Y-109049269D01*
X145286332Y-109240878D01*
X145286333Y-109240880D01*
X145380722Y-109417469D01*
X145430355Y-109477948D01*
X145507747Y-109572252D01*
X145585139Y-109635764D01*
X145662531Y-109699278D01*
X145839120Y-109793667D01*
X145884309Y-109807375D01*
X146030730Y-109851792D01*
X146230000Y-109871418D01*
X146429269Y-109851792D01*
X146620880Y-109793667D01*
X146797469Y-109699278D01*
X146952252Y-109572252D01*
X147079278Y-109417469D01*
X147173667Y-109240880D01*
X147231792Y-109049269D01*
X147251418Y-108850000D01*
X147231792Y-108650731D01*
X147173667Y-108459120D01*
X147079278Y-108282531D01*
X146966331Y-108144903D01*
X146952252Y-108127747D01*
X146839120Y-108034904D01*
X146797469Y-108000722D01*
X146620880Y-107906333D01*
X146620879Y-107906332D01*
X146620878Y-107906332D01*
X146429269Y-107848207D01*
X146230000Y-107828581D01*
X146030735Y-107848207D01*
X146030732Y-107848207D01*
X146030731Y-107848208D01*
X145913446Y-107883786D01*
X145899041Y-107888156D01*
X145831849Y-107889805D01*
X145773370Y-107856676D01*
X138915418Y-100998724D01*
X138899030Y-100978544D01*
X138893067Y-100969417D01*
X138867855Y-100949793D01*
X138856153Y-100939458D01*
X138856117Y-100939422D01*
X138839032Y-100927223D01*
X138834863Y-100924114D01*
X138809981Y-100904749D01*
X138793119Y-100891625D01*
X138793117Y-100891624D01*
X138786767Y-100886682D01*
X138786692Y-100886643D01*
X138728311Y-100869262D01*
X138723353Y-100867673D01*
X138665722Y-100847888D01*
X138665630Y-100847875D01*
X138604786Y-100850392D01*
X138599579Y-100850500D01*
X137855500Y-100850500D01*
X137792500Y-100833619D01*
X137746381Y-100787500D01*
X137729500Y-100724500D01*
X137729500Y-100582275D01*
X137729464Y-100581852D01*
X137729469Y-100547627D01*
X137695412Y-100398336D01*
X137628986Y-100260368D01*
X137533523Y-100140642D01*
X137533521Y-100140641D01*
X137533521Y-100140640D01*
X137413809Y-100045162D01*
X137389060Y-100033242D01*
X137337046Y-99986754D01*
X137317736Y-99919718D01*
X137337051Y-99852684D01*
X137389066Y-99806201D01*
X137413808Y-99794287D01*
X137533525Y-99698814D01*
X137628995Y-99579095D01*
X137695432Y-99441133D01*
X137729502Y-99291847D01*
X137729500Y-99215284D01*
X137729500Y-99201752D01*
X137729500Y-99195500D01*
X137746381Y-99132500D01*
X137792500Y-99086381D01*
X137855500Y-99069500D01*
X138400616Y-99069500D01*
X138448834Y-99079091D01*
X138489711Y-99106405D01*
X147776676Y-108393370D01*
X147809805Y-108451849D01*
X147808155Y-108519041D01*
X147768209Y-108650730D01*
X147768207Y-108650735D01*
X147748581Y-108849999D01*
X147768207Y-109049269D01*
X147826332Y-109240878D01*
X147826333Y-109240880D01*
X147920722Y-109417469D01*
X147970355Y-109477948D01*
X148047747Y-109572252D01*
X148125139Y-109635764D01*
X148202531Y-109699278D01*
X148379120Y-109793667D01*
X148424309Y-109807375D01*
X148570730Y-109851792D01*
X148770000Y-109871418D01*
X148969269Y-109851792D01*
X149160880Y-109793667D01*
X149337469Y-109699278D01*
X149492252Y-109572252D01*
X149619278Y-109417469D01*
X149713667Y-109240880D01*
X149756403Y-109100000D01*
X150048000Y-109100000D01*
X150048000Y-109659828D01*
X150054402Y-109719375D01*
X150104646Y-109854088D01*
X150190810Y-109969189D01*
X150305911Y-110055353D01*
X150440624Y-110105597D01*
X150500172Y-110112000D01*
X151060000Y-110112000D01*
X151060000Y-109100000D01*
X151560000Y-109100000D01*
X151560000Y-110112000D01*
X152119828Y-110112000D01*
X152179375Y-110105597D01*
X152314088Y-110055353D01*
X152429189Y-109969189D01*
X152515353Y-109854088D01*
X152565597Y-109719375D01*
X152572000Y-109659828D01*
X152572000Y-109100000D01*
X151560000Y-109100000D01*
X151060000Y-109100000D01*
X150048000Y-109100000D01*
X149756403Y-109100000D01*
X149771792Y-109049269D01*
X149791418Y-108850000D01*
X149791418Y-108849999D01*
X152828581Y-108849999D01*
X152848207Y-109049269D01*
X152906332Y-109240878D01*
X152906333Y-109240880D01*
X153000722Y-109417469D01*
X153050355Y-109477948D01*
X153127747Y-109572252D01*
X153205139Y-109635764D01*
X153282531Y-109699278D01*
X153459120Y-109793667D01*
X153504309Y-109807375D01*
X153650730Y-109851792D01*
X153850000Y-109871418D01*
X154049269Y-109851792D01*
X154240880Y-109793667D01*
X154417469Y-109699278D01*
X154572252Y-109572252D01*
X154699278Y-109417469D01*
X154793667Y-109240880D01*
X154851792Y-109049269D01*
X154871418Y-108850000D01*
X154851792Y-108650731D01*
X154793667Y-108459120D01*
X154699278Y-108282531D01*
X154586331Y-108144903D01*
X154572252Y-108127747D01*
X154459120Y-108034904D01*
X154417469Y-108000722D01*
X154240880Y-107906333D01*
X154240879Y-107906332D01*
X154240878Y-107906332D01*
X154049269Y-107848207D01*
X153850000Y-107828581D01*
X153650730Y-107848207D01*
X153459121Y-107906332D01*
X153282532Y-108000721D01*
X153127747Y-108127747D01*
X153000721Y-108282532D01*
X152906332Y-108459121D01*
X152848207Y-108650730D01*
X152828581Y-108849999D01*
X149791418Y-108849999D01*
X149771792Y-108650731D01*
X149756403Y-108600000D01*
X150048000Y-108600000D01*
X151060000Y-108600000D01*
X151060000Y-107588000D01*
X151560000Y-107588000D01*
X151560000Y-108600000D01*
X152572000Y-108600000D01*
X152572000Y-108040172D01*
X152565597Y-107980624D01*
X152515353Y-107845911D01*
X152429189Y-107730810D01*
X152314088Y-107644646D01*
X152179375Y-107594402D01*
X152119828Y-107588000D01*
X151560000Y-107588000D01*
X151060000Y-107588000D01*
X150500172Y-107588000D01*
X150440624Y-107594402D01*
X150305911Y-107644646D01*
X150190810Y-107730810D01*
X150104646Y-107845911D01*
X150054402Y-107980624D01*
X150048000Y-108040172D01*
X150048000Y-108600000D01*
X149756403Y-108600000D01*
X149713667Y-108459120D01*
X149619278Y-108282531D01*
X149506331Y-108144903D01*
X149492252Y-108127747D01*
X149379120Y-108034904D01*
X149337469Y-108000722D01*
X149160880Y-107906333D01*
X149160879Y-107906332D01*
X149160878Y-107906332D01*
X148969269Y-107848207D01*
X148770000Y-107828581D01*
X148570735Y-107848207D01*
X148570732Y-107848207D01*
X148570731Y-107848208D01*
X148453446Y-107883786D01*
X148439041Y-107888156D01*
X148371849Y-107889805D01*
X148313370Y-107856676D01*
X138915418Y-98458724D01*
X138899030Y-98438544D01*
X138893067Y-98429417D01*
X138867855Y-98409793D01*
X138856153Y-98399458D01*
X138856117Y-98399422D01*
X138839032Y-98387223D01*
X138834863Y-98384114D01*
X138809981Y-98364749D01*
X138793119Y-98351625D01*
X138793117Y-98351624D01*
X138786767Y-98346682D01*
X138786692Y-98346643D01*
X138728311Y-98329262D01*
X138723353Y-98327673D01*
X138665722Y-98307888D01*
X138665630Y-98307875D01*
X138604786Y-98310392D01*
X138599579Y-98310500D01*
X137573439Y-98310500D01*
X137424153Y-98344573D01*
X137310169Y-98399465D01*
X137248435Y-98411745D01*
X137188464Y-98392630D01*
X137145222Y-98346891D01*
X137129500Y-98285943D01*
X137129500Y-98122687D01*
X137129473Y-98122372D01*
X137129477Y-98088204D01*
X137095416Y-97938916D01*
X137028988Y-97800952D01*
X137028987Y-97800951D01*
X137028987Y-97800950D01*
X136933522Y-97681226D01*
X136813808Y-97585749D01*
X136675848Y-97519307D01*
X136675846Y-97519306D01*
X136675845Y-97519306D01*
X136526564Y-97485231D01*
X136515564Y-97485230D01*
X136504566Y-97485230D01*
X136504565Y-97485230D01*
X136502221Y-97485230D01*
X136502070Y-97485200D01*
X136450000Y-97485200D01*
X136373434Y-97485200D01*
X136224141Y-97519277D01*
X136224139Y-97519277D01*
X136224138Y-97519278D01*
X136086179Y-97585721D01*
X136086177Y-97585722D01*
X136086176Y-97585723D01*
X135992570Y-97660378D01*
X135966456Y-97681205D01*
X135870985Y-97800936D01*
X135804554Y-97938907D01*
X135770492Y-98088200D01*
X135770500Y-98164692D01*
X135770500Y-98285943D01*
X135754778Y-98346891D01*
X135711536Y-98392630D01*
X135651565Y-98411745D01*
X135589831Y-98399465D01*
X135475846Y-98344573D01*
X135326561Y-98310500D01*
X135313327Y-98310500D01*
X133022901Y-98310500D01*
X132956571Y-98291627D01*
X132910111Y-98240663D01*
X132843089Y-98106066D01*
X132795621Y-98043209D01*
X132719732Y-97942715D01*
X132568462Y-97804814D01*
X132455938Y-97735142D01*
X132394428Y-97697056D01*
X132239477Y-97637028D01*
X132203556Y-97623112D01*
X132002347Y-97585500D01*
X131797653Y-97585500D01*
X131596444Y-97623111D01*
X131596444Y-97623112D01*
X131405571Y-97697056D01*
X131231539Y-97804813D01*
X131080267Y-97942716D01*
X130956910Y-98106066D01*
X130865672Y-98289297D01*
X130809654Y-98486180D01*
X130790767Y-98690000D01*
X130809654Y-98893819D01*
X130865672Y-99090702D01*
X130956910Y-99273933D01*
X130970438Y-99291847D01*
X131080268Y-99437285D01*
X131231538Y-99575186D01*
X131338353Y-99641323D01*
X131394813Y-99676282D01*
X131405573Y-99682944D01*
X131596444Y-99756888D01*
X131797653Y-99794500D01*
X132002345Y-99794500D01*
X132002347Y-99794500D01*
X132203556Y-99756888D01*
X132394427Y-99682944D01*
X132568462Y-99575186D01*
X132719732Y-99437285D01*
X132843088Y-99273935D01*
X132851524Y-99256993D01*
X132910111Y-99139337D01*
X132956571Y-99088373D01*
X133022901Y-99069500D01*
X135044500Y-99069500D01*
X135107500Y-99086381D01*
X135153619Y-99132500D01*
X135170500Y-99195500D01*
X135170500Y-99256993D01*
X135170526Y-99257307D01*
X135170523Y-99291796D01*
X135204583Y-99441082D01*
X135271011Y-99579047D01*
X135271012Y-99579048D01*
X135271013Y-99579050D01*
X135366478Y-99698774D01*
X135486192Y-99794251D01*
X135510924Y-99806162D01*
X135562939Y-99852647D01*
X135582251Y-99919682D01*
X135562939Y-99986717D01*
X135510923Y-100033203D01*
X135486184Y-100045117D01*
X135366464Y-100140595D01*
X135348499Y-100163124D01*
X135304657Y-100198087D01*
X135249986Y-100210565D01*
X135195316Y-100198086D01*
X135151474Y-100163121D01*
X135133547Y-100140640D01*
X135133521Y-100140607D01*
X135133518Y-100140605D01*
X135013805Y-100045132D01*
X134917612Y-99998806D01*
X134875847Y-99978692D01*
X134726562Y-99944618D01*
X134704566Y-99944617D01*
X134704565Y-99944617D01*
X134702208Y-99944617D01*
X134702123Y-99944600D01*
X134650000Y-99944600D01*
X134573436Y-99944600D01*
X134424147Y-99978675D01*
X134424144Y-99978676D01*
X134424145Y-99978676D01*
X134286185Y-100045116D01*
X134166467Y-100140593D01*
X134070996Y-100260319D01*
X134004562Y-100398284D01*
X133970495Y-100547572D01*
X133970500Y-100624089D01*
X133970500Y-100724500D01*
X133953619Y-100787500D01*
X133907500Y-100833619D01*
X133844500Y-100850500D01*
X133022901Y-100850500D01*
X132956571Y-100831627D01*
X132910111Y-100780663D01*
X132843089Y-100646066D01*
X132768711Y-100547574D01*
X132719732Y-100482715D01*
X132568462Y-100344814D01*
X132502450Y-100303941D01*
X132394428Y-100237056D01*
X132272709Y-100189902D01*
X132203556Y-100163112D01*
X132002347Y-100125500D01*
X131797653Y-100125500D01*
X131596443Y-100163112D01*
X131596444Y-100163112D01*
X131405571Y-100237056D01*
X131231539Y-100344813D01*
X131080267Y-100482716D01*
X130956910Y-100646066D01*
X130865672Y-100829297D01*
X130809654Y-101026180D01*
X130790767Y-101229999D01*
X130454500Y-101229999D01*
X130454500Y-96149999D01*
X130790767Y-96149999D01*
X130809654Y-96353819D01*
X130865672Y-96550702D01*
X130956910Y-96733933D01*
X130956912Y-96733935D01*
X131080268Y-96897285D01*
X131231538Y-97035186D01*
X131405573Y-97142944D01*
X131596444Y-97216888D01*
X131797653Y-97254500D01*
X132002345Y-97254500D01*
X132002347Y-97254500D01*
X132203556Y-97216888D01*
X132394427Y-97142944D01*
X132568462Y-97035186D01*
X132719732Y-96897285D01*
X132843088Y-96733935D01*
X132934328Y-96550701D01*
X132990345Y-96353821D01*
X133009232Y-96150000D01*
X140128581Y-96150000D01*
X140148207Y-96349269D01*
X140201591Y-96525249D01*
X140206333Y-96540880D01*
X140300722Y-96717469D01*
X140350355Y-96777948D01*
X140427747Y-96872252D01*
X140505139Y-96935764D01*
X140582531Y-96999278D01*
X140759120Y-97093667D01*
X140854925Y-97122729D01*
X140950730Y-97151792D01*
X141150000Y-97171418D01*
X141349269Y-97151792D01*
X141540880Y-97093667D01*
X141717469Y-96999278D01*
X141872252Y-96872252D01*
X141999278Y-96717469D01*
X142093667Y-96540880D01*
X142151792Y-96349269D01*
X142171418Y-96150000D01*
X142151792Y-95950731D01*
X142150411Y-95946180D01*
X142093667Y-95759121D01*
X142093667Y-95759120D01*
X141999278Y-95582531D01*
X141935765Y-95505139D01*
X141872252Y-95427747D01*
X141765539Y-95340172D01*
X141717469Y-95300722D01*
X141540880Y-95206333D01*
X141540879Y-95206332D01*
X141540878Y-95206332D01*
X141349269Y-95148207D01*
X141150000Y-95128581D01*
X140950730Y-95148207D01*
X140759121Y-95206332D01*
X140582532Y-95300721D01*
X140427747Y-95427747D01*
X140300721Y-95582532D01*
X140206332Y-95759121D01*
X140148207Y-95950730D01*
X140128581Y-96150000D01*
X133009232Y-96150000D01*
X132990345Y-95946179D01*
X132934328Y-95749299D01*
X132851288Y-95582532D01*
X132843089Y-95566066D01*
X132812886Y-95526072D01*
X132719732Y-95402715D01*
X132568462Y-95264814D01*
X132484920Y-95213087D01*
X132394428Y-95157056D01*
X132298991Y-95120083D01*
X132203556Y-95083112D01*
X132002347Y-95045500D01*
X131797653Y-95045500D01*
X131596443Y-95083112D01*
X131596444Y-95083112D01*
X131405571Y-95157056D01*
X131231539Y-95264813D01*
X131080267Y-95402716D01*
X130956910Y-95566066D01*
X130865672Y-95749297D01*
X130809654Y-95946180D01*
X130790767Y-96149999D01*
X130454500Y-96149999D01*
X130454500Y-77480500D01*
X130471381Y-77417500D01*
X130517500Y-77371381D01*
X130580500Y-77354500D01*
X131673800Y-77354500D01*
X131741731Y-77374381D01*
G37*
%TD.AperFunction*%
%TA.AperFunction,Conductor*%
G36*
X170138601Y-91038777D02*
G01*
X170189051Y-91066037D01*
X170275471Y-91142599D01*
X170416207Y-91216463D01*
X170570529Y-91254500D01*
X170729469Y-91254500D01*
X170729471Y-91254500D01*
X170883793Y-91216463D01*
X171024529Y-91142599D01*
X171088203Y-91086188D01*
X171127078Y-91062688D01*
X171171758Y-91054500D01*
X172569550Y-91054500D01*
X172617768Y-91064091D01*
X172658645Y-91091405D01*
X173264524Y-91697284D01*
X173297136Y-91753767D01*
X173297136Y-91818989D01*
X173264525Y-91875474D01*
X173250000Y-91889999D01*
X173250000Y-94490000D01*
X173847828Y-94490000D01*
X173907375Y-94483597D01*
X174042088Y-94433353D01*
X174157189Y-94347189D01*
X174243354Y-94232087D01*
X174251444Y-94210397D01*
X174292558Y-94154649D01*
X174356925Y-94129057D01*
X174425093Y-94141356D01*
X174476460Y-94187828D01*
X174495500Y-94254428D01*
X174495500Y-114871542D01*
X174484399Y-114923254D01*
X174464777Y-114949921D01*
X174465193Y-114950208D01*
X174366213Y-115093604D01*
X174342812Y-115155308D01*
X174308553Y-115204940D01*
X174255154Y-115232966D01*
X174194846Y-115232966D01*
X174141447Y-115204940D01*
X174107188Y-115155308D01*
X174096073Y-115126000D01*
X174083787Y-115093605D01*
X173993498Y-114962799D01*
X173874529Y-114857401D01*
X173733793Y-114783537D01*
X173579471Y-114745500D01*
X173434384Y-114745500D01*
X173386166Y-114735909D01*
X173345289Y-114708595D01*
X170396693Y-111759999D01*
X171940397Y-111759999D01*
X171960757Y-111966713D01*
X171960757Y-111966715D01*
X171960758Y-111966718D01*
X172016523Y-112150551D01*
X172021056Y-112165494D01*
X172118972Y-112348682D01*
X172250747Y-112509252D01*
X172389743Y-112623322D01*
X172411317Y-112641027D01*
X172594508Y-112738945D01*
X172793282Y-112799242D01*
X173000000Y-112819602D01*
X173206718Y-112799242D01*
X173405492Y-112738945D01*
X173588683Y-112641027D01*
X173749252Y-112509252D01*
X173881027Y-112348683D01*
X173978945Y-112165492D01*
X174039242Y-111966718D01*
X174059602Y-111760000D01*
X174039242Y-111553282D01*
X173978945Y-111354508D01*
X173881027Y-111171317D01*
X173881026Y-111171316D01*
X173749252Y-111010747D01*
X173588682Y-110878972D01*
X173405494Y-110781056D01*
X173405493Y-110781055D01*
X173405492Y-110781055D01*
X173206718Y-110720758D01*
X173206715Y-110720757D01*
X173206713Y-110720757D01*
X173000000Y-110700397D01*
X172793286Y-110720757D01*
X172793283Y-110720757D01*
X172793282Y-110720758D01*
X172594508Y-110781055D01*
X172594505Y-110781056D01*
X172411317Y-110878972D01*
X172250747Y-111010747D01*
X172118972Y-111171317D01*
X172021056Y-111354505D01*
X172021055Y-111354507D01*
X172021055Y-111354508D01*
X171973888Y-111510000D01*
X171960757Y-111553286D01*
X171940397Y-111759999D01*
X170396693Y-111759999D01*
X170016405Y-111379711D01*
X169989091Y-111338834D01*
X169979500Y-111290616D01*
X169979500Y-104140000D01*
X171940397Y-104140000D01*
X171960757Y-104346713D01*
X171960757Y-104346715D01*
X171960758Y-104346718D01*
X172012498Y-104517283D01*
X172021056Y-104545494D01*
X172118972Y-104728682D01*
X172250747Y-104889252D01*
X172336955Y-104960000D01*
X172411317Y-105021027D01*
X172594508Y-105118945D01*
X172793282Y-105179242D01*
X173000000Y-105199602D01*
X173206718Y-105179242D01*
X173405492Y-105118945D01*
X173588683Y-105021027D01*
X173749252Y-104889252D01*
X173881027Y-104728683D01*
X173978945Y-104545492D01*
X174039242Y-104346718D01*
X174059602Y-104140000D01*
X174039242Y-103933282D01*
X173978945Y-103734508D01*
X173881027Y-103551317D01*
X173872100Y-103540439D01*
X173749252Y-103390747D01*
X173588682Y-103258972D01*
X173405494Y-103161056D01*
X173405493Y-103161055D01*
X173405492Y-103161055D01*
X173206718Y-103100758D01*
X173206715Y-103100757D01*
X173206713Y-103100757D01*
X173000000Y-103080397D01*
X172793286Y-103100757D01*
X172793283Y-103100757D01*
X172793282Y-103100758D01*
X172594508Y-103161055D01*
X172594505Y-103161056D01*
X172411317Y-103258972D01*
X172250747Y-103390747D01*
X172118972Y-103551317D01*
X172021056Y-103734505D01*
X171960757Y-103933286D01*
X171940397Y-104140000D01*
X169979500Y-104140000D01*
X169979500Y-100809999D01*
X171940397Y-100809999D01*
X171960757Y-101016713D01*
X171960757Y-101016715D01*
X171960758Y-101016718D01*
X172021055Y-101215492D01*
X172021056Y-101215494D01*
X172118972Y-101398682D01*
X172250747Y-101559252D01*
X172397073Y-101679337D01*
X172411317Y-101691027D01*
X172594508Y-101788945D01*
X172793282Y-101849242D01*
X173000000Y-101869602D01*
X173206718Y-101849242D01*
X173405492Y-101788945D01*
X173588683Y-101691027D01*
X173749252Y-101559252D01*
X173881027Y-101398683D01*
X173978945Y-101215492D01*
X174039242Y-101016718D01*
X174059602Y-100810000D01*
X174039242Y-100603282D01*
X173978945Y-100404508D01*
X173881027Y-100221317D01*
X173861961Y-100198085D01*
X173749252Y-100060747D01*
X173588682Y-99928972D01*
X173405494Y-99831056D01*
X173405493Y-99831055D01*
X173405492Y-99831055D01*
X173206718Y-99770758D01*
X173206715Y-99770757D01*
X173206713Y-99770757D01*
X173000000Y-99750397D01*
X172793286Y-99770757D01*
X172793283Y-99770757D01*
X172793282Y-99770758D01*
X172628499Y-99820744D01*
X172594505Y-99831056D01*
X172411317Y-99928972D01*
X172250747Y-100060747D01*
X172118972Y-100221317D01*
X172021056Y-100404505D01*
X172021055Y-100404507D01*
X172021055Y-100404508D01*
X171967131Y-100582275D01*
X171960757Y-100603286D01*
X171940397Y-100809999D01*
X169979500Y-100809999D01*
X169979500Y-93440000D01*
X171700000Y-93440000D01*
X171700000Y-94037828D01*
X171706402Y-94097375D01*
X171756646Y-94232088D01*
X171842810Y-94347189D01*
X171957911Y-94433353D01*
X172092624Y-94483597D01*
X172152172Y-94490000D01*
X172750000Y-94490000D01*
X172750000Y-93440000D01*
X171700000Y-93440000D01*
X169979500Y-93440000D01*
X169979500Y-92940000D01*
X171700000Y-92940000D01*
X172750000Y-92940000D01*
X172750000Y-91890000D01*
X172152172Y-91890000D01*
X172092624Y-91896402D01*
X171957911Y-91946646D01*
X171842810Y-92032810D01*
X171756646Y-92147911D01*
X171706402Y-92282624D01*
X171700000Y-92342172D01*
X171700000Y-92940000D01*
X169979500Y-92940000D01*
X169979500Y-91160351D01*
X169992550Y-91104509D01*
X170028998Y-91060234D01*
X170081292Y-91036698D01*
X170138601Y-91038777D01*
G37*
%TD.AperFunction*%
%TD*%
%TA.AperFunction,Conductor*%
%TO.N,Net-(U1-VO)*%
G36*
X155787000Y-115016881D02*
G01*
X155833119Y-115063000D01*
X155850000Y-115126000D01*
X155850000Y-121024000D01*
X155833119Y-121087000D01*
X155787000Y-121133119D01*
X155724000Y-121150000D01*
X153400000Y-121150000D01*
X153400000Y-123574000D01*
X153383119Y-123637000D01*
X153337000Y-123683119D01*
X153274000Y-123700000D01*
X151626000Y-123700000D01*
X151563000Y-123683119D01*
X151516881Y-123637000D01*
X151500000Y-123574000D01*
X151500000Y-121150000D01*
X149176000Y-121150000D01*
X149113000Y-121133119D01*
X149066881Y-121087000D01*
X149050000Y-121024000D01*
X149050000Y-115126000D01*
X149066881Y-115063000D01*
X149113000Y-115016881D01*
X149176000Y-115000000D01*
X155724000Y-115000000D01*
X155787000Y-115016881D01*
G37*
%TD.AperFunction*%
%TD*%
M02*
