G04 This is an RS-274x file exported by *
G04 gerbv version 2.6A *
G04 More information is available about gerbv at *
G04 http://gerbv.geda-project.org/ *
G04 --End of header info--*
%MOIN*%
%FSLAX34Y34*%
%IPPOS*%
G04 --Define apertures--*
%ADD10C,0.0079*%
%ADD11C,0.0630*%
%ADD12R,0.0630X0.0630*%
%ADD13C,0.0600*%
%ADD14R,0.0600X0.0600*%
%ADD15O,0.0669X0.0669*%
%ADD16R,0.0669X0.0669*%
%ADD17O,0.0728X0.1200*%
%AMMACRO18*
4,1,4,0.018209,-0.041791,0.018209,0.041791,-0.018209,0.041791,-0.018209,-0.041791,0.018209,-0.041791,0.000000*
1,1,0.036417,0.018209,-0.041791*
1,1,0.036417,0.018209,0.041791*
1,1,0.036417,-0.018209,0.041791*
1,1,0.036417,-0.018209,-0.041791*
20,1,0.036417,0.018209,-0.041791,0.018209,0.041791,0.000000*
20,1,0.036417,0.018209,0.041791,-0.018209,0.041791,0.000000*
20,1,0.036417,-0.018209,0.041791,-0.018209,-0.041791,0.000000*
20,1,0.036417,-0.018209,-0.041791,0.018209,-0.041791,0.000000*
%
%ADD18MACRO18*%
%ADD19O,0.0630X0.0630*%
G04 --Start main section--*
G54D11*
G01X0068110Y-039689D03*
G54D12*
G01X0068110Y-036689D03*
G54D13*
G01X0055571Y-042854D03*
G01X0056571Y-042854D03*
G01X0057571Y-042854D03*
G01X0058571Y-042854D03*
G54D14*
G01X0059571Y-042854D03*
G54D13*
G01X0060571Y-042854D03*
G01X0060571Y-037854D03*
G54D14*
G01X0059571Y-037854D03*
G54D13*
G01X0058571Y-037854D03*
G01X0057571Y-037854D03*
G01X0056571Y-037854D03*
G01X0055571Y-037854D03*
G54D15*
G01X0051929Y-037854D03*
G01X0051929Y-038854D03*
G01X0051929Y-039854D03*
G01X0051929Y-040854D03*
G54D16*
G01X0051929Y-041854D03*
G01X0051929Y-042854D03*
G54D17*
G01X0063976Y-042811D03*
G01X0063976Y-037890D03*
G54D18*
G01X0065945Y-042811D03*
G01X0065945Y-037890D03*
G54D11*
G01X0055587Y-049945D03*
G54D19*
G01X0056587Y-049945D03*
G01X0057587Y-049945D03*
G01X0058587Y-049945D03*
G01X0059587Y-049945D03*
G54D12*
G01X0060587Y-049945D03*
G01X0061587Y-049945D03*
G54D19*
G01X0062587Y-049945D03*
G01X0064587Y-049945D03*
G01X0065587Y-049945D03*
G01X0066587Y-049945D03*
G01X0067587Y-049945D03*
G01X0068587Y-049945D03*
G01X0069587Y-049945D03*
G01X0069587Y-030945D03*
G01X0068587Y-030945D03*
G01X0067587Y-030945D03*
G01X0066587Y-030945D03*
G01X0065587Y-030945D03*
G01X0064587Y-030945D03*
G01X0063587Y-030945D03*
G01X0062587Y-030945D03*
G01X0060988Y-030945D03*
G01X0059988Y-030945D03*
G01X0058988Y-030945D03*
G01X0057988Y-030945D03*
G01X0056988Y-030945D03*
G01X0055988Y-030945D03*
G54D12*
G01X0054988Y-030945D03*
G54D19*
G01X0053988Y-030945D03*
G01X0052988Y-030945D03*
G01X0051988Y-030945D03*
G54D11*
G01X0069488Y-036689D03*
G54D19*
G01X0069488Y-039689D03*
G54D16*
G01X0069580Y-031940D03*
G54D15*
G01X0069580Y-032940D03*
G01X0069580Y-033940D03*
G01X0069580Y-034940D03*
G54D11*
G01X0068110Y-044000D03*
G54D19*
G01X0068110Y-041000D03*
G54D11*
G01X0069488Y-041000D03*
G54D12*
G01X0069488Y-044000D03*
G54D16*
G01X0069580Y-048940D03*
G54D15*
G01X0069580Y-047940D03*
G01X0069580Y-046940D03*
G01X0069580Y-045940D03*
M02*
