M48
; DRILL file {KiCad 7.0.1} date Sat May  6 15:11:31 2023
; FORMAT={-:-/ absolute / inch / decimal}
; #@! TF.CreationDate,2023-05-06T15:11:31-03:00
; #@! TF.GenerationSoftware,Kicad,Pcbnew,7.0.1
; #@! TF.FileFunction,Plated,1,2,PTH
FMAT,2
INCH
; #@! TA.AperFunction,Plated,PTH,ViaDrill
T1C0.0157
; #@! TA.AperFunction,Plated,PTH,ComponentDrill
T2C0.0300
; #@! TA.AperFunction,Plated,PTH,ComponentDrill
T3C0.0315
; #@! TA.AperFunction,Plated,PTH,ComponentDrill
T4C0.0394
; #@! TA.AperFunction,Plated,PTH,ComponentDrill
T5C0.0512
%
G90
G05
T1
X5.2382Y-4.4843
X5.2717Y-4.185
X5.2717Y-4.2854
X5.2776Y-5.0079
X5.3642Y-4.2343
X5.3917Y-4.4567
X5.5Y-3.1654
X5.5Y-4.5197
X5.8307Y-4.8228
X5.8445Y-4.4232
X5.9055Y-4.5472
X5.9055Y-4.5866
X5.9055Y-4.626
X5.9055Y-4.6654
X5.9055Y-4.7047
X5.9055Y-4.7441
X5.9114Y-4.9252
X5.9311Y-4.4016
X5.9567Y-3.7185
X5.9567Y-4.3524
X6.0591Y-4.9252
X6.1024Y-4.5472
X6.1024Y-4.5866
X6.1024Y-4.626
X6.1024Y-4.6654
X6.1024Y-4.7047
X6.1024Y-4.7441
X6.1575Y-4.9252
X6.2874Y-3.9154
X6.5394Y-4.4685
X6.5394Y-4.8937
X6.5925Y-3.8878
X6.5984Y-3.2913
X6.7185Y-3.3937
X6.7185Y-3.4941
X6.7185Y-3.5669
X6.7185Y-4.5945
X6.7185Y-4.6949
X6.7185Y-4.8445
X6.8228Y-3.2953
X6.8307Y-4.5433
X6.8307Y-4.7461
X6.8346Y-3.1929
X6.8878Y-4.5433
X6.8878Y-4.794
X6.8898Y-4.8937
T2
X5.5571Y-3.7854
X5.5571Y-4.2854
X5.6571Y-3.7854
X5.6571Y-4.2854
X5.7571Y-3.7854
X5.7571Y-4.2854
X5.8571Y-3.7854
X5.8571Y-4.2854
X5.9571Y-3.7854
X5.9571Y-4.2854
X6.0571Y-3.7854
X6.0571Y-4.2854
T3
X6.811Y-3.6689
X6.811Y-3.9689
X6.811Y-4.1
X6.811Y-4.4
X6.9488Y-3.6689
X6.9488Y-3.9689
X6.9488Y-4.1
X6.9488Y-4.4
T4
X5.1929Y-3.7854
X5.1929Y-3.8854
X5.1929Y-3.9854
X5.1929Y-4.0854
X5.1929Y-4.1854
X5.1929Y-4.2854
X5.1988Y-3.0945
X5.2988Y-3.0945
X5.3988Y-3.0945
X5.4988Y-3.0945
X5.5587Y-4.9945
X5.5988Y-3.0945
X5.6587Y-4.9945
X5.6988Y-3.0945
X5.7587Y-4.9945
X5.7988Y-3.0945
X5.8587Y-4.9945
X5.8988Y-3.0945
X5.9587Y-4.9945
X5.9988Y-3.0945
X6.0587Y-4.9945
X6.0988Y-3.0945
X6.1587Y-4.9945
X6.2587Y-3.0945
X6.2587Y-4.9945
X6.3587Y-3.0945
X6.4587Y-3.0945
X6.4587Y-4.9945
X6.5587Y-3.0945
X6.5587Y-4.9945
X6.6587Y-3.0945
X6.6587Y-4.9945
X6.7587Y-3.0945
X6.7587Y-4.9945
X6.8587Y-3.0945
X6.8587Y-4.9945
X6.958Y-3.194
X6.958Y-3.294
X6.958Y-3.394
X6.958Y-3.494
X6.958Y-4.594
X6.958Y-4.694
X6.958Y-4.794
X6.958Y-4.894
X6.9587Y-3.0945
X6.9587Y-4.9945
T5
X6.3976Y-3.789
X6.3976Y-4.2811
X6.5945Y-3.789
X6.5945Y-4.2811
T0
M30
