M48
; DRILL file {KiCad 7.0.1} date Sat May  6 15:08:37 2023
; FORMAT={-:-/ absolute / inch / decimal}
; #@! TF.CreationDate,2023-05-06T15:08:37-03:00
; #@! TF.GenerationSoftware,Kicad,Pcbnew,7.0.1
; #@! TF.FileFunction,Plated,1,2,PTH
FMAT,2
INCH
; #@! TA.AperFunction,Plated,PTH,ViaDrill
T1C0.0157
; #@! TA.AperFunction,Plated,PTH,ComponentDrill
T2C0.0295
; #@! TA.AperFunction,Plated,PTH,ComponentDrill
T3C0.0394
%
G90
G05
T1
X4.538Y-2.222
X4.654Y-2.764
X4.665Y-3.653
X4.87Y-2.24
X5.007Y-2.435
X5.158Y-2.979
X5.253Y-2.979
X5.346Y-2.979
X5.465Y-4.254
X5.483Y-3.653
X5.578Y-3.542
X5.5893Y-3.8602
X5.705Y-3.755
X5.748Y-3.4843
X5.748Y-3.5236
X5.748Y-3.563
X5.748Y-3.6024
X5.748Y-3.6417
X5.748Y-3.6811
X5.75Y-3.9
X5.8602Y-3.6024
X5.8602Y-3.6417
X5.8602Y-3.6811
X5.918Y-3.914
X5.918Y-4.014
X5.958Y-3.914
X5.958Y-4.014
X5.9646Y-3.4843
X5.9646Y-3.5236
X5.9646Y-3.563
X5.9646Y-3.6024
X5.9646Y-3.6417
X5.9646Y-3.6811
X5.998Y-3.914
X5.998Y-4.014
X6.038Y-3.914
X6.038Y-4.014
X6.169Y-2.435
X6.17Y-2.56
X6.17Y-2.605
X6.17Y-2.654
X6.308Y-2.56
X6.308Y-2.605
X6.308Y-2.654
X6.308Y-4.118
X6.308Y-4.253
X6.499Y-3.862
X6.507Y-3.954
X6.514Y-3.679
X6.609Y-3.954
X6.636Y-2.653
X6.651Y-3.186
X6.651Y-3.324
X6.707Y-3.954
X6.713Y-3.659
X6.713Y-3.769
X6.713Y-3.879
X6.763Y-3.659
X6.763Y-3.769
X6.763Y-3.879
X6.79Y-3.118
X6.79Y-3.257
X6.79Y-3.396
X6.809Y-3.954
X6.813Y-3.659
X6.813Y-3.879
X6.863Y-3.659
X6.863Y-3.879
X6.886Y-3.583
X6.981Y-4.09
X7.067Y-3.359
X7.071Y-3.118
X7.071Y-3.257
X7.073Y-2.264
X7.073Y-4.254
X7.082Y-3.484
X7.177Y-3.865
X7.178Y-3.009
T2
X6.5791Y-2.4673
X6.6579Y-2.4673
X6.7366Y-2.4673
X6.8154Y-2.4673
X6.8941Y-2.4673
X6.9729Y-2.4673
T3
X4.5534Y-3.234
X4.5534Y-3.334
X4.5534Y-3.434
X4.6534Y-3.234
X4.6534Y-3.334
X4.6534Y-3.434
X4.7534Y-3.234
X4.7534Y-3.334
X4.7534Y-3.434
X5.2483Y-2.2874
X5.3483Y-2.2874
X5.4483Y-2.2874
X5.5483Y-2.2874
X5.6081Y-4.1874
X5.6483Y-2.2874
X5.7081Y-4.1874
X5.7483Y-2.2874
X5.8081Y-4.1874
X5.8483Y-2.2874
X5.9081Y-4.1874
X5.9483Y-2.2874
X6.0081Y-4.1874
X6.0483Y-2.2874
X6.1081Y-4.1874
X6.1483Y-2.2874
X6.2081Y-4.1874
X6.3081Y-2.2874
X6.3081Y-4.1874
X6.4081Y-2.2874
X6.5081Y-2.2874
X6.5081Y-4.1874
X6.6081Y-2.2874
X6.6081Y-4.1874
X6.7081Y-2.2874
X6.7081Y-4.1874
X6.8081Y-2.2874
X6.8081Y-4.1874
X6.9081Y-2.2874
X6.9081Y-4.1874
X7.0081Y-2.2874
X7.0081Y-4.1874
X7.163Y-3.084
X7.163Y-3.184
X7.163Y-3.284
X7.163Y-3.384
X7.163Y-3.484
X7.163Y-3.584
T0
M30
