%TF.GenerationSoftware,KiCad,Pcbnew,7.0.1*%
%TF.CreationDate,2023-05-06T15:08:35-03:00*%
%TF.ProjectId,Servo_Claw,53657276-6f5f-4436-9c61-772e6b696361,rev?*%
%TF.SameCoordinates,Original*%
%TF.FileFunction,Soldermask,Top*%
%TF.FilePolarity,Negative*%
%FSLAX46Y46*%
G04 Gerber Fmt 4.6, Leading zero omitted, Abs format (unit mm)*
G04 Created by KiCad (PCBNEW 7.0.1) date 2023-05-06 15:08:35*
%MOMM*%
%LPD*%
G01*
G04 APERTURE LIST*
G04 Aperture macros list*
%AMRoundRect*
0 Rectangle with rounded corners*
0 $1 Rounding radius*
0 $2 $3 $4 $5 $6 $7 $8 $9 X,Y pos of 4 corners*
0 Add a 4 corners polygon primitive as box body*
4,1,4,$2,$3,$4,$5,$6,$7,$8,$9,$2,$3,0*
0 Add four circle primitives for the rounded corners*
1,1,$1+$1,$2,$3*
1,1,$1+$1,$4,$5*
1,1,$1+$1,$6,$7*
1,1,$1+$1,$8,$9*
0 Add four rect primitives between the rounded corners*
20,1,$1+$1,$2,$3,$4,$5,0*
20,1,$1+$1,$4,$5,$6,$7,0*
20,1,$1+$1,$6,$7,$8,$9,0*
20,1,$1+$1,$8,$9,$2,$3,0*%
G04 Aperture macros list end*
%ADD10C,0.200000*%
%ADD11R,2.000000X1.500000*%
%ADD12R,2.000000X3.800000*%
%ADD13R,1.500000X2.000000*%
%ADD14R,3.800000X2.000000*%
%ADD15RoundRect,0.250000X1.025000X-0.787500X1.025000X0.787500X-1.025000X0.787500X-1.025000X-0.787500X0*%
%ADD16C,1.700000*%
%ADD17O,1.700000X1.700000*%
%ADD18R,1.700000X1.700000*%
%ADD19RoundRect,0.250000X0.450000X-0.262500X0.450000X0.262500X-0.450000X0.262500X-0.450000X-0.262500X0*%
%ADD20RoundRect,0.150000X0.587500X0.150000X-0.587500X0.150000X-0.587500X-0.150000X0.587500X-0.150000X0*%
%ADD21RoundRect,0.243750X-0.243750X-0.456250X0.243750X-0.456250X0.243750X0.456250X-0.243750X0.456250X0*%
%ADD22RoundRect,0.250000X0.312500X1.450000X-0.312500X1.450000X-0.312500X-1.450000X0.312500X-1.450000X0*%
%ADD23RoundRect,0.250000X-0.400000X-0.600000X0.400000X-0.600000X0.400000X0.600000X-0.400000X0.600000X0*%
%ADD24RoundRect,0.250000X0.250000X0.475000X-0.250000X0.475000X-0.250000X-0.475000X0.250000X-0.475000X0*%
%ADD25RoundRect,0.250000X1.500000X0.550000X-1.500000X0.550000X-1.500000X-0.550000X1.500000X-0.550000X0*%
%ADD26RoundRect,0.250000X0.262500X0.450000X-0.262500X0.450000X-0.262500X-0.450000X0.262500X-0.450000X0*%
%ADD27O,1.200000X1.750000*%
%ADD28RoundRect,0.300000X-0.300000X-0.575000X0.300000X-0.575000X0.300000X0.575000X-0.300000X0.575000X0*%
%ADD29RoundRect,0.250000X-0.450000X0.262500X-0.450000X-0.262500X0.450000X-0.262500X0.450000X0.262500X0*%
%ADD30RoundRect,0.250000X0.475000X-0.250000X0.475000X0.250000X-0.475000X0.250000X-0.475000X-0.250000X0*%
%ADD31C,3.200000*%
%ADD32C,1.600000*%
%ADD33O,1.600000X1.600000*%
%ADD34R,1.600000X1.600000*%
%ADD35R,2.600000X3.000000*%
%ADD36R,2.612000X3.000000*%
%ADD37RoundRect,0.243750X0.456250X-0.243750X0.456250X0.243750X-0.456250X0.243750X-0.456250X-0.243750X0*%
%ADD38RoundRect,0.250000X-0.925000X0.412500X-0.925000X-0.412500X0.925000X-0.412500X0.925000X0.412500X0*%
%ADD39RoundRect,0.250000X-0.475000X0.250000X-0.475000X-0.250000X0.475000X-0.250000X0.475000X0.250000X0*%
%ADD40RoundRect,0.250000X1.000000X0.650000X-1.000000X0.650000X-1.000000X-0.650000X1.000000X-0.650000X0*%
%ADD41RoundRect,0.150000X-0.725000X-0.150000X0.725000X-0.150000X0.725000X0.150000X-0.725000X0.150000X0*%
G04 APERTURE END LIST*
D10*
X116111361Y-89331704D02*
X116158980Y-89236466D01*
X116158980Y-89236466D02*
X116158980Y-89093609D01*
X116158980Y-89093609D02*
X116111361Y-88950752D01*
X116111361Y-88950752D02*
X116016123Y-88855514D01*
X116016123Y-88855514D02*
X115920885Y-88807895D01*
X115920885Y-88807895D02*
X115730409Y-88760276D01*
X115730409Y-88760276D02*
X115587552Y-88760276D01*
X115587552Y-88760276D02*
X115397076Y-88807895D01*
X115397076Y-88807895D02*
X115301838Y-88855514D01*
X115301838Y-88855514D02*
X115206600Y-88950752D01*
X115206600Y-88950752D02*
X115158980Y-89093609D01*
X115158980Y-89093609D02*
X115158980Y-89188847D01*
X115158980Y-89188847D02*
X115206600Y-89331704D01*
X115206600Y-89331704D02*
X115254219Y-89379323D01*
X115254219Y-89379323D02*
X115587552Y-89379323D01*
X115587552Y-89379323D02*
X115587552Y-89188847D01*
X115158980Y-89807895D02*
X116158980Y-89807895D01*
X116158980Y-89807895D02*
X115158980Y-90379323D01*
X115158980Y-90379323D02*
X116158980Y-90379323D01*
X115158980Y-90855514D02*
X116158980Y-90855514D01*
X116158980Y-90855514D02*
X116158980Y-91093609D01*
X116158980Y-91093609D02*
X116111361Y-91236466D01*
X116111361Y-91236466D02*
X116016123Y-91331704D01*
X116016123Y-91331704D02*
X115920885Y-91379323D01*
X115920885Y-91379323D02*
X115730409Y-91426942D01*
X115730409Y-91426942D02*
X115587552Y-91426942D01*
X115587552Y-91426942D02*
X115397076Y-91379323D01*
X115397076Y-91379323D02*
X115301838Y-91331704D01*
X115301838Y-91331704D02*
X115206600Y-91236466D01*
X115206600Y-91236466D02*
X115158980Y-91093609D01*
X115158980Y-91093609D02*
X115158980Y-90855514D01*
D11*
%TO.C,IC1*%
X167665000Y-98032600D03*
D12*
X173965000Y-95732600D03*
D11*
X167665000Y-95732600D03*
X167665000Y-93432600D03*
%TD*%
D13*
%TO.C,U1*%
X146550000Y-95450000D03*
X148850000Y-95450000D03*
D14*
X148850000Y-89150000D03*
D13*
X151150000Y-95450000D03*
%TD*%
D15*
%TO.C,C5*%
X118211600Y-78652100D03*
X118211600Y-72427100D03*
%TD*%
D16*
%TO.C,J4*%
X120736600Y-82143600D03*
D17*
X118196600Y-82143600D03*
D18*
X115656600Y-82143600D03*
%TD*%
D19*
%TO.C,R10*%
X177977800Y-82725900D03*
X177977800Y-80900900D03*
%TD*%
%TO.C,R11*%
X170967400Y-82725900D03*
X170967400Y-80900900D03*
%TD*%
%TO.C,R1*%
X162814000Y-101572700D03*
X162814000Y-99747700D03*
%TD*%
D20*
%TO.C,Q4*%
X175359300Y-79232800D03*
X175359300Y-77332800D03*
X173484300Y-78282800D03*
%TD*%
D21*
%TO.C,D4*%
X131853700Y-95275400D03*
X133728700Y-95275400D03*
%TD*%
D22*
%TO.C,F1*%
X143539300Y-95300800D03*
X139264300Y-95300800D03*
%TD*%
D23*
%TO.C,D7*%
X131676200Y-82143600D03*
X135176200Y-82143600D03*
%TD*%
D19*
%TO.C,R4*%
X135788400Y-78763500D03*
X135788400Y-76938500D03*
%TD*%
D20*
%TO.C,Q2*%
X175359300Y-86294000D03*
X175359300Y-84394000D03*
X173484300Y-85344000D03*
%TD*%
D24*
%TO.C,C3*%
X143586200Y-91795600D03*
X141686200Y-91795600D03*
%TD*%
D25*
%TO.C,C1*%
X151669400Y-100711000D03*
X146069400Y-100711000D03*
%TD*%
D26*
%TO.C,R2*%
X137386700Y-107010200D03*
X135561700Y-107010200D03*
%TD*%
D23*
%TO.C,D6*%
X131676200Y-84683600D03*
X135176200Y-84683600D03*
%TD*%
%TO.C,D5*%
X131676200Y-87223600D03*
X135176200Y-87223600D03*
%TD*%
D19*
%TO.C,R12*%
X177977800Y-79195300D03*
X177977800Y-77370300D03*
%TD*%
D27*
%TO.C,J1*%
X167110400Y-62670600D03*
X169110400Y-62670600D03*
X171110400Y-62670600D03*
X173110400Y-62670600D03*
X175110400Y-62670600D03*
D28*
X177110400Y-62670600D03*
%TD*%
D29*
%TO.C,R14*%
X121945400Y-56887100D03*
X121945400Y-58712100D03*
%TD*%
D26*
%TO.C,R15*%
X137386700Y-97663000D03*
X135561700Y-97663000D03*
%TD*%
D30*
%TO.C,C7*%
X167868600Y-103921600D03*
X167868600Y-102021600D03*
%TD*%
D20*
%TO.C,Q3*%
X175359300Y-82763400D03*
X175359300Y-80863400D03*
X173484300Y-81813400D03*
%TD*%
D16*
%TO.C,J2*%
X120736600Y-87223600D03*
D17*
X118196600Y-87223600D03*
D18*
X115656600Y-87223600D03*
%TD*%
D19*
%TO.C,R8*%
X177952400Y-86231100D03*
X177952400Y-84406100D03*
%TD*%
%TO.C,R13*%
X170967400Y-79195300D03*
X170967400Y-77370300D03*
%TD*%
D26*
%TO.C,R3*%
X137386700Y-95300800D03*
X135561700Y-95300800D03*
%TD*%
D31*
%TO.C,A1*%
X129746200Y-58099600D03*
X180546200Y-73339600D03*
X180546200Y-101279600D03*
D32*
X142446200Y-106359600D03*
D33*
X144986200Y-106359600D03*
X147526200Y-106359600D03*
X150066200Y-106359600D03*
X152606200Y-106359600D03*
D34*
X155146200Y-106359600D03*
X157686200Y-106359600D03*
D33*
X160226200Y-106359600D03*
X165306200Y-106359600D03*
X167846200Y-106359600D03*
X170386200Y-106359600D03*
X172926200Y-106359600D03*
X175466200Y-106359600D03*
X178006200Y-106359600D03*
X178006200Y-58099600D03*
X175466200Y-58099600D03*
X172926200Y-58099600D03*
X170386200Y-58099600D03*
X167846200Y-58099600D03*
X165306200Y-58099600D03*
X162766200Y-58099600D03*
X160226200Y-58099600D03*
X156166200Y-58099600D03*
X153626200Y-58099600D03*
X151086200Y-58099600D03*
X148546200Y-58099600D03*
X146006200Y-58099600D03*
X143466200Y-58099600D03*
D34*
X140926200Y-58099600D03*
D33*
X138386200Y-58099600D03*
X135846200Y-58099600D03*
X133306200Y-58099600D03*
%TD*%
D35*
%TO.C,SW1*%
X117627400Y-57810400D03*
D36*
X117627400Y-62788800D03*
%TD*%
D16*
%TO.C,J5*%
X181940200Y-91033600D03*
D18*
X181940200Y-88493600D03*
D17*
X181940200Y-85953600D03*
X181940200Y-83413600D03*
X181940200Y-80873600D03*
X181940200Y-78333600D03*
%TD*%
D37*
%TO.C,D1*%
X162814000Y-106372900D03*
X162814000Y-104497900D03*
%TD*%
D19*
%TO.C,R6*%
X131013200Y-78763500D03*
X131013200Y-76938500D03*
%TD*%
D21*
%TO.C,F2*%
X176509200Y-95732600D03*
X178384200Y-95732600D03*
%TD*%
%TO.C,D9*%
X131853700Y-97663000D03*
X133728700Y-97663000D03*
%TD*%
D30*
%TO.C,C8*%
X170357800Y-103921600D03*
X170357800Y-102021600D03*
%TD*%
D21*
%TO.C,D8*%
X116994700Y-66395600D03*
X118869700Y-66395600D03*
%TD*%
D38*
%TO.C,C4*%
X166370000Y-67042500D03*
X166370000Y-70117500D03*
%TD*%
D30*
%TO.C,C6*%
X165277800Y-103921600D03*
X165277800Y-102021600D03*
%TD*%
D19*
%TO.C,R5*%
X133426200Y-78763500D03*
X133426200Y-76938500D03*
%TD*%
D30*
%TO.C,C9*%
X172948600Y-103921600D03*
X172948600Y-102021600D03*
%TD*%
D39*
%TO.C,C11*%
X175463200Y-102021600D03*
X175463200Y-103921600D03*
%TD*%
D21*
%TO.C,D3*%
X131853700Y-107010200D03*
X133728700Y-107010200D03*
%TD*%
D40*
%TO.C,D2*%
X162274000Y-96672400D03*
X158274000Y-96672400D03*
%TD*%
D41*
%TO.C,Q1*%
X155082800Y-99441000D03*
X155082800Y-100711000D03*
X155082800Y-101981000D03*
X155082800Y-103251000D03*
X160232800Y-103251000D03*
X160232800Y-101981000D03*
X160232800Y-100711000D03*
X160232800Y-99441000D03*
%TD*%
D16*
%TO.C,J3*%
X120736600Y-84683600D03*
D17*
X118196600Y-84683600D03*
D18*
X115656600Y-84683600D03*
%TD*%
D39*
%TO.C,C12*%
X121945400Y-61849600D03*
X121945400Y-63749600D03*
%TD*%
D26*
%TO.C,R7*%
X123289700Y-66395600D03*
X121464700Y-66395600D03*
%TD*%
D19*
%TO.C,R9*%
X170967400Y-86256500D03*
X170967400Y-84431500D03*
%TD*%
M02*
