%TF.GenerationSoftware,KiCad,Pcbnew,7.0.1*%
%TF.CreationDate,2023-05-06T15:08:35-03:00*%
%TF.ProjectId,Servo_Claw,53657276-6f5f-4436-9c61-772e6b696361,rev?*%
%TF.SameCoordinates,Original*%
%TF.FileFunction,Legend,Bot*%
%TF.FilePolarity,Positive*%
%FSLAX46Y46*%
G04 Gerber Fmt 4.6, Leading zero omitted, Abs format (unit mm)*
G04 Created by KiCad (PCBNEW 7.0.1) date 2023-05-06 15:08:35*
%MOMM*%
%LPD*%
G01*
G04 APERTURE LIST*
G04 Aperture macros list*
%AMRoundRect*
0 Rectangle with rounded corners*
0 $1 Rounding radius*
0 $2 $3 $4 $5 $6 $7 $8 $9 X,Y pos of 4 corners*
0 Add a 4 corners polygon primitive as box body*
4,1,4,$2,$3,$4,$5,$6,$7,$8,$9,$2,$3,0*
0 Add four circle primitives for the rounded corners*
1,1,$1+$1,$2,$3*
1,1,$1+$1,$4,$5*
1,1,$1+$1,$6,$7*
1,1,$1+$1,$8,$9*
0 Add four rect primitives between the rounded corners*
20,1,$1+$1,$2,$3,$4,$5,0*
20,1,$1+$1,$4,$5,$6,$7,0*
20,1,$1+$1,$6,$7,$8,$9,0*
20,1,$1+$1,$8,$9,$2,$3,0*%
G04 Aperture macros list end*
%ADD10C,0.200000*%
%ADD11C,0.150000*%
%ADD12C,0.300000*%
%ADD13C,0.250000*%
%ADD14C,1.700000*%
%ADD15O,1.700000X1.700000*%
%ADD16R,1.700000X1.700000*%
%ADD17O,1.200000X1.750000*%
%ADD18RoundRect,0.300000X-0.300000X-0.575000X0.300000X-0.575000X0.300000X0.575000X-0.300000X0.575000X0*%
%ADD19C,3.200000*%
%ADD20C,1.600000*%
%ADD21O,1.600000X1.600000*%
%ADD22R,1.600000X1.600000*%
G04 APERTURE END LIST*
D10*
X122123200Y-88442800D02*
X116840000Y-88442800D01*
D11*
X176072800Y-87426800D02*
X183134000Y-87426800D01*
X183134000Y-89560400D01*
X176072800Y-89560400D01*
X176072800Y-87426800D01*
G36*
X176072800Y-87426800D02*
G01*
X183134000Y-87426800D01*
X183134000Y-89560400D01*
X176072800Y-89560400D01*
X176072800Y-87426800D01*
G37*
X153822400Y-105054400D02*
X159054800Y-105054400D01*
X159054800Y-108889800D01*
X153822400Y-108889800D01*
X153822400Y-105054400D01*
G36*
X153822400Y-105054400D02*
G01*
X159054800Y-105054400D01*
X159054800Y-108889800D01*
X153822400Y-108889800D01*
X153822400Y-105054400D01*
G37*
D10*
X122123200Y-88442800D02*
X122123200Y-76301600D01*
D11*
X139598400Y-55575200D02*
X142240000Y-55575200D01*
X142240000Y-59334400D01*
X139598400Y-59334400D01*
X139598400Y-55575200D01*
G36*
X139598400Y-55575200D02*
G01*
X142240000Y-55575200D01*
X142240000Y-59334400D01*
X139598400Y-59334400D01*
X139598400Y-55575200D01*
G37*
X114503200Y-76276200D02*
X116865400Y-76276200D01*
X116865400Y-91059000D01*
X114503200Y-91059000D01*
X114503200Y-76276200D01*
G36*
X114503200Y-76276200D02*
G01*
X116865400Y-76276200D01*
X116865400Y-91059000D01*
X114503200Y-91059000D01*
X114503200Y-76276200D01*
G37*
X176276000Y-61569600D02*
X177952400Y-61569600D01*
X177952400Y-67614800D01*
X176276000Y-67614800D01*
X176276000Y-61569600D01*
G36*
X176276000Y-61569600D02*
G01*
X177952400Y-61569600D01*
X177952400Y-67614800D01*
X176276000Y-67614800D01*
X176276000Y-61569600D01*
G37*
X116890800Y-93421200D02*
X114503200Y-91059000D01*
X116865400Y-91059000D01*
X116890800Y-93421200D01*
G36*
X116890800Y-93421200D02*
G01*
X114503200Y-91059000D01*
X116865400Y-91059000D01*
X116890800Y-93421200D01*
G37*
D10*
X175695780Y-68830532D02*
X175695780Y-68163866D01*
X175695780Y-68163866D02*
X174695780Y-68830532D01*
X174695780Y-68830532D02*
X174695780Y-68163866D01*
X174600542Y-68021009D02*
X174600542Y-67259104D01*
X174981495Y-67068627D02*
X174981495Y-66592437D01*
X174695780Y-67163865D02*
X175695780Y-66830532D01*
X175695780Y-66830532D02*
X174695780Y-66497199D01*
X175695780Y-66259103D02*
X174695780Y-65592437D01*
X175695780Y-65592437D02*
X174695780Y-66259103D01*
X174695780Y-65211484D02*
X175695780Y-65211484D01*
X174743400Y-64782913D02*
X174695780Y-64640056D01*
X174695780Y-64640056D02*
X174695780Y-64401961D01*
X174695780Y-64401961D02*
X174743400Y-64306723D01*
X174743400Y-64306723D02*
X174791019Y-64259104D01*
X174791019Y-64259104D02*
X174886257Y-64211485D01*
X174886257Y-64211485D02*
X174981495Y-64211485D01*
X174981495Y-64211485D02*
X175076733Y-64259104D01*
X175076733Y-64259104D02*
X175124352Y-64306723D01*
X175124352Y-64306723D02*
X175171971Y-64401961D01*
X175171971Y-64401961D02*
X175219590Y-64592437D01*
X175219590Y-64592437D02*
X175267209Y-64687675D01*
X175267209Y-64687675D02*
X175314828Y-64735294D01*
X175314828Y-64735294D02*
X175410066Y-64782913D01*
X175410066Y-64782913D02*
X175505304Y-64782913D01*
X175505304Y-64782913D02*
X175600542Y-64735294D01*
X175600542Y-64735294D02*
X175648161Y-64687675D01*
X175648161Y-64687675D02*
X175695780Y-64592437D01*
X175695780Y-64592437D02*
X175695780Y-64354342D01*
X175695780Y-64354342D02*
X175648161Y-64211485D01*
X169186628Y-67570170D02*
X169186628Y-67970170D01*
X168558057Y-67970170D02*
X169758057Y-67970170D01*
X169758057Y-67970170D02*
X169758057Y-67398742D01*
X168558057Y-66370171D02*
X168558057Y-66941599D01*
X168558057Y-66941599D02*
X169758057Y-66941599D01*
X169186628Y-65970170D02*
X169186628Y-65570170D01*
X168558057Y-65398742D02*
X168558057Y-65970170D01*
X168558057Y-65970170D02*
X169758057Y-65970170D01*
X169758057Y-65970170D02*
X169758057Y-65398742D01*
X169758057Y-64998742D02*
X168558057Y-64198742D01*
X169758057Y-64198742D02*
X168558057Y-64998742D01*
X167726057Y-67284399D02*
X166526057Y-66884399D01*
X166526057Y-66884399D02*
X167726057Y-66484399D01*
X166640342Y-65398685D02*
X166583200Y-65455828D01*
X166583200Y-65455828D02*
X166526057Y-65627256D01*
X166526057Y-65627256D02*
X166526057Y-65741542D01*
X166526057Y-65741542D02*
X166583200Y-65912971D01*
X166583200Y-65912971D02*
X166697485Y-66027256D01*
X166697485Y-66027256D02*
X166811771Y-66084399D01*
X166811771Y-66084399D02*
X167040342Y-66141542D01*
X167040342Y-66141542D02*
X167211771Y-66141542D01*
X167211771Y-66141542D02*
X167440342Y-66084399D01*
X167440342Y-66084399D02*
X167554628Y-66027256D01*
X167554628Y-66027256D02*
X167668914Y-65912971D01*
X167668914Y-65912971D02*
X167726057Y-65741542D01*
X167726057Y-65741542D02*
X167726057Y-65627256D01*
X167726057Y-65627256D02*
X167668914Y-65455828D01*
X167668914Y-65455828D02*
X167611771Y-65398685D01*
X166640342Y-64198685D02*
X166583200Y-64255828D01*
X166583200Y-64255828D02*
X166526057Y-64427256D01*
X166526057Y-64427256D02*
X166526057Y-64541542D01*
X166526057Y-64541542D02*
X166583200Y-64712971D01*
X166583200Y-64712971D02*
X166697485Y-64827256D01*
X166697485Y-64827256D02*
X166811771Y-64884399D01*
X166811771Y-64884399D02*
X167040342Y-64941542D01*
X167040342Y-64941542D02*
X167211771Y-64941542D01*
X167211771Y-64941542D02*
X167440342Y-64884399D01*
X167440342Y-64884399D02*
X167554628Y-64827256D01*
X167554628Y-64827256D02*
X167668914Y-64712971D01*
X167668914Y-64712971D02*
X167726057Y-64541542D01*
X167726057Y-64541542D02*
X167726057Y-64427256D01*
X167726057Y-64427256D02*
X167668914Y-64255828D01*
X167668914Y-64255828D02*
X167611771Y-64198685D01*
X173139971Y-68497199D02*
X172663780Y-68497199D01*
X173663780Y-68830532D02*
X173139971Y-68497199D01*
X173139971Y-68497199D02*
X173663780Y-68163866D01*
X172568542Y-68068628D02*
X172568542Y-67306723D01*
X172949495Y-67116246D02*
X172949495Y-66640056D01*
X172663780Y-67211484D02*
X173663780Y-66878151D01*
X173663780Y-66878151D02*
X172663780Y-66544818D01*
X173663780Y-66306722D02*
X172663780Y-65640056D01*
X173663780Y-65640056D02*
X172663780Y-66306722D01*
X172663780Y-65259103D02*
X173663780Y-65259103D01*
X172711400Y-64830532D02*
X172663780Y-64687675D01*
X172663780Y-64687675D02*
X172663780Y-64449580D01*
X172663780Y-64449580D02*
X172711400Y-64354342D01*
X172711400Y-64354342D02*
X172759019Y-64306723D01*
X172759019Y-64306723D02*
X172854257Y-64259104D01*
X172854257Y-64259104D02*
X172949495Y-64259104D01*
X172949495Y-64259104D02*
X173044733Y-64306723D01*
X173044733Y-64306723D02*
X173092352Y-64354342D01*
X173092352Y-64354342D02*
X173139971Y-64449580D01*
X173139971Y-64449580D02*
X173187590Y-64640056D01*
X173187590Y-64640056D02*
X173235209Y-64735294D01*
X173235209Y-64735294D02*
X173282828Y-64782913D01*
X173282828Y-64782913D02*
X173378066Y-64830532D01*
X173378066Y-64830532D02*
X173473304Y-64830532D01*
X173473304Y-64830532D02*
X173568542Y-64782913D01*
X173568542Y-64782913D02*
X173616161Y-64735294D01*
X173616161Y-64735294D02*
X173663780Y-64640056D01*
X173663780Y-64640056D02*
X173663780Y-64401961D01*
X173663780Y-64401961D02*
X173616161Y-64259104D01*
D12*
X180500113Y-81496100D02*
X180285828Y-81567528D01*
X180285828Y-81567528D02*
X179928685Y-81567528D01*
X179928685Y-81567528D02*
X179785828Y-81496100D01*
X179785828Y-81496100D02*
X179714399Y-81424671D01*
X179714399Y-81424671D02*
X179642970Y-81281814D01*
X179642970Y-81281814D02*
X179642970Y-81138957D01*
X179642970Y-81138957D02*
X179714399Y-80996100D01*
X179714399Y-80996100D02*
X179785828Y-80924671D01*
X179785828Y-80924671D02*
X179928685Y-80853242D01*
X179928685Y-80853242D02*
X180214399Y-80781814D01*
X180214399Y-80781814D02*
X180357256Y-80710385D01*
X180357256Y-80710385D02*
X180428685Y-80638957D01*
X180428685Y-80638957D02*
X180500113Y-80496100D01*
X180500113Y-80496100D02*
X180500113Y-80353242D01*
X180500113Y-80353242D02*
X180428685Y-80210385D01*
X180428685Y-80210385D02*
X180357256Y-80138957D01*
X180357256Y-80138957D02*
X180214399Y-80067528D01*
X180214399Y-80067528D02*
X179857256Y-80067528D01*
X179857256Y-80067528D02*
X179642970Y-80138957D01*
X178142971Y-81424671D02*
X178214399Y-81496100D01*
X178214399Y-81496100D02*
X178428685Y-81567528D01*
X178428685Y-81567528D02*
X178571542Y-81567528D01*
X178571542Y-81567528D02*
X178785828Y-81496100D01*
X178785828Y-81496100D02*
X178928685Y-81353242D01*
X178928685Y-81353242D02*
X179000114Y-81210385D01*
X179000114Y-81210385D02*
X179071542Y-80924671D01*
X179071542Y-80924671D02*
X179071542Y-80710385D01*
X179071542Y-80710385D02*
X179000114Y-80424671D01*
X179000114Y-80424671D02*
X178928685Y-80281814D01*
X178928685Y-80281814D02*
X178785828Y-80138957D01*
X178785828Y-80138957D02*
X178571542Y-80067528D01*
X178571542Y-80067528D02*
X178428685Y-80067528D01*
X178428685Y-80067528D02*
X178214399Y-80138957D01*
X178214399Y-80138957D02*
X178142971Y-80210385D01*
X176785828Y-81567528D02*
X177500114Y-81567528D01*
X177500114Y-81567528D02*
X177500114Y-80067528D01*
X180477943Y-79027528D02*
X180477943Y-77527528D01*
X179763657Y-79027528D02*
X179763657Y-77527528D01*
X179763657Y-77527528D02*
X178906514Y-79027528D01*
X178906514Y-79027528D02*
X178906514Y-77527528D01*
X178406513Y-77527528D02*
X177549371Y-77527528D01*
X177977942Y-79027528D02*
X177977942Y-77527528D01*
X120103700Y-80580513D02*
X120032271Y-80366228D01*
X120032271Y-80366228D02*
X120032271Y-80009085D01*
X120032271Y-80009085D02*
X120103700Y-79866228D01*
X120103700Y-79866228D02*
X120175128Y-79794799D01*
X120175128Y-79794799D02*
X120317985Y-79723370D01*
X120317985Y-79723370D02*
X120460842Y-79723370D01*
X120460842Y-79723370D02*
X120603700Y-79794799D01*
X120603700Y-79794799D02*
X120675128Y-79866228D01*
X120675128Y-79866228D02*
X120746557Y-80009085D01*
X120746557Y-80009085D02*
X120817985Y-80294799D01*
X120817985Y-80294799D02*
X120889414Y-80437656D01*
X120889414Y-80437656D02*
X120960842Y-80509085D01*
X120960842Y-80509085D02*
X121103700Y-80580513D01*
X121103700Y-80580513D02*
X121246557Y-80580513D01*
X121246557Y-80580513D02*
X121389414Y-80509085D01*
X121389414Y-80509085D02*
X121460842Y-80437656D01*
X121460842Y-80437656D02*
X121532271Y-80294799D01*
X121532271Y-80294799D02*
X121532271Y-79937656D01*
X121532271Y-79937656D02*
X121460842Y-79723370D01*
X120032271Y-79080514D02*
X121532271Y-79080514D01*
X121460842Y-77580513D02*
X121532271Y-77723371D01*
X121532271Y-77723371D02*
X121532271Y-77937656D01*
X121532271Y-77937656D02*
X121460842Y-78151942D01*
X121460842Y-78151942D02*
X121317985Y-78294799D01*
X121317985Y-78294799D02*
X121175128Y-78366228D01*
X121175128Y-78366228D02*
X120889414Y-78437656D01*
X120889414Y-78437656D02*
X120675128Y-78437656D01*
X120675128Y-78437656D02*
X120389414Y-78366228D01*
X120389414Y-78366228D02*
X120246557Y-78294799D01*
X120246557Y-78294799D02*
X120103700Y-78151942D01*
X120103700Y-78151942D02*
X120032271Y-77937656D01*
X120032271Y-77937656D02*
X120032271Y-77794799D01*
X120032271Y-77794799D02*
X120103700Y-77580513D01*
X120103700Y-77580513D02*
X120175128Y-77509085D01*
X120175128Y-77509085D02*
X120675128Y-77509085D01*
X120675128Y-77509085D02*
X120675128Y-77794799D01*
X180460399Y-85147528D02*
X179960399Y-86647528D01*
X179960399Y-86647528D02*
X179460399Y-85147528D01*
X178103257Y-86504671D02*
X178174685Y-86576100D01*
X178174685Y-86576100D02*
X178388971Y-86647528D01*
X178388971Y-86647528D02*
X178531828Y-86647528D01*
X178531828Y-86647528D02*
X178746114Y-86576100D01*
X178746114Y-86576100D02*
X178888971Y-86433242D01*
X178888971Y-86433242D02*
X178960400Y-86290385D01*
X178960400Y-86290385D02*
X179031828Y-86004671D01*
X179031828Y-86004671D02*
X179031828Y-85790385D01*
X179031828Y-85790385D02*
X178960400Y-85504671D01*
X178960400Y-85504671D02*
X178888971Y-85361814D01*
X178888971Y-85361814D02*
X178746114Y-85218957D01*
X178746114Y-85218957D02*
X178531828Y-85147528D01*
X178531828Y-85147528D02*
X178388971Y-85147528D01*
X178388971Y-85147528D02*
X178174685Y-85218957D01*
X178174685Y-85218957D02*
X178103257Y-85290385D01*
X176603257Y-86504671D02*
X176674685Y-86576100D01*
X176674685Y-86576100D02*
X176888971Y-86647528D01*
X176888971Y-86647528D02*
X177031828Y-86647528D01*
X177031828Y-86647528D02*
X177246114Y-86576100D01*
X177246114Y-86576100D02*
X177388971Y-86433242D01*
X177388971Y-86433242D02*
X177460400Y-86290385D01*
X177460400Y-86290385D02*
X177531828Y-86004671D01*
X177531828Y-86004671D02*
X177531828Y-85790385D01*
X177531828Y-85790385D02*
X177460400Y-85504671D01*
X177460400Y-85504671D02*
X177388971Y-85361814D01*
X177388971Y-85361814D02*
X177246114Y-85218957D01*
X177246114Y-85218957D02*
X177031828Y-85147528D01*
X177031828Y-85147528D02*
X176888971Y-85147528D01*
X176888971Y-85147528D02*
X176674685Y-85218957D01*
X176674685Y-85218957D02*
X176603257Y-85290385D01*
X180485027Y-84036100D02*
X180270742Y-84107528D01*
X180270742Y-84107528D02*
X179913599Y-84107528D01*
X179913599Y-84107528D02*
X179770742Y-84036100D01*
X179770742Y-84036100D02*
X179699313Y-83964671D01*
X179699313Y-83964671D02*
X179627884Y-83821814D01*
X179627884Y-83821814D02*
X179627884Y-83678957D01*
X179627884Y-83678957D02*
X179699313Y-83536100D01*
X179699313Y-83536100D02*
X179770742Y-83464671D01*
X179770742Y-83464671D02*
X179913599Y-83393242D01*
X179913599Y-83393242D02*
X180199313Y-83321814D01*
X180199313Y-83321814D02*
X180342170Y-83250385D01*
X180342170Y-83250385D02*
X180413599Y-83178957D01*
X180413599Y-83178957D02*
X180485027Y-83036100D01*
X180485027Y-83036100D02*
X180485027Y-82893242D01*
X180485027Y-82893242D02*
X180413599Y-82750385D01*
X180413599Y-82750385D02*
X180342170Y-82678957D01*
X180342170Y-82678957D02*
X180199313Y-82607528D01*
X180199313Y-82607528D02*
X179842170Y-82607528D01*
X179842170Y-82607528D02*
X179627884Y-82678957D01*
X178985028Y-84107528D02*
X178985028Y-82607528D01*
X178985028Y-82607528D02*
X178627885Y-82607528D01*
X178627885Y-82607528D02*
X178413599Y-82678957D01*
X178413599Y-82678957D02*
X178270742Y-82821814D01*
X178270742Y-82821814D02*
X178199313Y-82964671D01*
X178199313Y-82964671D02*
X178127885Y-83250385D01*
X178127885Y-83250385D02*
X178127885Y-83464671D01*
X178127885Y-83464671D02*
X178199313Y-83750385D01*
X178199313Y-83750385D02*
X178270742Y-83893242D01*
X178270742Y-83893242D02*
X178413599Y-84036100D01*
X178413599Y-84036100D02*
X178627885Y-84107528D01*
X178627885Y-84107528D02*
X178985028Y-84107528D01*
X177556456Y-83678957D02*
X176842171Y-83678957D01*
X177699313Y-84107528D02*
X177199313Y-82607528D01*
X177199313Y-82607528D02*
X176699313Y-84107528D01*
X122796100Y-88327999D02*
X122724671Y-88113714D01*
X122724671Y-88113714D02*
X122724671Y-87756571D01*
X122724671Y-87756571D02*
X122796100Y-87613714D01*
X122796100Y-87613714D02*
X122867528Y-87542285D01*
X122867528Y-87542285D02*
X123010385Y-87470856D01*
X123010385Y-87470856D02*
X123153242Y-87470856D01*
X123153242Y-87470856D02*
X123296100Y-87542285D01*
X123296100Y-87542285D02*
X123367528Y-87613714D01*
X123367528Y-87613714D02*
X123438957Y-87756571D01*
X123438957Y-87756571D02*
X123510385Y-88042285D01*
X123510385Y-88042285D02*
X123581814Y-88185142D01*
X123581814Y-88185142D02*
X123653242Y-88256571D01*
X123653242Y-88256571D02*
X123796100Y-88327999D01*
X123796100Y-88327999D02*
X123938957Y-88327999D01*
X123938957Y-88327999D02*
X124081814Y-88256571D01*
X124081814Y-88256571D02*
X124153242Y-88185142D01*
X124153242Y-88185142D02*
X124224671Y-88042285D01*
X124224671Y-88042285D02*
X124224671Y-87685142D01*
X124224671Y-87685142D02*
X124153242Y-87470856D01*
X123510385Y-86828000D02*
X123510385Y-86328000D01*
X122724671Y-86113714D02*
X122724671Y-86828000D01*
X122724671Y-86828000D02*
X124224671Y-86828000D01*
X124224671Y-86828000D02*
X124224671Y-86113714D01*
X122724671Y-84613714D02*
X123438957Y-85113714D01*
X122724671Y-85470857D02*
X124224671Y-85470857D01*
X124224671Y-85470857D02*
X124224671Y-84899428D01*
X124224671Y-84899428D02*
X124153242Y-84756571D01*
X124153242Y-84756571D02*
X124081814Y-84685142D01*
X124081814Y-84685142D02*
X123938957Y-84613714D01*
X123938957Y-84613714D02*
X123724671Y-84613714D01*
X123724671Y-84613714D02*
X123581814Y-84685142D01*
X123581814Y-84685142D02*
X123510385Y-84756571D01*
X123510385Y-84756571D02*
X123438957Y-84899428D01*
X123438957Y-84899428D02*
X123438957Y-85470857D01*
X124224671Y-84185142D02*
X122724671Y-83685142D01*
X122724671Y-83685142D02*
X124224671Y-83185142D01*
X124224671Y-82399428D02*
X124224671Y-82113714D01*
X124224671Y-82113714D02*
X124153242Y-81970857D01*
X124153242Y-81970857D02*
X124010385Y-81828000D01*
X124010385Y-81828000D02*
X123724671Y-81756571D01*
X123724671Y-81756571D02*
X123224671Y-81756571D01*
X123224671Y-81756571D02*
X122938957Y-81828000D01*
X122938957Y-81828000D02*
X122796100Y-81970857D01*
X122796100Y-81970857D02*
X122724671Y-82113714D01*
X122724671Y-82113714D02*
X122724671Y-82399428D01*
X122724671Y-82399428D02*
X122796100Y-82542286D01*
X122796100Y-82542286D02*
X122938957Y-82685143D01*
X122938957Y-82685143D02*
X123224671Y-82756571D01*
X123224671Y-82756571D02*
X123724671Y-82756571D01*
X123724671Y-82756571D02*
X124010385Y-82685143D01*
X124010385Y-82685143D02*
X124153242Y-82542286D01*
X124153242Y-82542286D02*
X124224671Y-82399428D01*
X122796100Y-81185142D02*
X122724671Y-80970857D01*
X122724671Y-80970857D02*
X122724671Y-80613714D01*
X122724671Y-80613714D02*
X122796100Y-80470857D01*
X122796100Y-80470857D02*
X122867528Y-80399428D01*
X122867528Y-80399428D02*
X123010385Y-80327999D01*
X123010385Y-80327999D02*
X123153242Y-80327999D01*
X123153242Y-80327999D02*
X123296100Y-80399428D01*
X123296100Y-80399428D02*
X123367528Y-80470857D01*
X123367528Y-80470857D02*
X123438957Y-80613714D01*
X123438957Y-80613714D02*
X123510385Y-80899428D01*
X123510385Y-80899428D02*
X123581814Y-81042285D01*
X123581814Y-81042285D02*
X123653242Y-81113714D01*
X123653242Y-81113714D02*
X123796100Y-81185142D01*
X123796100Y-81185142D02*
X123938957Y-81185142D01*
X123938957Y-81185142D02*
X124081814Y-81113714D01*
X124081814Y-81113714D02*
X124153242Y-81042285D01*
X124153242Y-81042285D02*
X124224671Y-80899428D01*
X124224671Y-80899428D02*
X124224671Y-80542285D01*
X124224671Y-80542285D02*
X124153242Y-80327999D01*
X118992271Y-80562199D02*
X117492271Y-80062199D01*
X117492271Y-80062199D02*
X118992271Y-79562199D01*
X117635128Y-78205057D02*
X117563700Y-78276485D01*
X117563700Y-78276485D02*
X117492271Y-78490771D01*
X117492271Y-78490771D02*
X117492271Y-78633628D01*
X117492271Y-78633628D02*
X117563700Y-78847914D01*
X117563700Y-78847914D02*
X117706557Y-78990771D01*
X117706557Y-78990771D02*
X117849414Y-79062200D01*
X117849414Y-79062200D02*
X118135128Y-79133628D01*
X118135128Y-79133628D02*
X118349414Y-79133628D01*
X118349414Y-79133628D02*
X118635128Y-79062200D01*
X118635128Y-79062200D02*
X118777985Y-78990771D01*
X118777985Y-78990771D02*
X118920842Y-78847914D01*
X118920842Y-78847914D02*
X118992271Y-78633628D01*
X118992271Y-78633628D02*
X118992271Y-78490771D01*
X118992271Y-78490771D02*
X118920842Y-78276485D01*
X118920842Y-78276485D02*
X118849414Y-78205057D01*
X117635128Y-76705057D02*
X117563700Y-76776485D01*
X117563700Y-76776485D02*
X117492271Y-76990771D01*
X117492271Y-76990771D02*
X117492271Y-77133628D01*
X117492271Y-77133628D02*
X117563700Y-77347914D01*
X117563700Y-77347914D02*
X117706557Y-77490771D01*
X117706557Y-77490771D02*
X117849414Y-77562200D01*
X117849414Y-77562200D02*
X118135128Y-77633628D01*
X118135128Y-77633628D02*
X118349414Y-77633628D01*
X118349414Y-77633628D02*
X118635128Y-77562200D01*
X118635128Y-77562200D02*
X118777985Y-77490771D01*
X118777985Y-77490771D02*
X118920842Y-77347914D01*
X118920842Y-77347914D02*
X118992271Y-77133628D01*
X118992271Y-77133628D02*
X118992271Y-76990771D01*
X118992271Y-76990771D02*
X118920842Y-76776485D01*
X118920842Y-76776485D02*
X118849414Y-76705057D01*
D13*
X180039828Y-91496219D02*
X180516018Y-91496219D01*
X180516018Y-91496219D02*
X180516018Y-90496219D01*
X179706494Y-90972409D02*
X179373161Y-90972409D01*
X179230304Y-91496219D02*
X179706494Y-91496219D01*
X179706494Y-91496219D02*
X179706494Y-90496219D01*
X179706494Y-90496219D02*
X179230304Y-90496219D01*
X178801732Y-91496219D02*
X178801732Y-90496219D01*
X178801732Y-90496219D02*
X178563637Y-90496219D01*
X178563637Y-90496219D02*
X178420780Y-90543838D01*
X178420780Y-90543838D02*
X178325542Y-90639076D01*
X178325542Y-90639076D02*
X178277923Y-90734314D01*
X178277923Y-90734314D02*
X178230304Y-90924790D01*
X178230304Y-90924790D02*
X178230304Y-91067647D01*
X178230304Y-91067647D02*
X178277923Y-91258123D01*
X178277923Y-91258123D02*
X178325542Y-91353361D01*
X178325542Y-91353361D02*
X178420780Y-91448600D01*
X178420780Y-91448600D02*
X178563637Y-91496219D01*
X178563637Y-91496219D02*
X178801732Y-91496219D01*
X177849351Y-91210504D02*
X177373161Y-91210504D01*
X177944589Y-91496219D02*
X177611256Y-90496219D01*
X177611256Y-90496219D02*
X177277923Y-91496219D01*
D10*
X171631780Y-68830532D02*
X170631780Y-68163866D01*
X171631780Y-68163866D02*
X170631780Y-68830532D01*
X170536542Y-68021009D02*
X170536542Y-67259104D01*
X170917495Y-67068627D02*
X170917495Y-66592437D01*
X170631780Y-67163865D02*
X171631780Y-66830532D01*
X171631780Y-66830532D02*
X170631780Y-66497199D01*
X171631780Y-66259103D02*
X170631780Y-65592437D01*
X171631780Y-65592437D02*
X170631780Y-66259103D01*
X170631780Y-65211484D02*
X171631780Y-65211484D01*
X170679400Y-64782913D02*
X170631780Y-64640056D01*
X170631780Y-64640056D02*
X170631780Y-64401961D01*
X170631780Y-64401961D02*
X170679400Y-64306723D01*
X170679400Y-64306723D02*
X170727019Y-64259104D01*
X170727019Y-64259104D02*
X170822257Y-64211485D01*
X170822257Y-64211485D02*
X170917495Y-64211485D01*
X170917495Y-64211485D02*
X171012733Y-64259104D01*
X171012733Y-64259104D02*
X171060352Y-64306723D01*
X171060352Y-64306723D02*
X171107971Y-64401961D01*
X171107971Y-64401961D02*
X171155590Y-64592437D01*
X171155590Y-64592437D02*
X171203209Y-64687675D01*
X171203209Y-64687675D02*
X171250828Y-64735294D01*
X171250828Y-64735294D02*
X171346066Y-64782913D01*
X171346066Y-64782913D02*
X171441304Y-64782913D01*
X171441304Y-64782913D02*
X171536542Y-64735294D01*
X171536542Y-64735294D02*
X171584161Y-64687675D01*
X171584161Y-64687675D02*
X171631780Y-64592437D01*
X171631780Y-64592437D02*
X171631780Y-64354342D01*
X171631780Y-64354342D02*
X171584161Y-64211485D01*
%TO.C,G\u002A\u002A\u002A*%
G36*
X115912302Y-58040197D02*
G01*
X115912302Y-60114752D01*
X115406962Y-60114752D01*
X114901621Y-60114752D01*
X114901621Y-58040197D01*
X114901621Y-55965642D01*
X115406962Y-55965642D01*
X115912302Y-55965642D01*
X115912302Y-58040197D01*
G37*
G36*
X117878654Y-57062715D02*
G01*
X117939185Y-57103786D01*
X117960260Y-57179218D01*
X117959197Y-57197443D01*
X117930088Y-57268114D01*
X117872761Y-57310184D01*
X117802875Y-57316595D01*
X117736087Y-57280286D01*
X117703475Y-57224894D01*
X117697321Y-57149979D01*
X117726208Y-57088029D01*
X117762415Y-57067724D01*
X117827276Y-57056113D01*
X117878654Y-57062715D01*
G37*
G36*
X121384020Y-58936431D02*
G01*
X121331367Y-58999111D01*
X121310536Y-59027294D01*
X121245644Y-59100119D01*
X121185084Y-59151034D01*
X121142079Y-59188581D01*
X121137620Y-59192474D01*
X121111988Y-59263652D01*
X121111707Y-59275906D01*
X121096110Y-59319159D01*
X121045496Y-59330144D01*
X121017049Y-59328070D01*
X120984132Y-59305779D01*
X120970859Y-59246254D01*
X120967825Y-59219064D01*
X120957286Y-59185711D01*
X120941926Y-59174801D01*
X120929900Y-59166259D01*
X120873634Y-59154358D01*
X120776457Y-59143658D01*
X120770182Y-59143035D01*
X120677474Y-59135695D01*
X120608594Y-59133558D01*
X120578047Y-59137104D01*
X120590068Y-59152240D01*
X120635618Y-59199552D01*
X120710154Y-59274080D01*
X120808487Y-59370838D01*
X120925428Y-59484839D01*
X121055788Y-59611100D01*
X121194379Y-59744633D01*
X121336012Y-59880453D01*
X121475498Y-60013574D01*
X121607650Y-60139010D01*
X121727277Y-60251776D01*
X121829193Y-60346885D01*
X121908207Y-60419353D01*
X121959131Y-60464193D01*
X122016281Y-60511935D01*
X121934238Y-60512820D01*
X121915398Y-60512595D01*
X121896365Y-60509616D01*
X121874098Y-60501061D01*
X121845383Y-60484109D01*
X121807003Y-60455940D01*
X121755743Y-60413734D01*
X121688387Y-60354672D01*
X121601722Y-60275932D01*
X121492530Y-60174695D01*
X121357597Y-60048141D01*
X121193707Y-59893450D01*
X120997645Y-59707801D01*
X120766195Y-59488375D01*
X120367209Y-59110055D01*
X120126926Y-59089038D01*
X119436352Y-59028634D01*
X118505496Y-58947213D01*
X117853873Y-59591459D01*
X117674071Y-59769230D01*
X117504759Y-59936427D01*
X117366778Y-60072086D01*
X117256660Y-60179278D01*
X117170935Y-60261073D01*
X117106135Y-60320542D01*
X117058792Y-60360754D01*
X117025436Y-60384779D01*
X117002600Y-60395689D01*
X116986813Y-60396552D01*
X116974609Y-60390439D01*
X116962518Y-60380421D01*
X116944567Y-60364251D01*
X116935999Y-60337400D01*
X116968077Y-60301147D01*
X116990645Y-60279584D01*
X117048572Y-60223343D01*
X117135785Y-60138249D01*
X117247585Y-60028900D01*
X117379274Y-59899890D01*
X117526153Y-59755816D01*
X117683524Y-59601276D01*
X117779036Y-59507174D01*
X117957012Y-59329977D01*
X118097567Y-59187044D01*
X118201849Y-59077148D01*
X118271008Y-58999061D01*
X118306192Y-58951556D01*
X118308550Y-58933403D01*
X118280097Y-58928618D01*
X118205507Y-58920569D01*
X118100740Y-58911647D01*
X117978837Y-58903051D01*
X117949213Y-58901060D01*
X117802618Y-58887018D01*
X117703598Y-58869218D01*
X117654925Y-58848130D01*
X117651651Y-58845167D01*
X117612196Y-58827748D01*
X118649085Y-58827748D01*
X119395868Y-58889828D01*
X119427024Y-58892405D01*
X119618271Y-58907670D01*
X119790724Y-58920506D01*
X119937545Y-58930472D01*
X120051892Y-58937128D01*
X120126926Y-58940034D01*
X120155808Y-58938750D01*
X120154486Y-58934476D01*
X120126339Y-58900490D01*
X120066856Y-58837729D01*
X119981424Y-58751657D01*
X119875429Y-58647739D01*
X119754258Y-58531438D01*
X119339551Y-58137283D01*
X119333809Y-58143025D01*
X118994318Y-58482515D01*
X118649085Y-58827748D01*
X117612196Y-58827748D01*
X117597584Y-58821297D01*
X117523312Y-58811506D01*
X117428323Y-58811506D01*
X117428315Y-58751443D01*
X117774082Y-58751443D01*
X117993506Y-58769099D01*
X118003555Y-58769911D01*
X118131538Y-58780587D01*
X118258812Y-58791722D01*
X118359213Y-58801033D01*
X118505496Y-58815310D01*
X118877852Y-58439361D01*
X119250208Y-58063412D01*
X119249251Y-58062490D01*
X119425825Y-58062490D01*
X119436129Y-58075232D01*
X119480139Y-58120546D01*
X119553857Y-58193275D01*
X119651961Y-58288237D01*
X119769130Y-58400252D01*
X119900041Y-58524139D01*
X120371519Y-58968186D01*
X120644833Y-58996233D01*
X120727524Y-59004607D01*
X120831343Y-59014761D01*
X120906921Y-59021706D01*
X120941926Y-59024280D01*
X120942249Y-59024197D01*
X120947769Y-58995611D01*
X120950240Y-58957788D01*
X121111988Y-58957788D01*
X121111991Y-58959726D01*
X121118719Y-59012577D01*
X121142079Y-59017443D01*
X121187656Y-58975642D01*
X121225204Y-58925732D01*
X121221078Y-58898864D01*
X121171831Y-58891296D01*
X121166433Y-58891371D01*
X121125286Y-58905977D01*
X121123541Y-58906596D01*
X121111988Y-58957788D01*
X120950240Y-58957788D01*
X120952761Y-58919185D01*
X120957108Y-58799986D01*
X120960693Y-58643083D01*
X120963399Y-58453543D01*
X120965109Y-58236433D01*
X120965705Y-57996821D01*
X120965705Y-57825205D01*
X121125286Y-57825205D01*
X121125286Y-58651924D01*
X121228790Y-58651924D01*
X121248502Y-58651815D01*
X121295954Y-58647251D01*
X121327154Y-58628770D01*
X121347768Y-58586650D01*
X121363460Y-58511170D01*
X121379896Y-58392605D01*
X121398108Y-58252972D01*
X121314891Y-58252972D01*
X121231674Y-58252972D01*
X121231674Y-57907212D01*
X121391255Y-57907212D01*
X121391344Y-57926247D01*
X121395425Y-58027164D01*
X121404680Y-58095103D01*
X121417852Y-58119987D01*
X121420231Y-58119278D01*
X121432846Y-58086630D01*
X121441338Y-58012584D01*
X121444449Y-57907212D01*
X121444360Y-57888178D01*
X121440279Y-57787260D01*
X121431023Y-57719322D01*
X121417852Y-57694437D01*
X121415472Y-57695147D01*
X121402858Y-57727794D01*
X121394365Y-57801841D01*
X121391255Y-57907212D01*
X121231674Y-57907212D01*
X121231674Y-57561453D01*
X121301781Y-57561453D01*
X121333609Y-57560325D01*
X121358260Y-57548122D01*
X121363386Y-57511000D01*
X121354794Y-57435118D01*
X121347492Y-57395623D01*
X121319775Y-57300844D01*
X121280504Y-57200563D01*
X121236195Y-57108948D01*
X121193366Y-57040170D01*
X121158532Y-57008398D01*
X121155345Y-57008410D01*
X121146281Y-57023484D01*
X121139110Y-57064999D01*
X121133650Y-57137412D01*
X121129719Y-57245181D01*
X121127135Y-57392765D01*
X121125718Y-57584620D01*
X121125286Y-57825205D01*
X120965705Y-57825205D01*
X120965705Y-56969362D01*
X120866176Y-56985514D01*
X120849422Y-56988594D01*
X120787315Y-57007379D01*
X120757572Y-57028889D01*
X120739456Y-57040395D01*
X120680664Y-57051728D01*
X120597014Y-57056113D01*
X120578293Y-57056129D01*
X120511377Y-57058391D01*
X120460993Y-57069587D01*
X120415252Y-57096017D01*
X120413656Y-57096939D01*
X120355883Y-57147667D01*
X120274187Y-57228992D01*
X120195403Y-57309413D01*
X120149585Y-57360433D01*
X120133637Y-57388152D01*
X120143525Y-57399616D01*
X120175217Y-57401872D01*
X120247590Y-57401872D01*
X120247590Y-57840720D01*
X120247590Y-58279568D01*
X120115336Y-58279568D01*
X119983082Y-58279568D01*
X119975702Y-57904996D01*
X119968323Y-57530424D01*
X119695705Y-57787656D01*
X119660227Y-57821304D01*
X119567234Y-57911288D01*
X119492575Y-57986158D01*
X119443142Y-58038898D01*
X119425825Y-58062490D01*
X119249251Y-58062490D01*
X118811360Y-57640570D01*
X118677781Y-57513478D01*
X118539166Y-57386260D01*
X118431378Y-57293366D01*
X118356219Y-57236336D01*
X118318273Y-57218052D01*
X118545391Y-57218052D01*
X118546480Y-57220433D01*
X118573311Y-57251216D01*
X118631797Y-57311307D01*
X118716180Y-57394978D01*
X118820701Y-57496501D01*
X118939600Y-57610146D01*
X119333809Y-57984130D01*
X119807430Y-57527915D01*
X119902158Y-57435828D01*
X120022891Y-57315608D01*
X120122053Y-57213354D01*
X120195326Y-57133659D01*
X120238391Y-57081119D01*
X120246931Y-57060326D01*
X120236456Y-57059500D01*
X120178902Y-57061298D01*
X120078322Y-57067363D01*
X119941386Y-57077203D01*
X119774759Y-57090325D01*
X119585108Y-57106237D01*
X119379101Y-57124447D01*
X119271673Y-57134325D01*
X119076108Y-57153128D01*
X118901917Y-57170939D01*
X118755425Y-57187046D01*
X118642956Y-57200741D01*
X118570836Y-57211313D01*
X118545391Y-57218052D01*
X118318273Y-57218052D01*
X118315490Y-57216711D01*
X118286677Y-57222409D01*
X118243424Y-57260597D01*
X118195804Y-57341991D01*
X118171686Y-57385413D01*
X118083081Y-57492640D01*
X117976651Y-57562861D01*
X117863238Y-57588050D01*
X117827276Y-57588050D01*
X117774082Y-57588050D01*
X117774082Y-58169747D01*
X117774082Y-58751443D01*
X117428315Y-58751443D01*
X117428306Y-58685170D01*
X117428288Y-58558835D01*
X117528044Y-58558835D01*
X117627799Y-58558835D01*
X117635044Y-58057791D01*
X117642289Y-57556747D01*
X117574670Y-57503558D01*
X117544323Y-57477124D01*
X117467101Y-57371620D01*
X117430392Y-57251760D01*
X117430952Y-57189097D01*
X117614501Y-57189097D01*
X117625399Y-57250894D01*
X117679784Y-57336589D01*
X117733927Y-57377009D01*
X117827276Y-57401872D01*
X117869364Y-57396676D01*
X117954016Y-57354364D01*
X118015998Y-57281797D01*
X118040051Y-57193893D01*
X118038261Y-57163956D01*
X118005323Y-57071442D01*
X117940448Y-57007641D01*
X117856194Y-56977862D01*
X117765120Y-56987414D01*
X117679784Y-57041605D01*
X117639364Y-57095749D01*
X117614501Y-57189097D01*
X117430952Y-57189097D01*
X117431500Y-57127819D01*
X117467726Y-57010075D01*
X117536375Y-56908804D01*
X117634750Y-56834283D01*
X117760153Y-56796788D01*
X117799100Y-56791450D01*
X117855900Y-56778658D01*
X117874845Y-56766098D01*
X117865326Y-56755277D01*
X117822236Y-56711905D01*
X117749442Y-56640738D01*
X117652375Y-56547034D01*
X117536465Y-56436055D01*
X117407142Y-56313060D01*
X117315614Y-56226113D01*
X117191752Y-56107293D01*
X117100379Y-56017222D01*
X117037426Y-55951257D01*
X116998821Y-55904759D01*
X116980493Y-55873086D01*
X116978371Y-55851596D01*
X116988384Y-55835648D01*
X117009316Y-55820611D01*
X117035670Y-55821775D01*
X117074456Y-55845539D01*
X117133928Y-55897046D01*
X117222340Y-55981440D01*
X117258219Y-56016144D01*
X117350774Y-56105111D01*
X117469158Y-56218424D01*
X117605022Y-56348107D01*
X117750015Y-56486184D01*
X117895786Y-56624678D01*
X118376547Y-57080853D01*
X119305419Y-56995000D01*
X120234292Y-56909148D01*
X120239334Y-56803516D01*
X120380574Y-56803516D01*
X120389708Y-56872053D01*
X120415252Y-56896532D01*
X120431197Y-56891575D01*
X120480538Y-56858092D01*
X120540155Y-56803443D01*
X120630381Y-56710354D01*
X120505478Y-56710354D01*
X120380574Y-56710354D01*
X120380574Y-56803443D01*
X120380574Y-56803516D01*
X120239334Y-56803516D01*
X120242210Y-56743258D01*
X120250128Y-56577369D01*
X120515456Y-56577369D01*
X120780783Y-56577369D01*
X121323476Y-56043481D01*
X121476948Y-55893027D01*
X121606162Y-55767985D01*
X121706786Y-55673211D01*
X121783349Y-55604842D01*
X121840381Y-55559018D01*
X121882411Y-55531877D01*
X121913969Y-55519555D01*
X121939585Y-55518193D01*
X121942414Y-55518560D01*
X121958660Y-55523977D01*
X121963046Y-55536634D01*
X121952254Y-55560229D01*
X121922968Y-55598459D01*
X121871871Y-55655021D01*
X121795646Y-55733611D01*
X121690977Y-55837927D01*
X121554546Y-55971664D01*
X121383038Y-56138521D01*
X121247970Y-56270081D01*
X121086095Y-56429662D01*
X120959219Y-56558185D01*
X120865058Y-56658741D01*
X120801331Y-56734422D01*
X120765755Y-56788320D01*
X120756048Y-56823524D01*
X120769927Y-56843128D01*
X120805112Y-56850221D01*
X120859318Y-56847896D01*
X120872953Y-56846542D01*
X120934562Y-56835271D01*
X120960439Y-56810803D01*
X120965705Y-56760754D01*
X120966236Y-56746022D01*
X120993850Y-56661440D01*
X121053315Y-56604296D01*
X121130643Y-56579586D01*
X121211846Y-56592305D01*
X121282937Y-56647448D01*
X121320298Y-56705231D01*
X121334960Y-56781438D01*
X121301884Y-56856050D01*
X121293773Y-56867985D01*
X121282981Y-56902690D01*
X121297553Y-56945931D01*
X121341601Y-57014065D01*
X121344528Y-57018345D01*
X121389545Y-57102670D01*
X121434811Y-57215694D01*
X121471421Y-57335380D01*
X121479971Y-57368013D01*
X121507922Y-57461539D01*
X121533267Y-57528809D01*
X121551390Y-57557020D01*
X121559470Y-57575539D01*
X121567530Y-57636455D01*
X121573200Y-57728125D01*
X121576432Y-57838567D01*
X121577176Y-57955799D01*
X121575381Y-58067838D01*
X121570999Y-58162702D01*
X121563979Y-58228407D01*
X121554273Y-58252972D01*
X121552260Y-58253540D01*
X121538003Y-58284751D01*
X121523778Y-58354536D01*
X121511031Y-58450173D01*
X121501207Y-58558938D01*
X121495752Y-58668109D01*
X121496110Y-58764961D01*
X121496616Y-58777549D01*
X121495570Y-58849460D01*
X121482525Y-58883362D01*
X121453070Y-58892306D01*
X121434206Y-58897953D01*
X121417852Y-58910492D01*
X121384020Y-58936431D01*
G37*
G36*
X115420257Y-60860143D02*
G01*
X115486200Y-60888844D01*
X115538496Y-60918446D01*
X115645547Y-60980419D01*
X115796597Y-61068471D01*
X115981541Y-61176659D01*
X116190277Y-61299040D01*
X116412699Y-61429671D01*
X116638706Y-61562609D01*
X116858193Y-61691911D01*
X117061057Y-61811634D01*
X117237193Y-61915834D01*
X117376499Y-61998569D01*
X117468872Y-62053895D01*
X117504206Y-62075870D01*
X117504922Y-62084753D01*
X117488568Y-62146114D01*
X117452785Y-62243679D01*
X117378383Y-62372331D01*
X117266817Y-62451593D01*
X117245906Y-62461864D01*
X117150113Y-62527371D01*
X117029551Y-62628116D01*
X116905299Y-62746883D01*
X116858043Y-62794627D01*
X116753453Y-62895133D01*
X116673511Y-62964781D01*
X116632594Y-62990716D01*
X116623581Y-62982405D01*
X116579275Y-62919033D01*
X116504043Y-62800088D01*
X116402787Y-62633678D01*
X116280410Y-62427914D01*
X116141812Y-62190905D01*
X115991896Y-61930762D01*
X115915457Y-61796947D01*
X115773432Y-61546962D01*
X115647478Y-61323492D01*
X115542146Y-61134717D01*
X115461985Y-60988816D01*
X115411546Y-60893970D01*
X115395379Y-60858360D01*
X115420257Y-60860143D01*
G37*
G36*
X118613363Y-62722373D02*
G01*
X118680774Y-62756049D01*
X118798637Y-62820320D01*
X118956220Y-62908910D01*
X119142789Y-63015539D01*
X119347608Y-63133931D01*
X119559945Y-63257806D01*
X119769064Y-63380888D01*
X119964232Y-63496897D01*
X120134715Y-63599556D01*
X120269778Y-63682588D01*
X120358688Y-63739714D01*
X120390710Y-63764655D01*
X120374987Y-63777703D01*
X120301212Y-63825568D01*
X120175263Y-63902979D01*
X120006244Y-64004639D01*
X119803263Y-64125250D01*
X119575426Y-64259515D01*
X119331840Y-64402138D01*
X119081612Y-64547820D01*
X118833846Y-64691265D01*
X118597652Y-64827174D01*
X118382134Y-64950252D01*
X118196399Y-65055200D01*
X118049554Y-65136722D01*
X117950705Y-65189519D01*
X117908959Y-65208296D01*
X117876505Y-65187461D01*
X117832058Y-65120777D01*
X117830204Y-65116917D01*
X117792730Y-65013584D01*
X117807884Y-64944247D01*
X117881286Y-64881600D01*
X117935921Y-64841770D01*
X117992496Y-64782861D01*
X118037261Y-64704438D01*
X118073882Y-64594899D01*
X118106029Y-64442644D01*
X118137370Y-64236071D01*
X118171573Y-63963579D01*
X118193463Y-63786069D01*
X118222922Y-63564130D01*
X118250851Y-63371112D01*
X118274887Y-63223146D01*
X118292670Y-63136364D01*
X118328257Y-63048721D01*
X118394221Y-62936202D01*
X118472424Y-62829588D01*
X118547131Y-62750076D01*
X118602606Y-62718862D01*
X118613363Y-62722373D01*
G37*
G36*
X115813506Y-63981174D02*
G01*
X115806551Y-64023569D01*
X115826032Y-64062130D01*
X115876454Y-64187193D01*
X115859330Y-64318057D01*
X115776123Y-64427525D01*
X115771799Y-64430889D01*
X115685998Y-64485564D01*
X115620533Y-64508143D01*
X115598532Y-64511701D01*
X115567433Y-64547500D01*
X115567485Y-64548859D01*
X115602823Y-64570378D01*
X115690450Y-64567289D01*
X115811023Y-64543382D01*
X115945199Y-64502450D01*
X116073636Y-64448283D01*
X116156043Y-64398717D01*
X116292021Y-64293277D01*
X116412632Y-64175626D01*
X116438317Y-64147038D01*
X116536575Y-64054350D01*
X116610481Y-64027376D01*
X116673849Y-64065857D01*
X116740494Y-64169538D01*
X116746957Y-64182967D01*
X116749620Y-64256696D01*
X116692430Y-64297231D01*
X116588489Y-64293853D01*
X116532489Y-64290163D01*
X116500970Y-64314135D01*
X116501636Y-64323039D01*
X116540828Y-64369426D01*
X116621584Y-64380313D01*
X116717471Y-64351180D01*
X116741225Y-64339440D01*
X116816938Y-64321258D01*
X116843436Y-64348701D01*
X116809496Y-64414096D01*
X116769014Y-64446452D01*
X116687041Y-64464655D01*
X116551120Y-64460458D01*
X116421882Y-64457163D01*
X116355610Y-64472860D01*
X116359804Y-64505299D01*
X116437698Y-64551873D01*
X116503422Y-64570519D01*
X116589835Y-64560037D01*
X116714925Y-64512142D01*
X116764296Y-64490359D01*
X116865905Y-64447977D01*
X116915850Y-64436602D01*
X116928556Y-64455713D01*
X116918448Y-64504788D01*
X116917576Y-64556311D01*
X116972258Y-64598390D01*
X117001407Y-64612564D01*
X117039319Y-64663006D01*
X117044160Y-64716596D01*
X117007990Y-64741527D01*
X116991962Y-64746292D01*
X116925365Y-64787823D01*
X116837593Y-64858174D01*
X116776448Y-64910593D01*
X116712051Y-64949729D01*
X116649375Y-64948079D01*
X116573726Y-64919351D01*
X116554602Y-64912089D01*
X116475403Y-64882795D01*
X116378563Y-64870435D01*
X116274907Y-64896206D01*
X116224393Y-64911873D01*
X116202509Y-64918661D01*
X116132372Y-64917221D01*
X116067470Y-64872574D01*
X116031983Y-64848316D01*
X115914932Y-64807462D01*
X115766282Y-64785134D01*
X115612478Y-64782553D01*
X115479968Y-64800942D01*
X115405922Y-64836389D01*
X115395200Y-64841522D01*
X115362833Y-64877989D01*
X115362624Y-64906550D01*
X115413870Y-64931052D01*
X115528694Y-64962482D01*
X115589461Y-64978233D01*
X115706300Y-65012779D01*
X115769641Y-65045024D01*
X115795731Y-65085960D01*
X115800817Y-65146579D01*
X115801128Y-65157729D01*
X115814881Y-65202647D01*
X115859803Y-65239846D01*
X115950673Y-65278142D01*
X116102272Y-65326348D01*
X116356881Y-65395098D01*
X116569742Y-65431397D01*
X116748957Y-65432263D01*
X116912626Y-65397724D01*
X117078847Y-65327807D01*
X117084004Y-65325213D01*
X117208955Y-65268206D01*
X117307439Y-65233625D01*
X117358535Y-65228871D01*
X117359068Y-65229207D01*
X117402493Y-65278681D01*
X117453837Y-65363655D01*
X117511511Y-65475184D01*
X117152106Y-65680186D01*
X117063993Y-65730662D01*
X116890216Y-65830794D01*
X116673298Y-65956245D01*
X116427396Y-66098811D01*
X116166668Y-66250292D01*
X115905274Y-66402484D01*
X115676801Y-66535333D01*
X115644561Y-66553979D01*
X115461136Y-66660061D01*
X115276750Y-66765997D01*
X115132608Y-66848014D01*
X115037673Y-66900985D01*
X115000910Y-66919781D01*
X115000877Y-66919776D01*
X114998160Y-66880998D01*
X114995611Y-66770541D01*
X114993263Y-66594448D01*
X114991149Y-66358763D01*
X114989301Y-66069529D01*
X114987752Y-65732790D01*
X114986536Y-65354588D01*
X114985890Y-65040660D01*
X115383047Y-65040660D01*
X115419416Y-65081295D01*
X115498927Y-65123580D01*
X115600313Y-65154581D01*
X115644561Y-65161570D01*
X115712400Y-65156989D01*
X115718744Y-65129423D01*
X115667733Y-65090451D01*
X115563506Y-65051649D01*
X115522729Y-65041346D01*
X115431635Y-65024180D01*
X115387528Y-65025158D01*
X115383047Y-65040660D01*
X114985890Y-65040660D01*
X114985685Y-64940969D01*
X114985493Y-64753273D01*
X116525682Y-64753273D01*
X116573726Y-64777976D01*
X116664547Y-64766134D01*
X116753803Y-64702630D01*
X116794741Y-64655205D01*
X116799870Y-64629511D01*
X116750108Y-64626213D01*
X116671589Y-64641075D01*
X116589759Y-64676623D01*
X116532818Y-64718724D01*
X116525682Y-64753273D01*
X114985493Y-64753273D01*
X114985396Y-64658964D01*
X115995304Y-64658964D01*
X116027290Y-64699424D01*
X116112236Y-64733750D01*
X116224393Y-64753222D01*
X116337949Y-64750915D01*
X116466238Y-64732086D01*
X116330246Y-64639677D01*
X116259243Y-64595780D01*
X116175989Y-64569236D01*
X116094779Y-64585089D01*
X116027476Y-64620241D01*
X115995304Y-64658964D01*
X114985396Y-64658964D01*
X114985231Y-64497975D01*
X114985225Y-64365108D01*
X115292504Y-64365108D01*
X115320360Y-64429355D01*
X115405922Y-64455792D01*
X115543268Y-64431904D01*
X115544834Y-64431386D01*
X115678744Y-64368721D01*
X115745433Y-64285804D01*
X115755006Y-64170143D01*
X115749284Y-64132787D01*
X115718669Y-64077758D01*
X115647851Y-64071346D01*
X115629549Y-64074648D01*
X115530022Y-64114239D01*
X115424191Y-64180294D01*
X115411049Y-64193348D01*
X115328277Y-64275566D01*
X115292504Y-64365108D01*
X114985225Y-64365108D01*
X114985209Y-64031649D01*
X114985315Y-63849247D01*
X115342415Y-63849247D01*
X115342982Y-63926018D01*
X115396780Y-63979328D01*
X115411049Y-63982394D01*
X115492900Y-63968136D01*
X115592675Y-63921101D01*
X115660114Y-63875217D01*
X115697114Y-63828330D01*
X115680770Y-63784498D01*
X115639165Y-63751410D01*
X115532780Y-63732816D01*
X115409286Y-63770461D01*
X115393198Y-63780459D01*
X115342415Y-63849247D01*
X114985315Y-63849247D01*
X114985393Y-63716055D01*
X114985578Y-63557148D01*
X115622839Y-63557148D01*
X115637238Y-63631475D01*
X115728358Y-63707710D01*
X115761631Y-63727230D01*
X115830194Y-63759353D01*
X115874120Y-63748293D01*
X115925235Y-63691416D01*
X115971652Y-63617111D01*
X115983680Y-63558992D01*
X115957087Y-63523560D01*
X115874553Y-63481682D01*
X115774056Y-63465029D01*
X115691797Y-63483024D01*
X115685542Y-63487064D01*
X115622839Y-63557148D01*
X114985578Y-63557148D01*
X114985984Y-63207466D01*
X114986987Y-62769274D01*
X114988495Y-62396730D01*
X114990599Y-62085083D01*
X114993393Y-61829583D01*
X114996968Y-61625480D01*
X115001417Y-61468023D01*
X115006833Y-61352462D01*
X115013308Y-61274047D01*
X115020934Y-61228027D01*
X115029803Y-61209653D01*
X115040009Y-61214173D01*
X115052913Y-61232944D01*
X115104856Y-61316775D01*
X115184609Y-61451026D01*
X115286608Y-61625884D01*
X115405293Y-61831534D01*
X115535100Y-62058161D01*
X115670467Y-62295953D01*
X115805832Y-62535095D01*
X115935632Y-62765773D01*
X116054306Y-62978173D01*
X116156290Y-63162481D01*
X116236022Y-63308882D01*
X116287941Y-63407563D01*
X116306483Y-63448710D01*
X116298506Y-63465615D01*
X116246179Y-63530031D01*
X116155785Y-63625682D01*
X116039967Y-63738805D01*
X115940378Y-63834021D01*
X115855310Y-63922230D01*
X115830194Y-63957644D01*
X115813506Y-63981174D01*
G37*
%TD*%
%LPC*%
X177676514Y-66700285D02*
X177733657Y-66814571D01*
X177733657Y-66814571D02*
X177733657Y-66985999D01*
X177733657Y-66985999D02*
X177676514Y-67157428D01*
X177676514Y-67157428D02*
X177562228Y-67271713D01*
X177562228Y-67271713D02*
X177447942Y-67328856D01*
X177447942Y-67328856D02*
X177219371Y-67385999D01*
X177219371Y-67385999D02*
X177047942Y-67385999D01*
X177047942Y-67385999D02*
X176819371Y-67328856D01*
X176819371Y-67328856D02*
X176705085Y-67271713D01*
X176705085Y-67271713D02*
X176590800Y-67157428D01*
X176590800Y-67157428D02*
X176533657Y-66985999D01*
X176533657Y-66985999D02*
X176533657Y-66871713D01*
X176533657Y-66871713D02*
X176590800Y-66700285D01*
X176590800Y-66700285D02*
X176647942Y-66643142D01*
X176647942Y-66643142D02*
X177047942Y-66643142D01*
X177047942Y-66643142D02*
X177047942Y-66871713D01*
X176533657Y-66128856D02*
X177733657Y-66128856D01*
X177733657Y-66128856D02*
X176533657Y-65443142D01*
X176533657Y-65443142D02*
X177733657Y-65443142D01*
X176533657Y-64871713D02*
X177733657Y-64871713D01*
X177733657Y-64871713D02*
X177733657Y-64585999D01*
X177733657Y-64585999D02*
X177676514Y-64414570D01*
X177676514Y-64414570D02*
X177562228Y-64300285D01*
X177562228Y-64300285D02*
X177447942Y-64243142D01*
X177447942Y-64243142D02*
X177219371Y-64185999D01*
X177219371Y-64185999D02*
X177047942Y-64185999D01*
X177047942Y-64185999D02*
X176819371Y-64243142D01*
X176819371Y-64243142D02*
X176705085Y-64300285D01*
X176705085Y-64300285D02*
X176590800Y-64414570D01*
X176590800Y-64414570D02*
X176533657Y-64585999D01*
X176533657Y-64585999D02*
X176533657Y-64871713D01*
D12*
X179603256Y-87809757D02*
X179746114Y-87738328D01*
X179746114Y-87738328D02*
X179960399Y-87738328D01*
X179960399Y-87738328D02*
X180174685Y-87809757D01*
X180174685Y-87809757D02*
X180317542Y-87952614D01*
X180317542Y-87952614D02*
X180388971Y-88095471D01*
X180388971Y-88095471D02*
X180460399Y-88381185D01*
X180460399Y-88381185D02*
X180460399Y-88595471D01*
X180460399Y-88595471D02*
X180388971Y-88881185D01*
X180388971Y-88881185D02*
X180317542Y-89024042D01*
X180317542Y-89024042D02*
X180174685Y-89166900D01*
X180174685Y-89166900D02*
X179960399Y-89238328D01*
X179960399Y-89238328D02*
X179817542Y-89238328D01*
X179817542Y-89238328D02*
X179603256Y-89166900D01*
X179603256Y-89166900D02*
X179531828Y-89095471D01*
X179531828Y-89095471D02*
X179531828Y-88595471D01*
X179531828Y-88595471D02*
X179817542Y-88595471D01*
X178888971Y-89238328D02*
X178888971Y-87738328D01*
X178888971Y-87738328D02*
X178031828Y-89238328D01*
X178031828Y-89238328D02*
X178031828Y-87738328D01*
X177317542Y-89238328D02*
X177317542Y-87738328D01*
X177317542Y-87738328D02*
X176960399Y-87738328D01*
X176960399Y-87738328D02*
X176746113Y-87809757D01*
X176746113Y-87809757D02*
X176603256Y-87952614D01*
X176603256Y-87952614D02*
X176531827Y-88095471D01*
X176531827Y-88095471D02*
X176460399Y-88381185D01*
X176460399Y-88381185D02*
X176460399Y-88595471D01*
X176460399Y-88595471D02*
X176531827Y-88881185D01*
X176531827Y-88881185D02*
X176603256Y-89024042D01*
X176603256Y-89024042D02*
X176746113Y-89166900D01*
X176746113Y-89166900D02*
X176960399Y-89238328D01*
X176960399Y-89238328D02*
X177317542Y-89238328D01*
X116355442Y-79705056D02*
X116426871Y-79847914D01*
X116426871Y-79847914D02*
X116426871Y-80062199D01*
X116426871Y-80062199D02*
X116355442Y-80276485D01*
X116355442Y-80276485D02*
X116212585Y-80419342D01*
X116212585Y-80419342D02*
X116069728Y-80490771D01*
X116069728Y-80490771D02*
X115784014Y-80562199D01*
X115784014Y-80562199D02*
X115569728Y-80562199D01*
X115569728Y-80562199D02*
X115284014Y-80490771D01*
X115284014Y-80490771D02*
X115141157Y-80419342D01*
X115141157Y-80419342D02*
X114998300Y-80276485D01*
X114998300Y-80276485D02*
X114926871Y-80062199D01*
X114926871Y-80062199D02*
X114926871Y-79919342D01*
X114926871Y-79919342D02*
X114998300Y-79705056D01*
X114998300Y-79705056D02*
X115069728Y-79633628D01*
X115069728Y-79633628D02*
X115569728Y-79633628D01*
X115569728Y-79633628D02*
X115569728Y-79919342D01*
X114926871Y-78990771D02*
X116426871Y-78990771D01*
X116426871Y-78990771D02*
X114926871Y-78133628D01*
X114926871Y-78133628D02*
X116426871Y-78133628D01*
X114926871Y-77419342D02*
X116426871Y-77419342D01*
X116426871Y-77419342D02*
X116426871Y-77062199D01*
X116426871Y-77062199D02*
X116355442Y-76847913D01*
X116355442Y-76847913D02*
X116212585Y-76705056D01*
X116212585Y-76705056D02*
X116069728Y-76633627D01*
X116069728Y-76633627D02*
X115784014Y-76562199D01*
X115784014Y-76562199D02*
X115569728Y-76562199D01*
X115569728Y-76562199D02*
X115284014Y-76633627D01*
X115284014Y-76633627D02*
X115141157Y-76705056D01*
X115141157Y-76705056D02*
X114998300Y-76847913D01*
X114998300Y-76847913D02*
X114926871Y-77062199D01*
X114926871Y-77062199D02*
X114926871Y-77419342D01*
D14*
%TO.C,J4*%
X120736600Y-82143600D03*
D15*
X118196600Y-82143600D03*
D16*
X115656600Y-82143600D03*
%TD*%
D17*
%TO.C,J1*%
X167110400Y-62670600D03*
X169110400Y-62670600D03*
X171110400Y-62670600D03*
X173110400Y-62670600D03*
X175110400Y-62670600D03*
D18*
X177110400Y-62670600D03*
%TD*%
D14*
%TO.C,J2*%
X120736600Y-87223600D03*
D15*
X118196600Y-87223600D03*
D16*
X115656600Y-87223600D03*
%TD*%
D19*
%TO.C,A1*%
X129746200Y-58099600D03*
X180546200Y-73339600D03*
X180546200Y-101279600D03*
D20*
X142446200Y-106359600D03*
D21*
X144986200Y-106359600D03*
X147526200Y-106359600D03*
X150066200Y-106359600D03*
X152606200Y-106359600D03*
D22*
X155146200Y-106359600D03*
X157686200Y-106359600D03*
D21*
X160226200Y-106359600D03*
X165306200Y-106359600D03*
X167846200Y-106359600D03*
X170386200Y-106359600D03*
X172926200Y-106359600D03*
X175466200Y-106359600D03*
X178006200Y-106359600D03*
X178006200Y-58099600D03*
X175466200Y-58099600D03*
X172926200Y-58099600D03*
X170386200Y-58099600D03*
X167846200Y-58099600D03*
X165306200Y-58099600D03*
X162766200Y-58099600D03*
X160226200Y-58099600D03*
X156166200Y-58099600D03*
X153626200Y-58099600D03*
X151086200Y-58099600D03*
X148546200Y-58099600D03*
X146006200Y-58099600D03*
X143466200Y-58099600D03*
D22*
X140926200Y-58099600D03*
D21*
X138386200Y-58099600D03*
X135846200Y-58099600D03*
X133306200Y-58099600D03*
%TD*%
D14*
%TO.C,J5*%
X181940200Y-91033600D03*
D16*
X181940200Y-88493600D03*
D15*
X181940200Y-85953600D03*
X181940200Y-83413600D03*
X181940200Y-80873600D03*
X181940200Y-78333600D03*
%TD*%
D14*
%TO.C,J3*%
X120736600Y-84683600D03*
D15*
X118196600Y-84683600D03*
D16*
X115656600Y-84683600D03*
%TD*%
M02*
