G04 This is an RS-274x file exported by *
G04 gerbv version 2.6A *
G04 More information is available about gerbv at *
G04 http://gerbv.geda-project.org/ *
G04 --End of header info--*
%MOIN*%
%FSLAX34Y34*%
%IPPOS*%
G04 --Define apertures--*
%ADD10C,0.0079*%
%ADD11C,0.0118*%
%ADD12C,0.0669*%
%ADD13O,0.0669X0.0669*%
%ADD14R,0.0669X0.0669*%
%ADD15O,0.0472X0.0689*%
%AMMACRO16*
4,1,4,-0.011811,-0.022638,0.011811,-0.022638,0.011811,0.022638,-0.011811,0.022638,-0.011811,-0.022638,0.000000*
1,1,0.023622,-0.011811,-0.022638*
1,1,0.023622,0.011811,-0.022638*
1,1,0.023622,0.011811,0.022638*
1,1,0.023622,-0.011811,0.022638*
20,1,0.023622,-0.011811,-0.022638,0.011811,-0.022638,0.000000*
20,1,0.023622,0.011811,-0.022638,0.011811,0.022638,0.000000*
20,1,0.023622,0.011811,0.022638,-0.011811,0.022638,0.000000*
20,1,0.023622,-0.011811,0.022638,-0.011811,-0.022638,0.000000*
%
%ADD16MACRO16*%
%ADD17C,0.1260*%
%ADD18C,0.0630*%
%ADD19O,0.0630X0.0630*%
%ADD20R,0.0630X0.0630*%
G04 --Start main section--*
G54D12*
G01X0047534Y-032340D03*
G54D13*
G01X0046534Y-032340D03*
G54D14*
G01X0045534Y-032340D03*
G54D15*
G01X0065791Y-024673D03*
G01X0066579Y-024673D03*
G01X0067366Y-024673D03*
G01X0068154Y-024673D03*
G01X0068941Y-024673D03*
G54D16*
G01X0069729Y-024673D03*
G54D12*
G01X0047534Y-034340D03*
G54D13*
G01X0046534Y-034340D03*
G54D14*
G01X0045534Y-034340D03*
G54D17*
G01X0051081Y-022874D03*
G01X0071081Y-028874D03*
G01X0071081Y-039874D03*
G54D18*
G01X0056081Y-041874D03*
G54D19*
G01X0057081Y-041874D03*
G01X0058081Y-041874D03*
G01X0059081Y-041874D03*
G01X0060081Y-041874D03*
G54D20*
G01X0061081Y-041874D03*
G01X0062081Y-041874D03*
G54D19*
G01X0063081Y-041874D03*
G01X0065081Y-041874D03*
G01X0066081Y-041874D03*
G01X0067081Y-041874D03*
G01X0068081Y-041874D03*
G01X0069081Y-041874D03*
G01X0070081Y-041874D03*
G01X0070081Y-022874D03*
G01X0069081Y-022874D03*
G01X0068081Y-022874D03*
G01X0067081Y-022874D03*
G01X0066081Y-022874D03*
G01X0065081Y-022874D03*
G01X0064081Y-022874D03*
G01X0063081Y-022874D03*
G01X0061483Y-022874D03*
G01X0060483Y-022874D03*
G01X0059483Y-022874D03*
G01X0058483Y-022874D03*
G01X0057483Y-022874D03*
G01X0056483Y-022874D03*
G54D20*
G01X0055483Y-022874D03*
G54D19*
G01X0054483Y-022874D03*
G01X0053483Y-022874D03*
G01X0052483Y-022874D03*
G54D12*
G01X0071630Y-035840D03*
G54D14*
G01X0071630Y-034840D03*
G54D13*
G01X0071630Y-033840D03*
G01X0071630Y-032840D03*
G01X0071630Y-031840D03*
G01X0071630Y-030840D03*
G54D12*
G01X0047534Y-033340D03*
G54D13*
G01X0046534Y-033340D03*
G54D14*
G01X0045534Y-033340D03*
M02*
