%TF.GenerationSoftware,KiCad,Pcbnew,7.0.1*%
%TF.CreationDate,2023-08-21T19:33:12-03:00*%
%TF.ProjectId,L298P_Breakout,4c323938-505f-4427-9265-616b6f75742e,rev?*%
%TF.SameCoordinates,Original*%
%TF.FileFunction,Legend,Bot*%
%TF.FilePolarity,Positive*%
%FSLAX46Y46*%
G04 Gerber Fmt 4.6, Leading zero omitted, Abs format (unit mm)*
G04 Created by KiCad (PCBNEW 7.0.1) date 2023-08-21 19:33:12*
%MOMM*%
%LPD*%
G01*
G04 APERTURE LIST*
G04 Aperture macros list*
%AMFreePoly0*
4,1,19,0.550000,-0.750000,0.000000,-0.750000,0.000000,-0.744911,-0.071157,-0.744911,-0.207708,-0.704816,-0.327430,-0.627875,-0.420627,-0.520320,-0.479746,-0.390866,-0.500000,-0.250000,-0.500000,0.250000,-0.479746,0.390866,-0.420627,0.520320,-0.327430,0.627875,-0.207708,0.704816,-0.071157,0.744911,0.000000,0.744911,0.000000,0.750000,0.550000,0.750000,0.550000,-0.750000,0.550000,-0.750000,
$1*%
%AMFreePoly1*
4,1,19,0.000000,0.744911,0.071157,0.744911,0.207708,0.704816,0.327430,0.627875,0.420627,0.520320,0.479746,0.390866,0.500000,0.250000,0.500000,-0.250000,0.479746,-0.390866,0.420627,-0.520320,0.327430,-0.627875,0.207708,-0.704816,0.071157,-0.744911,0.000000,-0.744911,0.000000,-0.750000,-0.550000,-0.750000,-0.550000,0.750000,0.000000,0.750000,0.000000,0.744911,0.000000,0.744911,
$1*%
G04 Aperture macros list end*
%ADD10C,0.150000*%
%ADD11C,0.200000*%
%ADD12C,0.250000*%
%ADD13C,0.350000*%
%ADD14C,2.700000*%
%ADD15C,2.500000*%
%ADD16R,2.500000X2.500000*%
%ADD17R,1.700000X1.700000*%
%ADD18O,1.700000X1.700000*%
%ADD19FreePoly0,90.000000*%
%ADD20R,1.500000X1.000000*%
%ADD21FreePoly1,90.000000*%
G04 APERTURE END LIST*
D10*
X136225000Y-115200000D02*
X138325000Y-115200000D01*
X138325000Y-120850000D01*
X136225000Y-120850000D01*
X136225000Y-115200000D01*
G36*
X136225000Y-115200000D02*
G01*
X138325000Y-115200000D01*
X138325000Y-120850000D01*
X136225000Y-120850000D01*
X136225000Y-115200000D01*
G37*
X161700000Y-112300000D02*
X160800000Y-112300000D01*
X146800000Y-79125000D02*
X149700000Y-79125000D01*
X149700000Y-93750000D01*
X146800000Y-93750000D01*
X146800000Y-79125000D01*
G36*
X146800000Y-79125000D02*
G01*
X149700000Y-79125000D01*
X149700000Y-93750000D01*
X146800000Y-93750000D01*
X146800000Y-79125000D01*
G37*
X146425000Y-115200000D02*
X148525000Y-115200000D01*
X148525000Y-120850000D01*
X146425000Y-120850000D01*
X146425000Y-115200000D01*
G36*
X146425000Y-115200000D02*
G01*
X148525000Y-115200000D01*
X148525000Y-120850000D01*
X146425000Y-120850000D01*
X146425000Y-115200000D01*
G37*
X161650000Y-115249600D02*
X163750000Y-115249600D01*
X163750000Y-120875000D01*
X161650000Y-120875000D01*
X161650000Y-115249600D01*
G36*
X161650000Y-115249600D02*
G01*
X163750000Y-115249600D01*
X163750000Y-120875000D01*
X161650000Y-120875000D01*
X161650000Y-115249600D01*
G37*
X151500000Y-115200000D02*
X153600000Y-115200000D01*
X153600000Y-120850000D01*
X151500000Y-120850000D01*
X151500000Y-115200000D01*
G36*
X151500000Y-115200000D02*
G01*
X153600000Y-115200000D01*
X153600000Y-120850000D01*
X151500000Y-120850000D01*
X151500000Y-115200000D01*
G37*
D11*
X160870095Y-112759523D02*
X160870095Y-113254761D01*
X160870095Y-113254761D02*
X161174857Y-112988095D01*
X161174857Y-112988095D02*
X161174857Y-113102380D01*
X161174857Y-113102380D02*
X161212952Y-113178571D01*
X161212952Y-113178571D02*
X161251047Y-113216666D01*
X161251047Y-113216666D02*
X161327238Y-113254761D01*
X161327238Y-113254761D02*
X161517714Y-113254761D01*
X161517714Y-113254761D02*
X161593904Y-113216666D01*
X161593904Y-113216666D02*
X161632000Y-113178571D01*
X161632000Y-113178571D02*
X161670095Y-113102380D01*
X161670095Y-113102380D02*
X161670095Y-112873809D01*
X161670095Y-112873809D02*
X161632000Y-112797618D01*
X161632000Y-112797618D02*
X161593904Y-112759523D01*
X160870095Y-113483333D02*
X161670095Y-113750000D01*
X161670095Y-113750000D02*
X160870095Y-114016666D01*
X160870095Y-114207142D02*
X160870095Y-114702380D01*
X160870095Y-114702380D02*
X161174857Y-114435714D01*
X161174857Y-114435714D02*
X161174857Y-114549999D01*
X161174857Y-114549999D02*
X161212952Y-114626190D01*
X161212952Y-114626190D02*
X161251047Y-114664285D01*
X161251047Y-114664285D02*
X161327238Y-114702380D01*
X161327238Y-114702380D02*
X161517714Y-114702380D01*
X161517714Y-114702380D02*
X161593904Y-114664285D01*
X161593904Y-114664285D02*
X161632000Y-114626190D01*
X161632000Y-114626190D02*
X161670095Y-114549999D01*
X161670095Y-114549999D02*
X161670095Y-114321428D01*
X161670095Y-114321428D02*
X161632000Y-114245237D01*
X161632000Y-114245237D02*
X161593904Y-114207142D01*
D12*
X160612619Y-115676191D02*
X159612619Y-115676191D01*
X160612619Y-116152381D02*
X159612619Y-116152381D01*
X159612619Y-116152381D02*
X160612619Y-116723809D01*
X160612619Y-116723809D02*
X159612619Y-116723809D01*
X160088809Y-117533333D02*
X160136428Y-117676190D01*
X160136428Y-117676190D02*
X160184047Y-117723809D01*
X160184047Y-117723809D02*
X160279285Y-117771428D01*
X160279285Y-117771428D02*
X160422142Y-117771428D01*
X160422142Y-117771428D02*
X160517380Y-117723809D01*
X160517380Y-117723809D02*
X160565000Y-117676190D01*
X160565000Y-117676190D02*
X160612619Y-117580952D01*
X160612619Y-117580952D02*
X160612619Y-117200000D01*
X160612619Y-117200000D02*
X159612619Y-117200000D01*
X159612619Y-117200000D02*
X159612619Y-117533333D01*
X159612619Y-117533333D02*
X159660238Y-117628571D01*
X159660238Y-117628571D02*
X159707857Y-117676190D01*
X159707857Y-117676190D02*
X159803095Y-117723809D01*
X159803095Y-117723809D02*
X159898333Y-117723809D01*
X159898333Y-117723809D02*
X159993571Y-117676190D01*
X159993571Y-117676190D02*
X160041190Y-117628571D01*
X160041190Y-117628571D02*
X160088809Y-117533333D01*
X160088809Y-117533333D02*
X160088809Y-117200000D01*
D13*
X150943928Y-89607143D02*
X152443928Y-90107143D01*
X152443928Y-90107143D02*
X150943928Y-90607143D01*
X152443928Y-91107142D02*
X150943928Y-91107142D01*
X152443928Y-91821428D02*
X150943928Y-91821428D01*
X150943928Y-91821428D02*
X152443928Y-92678571D01*
X152443928Y-92678571D02*
X150943928Y-92678571D01*
D12*
X163762619Y-111166667D02*
X164762619Y-111500000D01*
X164762619Y-111500000D02*
X163762619Y-111833333D01*
X164667380Y-112738095D02*
X164715000Y-112690476D01*
X164715000Y-112690476D02*
X164762619Y-112547619D01*
X164762619Y-112547619D02*
X164762619Y-112452381D01*
X164762619Y-112452381D02*
X164715000Y-112309524D01*
X164715000Y-112309524D02*
X164619761Y-112214286D01*
X164619761Y-112214286D02*
X164524523Y-112166667D01*
X164524523Y-112166667D02*
X164334047Y-112119048D01*
X164334047Y-112119048D02*
X164191190Y-112119048D01*
X164191190Y-112119048D02*
X164000714Y-112166667D01*
X164000714Y-112166667D02*
X163905476Y-112214286D01*
X163905476Y-112214286D02*
X163810238Y-112309524D01*
X163810238Y-112309524D02*
X163762619Y-112452381D01*
X163762619Y-112452381D02*
X163762619Y-112547619D01*
X163762619Y-112547619D02*
X163810238Y-112690476D01*
X163810238Y-112690476D02*
X163857857Y-112738095D01*
X164667380Y-113738095D02*
X164715000Y-113690476D01*
X164715000Y-113690476D02*
X164762619Y-113547619D01*
X164762619Y-113547619D02*
X164762619Y-113452381D01*
X164762619Y-113452381D02*
X164715000Y-113309524D01*
X164715000Y-113309524D02*
X164619761Y-113214286D01*
X164619761Y-113214286D02*
X164524523Y-113166667D01*
X164524523Y-113166667D02*
X164334047Y-113119048D01*
X164334047Y-113119048D02*
X164191190Y-113119048D01*
X164191190Y-113119048D02*
X164000714Y-113166667D01*
X164000714Y-113166667D02*
X163905476Y-113214286D01*
X163905476Y-113214286D02*
X163810238Y-113309524D01*
X163810238Y-113309524D02*
X163762619Y-113452381D01*
X163762619Y-113452381D02*
X163762619Y-113547619D01*
X163762619Y-113547619D02*
X163810238Y-113690476D01*
X163810238Y-113690476D02*
X163857857Y-113738095D01*
D11*
X136810238Y-116138095D02*
X136762619Y-116042857D01*
X136762619Y-116042857D02*
X136762619Y-115900000D01*
X136762619Y-115900000D02*
X136810238Y-115757143D01*
X136810238Y-115757143D02*
X136905476Y-115661905D01*
X136905476Y-115661905D02*
X137000714Y-115614286D01*
X137000714Y-115614286D02*
X137191190Y-115566667D01*
X137191190Y-115566667D02*
X137334047Y-115566667D01*
X137334047Y-115566667D02*
X137524523Y-115614286D01*
X137524523Y-115614286D02*
X137619761Y-115661905D01*
X137619761Y-115661905D02*
X137715000Y-115757143D01*
X137715000Y-115757143D02*
X137762619Y-115900000D01*
X137762619Y-115900000D02*
X137762619Y-115995238D01*
X137762619Y-115995238D02*
X137715000Y-116138095D01*
X137715000Y-116138095D02*
X137667380Y-116185714D01*
X137667380Y-116185714D02*
X137334047Y-116185714D01*
X137334047Y-116185714D02*
X137334047Y-115995238D01*
X137762619Y-116614286D02*
X136762619Y-116614286D01*
X136762619Y-116614286D02*
X137762619Y-117185714D01*
X137762619Y-117185714D02*
X136762619Y-117185714D01*
X137762619Y-117661905D02*
X136762619Y-117661905D01*
X136762619Y-117661905D02*
X136762619Y-117900000D01*
X136762619Y-117900000D02*
X136810238Y-118042857D01*
X136810238Y-118042857D02*
X136905476Y-118138095D01*
X136905476Y-118138095D02*
X137000714Y-118185714D01*
X137000714Y-118185714D02*
X137191190Y-118233333D01*
X137191190Y-118233333D02*
X137334047Y-118233333D01*
X137334047Y-118233333D02*
X137524523Y-118185714D01*
X137524523Y-118185714D02*
X137619761Y-118138095D01*
X137619761Y-118138095D02*
X137715000Y-118042857D01*
X137715000Y-118042857D02*
X137762619Y-117900000D01*
X137762619Y-117900000D02*
X137762619Y-117661905D01*
D12*
X142862619Y-113966667D02*
X141862619Y-113966667D01*
X141862619Y-113966667D02*
X141862619Y-114347619D01*
X141862619Y-114347619D02*
X141910238Y-114442857D01*
X141910238Y-114442857D02*
X141957857Y-114490476D01*
X141957857Y-114490476D02*
X142053095Y-114538095D01*
X142053095Y-114538095D02*
X142195952Y-114538095D01*
X142195952Y-114538095D02*
X142291190Y-114490476D01*
X142291190Y-114490476D02*
X142338809Y-114442857D01*
X142338809Y-114442857D02*
X142386428Y-114347619D01*
X142386428Y-114347619D02*
X142386428Y-113966667D01*
X141862619Y-114871429D02*
X142862619Y-115109524D01*
X142862619Y-115109524D02*
X142148333Y-115300000D01*
X142148333Y-115300000D02*
X142862619Y-115490476D01*
X142862619Y-115490476D02*
X141862619Y-115728572D01*
X142862619Y-116109524D02*
X141862619Y-116109524D01*
X141862619Y-116109524D02*
X142576904Y-116442857D01*
X142576904Y-116442857D02*
X141862619Y-116776190D01*
X141862619Y-116776190D02*
X142862619Y-116776190D01*
X142576904Y-117204762D02*
X142576904Y-117680952D01*
X142862619Y-117109524D02*
X141862619Y-117442857D01*
X141862619Y-117442857D02*
X142862619Y-117776190D01*
X158062619Y-113895238D02*
X157062619Y-113895238D01*
X157062619Y-113895238D02*
X157062619Y-114276190D01*
X157062619Y-114276190D02*
X157110238Y-114371428D01*
X157110238Y-114371428D02*
X157157857Y-114419047D01*
X157157857Y-114419047D02*
X157253095Y-114466666D01*
X157253095Y-114466666D02*
X157395952Y-114466666D01*
X157395952Y-114466666D02*
X157491190Y-114419047D01*
X157491190Y-114419047D02*
X157538809Y-114371428D01*
X157538809Y-114371428D02*
X157586428Y-114276190D01*
X157586428Y-114276190D02*
X157586428Y-113895238D01*
X157062619Y-114800000D02*
X158062619Y-115038095D01*
X158062619Y-115038095D02*
X157348333Y-115228571D01*
X157348333Y-115228571D02*
X158062619Y-115419047D01*
X158062619Y-115419047D02*
X157062619Y-115657143D01*
X158062619Y-116038095D02*
X157062619Y-116038095D01*
X157062619Y-116038095D02*
X157776904Y-116371428D01*
X157776904Y-116371428D02*
X157062619Y-116704761D01*
X157062619Y-116704761D02*
X158062619Y-116704761D01*
X157538809Y-117514285D02*
X157586428Y-117657142D01*
X157586428Y-117657142D02*
X157634047Y-117704761D01*
X157634047Y-117704761D02*
X157729285Y-117752380D01*
X157729285Y-117752380D02*
X157872142Y-117752380D01*
X157872142Y-117752380D02*
X157967380Y-117704761D01*
X157967380Y-117704761D02*
X158015000Y-117657142D01*
X158015000Y-117657142D02*
X158062619Y-117561904D01*
X158062619Y-117561904D02*
X158062619Y-117180952D01*
X158062619Y-117180952D02*
X157062619Y-117180952D01*
X157062619Y-117180952D02*
X157062619Y-117514285D01*
X157062619Y-117514285D02*
X157110238Y-117609523D01*
X157110238Y-117609523D02*
X157157857Y-117657142D01*
X157157857Y-117657142D02*
X157253095Y-117704761D01*
X157253095Y-117704761D02*
X157348333Y-117704761D01*
X157348333Y-117704761D02*
X157443571Y-117657142D01*
X157443571Y-117657142D02*
X157491190Y-117609523D01*
X157491190Y-117609523D02*
X157538809Y-117514285D01*
X157538809Y-117514285D02*
X157538809Y-117180952D01*
D11*
X168652619Y-95607143D02*
X167652619Y-95607143D01*
X167652619Y-95607143D02*
X168366904Y-95940476D01*
X168366904Y-95940476D02*
X167652619Y-96273809D01*
X167652619Y-96273809D02*
X168652619Y-96273809D01*
X167652619Y-96940476D02*
X167652619Y-97130952D01*
X167652619Y-97130952D02*
X167700238Y-97226190D01*
X167700238Y-97226190D02*
X167795476Y-97321428D01*
X167795476Y-97321428D02*
X167985952Y-97369047D01*
X167985952Y-97369047D02*
X168319285Y-97369047D01*
X168319285Y-97369047D02*
X168509761Y-97321428D01*
X168509761Y-97321428D02*
X168605000Y-97226190D01*
X168605000Y-97226190D02*
X168652619Y-97130952D01*
X168652619Y-97130952D02*
X168652619Y-96940476D01*
X168652619Y-96940476D02*
X168605000Y-96845238D01*
X168605000Y-96845238D02*
X168509761Y-96750000D01*
X168509761Y-96750000D02*
X168319285Y-96702381D01*
X168319285Y-96702381D02*
X167985952Y-96702381D01*
X167985952Y-96702381D02*
X167795476Y-96750000D01*
X167795476Y-96750000D02*
X167700238Y-96845238D01*
X167700238Y-96845238D02*
X167652619Y-96940476D01*
X167652619Y-97654762D02*
X167652619Y-98226190D01*
X168652619Y-97940476D02*
X167652619Y-97940476D01*
X167652619Y-98750000D02*
X167652619Y-98940476D01*
X167652619Y-98940476D02*
X167700238Y-99035714D01*
X167700238Y-99035714D02*
X167795476Y-99130952D01*
X167795476Y-99130952D02*
X167985952Y-99178571D01*
X167985952Y-99178571D02*
X168319285Y-99178571D01*
X168319285Y-99178571D02*
X168509761Y-99130952D01*
X168509761Y-99130952D02*
X168605000Y-99035714D01*
X168605000Y-99035714D02*
X168652619Y-98940476D01*
X168652619Y-98940476D02*
X168652619Y-98750000D01*
X168652619Y-98750000D02*
X168605000Y-98654762D01*
X168605000Y-98654762D02*
X168509761Y-98559524D01*
X168509761Y-98559524D02*
X168319285Y-98511905D01*
X168319285Y-98511905D02*
X167985952Y-98511905D01*
X167985952Y-98511905D02*
X167795476Y-98559524D01*
X167795476Y-98559524D02*
X167700238Y-98654762D01*
X167700238Y-98654762D02*
X167652619Y-98750000D01*
X168652619Y-100178571D02*
X168176428Y-99845238D01*
X168652619Y-99607143D02*
X167652619Y-99607143D01*
X167652619Y-99607143D02*
X167652619Y-99988095D01*
X167652619Y-99988095D02*
X167700238Y-100083333D01*
X167700238Y-100083333D02*
X167747857Y-100130952D01*
X167747857Y-100130952D02*
X167843095Y-100178571D01*
X167843095Y-100178571D02*
X167985952Y-100178571D01*
X167985952Y-100178571D02*
X168081190Y-100130952D01*
X168081190Y-100130952D02*
X168128809Y-100083333D01*
X168128809Y-100083333D02*
X168176428Y-99988095D01*
X168176428Y-99988095D02*
X168176428Y-99607143D01*
X168128809Y-101702381D02*
X168176428Y-101845238D01*
X168176428Y-101845238D02*
X168224047Y-101892857D01*
X168224047Y-101892857D02*
X168319285Y-101940476D01*
X168319285Y-101940476D02*
X168462142Y-101940476D01*
X168462142Y-101940476D02*
X168557380Y-101892857D01*
X168557380Y-101892857D02*
X168605000Y-101845238D01*
X168605000Y-101845238D02*
X168652619Y-101750000D01*
X168652619Y-101750000D02*
X168652619Y-101369048D01*
X168652619Y-101369048D02*
X167652619Y-101369048D01*
X167652619Y-101369048D02*
X167652619Y-101702381D01*
X167652619Y-101702381D02*
X167700238Y-101797619D01*
X167700238Y-101797619D02*
X167747857Y-101845238D01*
X167747857Y-101845238D02*
X167843095Y-101892857D01*
X167843095Y-101892857D02*
X167938333Y-101892857D01*
X167938333Y-101892857D02*
X168033571Y-101845238D01*
X168033571Y-101845238D02*
X168081190Y-101797619D01*
X168081190Y-101797619D02*
X168128809Y-101702381D01*
X168128809Y-101702381D02*
X168128809Y-101369048D01*
X169272619Y-96345238D02*
X169272619Y-96535714D01*
X169272619Y-96535714D02*
X169320238Y-96630952D01*
X169320238Y-96630952D02*
X169415476Y-96726190D01*
X169415476Y-96726190D02*
X169605952Y-96773809D01*
X169605952Y-96773809D02*
X169939285Y-96773809D01*
X169939285Y-96773809D02*
X170129761Y-96726190D01*
X170129761Y-96726190D02*
X170225000Y-96630952D01*
X170225000Y-96630952D02*
X170272619Y-96535714D01*
X170272619Y-96535714D02*
X170272619Y-96345238D01*
X170272619Y-96345238D02*
X170225000Y-96250000D01*
X170225000Y-96250000D02*
X170129761Y-96154762D01*
X170129761Y-96154762D02*
X169939285Y-96107143D01*
X169939285Y-96107143D02*
X169605952Y-96107143D01*
X169605952Y-96107143D02*
X169415476Y-96154762D01*
X169415476Y-96154762D02*
X169320238Y-96250000D01*
X169320238Y-96250000D02*
X169272619Y-96345238D01*
X169272619Y-97202381D02*
X170082142Y-97202381D01*
X170082142Y-97202381D02*
X170177380Y-97250000D01*
X170177380Y-97250000D02*
X170225000Y-97297619D01*
X170225000Y-97297619D02*
X170272619Y-97392857D01*
X170272619Y-97392857D02*
X170272619Y-97583333D01*
X170272619Y-97583333D02*
X170225000Y-97678571D01*
X170225000Y-97678571D02*
X170177380Y-97726190D01*
X170177380Y-97726190D02*
X170082142Y-97773809D01*
X170082142Y-97773809D02*
X169272619Y-97773809D01*
X169272619Y-98107143D02*
X169272619Y-98678571D01*
X170272619Y-98392857D02*
X169272619Y-98392857D01*
X170272619Y-99011905D02*
X169272619Y-99011905D01*
X169272619Y-99011905D02*
X169272619Y-99392857D01*
X169272619Y-99392857D02*
X169320238Y-99488095D01*
X169320238Y-99488095D02*
X169367857Y-99535714D01*
X169367857Y-99535714D02*
X169463095Y-99583333D01*
X169463095Y-99583333D02*
X169605952Y-99583333D01*
X169605952Y-99583333D02*
X169701190Y-99535714D01*
X169701190Y-99535714D02*
X169748809Y-99488095D01*
X169748809Y-99488095D02*
X169796428Y-99392857D01*
X169796428Y-99392857D02*
X169796428Y-99011905D01*
X169272619Y-100011905D02*
X170082142Y-100011905D01*
X170082142Y-100011905D02*
X170177380Y-100059524D01*
X170177380Y-100059524D02*
X170225000Y-100107143D01*
X170225000Y-100107143D02*
X170272619Y-100202381D01*
X170272619Y-100202381D02*
X170272619Y-100392857D01*
X170272619Y-100392857D02*
X170225000Y-100488095D01*
X170225000Y-100488095D02*
X170177380Y-100535714D01*
X170177380Y-100535714D02*
X170082142Y-100583333D01*
X170082142Y-100583333D02*
X169272619Y-100583333D01*
X169272619Y-100916667D02*
X169272619Y-101488095D01*
X170272619Y-101202381D02*
X169272619Y-101202381D01*
D12*
X140312619Y-115697619D02*
X139312619Y-115697619D01*
X140312619Y-116173809D02*
X139312619Y-116173809D01*
X139312619Y-116173809D02*
X140312619Y-116745237D01*
X140312619Y-116745237D02*
X139312619Y-116745237D01*
X140026904Y-117173809D02*
X140026904Y-117649999D01*
X140312619Y-117078571D02*
X139312619Y-117411904D01*
X139312619Y-117411904D02*
X140312619Y-117745237D01*
D11*
X130402619Y-95678571D02*
X129402619Y-95678571D01*
X129402619Y-95678571D02*
X130116904Y-96011904D01*
X130116904Y-96011904D02*
X129402619Y-96345237D01*
X129402619Y-96345237D02*
X130402619Y-96345237D01*
X129402619Y-97011904D02*
X129402619Y-97202380D01*
X129402619Y-97202380D02*
X129450238Y-97297618D01*
X129450238Y-97297618D02*
X129545476Y-97392856D01*
X129545476Y-97392856D02*
X129735952Y-97440475D01*
X129735952Y-97440475D02*
X130069285Y-97440475D01*
X130069285Y-97440475D02*
X130259761Y-97392856D01*
X130259761Y-97392856D02*
X130355000Y-97297618D01*
X130355000Y-97297618D02*
X130402619Y-97202380D01*
X130402619Y-97202380D02*
X130402619Y-97011904D01*
X130402619Y-97011904D02*
X130355000Y-96916666D01*
X130355000Y-96916666D02*
X130259761Y-96821428D01*
X130259761Y-96821428D02*
X130069285Y-96773809D01*
X130069285Y-96773809D02*
X129735952Y-96773809D01*
X129735952Y-96773809D02*
X129545476Y-96821428D01*
X129545476Y-96821428D02*
X129450238Y-96916666D01*
X129450238Y-96916666D02*
X129402619Y-97011904D01*
X129402619Y-97726190D02*
X129402619Y-98297618D01*
X130402619Y-98011904D02*
X129402619Y-98011904D01*
X129402619Y-98821428D02*
X129402619Y-99011904D01*
X129402619Y-99011904D02*
X129450238Y-99107142D01*
X129450238Y-99107142D02*
X129545476Y-99202380D01*
X129545476Y-99202380D02*
X129735952Y-99249999D01*
X129735952Y-99249999D02*
X130069285Y-99249999D01*
X130069285Y-99249999D02*
X130259761Y-99202380D01*
X130259761Y-99202380D02*
X130355000Y-99107142D01*
X130355000Y-99107142D02*
X130402619Y-99011904D01*
X130402619Y-99011904D02*
X130402619Y-98821428D01*
X130402619Y-98821428D02*
X130355000Y-98726190D01*
X130355000Y-98726190D02*
X130259761Y-98630952D01*
X130259761Y-98630952D02*
X130069285Y-98583333D01*
X130069285Y-98583333D02*
X129735952Y-98583333D01*
X129735952Y-98583333D02*
X129545476Y-98630952D01*
X129545476Y-98630952D02*
X129450238Y-98726190D01*
X129450238Y-98726190D02*
X129402619Y-98821428D01*
X130402619Y-100249999D02*
X129926428Y-99916666D01*
X130402619Y-99678571D02*
X129402619Y-99678571D01*
X129402619Y-99678571D02*
X129402619Y-100059523D01*
X129402619Y-100059523D02*
X129450238Y-100154761D01*
X129450238Y-100154761D02*
X129497857Y-100202380D01*
X129497857Y-100202380D02*
X129593095Y-100249999D01*
X129593095Y-100249999D02*
X129735952Y-100249999D01*
X129735952Y-100249999D02*
X129831190Y-100202380D01*
X129831190Y-100202380D02*
X129878809Y-100154761D01*
X129878809Y-100154761D02*
X129926428Y-100059523D01*
X129926428Y-100059523D02*
X129926428Y-99678571D01*
X130116904Y-101392857D02*
X130116904Y-101869047D01*
X130402619Y-101297619D02*
X129402619Y-101630952D01*
X129402619Y-101630952D02*
X130402619Y-101964285D01*
X131022619Y-96345238D02*
X131022619Y-96535714D01*
X131022619Y-96535714D02*
X131070238Y-96630952D01*
X131070238Y-96630952D02*
X131165476Y-96726190D01*
X131165476Y-96726190D02*
X131355952Y-96773809D01*
X131355952Y-96773809D02*
X131689285Y-96773809D01*
X131689285Y-96773809D02*
X131879761Y-96726190D01*
X131879761Y-96726190D02*
X131975000Y-96630952D01*
X131975000Y-96630952D02*
X132022619Y-96535714D01*
X132022619Y-96535714D02*
X132022619Y-96345238D01*
X132022619Y-96345238D02*
X131975000Y-96250000D01*
X131975000Y-96250000D02*
X131879761Y-96154762D01*
X131879761Y-96154762D02*
X131689285Y-96107143D01*
X131689285Y-96107143D02*
X131355952Y-96107143D01*
X131355952Y-96107143D02*
X131165476Y-96154762D01*
X131165476Y-96154762D02*
X131070238Y-96250000D01*
X131070238Y-96250000D02*
X131022619Y-96345238D01*
X131022619Y-97202381D02*
X131832142Y-97202381D01*
X131832142Y-97202381D02*
X131927380Y-97250000D01*
X131927380Y-97250000D02*
X131975000Y-97297619D01*
X131975000Y-97297619D02*
X132022619Y-97392857D01*
X132022619Y-97392857D02*
X132022619Y-97583333D01*
X132022619Y-97583333D02*
X131975000Y-97678571D01*
X131975000Y-97678571D02*
X131927380Y-97726190D01*
X131927380Y-97726190D02*
X131832142Y-97773809D01*
X131832142Y-97773809D02*
X131022619Y-97773809D01*
X131022619Y-98107143D02*
X131022619Y-98678571D01*
X132022619Y-98392857D02*
X131022619Y-98392857D01*
X132022619Y-99011905D02*
X131022619Y-99011905D01*
X131022619Y-99011905D02*
X131022619Y-99392857D01*
X131022619Y-99392857D02*
X131070238Y-99488095D01*
X131070238Y-99488095D02*
X131117857Y-99535714D01*
X131117857Y-99535714D02*
X131213095Y-99583333D01*
X131213095Y-99583333D02*
X131355952Y-99583333D01*
X131355952Y-99583333D02*
X131451190Y-99535714D01*
X131451190Y-99535714D02*
X131498809Y-99488095D01*
X131498809Y-99488095D02*
X131546428Y-99392857D01*
X131546428Y-99392857D02*
X131546428Y-99011905D01*
X131022619Y-100011905D02*
X131832142Y-100011905D01*
X131832142Y-100011905D02*
X131927380Y-100059524D01*
X131927380Y-100059524D02*
X131975000Y-100107143D01*
X131975000Y-100107143D02*
X132022619Y-100202381D01*
X132022619Y-100202381D02*
X132022619Y-100392857D01*
X132022619Y-100392857D02*
X131975000Y-100488095D01*
X131975000Y-100488095D02*
X131927380Y-100535714D01*
X131927380Y-100535714D02*
X131832142Y-100583333D01*
X131832142Y-100583333D02*
X131022619Y-100583333D01*
X131022619Y-100916667D02*
X131022619Y-101488095D01*
X132022619Y-101202381D02*
X131022619Y-101202381D01*
D12*
X149462619Y-114457143D02*
X150462619Y-114790476D01*
X150462619Y-114790476D02*
X149462619Y-115123809D01*
X149938809Y-115790476D02*
X149986428Y-115933333D01*
X149986428Y-115933333D02*
X150034047Y-115980952D01*
X150034047Y-115980952D02*
X150129285Y-116028571D01*
X150129285Y-116028571D02*
X150272142Y-116028571D01*
X150272142Y-116028571D02*
X150367380Y-115980952D01*
X150367380Y-115980952D02*
X150415000Y-115933333D01*
X150415000Y-115933333D02*
X150462619Y-115838095D01*
X150462619Y-115838095D02*
X150462619Y-115457143D01*
X150462619Y-115457143D02*
X149462619Y-115457143D01*
X149462619Y-115457143D02*
X149462619Y-115790476D01*
X149462619Y-115790476D02*
X149510238Y-115885714D01*
X149510238Y-115885714D02*
X149557857Y-115933333D01*
X149557857Y-115933333D02*
X149653095Y-115980952D01*
X149653095Y-115980952D02*
X149748333Y-115980952D01*
X149748333Y-115980952D02*
X149843571Y-115933333D01*
X149843571Y-115933333D02*
X149891190Y-115885714D01*
X149891190Y-115885714D02*
X149938809Y-115790476D01*
X149938809Y-115790476D02*
X149938809Y-115457143D01*
X150176904Y-116409524D02*
X150176904Y-116885714D01*
X150462619Y-116314286D02*
X149462619Y-116647619D01*
X149462619Y-116647619D02*
X150462619Y-116980952D01*
X149462619Y-117171429D02*
X149462619Y-117742857D01*
X150462619Y-117457143D02*
X149462619Y-117457143D01*
X145315000Y-114309524D02*
X145362619Y-114452381D01*
X145362619Y-114452381D02*
X145362619Y-114690476D01*
X145362619Y-114690476D02*
X145315000Y-114785714D01*
X145315000Y-114785714D02*
X145267380Y-114833333D01*
X145267380Y-114833333D02*
X145172142Y-114880952D01*
X145172142Y-114880952D02*
X145076904Y-114880952D01*
X145076904Y-114880952D02*
X144981666Y-114833333D01*
X144981666Y-114833333D02*
X144934047Y-114785714D01*
X144934047Y-114785714D02*
X144886428Y-114690476D01*
X144886428Y-114690476D02*
X144838809Y-114500000D01*
X144838809Y-114500000D02*
X144791190Y-114404762D01*
X144791190Y-114404762D02*
X144743571Y-114357143D01*
X144743571Y-114357143D02*
X144648333Y-114309524D01*
X144648333Y-114309524D02*
X144553095Y-114309524D01*
X144553095Y-114309524D02*
X144457857Y-114357143D01*
X144457857Y-114357143D02*
X144410238Y-114404762D01*
X144410238Y-114404762D02*
X144362619Y-114500000D01*
X144362619Y-114500000D02*
X144362619Y-114738095D01*
X144362619Y-114738095D02*
X144410238Y-114880952D01*
X144838809Y-115309524D02*
X144838809Y-115642857D01*
X145362619Y-115785714D02*
X145362619Y-115309524D01*
X145362619Y-115309524D02*
X144362619Y-115309524D01*
X144362619Y-115309524D02*
X144362619Y-115785714D01*
X145362619Y-116214286D02*
X144362619Y-116214286D01*
X144362619Y-116214286D02*
X145362619Y-116785714D01*
X145362619Y-116785714D02*
X144362619Y-116785714D01*
X145076904Y-117214286D02*
X145076904Y-117690476D01*
X145362619Y-117119048D02*
X144362619Y-117452381D01*
X144362619Y-117452381D02*
X145362619Y-117785714D01*
X155515000Y-114238095D02*
X155562619Y-114380952D01*
X155562619Y-114380952D02*
X155562619Y-114619047D01*
X155562619Y-114619047D02*
X155515000Y-114714285D01*
X155515000Y-114714285D02*
X155467380Y-114761904D01*
X155467380Y-114761904D02*
X155372142Y-114809523D01*
X155372142Y-114809523D02*
X155276904Y-114809523D01*
X155276904Y-114809523D02*
X155181666Y-114761904D01*
X155181666Y-114761904D02*
X155134047Y-114714285D01*
X155134047Y-114714285D02*
X155086428Y-114619047D01*
X155086428Y-114619047D02*
X155038809Y-114428571D01*
X155038809Y-114428571D02*
X154991190Y-114333333D01*
X154991190Y-114333333D02*
X154943571Y-114285714D01*
X154943571Y-114285714D02*
X154848333Y-114238095D01*
X154848333Y-114238095D02*
X154753095Y-114238095D01*
X154753095Y-114238095D02*
X154657857Y-114285714D01*
X154657857Y-114285714D02*
X154610238Y-114333333D01*
X154610238Y-114333333D02*
X154562619Y-114428571D01*
X154562619Y-114428571D02*
X154562619Y-114666666D01*
X154562619Y-114666666D02*
X154610238Y-114809523D01*
X155038809Y-115238095D02*
X155038809Y-115571428D01*
X155562619Y-115714285D02*
X155562619Y-115238095D01*
X155562619Y-115238095D02*
X154562619Y-115238095D01*
X154562619Y-115238095D02*
X154562619Y-115714285D01*
X155562619Y-116142857D02*
X154562619Y-116142857D01*
X154562619Y-116142857D02*
X155562619Y-116714285D01*
X155562619Y-116714285D02*
X154562619Y-116714285D01*
X155038809Y-117523809D02*
X155086428Y-117666666D01*
X155086428Y-117666666D02*
X155134047Y-117714285D01*
X155134047Y-117714285D02*
X155229285Y-117761904D01*
X155229285Y-117761904D02*
X155372142Y-117761904D01*
X155372142Y-117761904D02*
X155467380Y-117714285D01*
X155467380Y-117714285D02*
X155515000Y-117666666D01*
X155515000Y-117666666D02*
X155562619Y-117571428D01*
X155562619Y-117571428D02*
X155562619Y-117190476D01*
X155562619Y-117190476D02*
X154562619Y-117190476D01*
X154562619Y-117190476D02*
X154562619Y-117523809D01*
X154562619Y-117523809D02*
X154610238Y-117619047D01*
X154610238Y-117619047D02*
X154657857Y-117666666D01*
X154657857Y-117666666D02*
X154753095Y-117714285D01*
X154753095Y-117714285D02*
X154848333Y-117714285D01*
X154848333Y-117714285D02*
X154943571Y-117666666D01*
X154943571Y-117666666D02*
X154991190Y-117619047D01*
X154991190Y-117619047D02*
X155038809Y-117523809D01*
X155038809Y-117523809D02*
X155038809Y-117190476D01*
D11*
X160870095Y-111047619D02*
X160870095Y-110666667D01*
X160870095Y-110666667D02*
X161251047Y-110628571D01*
X161251047Y-110628571D02*
X161212952Y-110666667D01*
X161212952Y-110666667D02*
X161174857Y-110742857D01*
X161174857Y-110742857D02*
X161174857Y-110933333D01*
X161174857Y-110933333D02*
X161212952Y-111009524D01*
X161212952Y-111009524D02*
X161251047Y-111047619D01*
X161251047Y-111047619D02*
X161327238Y-111085714D01*
X161327238Y-111085714D02*
X161517714Y-111085714D01*
X161517714Y-111085714D02*
X161593904Y-111047619D01*
X161593904Y-111047619D02*
X161632000Y-111009524D01*
X161632000Y-111009524D02*
X161670095Y-110933333D01*
X161670095Y-110933333D02*
X161670095Y-110742857D01*
X161670095Y-110742857D02*
X161632000Y-110666667D01*
X161632000Y-110666667D02*
X161593904Y-110628571D01*
X160870095Y-111314286D02*
X161670095Y-111580953D01*
X161670095Y-111580953D02*
X160870095Y-111847619D01*
%TO.C,G\u002A\u002A\u002A*%
G36*
X165528000Y-86101296D02*
G01*
X165558498Y-86116486D01*
X165598433Y-86144231D01*
X165641865Y-86179807D01*
X165682857Y-86218488D01*
X165715469Y-86255548D01*
X165719697Y-86261051D01*
X165756814Y-86303785D01*
X165788121Y-86325614D01*
X165818904Y-86328826D01*
X165854445Y-86315708D01*
X165879617Y-86303860D01*
X165894380Y-86302858D01*
X165902262Y-86315064D01*
X165905252Y-86335303D01*
X165901655Y-86368301D01*
X165899292Y-86380808D01*
X165902878Y-86435784D01*
X165924627Y-86489161D01*
X165960530Y-86529925D01*
X165974724Y-86540807D01*
X165991781Y-86559495D01*
X165996391Y-86582611D01*
X165992261Y-86620769D01*
X165975796Y-86684339D01*
X165942426Y-86744315D01*
X165888407Y-86805009D01*
X165872319Y-86821010D01*
X165850390Y-86844856D01*
X165841791Y-86857404D01*
X165846715Y-86859499D01*
X165872408Y-86862642D01*
X165915121Y-86865191D01*
X165969248Y-86866734D01*
X165999776Y-86867588D01*
X166057328Y-86871186D01*
X166104779Y-86876657D01*
X166134106Y-86883198D01*
X166155979Y-86893552D01*
X166166055Y-86909790D01*
X166162309Y-86939935D01*
X166162291Y-86940019D01*
X166158043Y-86969474D01*
X166153278Y-87018256D01*
X166148575Y-87079603D01*
X166144518Y-87146755D01*
X166142338Y-87186628D01*
X166138231Y-87244948D01*
X166133131Y-87285980D01*
X166125848Y-87315505D01*
X166115193Y-87339302D01*
X166099974Y-87363155D01*
X166089276Y-87379674D01*
X166071179Y-87414359D01*
X166064024Y-87439013D01*
X166058443Y-87452293D01*
X166037214Y-87481412D01*
X166003827Y-87519744D01*
X165962228Y-87562500D01*
X165926466Y-87598069D01*
X165890392Y-87637262D01*
X165866320Y-87670126D01*
X165849801Y-87703020D01*
X165836383Y-87742303D01*
X165826143Y-87780687D01*
X165815494Y-87832605D01*
X165810722Y-87873029D01*
X165809109Y-87923418D01*
X165881008Y-87925682D01*
X165881683Y-87925704D01*
X165932069Y-87928421D01*
X165994765Y-87933292D01*
X166056362Y-87939279D01*
X166159816Y-87950611D01*
X166231305Y-88028522D01*
X166273528Y-88077937D01*
X166320150Y-88148016D01*
X166343851Y-88210820D01*
X166345401Y-88267968D01*
X166342554Y-88307855D01*
X166349051Y-88365898D01*
X166365561Y-88418121D01*
X166389734Y-88454633D01*
X166407586Y-88479675D01*
X166416984Y-88514204D01*
X166416984Y-88514217D01*
X166423259Y-88542651D01*
X166439696Y-88584319D01*
X166462738Y-88630204D01*
X166473608Y-88650128D01*
X166495247Y-88697220D01*
X166505745Y-88739168D01*
X166508492Y-88787629D01*
X166510649Y-88833061D01*
X166520772Y-88873898D01*
X166542315Y-88912044D01*
X166542856Y-88912825D01*
X166563354Y-88939423D01*
X166584041Y-88954982D01*
X166613552Y-88963729D01*
X166660522Y-88969887D01*
X166701162Y-88972923D01*
X166755199Y-88973653D01*
X166797061Y-88970584D01*
X166828316Y-88967383D01*
X166854740Y-88973481D01*
X166878794Y-88994159D01*
X166892891Y-89006832D01*
X166930256Y-89025233D01*
X166986224Y-89037125D01*
X167015077Y-89040604D01*
X167036378Y-89044092D01*
X167050610Y-89051252D01*
X167058826Y-89065828D01*
X167062079Y-89091562D01*
X167061420Y-89132200D01*
X167057904Y-89191485D01*
X167052581Y-89273160D01*
X167043401Y-89420227D01*
X167123375Y-89420227D01*
X167158397Y-89420506D01*
X167185279Y-89423518D01*
X167207769Y-89432583D01*
X167231363Y-89451025D01*
X167261558Y-89482165D01*
X167303848Y-89529325D01*
X167341838Y-89558550D01*
X167402942Y-89578188D01*
X167477879Y-89581152D01*
X167563157Y-89567368D01*
X167655285Y-89536760D01*
X167674072Y-89529879D01*
X167706274Y-89526266D01*
X167744456Y-89536319D01*
X167774196Y-89545472D01*
X167796225Y-89544728D01*
X167816040Y-89531080D01*
X167826737Y-89522160D01*
X167842797Y-89515564D01*
X167865349Y-89518424D01*
X167903348Y-89530703D01*
X167915118Y-89534346D01*
X167963898Y-89545086D01*
X168024884Y-89554280D01*
X168087635Y-89560253D01*
X168109818Y-89561731D01*
X168161704Y-89566461D01*
X168194959Y-89572657D01*
X168215230Y-89581716D01*
X168228165Y-89595037D01*
X168231179Y-89600305D01*
X168240635Y-89634629D01*
X168246040Y-89684138D01*
X168247412Y-89740626D01*
X168244772Y-89795886D01*
X168238137Y-89841714D01*
X168227526Y-89869903D01*
X168218779Y-89883250D01*
X168216506Y-89902742D01*
X168229714Y-89930226D01*
X168231934Y-89933888D01*
X168259761Y-89966925D01*
X168298872Y-89990952D01*
X168354186Y-90008187D01*
X168430620Y-90020848D01*
X168448334Y-90023043D01*
X168498472Y-90028961D01*
X168537085Y-90033087D01*
X168556972Y-90034638D01*
X168574835Y-90044342D01*
X168595300Y-90068130D01*
X168597388Y-90071339D01*
X168609405Y-90094525D01*
X168608794Y-90115566D01*
X168595601Y-90147009D01*
X168579123Y-90186957D01*
X168575054Y-90220560D01*
X168589541Y-90242530D01*
X168623811Y-90257686D01*
X168629065Y-90259209D01*
X168663986Y-90265444D01*
X168701064Y-90262756D01*
X168751268Y-90250530D01*
X168786870Y-90241208D01*
X168833928Y-90231095D01*
X168868090Y-90226314D01*
X168878457Y-90225897D01*
X168898310Y-90229097D01*
X168907318Y-90244363D01*
X168911278Y-90278730D01*
X168912055Y-90288057D01*
X168919225Y-90324060D01*
X168936007Y-90347436D01*
X168967885Y-90363068D01*
X169020346Y-90375840D01*
X169044632Y-90379814D01*
X169119947Y-90380094D01*
X169185217Y-90361895D01*
X169235140Y-90326437D01*
X169252281Y-90305181D01*
X169279983Y-90264908D01*
X169307200Y-90220088D01*
X169307813Y-90219007D01*
X169338737Y-90171723D01*
X169379705Y-90118145D01*
X169422021Y-90069665D01*
X169423663Y-90067955D01*
X169454364Y-90038709D01*
X169498215Y-90000221D01*
X169551534Y-89955391D01*
X169610643Y-89907123D01*
X169671860Y-89858318D01*
X169731508Y-89811879D01*
X169785906Y-89770708D01*
X169831374Y-89737707D01*
X169864233Y-89715778D01*
X169880803Y-89707823D01*
X169885798Y-89715451D01*
X169888309Y-89744228D01*
X169886234Y-89789527D01*
X169884954Y-89804584D01*
X169883110Y-89844412D01*
X169887953Y-89871269D01*
X169902801Y-89895336D01*
X169930969Y-89926789D01*
X169942434Y-89938656D01*
X169983127Y-89971677D01*
X170016966Y-89982347D01*
X170024084Y-89982598D01*
X170046104Y-89991198D01*
X170049747Y-90014113D01*
X170035747Y-90054157D01*
X170033347Y-90059589D01*
X170027981Y-90081241D01*
X170036356Y-90100225D01*
X170061892Y-90125934D01*
X170071920Y-90135607D01*
X170094454Y-90162283D01*
X170103448Y-90181257D01*
X170104788Y-90187505D01*
X170117964Y-90212731D01*
X170140659Y-90244088D01*
X170149026Y-90254551D01*
X170175148Y-90290010D01*
X170193083Y-90318356D01*
X170208393Y-90337196D01*
X170240287Y-90365611D01*
X170280134Y-90394842D01*
X170301260Y-90408734D01*
X170333827Y-90427644D01*
X170361578Y-90436435D01*
X170394780Y-90437520D01*
X170443702Y-90433314D01*
X170491625Y-90429819D01*
X170532268Y-90431485D01*
X170554746Y-90440131D01*
X170565350Y-90450962D01*
X170572447Y-90475554D01*
X170558579Y-90505799D01*
X170522718Y-90545067D01*
X170516079Y-90551202D01*
X170462434Y-90591400D01*
X170390365Y-90631337D01*
X170296162Y-90673112D01*
X170279069Y-90683550D01*
X170247733Y-90712682D01*
X170217818Y-90750129D01*
X170176331Y-90807192D01*
X170131463Y-90857994D01*
X170080928Y-90902533D01*
X170019957Y-90944485D01*
X169943779Y-90987525D01*
X169847625Y-91035328D01*
X169836415Y-91040689D01*
X169757154Y-91079633D01*
X169697090Y-91111646D01*
X169651783Y-91139422D01*
X169616796Y-91165653D01*
X169587690Y-91193034D01*
X169558657Y-91224668D01*
X169536666Y-91251367D01*
X169528255Y-91265462D01*
X169526356Y-91272624D01*
X169504355Y-91289685D01*
X169459613Y-91304163D01*
X169394531Y-91315703D01*
X169311509Y-91323945D01*
X169212947Y-91328532D01*
X169101244Y-91329107D01*
X168955293Y-91327180D01*
X168861914Y-91415269D01*
X168819510Y-91456732D01*
X168730681Y-91555170D01*
X168658801Y-91652429D01*
X168605472Y-91745870D01*
X168572299Y-91832853D01*
X168560885Y-91910740D01*
X168559120Y-91943981D01*
X168549554Y-91970949D01*
X168527865Y-91990410D01*
X168494290Y-92016549D01*
X168467317Y-92050223D01*
X168447714Y-92094632D01*
X168433264Y-92154910D01*
X168421751Y-92236189D01*
X168416913Y-92283870D01*
X168412543Y-92345404D01*
X168410993Y-92396555D01*
X168412630Y-92429564D01*
X168416410Y-92461665D01*
X168412917Y-92521883D01*
X168391587Y-92565999D01*
X168351300Y-92597077D01*
X168314060Y-92622609D01*
X168273894Y-92674108D01*
X168253035Y-92711498D01*
X168225669Y-92744498D01*
X168191887Y-92763034D01*
X168143701Y-92773184D01*
X168143172Y-92773257D01*
X168111674Y-92779288D01*
X168080447Y-92789756D01*
X168045309Y-92806980D01*
X168002073Y-92833281D01*
X167946557Y-92870978D01*
X167874575Y-92922391D01*
X167808762Y-92967744D01*
X167726063Y-93016149D01*
X167656934Y-93044805D01*
X167600051Y-93054346D01*
X167553633Y-93057244D01*
X167471496Y-93079482D01*
X167399312Y-93124725D01*
X167381585Y-93138794D01*
X167349026Y-93158253D01*
X167311345Y-93169535D01*
X167258033Y-93176492D01*
X167210101Y-93182756D01*
X167140567Y-93195679D01*
X167077559Y-93211050D01*
X167071243Y-93212858D01*
X167030682Y-93223843D01*
X166994703Y-93231582D01*
X166958194Y-93236351D01*
X166916040Y-93238429D01*
X166863128Y-93238092D01*
X166794346Y-93235618D01*
X166704580Y-93231285D01*
X166680841Y-93230112D01*
X166594760Y-93227005D01*
X166529176Y-93228014D01*
X166479601Y-93234595D01*
X166441546Y-93248202D01*
X166410523Y-93270291D01*
X166382044Y-93302318D01*
X166351621Y-93345737D01*
X166336244Y-93368279D01*
X166309396Y-93403248D01*
X166279770Y-93434366D01*
X166243313Y-93464876D01*
X166195974Y-93498021D01*
X166133702Y-93537043D01*
X166052444Y-93585186D01*
X165995457Y-93621463D01*
X165936933Y-93666265D01*
X165895573Y-93707376D01*
X165877487Y-93728894D01*
X165823850Y-93787097D01*
X165761966Y-93848299D01*
X165696910Y-93907950D01*
X165633758Y-93961497D01*
X165577583Y-94004392D01*
X165533460Y-94032083D01*
X165531434Y-94033098D01*
X165484452Y-94051370D01*
X165421642Y-94069425D01*
X165352675Y-94085054D01*
X165287226Y-94096050D01*
X165234965Y-94100206D01*
X165230598Y-94100084D01*
X165192853Y-94094806D01*
X165141855Y-94083293D01*
X165087348Y-94067692D01*
X165079472Y-94065223D01*
X165023448Y-94049920D01*
X164971242Y-94039012D01*
X164933247Y-94034723D01*
X164906126Y-94032403D01*
X164848156Y-94017266D01*
X164793730Y-93991988D01*
X164754142Y-93961203D01*
X164741309Y-93937491D01*
X164731885Y-93894477D01*
X164726143Y-93829419D01*
X164725258Y-93813835D01*
X164721554Y-93770015D01*
X164714826Y-93733681D01*
X164702692Y-93699047D01*
X164682766Y-93660322D01*
X164652666Y-93611720D01*
X164610008Y-93547453D01*
X164598641Y-93531257D01*
X164561711Y-93483217D01*
X164516840Y-93429127D01*
X164471316Y-93377898D01*
X164414333Y-93311718D01*
X164331396Y-93191839D01*
X164270721Y-93068886D01*
X164233467Y-92945418D01*
X164220792Y-92823997D01*
X164220032Y-92802536D01*
X164213162Y-92746408D01*
X164201463Y-92697713D01*
X164192180Y-92665695D01*
X164179716Y-92610863D01*
X164170013Y-92555189D01*
X164162266Y-92513010D01*
X164148817Y-92462366D01*
X164134331Y-92425381D01*
X164116601Y-92376261D01*
X164109898Y-92303755D01*
X164120174Y-92227050D01*
X164147036Y-92154529D01*
X164183163Y-92084765D01*
X164152956Y-92095702D01*
X164130639Y-92102551D01*
X164065137Y-92107930D01*
X164007606Y-92090932D01*
X163961986Y-92053324D01*
X163932218Y-91996869D01*
X163928220Y-91985166D01*
X163912459Y-91944495D01*
X163890555Y-91892096D01*
X163865968Y-91836350D01*
X163851305Y-91802356D01*
X163820007Y-91718591D01*
X163792330Y-91629925D01*
X163770190Y-91543482D01*
X163755501Y-91466381D01*
X163750180Y-91405745D01*
X163750471Y-91384187D01*
X163754993Y-91353094D01*
X163769388Y-91332254D01*
X163799202Y-91310941D01*
X163808315Y-91304921D01*
X163841181Y-91280187D01*
X163870391Y-91254308D01*
X163891736Y-91231628D01*
X163901002Y-91216488D01*
X163893978Y-91213230D01*
X163878832Y-91217588D01*
X163843859Y-91228567D01*
X163800616Y-91242730D01*
X163756305Y-91255414D01*
X163715175Y-91259295D01*
X163691983Y-91248088D01*
X163684507Y-91221383D01*
X163680493Y-91195663D01*
X163665221Y-91147718D01*
X163641413Y-91090345D01*
X163612129Y-91030756D01*
X163580429Y-90976162D01*
X163558160Y-90945044D01*
X163519988Y-90909624D01*
X163483977Y-90899992D01*
X163450369Y-90916259D01*
X163444928Y-90920649D01*
X163412832Y-90932952D01*
X163363211Y-90934149D01*
X163348084Y-90933039D01*
X163319113Y-90928206D01*
X163296627Y-90916555D01*
X163273394Y-90893272D01*
X163242183Y-90853539D01*
X163209986Y-90813485D01*
X163171733Y-90775219D01*
X163129106Y-90745685D01*
X163075035Y-90720180D01*
X163002448Y-90693996D01*
X162978712Y-90685780D01*
X162897629Y-90651830D01*
X162838740Y-90616493D01*
X162804012Y-90580893D01*
X162800166Y-90565599D01*
X162812119Y-90536541D01*
X162843020Y-90503913D01*
X162889169Y-90470273D01*
X162946865Y-90438175D01*
X163012407Y-90410177D01*
X163082094Y-90388834D01*
X163128054Y-90376453D01*
X163158350Y-90363270D01*
X163178743Y-90344725D01*
X163197300Y-90315698D01*
X163202128Y-90306828D01*
X163222809Y-90252779D01*
X163224363Y-90208403D01*
X163206535Y-90177495D01*
X163196495Y-90165063D01*
X163191476Y-90140858D01*
X163195347Y-90102540D01*
X163208173Y-90044895D01*
X163209090Y-90040608D01*
X163206812Y-89997069D01*
X163186912Y-89936613D01*
X163178284Y-89915139D01*
X163166126Y-89876556D01*
X163164106Y-89845516D01*
X163170824Y-89811078D01*
X163177906Y-89763764D01*
X163174428Y-89711881D01*
X163168005Y-89673050D01*
X163172681Y-89644586D01*
X163193645Y-89633176D01*
X163233677Y-89635220D01*
X163288644Y-89643463D01*
X163297197Y-89512952D01*
X163297688Y-89505671D01*
X163305131Y-89430179D01*
X163315845Y-89376119D01*
X163330650Y-89339239D01*
X163333494Y-89334144D01*
X163351839Y-89297427D01*
X163374627Y-89247563D01*
X163397593Y-89193814D01*
X163421669Y-89125397D01*
X163433280Y-89057448D01*
X163426303Y-89000830D01*
X163400790Y-88951757D01*
X163386498Y-88933633D01*
X163371353Y-88919215D01*
X163350032Y-88905509D01*
X163316627Y-88888742D01*
X163265233Y-88865139D01*
X163245453Y-88856503D01*
X163191807Y-88838629D01*
X163142625Y-88834127D01*
X163088934Y-88843002D01*
X163021758Y-88865259D01*
X162974562Y-88880753D01*
X162931424Y-88890393D01*
X162903815Y-88891157D01*
X162894357Y-88887063D01*
X162867419Y-88864734D01*
X162841480Y-88831714D01*
X162841116Y-88831138D01*
X162817230Y-88798417D01*
X162794589Y-88783325D01*
X162763971Y-88779671D01*
X162731289Y-88775373D01*
X162692606Y-88751554D01*
X162670482Y-88707601D01*
X162667978Y-88695945D01*
X162669402Y-88669465D01*
X162687713Y-88651124D01*
X162727433Y-88635174D01*
X162773175Y-88616354D01*
X162809489Y-88586898D01*
X162828210Y-88546671D01*
X162832136Y-88535020D01*
X162850720Y-88499108D01*
X162876600Y-88461610D01*
X162888168Y-88445367D01*
X162915171Y-88395551D01*
X162934117Y-88344588D01*
X162940391Y-88323286D01*
X162961298Y-88266018D01*
X162984947Y-88213706D01*
X162996482Y-88191076D01*
X163009878Y-88159821D01*
X163015455Y-88131625D01*
X163013230Y-88099479D01*
X163003218Y-88056379D01*
X162985435Y-87995317D01*
X162972060Y-87946943D01*
X162958236Y-87881419D01*
X162953142Y-87830637D01*
X162957012Y-87797812D01*
X162970083Y-87786156D01*
X162981284Y-87789460D01*
X163006660Y-87808760D01*
X163031851Y-87838048D01*
X163048839Y-87868900D01*
X163052370Y-87876804D01*
X163067467Y-87887073D01*
X163097746Y-87883938D01*
X163129824Y-87880145D01*
X163183406Y-87882761D01*
X163234555Y-87893465D01*
X163271611Y-87910477D01*
X163281605Y-87921047D01*
X163301251Y-87953534D01*
X163318632Y-87994864D01*
X163340928Y-88060726D01*
X163451728Y-87952854D01*
X163455247Y-87949422D01*
X163508230Y-87895621D01*
X163544941Y-87852780D01*
X163569301Y-87815810D01*
X163585233Y-87779620D01*
X163599025Y-87740653D01*
X163619874Y-87683103D01*
X163640642Y-87626921D01*
X163673345Y-87539586D01*
X163639863Y-87476691D01*
X163627065Y-87451412D01*
X163612181Y-87417576D01*
X163606382Y-87397600D01*
X163596485Y-87384308D01*
X163570432Y-87373556D01*
X163556640Y-87370367D01*
X163486737Y-87346216D01*
X163441633Y-87314062D01*
X163431990Y-87302519D01*
X163427629Y-87288367D01*
X163437267Y-87271058D01*
X163463215Y-87242993D01*
X163477014Y-87228472D01*
X163495448Y-87204996D01*
X163498779Y-87187729D01*
X163489865Y-87168707D01*
X163480955Y-87148556D01*
X163483679Y-87136177D01*
X163501826Y-87128128D01*
X163517376Y-87113461D01*
X163527103Y-87088593D01*
X163532895Y-87048210D01*
X163536637Y-86986997D01*
X163537858Y-86962218D01*
X163541405Y-86903699D01*
X163545291Y-86853849D01*
X163548872Y-86821396D01*
X163553534Y-86797352D01*
X163562826Y-86784391D01*
X163583710Y-86780604D01*
X163623438Y-86782178D01*
X163691353Y-86786104D01*
X163686999Y-86843488D01*
X163686273Y-86856722D01*
X163690560Y-86896397D01*
X163707541Y-86914735D01*
X163738648Y-86913679D01*
X163738997Y-86913585D01*
X163759526Y-86896053D01*
X163771675Y-86855688D01*
X163772857Y-86849165D01*
X163785544Y-86807722D01*
X163802909Y-86775780D01*
X163804834Y-86773413D01*
X163818643Y-86759155D01*
X163834294Y-86753764D01*
X163859593Y-86756529D01*
X163902347Y-86766742D01*
X163905620Y-86767577D01*
X163951697Y-86782050D01*
X163979285Y-86798543D01*
X163995530Y-86821235D01*
X164003337Y-86833930D01*
X164034371Y-86860241D01*
X164087119Y-86884833D01*
X164097246Y-86888656D01*
X164122700Y-86897471D01*
X164147015Y-86903482D01*
X164174730Y-86906874D01*
X164210382Y-86907831D01*
X164258510Y-86906536D01*
X164323651Y-86903173D01*
X164410344Y-86897926D01*
X164487334Y-86892901D01*
X164565238Y-86887288D01*
X164633157Y-86881858D01*
X164685719Y-86877043D01*
X164717550Y-86873274D01*
X164776376Y-86863998D01*
X164772102Y-86797836D01*
X164771905Y-86794690D01*
X164771997Y-86751431D01*
X164781112Y-86720704D01*
X164802768Y-86690152D01*
X164810034Y-86680600D01*
X164835403Y-86632087D01*
X164853294Y-86573568D01*
X164861697Y-86541712D01*
X164890278Y-86474739D01*
X164937012Y-86397788D01*
X164954709Y-86371944D01*
X164984025Y-86332292D01*
X165007088Y-86308181D01*
X165028825Y-86294997D01*
X165054167Y-86288128D01*
X165056910Y-86287601D01*
X165100504Y-86274057D01*
X165137890Y-86254854D01*
X165164653Y-86239431D01*
X165207568Y-86232088D01*
X165247758Y-86249713D01*
X165253379Y-86253796D01*
X165287525Y-86268607D01*
X165313263Y-86258774D01*
X165332000Y-86223864D01*
X165333011Y-86220846D01*
X165355910Y-86172858D01*
X165386571Y-86146842D01*
X165429338Y-86139012D01*
X165430339Y-86139007D01*
X165465094Y-86133102D01*
X165488831Y-86119403D01*
X165499874Y-86108873D01*
X165519732Y-86099795D01*
X165528000Y-86101296D01*
G37*
G36*
X169148895Y-85384253D02*
G01*
X169190870Y-85384729D01*
X169228861Y-85385469D01*
X169261340Y-85386476D01*
X169286777Y-85387752D01*
X169303644Y-85389299D01*
X169310413Y-85391120D01*
X169310470Y-85391225D01*
X169312532Y-85398865D01*
X169316416Y-85416563D01*
X169321861Y-85443008D01*
X169328606Y-85476893D01*
X169336391Y-85516908D01*
X169344954Y-85561745D01*
X169354035Y-85610095D01*
X169354411Y-85612113D01*
X169363612Y-85660557D01*
X169372443Y-85705404D01*
X169380622Y-85745345D01*
X169387870Y-85779073D01*
X169393904Y-85805278D01*
X169398445Y-85822653D01*
X169401212Y-85829889D01*
X169403428Y-85831305D01*
X169415342Y-85837085D01*
X169436040Y-85846260D01*
X169464154Y-85858251D01*
X169498315Y-85872479D01*
X169537154Y-85888363D01*
X169579303Y-85905324D01*
X169619241Y-85921203D01*
X169660427Y-85937341D01*
X169692870Y-85949681D01*
X169717675Y-85958596D01*
X169735950Y-85964463D01*
X169748801Y-85967657D01*
X169757335Y-85968553D01*
X169762659Y-85967527D01*
X169768946Y-85963825D01*
X169784069Y-85954100D01*
X169806541Y-85939263D01*
X169835180Y-85920109D01*
X169868802Y-85897429D01*
X169906221Y-85872015D01*
X169946254Y-85844660D01*
X169982546Y-85819889D01*
X170019614Y-85794806D01*
X170052746Y-85772616D01*
X170080816Y-85754062D01*
X170102698Y-85739888D01*
X170117265Y-85730838D01*
X170123391Y-85727656D01*
X170124053Y-85727938D01*
X170131449Y-85733943D01*
X170145873Y-85747088D01*
X170166404Y-85766491D01*
X170192122Y-85791266D01*
X170222109Y-85820530D01*
X170255443Y-85853397D01*
X170291205Y-85888984D01*
X170300765Y-85898551D01*
X170335741Y-85933751D01*
X170367764Y-85966288D01*
X170395949Y-85995239D01*
X170419411Y-86019686D01*
X170437265Y-86038708D01*
X170448626Y-86051385D01*
X170452610Y-86056798D01*
X170449923Y-86062093D01*
X170441322Y-86076016D01*
X170427530Y-86097343D01*
X170409291Y-86124950D01*
X170387349Y-86157712D01*
X170362447Y-86194502D01*
X170335331Y-86234195D01*
X170310876Y-86270026D01*
X170285448Y-86307724D01*
X170262814Y-86341746D01*
X170243741Y-86370916D01*
X170228996Y-86394060D01*
X170219348Y-86410000D01*
X170215565Y-86417563D01*
X170217029Y-86427083D01*
X170224204Y-86445989D01*
X170236784Y-86472836D01*
X170254341Y-86506643D01*
X170260965Y-86519081D01*
X170274636Y-86545714D01*
X170285626Y-86568459D01*
X170292945Y-86585223D01*
X170295605Y-86593913D01*
X170294827Y-86597251D01*
X170287901Y-86604599D01*
X170272639Y-86613424D01*
X170247631Y-86624630D01*
X170209838Y-86640425D01*
X170128227Y-86674432D01*
X170049076Y-86707278D01*
X169973075Y-86738683D01*
X169900912Y-86768370D01*
X169833275Y-86796059D01*
X169770853Y-86821471D01*
X169714333Y-86844328D01*
X169664405Y-86864351D01*
X169621756Y-86881260D01*
X169587075Y-86894778D01*
X169561050Y-86904625D01*
X169544370Y-86910523D01*
X169537722Y-86912192D01*
X169534235Y-86909435D01*
X169524686Y-86898508D01*
X169511723Y-86881497D01*
X169497119Y-86860656D01*
X169469174Y-86821412D01*
X169428269Y-86772508D01*
X169385551Y-86732081D01*
X169339025Y-86698320D01*
X169286699Y-86669415D01*
X169280411Y-86666411D01*
X169228252Y-86645261D01*
X169176474Y-86631735D01*
X169121540Y-86625134D01*
X169059913Y-86624764D01*
X169032326Y-86626108D01*
X168997440Y-86629189D01*
X168968925Y-86633879D01*
X168943613Y-86640607D01*
X168935133Y-86643387D01*
X168864927Y-86672856D01*
X168801288Y-86711360D01*
X168744913Y-86758129D01*
X168696502Y-86812396D01*
X168656753Y-86873388D01*
X168626365Y-86940338D01*
X168606037Y-87012474D01*
X168603044Y-87029926D01*
X168598853Y-87079934D01*
X168599534Y-87133611D01*
X168604894Y-87186131D01*
X168614743Y-87232670D01*
X168620709Y-87251929D01*
X168649145Y-87319634D01*
X168687064Y-87381792D01*
X168733478Y-87437481D01*
X168787399Y-87485781D01*
X168847838Y-87525771D01*
X168913807Y-87556529D01*
X168984318Y-87577134D01*
X168984397Y-87577150D01*
X169021619Y-87582271D01*
X169065556Y-87584129D01*
X169111809Y-87582847D01*
X169155977Y-87578545D01*
X169193659Y-87571346D01*
X169194171Y-87571212D01*
X169258848Y-87550009D01*
X169317840Y-87521403D01*
X169372221Y-87484548D01*
X169423066Y-87438600D01*
X169471448Y-87382716D01*
X169518442Y-87316050D01*
X169526439Y-87304641D01*
X169536599Y-87294939D01*
X169545645Y-87293627D01*
X169548715Y-87294727D01*
X169561876Y-87299902D01*
X169584333Y-87308941D01*
X169615183Y-87321473D01*
X169653525Y-87337131D01*
X169698459Y-87355545D01*
X169749082Y-87376346D01*
X169804494Y-87399165D01*
X169863792Y-87423633D01*
X169926076Y-87449381D01*
X169965112Y-87465546D01*
X170033762Y-87494052D01*
X170092659Y-87518641D01*
X170142480Y-87539613D01*
X170183902Y-87557268D01*
X170217602Y-87571908D01*
X170244259Y-87583831D01*
X170264550Y-87593340D01*
X170279153Y-87600733D01*
X170288744Y-87606312D01*
X170294002Y-87610377D01*
X170295605Y-87613228D01*
X170295144Y-87615725D01*
X170290459Y-87628091D01*
X170281525Y-87647632D01*
X170269340Y-87672228D01*
X170254899Y-87699758D01*
X170248748Y-87711298D01*
X170235124Y-87737786D01*
X170224160Y-87760408D01*
X170216852Y-87777064D01*
X170214194Y-87785653D01*
X170217170Y-87792281D01*
X170226063Y-87807436D01*
X170240135Y-87829893D01*
X170258647Y-87858507D01*
X170280856Y-87892133D01*
X170306021Y-87929626D01*
X170333402Y-87969841D01*
X170359971Y-88008810D01*
X170385197Y-88046241D01*
X170407494Y-88079770D01*
X170426123Y-88108266D01*
X170440345Y-88130596D01*
X170449421Y-88145630D01*
X170452610Y-88152237D01*
X170448740Y-88158433D01*
X170437538Y-88171636D01*
X170420102Y-88190700D01*
X170397533Y-88214532D01*
X170370932Y-88242036D01*
X170341397Y-88272117D01*
X170310030Y-88303681D01*
X170277930Y-88335632D01*
X170246198Y-88366876D01*
X170215934Y-88396317D01*
X170188238Y-88422860D01*
X170164211Y-88445411D01*
X170144951Y-88462875D01*
X170131560Y-88474156D01*
X170125138Y-88478160D01*
X170118494Y-88475232D01*
X170103302Y-88466370D01*
X170080818Y-88452312D01*
X170052190Y-88433801D01*
X170018568Y-88411581D01*
X169981102Y-88386395D01*
X169940942Y-88358988D01*
X169902567Y-88332672D01*
X169865133Y-88307132D01*
X169831594Y-88284381D01*
X169803085Y-88265184D01*
X169780740Y-88250305D01*
X169765696Y-88240508D01*
X169759085Y-88236557D01*
X169756751Y-88236727D01*
X169744833Y-88240079D01*
X169724542Y-88246925D01*
X169697460Y-88256647D01*
X169665170Y-88268627D01*
X169629255Y-88282248D01*
X169591298Y-88296891D01*
X169552881Y-88311939D01*
X169515587Y-88326775D01*
X169481000Y-88340781D01*
X169450701Y-88353339D01*
X169426273Y-88363832D01*
X169409300Y-88371642D01*
X169401365Y-88376151D01*
X169401272Y-88376248D01*
X169398448Y-88383907D01*
X169393861Y-88401633D01*
X169387794Y-88428111D01*
X169380527Y-88462031D01*
X169372343Y-88502079D01*
X169363522Y-88546943D01*
X169354347Y-88595310D01*
X169353849Y-88597978D01*
X169344783Y-88646175D01*
X169336241Y-88690799D01*
X169328486Y-88730539D01*
X169321779Y-88764084D01*
X169316384Y-88790123D01*
X169312561Y-88807345D01*
X169310572Y-88814439D01*
X169310153Y-88814801D01*
X169301396Y-88816618D01*
X169282821Y-88818161D01*
X169255956Y-88819432D01*
X169222329Y-88820432D01*
X169183470Y-88821163D01*
X169140908Y-88821625D01*
X169096171Y-88821821D01*
X169050788Y-88821752D01*
X169006287Y-88821419D01*
X168964199Y-88820825D01*
X168926050Y-88819970D01*
X168893371Y-88818857D01*
X168867690Y-88817485D01*
X168850535Y-88815858D01*
X168843436Y-88813977D01*
X168843369Y-88813881D01*
X168840969Y-88806152D01*
X168836793Y-88788357D01*
X168831110Y-88761812D01*
X168824189Y-88727834D01*
X168816297Y-88687738D01*
X168807703Y-88642841D01*
X168798676Y-88594460D01*
X168798385Y-88592884D01*
X168789293Y-88544359D01*
X168780552Y-88499169D01*
X168772445Y-88458667D01*
X168765254Y-88424205D01*
X168759260Y-88397135D01*
X168754747Y-88378810D01*
X168751994Y-88370582D01*
X168747239Y-88366637D01*
X168731938Y-88357879D01*
X168707110Y-88345492D01*
X168673497Y-88329830D01*
X168631846Y-88311247D01*
X168582902Y-88290099D01*
X168556145Y-88278725D01*
X168513907Y-88260980D01*
X168480585Y-88247356D01*
X168455067Y-88237451D01*
X168436244Y-88230860D01*
X168423007Y-88227183D01*
X168414245Y-88226016D01*
X168408849Y-88226956D01*
X168408709Y-88227022D01*
X168400782Y-88231812D01*
X168384485Y-88242405D01*
X168360967Y-88258030D01*
X168331376Y-88277915D01*
X168296861Y-88301288D01*
X168258570Y-88327378D01*
X168217653Y-88355414D01*
X168214983Y-88357248D01*
X168174385Y-88384939D01*
X168136594Y-88410376D01*
X168102732Y-88432828D01*
X168073922Y-88451564D01*
X168051290Y-88465852D01*
X168035957Y-88474961D01*
X168029047Y-88478160D01*
X168022832Y-88474328D01*
X168009581Y-88463176D01*
X167990452Y-88445799D01*
X167966542Y-88423294D01*
X167938950Y-88396761D01*
X167908775Y-88367295D01*
X167877113Y-88335996D01*
X167845064Y-88303960D01*
X167813725Y-88272287D01*
X167784195Y-88242072D01*
X167757571Y-88214416D01*
X167734953Y-88190414D01*
X167717437Y-88171165D01*
X167706122Y-88157767D01*
X167702106Y-88151317D01*
X167702254Y-88150621D01*
X167706768Y-88141863D01*
X167717057Y-88124889D01*
X167732403Y-88100796D01*
X167752091Y-88070682D01*
X167775403Y-88035646D01*
X167801624Y-87996787D01*
X167830037Y-87955201D01*
X167835101Y-87947827D01*
X167872406Y-87893056D01*
X167903056Y-87847170D01*
X167926994Y-87810259D01*
X167944163Y-87782411D01*
X167954507Y-87763717D01*
X167957967Y-87754266D01*
X167957474Y-87751212D01*
X167953393Y-87737698D01*
X167945763Y-87716057D01*
X167935281Y-87688018D01*
X167922647Y-87655307D01*
X167908559Y-87619651D01*
X167893715Y-87582777D01*
X167878814Y-87546412D01*
X167864555Y-87512282D01*
X167851635Y-87482116D01*
X167840753Y-87457640D01*
X167832608Y-87440580D01*
X167827897Y-87432664D01*
X167827196Y-87432212D01*
X167817504Y-87429082D01*
X167797944Y-87424238D01*
X167769797Y-87417951D01*
X167734345Y-87410493D01*
X167692870Y-87402135D01*
X167646655Y-87393148D01*
X167596982Y-87383803D01*
X167585126Y-87381603D01*
X167536167Y-87372388D01*
X167490974Y-87363678D01*
X167450826Y-87355732D01*
X167417005Y-87348813D01*
X167390788Y-87343180D01*
X167373456Y-87339095D01*
X167366289Y-87336818D01*
X167364452Y-87333028D01*
X167362849Y-87323616D01*
X167361567Y-87307793D01*
X167360579Y-87284689D01*
X167359856Y-87253434D01*
X167359374Y-87213159D01*
X167359104Y-87162995D01*
X167359020Y-87102071D01*
X167359020Y-86872965D01*
X167372104Y-86867590D01*
X167372340Y-86867499D01*
X167381625Y-86865124D01*
X167400908Y-86860966D01*
X167428834Y-86855293D01*
X167464049Y-86848371D01*
X167505199Y-86840467D01*
X167550928Y-86831846D01*
X167599884Y-86822776D01*
X167628365Y-86817501D01*
X167682762Y-86807150D01*
X167729566Y-86797850D01*
X167768000Y-86789767D01*
X167797288Y-86783068D01*
X167816654Y-86777919D01*
X167825319Y-86774487D01*
X167827034Y-86772397D01*
X167833665Y-86760541D01*
X167843435Y-86740278D01*
X167855635Y-86713326D01*
X167869558Y-86681400D01*
X167884495Y-86646218D01*
X167899739Y-86609496D01*
X167914580Y-86572951D01*
X167928311Y-86538299D01*
X167940223Y-86507257D01*
X167949609Y-86481542D01*
X167955760Y-86462869D01*
X167957967Y-86452957D01*
X167957515Y-86450765D01*
X167951698Y-86438495D01*
X167939373Y-86417366D01*
X167920793Y-86387775D01*
X167896208Y-86350118D01*
X167865872Y-86304790D01*
X167830037Y-86252188D01*
X167823820Y-86243115D01*
X167795822Y-86201934D01*
X167770169Y-86163686D01*
X167747575Y-86129472D01*
X167728756Y-86100396D01*
X167714428Y-86077560D01*
X167705306Y-86062068D01*
X167702106Y-86055023D01*
X167705236Y-86049587D01*
X167716040Y-86036434D01*
X167733880Y-86016588D01*
X167758057Y-85990794D01*
X167787870Y-85959798D01*
X167822617Y-85924347D01*
X167861599Y-85885186D01*
X167888613Y-85858303D01*
X167927439Y-85819989D01*
X167959159Y-85789193D01*
X167984367Y-85765369D01*
X168003654Y-85747973D01*
X168017615Y-85736461D01*
X168026843Y-85730290D01*
X168031931Y-85728914D01*
X168032178Y-85728994D01*
X168040048Y-85733370D01*
X168056250Y-85743566D01*
X168079657Y-85758831D01*
X168109142Y-85778419D01*
X168143578Y-85801580D01*
X168181837Y-85827567D01*
X168222793Y-85855630D01*
X168226283Y-85858031D01*
X168267087Y-85885936D01*
X168305137Y-85911674D01*
X168339301Y-85934498D01*
X168368447Y-85953664D01*
X168391441Y-85968426D01*
X168407151Y-85978040D01*
X168414446Y-85981759D01*
X168421438Y-85980440D01*
X168437797Y-85975026D01*
X168461623Y-85966131D01*
X168491276Y-85954454D01*
X168525114Y-85940692D01*
X168561497Y-85925543D01*
X168598784Y-85909704D01*
X168635334Y-85893873D01*
X168669506Y-85878748D01*
X168699660Y-85865026D01*
X168724154Y-85853405D01*
X168741348Y-85844582D01*
X168749600Y-85839256D01*
X168751156Y-85836812D01*
X168755427Y-85824826D01*
X168761035Y-85803326D01*
X168768065Y-85771916D01*
X168776605Y-85730199D01*
X168786739Y-85677781D01*
X168798555Y-85614263D01*
X168799441Y-85609439D01*
X168808450Y-85560998D01*
X168816997Y-85516164D01*
X168824817Y-85476244D01*
X168831646Y-85442545D01*
X168837220Y-85416373D01*
X168841274Y-85399035D01*
X168843543Y-85391839D01*
X168844030Y-85391473D01*
X168853081Y-85389676D01*
X168871904Y-85388123D01*
X168898971Y-85386815D01*
X168932753Y-85385755D01*
X168971722Y-85384945D01*
X169014349Y-85384387D01*
X169059106Y-85384085D01*
X169104464Y-85384039D01*
X169148895Y-85384253D01*
G37*
%TD*%
%LPC*%
X136810238Y-116138095D02*
X136762619Y-116042857D01*
X136762619Y-116042857D02*
X136762619Y-115900000D01*
X136762619Y-115900000D02*
X136810238Y-115757143D01*
X136810238Y-115757143D02*
X136905476Y-115661905D01*
X136905476Y-115661905D02*
X137000714Y-115614286D01*
X137000714Y-115614286D02*
X137191190Y-115566667D01*
X137191190Y-115566667D02*
X137334047Y-115566667D01*
X137334047Y-115566667D02*
X137524523Y-115614286D01*
X137524523Y-115614286D02*
X137619761Y-115661905D01*
X137619761Y-115661905D02*
X137715000Y-115757143D01*
X137715000Y-115757143D02*
X137762619Y-115900000D01*
X137762619Y-115900000D02*
X137762619Y-115995238D01*
X137762619Y-115995238D02*
X137715000Y-116138095D01*
X137715000Y-116138095D02*
X137667380Y-116185714D01*
X137667380Y-116185714D02*
X137334047Y-116185714D01*
X137334047Y-116185714D02*
X137334047Y-115995238D01*
X137762619Y-116614286D02*
X136762619Y-116614286D01*
X136762619Y-116614286D02*
X137762619Y-117185714D01*
X137762619Y-117185714D02*
X136762619Y-117185714D01*
X137762619Y-117661905D02*
X136762619Y-117661905D01*
X136762619Y-117661905D02*
X136762619Y-117900000D01*
X136762619Y-117900000D02*
X136810238Y-118042857D01*
X136810238Y-118042857D02*
X136905476Y-118138095D01*
X136905476Y-118138095D02*
X137000714Y-118185714D01*
X137000714Y-118185714D02*
X137191190Y-118233333D01*
X137191190Y-118233333D02*
X137334047Y-118233333D01*
X137334047Y-118233333D02*
X137524523Y-118185714D01*
X137524523Y-118185714D02*
X137619761Y-118138095D01*
X137619761Y-118138095D02*
X137715000Y-118042857D01*
X137715000Y-118042857D02*
X137762619Y-117900000D01*
X137762619Y-117900000D02*
X137762619Y-117661905D01*
D13*
X147515357Y-90107143D02*
X147443928Y-89964286D01*
X147443928Y-89964286D02*
X147443928Y-89750000D01*
X147443928Y-89750000D02*
X147515357Y-89535714D01*
X147515357Y-89535714D02*
X147658214Y-89392857D01*
X147658214Y-89392857D02*
X147801071Y-89321428D01*
X147801071Y-89321428D02*
X148086785Y-89250000D01*
X148086785Y-89250000D02*
X148301071Y-89250000D01*
X148301071Y-89250000D02*
X148586785Y-89321428D01*
X148586785Y-89321428D02*
X148729642Y-89392857D01*
X148729642Y-89392857D02*
X148872500Y-89535714D01*
X148872500Y-89535714D02*
X148943928Y-89750000D01*
X148943928Y-89750000D02*
X148943928Y-89892857D01*
X148943928Y-89892857D02*
X148872500Y-90107143D01*
X148872500Y-90107143D02*
X148801071Y-90178571D01*
X148801071Y-90178571D02*
X148301071Y-90178571D01*
X148301071Y-90178571D02*
X148301071Y-89892857D01*
X148943928Y-90821428D02*
X147443928Y-90821428D01*
X147443928Y-90821428D02*
X148943928Y-91678571D01*
X148943928Y-91678571D02*
X147443928Y-91678571D01*
X148943928Y-92392857D02*
X147443928Y-92392857D01*
X147443928Y-92392857D02*
X147443928Y-92750000D01*
X147443928Y-92750000D02*
X147515357Y-92964286D01*
X147515357Y-92964286D02*
X147658214Y-93107143D01*
X147658214Y-93107143D02*
X147801071Y-93178572D01*
X147801071Y-93178572D02*
X148086785Y-93250000D01*
X148086785Y-93250000D02*
X148301071Y-93250000D01*
X148301071Y-93250000D02*
X148586785Y-93178572D01*
X148586785Y-93178572D02*
X148729642Y-93107143D01*
X148729642Y-93107143D02*
X148872500Y-92964286D01*
X148872500Y-92964286D02*
X148943928Y-92750000D01*
X148943928Y-92750000D02*
X148943928Y-92392857D01*
D11*
X162185238Y-116138095D02*
X162137619Y-116042857D01*
X162137619Y-116042857D02*
X162137619Y-115900000D01*
X162137619Y-115900000D02*
X162185238Y-115757143D01*
X162185238Y-115757143D02*
X162280476Y-115661905D01*
X162280476Y-115661905D02*
X162375714Y-115614286D01*
X162375714Y-115614286D02*
X162566190Y-115566667D01*
X162566190Y-115566667D02*
X162709047Y-115566667D01*
X162709047Y-115566667D02*
X162899523Y-115614286D01*
X162899523Y-115614286D02*
X162994761Y-115661905D01*
X162994761Y-115661905D02*
X163090000Y-115757143D01*
X163090000Y-115757143D02*
X163137619Y-115900000D01*
X163137619Y-115900000D02*
X163137619Y-115995238D01*
X163137619Y-115995238D02*
X163090000Y-116138095D01*
X163090000Y-116138095D02*
X163042380Y-116185714D01*
X163042380Y-116185714D02*
X162709047Y-116185714D01*
X162709047Y-116185714D02*
X162709047Y-115995238D01*
X163137619Y-116614286D02*
X162137619Y-116614286D01*
X162137619Y-116614286D02*
X163137619Y-117185714D01*
X163137619Y-117185714D02*
X162137619Y-117185714D01*
X163137619Y-117661905D02*
X162137619Y-117661905D01*
X162137619Y-117661905D02*
X162137619Y-117900000D01*
X162137619Y-117900000D02*
X162185238Y-118042857D01*
X162185238Y-118042857D02*
X162280476Y-118138095D01*
X162280476Y-118138095D02*
X162375714Y-118185714D01*
X162375714Y-118185714D02*
X162566190Y-118233333D01*
X162566190Y-118233333D02*
X162709047Y-118233333D01*
X162709047Y-118233333D02*
X162899523Y-118185714D01*
X162899523Y-118185714D02*
X162994761Y-118138095D01*
X162994761Y-118138095D02*
X163090000Y-118042857D01*
X163090000Y-118042857D02*
X163137619Y-117900000D01*
X163137619Y-117900000D02*
X163137619Y-117661905D01*
X152035238Y-116138095D02*
X151987619Y-116042857D01*
X151987619Y-116042857D02*
X151987619Y-115900000D01*
X151987619Y-115900000D02*
X152035238Y-115757143D01*
X152035238Y-115757143D02*
X152130476Y-115661905D01*
X152130476Y-115661905D02*
X152225714Y-115614286D01*
X152225714Y-115614286D02*
X152416190Y-115566667D01*
X152416190Y-115566667D02*
X152559047Y-115566667D01*
X152559047Y-115566667D02*
X152749523Y-115614286D01*
X152749523Y-115614286D02*
X152844761Y-115661905D01*
X152844761Y-115661905D02*
X152940000Y-115757143D01*
X152940000Y-115757143D02*
X152987619Y-115900000D01*
X152987619Y-115900000D02*
X152987619Y-115995238D01*
X152987619Y-115995238D02*
X152940000Y-116138095D01*
X152940000Y-116138095D02*
X152892380Y-116185714D01*
X152892380Y-116185714D02*
X152559047Y-116185714D01*
X152559047Y-116185714D02*
X152559047Y-115995238D01*
X152987619Y-116614286D02*
X151987619Y-116614286D01*
X151987619Y-116614286D02*
X152987619Y-117185714D01*
X152987619Y-117185714D02*
X151987619Y-117185714D01*
X152987619Y-117661905D02*
X151987619Y-117661905D01*
X151987619Y-117661905D02*
X151987619Y-117900000D01*
X151987619Y-117900000D02*
X152035238Y-118042857D01*
X152035238Y-118042857D02*
X152130476Y-118138095D01*
X152130476Y-118138095D02*
X152225714Y-118185714D01*
X152225714Y-118185714D02*
X152416190Y-118233333D01*
X152416190Y-118233333D02*
X152559047Y-118233333D01*
X152559047Y-118233333D02*
X152749523Y-118185714D01*
X152749523Y-118185714D02*
X152844761Y-118138095D01*
X152844761Y-118138095D02*
X152940000Y-118042857D01*
X152940000Y-118042857D02*
X152987619Y-117900000D01*
X152987619Y-117900000D02*
X152987619Y-117661905D01*
X146960238Y-116138095D02*
X146912619Y-116042857D01*
X146912619Y-116042857D02*
X146912619Y-115900000D01*
X146912619Y-115900000D02*
X146960238Y-115757143D01*
X146960238Y-115757143D02*
X147055476Y-115661905D01*
X147055476Y-115661905D02*
X147150714Y-115614286D01*
X147150714Y-115614286D02*
X147341190Y-115566667D01*
X147341190Y-115566667D02*
X147484047Y-115566667D01*
X147484047Y-115566667D02*
X147674523Y-115614286D01*
X147674523Y-115614286D02*
X147769761Y-115661905D01*
X147769761Y-115661905D02*
X147865000Y-115757143D01*
X147865000Y-115757143D02*
X147912619Y-115900000D01*
X147912619Y-115900000D02*
X147912619Y-115995238D01*
X147912619Y-115995238D02*
X147865000Y-116138095D01*
X147865000Y-116138095D02*
X147817380Y-116185714D01*
X147817380Y-116185714D02*
X147484047Y-116185714D01*
X147484047Y-116185714D02*
X147484047Y-115995238D01*
X147912619Y-116614286D02*
X146912619Y-116614286D01*
X146912619Y-116614286D02*
X147912619Y-117185714D01*
X147912619Y-117185714D02*
X146912619Y-117185714D01*
X147912619Y-117661905D02*
X146912619Y-117661905D01*
X146912619Y-117661905D02*
X146912619Y-117900000D01*
X146912619Y-117900000D02*
X146960238Y-118042857D01*
X146960238Y-118042857D02*
X147055476Y-118138095D01*
X147055476Y-118138095D02*
X147150714Y-118185714D01*
X147150714Y-118185714D02*
X147341190Y-118233333D01*
X147341190Y-118233333D02*
X147484047Y-118233333D01*
X147484047Y-118233333D02*
X147674523Y-118185714D01*
X147674523Y-118185714D02*
X147769761Y-118138095D01*
X147769761Y-118138095D02*
X147865000Y-118042857D01*
X147865000Y-118042857D02*
X147912619Y-117900000D01*
X147912619Y-117900000D02*
X147912619Y-117661905D01*
D14*
%TO.C,REF\u002A\u002A*%
X168000000Y-82000000D03*
%TD*%
D15*
%TO.C,J2*%
X163000000Y-100480000D03*
X163000000Y-96980000D03*
%TD*%
%TO.C,J1*%
X137000000Y-96980000D03*
X137000000Y-100480000D03*
%TD*%
D14*
%TO.C,REF\u002A\u002A*%
X132000000Y-82000000D03*
%TD*%
%TO.C,REF\u002A\u002A*%
X132000000Y-118000000D03*
%TD*%
D15*
%TO.C,J3*%
X151750000Y-87000000D03*
D16*
X148250000Y-87000000D03*
%TD*%
D14*
%TO.C,REF\u002A\u002A*%
X168000000Y-118000000D03*
%TD*%
D17*
%TO.C,J4*%
X137300000Y-119725000D03*
D18*
X139840000Y-119725000D03*
X142380000Y-119725000D03*
X144920000Y-119725000D03*
D17*
X147460000Y-119725000D03*
D18*
X150000000Y-119725000D03*
D17*
X152540000Y-119725000D03*
D18*
X155080000Y-119725000D03*
X157620000Y-119725000D03*
X160160000Y-119725000D03*
D17*
X162700000Y-119725000D03*
%TD*%
D19*
%TO.C,JP1*%
X162700000Y-113800000D03*
D20*
X162700000Y-112500000D03*
D21*
X162700000Y-111200000D03*
%TD*%
M02*
