M48
; DRILL file {KiCad 7.0.1} date Mon Aug 21 19:33:14 2023
; FORMAT={-:-/ absolute / inch / decimal}
; #@! TF.CreationDate,2023-08-21T19:33:14-03:00
; #@! TF.GenerationSoftware,Kicad,Pcbnew,7.0.1
; #@! TF.FileFunction,Plated,1,2,PTH
FMAT,2
INCH
; #@! TA.AperFunction,Plated,PTH,ViaDrill
T1C0.0157
; #@! TA.AperFunction,Plated,PTH,ComponentDrill
T2C0.0394
; #@! TA.AperFunction,Plated,PTH,ComponentDrill
T3C0.0551
%
G90
G05
T1
X5.1378Y-3.735
X5.1378Y-4.3553
X5.2215Y-4.4144
X5.2559Y-4.3809
X5.3346Y-3.1772
X5.3346Y-3.4252
X5.3346Y-4.2805
X5.374Y-4.3799
X5.374Y-4.5965
X5.3829Y-4.4222
X5.3937Y-3.735
X5.4134Y-4.062
X5.5217Y-3.1594
X5.5217Y-3.1988
X5.5217Y-3.3366
X5.5217Y-3.376
X5.5315Y-3.4929
X5.5315Y-4.5965
X5.5394Y-4.2008
X5.5394Y-4.311
X5.5418Y-4.0905
X5.561Y-3.1594
X5.561Y-3.1988
X5.561Y-3.3366
X5.561Y-3.376
X5.5713Y-3.9622
X5.6004Y-3.1594
X5.6004Y-3.376
X5.6339Y-3.6614
X5.6339Y-4.2126
X5.6398Y-3.1594
X5.6398Y-3.376
X5.6791Y-3.1594
X5.6791Y-3.376
X5.6791Y-4.3799
X5.6929Y-3.7618
X5.7283Y-4.6496
X5.7362Y-3.6378
X5.7776Y-4.4134
X5.7854Y-3.6201
X5.8071Y-3.8386
X5.8071Y-3.937
X5.8071Y-4.0354
X5.8563Y-3.7402
X5.8563Y-3.8386
X5.8563Y-3.937
X5.8563Y-4.0354
X5.8563Y-4.1339
X5.9055Y-3.7402
X5.9055Y-3.8386
X5.9055Y-3.937
X5.9055Y-4.0354
X5.9055Y-4.1339
X5.9449Y-3.1791
X5.9449Y-3.2283
X5.9449Y-3.2776
X5.9449Y-3.3268
X5.9547Y-3.7402
X5.9547Y-3.8386
X5.9547Y-3.937
X5.9547Y-4.0354
X5.9547Y-4.1339
X5.9606Y-4.4882
X6.0039Y-3.8386
X6.0039Y-3.937
X6.0039Y-4.0354
X6.0138Y-3.1791
X6.0138Y-3.2283
X6.0138Y-3.2776
X6.0138Y-3.3268
X6.0433Y-4.5512
X6.0433Y-4.5965
X6.0531Y-4.3799
X6.0586Y-3.5492
X6.1181Y-3.7618
X6.1535Y-4.6654
X6.1762Y-3.6634
X6.1772Y-4.2126
X6.2067Y-4.4675
X6.2234Y-4.5965
X6.2303Y-3.1732
X6.2303Y-3.2283
X6.2303Y-3.2776
X6.2303Y-3.3268
X6.2402Y-4.314
X6.2697Y-4.0945
X6.2697Y-4.2028
X6.2795Y-3.6742
X6.3228Y-4.3386
X6.3267Y-4.425
X6.3976Y-4.065
X6.4173Y-3.7343
X6.4701Y-3.3831
X6.4764Y-3.4933
X6.4774Y-4.2805
X6.4813Y-3.1732
X6.4961Y-4.5197
X6.6358Y-4.3917
X6.6732Y-3.4087
X6.6732Y-4.048
X6.6732Y-4.5118
T2
X5.4055Y-4.7136
X5.5055Y-4.7136
X5.6055Y-4.7136
X5.7055Y-4.7136
X5.8055Y-4.7136
X5.9055Y-4.7136
X6.0055Y-4.7136
X6.1055Y-4.7136
X6.2055Y-4.7136
X6.3055Y-4.7136
X6.4055Y-4.7136
T3
X5.3937Y-3.8181
X5.3937Y-3.9559
X5.8366Y-3.4252
X5.9744Y-3.4252
X6.4173Y-3.8181
X6.4173Y-3.9559
T0
M30
