%TF.GenerationSoftware,KiCad,Pcbnew,7.0.1*%
%TF.CreationDate,2023-05-06T15:32:37-03:00*%
%TF.ProjectId,Analog_Control,416e616c-6f67-45f4-936f-6e74726f6c2e,rev?*%
%TF.SameCoordinates,Original*%
%TF.FileFunction,Legend,Top*%
%TF.FilePolarity,Positive*%
%FSLAX46Y46*%
G04 Gerber Fmt 4.6, Leading zero omitted, Abs format (unit mm)*
G04 Created by KiCad (PCBNEW 7.0.1) date 2023-05-06 15:32:37*
%MOMM*%
%LPD*%
G01*
G04 APERTURE LIST*
G04 Aperture macros list*
%AMRoundRect*
0 Rectangle with rounded corners*
0 $1 Rounding radius*
0 $2 $3 $4 $5 $6 $7 $8 $9 X,Y pos of 4 corners*
0 Add a 4 corners polygon primitive as box body*
4,1,4,$2,$3,$4,$5,$6,$7,$8,$9,$2,$3,0*
0 Add four circle primitives for the rounded corners*
1,1,$1+$1,$2,$3*
1,1,$1+$1,$4,$5*
1,1,$1+$1,$6,$7*
1,1,$1+$1,$8,$9*
0 Add four rect primitives between the rounded corners*
20,1,$1+$1,$2,$3,$4,$5,0*
20,1,$1+$1,$4,$5,$6,$7,0*
20,1,$1+$1,$6,$7,$8,$9,0*
20,1,$1+$1,$8,$9,$2,$3,0*%
G04 Aperture macros list end*
%ADD10C,0.150000*%
%ADD11C,0.300000*%
%ADD12C,0.500000*%
%ADD13C,0.200000*%
%ADD14C,0.120000*%
%ADD15C,0.100000*%
%ADD16O,1.200000X1.750000*%
%ADD17RoundRect,0.300000X-0.300000X-0.575000X0.300000X-0.575000X0.300000X0.575000X-0.300000X0.575000X0*%
%ADD18RoundRect,0.250000X-0.412500X-0.925000X0.412500X-0.925000X0.412500X0.925000X-0.412500X0.925000X0*%
%ADD19RoundRect,0.250000X-1.000000X-0.650000X1.000000X-0.650000X1.000000X0.650000X-1.000000X0.650000X0*%
%ADD20RoundRect,0.243750X0.456250X-0.243750X0.456250X0.243750X-0.456250X0.243750X-0.456250X-0.243750X0*%
%ADD21R,1.270000X5.334000*%
%ADD22RoundRect,0.250000X0.475000X-0.250000X0.475000X0.250000X-0.475000X0.250000X-0.475000X-0.250000X0*%
%ADD23RoundRect,0.250000X0.450000X-0.262500X0.450000X0.262500X-0.450000X0.262500X-0.450000X-0.262500X0*%
%ADD24RoundRect,0.250000X-0.450000X0.262500X-0.450000X-0.262500X0.450000X-0.262500X0.450000X0.262500X0*%
%ADD25C,1.700000*%
%ADD26O,1.700000X1.700000*%
%ADD27R,1.700000X1.700000*%
%ADD28RoundRect,0.250000X0.375000X1.075000X-0.375000X1.075000X-0.375000X-1.075000X0.375000X-1.075000X0*%
%ADD29RoundRect,0.250000X-0.475000X0.250000X-0.475000X-0.250000X0.475000X-0.250000X0.475000X0.250000X0*%
G04 APERTURE END LIST*
D10*
X146151600Y-92354400D02*
X150723600Y-92354400D01*
X150723600Y-98145600D01*
X146151600Y-98145600D01*
X146151600Y-92354400D01*
D11*
X147685414Y-97035714D02*
X147685414Y-97535714D01*
X148471128Y-97535714D02*
X146971128Y-97535714D01*
X146971128Y-97535714D02*
X146971128Y-96821428D01*
X148471128Y-95535714D02*
X148471128Y-96250000D01*
X148471128Y-96250000D02*
X146971128Y-96250000D01*
X147685414Y-95035714D02*
X147685414Y-94535714D01*
X148471128Y-94321428D02*
X148471128Y-95035714D01*
X148471128Y-95035714D02*
X146971128Y-95035714D01*
X146971128Y-95035714D02*
X146971128Y-94321428D01*
X146971128Y-93821428D02*
X148471128Y-92821428D01*
X146971128Y-92821428D02*
X148471128Y-93821428D01*
D10*
X156616400Y-92354400D02*
X161188400Y-92354400D01*
X161188400Y-98145600D01*
X156616400Y-98145600D01*
X156616400Y-92354400D01*
G36*
X156616400Y-92354400D02*
G01*
X161188400Y-92354400D01*
X161188400Y-98145600D01*
X156616400Y-98145600D01*
X156616400Y-92354400D01*
G37*
D12*
X154940000Y-85217000D02*
X154940000Y-97536000D01*
X152400000Y-97536000D02*
X152400000Y-85217000D01*
D13*
X162353571Y-118334619D02*
X162544047Y-118334619D01*
X162544047Y-118334619D02*
X162639285Y-118382238D01*
X162639285Y-118382238D02*
X162734523Y-118477476D01*
X162734523Y-118477476D02*
X162782142Y-118667952D01*
X162782142Y-118667952D02*
X162782142Y-119001285D01*
X162782142Y-119001285D02*
X162734523Y-119191761D01*
X162734523Y-119191761D02*
X162639285Y-119287000D01*
X162639285Y-119287000D02*
X162544047Y-119334619D01*
X162544047Y-119334619D02*
X162353571Y-119334619D01*
X162353571Y-119334619D02*
X162258333Y-119287000D01*
X162258333Y-119287000D02*
X162163095Y-119191761D01*
X162163095Y-119191761D02*
X162115476Y-119001285D01*
X162115476Y-119001285D02*
X162115476Y-118667952D01*
X162115476Y-118667952D02*
X162163095Y-118477476D01*
X162163095Y-118477476D02*
X162258333Y-118382238D01*
X162258333Y-118382238D02*
X162353571Y-118334619D01*
X163210714Y-119334619D02*
X163210714Y-118334619D01*
X163210714Y-118334619D02*
X163782142Y-119334619D01*
X163782142Y-119334619D02*
X163782142Y-118334619D01*
X144192523Y-119461619D02*
X143859190Y-118985428D01*
X143621095Y-119461619D02*
X143621095Y-118461619D01*
X143621095Y-118461619D02*
X144002047Y-118461619D01*
X144002047Y-118461619D02*
X144097285Y-118509238D01*
X144097285Y-118509238D02*
X144144904Y-118556857D01*
X144144904Y-118556857D02*
X144192523Y-118652095D01*
X144192523Y-118652095D02*
X144192523Y-118794952D01*
X144192523Y-118794952D02*
X144144904Y-118890190D01*
X144144904Y-118890190D02*
X144097285Y-118937809D01*
X144097285Y-118937809D02*
X144002047Y-118985428D01*
X144002047Y-118985428D02*
X143621095Y-118985428D01*
D14*
%TO.C,J1*%
X147370000Y-117144000D02*
X147370000Y-118744000D01*
X147370000Y-118744000D02*
X148370000Y-118744000D01*
X148370000Y-117144000D02*
X147370000Y-117144000D01*
X148370000Y-118744000D02*
X148370000Y-117144000D01*
X149170000Y-116644000D02*
X158170000Y-116644000D01*
X149170000Y-121004000D02*
X149170000Y-116644000D01*
X158170000Y-116644000D02*
X158170000Y-121004000D01*
X158970000Y-117144000D02*
X159970000Y-117144000D01*
X158970000Y-118744000D02*
X158970000Y-117144000D01*
X159970000Y-117144000D02*
X159970000Y-118744000D01*
X159970000Y-118744000D02*
X158970000Y-118744000D01*
D15*
%TO.C,C1*%
X159258000Y-108712000D02*
X159893000Y-108712000D01*
X159893000Y-108712000D02*
X159893000Y-110744000D01*
X159893000Y-110744000D02*
X159258000Y-110744000D01*
X159258000Y-110744000D02*
X159258000Y-108712000D01*
G36*
X159258000Y-108712000D02*
G01*
X159893000Y-108712000D01*
X159893000Y-110744000D01*
X159258000Y-110744000D01*
X159258000Y-108712000D01*
G37*
%TO.C,D2*%
X154178000Y-110490000D02*
X153035000Y-109728000D01*
X154178000Y-108966000D01*
X154178000Y-110490000D01*
G36*
X154178000Y-110490000D02*
G01*
X153035000Y-109728000D01*
X154178000Y-108966000D01*
X154178000Y-110490000D01*
G37*
%TO.C,D3*%
X142240000Y-119403500D02*
X141732000Y-118641500D01*
X142748000Y-118641500D01*
X142240000Y-119403500D01*
G36*
X142240000Y-119403500D02*
G01*
X141732000Y-118641500D01*
X142748000Y-118641500D01*
X142240000Y-119403500D01*
G37*
D14*
%TO.C,C3*%
X153162000Y-101861252D02*
X153162000Y-101338748D01*
X154178000Y-101861252D02*
X154178000Y-101338748D01*
D15*
%TO.C,R3*%
X141732000Y-115212500D02*
X142748000Y-115212500D01*
%TO.C,R2*%
X165608000Y-115212500D02*
X164592000Y-115212500D01*
%TO.C,D1*%
X165100000Y-119403500D02*
X164592000Y-118641500D01*
X165608000Y-118641500D01*
X165100000Y-119403500D01*
G36*
X165100000Y-119403500D02*
G01*
X164592000Y-118641500D01*
X165608000Y-118641500D01*
X165100000Y-119403500D01*
G37*
%TO.C,F1*%
X147955000Y-110871000D02*
X146685000Y-108585000D01*
X147955000Y-108585000D02*
X146685000Y-110871000D01*
D14*
%TO.C,C2*%
X150622000Y-101861252D02*
X150622000Y-101338748D01*
X151638000Y-101861252D02*
X151638000Y-101338748D01*
D15*
%TO.C,R1*%
X148082000Y-101600000D02*
X149098000Y-101600000D01*
%TO.C,G\u002A\u002A\u002A*%
G36*
X154055480Y-84151919D02*
G01*
X154088140Y-84188616D01*
X154129891Y-84261836D01*
X154160420Y-84324063D01*
X154200924Y-84416670D01*
X154229512Y-84496313D01*
X154241410Y-84549179D01*
X154241075Y-84557439D01*
X154221003Y-84598891D01*
X154187480Y-84594926D01*
X154143100Y-84547536D01*
X154090453Y-84458713D01*
X154076701Y-84431090D01*
X154022562Y-84311606D01*
X153994442Y-84228652D01*
X153991362Y-84176613D01*
X154012346Y-84149875D01*
X154026933Y-84145073D01*
X154055480Y-84151919D01*
G37*
G36*
X153357471Y-84165166D02*
G01*
X153354712Y-84197740D01*
X153334693Y-84261779D01*
X153302927Y-84344182D01*
X153264930Y-84431848D01*
X153226217Y-84511674D01*
X153192302Y-84570560D01*
X153179983Y-84586838D01*
X153139014Y-84607332D01*
X153105338Y-84586565D01*
X153094434Y-84544157D01*
X153104822Y-84502114D01*
X153132343Y-84429528D01*
X153171535Y-84340512D01*
X153181043Y-84320413D01*
X153239627Y-84212231D01*
X153288875Y-84152327D01*
X153329613Y-84139971D01*
X153357471Y-84165166D01*
G37*
G36*
X153690456Y-84141863D02*
G01*
X153704399Y-84153566D01*
X153712835Y-84182574D01*
X153716769Y-84236661D01*
X153717206Y-84323603D01*
X153715152Y-84451173D01*
X153714500Y-84483779D01*
X153710837Y-84624075D01*
X153705875Y-84721461D01*
X153698691Y-84783072D01*
X153688362Y-84816046D01*
X153673966Y-84827519D01*
X153670000Y-84827867D01*
X153654543Y-84820313D01*
X153643364Y-84792892D01*
X153635541Y-84738468D01*
X153630152Y-84649904D01*
X153626273Y-84520063D01*
X153625501Y-84483779D01*
X153623053Y-84346710D01*
X153622885Y-84251899D01*
X153626002Y-84191571D01*
X153633411Y-84157952D01*
X153646117Y-84143267D01*
X153665125Y-84139741D01*
X153670000Y-84139690D01*
X153690456Y-84141863D01*
G37*
G36*
X154984754Y-83205583D02*
G01*
X155024932Y-83226702D01*
X155091450Y-83287520D01*
X155126882Y-83370937D01*
X155124860Y-83458673D01*
X155114994Y-83485237D01*
X155060567Y-83549427D01*
X154961740Y-83613955D01*
X154824100Y-83676609D01*
X154653231Y-83735181D01*
X154454719Y-83787460D01*
X154245567Y-83829290D01*
X154047991Y-83852524D01*
X153818373Y-83862074D01*
X153572639Y-83858527D01*
X153326718Y-83842470D01*
X153096538Y-83814492D01*
X152919262Y-83780384D01*
X152720140Y-83729432D01*
X152548780Y-83678366D01*
X152411902Y-83629415D01*
X152316229Y-83584809D01*
X152300124Y-83574983D01*
X152235822Y-83507033D01*
X152210372Y-83422577D01*
X152222899Y-83335550D01*
X152272528Y-83259892D01*
X152322110Y-83224512D01*
X152357083Y-83209028D01*
X152392897Y-83202962D01*
X152440134Y-83207820D01*
X152509376Y-83225109D01*
X152611208Y-83256332D01*
X152663486Y-83273077D01*
X152920276Y-83347445D01*
X153160293Y-83397617D01*
X153401302Y-83425991D01*
X153661069Y-83434963D01*
X153840099Y-83431808D01*
X154059632Y-83420520D01*
X154244299Y-83400874D01*
X154408984Y-83369977D01*
X154568571Y-83324938D01*
X154737943Y-83262864D01*
X154764331Y-83252223D01*
X154853636Y-83216360D01*
X154910653Y-83197562D01*
X154949614Y-83194434D01*
X154984754Y-83205583D01*
G37*
G36*
X151583418Y-82053100D02*
G01*
X151604874Y-82077317D01*
X151647228Y-82137456D01*
X151705797Y-82226424D01*
X151775897Y-82337126D01*
X151844211Y-82448214D01*
X152077006Y-82831799D01*
X152188773Y-82782359D01*
X152319257Y-82747186D01*
X152465324Y-82744081D01*
X152613166Y-82769950D01*
X152748976Y-82821700D01*
X152858948Y-82896238D01*
X152900461Y-82941794D01*
X152932315Y-82997611D01*
X152929179Y-83043464D01*
X152922510Y-83057562D01*
X152875338Y-83112679D01*
X152814341Y-83122470D01*
X152735175Y-83087380D01*
X152721430Y-83078249D01*
X152583811Y-83000160D01*
X152457605Y-82966511D01*
X152333593Y-82976142D01*
X152226119Y-83015985D01*
X152112950Y-83096972D01*
X152035665Y-83210542D01*
X151997212Y-83351594D01*
X151993350Y-83418730D01*
X152015105Y-83564575D01*
X152078301Y-83683967D01*
X152179839Y-83773276D01*
X152316619Y-83828871D01*
X152349692Y-83835953D01*
X152455318Y-83866702D01*
X152522067Y-83909941D01*
X152547011Y-83960915D01*
X152527222Y-84014872D01*
X152483400Y-84053049D01*
X152405554Y-84076740D01*
X152303805Y-84069285D01*
X152189742Y-84034824D01*
X152074957Y-83977499D01*
X151971039Y-83901448D01*
X151922226Y-83852582D01*
X151829729Y-83722026D01*
X151777066Y-83580612D01*
X151758597Y-83413954D01*
X151762311Y-83302013D01*
X151782399Y-83210802D01*
X151824238Y-83113659D01*
X151892861Y-82976045D01*
X151655322Y-82583713D01*
X151579324Y-82455499D01*
X151513395Y-82339131D01*
X151461719Y-82242418D01*
X151428481Y-82173170D01*
X151417784Y-82140406D01*
X151439208Y-82084633D01*
X151492209Y-82050186D01*
X151559876Y-82045977D01*
X151583418Y-82053100D01*
G37*
G36*
X155874224Y-82053405D02*
G01*
X155892188Y-82067651D01*
X155911548Y-82094863D01*
X155917317Y-82129737D01*
X155907107Y-82178204D01*
X155878531Y-82246197D01*
X155829198Y-82339647D01*
X155756720Y-82464486D01*
X155683463Y-82586023D01*
X155444708Y-82978602D01*
X155510709Y-83096689D01*
X155574619Y-83257647D01*
X155592985Y-83421555D01*
X155569345Y-83581568D01*
X155507237Y-83730842D01*
X155410197Y-83862533D01*
X155281765Y-83969796D01*
X155125476Y-84045786D01*
X155004444Y-84076210D01*
X154930062Y-84082928D01*
X154881172Y-84068752D01*
X154848040Y-84041473D01*
X154810471Y-83996113D01*
X154796109Y-83964518D01*
X154817687Y-83917444D01*
X154870581Y-83873139D01*
X154937033Y-83844199D01*
X154972524Y-83839395D01*
X155085684Y-83816080D01*
X155189114Y-83752896D01*
X155275125Y-83659979D01*
X155336029Y-83547467D01*
X155364140Y-83425497D01*
X155358403Y-83330552D01*
X155308834Y-83201195D01*
X155223479Y-83093364D01*
X155112303Y-83014615D01*
X154985265Y-82972506D01*
X154882862Y-82969810D01*
X154787864Y-82994055D01*
X154683354Y-83041316D01*
X154648309Y-83062124D01*
X154572880Y-83106932D01*
X154523005Y-83124977D01*
X154484849Y-83120370D01*
X154472257Y-83114466D01*
X154429005Y-83064582D01*
X154420739Y-83013903D01*
X154430603Y-82960920D01*
X154467111Y-82914182D01*
X154527094Y-82868605D01*
X154697218Y-82779328D01*
X154871457Y-82739291D01*
X155047738Y-82748804D01*
X155145972Y-82775678D01*
X155213900Y-82795835D01*
X155261467Y-82803011D01*
X155271057Y-82801194D01*
X155289860Y-82776706D01*
X155329417Y-82716709D01*
X155384943Y-82628739D01*
X155451655Y-82520329D01*
X155497373Y-82444763D01*
X155570362Y-82325326D01*
X155637085Y-82219802D01*
X155692229Y-82136317D01*
X155730483Y-82082998D01*
X155743074Y-82068902D01*
X155809973Y-82039613D01*
X155874224Y-82053405D01*
G37*
D14*
%TO.C,C5*%
X159258000Y-101338748D02*
X159258000Y-101861252D01*
X158242000Y-101338748D02*
X158242000Y-101861252D01*
%TO.C,C4*%
X155702000Y-101861252D02*
X155702000Y-101338748D01*
X156718000Y-101861252D02*
X156718000Y-101338748D01*
%TD*%
%LPC*%
D11*
X159183757Y-96392856D02*
X159112328Y-96535714D01*
X159112328Y-96535714D02*
X159112328Y-96749999D01*
X159112328Y-96749999D02*
X159183757Y-96964285D01*
X159183757Y-96964285D02*
X159326614Y-97107142D01*
X159326614Y-97107142D02*
X159469471Y-97178571D01*
X159469471Y-97178571D02*
X159755185Y-97249999D01*
X159755185Y-97249999D02*
X159969471Y-97249999D01*
X159969471Y-97249999D02*
X160255185Y-97178571D01*
X160255185Y-97178571D02*
X160398042Y-97107142D01*
X160398042Y-97107142D02*
X160540900Y-96964285D01*
X160540900Y-96964285D02*
X160612328Y-96749999D01*
X160612328Y-96749999D02*
X160612328Y-96607142D01*
X160612328Y-96607142D02*
X160540900Y-96392856D01*
X160540900Y-96392856D02*
X160469471Y-96321428D01*
X160469471Y-96321428D02*
X159969471Y-96321428D01*
X159969471Y-96321428D02*
X159969471Y-96607142D01*
X160612328Y-95678571D02*
X159112328Y-95678571D01*
X159112328Y-95678571D02*
X160612328Y-94821428D01*
X160612328Y-94821428D02*
X159112328Y-94821428D01*
X160612328Y-94107142D02*
X159112328Y-94107142D01*
X159112328Y-94107142D02*
X159112328Y-93749999D01*
X159112328Y-93749999D02*
X159183757Y-93535713D01*
X159183757Y-93535713D02*
X159326614Y-93392856D01*
X159326614Y-93392856D02*
X159469471Y-93321427D01*
X159469471Y-93321427D02*
X159755185Y-93249999D01*
X159755185Y-93249999D02*
X159969471Y-93249999D01*
X159969471Y-93249999D02*
X160255185Y-93321427D01*
X160255185Y-93321427D02*
X160398042Y-93392856D01*
X160398042Y-93392856D02*
X160540900Y-93535713D01*
X160540900Y-93535713D02*
X160612328Y-93749999D01*
X160612328Y-93749999D02*
X160612328Y-94107142D01*
D16*
%TO.C,J1*%
X148670000Y-114644000D03*
X150670000Y-114644000D03*
X152670000Y-114644000D03*
X154670000Y-114644000D03*
X156670000Y-114644000D03*
D17*
X158670000Y-114644000D03*
%TD*%
D18*
%TO.C,C1*%
X158482500Y-109728000D03*
X161557500Y-109728000D03*
%TD*%
D19*
%TO.C,D2*%
X151670000Y-109728000D03*
X155670000Y-109728000D03*
%TD*%
D20*
%TO.C,D3*%
X142240000Y-119960000D03*
X142240000Y-118085000D03*
%TD*%
D21*
%TO.C,J3*%
X149860000Y-95250000D03*
X157480000Y-95250000D03*
%TD*%
D22*
%TO.C,C3*%
X153670000Y-102550000D03*
X153670000Y-100650000D03*
%TD*%
D23*
%TO.C,R3*%
X142240000Y-116125000D03*
X142240000Y-114300000D03*
%TD*%
D24*
%TO.C,R2*%
X165100000Y-114300000D03*
X165100000Y-116125000D03*
%TD*%
D25*
%TO.C,J2*%
X163830000Y-105410000D03*
D26*
X161290000Y-105410000D03*
X158750000Y-105410000D03*
X156210000Y-105410000D03*
X153670000Y-105410000D03*
X151130000Y-105410000D03*
X148590000Y-105410000D03*
D27*
X146050000Y-105410000D03*
D26*
X143510000Y-105410000D03*
%TD*%
D20*
%TO.C,D1*%
X165100000Y-119960000D03*
X165100000Y-118085000D03*
%TD*%
D28*
%TO.C,F1*%
X148720000Y-109728000D03*
X145920000Y-109728000D03*
%TD*%
D22*
%TO.C,C2*%
X151130000Y-102550000D03*
X151130000Y-100650000D03*
%TD*%
D23*
%TO.C,R1*%
X148590000Y-102512500D03*
X148590000Y-100687500D03*
%TD*%
D29*
%TO.C,C5*%
X158750000Y-100650000D03*
X158750000Y-102550000D03*
%TD*%
D22*
%TO.C,C4*%
X156210000Y-102550000D03*
X156210000Y-100650000D03*
%TD*%
M02*
