%TF.GenerationSoftware,KiCad,Pcbnew,7.0.1*%
%TF.CreationDate,2023-05-06T15:32:37-03:00*%
%TF.ProjectId,Analog_Control,416e616c-6f67-45f4-936f-6e74726f6c2e,rev?*%
%TF.SameCoordinates,Original*%
%TF.FileFunction,Copper,L1,Top*%
%TF.FilePolarity,Positive*%
%FSLAX46Y46*%
G04 Gerber Fmt 4.6, Leading zero omitted, Abs format (unit mm)*
G04 Created by KiCad (PCBNEW 7.0.1) date 2023-05-06 15:32:37*
%MOMM*%
%LPD*%
G01*
G04 APERTURE LIST*
G04 Aperture macros list*
%AMRoundRect*
0 Rectangle with rounded corners*
0 $1 Rounding radius*
0 $2 $3 $4 $5 $6 $7 $8 $9 X,Y pos of 4 corners*
0 Add a 4 corners polygon primitive as box body*
4,1,4,$2,$3,$4,$5,$6,$7,$8,$9,$2,$3,0*
0 Add four circle primitives for the rounded corners*
1,1,$1+$1,$2,$3*
1,1,$1+$1,$4,$5*
1,1,$1+$1,$6,$7*
1,1,$1+$1,$8,$9*
0 Add four rect primitives between the rounded corners*
20,1,$1+$1,$2,$3,$4,$5,0*
20,1,$1+$1,$4,$5,$6,$7,0*
20,1,$1+$1,$6,$7,$8,$9,0*
20,1,$1+$1,$8,$9,$2,$3,0*%
G04 Aperture macros list end*
%TA.AperFunction,ComponentPad*%
%ADD10O,1.200000X1.750000*%
%TD*%
%TA.AperFunction,ComponentPad*%
%ADD11RoundRect,0.300000X-0.300000X-0.575000X0.300000X-0.575000X0.300000X0.575000X-0.300000X0.575000X0*%
%TD*%
%TA.AperFunction,SMDPad,CuDef*%
%ADD12RoundRect,0.250000X-0.412500X-0.925000X0.412500X-0.925000X0.412500X0.925000X-0.412500X0.925000X0*%
%TD*%
%TA.AperFunction,SMDPad,CuDef*%
%ADD13RoundRect,0.250000X-1.000000X-0.650000X1.000000X-0.650000X1.000000X0.650000X-1.000000X0.650000X0*%
%TD*%
%TA.AperFunction,SMDPad,CuDef*%
%ADD14RoundRect,0.243750X0.456250X-0.243750X0.456250X0.243750X-0.456250X0.243750X-0.456250X-0.243750X0*%
%TD*%
%TA.AperFunction,SMDPad,CuDef*%
%ADD15R,1.270000X5.334000*%
%TD*%
%TA.AperFunction,SMDPad,CuDef*%
%ADD16RoundRect,0.250000X0.475000X-0.250000X0.475000X0.250000X-0.475000X0.250000X-0.475000X-0.250000X0*%
%TD*%
%TA.AperFunction,SMDPad,CuDef*%
%ADD17RoundRect,0.250000X0.450000X-0.262500X0.450000X0.262500X-0.450000X0.262500X-0.450000X-0.262500X0*%
%TD*%
%TA.AperFunction,SMDPad,CuDef*%
%ADD18RoundRect,0.250000X-0.450000X0.262500X-0.450000X-0.262500X0.450000X-0.262500X0.450000X0.262500X0*%
%TD*%
%TA.AperFunction,ComponentPad*%
%ADD19C,1.700000*%
%TD*%
%TA.AperFunction,ComponentPad*%
%ADD20O,1.700000X1.700000*%
%TD*%
%TA.AperFunction,ComponentPad*%
%ADD21R,1.700000X1.700000*%
%TD*%
%TA.AperFunction,SMDPad,CuDef*%
%ADD22RoundRect,0.250000X0.375000X1.075000X-0.375000X1.075000X-0.375000X-1.075000X0.375000X-1.075000X0*%
%TD*%
%TA.AperFunction,SMDPad,CuDef*%
%ADD23RoundRect,0.250000X-0.475000X0.250000X-0.475000X-0.250000X0.475000X-0.250000X0.475000X0.250000X0*%
%TD*%
%TA.AperFunction,ViaPad*%
%ADD24C,0.800000*%
%TD*%
%TA.AperFunction,Conductor*%
%ADD25C,0.250000*%
%TD*%
%TA.AperFunction,Conductor*%
%ADD26C,0.500000*%
%TD*%
G04 APERTURE END LIST*
D10*
%TO.P,J1,1,Pin_1*%
%TO.N,VCC*%
X148670000Y-114644000D03*
%TO.P,J1,2,Pin_2*%
%TO.N,FLEX*%
X150670000Y-114644000D03*
%TO.P,J1,3,Pin_3*%
%TO.N,X_AXIS*%
X152670000Y-114644000D03*
%TO.P,J1,4,Pin_4*%
%TO.N,Y_AXIS*%
X154670000Y-114644000D03*
%TO.P,J1,5,Pin_5*%
%TO.N,Z_AXIS*%
X156670000Y-114644000D03*
D11*
%TO.P,J1,6,Pin_6*%
%TO.N,GND*%
X158670000Y-114644000D03*
%TD*%
D12*
%TO.P,C1,1*%
%TO.N,+5V*%
X158482500Y-109728000D03*
%TO.P,C1,2*%
%TO.N,GND*%
X161557500Y-109728000D03*
%TD*%
D13*
%TO.P,D2,1,K*%
%TO.N,Net-(D2-K)*%
X151670000Y-109728000D03*
%TO.P,D2,2,A*%
%TO.N,VCC*%
X155670000Y-109728000D03*
%TD*%
D14*
%TO.P,D3,1,K*%
%TO.N,VCC*%
X142240000Y-119960000D03*
%TO.P,D3,2,A*%
%TO.N,Net-(D3-A)*%
X142240000Y-118085000D03*
%TD*%
D15*
%TO.P,J3,1,Pin_1*%
%TO.N,FLEX*%
X149860000Y-95250000D03*
%TO.P,J3,4,Pin_4*%
%TO.N,GND*%
X157480000Y-95250000D03*
%TD*%
D16*
%TO.P,C3,1*%
%TO.N,Y_AXIS*%
X153670000Y-102550000D03*
%TO.P,C3,2*%
%TO.N,GND*%
X153670000Y-100650000D03*
%TD*%
D17*
%TO.P,R3,1*%
%TO.N,Net-(D3-A)*%
X142240000Y-116125000D03*
%TO.P,R3,2*%
%TO.N,GND*%
X142240000Y-114300000D03*
%TD*%
D18*
%TO.P,R2,1*%
%TO.N,+5V*%
X165100000Y-114300000D03*
%TO.P,R2,2*%
%TO.N,Net-(D1-A)*%
X165100000Y-116125000D03*
%TD*%
D19*
%TO.P,J2,1,Pin_1*%
%TO.N,unconnected-(J2-Pin_1-Pad1)*%
X163830000Y-105410000D03*
D20*
%TO.P,J2,2,Pin_2*%
%TO.N,unconnected-(J2-Pin_2-Pad2)*%
X161290000Y-105410000D03*
%TO.P,J2,3,Pin_3*%
%TO.N,unconnected-(J2-Pin_3-Pad3)*%
X158750000Y-105410000D03*
%TO.P,J2,4,Pin_4*%
%TO.N,Z_AXIS*%
X156210000Y-105410000D03*
%TO.P,J2,5,Pin_5*%
%TO.N,Y_AXIS*%
X153670000Y-105410000D03*
%TO.P,J2,6,Pin_6*%
%TO.N,X_AXIS*%
X151130000Y-105410000D03*
%TO.P,J2,7,Pin_7*%
%TO.N,unconnected-(J2-Pin_7-Pad7)*%
X148590000Y-105410000D03*
D21*
%TO.P,J2,8,Pin_8*%
%TO.N,GND*%
X146050000Y-105410000D03*
D20*
%TO.P,J2,9,Pin_9*%
%TO.N,+5V*%
X143510000Y-105410000D03*
%TD*%
D14*
%TO.P,D1,1,K*%
%TO.N,GND*%
X165100000Y-119960000D03*
%TO.P,D1,2,A*%
%TO.N,Net-(D1-A)*%
X165100000Y-118085000D03*
%TD*%
D22*
%TO.P,F1,1*%
%TO.N,Net-(D2-K)*%
X148720000Y-109728000D03*
%TO.P,F1,2*%
%TO.N,+5V*%
X145920000Y-109728000D03*
%TD*%
D16*
%TO.P,C2,1*%
%TO.N,X_AXIS*%
X151130000Y-102550000D03*
%TO.P,C2,2*%
%TO.N,GND*%
X151130000Y-100650000D03*
%TD*%
D17*
%TO.P,R1,1*%
%TO.N,+5V*%
X148590000Y-102512500D03*
%TO.P,R1,2*%
%TO.N,FLEX*%
X148590000Y-100687500D03*
%TD*%
D23*
%TO.P,C5,1*%
%TO.N,FLEX*%
X158750000Y-100650000D03*
%TO.P,C5,2*%
%TO.N,GND*%
X158750000Y-102550000D03*
%TD*%
D16*
%TO.P,C4,1*%
%TO.N,Z_AXIS*%
X156210000Y-102550000D03*
%TO.P,C4,2*%
%TO.N,GND*%
X156210000Y-100650000D03*
%TD*%
D24*
%TO.N,GND*%
X157480000Y-91643200D03*
X160375600Y-102565200D03*
X151130000Y-99263200D03*
X153670000Y-99263200D03*
X156210000Y-99263200D03*
X160020000Y-82296000D03*
X141986000Y-104394000D03*
X144678400Y-107188000D03*
X165354000Y-104394000D03*
X147320000Y-82296000D03*
X163144200Y-109728000D03*
%TO.N,FLEX*%
X149225000Y-99187000D03*
%TD*%
D25*
%TO.N,FLEX*%
X150876000Y-95250000D02*
X149860000Y-95250000D01*
X154076400Y-98450400D02*
X150876000Y-95250000D01*
X157378400Y-98450400D02*
X154076400Y-98450400D01*
X158750000Y-99822000D02*
X157378400Y-98450400D01*
X158750000Y-100650000D02*
X158750000Y-99822000D01*
D26*
%TO.N,+5V*%
X143510000Y-108356400D02*
X143510000Y-105410000D01*
X144881600Y-109728000D02*
X143510000Y-108356400D01*
X145920000Y-109728000D02*
X144881600Y-109728000D01*
X148590000Y-103378000D02*
X148590000Y-102512500D01*
X158482500Y-111238500D02*
X161544000Y-114300000D01*
X146304000Y-107696000D02*
X157988000Y-107696000D01*
X143510000Y-104394000D02*
X144018000Y-103886000D01*
X161544000Y-114300000D02*
X165100000Y-114300000D01*
X158482500Y-109728000D02*
X158482500Y-111238500D01*
X143510000Y-105410000D02*
X143510000Y-104394000D01*
X157988000Y-107696000D02*
X158482500Y-108190500D01*
X144018000Y-103886000D02*
X148082000Y-103886000D01*
X158482500Y-108190500D02*
X158482500Y-109728000D01*
X145920000Y-108080000D02*
X146304000Y-107696000D01*
X145920000Y-109728000D02*
X145920000Y-108080000D01*
X148082000Y-103886000D02*
X148590000Y-103378000D01*
D25*
%TO.N,X_AXIS*%
X151130000Y-102550000D02*
X151130000Y-105410000D01*
%TO.N,Y_AXIS*%
X153670000Y-102550000D02*
X153670000Y-105410000D01*
%TO.N,Z_AXIS*%
X156210000Y-102550000D02*
X156210000Y-105410000D01*
D26*
%TO.N,FLEX*%
X149860000Y-98552000D02*
X149860000Y-95250000D01*
X148590000Y-99822000D02*
X149225000Y-99187000D01*
X149225000Y-99187000D02*
X149860000Y-98552000D01*
X148590000Y-100687500D02*
X148590000Y-99822000D01*
%TO.N,Net-(D1-A)*%
X165100000Y-118085000D02*
X165100000Y-116125000D01*
%TO.N,Net-(D2-K)*%
X151670000Y-109728000D02*
X148720000Y-109728000D01*
%TO.N,VCC*%
X155670000Y-111030000D02*
X155670000Y-109728000D01*
X150622000Y-111506000D02*
X155194000Y-111506000D01*
X148670000Y-113458000D02*
X150622000Y-111506000D01*
X155194000Y-111506000D02*
X155670000Y-111030000D01*
X144454000Y-119960000D02*
X148670000Y-115744000D01*
X148670000Y-114644000D02*
X148670000Y-113458000D01*
X148670000Y-115744000D02*
X148670000Y-114644000D01*
X142240000Y-119960000D02*
X144454000Y-119960000D01*
%TO.N,Net-(D3-A)*%
X142240000Y-118085000D02*
X142240000Y-116125000D01*
%TD*%
%TA.AperFunction,Conductor*%
%TO.N,GND*%
G36*
X157714815Y-108215913D02*
G01*
X157760427Y-108258380D01*
X157780108Y-108317512D01*
X157769042Y-108378843D01*
X157729937Y-108427369D01*
X157709595Y-108442595D01*
X157622658Y-108558731D01*
X157571959Y-108694660D01*
X157565500Y-108754744D01*
X157565500Y-110701257D01*
X157571959Y-110761338D01*
X157622658Y-110897268D01*
X157709595Y-111013404D01*
X157770050Y-111058659D01*
X157825733Y-111100342D01*
X157894831Y-111126114D01*
X157935550Y-111150934D01*
X157964130Y-111189113D01*
X157976474Y-111235179D01*
X157977679Y-111252027D01*
X157978000Y-111261016D01*
X157978000Y-111274587D01*
X157979929Y-111288008D01*
X157980890Y-111296941D01*
X157984460Y-111346842D01*
X157986121Y-111351295D01*
X157992782Y-111377395D01*
X157993457Y-111382095D01*
X158014236Y-111427595D01*
X158017670Y-111435885D01*
X158029269Y-111466982D01*
X158035157Y-111482768D01*
X158038003Y-111486569D01*
X158051744Y-111509727D01*
X158053720Y-111514055D01*
X158053723Y-111514058D01*
X158086476Y-111551857D01*
X158092108Y-111558846D01*
X158100249Y-111569720D01*
X158109835Y-111579306D01*
X158115964Y-111585888D01*
X158148725Y-111623696D01*
X158152723Y-111626265D01*
X158173697Y-111643168D01*
X161139332Y-114608803D01*
X161156230Y-114629770D01*
X161158804Y-114633775D01*
X161196619Y-114666542D01*
X161203173Y-114672644D01*
X161212779Y-114682250D01*
X161223645Y-114690384D01*
X161230628Y-114696011D01*
X161268441Y-114728776D01*
X161268442Y-114728777D01*
X161272758Y-114730748D01*
X161295924Y-114744492D01*
X161299733Y-114747343D01*
X161346605Y-114764825D01*
X161354892Y-114768257D01*
X161400404Y-114789042D01*
X161405099Y-114789716D01*
X161431207Y-114796379D01*
X161435658Y-114798040D01*
X161485554Y-114801608D01*
X161494484Y-114802569D01*
X161507914Y-114804500D01*
X161507917Y-114804500D01*
X161521484Y-114804500D01*
X161530470Y-114804820D01*
X161580360Y-114808389D01*
X161585003Y-114807378D01*
X161611784Y-114804500D01*
X164137889Y-114804500D01*
X164194289Y-114817828D01*
X164238758Y-114854992D01*
X164289595Y-114922904D01*
X164405731Y-115009841D01*
X164405732Y-115009841D01*
X164405733Y-115009842D01*
X164541658Y-115060540D01*
X164601745Y-115067000D01*
X165598254Y-115066999D01*
X165598257Y-115066999D01*
X165624006Y-115064230D01*
X165658342Y-115060540D01*
X165794267Y-115009842D01*
X165910404Y-114922904D01*
X165910404Y-114922903D01*
X165913992Y-114920218D01*
X165978270Y-114895588D01*
X166045900Y-114908415D01*
X166096697Y-114954869D01*
X166115500Y-115021087D01*
X166115500Y-115403913D01*
X166096697Y-115470131D01*
X166045900Y-115516585D01*
X165978270Y-115529412D01*
X165913992Y-115504782D01*
X165794268Y-115415158D01*
X165658339Y-115364459D01*
X165598255Y-115358000D01*
X164601742Y-115358000D01*
X164541661Y-115364459D01*
X164405731Y-115415158D01*
X164289595Y-115502095D01*
X164202658Y-115618231D01*
X164151959Y-115754160D01*
X164145500Y-115814244D01*
X164145500Y-116435757D01*
X164151959Y-116495838D01*
X164202658Y-116631768D01*
X164289595Y-116747904D01*
X164405731Y-116834841D01*
X164405732Y-116834841D01*
X164405733Y-116834842D01*
X164513536Y-116875050D01*
X164556450Y-116901915D01*
X164585327Y-116943505D01*
X164595500Y-116993105D01*
X164595500Y-117239984D01*
X164585327Y-117289584D01*
X164556450Y-117331175D01*
X164513532Y-117358040D01*
X164402508Y-117399449D01*
X164287810Y-117485310D01*
X164201949Y-117600008D01*
X164151880Y-117734250D01*
X164145500Y-117793591D01*
X164145500Y-118376411D01*
X164151879Y-118435748D01*
X164201949Y-118569991D01*
X164287810Y-118684689D01*
X164402506Y-118770549D01*
X164402509Y-118770551D01*
X164410908Y-118773683D01*
X164461529Y-118808572D01*
X164489616Y-118863263D01*
X164488479Y-118924735D01*
X164458389Y-118978350D01*
X164406510Y-119011343D01*
X164327290Y-119037594D01*
X164179306Y-119128871D01*
X164056371Y-119251806D01*
X163965096Y-119399787D01*
X163910407Y-119564827D01*
X163900000Y-119666696D01*
X163900000Y-119710000D01*
X165224000Y-119710000D01*
X165287000Y-119726881D01*
X165333119Y-119773000D01*
X165350000Y-119836000D01*
X165350000Y-120084000D01*
X165333119Y-120147000D01*
X165287000Y-120193119D01*
X165224000Y-120210000D01*
X163900000Y-120210000D01*
X163900000Y-120253304D01*
X163910407Y-120355172D01*
X163953052Y-120483867D01*
X163957981Y-120542668D01*
X163935598Y-120597264D01*
X163890813Y-120635684D01*
X163833447Y-120649500D01*
X144747391Y-120649500D01*
X144680791Y-120630460D01*
X144634319Y-120579093D01*
X144622020Y-120510925D01*
X144647612Y-120446558D01*
X144684575Y-120419297D01*
X144683758Y-120418205D01*
X144698264Y-120407343D01*
X144698267Y-120407343D01*
X144702070Y-120404495D01*
X144725238Y-120390749D01*
X144729558Y-120388777D01*
X144767364Y-120356016D01*
X144774343Y-120350392D01*
X144785221Y-120342250D01*
X144794831Y-120332639D01*
X144801370Y-120326550D01*
X144839196Y-120293775D01*
X144841767Y-120289773D01*
X144858665Y-120268804D01*
X148978804Y-116148665D01*
X148999773Y-116131767D01*
X149003775Y-116129196D01*
X149036550Y-116091370D01*
X149042639Y-116084831D01*
X149052250Y-116075221D01*
X149060386Y-116064351D01*
X149066010Y-116057371D01*
X149098777Y-116019558D01*
X149100751Y-116015234D01*
X149114498Y-115992064D01*
X149117342Y-115988267D01*
X149134819Y-115941404D01*
X149138256Y-115933109D01*
X149159041Y-115887598D01*
X149159040Y-115887598D01*
X149159042Y-115887596D01*
X149159716Y-115882901D01*
X149166380Y-115856789D01*
X149168040Y-115852342D01*
X149171608Y-115802439D01*
X149172567Y-115793523D01*
X149174500Y-115780083D01*
X149174500Y-115766516D01*
X149174821Y-115757528D01*
X149175559Y-115747209D01*
X149178389Y-115707640D01*
X149177378Y-115702996D01*
X149174500Y-115676216D01*
X149174500Y-115669921D01*
X149186145Y-115617015D01*
X149218929Y-115573889D01*
X149294020Y-115510106D01*
X149332770Y-115459131D01*
X149406502Y-115362139D01*
X149484545Y-115193452D01*
X149524500Y-115011933D01*
X149524500Y-114965336D01*
X149815500Y-114965336D01*
X149830556Y-115103774D01*
X149889902Y-115279909D01*
X149961041Y-115398143D01*
X149985727Y-115439171D01*
X150071208Y-115529412D01*
X150113547Y-115574109D01*
X150267383Y-115678412D01*
X150267384Y-115678412D01*
X150267385Y-115678413D01*
X150440049Y-115747209D01*
X150530375Y-115762017D01*
X150623464Y-115777278D01*
X150623464Y-115777277D01*
X150623465Y-115777278D01*
X150809058Y-115767216D01*
X150988148Y-115717492D01*
X151152362Y-115630431D01*
X151294021Y-115510105D01*
X151406502Y-115362139D01*
X151484545Y-115193452D01*
X151524500Y-115011933D01*
X151524500Y-114965336D01*
X151815500Y-114965336D01*
X151830556Y-115103774D01*
X151889902Y-115279909D01*
X151961041Y-115398143D01*
X151985727Y-115439171D01*
X152071208Y-115529412D01*
X152113547Y-115574109D01*
X152267383Y-115678412D01*
X152267384Y-115678412D01*
X152267385Y-115678413D01*
X152440049Y-115747209D01*
X152530375Y-115762017D01*
X152623464Y-115777278D01*
X152623464Y-115777277D01*
X152623465Y-115777278D01*
X152809058Y-115767216D01*
X152988148Y-115717492D01*
X153152362Y-115630431D01*
X153294021Y-115510105D01*
X153406502Y-115362139D01*
X153484545Y-115193452D01*
X153524500Y-115011933D01*
X153524500Y-114965336D01*
X153815500Y-114965336D01*
X153830556Y-115103774D01*
X153889902Y-115279909D01*
X153961041Y-115398143D01*
X153985727Y-115439171D01*
X154071208Y-115529412D01*
X154113547Y-115574109D01*
X154267383Y-115678412D01*
X154267384Y-115678412D01*
X154267385Y-115678413D01*
X154440049Y-115747209D01*
X154530375Y-115762017D01*
X154623464Y-115777278D01*
X154623464Y-115777277D01*
X154623465Y-115777278D01*
X154809058Y-115767216D01*
X154988148Y-115717492D01*
X155152362Y-115630431D01*
X155294021Y-115510105D01*
X155406502Y-115362139D01*
X155484545Y-115193452D01*
X155524500Y-115011933D01*
X155524500Y-114965336D01*
X155815500Y-114965336D01*
X155830556Y-115103774D01*
X155889902Y-115279909D01*
X155961041Y-115398143D01*
X155985727Y-115439171D01*
X156071208Y-115529412D01*
X156113547Y-115574109D01*
X156267383Y-115678412D01*
X156267384Y-115678412D01*
X156267385Y-115678413D01*
X156440049Y-115747209D01*
X156530375Y-115762017D01*
X156623464Y-115777278D01*
X156623464Y-115777277D01*
X156623465Y-115777278D01*
X156809058Y-115767216D01*
X156988148Y-115717492D01*
X157152362Y-115630431D01*
X157294021Y-115510105D01*
X157378362Y-115399156D01*
X157431691Y-115358495D01*
X157498331Y-115350954D01*
X157559400Y-115378671D01*
X157597597Y-115433795D01*
X157644662Y-115568302D01*
X157740577Y-115720949D01*
X157868050Y-115848422D01*
X158020694Y-115944335D01*
X158190856Y-116003876D01*
X158325077Y-116019000D01*
X158420000Y-116019000D01*
X158420000Y-114894000D01*
X158920000Y-114894000D01*
X158920000Y-116019000D01*
X159014923Y-116019000D01*
X159149143Y-116003876D01*
X159319305Y-115944335D01*
X159471949Y-115848422D01*
X159599422Y-115720949D01*
X159695335Y-115568305D01*
X159754876Y-115398143D01*
X159770000Y-115263923D01*
X159770000Y-114894000D01*
X158920000Y-114894000D01*
X158420000Y-114894000D01*
X158420000Y-113269000D01*
X158920000Y-113269000D01*
X158920000Y-114394000D01*
X159770000Y-114394000D01*
X159770000Y-114024077D01*
X159754876Y-113889856D01*
X159695335Y-113719694D01*
X159599422Y-113567050D01*
X159471949Y-113439577D01*
X159319305Y-113343664D01*
X159149143Y-113284123D01*
X159014923Y-113269000D01*
X158920000Y-113269000D01*
X158420000Y-113269000D01*
X158325077Y-113269000D01*
X158190856Y-113284123D01*
X158020694Y-113343664D01*
X157868050Y-113439577D01*
X157740577Y-113567050D01*
X157644662Y-113719697D01*
X157597909Y-113853313D01*
X157557062Y-113910588D01*
X157491875Y-113937036D01*
X157422669Y-113924415D01*
X157371018Y-113876660D01*
X157354273Y-113848829D01*
X157226454Y-113713892D01*
X157226453Y-113713891D01*
X157226452Y-113713890D01*
X157072616Y-113609587D01*
X156899949Y-113540790D01*
X156716535Y-113510721D01*
X156530941Y-113520784D01*
X156351853Y-113570507D01*
X156187636Y-113657569D01*
X156045979Y-113777893D01*
X155933498Y-113925860D01*
X155855454Y-114094551D01*
X155815500Y-114276066D01*
X155815500Y-114965336D01*
X155524500Y-114965336D01*
X155524500Y-114322668D01*
X155509443Y-114184225D01*
X155450097Y-114008090D01*
X155371016Y-113876657D01*
X155354273Y-113848829D01*
X155226454Y-113713892D01*
X155226453Y-113713891D01*
X155226452Y-113713890D01*
X155072616Y-113609587D01*
X154899949Y-113540790D01*
X154716535Y-113510721D01*
X154530941Y-113520784D01*
X154351853Y-113570507D01*
X154187636Y-113657569D01*
X154045979Y-113777893D01*
X153933498Y-113925860D01*
X153855454Y-114094551D01*
X153815500Y-114276066D01*
X153815500Y-114965336D01*
X153524500Y-114965336D01*
X153524500Y-114322668D01*
X153509443Y-114184225D01*
X153450097Y-114008090D01*
X153371016Y-113876657D01*
X153354273Y-113848829D01*
X153226454Y-113713892D01*
X153226453Y-113713891D01*
X153226452Y-113713890D01*
X153072616Y-113609587D01*
X152899949Y-113540790D01*
X152716535Y-113510721D01*
X152530941Y-113520784D01*
X152351853Y-113570507D01*
X152187636Y-113657569D01*
X152045979Y-113777893D01*
X151933498Y-113925860D01*
X151855454Y-114094551D01*
X151815500Y-114276066D01*
X151815500Y-114965336D01*
X151524500Y-114965336D01*
X151524500Y-114322668D01*
X151509443Y-114184225D01*
X151450097Y-114008090D01*
X151371016Y-113876657D01*
X151354273Y-113848829D01*
X151226454Y-113713892D01*
X151226453Y-113713891D01*
X151226452Y-113713890D01*
X151072616Y-113609587D01*
X150899949Y-113540790D01*
X150716535Y-113510721D01*
X150530941Y-113520784D01*
X150351853Y-113570507D01*
X150187636Y-113657569D01*
X150045979Y-113777893D01*
X149933498Y-113925860D01*
X149855454Y-114094551D01*
X149815500Y-114276066D01*
X149815500Y-114965336D01*
X149524500Y-114965336D01*
X149524500Y-114322668D01*
X149509443Y-114184225D01*
X149450097Y-114008090D01*
X149371016Y-113876657D01*
X149354273Y-113848829D01*
X149262688Y-113752144D01*
X149231889Y-113695903D01*
X149232758Y-113631786D01*
X149265068Y-113576402D01*
X150794065Y-112047405D01*
X150834943Y-112020091D01*
X150883161Y-112010500D01*
X155126216Y-112010500D01*
X155152996Y-112013378D01*
X155157640Y-112014389D01*
X155207529Y-112010820D01*
X155216516Y-112010500D01*
X155230080Y-112010500D01*
X155230083Y-112010500D01*
X155243523Y-112008567D01*
X155252439Y-112007608D01*
X155302342Y-112004040D01*
X155306792Y-112002379D01*
X155332900Y-111995716D01*
X155337596Y-111995042D01*
X155383099Y-111974260D01*
X155391373Y-111970832D01*
X155438267Y-111953343D01*
X155442070Y-111950495D01*
X155465238Y-111936749D01*
X155469558Y-111934777D01*
X155507364Y-111902016D01*
X155514343Y-111896392D01*
X155525221Y-111888250D01*
X155534831Y-111878639D01*
X155541370Y-111872550D01*
X155579196Y-111839775D01*
X155581767Y-111835773D01*
X155598665Y-111814804D01*
X155978804Y-111434665D01*
X155999773Y-111417767D01*
X156003775Y-111415196D01*
X156036550Y-111377370D01*
X156042639Y-111370831D01*
X156052250Y-111361221D01*
X156060392Y-111350343D01*
X156066016Y-111343364D01*
X156098777Y-111305558D01*
X156100749Y-111301238D01*
X156114495Y-111278070D01*
X156117343Y-111274267D01*
X156134832Y-111227373D01*
X156138260Y-111219099D01*
X156159042Y-111173596D01*
X156159716Y-111168900D01*
X156166384Y-111142780D01*
X156167440Y-111139950D01*
X156168040Y-111138342D01*
X156171608Y-111088444D01*
X156172570Y-111079503D01*
X156174500Y-111066085D01*
X156174500Y-111052527D01*
X156174821Y-111043538D01*
X156177970Y-110999510D01*
X156197651Y-110940378D01*
X156243264Y-110897911D01*
X156303649Y-110882499D01*
X156718258Y-110882499D01*
X156748297Y-110879269D01*
X156778342Y-110876040D01*
X156914267Y-110825342D01*
X157030404Y-110738404D01*
X157117342Y-110622267D01*
X157168040Y-110486342D01*
X157174500Y-110426255D01*
X157174499Y-109029746D01*
X157168040Y-108969658D01*
X157117342Y-108833733D01*
X157117341Y-108833731D01*
X157030404Y-108717595D01*
X156914268Y-108630658D01*
X156778339Y-108579959D01*
X156718255Y-108573500D01*
X154621742Y-108573500D01*
X154561661Y-108579959D01*
X154425731Y-108630658D01*
X154309595Y-108717595D01*
X154222658Y-108833731D01*
X154171959Y-108969660D01*
X154165500Y-109029744D01*
X154165500Y-110426257D01*
X154171959Y-110486338D01*
X154222658Y-110622268D01*
X154309595Y-110738404D01*
X154357990Y-110774631D01*
X154397095Y-110823157D01*
X154408161Y-110884488D01*
X154388480Y-110943620D01*
X154342868Y-110986087D01*
X154282482Y-111001500D01*
X153057518Y-111001500D01*
X152997132Y-110986087D01*
X152951520Y-110943620D01*
X152931839Y-110884488D01*
X152942905Y-110823157D01*
X152982010Y-110774631D01*
X153030404Y-110738404D01*
X153056926Y-110702974D01*
X153117342Y-110622267D01*
X153168040Y-110486342D01*
X153174500Y-110426255D01*
X153174499Y-109029746D01*
X153168040Y-108969658D01*
X153117342Y-108833733D01*
X153117341Y-108833731D01*
X153030404Y-108717595D01*
X152914268Y-108630658D01*
X152778339Y-108579959D01*
X152718255Y-108573500D01*
X150621742Y-108573500D01*
X150561661Y-108579959D01*
X150425731Y-108630658D01*
X150309595Y-108717595D01*
X150222658Y-108833731D01*
X150171959Y-108969660D01*
X150165500Y-109029745D01*
X150165500Y-109097500D01*
X150148619Y-109160500D01*
X150102500Y-109206619D01*
X150039500Y-109223500D01*
X149725499Y-109223500D01*
X149662499Y-109206619D01*
X149616380Y-109160500D01*
X149599499Y-109097500D01*
X149599499Y-108604742D01*
X149594023Y-108553803D01*
X149593040Y-108544658D01*
X149542342Y-108408733D01*
X149540227Y-108405908D01*
X149537308Y-108402008D01*
X149512678Y-108337730D01*
X149525505Y-108270100D01*
X149571959Y-108219303D01*
X149638177Y-108200500D01*
X157654429Y-108200500D01*
X157714815Y-108215913D01*
G37*
%TD.AperFunction*%
%TA.AperFunction,Conductor*%
G36*
X143311040Y-103646233D02*
G01*
X143355773Y-103684439D01*
X143378286Y-103738790D01*
X143373670Y-103797436D01*
X143342932Y-103847596D01*
X143201191Y-103989336D01*
X143180223Y-104006234D01*
X143176225Y-104008803D01*
X143143469Y-104046605D01*
X143137347Y-104053181D01*
X143127748Y-104062780D01*
X143119612Y-104073648D01*
X143113976Y-104080642D01*
X143081222Y-104118442D01*
X143079246Y-104122770D01*
X143065511Y-104145918D01*
X143062657Y-104149730D01*
X143045172Y-104196607D01*
X143041733Y-104204911D01*
X143020957Y-104250405D01*
X143020281Y-104255110D01*
X143013624Y-104281194D01*
X143011960Y-104285654D01*
X143008391Y-104335548D01*
X143007431Y-104344477D01*
X143004219Y-104366830D01*
X143002019Y-104366513D01*
X142989577Y-104414423D01*
X142945831Y-104460238D01*
X142841539Y-104524813D01*
X142690267Y-104662716D01*
X142566910Y-104826066D01*
X142475672Y-105009297D01*
X142419654Y-105206180D01*
X142400767Y-105410000D01*
X142419654Y-105613819D01*
X142475672Y-105810702D01*
X142566910Y-105993933D01*
X142627314Y-106073920D01*
X142690268Y-106157285D01*
X142841538Y-106295186D01*
X142945832Y-106359762D01*
X142989576Y-106405576D01*
X143005500Y-106466888D01*
X143005500Y-108288616D01*
X143002621Y-108315397D01*
X143001611Y-108320039D01*
X143005179Y-108369928D01*
X143005500Y-108378916D01*
X143005500Y-108392487D01*
X143007429Y-108405908D01*
X143008390Y-108414841D01*
X143011960Y-108464742D01*
X143013621Y-108469195D01*
X143020282Y-108495295D01*
X143020957Y-108499995D01*
X143041736Y-108545495D01*
X143045170Y-108553785D01*
X143054933Y-108579959D01*
X143062657Y-108600668D01*
X143065503Y-108604469D01*
X143079244Y-108627627D01*
X143081220Y-108631955D01*
X143081223Y-108631958D01*
X143113976Y-108669757D01*
X143119608Y-108676746D01*
X143127749Y-108687620D01*
X143137335Y-108697206D01*
X143143464Y-108703788D01*
X143176225Y-108741596D01*
X143180223Y-108744165D01*
X143201197Y-108761068D01*
X144476932Y-110036803D01*
X144493830Y-110057770D01*
X144496404Y-110061775D01*
X144534219Y-110094542D01*
X144540773Y-110100644D01*
X144550379Y-110110250D01*
X144561248Y-110118387D01*
X144568227Y-110124011D01*
X144606042Y-110156777D01*
X144610366Y-110158751D01*
X144633531Y-110172496D01*
X144637332Y-110175342D01*
X144684184Y-110192816D01*
X144692499Y-110196259D01*
X144738004Y-110217042D01*
X144742699Y-110217716D01*
X144768805Y-110224379D01*
X144773258Y-110226040D01*
X144823154Y-110229608D01*
X144832084Y-110230569D01*
X144845514Y-110232500D01*
X144845517Y-110232500D01*
X144859084Y-110232500D01*
X144868070Y-110232820D01*
X144917960Y-110236389D01*
X144917961Y-110236388D01*
X144923489Y-110236784D01*
X144982621Y-110256465D01*
X145025088Y-110302077D01*
X145040501Y-110362463D01*
X145040501Y-110851258D01*
X145046959Y-110911338D01*
X145097658Y-111047268D01*
X145184595Y-111163404D01*
X145300731Y-111250341D01*
X145300732Y-111250341D01*
X145300733Y-111250342D01*
X145436658Y-111301040D01*
X145496745Y-111307500D01*
X146343254Y-111307499D01*
X146343257Y-111307499D01*
X146369005Y-111304730D01*
X146403342Y-111301040D01*
X146539267Y-111250342D01*
X146655404Y-111163404D01*
X146742342Y-111047267D01*
X146793040Y-110911342D01*
X146799500Y-110851255D01*
X146799499Y-108604746D01*
X146799469Y-108604469D01*
X146794023Y-108553803D01*
X146793040Y-108544658D01*
X146742342Y-108408733D01*
X146740227Y-108405908D01*
X146737308Y-108402008D01*
X146712678Y-108337730D01*
X146725505Y-108270100D01*
X146771959Y-108219303D01*
X146838177Y-108200500D01*
X147801823Y-108200500D01*
X147868041Y-108219303D01*
X147914495Y-108270100D01*
X147927322Y-108337730D01*
X147902692Y-108402008D01*
X147897658Y-108408731D01*
X147846959Y-108544660D01*
X147840500Y-108604744D01*
X147840500Y-110851257D01*
X147846959Y-110911338D01*
X147897658Y-111047268D01*
X147984595Y-111163404D01*
X148100731Y-111250341D01*
X148100732Y-111250341D01*
X148100733Y-111250342D01*
X148236658Y-111301040D01*
X148296745Y-111307500D01*
X149143254Y-111307499D01*
X149143257Y-111307499D01*
X149169005Y-111304730D01*
X149203342Y-111301040D01*
X149339267Y-111250342D01*
X149455404Y-111163404D01*
X149542342Y-111047267D01*
X149593040Y-110911342D01*
X149599500Y-110851255D01*
X149599500Y-110358500D01*
X149616381Y-110295500D01*
X149662500Y-110249381D01*
X149725500Y-110232500D01*
X150039501Y-110232500D01*
X150102501Y-110249381D01*
X150148620Y-110295500D01*
X150165501Y-110358500D01*
X150165501Y-110426258D01*
X150171959Y-110486338D01*
X150222658Y-110622268D01*
X150309595Y-110738404D01*
X150433068Y-110830833D01*
X150473968Y-110883483D01*
X150482278Y-110949632D01*
X150455670Y-111010762D01*
X150401596Y-111049756D01*
X150394168Y-111052527D01*
X150377728Y-111058659D01*
X150373918Y-111061511D01*
X150350770Y-111075246D01*
X150346442Y-111077222D01*
X150308642Y-111109976D01*
X150301648Y-111115612D01*
X150290780Y-111123748D01*
X150281181Y-111133347D01*
X150274605Y-111139469D01*
X150236804Y-111172224D01*
X150234232Y-111176227D01*
X150217333Y-111197194D01*
X148361194Y-113053333D01*
X148340227Y-113070232D01*
X148336224Y-113072804D01*
X148303469Y-113110605D01*
X148297347Y-113117181D01*
X148287748Y-113126780D01*
X148279612Y-113137648D01*
X148273976Y-113144642D01*
X148241222Y-113182442D01*
X148239246Y-113186770D01*
X148225511Y-113209918D01*
X148222657Y-113213730D01*
X148205172Y-113260607D01*
X148201733Y-113268911D01*
X148180957Y-113314405D01*
X148180281Y-113319110D01*
X148173624Y-113345194D01*
X148171960Y-113349654D01*
X148168391Y-113399548D01*
X148167431Y-113408477D01*
X148165500Y-113421915D01*
X148165500Y-113435484D01*
X148165179Y-113444472D01*
X148161611Y-113494360D01*
X148162621Y-113499003D01*
X148165500Y-113525784D01*
X148165500Y-113618079D01*
X148153855Y-113670985D01*
X148121071Y-113714111D01*
X148045979Y-113777893D01*
X147933498Y-113925860D01*
X147855454Y-114094551D01*
X147815500Y-114276066D01*
X147815500Y-114965336D01*
X147830556Y-115103774D01*
X147889902Y-115279909D01*
X147940775Y-115364460D01*
X147982492Y-115433795D01*
X147985728Y-115439172D01*
X148035474Y-115491688D01*
X148066275Y-115547929D01*
X148065406Y-115612047D01*
X148033094Y-115667433D01*
X144281934Y-119418595D01*
X144241057Y-119445909D01*
X144192839Y-119455500D01*
X143186518Y-119455500D01*
X143130118Y-119442172D01*
X143085650Y-119405009D01*
X143052189Y-119360310D01*
X142937491Y-119274449D01*
X142876782Y-119251806D01*
X142803250Y-119224380D01*
X142743908Y-119218000D01*
X141736088Y-119218000D01*
X141676751Y-119224379D01*
X141542508Y-119274449D01*
X141426009Y-119361659D01*
X141361730Y-119386290D01*
X141294100Y-119373463D01*
X141243303Y-119327009D01*
X141224500Y-119260791D01*
X141224500Y-118784209D01*
X141243303Y-118717991D01*
X141294100Y-118671537D01*
X141361730Y-118658710D01*
X141426009Y-118683341D01*
X141472297Y-118717991D01*
X141542509Y-118770551D01*
X141676750Y-118820620D01*
X141736091Y-118827000D01*
X142743908Y-118826999D01*
X142743911Y-118826999D01*
X142779513Y-118823171D01*
X142803250Y-118820620D01*
X142937491Y-118770551D01*
X143052189Y-118684689D01*
X143138051Y-118569991D01*
X143188120Y-118435750D01*
X143194500Y-118376409D01*
X143194499Y-117793592D01*
X143188120Y-117734250D01*
X143138051Y-117600009D01*
X143071637Y-117511290D01*
X143052189Y-117485310D01*
X142937491Y-117399449D01*
X142826468Y-117358040D01*
X142783550Y-117331175D01*
X142754673Y-117289584D01*
X142744500Y-117239984D01*
X142744500Y-116993106D01*
X142754673Y-116943506D01*
X142783550Y-116901916D01*
X142826467Y-116875051D01*
X142934265Y-116834843D01*
X142934265Y-116834842D01*
X142934267Y-116834842D01*
X143050404Y-116747904D01*
X143137342Y-116631767D01*
X143188040Y-116495842D01*
X143194500Y-116435755D01*
X143194499Y-115814246D01*
X143188040Y-115754158D01*
X143137342Y-115618233D01*
X143137341Y-115618231D01*
X143050404Y-115502095D01*
X142993009Y-115459131D01*
X142954606Y-115412116D01*
X142942644Y-115352600D01*
X142959901Y-115294398D01*
X143002371Y-115251021D01*
X143158346Y-115154815D01*
X143282314Y-115030847D01*
X143374359Y-114881619D01*
X143429505Y-114715199D01*
X143440000Y-114612475D01*
X143440000Y-114550000D01*
X142116000Y-114550000D01*
X142053000Y-114533119D01*
X142006881Y-114487000D01*
X141990000Y-114424000D01*
X141990000Y-113287501D01*
X141740026Y-113287501D01*
X141637300Y-113297994D01*
X141470881Y-113353140D01*
X141416647Y-113386593D01*
X141353249Y-113405322D01*
X141289094Y-113389376D01*
X141241842Y-113343144D01*
X141226715Y-113287500D01*
X142490000Y-113287500D01*
X142490000Y-114050000D01*
X143439999Y-114050000D01*
X143439999Y-113987526D01*
X143429505Y-113884800D01*
X143374359Y-113718380D01*
X143282314Y-113569152D01*
X143158347Y-113445185D01*
X143009119Y-113353140D01*
X142842699Y-113297994D01*
X142739975Y-113287500D01*
X142490000Y-113287500D01*
X141226715Y-113287500D01*
X141224500Y-113279352D01*
X141224500Y-104400187D01*
X141225107Y-104387838D01*
X141228054Y-104357917D01*
X141237916Y-104257782D01*
X141242731Y-104233572D01*
X141278865Y-104114455D01*
X141288315Y-104091644D01*
X141294196Y-104080642D01*
X141346989Y-103981871D01*
X141360701Y-103961349D01*
X141439670Y-103865124D01*
X141457124Y-103847670D01*
X141553349Y-103768701D01*
X141573871Y-103754989D01*
X141683644Y-103696314D01*
X141706455Y-103686865D01*
X141825572Y-103650731D01*
X141849782Y-103645916D01*
X141962756Y-103634789D01*
X141979838Y-103633107D01*
X141992187Y-103632500D01*
X142030875Y-103632500D01*
X143253837Y-103632500D01*
X143311040Y-103646233D01*
G37*
%TD.AperFunction*%
%TA.AperFunction,Conductor*%
G36*
X160280162Y-81281106D02*
G01*
X160410217Y-81293916D01*
X160434429Y-81298732D01*
X160553540Y-81334864D01*
X160576355Y-81344315D01*
X160686124Y-81402987D01*
X160706655Y-81416704D01*
X160802869Y-81495665D01*
X160820333Y-81513129D01*
X160899293Y-81609342D01*
X160913012Y-81629875D01*
X160971684Y-81739644D01*
X160981136Y-81762462D01*
X161017265Y-81881561D01*
X161022084Y-81905788D01*
X161034893Y-82035837D01*
X161035500Y-82048187D01*
X161035500Y-92430933D01*
X161035500Y-102317125D01*
X161035500Y-102362000D01*
X161035500Y-102461991D01*
X161066784Y-102659510D01*
X161066785Y-102659512D01*
X161128579Y-102849700D01*
X161219371Y-103027889D01*
X161336919Y-103189678D01*
X161478321Y-103331080D01*
X161640110Y-103448628D01*
X161818299Y-103539420D01*
X161850859Y-103549999D01*
X162008490Y-103601216D01*
X162206009Y-103632500D01*
X162280933Y-103632500D01*
X162306000Y-103632500D01*
X162350875Y-103632500D01*
X165309125Y-103632500D01*
X165347813Y-103632500D01*
X165360162Y-103633106D01*
X165490217Y-103645916D01*
X165514429Y-103650732D01*
X165633540Y-103686864D01*
X165656355Y-103696315D01*
X165766124Y-103754987D01*
X165786655Y-103768704D01*
X165882785Y-103847596D01*
X165882869Y-103847665D01*
X165900333Y-103865129D01*
X165979293Y-103961342D01*
X165993012Y-103981875D01*
X166051684Y-104091644D01*
X166061136Y-104114462D01*
X166097265Y-104233561D01*
X166102084Y-104257788D01*
X166114893Y-104387837D01*
X166115500Y-104400187D01*
X166115500Y-113578913D01*
X166096697Y-113645131D01*
X166045900Y-113691585D01*
X165978270Y-113704412D01*
X165913992Y-113679782D01*
X165794268Y-113590158D01*
X165691207Y-113551718D01*
X165658342Y-113539460D01*
X165658341Y-113539459D01*
X165658339Y-113539459D01*
X165598255Y-113533000D01*
X164601742Y-113533000D01*
X164541661Y-113539459D01*
X164541658Y-113539459D01*
X164541658Y-113539460D01*
X164522966Y-113546431D01*
X164405731Y-113590158D01*
X164289595Y-113677095D01*
X164238758Y-113745008D01*
X164194289Y-113782172D01*
X164137889Y-113795500D01*
X161805161Y-113795500D01*
X161756943Y-113785909D01*
X161716066Y-113758595D01*
X159195506Y-111238035D01*
X159166545Y-111192972D01*
X159158922Y-111139950D01*
X159174014Y-111088553D01*
X159209094Y-111048071D01*
X159255403Y-111013405D01*
X159303142Y-110949632D01*
X159342342Y-110897267D01*
X159393040Y-110761342D01*
X159399500Y-110701255D01*
X159399499Y-109978000D01*
X160395001Y-109978000D01*
X160395001Y-110702974D01*
X160405494Y-110805699D01*
X160460640Y-110972119D01*
X160552685Y-111121347D01*
X160676652Y-111245314D01*
X160825880Y-111337359D01*
X160992300Y-111392505D01*
X161095025Y-111403000D01*
X161307500Y-111403000D01*
X161307500Y-109978000D01*
X161807500Y-109978000D01*
X161807500Y-111402999D01*
X162019974Y-111402999D01*
X162122699Y-111392505D01*
X162289119Y-111337359D01*
X162438347Y-111245314D01*
X162562314Y-111121347D01*
X162654359Y-110972119D01*
X162709505Y-110805699D01*
X162720000Y-110702975D01*
X162720000Y-109978000D01*
X161807500Y-109978000D01*
X161307500Y-109978000D01*
X160395001Y-109978000D01*
X159399499Y-109978000D01*
X159399499Y-109478000D01*
X160395000Y-109478000D01*
X161307500Y-109478000D01*
X161307500Y-108053001D01*
X161095026Y-108053001D01*
X160992300Y-108063494D01*
X160825880Y-108118640D01*
X160676652Y-108210685D01*
X160552685Y-108334652D01*
X160460640Y-108483880D01*
X160405494Y-108650300D01*
X160395000Y-108753025D01*
X160395000Y-109478000D01*
X159399499Y-109478000D01*
X159399499Y-108754746D01*
X159399314Y-108753026D01*
X159394021Y-108703788D01*
X159393040Y-108694658D01*
X159342342Y-108558733D01*
X159342341Y-108558731D01*
X159255404Y-108442595D01*
X159139268Y-108355658D01*
X159107017Y-108343629D01*
X159072154Y-108330625D01*
X159031433Y-108305804D01*
X159002853Y-108267625D01*
X158990511Y-108221561D01*
X158987321Y-108176960D01*
X158987000Y-108167973D01*
X158987000Y-108154416D01*
X158985070Y-108140998D01*
X158984108Y-108132060D01*
X158980540Y-108082158D01*
X158978882Y-108077713D01*
X158972574Y-108053000D01*
X161807500Y-108053000D01*
X161807500Y-109478000D01*
X162719999Y-109478000D01*
X162719999Y-108753026D01*
X162709505Y-108650300D01*
X162654359Y-108483880D01*
X162562314Y-108334652D01*
X162438347Y-108210685D01*
X162289119Y-108118640D01*
X162122699Y-108063494D01*
X162019975Y-108053000D01*
X161807500Y-108053000D01*
X158972574Y-108053000D01*
X158972216Y-108051596D01*
X158971542Y-108046904D01*
X158950757Y-108001392D01*
X158947321Y-107993095D01*
X158929843Y-107946233D01*
X158926992Y-107942424D01*
X158913248Y-107919258D01*
X158911277Y-107914942D01*
X158878511Y-107877128D01*
X158872884Y-107870145D01*
X158864750Y-107859279D01*
X158855144Y-107849673D01*
X158849042Y-107843119D01*
X158816275Y-107805304D01*
X158812270Y-107802730D01*
X158791303Y-107785832D01*
X158392668Y-107387197D01*
X158375765Y-107366223D01*
X158373196Y-107362225D01*
X158335388Y-107329464D01*
X158328806Y-107323335D01*
X158319220Y-107313749D01*
X158308346Y-107305608D01*
X158301357Y-107299976D01*
X158263558Y-107267223D01*
X158263555Y-107267220D01*
X158259227Y-107265244D01*
X158236069Y-107251503D01*
X158232268Y-107248657D01*
X158216482Y-107242769D01*
X158185385Y-107231170D01*
X158177095Y-107227736D01*
X158131595Y-107206957D01*
X158126895Y-107206282D01*
X158100795Y-107199621D01*
X158096342Y-107197960D01*
X158046441Y-107194390D01*
X158037508Y-107193429D01*
X158024087Y-107191500D01*
X158024083Y-107191500D01*
X158010516Y-107191500D01*
X158001529Y-107191179D01*
X157951640Y-107187611D01*
X157951639Y-107187611D01*
X157946997Y-107188621D01*
X157920216Y-107191500D01*
X146371784Y-107191500D01*
X146345003Y-107188621D01*
X146340360Y-107187611D01*
X146290470Y-107191179D01*
X146281484Y-107191500D01*
X146267915Y-107191500D01*
X146254477Y-107193431D01*
X146245548Y-107194391D01*
X146195654Y-107197960D01*
X146191194Y-107199624D01*
X146165110Y-107206281D01*
X146160405Y-107206957D01*
X146114911Y-107227733D01*
X146106607Y-107231172D01*
X146059730Y-107248657D01*
X146055918Y-107251511D01*
X146032770Y-107265246D01*
X146028442Y-107267222D01*
X145990642Y-107299976D01*
X145983648Y-107305612D01*
X145972780Y-107313748D01*
X145963181Y-107323347D01*
X145956605Y-107329469D01*
X145918804Y-107362224D01*
X145916688Y-107365517D01*
X145916235Y-107366223D01*
X145916232Y-107366227D01*
X145899333Y-107387194D01*
X145611194Y-107675333D01*
X145590227Y-107692232D01*
X145586224Y-107694804D01*
X145553469Y-107732605D01*
X145547347Y-107739181D01*
X145537748Y-107748780D01*
X145529612Y-107759648D01*
X145523976Y-107766642D01*
X145491222Y-107804442D01*
X145489246Y-107808770D01*
X145475511Y-107831918D01*
X145472657Y-107835730D01*
X145455172Y-107882607D01*
X145451733Y-107890911D01*
X145430957Y-107936405D01*
X145430281Y-107941110D01*
X145423624Y-107967194D01*
X145421960Y-107971654D01*
X145418391Y-108021548D01*
X145417431Y-108030477D01*
X145415500Y-108043915D01*
X145415500Y-108057484D01*
X145415179Y-108066463D01*
X145414380Y-108077639D01*
X145413864Y-108084853D01*
X145389052Y-108151368D01*
X145332220Y-108193913D01*
X145300733Y-108205657D01*
X145184595Y-108292595D01*
X145097658Y-108408731D01*
X145046959Y-108544660D01*
X145040500Y-108604745D01*
X145040500Y-108869239D01*
X145026767Y-108926442D01*
X144988561Y-108971175D01*
X144934211Y-108993688D01*
X144875564Y-108989072D01*
X144825405Y-108958334D01*
X144051405Y-108184334D01*
X144024091Y-108143457D01*
X144014500Y-108095239D01*
X144014500Y-106466888D01*
X144030424Y-106405576D01*
X144074167Y-106359762D01*
X144178462Y-106295186D01*
X144329732Y-106157285D01*
X144453088Y-105993935D01*
X144453089Y-105993933D01*
X144461210Y-105977625D01*
X144505702Y-105927904D01*
X144569344Y-105907874D01*
X144634293Y-105923150D01*
X144682335Y-105969449D01*
X144700000Y-106033788D01*
X144700000Y-106307828D01*
X144706402Y-106367375D01*
X144756646Y-106502088D01*
X144842810Y-106617189D01*
X144957911Y-106703353D01*
X145092624Y-106753597D01*
X145152172Y-106760000D01*
X145800000Y-106760000D01*
X145800000Y-105286000D01*
X145816881Y-105223000D01*
X145863000Y-105176881D01*
X145926000Y-105160000D01*
X146174000Y-105160000D01*
X146237000Y-105176881D01*
X146283119Y-105223000D01*
X146300000Y-105286000D01*
X146300000Y-106760000D01*
X146947828Y-106760000D01*
X147007375Y-106753597D01*
X147142088Y-106703353D01*
X147257189Y-106617189D01*
X147343353Y-106502088D01*
X147393597Y-106367375D01*
X147400000Y-106307828D01*
X147400000Y-106033788D01*
X147417665Y-105969449D01*
X147465707Y-105923150D01*
X147530656Y-105907874D01*
X147594298Y-105927904D01*
X147638790Y-105977625D01*
X147646910Y-105993933D01*
X147707314Y-106073920D01*
X147770268Y-106157285D01*
X147921538Y-106295186D01*
X148095573Y-106402944D01*
X148286444Y-106476888D01*
X148487653Y-106514500D01*
X148692345Y-106514500D01*
X148692347Y-106514500D01*
X148893556Y-106476888D01*
X149084427Y-106402944D01*
X149258462Y-106295186D01*
X149409732Y-106157285D01*
X149533088Y-105993935D01*
X149624328Y-105810701D01*
X149680345Y-105613821D01*
X149699232Y-105410000D01*
X149680345Y-105206179D01*
X149624328Y-105009299D01*
X149623585Y-105007807D01*
X149533089Y-104826066D01*
X149502886Y-104786072D01*
X149409732Y-104662715D01*
X149258462Y-104524814D01*
X149205469Y-104492002D01*
X149084428Y-104417056D01*
X148969500Y-104372533D01*
X148893556Y-104343112D01*
X148692347Y-104305500D01*
X148680160Y-104305500D01*
X148622957Y-104291767D01*
X148578224Y-104253561D01*
X148555711Y-104199211D01*
X148560327Y-104140564D01*
X148591062Y-104090407D01*
X148898808Y-103782661D01*
X148919773Y-103765767D01*
X148923775Y-103763196D01*
X148956550Y-103725370D01*
X148962639Y-103718831D01*
X148972250Y-103709221D01*
X148980392Y-103698343D01*
X148986013Y-103691368D01*
X149018777Y-103653558D01*
X149020749Y-103649239D01*
X149034498Y-103626065D01*
X149037342Y-103622268D01*
X149054826Y-103575387D01*
X149058261Y-103567097D01*
X149058614Y-103566325D01*
X149079042Y-103521596D01*
X149079717Y-103516893D01*
X149086378Y-103490797D01*
X149088040Y-103486343D01*
X149091608Y-103436443D01*
X149092570Y-103427502D01*
X149094500Y-103414082D01*
X149094500Y-103400516D01*
X149094821Y-103391534D01*
X149095538Y-103381500D01*
X149096283Y-103371074D01*
X149108625Y-103325009D01*
X149137205Y-103286828D01*
X149177926Y-103262005D01*
X149284267Y-103222342D01*
X149400404Y-103135404D01*
X149487342Y-103019267D01*
X149538040Y-102883342D01*
X149544500Y-102823255D01*
X149544499Y-102201746D01*
X149538040Y-102141658D01*
X149487342Y-102005733D01*
X149468738Y-101980880D01*
X149400404Y-101889595D01*
X149284268Y-101802658D01*
X149148339Y-101751959D01*
X149088255Y-101745500D01*
X148091742Y-101745500D01*
X148031661Y-101751959D01*
X147895731Y-101802658D01*
X147779595Y-101889595D01*
X147692658Y-102005731D01*
X147641959Y-102141660D01*
X147635500Y-102201744D01*
X147635500Y-102823257D01*
X147641959Y-102883338D01*
X147692658Y-103019268D01*
X147779595Y-103135404D01*
X147805280Y-103154631D01*
X147844385Y-103203157D01*
X147855451Y-103264488D01*
X147835770Y-103323620D01*
X147790157Y-103366087D01*
X147729772Y-103381500D01*
X146111003Y-103381500D01*
X146045168Y-103362933D01*
X145998736Y-103312703D01*
X145985391Y-103245614D01*
X146009067Y-103181439D01*
X146120628Y-103027889D01*
X146137302Y-102995164D01*
X146211419Y-102849703D01*
X146273216Y-102659510D01*
X146304500Y-102461991D01*
X146304500Y-102362000D01*
X146304500Y-102317125D01*
X146304500Y-100998257D01*
X147635500Y-100998257D01*
X147641959Y-101058338D01*
X147692658Y-101194268D01*
X147779595Y-101310404D01*
X147895731Y-101397341D01*
X147895732Y-101397341D01*
X147895733Y-101397342D01*
X148031658Y-101448040D01*
X148091745Y-101454500D01*
X149088254Y-101454499D01*
X149088257Y-101454499D01*
X149114005Y-101451730D01*
X149148342Y-101448040D01*
X149284267Y-101397342D01*
X149400404Y-101310404D01*
X149487342Y-101194267D01*
X149538040Y-101058342D01*
X149544500Y-100998255D01*
X149544500Y-100949974D01*
X149905001Y-100949974D01*
X149915494Y-101052699D01*
X149970640Y-101219119D01*
X150062685Y-101368347D01*
X150186652Y-101492314D01*
X150335880Y-101584359D01*
X150416688Y-101611136D01*
X150468567Y-101644128D01*
X150498658Y-101697743D01*
X150499796Y-101759213D01*
X150471710Y-101813905D01*
X150421088Y-101848795D01*
X150410734Y-101852656D01*
X150294595Y-101939595D01*
X150207658Y-102055731D01*
X150156959Y-102191660D01*
X150150500Y-102251744D01*
X150150500Y-102848257D01*
X150156959Y-102908338D01*
X150207658Y-103044268D01*
X150294595Y-103160404D01*
X150410731Y-103247341D01*
X150410732Y-103247341D01*
X150410733Y-103247342D01*
X150546658Y-103298040D01*
X150606745Y-103304500D01*
X150624500Y-103304500D01*
X150687500Y-103321381D01*
X150733619Y-103367500D01*
X150750500Y-103430500D01*
X150750500Y-104286221D01*
X150740534Y-104335334D01*
X150712213Y-104376678D01*
X150670017Y-104403712D01*
X150662908Y-104406466D01*
X150635570Y-104417056D01*
X150461539Y-104524813D01*
X150310267Y-104662716D01*
X150186910Y-104826066D01*
X150095672Y-105009297D01*
X150039654Y-105206180D01*
X150020767Y-105409999D01*
X150039654Y-105613819D01*
X150095672Y-105810702D01*
X150186910Y-105993933D01*
X150247314Y-106073920D01*
X150310268Y-106157285D01*
X150461538Y-106295186D01*
X150635573Y-106402944D01*
X150826444Y-106476888D01*
X151027653Y-106514500D01*
X151232345Y-106514500D01*
X151232347Y-106514500D01*
X151433556Y-106476888D01*
X151624427Y-106402944D01*
X151798462Y-106295186D01*
X151949732Y-106157285D01*
X152073088Y-105993935D01*
X152164328Y-105810701D01*
X152220345Y-105613821D01*
X152239232Y-105410000D01*
X152220345Y-105206179D01*
X152164328Y-105009299D01*
X152163585Y-105007807D01*
X152073089Y-104826066D01*
X152042886Y-104786072D01*
X151949732Y-104662715D01*
X151798462Y-104524814D01*
X151770370Y-104507420D01*
X151624429Y-104417056D01*
X151599453Y-104407381D01*
X151589982Y-104403712D01*
X151547787Y-104376678D01*
X151519466Y-104335334D01*
X151509500Y-104286221D01*
X151509500Y-103430499D01*
X151526381Y-103367499D01*
X151572500Y-103321380D01*
X151635500Y-103304499D01*
X151653258Y-103304499D01*
X151683297Y-103301269D01*
X151713342Y-103298040D01*
X151849267Y-103247342D01*
X151965404Y-103160404D01*
X152052342Y-103044267D01*
X152103040Y-102908342D01*
X152109500Y-102848255D01*
X152109499Y-102251746D01*
X152109314Y-102250026D01*
X152103040Y-102191661D01*
X152103040Y-102191660D01*
X152103040Y-102191658D01*
X152052342Y-102055733D01*
X152052341Y-102055731D01*
X151965404Y-101939595D01*
X151849267Y-101852658D01*
X151849262Y-101852656D01*
X151838911Y-101848795D01*
X151788290Y-101813906D01*
X151760204Y-101759214D01*
X151761341Y-101697743D01*
X151791432Y-101644128D01*
X151843311Y-101611135D01*
X151924122Y-101584356D01*
X152073347Y-101492314D01*
X152197314Y-101368347D01*
X152292759Y-101213607D01*
X152338593Y-101169730D01*
X152400000Y-101153754D01*
X152461407Y-101169730D01*
X152507241Y-101213607D01*
X152602685Y-101368347D01*
X152726652Y-101492314D01*
X152875880Y-101584359D01*
X152956688Y-101611136D01*
X153008567Y-101644128D01*
X153038658Y-101697743D01*
X153039796Y-101759213D01*
X153011710Y-101813905D01*
X152961088Y-101848795D01*
X152950734Y-101852656D01*
X152834595Y-101939595D01*
X152747658Y-102055731D01*
X152696959Y-102191660D01*
X152690500Y-102251744D01*
X152690500Y-102848257D01*
X152696959Y-102908338D01*
X152747658Y-103044268D01*
X152834595Y-103160404D01*
X152950731Y-103247341D01*
X152950732Y-103247341D01*
X152950733Y-103247342D01*
X153086658Y-103298040D01*
X153146745Y-103304500D01*
X153164500Y-103304500D01*
X153227500Y-103321381D01*
X153273619Y-103367500D01*
X153290500Y-103430500D01*
X153290500Y-104286221D01*
X153280534Y-104335334D01*
X153252213Y-104376678D01*
X153210017Y-104403712D01*
X153202908Y-104406466D01*
X153175570Y-104417056D01*
X153001539Y-104524813D01*
X152850267Y-104662716D01*
X152726910Y-104826066D01*
X152635672Y-105009297D01*
X152579654Y-105206180D01*
X152560767Y-105409999D01*
X152579654Y-105613819D01*
X152635672Y-105810702D01*
X152726910Y-105993933D01*
X152787314Y-106073920D01*
X152850268Y-106157285D01*
X153001538Y-106295186D01*
X153175573Y-106402944D01*
X153366444Y-106476888D01*
X153567653Y-106514500D01*
X153772345Y-106514500D01*
X153772347Y-106514500D01*
X153973556Y-106476888D01*
X154164427Y-106402944D01*
X154338462Y-106295186D01*
X154489732Y-106157285D01*
X154613088Y-105993935D01*
X154704328Y-105810701D01*
X154760345Y-105613821D01*
X154779232Y-105410000D01*
X154760345Y-105206179D01*
X154704328Y-105009299D01*
X154703585Y-105007807D01*
X154613089Y-104826066D01*
X154582886Y-104786072D01*
X154489732Y-104662715D01*
X154338462Y-104524814D01*
X154310370Y-104507420D01*
X154164429Y-104417056D01*
X154139453Y-104407381D01*
X154129982Y-104403712D01*
X154087787Y-104376678D01*
X154059466Y-104335334D01*
X154049500Y-104286221D01*
X154049500Y-103430499D01*
X154066381Y-103367499D01*
X154112500Y-103321380D01*
X154175500Y-103304499D01*
X154193258Y-103304499D01*
X154223297Y-103301269D01*
X154253342Y-103298040D01*
X154389267Y-103247342D01*
X154505404Y-103160404D01*
X154592342Y-103044267D01*
X154643040Y-102908342D01*
X154649500Y-102848255D01*
X154649499Y-102251746D01*
X154649314Y-102250026D01*
X154643040Y-102191661D01*
X154643040Y-102191660D01*
X154643040Y-102191658D01*
X154592342Y-102055733D01*
X154592341Y-102055731D01*
X154505404Y-101939595D01*
X154389267Y-101852658D01*
X154389262Y-101852656D01*
X154378911Y-101848795D01*
X154328290Y-101813906D01*
X154300204Y-101759214D01*
X154301341Y-101697743D01*
X154331432Y-101644128D01*
X154383311Y-101611135D01*
X154464122Y-101584356D01*
X154613347Y-101492314D01*
X154737314Y-101368347D01*
X154832759Y-101213607D01*
X154878593Y-101169730D01*
X154940000Y-101153754D01*
X155001407Y-101169730D01*
X155047241Y-101213607D01*
X155142685Y-101368347D01*
X155266652Y-101492314D01*
X155415880Y-101584359D01*
X155496688Y-101611136D01*
X155548567Y-101644128D01*
X155578658Y-101697743D01*
X155579796Y-101759213D01*
X155551710Y-101813905D01*
X155501088Y-101848795D01*
X155490734Y-101852656D01*
X155374595Y-101939595D01*
X155287658Y-102055731D01*
X155236959Y-102191660D01*
X155230500Y-102251744D01*
X155230500Y-102848257D01*
X155236959Y-102908338D01*
X155287658Y-103044268D01*
X155374595Y-103160404D01*
X155490731Y-103247341D01*
X155490732Y-103247341D01*
X155490733Y-103247342D01*
X155626658Y-103298040D01*
X155686745Y-103304500D01*
X155704500Y-103304500D01*
X155767500Y-103321381D01*
X155813619Y-103367500D01*
X155830500Y-103430500D01*
X155830500Y-104286221D01*
X155820534Y-104335334D01*
X155792213Y-104376678D01*
X155750017Y-104403712D01*
X155742908Y-104406466D01*
X155715570Y-104417056D01*
X155541539Y-104524813D01*
X155390267Y-104662716D01*
X155266910Y-104826066D01*
X155175672Y-105009297D01*
X155119654Y-105206180D01*
X155100767Y-105409999D01*
X155119654Y-105613819D01*
X155175672Y-105810702D01*
X155266910Y-105993933D01*
X155327314Y-106073920D01*
X155390268Y-106157285D01*
X155541538Y-106295186D01*
X155715573Y-106402944D01*
X155906444Y-106476888D01*
X156107653Y-106514500D01*
X156312345Y-106514500D01*
X156312347Y-106514500D01*
X156513556Y-106476888D01*
X156704427Y-106402944D01*
X156878462Y-106295186D01*
X157029732Y-106157285D01*
X157153088Y-105993935D01*
X157244328Y-105810701D01*
X157300345Y-105613821D01*
X157319232Y-105410000D01*
X157319232Y-105409999D01*
X157640767Y-105409999D01*
X157659654Y-105613819D01*
X157715672Y-105810702D01*
X157806910Y-105993933D01*
X157867314Y-106073920D01*
X157930268Y-106157285D01*
X158081538Y-106295186D01*
X158255573Y-106402944D01*
X158446444Y-106476888D01*
X158647653Y-106514500D01*
X158852345Y-106514500D01*
X158852347Y-106514500D01*
X159053556Y-106476888D01*
X159244427Y-106402944D01*
X159418462Y-106295186D01*
X159569732Y-106157285D01*
X159693088Y-105993935D01*
X159784328Y-105810701D01*
X159840345Y-105613821D01*
X159859232Y-105410000D01*
X159859232Y-105409999D01*
X160180767Y-105409999D01*
X160199654Y-105613819D01*
X160255672Y-105810702D01*
X160346910Y-105993933D01*
X160407314Y-106073920D01*
X160470268Y-106157285D01*
X160621538Y-106295186D01*
X160795573Y-106402944D01*
X160986444Y-106476888D01*
X161187653Y-106514500D01*
X161392345Y-106514500D01*
X161392347Y-106514500D01*
X161593556Y-106476888D01*
X161784427Y-106402944D01*
X161958462Y-106295186D01*
X162109732Y-106157285D01*
X162233088Y-105993935D01*
X162324328Y-105810701D01*
X162380345Y-105613821D01*
X162399232Y-105410000D01*
X162399232Y-105409999D01*
X162720767Y-105409999D01*
X162739654Y-105613819D01*
X162795672Y-105810702D01*
X162886910Y-105993933D01*
X162947314Y-106073920D01*
X163010268Y-106157285D01*
X163161538Y-106295186D01*
X163335573Y-106402944D01*
X163526444Y-106476888D01*
X163727653Y-106514500D01*
X163932345Y-106514500D01*
X163932347Y-106514500D01*
X164133556Y-106476888D01*
X164324427Y-106402944D01*
X164498462Y-106295186D01*
X164649732Y-106157285D01*
X164773088Y-105993935D01*
X164864328Y-105810701D01*
X164920345Y-105613821D01*
X164939232Y-105410000D01*
X164920345Y-105206179D01*
X164864328Y-105009299D01*
X164863585Y-105007807D01*
X164773089Y-104826066D01*
X164742886Y-104786072D01*
X164649732Y-104662715D01*
X164498462Y-104524814D01*
X164445469Y-104492002D01*
X164324428Y-104417056D01*
X164209500Y-104372533D01*
X164133556Y-104343112D01*
X163932347Y-104305500D01*
X163727653Y-104305500D01*
X163553775Y-104338003D01*
X163526444Y-104343112D01*
X163335571Y-104417056D01*
X163161539Y-104524813D01*
X163010267Y-104662716D01*
X162886910Y-104826066D01*
X162795672Y-105009297D01*
X162739654Y-105206180D01*
X162720767Y-105409999D01*
X162399232Y-105409999D01*
X162380345Y-105206179D01*
X162324328Y-105009299D01*
X162323585Y-105007807D01*
X162233089Y-104826066D01*
X162202886Y-104786072D01*
X162109732Y-104662715D01*
X161958462Y-104524814D01*
X161905469Y-104492002D01*
X161784428Y-104417056D01*
X161669500Y-104372533D01*
X161593556Y-104343112D01*
X161392347Y-104305500D01*
X161187653Y-104305500D01*
X161013775Y-104338003D01*
X160986444Y-104343112D01*
X160795571Y-104417056D01*
X160621539Y-104524813D01*
X160470267Y-104662716D01*
X160346910Y-104826066D01*
X160255672Y-105009297D01*
X160199654Y-105206180D01*
X160180767Y-105409999D01*
X159859232Y-105409999D01*
X159840345Y-105206179D01*
X159784328Y-105009299D01*
X159783585Y-105007807D01*
X159693089Y-104826066D01*
X159662886Y-104786072D01*
X159569732Y-104662715D01*
X159418462Y-104524814D01*
X159365469Y-104492002D01*
X159244428Y-104417056D01*
X159129500Y-104372533D01*
X159053556Y-104343112D01*
X158852347Y-104305500D01*
X158647653Y-104305500D01*
X158473775Y-104338003D01*
X158446444Y-104343112D01*
X158255571Y-104417056D01*
X158081539Y-104524813D01*
X157930267Y-104662716D01*
X157806910Y-104826066D01*
X157715672Y-105009297D01*
X157659654Y-105206180D01*
X157640767Y-105409999D01*
X157319232Y-105409999D01*
X157300345Y-105206179D01*
X157244328Y-105009299D01*
X157243585Y-105007807D01*
X157153089Y-104826066D01*
X157122886Y-104786072D01*
X157029732Y-104662715D01*
X156878462Y-104524814D01*
X156850370Y-104507420D01*
X156704429Y-104417056D01*
X156679453Y-104407381D01*
X156669982Y-104403712D01*
X156627787Y-104376678D01*
X156599466Y-104335334D01*
X156589500Y-104286221D01*
X156589500Y-103430499D01*
X156606381Y-103367499D01*
X156652500Y-103321380D01*
X156715500Y-103304499D01*
X156733258Y-103304499D01*
X156763297Y-103301269D01*
X156793342Y-103298040D01*
X156929267Y-103247342D01*
X157045404Y-103160404D01*
X157132342Y-103044267D01*
X157183040Y-102908342D01*
X157189500Y-102848255D01*
X157189500Y-102800000D01*
X157525001Y-102800000D01*
X157525001Y-102849974D01*
X157535494Y-102952699D01*
X157590640Y-103119119D01*
X157682685Y-103268347D01*
X157806652Y-103392314D01*
X157955880Y-103484359D01*
X158122300Y-103539505D01*
X158225025Y-103550000D01*
X158500000Y-103550000D01*
X158500000Y-102800000D01*
X159000000Y-102800000D01*
X159000000Y-103549999D01*
X159274974Y-103549999D01*
X159377699Y-103539505D01*
X159544119Y-103484359D01*
X159693347Y-103392314D01*
X159817314Y-103268347D01*
X159909359Y-103119119D01*
X159964505Y-102952699D01*
X159975000Y-102849975D01*
X159975000Y-102800000D01*
X159000000Y-102800000D01*
X158500000Y-102800000D01*
X157525001Y-102800000D01*
X157189500Y-102800000D01*
X157189499Y-102251746D01*
X157189314Y-102250026D01*
X157183040Y-102191661D01*
X157183040Y-102191660D01*
X157183040Y-102191658D01*
X157132342Y-102055733D01*
X157132341Y-102055731D01*
X157045404Y-101939595D01*
X156929267Y-101852658D01*
X156929262Y-101852656D01*
X156918911Y-101848795D01*
X156868290Y-101813906D01*
X156840204Y-101759214D01*
X156841341Y-101697743D01*
X156871432Y-101644128D01*
X156923311Y-101611135D01*
X157004122Y-101584356D01*
X157153347Y-101492314D01*
X157277314Y-101368347D01*
X157369359Y-101219119D01*
X157424505Y-101052699D01*
X157435000Y-100949975D01*
X157435000Y-100900000D01*
X156086000Y-100900000D01*
X156023000Y-100883119D01*
X155976881Y-100837000D01*
X155960000Y-100774000D01*
X155960000Y-99650001D01*
X155685026Y-99650001D01*
X155582300Y-99660494D01*
X155415880Y-99715640D01*
X155266652Y-99807685D01*
X155142685Y-99931652D01*
X155047241Y-100086392D01*
X155001406Y-100130269D01*
X154940000Y-100146245D01*
X154878594Y-100130269D01*
X154832759Y-100086392D01*
X154737314Y-99931652D01*
X154613347Y-99807685D01*
X154464119Y-99715640D01*
X154297699Y-99660494D01*
X154194975Y-99650000D01*
X156460000Y-99650000D01*
X156460000Y-100400000D01*
X157434999Y-100400000D01*
X157434999Y-100350026D01*
X157424505Y-100247300D01*
X157369359Y-100080880D01*
X157277314Y-99931652D01*
X157153347Y-99807685D01*
X157004119Y-99715640D01*
X156837699Y-99660494D01*
X156734975Y-99650000D01*
X156460000Y-99650000D01*
X154194975Y-99650000D01*
X153920000Y-99650000D01*
X153920000Y-100774000D01*
X153903119Y-100837000D01*
X153857000Y-100883119D01*
X153794000Y-100900000D01*
X153546000Y-100900000D01*
X153483000Y-100883119D01*
X153436881Y-100837000D01*
X153420000Y-100774000D01*
X153420000Y-99650001D01*
X153145026Y-99650001D01*
X153042300Y-99660494D01*
X152875880Y-99715640D01*
X152726652Y-99807685D01*
X152602685Y-99931652D01*
X152507241Y-100086392D01*
X152461406Y-100130269D01*
X152400000Y-100146245D01*
X152338594Y-100130269D01*
X152292759Y-100086392D01*
X152197314Y-99931652D01*
X152073347Y-99807685D01*
X151924119Y-99715640D01*
X151757699Y-99660494D01*
X151654975Y-99650000D01*
X151380000Y-99650000D01*
X151380000Y-100774000D01*
X151363119Y-100837000D01*
X151317000Y-100883119D01*
X151254000Y-100900000D01*
X149905001Y-100900000D01*
X149905001Y-100949974D01*
X149544500Y-100949974D01*
X149544499Y-100400000D01*
X149905000Y-100400000D01*
X150880000Y-100400000D01*
X150880000Y-99650001D01*
X150605026Y-99650001D01*
X150502300Y-99660494D01*
X150335880Y-99715640D01*
X150186652Y-99807685D01*
X150062685Y-99931652D01*
X149970640Y-100080880D01*
X149915494Y-100247300D01*
X149905000Y-100350025D01*
X149905000Y-100400000D01*
X149544499Y-100400000D01*
X149544499Y-100376746D01*
X149541811Y-100351744D01*
X149538040Y-100316661D01*
X149538040Y-100316660D01*
X149538040Y-100316658D01*
X149487342Y-100180733D01*
X149468627Y-100155733D01*
X149400403Y-100064594D01*
X149365518Y-100038480D01*
X149323276Y-99982454D01*
X149317550Y-99912522D01*
X149350116Y-99850370D01*
X149410871Y-99815274D01*
X149458793Y-99803463D01*
X149599529Y-99729599D01*
X149718498Y-99624201D01*
X149808787Y-99493395D01*
X149865149Y-99344782D01*
X149871581Y-99291804D01*
X149883375Y-99251840D01*
X149907563Y-99217906D01*
X150168804Y-98956665D01*
X150189773Y-98939767D01*
X150193775Y-98937196D01*
X150226550Y-98899370D01*
X150232639Y-98892831D01*
X150242250Y-98883221D01*
X150250392Y-98872343D01*
X150256016Y-98865364D01*
X150288777Y-98827558D01*
X150290749Y-98823238D01*
X150304495Y-98800070D01*
X150307343Y-98796267D01*
X150324832Y-98749373D01*
X150328260Y-98741099D01*
X150349042Y-98695596D01*
X150349716Y-98690900D01*
X150356384Y-98664780D01*
X150358040Y-98660342D01*
X150361608Y-98610444D01*
X150362570Y-98601503D01*
X150364500Y-98588085D01*
X150364500Y-98574527D01*
X150364821Y-98565539D01*
X150365021Y-98562730D01*
X150368390Y-98515640D01*
X150367379Y-98510996D01*
X150364500Y-98484214D01*
X150364500Y-98297499D01*
X150381381Y-98234499D01*
X150427500Y-98188380D01*
X150490500Y-98171499D01*
X150520068Y-98171499D01*
X150578790Y-98159819D01*
X150594301Y-98156734D01*
X150678484Y-98100484D01*
X150734734Y-98016301D01*
X150749500Y-97942067D01*
X150749499Y-95964382D01*
X150763232Y-95907180D01*
X150801438Y-95862447D01*
X150855788Y-95839934D01*
X150914435Y-95844550D01*
X150964594Y-95875288D01*
X153770980Y-98681675D01*
X153787367Y-98701853D01*
X153793331Y-98710982D01*
X153818537Y-98730600D01*
X153830248Y-98740943D01*
X153830286Y-98740981D01*
X153847396Y-98753197D01*
X153851534Y-98756282D01*
X153893281Y-98788775D01*
X153893283Y-98788775D01*
X153899637Y-98793721D01*
X153899696Y-98793752D01*
X153907417Y-98796050D01*
X153907421Y-98796053D01*
X153958143Y-98811152D01*
X153963007Y-98812711D01*
X154013073Y-98829900D01*
X154013075Y-98829900D01*
X154020680Y-98832511D01*
X154020769Y-98832524D01*
X154028808Y-98832191D01*
X154028810Y-98832192D01*
X154081613Y-98830008D01*
X154086821Y-98829900D01*
X157169016Y-98829900D01*
X157217234Y-98839491D01*
X157258111Y-98866805D01*
X158120237Y-99728931D01*
X158152038Y-99782528D01*
X158154263Y-99844809D01*
X158126367Y-99900538D01*
X158075175Y-99936081D01*
X158030734Y-99952656D01*
X157914595Y-100039595D01*
X157827658Y-100155731D01*
X157776959Y-100291660D01*
X157770500Y-100351744D01*
X157770500Y-100948257D01*
X157776959Y-101008338D01*
X157827658Y-101144268D01*
X157914595Y-101260404D01*
X158030731Y-101347341D01*
X158030732Y-101347341D01*
X158030733Y-101347342D01*
X158041086Y-101351203D01*
X158091708Y-101386092D01*
X158119795Y-101440783D01*
X158118658Y-101502254D01*
X158088568Y-101555869D01*
X158036689Y-101588863D01*
X157955880Y-101615641D01*
X157806652Y-101707685D01*
X157682685Y-101831652D01*
X157590640Y-101980880D01*
X157535494Y-102147300D01*
X157525000Y-102250025D01*
X157525000Y-102300000D01*
X159974999Y-102300000D01*
X159974999Y-102250026D01*
X159964505Y-102147300D01*
X159909359Y-101980880D01*
X159817314Y-101831652D01*
X159693347Y-101707685D01*
X159544119Y-101615641D01*
X159463310Y-101588863D01*
X159411431Y-101555869D01*
X159381341Y-101502254D01*
X159380204Y-101440782D01*
X159408292Y-101386091D01*
X159458913Y-101351203D01*
X159469267Y-101347342D01*
X159585404Y-101260404D01*
X159672342Y-101144267D01*
X159723040Y-101008342D01*
X159729500Y-100948255D01*
X159729499Y-100351746D01*
X159729314Y-100350026D01*
X159723040Y-100291661D01*
X159723040Y-100291660D01*
X159723040Y-100291658D01*
X159672342Y-100155733D01*
X159672341Y-100155731D01*
X159585404Y-100039595D01*
X159469268Y-99952658D01*
X159333339Y-99901959D01*
X159273255Y-99895500D01*
X159253729Y-99895500D01*
X159196839Y-99881926D01*
X159152207Y-99844128D01*
X159129449Y-99790250D01*
X159126482Y-99772477D01*
X159126037Y-99769811D01*
X159125296Y-99764727D01*
X159118752Y-99712217D01*
X159118751Y-99712215D01*
X159117756Y-99704230D01*
X159117730Y-99704150D01*
X159088734Y-99650568D01*
X159086351Y-99645939D01*
X159059592Y-99591203D01*
X159059545Y-99591140D01*
X159053619Y-99585685D01*
X159053619Y-99585684D01*
X159014713Y-99549868D01*
X159010957Y-99546263D01*
X158095206Y-98630512D01*
X158061424Y-98569298D01*
X158065478Y-98499498D01*
X158106119Y-98442606D01*
X158170833Y-98416139D01*
X158222375Y-98410597D01*
X158357088Y-98360353D01*
X158472189Y-98274189D01*
X158558353Y-98159088D01*
X158608597Y-98024375D01*
X158615000Y-97964828D01*
X158615000Y-95500000D01*
X156345000Y-95500000D01*
X156345000Y-97944900D01*
X156328119Y-98007900D01*
X156282000Y-98054019D01*
X156219000Y-98070900D01*
X154285784Y-98070900D01*
X154237566Y-98061309D01*
X154196689Y-98033995D01*
X151181418Y-95018724D01*
X151166212Y-95000000D01*
X156345000Y-95000000D01*
X157230000Y-95000000D01*
X157230000Y-92083000D01*
X157730000Y-92083000D01*
X157730000Y-95000000D01*
X158615000Y-95000000D01*
X158615000Y-92535172D01*
X158608597Y-92475624D01*
X158558353Y-92340911D01*
X158472189Y-92225810D01*
X158357088Y-92139646D01*
X158222375Y-92089402D01*
X158162828Y-92083000D01*
X157730000Y-92083000D01*
X157230000Y-92083000D01*
X156797172Y-92083000D01*
X156737624Y-92089402D01*
X156602911Y-92139646D01*
X156487810Y-92225810D01*
X156401646Y-92340911D01*
X156351402Y-92475624D01*
X156345000Y-92535172D01*
X156345000Y-95000000D01*
X151166212Y-95000000D01*
X151165030Y-94998544D01*
X151159067Y-94989417D01*
X151133855Y-94969793D01*
X151122153Y-94959458D01*
X151122117Y-94959422D01*
X151105032Y-94947223D01*
X151100863Y-94944114D01*
X151075981Y-94924749D01*
X151059119Y-94911625D01*
X151059117Y-94911624D01*
X151052767Y-94906682D01*
X151052692Y-94906643D01*
X150994311Y-94889262D01*
X150989353Y-94887673D01*
X150931722Y-94867888D01*
X150931630Y-94867875D01*
X150902025Y-94869099D01*
X150880705Y-94869981D01*
X150815530Y-94854904D01*
X150767258Y-94808588D01*
X150749499Y-94744090D01*
X150749499Y-92557932D01*
X150734734Y-92483699D01*
X150678484Y-92399515D01*
X150594301Y-92343266D01*
X150594296Y-92343265D01*
X150520066Y-92328500D01*
X149199931Y-92328500D01*
X149125699Y-92343265D01*
X149041515Y-92399515D01*
X148985266Y-92483698D01*
X148970500Y-92557933D01*
X148970500Y-97942068D01*
X148985265Y-98016300D01*
X149041515Y-98100484D01*
X149097764Y-98138068D01*
X149125699Y-98156734D01*
X149199933Y-98171500D01*
X149222839Y-98171500D01*
X149280042Y-98185233D01*
X149324775Y-98223439D01*
X149347288Y-98277790D01*
X149342672Y-98336437D01*
X149311935Y-98386593D01*
X149214315Y-98484214D01*
X149197572Y-98500957D01*
X149138632Y-98534199D01*
X148991207Y-98570536D01*
X148850472Y-98644400D01*
X148731501Y-98749799D01*
X148641213Y-98880604D01*
X148584850Y-99029219D01*
X148578418Y-99082190D01*
X148566622Y-99122160D01*
X148542432Y-99156095D01*
X148281194Y-99417333D01*
X148260227Y-99434232D01*
X148256224Y-99436804D01*
X148223469Y-99474605D01*
X148217347Y-99481181D01*
X148207748Y-99490780D01*
X148199612Y-99501648D01*
X148193976Y-99508642D01*
X148161222Y-99546442D01*
X148159246Y-99550770D01*
X148145511Y-99573918D01*
X148142657Y-99577730D01*
X148125172Y-99624607D01*
X148121733Y-99632911D01*
X148100957Y-99678405D01*
X148100281Y-99683110D01*
X148093624Y-99709194D01*
X148091960Y-99713654D01*
X148088391Y-99763548D01*
X148087431Y-99772477D01*
X148085500Y-99785915D01*
X148085500Y-99799484D01*
X148085179Y-99808473D01*
X148083716Y-99828928D01*
X148058906Y-99895447D01*
X148002071Y-99937994D01*
X147895733Y-99977657D01*
X147779595Y-100064595D01*
X147692658Y-100180731D01*
X147641959Y-100316660D01*
X147635500Y-100376744D01*
X147635500Y-100998257D01*
X146304500Y-100998257D01*
X146304500Y-92430933D01*
X146304500Y-82048187D01*
X146305107Y-82035838D01*
X146314348Y-81942009D01*
X146317916Y-81905782D01*
X146322731Y-81881572D01*
X146358865Y-81762455D01*
X146368315Y-81739644D01*
X146426987Y-81629875D01*
X146440701Y-81609349D01*
X146519670Y-81513124D01*
X146537124Y-81495670D01*
X146633349Y-81416701D01*
X146653871Y-81402989D01*
X146763644Y-81344314D01*
X146786455Y-81334865D01*
X146905572Y-81298731D01*
X146929782Y-81293916D01*
X147042756Y-81282789D01*
X147059838Y-81281107D01*
X147072187Y-81280500D01*
X147110875Y-81280500D01*
X160229125Y-81280500D01*
X160267813Y-81280500D01*
X160280162Y-81281106D01*
G37*
%TD.AperFunction*%
%TD*%
M02*
