%TF.GenerationSoftware,KiCad,Pcbnew,7.0.1*%
%TF.CreationDate,2023-05-06T15:32:37-03:00*%
%TF.ProjectId,Analog_Control,416e616c-6f67-45f4-936f-6e74726f6c2e,rev?*%
%TF.SameCoordinates,Original*%
%TF.FileFunction,Copper,L2,Bot*%
%TF.FilePolarity,Positive*%
%FSLAX46Y46*%
G04 Gerber Fmt 4.6, Leading zero omitted, Abs format (unit mm)*
G04 Created by KiCad (PCBNEW 7.0.1) date 2023-05-06 15:32:37*
%MOMM*%
%LPD*%
G01*
G04 APERTURE LIST*
G04 Aperture macros list*
%AMRoundRect*
0 Rectangle with rounded corners*
0 $1 Rounding radius*
0 $2 $3 $4 $5 $6 $7 $8 $9 X,Y pos of 4 corners*
0 Add a 4 corners polygon primitive as box body*
4,1,4,$2,$3,$4,$5,$6,$7,$8,$9,$2,$3,0*
0 Add four circle primitives for the rounded corners*
1,1,$1+$1,$2,$3*
1,1,$1+$1,$4,$5*
1,1,$1+$1,$6,$7*
1,1,$1+$1,$8,$9*
0 Add four rect primitives between the rounded corners*
20,1,$1+$1,$2,$3,$4,$5,0*
20,1,$1+$1,$4,$5,$6,$7,0*
20,1,$1+$1,$6,$7,$8,$9,0*
20,1,$1+$1,$8,$9,$2,$3,0*%
G04 Aperture macros list end*
%ADD10C,0.100000*%
%TA.AperFunction,NonConductor*%
%ADD11C,0.100000*%
%TD*%
%TA.AperFunction,ComponentPad*%
%ADD12O,1.200000X1.750000*%
%TD*%
%TA.AperFunction,ComponentPad*%
%ADD13RoundRect,0.300000X-0.300000X-0.575000X0.300000X-0.575000X0.300000X0.575000X-0.300000X0.575000X0*%
%TD*%
%TA.AperFunction,ComponentPad*%
%ADD14C,1.700000*%
%TD*%
%TA.AperFunction,ComponentPad*%
%ADD15O,1.700000X1.700000*%
%TD*%
%TA.AperFunction,ComponentPad*%
%ADD16R,1.700000X1.700000*%
%TD*%
%TA.AperFunction,ViaPad*%
%ADD17C,0.800000*%
%TD*%
%TA.AperFunction,Conductor*%
%ADD18C,0.250000*%
%TD*%
G04 APERTURE END LIST*
D10*
D11*
X166039809Y-119752095D02*
X165773142Y-120552095D01*
X165773142Y-120552095D02*
X165506476Y-119752095D01*
X164820762Y-120552095D02*
X165277905Y-120552095D01*
X165049333Y-120552095D02*
X165049333Y-119752095D01*
X165049333Y-119752095D02*
X165125524Y-119866380D01*
X165125524Y-119866380D02*
X165201714Y-119942571D01*
X165201714Y-119942571D02*
X165277905Y-119980666D01*
X164477904Y-120475904D02*
X164439809Y-120514000D01*
X164439809Y-120514000D02*
X164477904Y-120552095D01*
X164477904Y-120552095D02*
X164516000Y-120514000D01*
X164516000Y-120514000D02*
X164477904Y-120475904D01*
X164477904Y-120475904D02*
X164477904Y-120552095D01*
X163944571Y-119752095D02*
X163868381Y-119752095D01*
X163868381Y-119752095D02*
X163792190Y-119790190D01*
X163792190Y-119790190D02*
X163754095Y-119828285D01*
X163754095Y-119828285D02*
X163716000Y-119904476D01*
X163716000Y-119904476D02*
X163677905Y-120056857D01*
X163677905Y-120056857D02*
X163677905Y-120247333D01*
X163677905Y-120247333D02*
X163716000Y-120399714D01*
X163716000Y-120399714D02*
X163754095Y-120475904D01*
X163754095Y-120475904D02*
X163792190Y-120514000D01*
X163792190Y-120514000D02*
X163868381Y-120552095D01*
X163868381Y-120552095D02*
X163944571Y-120552095D01*
X163944571Y-120552095D02*
X164020762Y-120514000D01*
X164020762Y-120514000D02*
X164058857Y-120475904D01*
X164058857Y-120475904D02*
X164096952Y-120399714D01*
X164096952Y-120399714D02*
X164135048Y-120247333D01*
X164135048Y-120247333D02*
X164135048Y-120056857D01*
X164135048Y-120056857D02*
X164096952Y-119904476D01*
X164096952Y-119904476D02*
X164058857Y-119828285D01*
X164058857Y-119828285D02*
X164020762Y-119790190D01*
X164020762Y-119790190D02*
X163944571Y-119752095D01*
%TA.AperFunction,EtchedComponent*%
%TO.C,G\u002A\u002A\u002A*%
G36*
X144129808Y-119518599D02*
G01*
X144148904Y-119525157D01*
X144165709Y-119541219D01*
X144176108Y-119562906D01*
X144177363Y-119575274D01*
X144172323Y-119591017D01*
X144158444Y-119607360D01*
X144134418Y-119625739D01*
X144098937Y-119647589D01*
X144081925Y-119657079D01*
X144056239Y-119670130D01*
X144035511Y-119679123D01*
X144023091Y-119682514D01*
X144004034Y-119677407D01*
X143987633Y-119662603D01*
X143977310Y-119642061D01*
X143975021Y-119619788D01*
X143982719Y-119599788D01*
X143983805Y-119598506D01*
X143996383Y-119588184D01*
X144017134Y-119574474D01*
X144042790Y-119559191D01*
X144070083Y-119544147D01*
X144095743Y-119531157D01*
X144116501Y-119522033D01*
X144129090Y-119518589D01*
X144129808Y-119518599D01*
G37*
%TD.AperFunction*%
%TA.AperFunction,EtchedComponent*%
G36*
X143675868Y-119161522D02*
G01*
X143692225Y-119176099D01*
X143700612Y-119196466D01*
X143699623Y-119219128D01*
X143687857Y-119240591D01*
X143678405Y-119248242D01*
X143659391Y-119260963D01*
X143633883Y-119276678D01*
X143604719Y-119293577D01*
X143576414Y-119308831D01*
X143549818Y-119321895D01*
X143529073Y-119330735D01*
X143517142Y-119333985D01*
X143505628Y-119331462D01*
X143487652Y-119319558D01*
X143473574Y-119302000D01*
X143467883Y-119283400D01*
X143472376Y-119266509D01*
X143483267Y-119249609D01*
X143487704Y-119245338D01*
X143505609Y-119231799D01*
X143530595Y-119215722D01*
X143559582Y-119198792D01*
X143589493Y-119182693D01*
X143617248Y-119169108D01*
X143639771Y-119159723D01*
X143653982Y-119156220D01*
X143675868Y-119161522D01*
G37*
%TD.AperFunction*%
%TA.AperFunction,EtchedComponent*%
G36*
X143216361Y-117889531D02*
G01*
X143214983Y-117939062D01*
X143201157Y-117997464D01*
X143176224Y-118052280D01*
X143141246Y-118101004D01*
X143097287Y-118141130D01*
X143078804Y-118154578D01*
X143089151Y-118202438D01*
X143098724Y-118254716D01*
X143107998Y-118326495D01*
X143114730Y-118404707D01*
X143118741Y-118485507D01*
X143119626Y-118548984D01*
X143119850Y-118565047D01*
X143117877Y-118639483D01*
X143112644Y-118704969D01*
X143112116Y-118709625D01*
X143109813Y-118733736D01*
X143108836Y-118751363D01*
X143109396Y-118758967D01*
X143111247Y-118758964D01*
X143122917Y-118755223D01*
X143142648Y-118747307D01*
X143167493Y-118736363D01*
X143189987Y-118726306D01*
X143286091Y-118688015D01*
X143380482Y-118657635D01*
X143392357Y-118654347D01*
X143415358Y-118648646D01*
X143430613Y-118646702D01*
X143441939Y-118648280D01*
X143453153Y-118653144D01*
X143466023Y-118661314D01*
X143478100Y-118677787D01*
X143481557Y-118702109D01*
X143477962Y-118718402D01*
X143465084Y-118733327D01*
X143441447Y-118746514D01*
X143405596Y-118759055D01*
X143387769Y-118764487D01*
X143284797Y-118801126D01*
X143179859Y-118846756D01*
X143077545Y-118899235D01*
X142982446Y-118956423D01*
X142888955Y-119022297D01*
X142789651Y-119104771D01*
X142701938Y-119192401D01*
X142626169Y-119284753D01*
X142562692Y-119381393D01*
X142511859Y-119481889D01*
X142474020Y-119585806D01*
X142463230Y-119622257D01*
X142488666Y-119607182D01*
X142541528Y-119575990D01*
X142613663Y-119533904D01*
X142679503Y-119496072D01*
X142738284Y-119462913D01*
X142789245Y-119434845D01*
X142831621Y-119412285D01*
X142864651Y-119395654D01*
X142887571Y-119385368D01*
X142899617Y-119381846D01*
X142908459Y-119382585D01*
X142929881Y-119392018D01*
X142943757Y-119409728D01*
X142948253Y-119432433D01*
X142941533Y-119456848D01*
X142940691Y-119457863D01*
X142930451Y-119465643D01*
X142909992Y-119479151D01*
X142880633Y-119497580D01*
X142843689Y-119520124D01*
X142800478Y-119545977D01*
X142752317Y-119574332D01*
X142700524Y-119604383D01*
X142686374Y-119612541D01*
X142635292Y-119642096D01*
X142588064Y-119669580D01*
X142546026Y-119694206D01*
X142510513Y-119715186D01*
X142482860Y-119731733D01*
X142464402Y-119743058D01*
X142456474Y-119748374D01*
X142454057Y-119751882D01*
X142449811Y-119768607D01*
X142447926Y-119794381D01*
X142448402Y-119826068D01*
X142451241Y-119860530D01*
X142456442Y-119894632D01*
X142456585Y-119895365D01*
X142462513Y-119922074D01*
X142469990Y-119950795D01*
X142478073Y-119978464D01*
X142485816Y-120002019D01*
X142492276Y-120018398D01*
X142496508Y-120024538D01*
X142496716Y-120024509D01*
X142503934Y-120019311D01*
X142517574Y-120006884D01*
X142534870Y-119989739D01*
X142537343Y-119987217D01*
X142601857Y-119930933D01*
X142674381Y-119884899D01*
X142755399Y-119848898D01*
X142845396Y-119822713D01*
X142944857Y-119806128D01*
X142957379Y-119804842D01*
X142995101Y-119802873D01*
X143032912Y-119804231D01*
X143072538Y-119809328D01*
X143115706Y-119818582D01*
X143164143Y-119832405D01*
X143219573Y-119851212D01*
X143283725Y-119875419D01*
X143358323Y-119905440D01*
X143361892Y-119906907D01*
X143403713Y-119923819D01*
X143435920Y-119936057D01*
X143461203Y-119944423D01*
X143482253Y-119949718D01*
X143501760Y-119952742D01*
X143522414Y-119954297D01*
X143546652Y-119955058D01*
X143567871Y-119953823D01*
X143584332Y-119949434D01*
X143600889Y-119941073D01*
X143613809Y-119932312D01*
X143641578Y-119905869D01*
X143665190Y-119873805D01*
X143680376Y-119841472D01*
X143681946Y-119833794D01*
X143684461Y-119811922D01*
X143686963Y-119779732D01*
X143689320Y-119739264D01*
X143691404Y-119692560D01*
X143693083Y-119641658D01*
X143694124Y-119605059D01*
X143695680Y-119558027D01*
X143697320Y-119521366D01*
X143699231Y-119493064D01*
X143701599Y-119471112D01*
X143704609Y-119453497D01*
X143708449Y-119438209D01*
X143713303Y-119423238D01*
X143724283Y-119395161D01*
X143753245Y-119342053D01*
X143791104Y-119296526D01*
X143839361Y-119256952D01*
X143899520Y-119221705D01*
X143965393Y-119195256D01*
X144035795Y-119180850D01*
X144107599Y-119179597D01*
X144180095Y-119191380D01*
X144252571Y-119216080D01*
X144324317Y-119253581D01*
X144394622Y-119303763D01*
X144395713Y-119304651D01*
X144414413Y-119319463D01*
X144428587Y-119329984D01*
X144435243Y-119333986D01*
X144436721Y-119332941D01*
X144438920Y-119322196D01*
X144439158Y-119302317D01*
X144437661Y-119276411D01*
X144434657Y-119247586D01*
X144430370Y-119218948D01*
X144425028Y-119193606D01*
X144419965Y-119175258D01*
X144390020Y-119097093D01*
X144348028Y-119022368D01*
X144295234Y-118952566D01*
X144232882Y-118889172D01*
X144162217Y-118833671D01*
X144084485Y-118787545D01*
X144054976Y-118772602D01*
X143871262Y-118878947D01*
X143851315Y-118890438D01*
X143806380Y-118915915D01*
X143765308Y-118938647D01*
X143729683Y-118957792D01*
X143701086Y-118972508D01*
X143681099Y-118981956D01*
X143671306Y-118985292D01*
X143670569Y-118985281D01*
X143651204Y-118979002D01*
X143633242Y-118964034D01*
X143621827Y-118944610D01*
X143619851Y-118935619D01*
X143620830Y-118924554D01*
X143626852Y-118913109D01*
X143639092Y-118900281D01*
X143658723Y-118885070D01*
X143686922Y-118866474D01*
X143724861Y-118843492D01*
X143773717Y-118815123D01*
X143797740Y-118801272D01*
X143834496Y-118779815D01*
X143865970Y-118761110D01*
X143890509Y-118746158D01*
X143906459Y-118735956D01*
X143912169Y-118731502D01*
X143911914Y-118730875D01*
X143903191Y-118727490D01*
X143884003Y-118723860D01*
X143857012Y-118720264D01*
X143824880Y-118716982D01*
X143790269Y-118714292D01*
X143755839Y-118712474D01*
X143724254Y-118711806D01*
X143700506Y-118711659D01*
X143676410Y-118710675D01*
X143660568Y-118708271D01*
X143649809Y-118703881D01*
X143640962Y-118696940D01*
X143634667Y-118689634D01*
X143625862Y-118667258D01*
X143627194Y-118643282D01*
X143638812Y-118622923D01*
X143641938Y-118620031D01*
X143649632Y-118615226D01*
X143660736Y-118612092D01*
X143677816Y-118610281D01*
X143703437Y-118609449D01*
X143740164Y-118609249D01*
X143835856Y-118613872D01*
X143941304Y-118630397D01*
X144041088Y-118658517D01*
X144134512Y-118697821D01*
X144220879Y-118747897D01*
X144299494Y-118808333D01*
X144369660Y-118878719D01*
X144430680Y-118958642D01*
X144481859Y-119047691D01*
X144488554Y-119061673D01*
X144519870Y-119142807D01*
X144538280Y-119224309D01*
X144543741Y-119306736D01*
X144536210Y-119390643D01*
X144515645Y-119476587D01*
X144482003Y-119565126D01*
X144435242Y-119656816D01*
X144434455Y-119658189D01*
X144419965Y-119682538D01*
X144399816Y-119715197D01*
X144375808Y-119753308D01*
X144349740Y-119794014D01*
X144323410Y-119834456D01*
X144322839Y-119835326D01*
X144292090Y-119881441D01*
X144267194Y-119916784D01*
X144247004Y-119942303D01*
X144230371Y-119958944D01*
X144216147Y-119967655D01*
X144203184Y-119969381D01*
X144190334Y-119965071D01*
X144176450Y-119955670D01*
X144175471Y-119954892D01*
X144164375Y-119943868D01*
X144158547Y-119931550D01*
X144158474Y-119916328D01*
X144164647Y-119896596D01*
X144177554Y-119870745D01*
X144197685Y-119837167D01*
X144225527Y-119794255D01*
X144241597Y-119769880D01*
X144285889Y-119701288D01*
X144322481Y-119642163D01*
X144351943Y-119591538D01*
X144374844Y-119548445D01*
X144391754Y-119511916D01*
X144412644Y-119462196D01*
X144379550Y-119428339D01*
X144378210Y-119426979D01*
X144348717Y-119400535D01*
X144312105Y-119372514D01*
X144272549Y-119345752D01*
X144234223Y-119323080D01*
X144201301Y-119307334D01*
X144166532Y-119295730D01*
X144103175Y-119284659D01*
X144040564Y-119286060D01*
X143980433Y-119299643D01*
X143924521Y-119325115D01*
X143874563Y-119362185D01*
X143855090Y-119381655D01*
X143836567Y-119405178D01*
X143822203Y-119431238D01*
X143811519Y-119461681D01*
X143804034Y-119498355D01*
X143799266Y-119543104D01*
X143796737Y-119597775D01*
X143795965Y-119664215D01*
X143795685Y-119708311D01*
X143794288Y-119760679D01*
X143791422Y-119803284D01*
X143786756Y-119838402D01*
X143779961Y-119868308D01*
X143770706Y-119895276D01*
X143758664Y-119921583D01*
X143741572Y-119948986D01*
X143710999Y-119984567D01*
X143674883Y-120016353D01*
X143637530Y-120040130D01*
X143631506Y-120043069D01*
X143598661Y-120055698D01*
X143564555Y-120062430D01*
X143527458Y-120063053D01*
X143485643Y-120057351D01*
X143437378Y-120045112D01*
X143380934Y-120026120D01*
X143314583Y-120000162D01*
X143287493Y-119989059D01*
X143233656Y-119967229D01*
X143189622Y-119949965D01*
X143153448Y-119936739D01*
X143123193Y-119927021D01*
X143096914Y-119920283D01*
X143072667Y-119915995D01*
X143048512Y-119913630D01*
X143022504Y-119912659D01*
X142992701Y-119912552D01*
X142991211Y-119912560D01*
X142946291Y-119913486D01*
X142910567Y-119916028D01*
X142879735Y-119920643D01*
X142849490Y-119927791D01*
X142805378Y-119941702D01*
X142736811Y-119971158D01*
X142674578Y-120007705D01*
X142621037Y-120049877D01*
X142578545Y-120096208D01*
X142549970Y-120134055D01*
X142569030Y-120163052D01*
X142580301Y-120178158D01*
X142597542Y-120198390D01*
X142617776Y-120220393D01*
X142638624Y-120241737D01*
X142657707Y-120259992D01*
X142672647Y-120272727D01*
X142681064Y-120277512D01*
X142686003Y-120275441D01*
X142701546Y-120267369D01*
X142725917Y-120254070D01*
X142757447Y-120236466D01*
X142794469Y-120215484D01*
X142835312Y-120192048D01*
X142857817Y-120179158D01*
X142900894Y-120155090D01*
X142938278Y-120135027D01*
X142968469Y-120119740D01*
X142989969Y-120110001D01*
X143001277Y-120106584D01*
X143006675Y-120106892D01*
X143027801Y-120114999D01*
X143042692Y-120131369D01*
X143049897Y-120152318D01*
X143047961Y-120174161D01*
X143035434Y-120193215D01*
X143025299Y-120200547D01*
X143005175Y-120213448D01*
X142977432Y-120230417D01*
X142944259Y-120250115D01*
X142907850Y-120271202D01*
X142795649Y-120335381D01*
X142825241Y-120343949D01*
X142854251Y-120351300D01*
X142893290Y-120358123D01*
X142937572Y-120362499D01*
X142989170Y-120364555D01*
X143050157Y-120364420D01*
X143122607Y-120362221D01*
X143157610Y-120360869D01*
X143266280Y-120357589D01*
X143363106Y-120356162D01*
X143447746Y-120356584D01*
X143519859Y-120358850D01*
X143579103Y-120362956D01*
X143625137Y-120368897D01*
X143700894Y-120383906D01*
X143832365Y-120419369D01*
X143955030Y-120465247D01*
X143960924Y-120467009D01*
X143965809Y-120463041D01*
X143966995Y-120448322D01*
X143967919Y-120432524D01*
X143972581Y-120399526D01*
X143980494Y-120358543D01*
X143990892Y-120312554D01*
X144003012Y-120264540D01*
X144016087Y-120217479D01*
X144029352Y-120174350D01*
X144042044Y-120138135D01*
X144053396Y-120111811D01*
X144065008Y-120097474D01*
X144085113Y-120088048D01*
X144107594Y-120088026D01*
X144128411Y-120097241D01*
X144143522Y-120115526D01*
X144144044Y-120116634D01*
X144147336Y-120126181D01*
X144147891Y-120137209D01*
X144145243Y-120152566D01*
X144138927Y-120175103D01*
X144128478Y-120207668D01*
X144123555Y-120222762D01*
X144106837Y-120276919D01*
X144094190Y-120323978D01*
X144084522Y-120368303D01*
X144076741Y-120414255D01*
X144076562Y-120415451D01*
X144072288Y-120443906D01*
X144068367Y-120469761D01*
X144065626Y-120487553D01*
X144063509Y-120496331D01*
X144050235Y-120522252D01*
X144029374Y-120545743D01*
X144004938Y-120561893D01*
X143988402Y-120567689D01*
X143966924Y-120570392D01*
X143942082Y-120567598D01*
X143911014Y-120558927D01*
X143870857Y-120543995D01*
X143814478Y-120523294D01*
X143716255Y-120494749D01*
X143608045Y-120472083D01*
X143604657Y-120471501D01*
X143572167Y-120466982D01*
X143534198Y-120463545D01*
X143489584Y-120461172D01*
X143437158Y-120459845D01*
X143375755Y-120459547D01*
X143304210Y-120460259D01*
X143221355Y-120461963D01*
X143126026Y-120464641D01*
X143116114Y-120464942D01*
X143045721Y-120466605D01*
X142986581Y-120466895D01*
X142936590Y-120465607D01*
X142893643Y-120462540D01*
X142855635Y-120457490D01*
X142820463Y-120450255D01*
X142786021Y-120440631D01*
X142750205Y-120428416D01*
X142733718Y-120422079D01*
X142658253Y-120384349D01*
X142588679Y-120334806D01*
X142526108Y-120274350D01*
X142471653Y-120203875D01*
X142459616Y-120185236D01*
X142411355Y-120095870D01*
X142375958Y-120002904D01*
X142353371Y-119907032D01*
X142343540Y-119808954D01*
X142346409Y-119709364D01*
X142361924Y-119608960D01*
X142390030Y-119508439D01*
X142430673Y-119408497D01*
X142483798Y-119309831D01*
X142549350Y-119213138D01*
X142580087Y-119174495D01*
X142635010Y-119112918D01*
X142696861Y-119050726D01*
X142762337Y-118991029D01*
X142828136Y-118936935D01*
X142890957Y-118891552D01*
X142908717Y-118879092D01*
X142922479Y-118868026D01*
X142927749Y-118861780D01*
X142923049Y-118855398D01*
X142908535Y-118843862D01*
X142886717Y-118829128D01*
X142860154Y-118812766D01*
X142831408Y-118796348D01*
X142803039Y-118781447D01*
X142777607Y-118769633D01*
X142759138Y-118762318D01*
X142723634Y-118749664D01*
X142684190Y-118736842D01*
X142646438Y-118725737D01*
X142642074Y-118724526D01*
X142553193Y-118694172D01*
X142469603Y-118654874D01*
X142393232Y-118607814D01*
X142326010Y-118554172D01*
X142269866Y-118495130D01*
X142263743Y-118487576D01*
X142236334Y-118452292D01*
X142217687Y-118424625D01*
X142207126Y-118402757D01*
X142203973Y-118384872D01*
X142207550Y-118369151D01*
X142217182Y-118353778D01*
X142231624Y-118340792D01*
X142253479Y-118335763D01*
X142267238Y-118336811D01*
X142282635Y-118342891D01*
X142296967Y-118356571D01*
X142313537Y-118380301D01*
X142338000Y-118413668D01*
X142370858Y-118450800D01*
X142407676Y-118486792D01*
X142444517Y-118517516D01*
X142483799Y-118544528D01*
X142555968Y-118582747D01*
X142637279Y-118612496D01*
X142642128Y-118613947D01*
X142706705Y-118633862D01*
X142760037Y-118651589D01*
X142804095Y-118667851D01*
X142840847Y-118683374D01*
X142872266Y-118698882D01*
X142880933Y-118703453D01*
X142902880Y-118714345D01*
X142918833Y-118721258D01*
X142925814Y-118722857D01*
X142925267Y-118718221D01*
X142919325Y-118703308D01*
X142908495Y-118680340D01*
X142893907Y-118651455D01*
X142876692Y-118618788D01*
X142857979Y-118584474D01*
X142838900Y-118550650D01*
X142820585Y-118519453D01*
X142804164Y-118493017D01*
X142784172Y-118463140D01*
X142723099Y-118381261D01*
X142653600Y-118299556D01*
X142578865Y-118221636D01*
X142502087Y-118151113D01*
X142476399Y-118129146D01*
X142449951Y-118153039D01*
X142408701Y-118184608D01*
X142353774Y-118212664D01*
X142295558Y-118228983D01*
X142235980Y-118233263D01*
X142176966Y-118225204D01*
X142120442Y-118204504D01*
X142116904Y-118202753D01*
X142093445Y-118191754D01*
X142078090Y-118186495D01*
X142067399Y-118186176D01*
X142057934Y-118190001D01*
X142054661Y-118191734D01*
X142034335Y-118200381D01*
X142007883Y-118209600D01*
X141980004Y-118217960D01*
X141955394Y-118224027D01*
X141938750Y-118226368D01*
X141927362Y-118224224D01*
X141908531Y-118212342D01*
X141894199Y-118193866D01*
X141888502Y-118173174D01*
X141888808Y-118167992D01*
X141898042Y-118146556D01*
X141919760Y-118129567D01*
X141953455Y-118117460D01*
X141974415Y-118110823D01*
X142003243Y-118098930D01*
X142030875Y-118085135D01*
X142046545Y-118076749D01*
X142070288Y-118067069D01*
X142089482Y-118065845D01*
X142108335Y-118073259D01*
X142131055Y-118089494D01*
X142142474Y-118097526D01*
X142175990Y-118114357D01*
X142213202Y-118126183D01*
X142247452Y-118130648D01*
X142258910Y-118130077D01*
X142296154Y-118122361D01*
X142333067Y-118107530D01*
X142363074Y-118088009D01*
X142388930Y-118065658D01*
X142323764Y-118028091D01*
X142528865Y-118028091D01*
X142531907Y-118037863D01*
X142546500Y-118053757D01*
X142572886Y-118075951D01*
X142604083Y-118101792D01*
X142660638Y-118154354D01*
X142718947Y-118214976D01*
X142776529Y-118280895D01*
X142830901Y-118349347D01*
X142879584Y-118417568D01*
X142881750Y-118420819D01*
X142899708Y-118448786D01*
X142919423Y-118480951D01*
X142939616Y-118515055D01*
X142959007Y-118548836D01*
X142976316Y-118580035D01*
X142990263Y-118606389D01*
X142999570Y-118625640D01*
X143002957Y-118635526D01*
X143003331Y-118638100D01*
X143009794Y-118643434D01*
X143010578Y-118642921D01*
X143013007Y-118633116D01*
X143014797Y-118612635D01*
X143015952Y-118583812D01*
X143016472Y-118548984D01*
X143016359Y-118510487D01*
X143015614Y-118470656D01*
X143014240Y-118431830D01*
X143012237Y-118396342D01*
X143009608Y-118366530D01*
X143009140Y-118362448D01*
X143004164Y-118324616D01*
X142997976Y-118284255D01*
X142991804Y-118249438D01*
X142980912Y-118193880D01*
X142938844Y-118197257D01*
X142886382Y-118196099D01*
X142829536Y-118182835D01*
X142776123Y-118158055D01*
X142728026Y-118122896D01*
X142687125Y-118078493D01*
X142655301Y-118025983D01*
X142649886Y-118014675D01*
X142639978Y-117996517D01*
X142629998Y-117985662D01*
X142615930Y-117978566D01*
X142593757Y-117971685D01*
X142573800Y-117966132D01*
X142555487Y-117961499D01*
X142546054Y-117959720D01*
X142544276Y-117960756D01*
X142539732Y-117971041D01*
X142536257Y-117988777D01*
X142535415Y-117995185D01*
X142532088Y-118015071D01*
X142528865Y-118028091D01*
X142323764Y-118028091D01*
X142321610Y-118026849D01*
X142302263Y-118015916D01*
X142266381Y-117996496D01*
X142231408Y-117978473D01*
X142202748Y-117964672D01*
X142184359Y-117956477D01*
X142163375Y-117948353D01*
X142146344Y-117944666D01*
X142128219Y-117944514D01*
X142103952Y-117946993D01*
X142093306Y-117948374D01*
X142025304Y-117961063D01*
X141953413Y-117980310D01*
X141883560Y-118004569D01*
X141865423Y-118011620D01*
X141838507Y-118021329D01*
X141819766Y-118026141D01*
X141806285Y-118026329D01*
X141795151Y-118022164D01*
X141783449Y-118013921D01*
X141769447Y-117995543D01*
X141765196Y-117971278D01*
X141772224Y-117946133D01*
X141775478Y-117942934D01*
X141789580Y-117934308D01*
X141811620Y-117923127D01*
X141838449Y-117910765D01*
X141866920Y-117898596D01*
X141893888Y-117887992D01*
X141916203Y-117880327D01*
X141930719Y-117876974D01*
X141934935Y-117876114D01*
X141931661Y-117873558D01*
X141917906Y-117869809D01*
X141895559Y-117865181D01*
X141866509Y-117859986D01*
X141832644Y-117854539D01*
X141795854Y-117849152D01*
X141758026Y-117844140D01*
X141721049Y-117839816D01*
X141686813Y-117836492D01*
X141684228Y-117836273D01*
X141647009Y-117832798D01*
X141620765Y-117829421D01*
X141602963Y-117825608D01*
X141591068Y-117820825D01*
X141582546Y-117814540D01*
X141575714Y-117806767D01*
X141567541Y-117785897D01*
X141570152Y-117764603D01*
X141582042Y-117745794D01*
X141601711Y-117732375D01*
X141627655Y-117727257D01*
X141627858Y-117727257D01*
X141652812Y-117728255D01*
X141687385Y-117730931D01*
X141727725Y-117734879D01*
X141769980Y-117739689D01*
X141810296Y-117744953D01*
X141844823Y-117750263D01*
X141859923Y-117752738D01*
X141879148Y-117754972D01*
X141886809Y-117753558D01*
X141882775Y-117747812D01*
X141866913Y-117737049D01*
X141839091Y-117720586D01*
X141838762Y-117720395D01*
X141807532Y-117699535D01*
X141789025Y-117679986D01*
X141782516Y-117660625D01*
X141787281Y-117640331D01*
X141797538Y-117625692D01*
X141814065Y-117611765D01*
X141824513Y-117606762D01*
X141837567Y-117605573D01*
X141855088Y-117611302D01*
X141867351Y-117616891D01*
X141902496Y-117636822D01*
X141942340Y-117663660D01*
X141983810Y-117695011D01*
X142023834Y-117728483D01*
X142059340Y-117761680D01*
X142087257Y-117792209D01*
X142093367Y-117798567D01*
X142111629Y-117811523D01*
X142139623Y-117825858D01*
X142179115Y-117842542D01*
X142198094Y-117850328D01*
X142243182Y-117870340D01*
X142291153Y-117893303D01*
X142338096Y-117917251D01*
X142380100Y-117940219D01*
X142413253Y-117960240D01*
X142435474Y-117974737D01*
X142435474Y-117933458D01*
X142434992Y-117912819D01*
X142431838Y-117895081D01*
X142423713Y-117879787D01*
X142408332Y-117860820D01*
X142397660Y-117848103D01*
X142377347Y-117822383D01*
X142360288Y-117799080D01*
X142346269Y-117781158D01*
X142328747Y-117767676D01*
X142304143Y-117758234D01*
X142292806Y-117755257D01*
X142263473Y-117749893D01*
X142237263Y-117747768D01*
X142228456Y-117747460D01*
X142207834Y-117744434D01*
X142194344Y-117739222D01*
X142191631Y-117736511D01*
X142181829Y-117722631D01*
X142169125Y-117701132D01*
X142155569Y-117675390D01*
X142140168Y-117647393D01*
X142101081Y-117595300D01*
X142053710Y-117554085D01*
X141997978Y-117523686D01*
X141933806Y-117504044D01*
X141890230Y-117498076D01*
X141827743Y-117500833D01*
X141765434Y-117517181D01*
X141741060Y-117527010D01*
X141706250Y-117545303D01*
X141673961Y-117568968D01*
X141639421Y-117601187D01*
X141601170Y-117639744D01*
X141553730Y-117634980D01*
X141541423Y-117634077D01*
X141492508Y-117637561D01*
X141449378Y-117651962D01*
X141413411Y-117676125D01*
X141385984Y-117708894D01*
X141368474Y-117749113D01*
X141362259Y-117795628D01*
X141366491Y-117835459D01*
X141382162Y-117877193D01*
X141408256Y-117911612D01*
X141443576Y-117937588D01*
X141486922Y-117953999D01*
X141537096Y-117959720D01*
X141582684Y-117959720D01*
X141638164Y-118016185D01*
X141657461Y-118035445D01*
X141682223Y-118059177D01*
X141703886Y-118078906D01*
X141719283Y-118091685D01*
X141733796Y-118103822D01*
X141742662Y-118117307D01*
X141744922Y-118134358D01*
X141744761Y-118138858D01*
X141737417Y-118162882D01*
X141720945Y-118179279D01*
X141697841Y-118185345D01*
X141695283Y-118185209D01*
X141675238Y-118179103D01*
X141649327Y-118165375D01*
X141620563Y-118146020D01*
X141591960Y-118123033D01*
X141566529Y-118098409D01*
X141549647Y-118081052D01*
X141535251Y-118070497D01*
X141518834Y-118065002D01*
X141494908Y-118061758D01*
X141463088Y-118056408D01*
X141409816Y-118037521D01*
X141362491Y-118008091D01*
X141322385Y-117969753D01*
X141290772Y-117924141D01*
X141268928Y-117872890D01*
X141258127Y-117817634D01*
X141259642Y-117760008D01*
X141265196Y-117731849D01*
X141285781Y-117677255D01*
X141317490Y-117628135D01*
X141358732Y-117586688D01*
X141407917Y-117555112D01*
X141418199Y-117550209D01*
X141445431Y-117539605D01*
X141473091Y-117533533D01*
X141507773Y-117530360D01*
X141526112Y-117529221D01*
X141548322Y-117526796D01*
X141563703Y-117522474D01*
X141576532Y-117514820D01*
X141591086Y-117502397D01*
X141642243Y-117462671D01*
X141705757Y-117428259D01*
X141773073Y-117405583D01*
X141842593Y-117394611D01*
X141912718Y-117395310D01*
X141981851Y-117407648D01*
X142048393Y-117431592D01*
X142110745Y-117467109D01*
X142167310Y-117514167D01*
X142173879Y-117520875D01*
X142198252Y-117548373D01*
X142220746Y-117577274D01*
X142237197Y-117602325D01*
X142246899Y-117618910D01*
X142258344Y-117635003D01*
X142268306Y-117642859D01*
X142279281Y-117645007D01*
X142283126Y-117645030D01*
X142291279Y-117643888D01*
X142295054Y-117638499D01*
X142295512Y-117625737D01*
X142293714Y-117602479D01*
X142291792Y-117584567D01*
X142287124Y-117564629D01*
X142277979Y-117548155D01*
X142261668Y-117528979D01*
X142225060Y-117482504D01*
X142199190Y-117432138D01*
X142185722Y-117378629D01*
X142184515Y-117337539D01*
X142288910Y-117337539D01*
X142289169Y-117351454D01*
X142292730Y-117382129D01*
X142301730Y-117408599D01*
X142317769Y-117433626D01*
X142342445Y-117459976D01*
X142377358Y-117490411D01*
X142386493Y-117498514D01*
X142393830Y-117509051D01*
X142396512Y-117523286D01*
X142396213Y-117546176D01*
X142396082Y-117570148D01*
X142404552Y-117634709D01*
X142425243Y-117696083D01*
X142457256Y-117752061D01*
X142499693Y-117800435D01*
X142543987Y-117835624D01*
X142595330Y-117862593D01*
X142651988Y-117878555D01*
X142679691Y-117884179D01*
X142703103Y-117891642D01*
X142718373Y-117901871D01*
X142728500Y-117917022D01*
X142736483Y-117939249D01*
X142752710Y-117983100D01*
X142776377Y-118022728D01*
X142806879Y-118052756D01*
X142845703Y-118075036D01*
X142864270Y-118082316D01*
X142892668Y-118090472D01*
X142917647Y-118094364D01*
X142936166Y-118093601D01*
X142945179Y-118087792D01*
X142945424Y-118083483D01*
X142942332Y-118067568D01*
X142935414Y-118044205D01*
X142925600Y-118016763D01*
X142875787Y-117903900D01*
X142809772Y-117785725D01*
X142731021Y-117670962D01*
X142717138Y-117652465D01*
X142699535Y-117629907D01*
X142685424Y-117615551D01*
X142671598Y-117607926D01*
X142654846Y-117605558D01*
X142631960Y-117606974D01*
X142599732Y-117610703D01*
X142572070Y-117612842D01*
X142540522Y-117610649D01*
X142519391Y-117601502D01*
X142507543Y-117584800D01*
X142503845Y-117559945D01*
X142503888Y-117557988D01*
X142511175Y-117536045D01*
X142529693Y-117519483D01*
X142557618Y-117510000D01*
X142587461Y-117504986D01*
X142535398Y-117455841D01*
X142528160Y-117448925D01*
X142502298Y-117421743D01*
X142487156Y-117399826D01*
X142482139Y-117381357D01*
X142486657Y-117364516D01*
X142500116Y-117347484D01*
X142509234Y-117339339D01*
X142521666Y-117332479D01*
X142535148Y-117331367D01*
X142551028Y-117336739D01*
X142570657Y-117349333D01*
X142595382Y-117369885D01*
X142626553Y-117399132D01*
X142665518Y-117437810D01*
X142698465Y-117470934D01*
X142723298Y-117495231D01*
X142740231Y-117510140D01*
X142750162Y-117515795D01*
X142753993Y-117512328D01*
X142752623Y-117499874D01*
X142746952Y-117478565D01*
X142737882Y-117448536D01*
X142734097Y-117434222D01*
X142731647Y-117403762D01*
X142739674Y-117381390D01*
X142758356Y-117366399D01*
X142761128Y-117365136D01*
X142785822Y-117360399D01*
X142807333Y-117368496D01*
X142825443Y-117388957D01*
X142839935Y-117421311D01*
X142850591Y-117465087D01*
X142857193Y-117519816D01*
X142859523Y-117585026D01*
X142859670Y-117669141D01*
X142890425Y-117716619D01*
X142901626Y-117734536D01*
X142927665Y-117779823D01*
X142955094Y-117831565D01*
X142981721Y-117885403D01*
X143005357Y-117936980D01*
X143023810Y-117981940D01*
X143029470Y-117996523D01*
X143039325Y-118019771D01*
X143047262Y-118035795D01*
X143051949Y-118041765D01*
X143052547Y-118041714D01*
X143061603Y-118035054D01*
X143073636Y-118019673D01*
X143086433Y-117999096D01*
X143097782Y-117976851D01*
X143105469Y-117956464D01*
X143110384Y-117927496D01*
X143110588Y-117889531D01*
X143105356Y-117852494D01*
X143095147Y-117822376D01*
X143093543Y-117819458D01*
X143081402Y-117801814D01*
X143063508Y-117779597D01*
X143043120Y-117756906D01*
X143036377Y-117749700D01*
X143019323Y-117730131D01*
X143007460Y-117714483D01*
X143003031Y-117705628D01*
X143003442Y-117701716D01*
X143006780Y-117686078D01*
X143012363Y-117665722D01*
X143020779Y-117631488D01*
X143026676Y-117566977D01*
X143019821Y-117504108D01*
X143000633Y-117444476D01*
X142969534Y-117389678D01*
X142926943Y-117341309D01*
X142898287Y-117317084D01*
X142849784Y-117286597D01*
X142797638Y-117267142D01*
X142739575Y-117257974D01*
X142673319Y-117258348D01*
X142606393Y-117262957D01*
X142575680Y-117232679D01*
X142551301Y-117210756D01*
X142520412Y-117190928D01*
X142487758Y-117180395D01*
X142449148Y-117177323D01*
X142419531Y-117179646D01*
X142375990Y-117192816D01*
X142339860Y-117216487D01*
X142312439Y-117249362D01*
X142295023Y-117290146D01*
X142288910Y-117337539D01*
X142184515Y-117337539D01*
X142184006Y-117320227D01*
X142187906Y-117288624D01*
X142203938Y-117234919D01*
X142230087Y-117187534D01*
X142264745Y-117147209D01*
X142306304Y-117114679D01*
X142353155Y-117090684D01*
X142403690Y-117075961D01*
X142456302Y-117071249D01*
X142509380Y-117077284D01*
X142561318Y-117094805D01*
X142610508Y-117124549D01*
X142645380Y-117151178D01*
X142726739Y-117154679D01*
X142771304Y-117157709D01*
X142819410Y-117165030D01*
X142861714Y-117177456D01*
X142902474Y-117196312D01*
X142945946Y-117222924D01*
X142986975Y-117254351D01*
X143036984Y-117306281D01*
X143077257Y-117365601D01*
X143107025Y-117430519D01*
X143125519Y-117499244D01*
X143131968Y-117569984D01*
X143125603Y-117640949D01*
X143118343Y-117680222D01*
X143143460Y-117708024D01*
X143161377Y-117731068D01*
X143185425Y-117773026D01*
X143204129Y-117819232D01*
X143214920Y-117864077D01*
X143216638Y-117879578D01*
X143216361Y-117889531D01*
G37*
%TD.AperFunction*%
%TD*%
D12*
%TO.P,J1,1,Pin_1*%
%TO.N,VCC*%
X148670000Y-114644000D03*
%TO.P,J1,2,Pin_2*%
%TO.N,FLEX*%
X150670000Y-114644000D03*
%TO.P,J1,3,Pin_3*%
%TO.N,X_AXIS*%
X152670000Y-114644000D03*
%TO.P,J1,4,Pin_4*%
%TO.N,Y_AXIS*%
X154670000Y-114644000D03*
%TO.P,J1,5,Pin_5*%
%TO.N,Z_AXIS*%
X156670000Y-114644000D03*
D13*
%TO.P,J1,6,Pin_6*%
%TO.N,GND*%
X158670000Y-114644000D03*
%TD*%
D14*
%TO.P,J2,1,Pin_1*%
%TO.N,unconnected-(J2-Pin_1-Pad1)*%
X163830000Y-105410000D03*
D15*
%TO.P,J2,2,Pin_2*%
%TO.N,unconnected-(J2-Pin_2-Pad2)*%
X161290000Y-105410000D03*
%TO.P,J2,3,Pin_3*%
%TO.N,unconnected-(J2-Pin_3-Pad3)*%
X158750000Y-105410000D03*
%TO.P,J2,4,Pin_4*%
%TO.N,Z_AXIS*%
X156210000Y-105410000D03*
%TO.P,J2,5,Pin_5*%
%TO.N,Y_AXIS*%
X153670000Y-105410000D03*
%TO.P,J2,6,Pin_6*%
%TO.N,X_AXIS*%
X151130000Y-105410000D03*
%TO.P,J2,7,Pin_7*%
%TO.N,unconnected-(J2-Pin_7-Pad7)*%
X148590000Y-105410000D03*
D16*
%TO.P,J2,8,Pin_8*%
%TO.N,GND*%
X146050000Y-105410000D03*
D15*
%TO.P,J2,9,Pin_9*%
%TO.N,+5V*%
X143510000Y-105410000D03*
%TD*%
D17*
%TO.N,GND*%
X157480000Y-91643200D03*
X160375600Y-102565200D03*
X151130000Y-99263200D03*
X153670000Y-99263200D03*
X156210000Y-99263200D03*
X160020000Y-82296000D03*
X141986000Y-104394000D03*
X144678400Y-107188000D03*
X165354000Y-104394000D03*
X147320000Y-82296000D03*
X163144200Y-109728000D03*
%TO.N,FLEX*%
X149225000Y-99187000D03*
%TD*%
D18*
%TO.N,X_AXIS*%
X152670000Y-113554000D02*
X152670000Y-114644000D01*
X151130000Y-105410000D02*
X151130000Y-112014000D01*
X151130000Y-112014000D02*
X152670000Y-113554000D01*
%TO.N,Y_AXIS*%
X153670000Y-112522000D02*
X154670000Y-113522000D01*
X154670000Y-113522000D02*
X154670000Y-114644000D01*
X153670000Y-105410000D02*
X153670000Y-112522000D01*
%TO.N,Z_AXIS*%
X156210000Y-105410000D02*
X156210000Y-113030000D01*
X156670000Y-113490000D02*
X156670000Y-114644000D01*
X156210000Y-113030000D02*
X156670000Y-113490000D01*
%TO.N,FLEX*%
X149860000Y-112776000D02*
X149860000Y-99822000D01*
X150670000Y-114644000D02*
X150670000Y-113586000D01*
X149860000Y-99822000D02*
X149225000Y-99187000D01*
X150670000Y-113586000D02*
X149860000Y-112776000D01*
%TD*%
%TA.AperFunction,Conductor*%
%TO.N,GND*%
G36*
X160280162Y-81281106D02*
G01*
X160410217Y-81293916D01*
X160434429Y-81298732D01*
X160553540Y-81334864D01*
X160576355Y-81344315D01*
X160686124Y-81402987D01*
X160706655Y-81416704D01*
X160802869Y-81495665D01*
X160820333Y-81513129D01*
X160899293Y-81609342D01*
X160913012Y-81629875D01*
X160971684Y-81739644D01*
X160981136Y-81762462D01*
X161017265Y-81881561D01*
X161022084Y-81905788D01*
X161034893Y-82035837D01*
X161035500Y-82048187D01*
X161035500Y-92430933D01*
X161035500Y-102317125D01*
X161035500Y-102362000D01*
X161035500Y-102461991D01*
X161066784Y-102659510D01*
X161066785Y-102659512D01*
X161128579Y-102849700D01*
X161219371Y-103027889D01*
X161336919Y-103189678D01*
X161478321Y-103331080D01*
X161640110Y-103448628D01*
X161818299Y-103539420D01*
X161866718Y-103555152D01*
X162008490Y-103601216D01*
X162206009Y-103632500D01*
X162280933Y-103632500D01*
X162306000Y-103632500D01*
X162350875Y-103632500D01*
X165309125Y-103632500D01*
X165347813Y-103632500D01*
X165360162Y-103633106D01*
X165490217Y-103645916D01*
X165514429Y-103650732D01*
X165633540Y-103686864D01*
X165656355Y-103696315D01*
X165766124Y-103754987D01*
X165786655Y-103768704D01*
X165882869Y-103847665D01*
X165900333Y-103865129D01*
X165979293Y-103961342D01*
X165993012Y-103981875D01*
X166051684Y-104091644D01*
X166061136Y-104114462D01*
X166097265Y-104233561D01*
X166102084Y-104257788D01*
X166114893Y-104387837D01*
X166115500Y-104400187D01*
X166115500Y-119105214D01*
X166098619Y-119168214D01*
X166052500Y-119214333D01*
X165989500Y-119231214D01*
X163066738Y-119231214D01*
X163066738Y-120523500D01*
X163049857Y-120586500D01*
X163003738Y-120632619D01*
X162940738Y-120649500D01*
X144449734Y-120649500D01*
X144390995Y-120634971D01*
X144345803Y-120594734D01*
X144324579Y-120538070D01*
X144322574Y-120520847D01*
X144323201Y-120487077D01*
X144325506Y-120472123D01*
X144325553Y-120471235D01*
X144328310Y-120453063D01*
X144328632Y-120451049D01*
X144333966Y-120419551D01*
X144335064Y-120413875D01*
X144340922Y-120387023D01*
X144342318Y-120381288D01*
X144350795Y-120349745D01*
X144352081Y-120345290D01*
X144362645Y-120311067D01*
X144364119Y-120306289D01*
X144364526Y-120305000D01*
X144370519Y-120286324D01*
X144370632Y-120285970D01*
X144372242Y-120281035D01*
X144376273Y-120271301D01*
X144382075Y-120250595D01*
X144383419Y-120246120D01*
X144383781Y-120244991D01*
X144391924Y-120226977D01*
X144392351Y-120224079D01*
X144394323Y-120210662D01*
X144396983Y-120198167D01*
X144397054Y-120197251D01*
X144397641Y-120195075D01*
X144397662Y-120194980D01*
X144397810Y-120194449D01*
X144409275Y-120152009D01*
X144437181Y-120114366D01*
X144440257Y-120111525D01*
X144440258Y-120111522D01*
X144441867Y-120110036D01*
X144446252Y-120102205D01*
X144446714Y-120101513D01*
X144456900Y-120089405D01*
X144469159Y-120072001D01*
X144473364Y-120066371D01*
X144482335Y-120055034D01*
X144482336Y-120055030D01*
X144484005Y-120052922D01*
X144486714Y-120048304D01*
X144489923Y-120043490D01*
X144489928Y-120043486D01*
X144501149Y-120026654D01*
X144502922Y-120024069D01*
X144514588Y-120007510D01*
X144514590Y-120007504D01*
X144518244Y-120002318D01*
X144520437Y-119998278D01*
X144523011Y-119994323D01*
X144523014Y-119994321D01*
X144535234Y-119975549D01*
X144535873Y-119974580D01*
X144544722Y-119961310D01*
X144545192Y-119960726D01*
X144546497Y-119958689D01*
X144547781Y-119956723D01*
X144554253Y-119947017D01*
X144555475Y-119944704D01*
X144555999Y-119943906D01*
X144556148Y-119943615D01*
X144563410Y-119932274D01*
X144563662Y-119931884D01*
X144571568Y-119919742D01*
X144572465Y-119918607D01*
X144576652Y-119911960D01*
X144577686Y-119910346D01*
X144582127Y-119903526D01*
X144582805Y-119902193D01*
X144590372Y-119890180D01*
X144590849Y-119889430D01*
X144592411Y-119886990D01*
X144596827Y-119880093D01*
X144598242Y-119878275D01*
X144603246Y-119870162D01*
X144603250Y-119870159D01*
X144615580Y-119850170D01*
X144616098Y-119849341D01*
X144619317Y-119844232D01*
X144622028Y-119840650D01*
X144625847Y-119834231D01*
X144625850Y-119834229D01*
X144635572Y-119817890D01*
X144638852Y-119813366D01*
X144642052Y-119807783D01*
X144649732Y-119796415D01*
X144650567Y-119794776D01*
X144650572Y-119794771D01*
X144656157Y-119783818D01*
X144660093Y-119776685D01*
X144665978Y-119766798D01*
X144665980Y-119766791D01*
X144668023Y-119763359D01*
X144674731Y-119747399D01*
X144701119Y-119695656D01*
X144706574Y-119686028D01*
X144711004Y-119678955D01*
X144712568Y-119674837D01*
X144718102Y-119662355D01*
X144720110Y-119658420D01*
X144722377Y-119650391D01*
X144725851Y-119639879D01*
X144748952Y-119579082D01*
X144752254Y-119571207D01*
X144757324Y-119560192D01*
X144757468Y-119559587D01*
X144762232Y-119544134D01*
X144762454Y-119543551D01*
X144764465Y-119531594D01*
X144766175Y-119523197D01*
X144767441Y-119517909D01*
X144781464Y-119459299D01*
X144783119Y-119453093D01*
X144787450Y-119438361D01*
X144787450Y-119438354D01*
X144787889Y-119436863D01*
X144789495Y-119427049D01*
X144789554Y-119425494D01*
X144789556Y-119425490D01*
X144790147Y-119410134D01*
X144790558Y-119403726D01*
X144796531Y-119337178D01*
X144797094Y-119332080D01*
X144797593Y-119328269D01*
X144799341Y-119314924D01*
X144799340Y-119314921D01*
X144799735Y-119311911D01*
X144799786Y-119307540D01*
X144799462Y-119304525D01*
X144799463Y-119304521D01*
X144797607Y-119287227D01*
X144797171Y-119282195D01*
X144792729Y-119215140D01*
X144792498Y-119210110D01*
X144792049Y-119192685D01*
X144792047Y-119192680D01*
X144791968Y-119189580D01*
X144791373Y-119185477D01*
X144790566Y-119182475D01*
X144790566Y-119182472D01*
X144786045Y-119165652D01*
X144784843Y-119160789D01*
X144770211Y-119096009D01*
X144768984Y-119089866D01*
X144766324Y-119074550D01*
X144766322Y-119074545D01*
X144766037Y-119072904D01*
X144763268Y-119063799D01*
X144760834Y-119058327D01*
X144756275Y-119048077D01*
X144753865Y-119042273D01*
X144734078Y-118991008D01*
X144729556Y-118976853D01*
X144728922Y-118974370D01*
X144724526Y-118965190D01*
X144720631Y-118956168D01*
X144716956Y-118946645D01*
X144716952Y-118946639D01*
X144716204Y-118944700D01*
X144715004Y-118942613D01*
X144715003Y-118942608D01*
X144709624Y-118933250D01*
X144705238Y-118924907D01*
X144700576Y-118915170D01*
X144700575Y-118915169D01*
X144700574Y-118915166D01*
X144699393Y-118913590D01*
X144690996Y-118900837D01*
X144675874Y-118874526D01*
X144657582Y-118842699D01*
X144653688Y-118835374D01*
X144648175Y-118824126D01*
X144648047Y-118823959D01*
X144638945Y-118810270D01*
X144638844Y-118810095D01*
X144638843Y-118810093D01*
X144630591Y-118800646D01*
X144625356Y-118794239D01*
X144579386Y-118734028D01*
X144574677Y-118727427D01*
X144567584Y-118716776D01*
X144556742Y-118704364D01*
X144547147Y-118695908D01*
X144541218Y-118690332D01*
X144488437Y-118637385D01*
X144482866Y-118631423D01*
X144478123Y-118626005D01*
X144474479Y-118621842D01*
X144474471Y-118621835D01*
X144462045Y-118610910D01*
X144462039Y-118610904D01*
X144456042Y-118606884D01*
X144451458Y-118603811D01*
X144444837Y-118599055D01*
X144386000Y-118553822D01*
X144379559Y-118548522D01*
X144370220Y-118540301D01*
X144370218Y-118540299D01*
X144370216Y-118540298D01*
X144369945Y-118540141D01*
X144356359Y-118531036D01*
X144356115Y-118530848D01*
X144344967Y-118525338D01*
X144337599Y-118521387D01*
X144273552Y-118484252D01*
X144266175Y-118479627D01*
X144256307Y-118472954D01*
X144255531Y-118472628D01*
X144241210Y-118465501D01*
X144240481Y-118465078D01*
X144229208Y-118461228D01*
X144221094Y-118458140D01*
X144152533Y-118429296D01*
X144144244Y-118425448D01*
X144134246Y-118420356D01*
X144132757Y-118419937D01*
X144118098Y-118414810D01*
X144116674Y-118414211D01*
X144116672Y-118414210D01*
X144116671Y-118414210D01*
X144105682Y-118411960D01*
X144096780Y-118409798D01*
X144024463Y-118389419D01*
X144015227Y-118386427D01*
X144005470Y-118382846D01*
X144003135Y-118382480D01*
X143988480Y-118379278D01*
X143986211Y-118378638D01*
X143975851Y-118377825D01*
X143966210Y-118376693D01*
X143892026Y-118365067D01*
X143881028Y-118362837D01*
X143873179Y-118360878D01*
X143870883Y-118360767D01*
X143868497Y-118360651D01*
X143855098Y-118359281D01*
X143850491Y-118358559D01*
X143842398Y-118358890D01*
X143831181Y-118358848D01*
X143779603Y-118356357D01*
X143765051Y-118354608D01*
X143748987Y-118354696D01*
X143742225Y-118354551D01*
X143725088Y-118353723D01*
X143718419Y-118354327D01*
X143715504Y-118354422D01*
X143706691Y-118353174D01*
X143692728Y-118354276D01*
X143679316Y-118354196D01*
X143664819Y-118355732D01*
X143655644Y-118356366D01*
X143640705Y-118356852D01*
X143613962Y-118359506D01*
X143606870Y-118359287D01*
X143589206Y-118365974D01*
X143570195Y-118370152D01*
X143548056Y-118377250D01*
X143540735Y-118378413D01*
X143502401Y-118390854D01*
X143444157Y-118381532D01*
X143396538Y-118346723D01*
X143369980Y-118294055D01*
X143370302Y-118235071D01*
X143370766Y-118233189D01*
X143390790Y-118189812D01*
X143397507Y-118180469D01*
X143397510Y-118180461D01*
X143397551Y-118180405D01*
X143397580Y-118180340D01*
X143397585Y-118180334D01*
X143407994Y-118157411D01*
X143432670Y-118103163D01*
X143443037Y-118080486D01*
X143443037Y-118080485D01*
X143443137Y-118080267D01*
X143443193Y-118080024D01*
X143443197Y-118080018D01*
X143445554Y-118069974D01*
X143446790Y-118067239D01*
X143451860Y-118044994D01*
X143451863Y-118044992D01*
X143462841Y-117996832D01*
X143462938Y-117996415D01*
X143468412Y-117973299D01*
X143468412Y-117973291D01*
X143468657Y-117972258D01*
X143469339Y-117947765D01*
X143469372Y-117946723D01*
X143470094Y-117926717D01*
X143472434Y-117906686D01*
X143475847Y-117889531D01*
X143474326Y-117881886D01*
X143473477Y-117871834D01*
X143470209Y-117852620D01*
X143468524Y-117836505D01*
X143468222Y-117828908D01*
X143467961Y-117827825D01*
X143465231Y-117812224D01*
X143465110Y-117811128D01*
X143463509Y-117806073D01*
X143459411Y-117789154D01*
X143456243Y-117770532D01*
X143451754Y-117759119D01*
X143449069Y-117745028D01*
X143446530Y-117737111D01*
X143439017Y-117720837D01*
X143436623Y-117715307D01*
X143425650Y-117688202D01*
X143423001Y-117681042D01*
X143418556Y-117667811D01*
X143412161Y-117654657D01*
X143408254Y-117648706D01*
X143391124Y-117609224D01*
X143389465Y-117584174D01*
X143388826Y-117584233D01*
X143388548Y-117581197D01*
X143388544Y-117575715D01*
X143385340Y-117545857D01*
X143385142Y-117543854D01*
X143379387Y-117480736D01*
X143379152Y-117477771D01*
X143377790Y-117457316D01*
X143377789Y-117457312D01*
X143377581Y-117454187D01*
X143376692Y-117451178D01*
X143376692Y-117451175D01*
X143370882Y-117431508D01*
X143370064Y-117428609D01*
X143354224Y-117369748D01*
X143353339Y-117366254D01*
X143348812Y-117347225D01*
X143348810Y-117347222D01*
X143347940Y-117343562D01*
X143346268Y-117340181D01*
X143346268Y-117340179D01*
X143337634Y-117322718D01*
X143336048Y-117319389D01*
X143310955Y-117264666D01*
X143309439Y-117261225D01*
X143300399Y-117239849D01*
X143286763Y-117221001D01*
X143284626Y-117217952D01*
X143250364Y-117167486D01*
X143248550Y-117164737D01*
X143235870Y-117144962D01*
X143219166Y-117128504D01*
X143216888Y-117126200D01*
X143176325Y-117084079D01*
X143172443Y-117079858D01*
X143160145Y-117065859D01*
X143154758Y-117061049D01*
X143139480Y-117050419D01*
X143134824Y-117047019D01*
X143126522Y-117040660D01*
X143114610Y-117031535D01*
X143105752Y-117024079D01*
X143100201Y-117018953D01*
X143095760Y-117016234D01*
X143084938Y-117008807D01*
X143080800Y-117005638D01*
X143074029Y-117002306D01*
X143063880Y-116996718D01*
X143048393Y-116987238D01*
X143039979Y-116981611D01*
X143032076Y-116975853D01*
X143029372Y-116974602D01*
X143016510Y-116967721D01*
X143013970Y-116966166D01*
X143013968Y-116966165D01*
X143013966Y-116966164D01*
X143004792Y-116962784D01*
X142995454Y-116958911D01*
X142976999Y-116950374D01*
X142971488Y-116947660D01*
X142955859Y-116939483D01*
X142947607Y-116936382D01*
X142930480Y-116932246D01*
X142924547Y-116930659D01*
X142902392Y-116924151D01*
X142895014Y-116921735D01*
X142882185Y-116917090D01*
X142867389Y-116913807D01*
X142853809Y-116912591D01*
X142846101Y-116911660D01*
X142830906Y-116909348D01*
X142816959Y-116906411D01*
X142813577Y-116905496D01*
X142804350Y-116904868D01*
X142793963Y-116903727D01*
X142778792Y-116901419D01*
X142775153Y-116901065D01*
X142775112Y-116902025D01*
X142764225Y-116901556D01*
X142756173Y-116899219D01*
X142751578Y-116898773D01*
X142750688Y-116898556D01*
X142750899Y-116897689D01*
X142706854Y-116884911D01*
X142691794Y-116876254D01*
X142689394Y-116874839D01*
X142669120Y-116862580D01*
X142659482Y-116859329D01*
X142654425Y-116856475D01*
X142624256Y-116846824D01*
X142619741Y-116845285D01*
X142583002Y-116831979D01*
X142575112Y-116830866D01*
X142565055Y-116827474D01*
X142558985Y-116826784D01*
X142556752Y-116826078D01*
X142525806Y-116822751D01*
X142523071Y-116822426D01*
X142471834Y-116815780D01*
X142466047Y-116816216D01*
X142459357Y-116815455D01*
X142434833Y-116817651D01*
X142434066Y-116817718D01*
X142396726Y-116820830D01*
X142384720Y-116821831D01*
X142384719Y-116821831D01*
X142361365Y-116823778D01*
X142359328Y-116824366D01*
X142356295Y-116824631D01*
X142346615Y-116827474D01*
X142332347Y-116831664D01*
X142332184Y-116831711D01*
X142332089Y-116831739D01*
X142283134Y-116846002D01*
X142282347Y-116846229D01*
X142258645Y-116852967D01*
X142236637Y-116864419D01*
X142235916Y-116864791D01*
X142191257Y-116887664D01*
X142190638Y-116887979D01*
X142168533Y-116899146D01*
X142151826Y-116912373D01*
X142151318Y-116912773D01*
X142107104Y-116947407D01*
X142107072Y-116947432D01*
X142088101Y-116962282D01*
X142085174Y-116965688D01*
X142082413Y-116967874D01*
X142036666Y-117022118D01*
X142035908Y-117023008D01*
X142019956Y-117041570D01*
X142015972Y-117048789D01*
X142011824Y-117053798D01*
X142001417Y-117073475D01*
X141954512Y-117122818D01*
X141888784Y-117140557D01*
X141850797Y-117140179D01*
X141847040Y-117140085D01*
X141823842Y-117139161D01*
X141801023Y-117143464D01*
X141797321Y-117144105D01*
X141738633Y-117153367D01*
X141735148Y-117153867D01*
X141712015Y-117156857D01*
X141690070Y-117164939D01*
X141686754Y-117166107D01*
X141628999Y-117185562D01*
X141626043Y-117186518D01*
X141603519Y-117193491D01*
X141583117Y-117205207D01*
X141580397Y-117206724D01*
X141526462Y-117235945D01*
X141522828Y-117237838D01*
X141502197Y-117248162D01*
X141495581Y-117253654D01*
X141441983Y-117279801D01*
X141441612Y-117279882D01*
X141426230Y-117282257D01*
X141424939Y-117282375D01*
X141413935Y-117285629D01*
X141405221Y-117287870D01*
X141398501Y-117289345D01*
X141393432Y-117290349D01*
X141372444Y-117294061D01*
X141317936Y-117291706D01*
X141269534Y-117266530D01*
X141236312Y-117223252D01*
X141224500Y-117169987D01*
X141224500Y-114965336D01*
X147815500Y-114965336D01*
X147830556Y-115103774D01*
X147889902Y-115279909D01*
X147961041Y-115398143D01*
X147985727Y-115439171D01*
X148108046Y-115568302D01*
X148113547Y-115574109D01*
X148267383Y-115678412D01*
X148267384Y-115678412D01*
X148267385Y-115678413D01*
X148440049Y-115747209D01*
X148531757Y-115762243D01*
X148623464Y-115777278D01*
X148623464Y-115777277D01*
X148623465Y-115777278D01*
X148809058Y-115767216D01*
X148988148Y-115717492D01*
X149152362Y-115630431D01*
X149294021Y-115510105D01*
X149406502Y-115362139D01*
X149484545Y-115193452D01*
X149524500Y-115011933D01*
X149524500Y-114322668D01*
X149509443Y-114184225D01*
X149450097Y-114008090D01*
X149371016Y-113876657D01*
X149354273Y-113848829D01*
X149226454Y-113713892D01*
X149226453Y-113713891D01*
X149226452Y-113713890D01*
X149072616Y-113609587D01*
X148899949Y-113540790D01*
X148716535Y-113510721D01*
X148530941Y-113520784D01*
X148351853Y-113570507D01*
X148187636Y-113657569D01*
X148045979Y-113777893D01*
X147933498Y-113925860D01*
X147855454Y-114094551D01*
X147815500Y-114276066D01*
X147815500Y-114965336D01*
X141224500Y-114965336D01*
X141224500Y-105410000D01*
X142400767Y-105410000D01*
X142419654Y-105613819D01*
X142475672Y-105810702D01*
X142566910Y-105993933D01*
X142619500Y-106063573D01*
X142690268Y-106157285D01*
X142841538Y-106295186D01*
X142958127Y-106367375D01*
X142975503Y-106378134D01*
X143015573Y-106402944D01*
X143206444Y-106476888D01*
X143407653Y-106514500D01*
X143612345Y-106514500D01*
X143612347Y-106514500D01*
X143813556Y-106476888D01*
X144004427Y-106402944D01*
X144178462Y-106295186D01*
X144329732Y-106157285D01*
X144453088Y-105993935D01*
X144453089Y-105993933D01*
X144461210Y-105977625D01*
X144505702Y-105927904D01*
X144569344Y-105907874D01*
X144634293Y-105923150D01*
X144682335Y-105969449D01*
X144700000Y-106033788D01*
X144700000Y-106307828D01*
X144706402Y-106367375D01*
X144756646Y-106502088D01*
X144842810Y-106617189D01*
X144957911Y-106703353D01*
X145092624Y-106753597D01*
X145152172Y-106760000D01*
X145800000Y-106760000D01*
X146300000Y-106760000D01*
X146947828Y-106760000D01*
X147007375Y-106753597D01*
X147142088Y-106703353D01*
X147257189Y-106617189D01*
X147343353Y-106502088D01*
X147393597Y-106367375D01*
X147400000Y-106307828D01*
X147400000Y-106033788D01*
X147417665Y-105969449D01*
X147465707Y-105923150D01*
X147530656Y-105907874D01*
X147594298Y-105927904D01*
X147638790Y-105977625D01*
X147646910Y-105993933D01*
X147699500Y-106063573D01*
X147770268Y-106157285D01*
X147921538Y-106295186D01*
X148038127Y-106367375D01*
X148055503Y-106378134D01*
X148095573Y-106402944D01*
X148286444Y-106476888D01*
X148487653Y-106514500D01*
X148692345Y-106514500D01*
X148692347Y-106514500D01*
X148893556Y-106476888D01*
X149084427Y-106402944D01*
X149258462Y-106295186D01*
X149269615Y-106285018D01*
X149320018Y-106256944D01*
X149377652Y-106254279D01*
X149430432Y-106277584D01*
X149467291Y-106321971D01*
X149480500Y-106378134D01*
X149480500Y-112723574D01*
X149477818Y-112749432D01*
X149475580Y-112760100D01*
X149479532Y-112791796D01*
X149480500Y-112807382D01*
X149480500Y-112807448D01*
X149483955Y-112828159D01*
X149484705Y-112833304D01*
X149492241Y-112893751D01*
X149492276Y-112893861D01*
X149521255Y-112947410D01*
X149523638Y-112952039D01*
X149550406Y-113006793D01*
X149550461Y-113006866D01*
X149595284Y-113048130D01*
X149599041Y-113051735D01*
X150100313Y-113553007D01*
X150133763Y-113612798D01*
X150130981Y-113681254D01*
X150092789Y-113738134D01*
X150045979Y-113777894D01*
X149933498Y-113925860D01*
X149855454Y-114094551D01*
X149815500Y-114276066D01*
X149815500Y-114965336D01*
X149830556Y-115103774D01*
X149889902Y-115279909D01*
X149961041Y-115398143D01*
X149985727Y-115439171D01*
X150108046Y-115568302D01*
X150113547Y-115574109D01*
X150267383Y-115678412D01*
X150267384Y-115678412D01*
X150267385Y-115678413D01*
X150440049Y-115747209D01*
X150531757Y-115762243D01*
X150623464Y-115777278D01*
X150623464Y-115777277D01*
X150623465Y-115777278D01*
X150809058Y-115767216D01*
X150988148Y-115717492D01*
X151152362Y-115630431D01*
X151294021Y-115510105D01*
X151406502Y-115362139D01*
X151484545Y-115193452D01*
X151524500Y-115011933D01*
X151524500Y-114322668D01*
X151509443Y-114184225D01*
X151450097Y-114008090D01*
X151371016Y-113876657D01*
X151354273Y-113848829D01*
X151287079Y-113777893D01*
X151226454Y-113713891D01*
X151101590Y-113629232D01*
X151066234Y-113592958D01*
X151048020Y-113545691D01*
X151046036Y-113533804D01*
X151045302Y-113528768D01*
X151038752Y-113476217D01*
X151038750Y-113476212D01*
X151037755Y-113468230D01*
X151037730Y-113468150D01*
X151008734Y-113414568D01*
X151006351Y-113409939D01*
X150979592Y-113355203D01*
X150979545Y-113355140D01*
X150973619Y-113349685D01*
X150973619Y-113349684D01*
X150934713Y-113313868D01*
X150930957Y-113310263D01*
X150276405Y-112655711D01*
X150249091Y-112614834D01*
X150239500Y-112566616D01*
X150239500Y-106378134D01*
X150252709Y-106321971D01*
X150289568Y-106277584D01*
X150342348Y-106254279D01*
X150399982Y-106256944D01*
X150450384Y-106285018D01*
X150461538Y-106295186D01*
X150534509Y-106340368D01*
X150635570Y-106402943D01*
X150635573Y-106402944D01*
X150670017Y-106416287D01*
X150712213Y-106443322D01*
X150740534Y-106484666D01*
X150750500Y-106533779D01*
X150750500Y-111961574D01*
X150747818Y-111987432D01*
X150745580Y-111998100D01*
X150749532Y-112029796D01*
X150750500Y-112045382D01*
X150750500Y-112045448D01*
X150753955Y-112066159D01*
X150754705Y-112071304D01*
X150762241Y-112131751D01*
X150762276Y-112131861D01*
X150791255Y-112185410D01*
X150793638Y-112190039D01*
X150820406Y-112244793D01*
X150820461Y-112244866D01*
X150865284Y-112286130D01*
X150869041Y-112289735D01*
X152117616Y-113538310D01*
X152151066Y-113598102D01*
X152148284Y-113666558D01*
X152110091Y-113723438D01*
X152045979Y-113777894D01*
X151933498Y-113925860D01*
X151855454Y-114094551D01*
X151815500Y-114276066D01*
X151815500Y-114965336D01*
X151830556Y-115103774D01*
X151889902Y-115279909D01*
X151961041Y-115398143D01*
X151985727Y-115439171D01*
X152108046Y-115568302D01*
X152113547Y-115574109D01*
X152267383Y-115678412D01*
X152267384Y-115678412D01*
X152267385Y-115678413D01*
X152440049Y-115747209D01*
X152531757Y-115762243D01*
X152623464Y-115777278D01*
X152623464Y-115777277D01*
X152623465Y-115777278D01*
X152809058Y-115767216D01*
X152988148Y-115717492D01*
X153152362Y-115630431D01*
X153294021Y-115510105D01*
X153406502Y-115362139D01*
X153484545Y-115193452D01*
X153524500Y-115011933D01*
X153524500Y-114322668D01*
X153509443Y-114184225D01*
X153450097Y-114008090D01*
X153371016Y-113876657D01*
X153354273Y-113848829D01*
X153226454Y-113713892D01*
X153226453Y-113713891D01*
X153226452Y-113713890D01*
X153105403Y-113631817D01*
X153068660Y-113593332D01*
X153051080Y-113543112D01*
X153050468Y-113538202D01*
X153049500Y-113522618D01*
X153049500Y-113522558D01*
X153047525Y-113510722D01*
X153046040Y-113501823D01*
X153045294Y-113496700D01*
X153044528Y-113490558D01*
X153038752Y-113444218D01*
X153038751Y-113444217D01*
X153037756Y-113436228D01*
X153037732Y-113436155D01*
X153033900Y-113429074D01*
X153033900Y-113429073D01*
X153008746Y-113382593D01*
X153006362Y-113377961D01*
X152979593Y-113323204D01*
X152979545Y-113323140D01*
X152973619Y-113317685D01*
X152973619Y-113317684D01*
X152938858Y-113285684D01*
X152934713Y-113281868D01*
X152930957Y-113278263D01*
X151546405Y-111893711D01*
X151519091Y-111852834D01*
X151509500Y-111804616D01*
X151509500Y-106533779D01*
X151519466Y-106484666D01*
X151547787Y-106443322D01*
X151589982Y-106416287D01*
X151624427Y-106402944D01*
X151798462Y-106295186D01*
X151949732Y-106157285D01*
X152073088Y-105993935D01*
X152164328Y-105810701D01*
X152220345Y-105613821D01*
X152239232Y-105410000D01*
X152239232Y-105409999D01*
X152560767Y-105409999D01*
X152579654Y-105613819D01*
X152635672Y-105810702D01*
X152726910Y-105993933D01*
X152779500Y-106063573D01*
X152850268Y-106157285D01*
X153001538Y-106295186D01*
X153074509Y-106340368D01*
X153175570Y-106402943D01*
X153175573Y-106402944D01*
X153210017Y-106416287D01*
X153252213Y-106443322D01*
X153280534Y-106484666D01*
X153290500Y-106533779D01*
X153290500Y-112469574D01*
X153287818Y-112495432D01*
X153285580Y-112506100D01*
X153289532Y-112537796D01*
X153290500Y-112553382D01*
X153290500Y-112553448D01*
X153293955Y-112574159D01*
X153294705Y-112579304D01*
X153302241Y-112639751D01*
X153302276Y-112639861D01*
X153331255Y-112693410D01*
X153333638Y-112698039D01*
X153360406Y-112752793D01*
X153360461Y-112752866D01*
X153405284Y-112794130D01*
X153409041Y-112797735D01*
X154134918Y-113523612D01*
X154168368Y-113583403D01*
X154165586Y-113651859D01*
X154127394Y-113708739D01*
X154045980Y-113777893D01*
X153933498Y-113925860D01*
X153855454Y-114094551D01*
X153815500Y-114276066D01*
X153815500Y-114965336D01*
X153830556Y-115103774D01*
X153889902Y-115279909D01*
X153961041Y-115398143D01*
X153985727Y-115439171D01*
X154108046Y-115568302D01*
X154113547Y-115574109D01*
X154267383Y-115678412D01*
X154267384Y-115678412D01*
X154267385Y-115678413D01*
X154440049Y-115747209D01*
X154531757Y-115762243D01*
X154623464Y-115777278D01*
X154623464Y-115777277D01*
X154623465Y-115777278D01*
X154809058Y-115767216D01*
X154988148Y-115717492D01*
X155152362Y-115630431D01*
X155294021Y-115510105D01*
X155406502Y-115362139D01*
X155484545Y-115193452D01*
X155524500Y-115011933D01*
X155524500Y-114322668D01*
X155509443Y-114184225D01*
X155450097Y-114008090D01*
X155371016Y-113876657D01*
X155354273Y-113848829D01*
X155226454Y-113713892D01*
X155226453Y-113713891D01*
X155226452Y-113713890D01*
X155109760Y-113634771D01*
X155073018Y-113596286D01*
X155055437Y-113546067D01*
X155050468Y-113506203D01*
X155049500Y-113490618D01*
X155049500Y-113490558D01*
X155049500Y-113490557D01*
X155046040Y-113469823D01*
X155045294Y-113464700D01*
X155037756Y-113404228D01*
X155037732Y-113404155D01*
X155033900Y-113397074D01*
X155033900Y-113397073D01*
X155008746Y-113350593D01*
X155006362Y-113345961D01*
X154979593Y-113291204D01*
X154979545Y-113291140D01*
X154973619Y-113285685D01*
X154973619Y-113285684D01*
X154934713Y-113249868D01*
X154930957Y-113246263D01*
X154086405Y-112401711D01*
X154059091Y-112360834D01*
X154049500Y-112312616D01*
X154049500Y-106533779D01*
X154059466Y-106484666D01*
X154087787Y-106443322D01*
X154129982Y-106416287D01*
X154164427Y-106402944D01*
X154338462Y-106295186D01*
X154489732Y-106157285D01*
X154613088Y-105993935D01*
X154704328Y-105810701D01*
X154760345Y-105613821D01*
X154779232Y-105410000D01*
X154779232Y-105409999D01*
X155100767Y-105409999D01*
X155119654Y-105613819D01*
X155175672Y-105810702D01*
X155266910Y-105993933D01*
X155319500Y-106063573D01*
X155390268Y-106157285D01*
X155541538Y-106295186D01*
X155614509Y-106340368D01*
X155715570Y-106402943D01*
X155715573Y-106402944D01*
X155750017Y-106416287D01*
X155792213Y-106443322D01*
X155820534Y-106484666D01*
X155830500Y-106533779D01*
X155830500Y-112977574D01*
X155827818Y-113003432D01*
X155825580Y-113014100D01*
X155829532Y-113045796D01*
X155830500Y-113061382D01*
X155830500Y-113061448D01*
X155833955Y-113082159D01*
X155834705Y-113087304D01*
X155842241Y-113147751D01*
X155842276Y-113147861D01*
X155871255Y-113201410D01*
X155873638Y-113206039D01*
X155900406Y-113260793D01*
X155900461Y-113260866D01*
X155945284Y-113302130D01*
X155949041Y-113305735D01*
X156152221Y-113508915D01*
X156185671Y-113568706D01*
X156182889Y-113637162D01*
X156144697Y-113694042D01*
X156045980Y-113777893D01*
X155933498Y-113925860D01*
X155855454Y-114094551D01*
X155815500Y-114276066D01*
X155815500Y-114965336D01*
X155830556Y-115103774D01*
X155889902Y-115279909D01*
X155961041Y-115398143D01*
X155985727Y-115439171D01*
X156108046Y-115568302D01*
X156113547Y-115574109D01*
X156267383Y-115678412D01*
X156267384Y-115678412D01*
X156267385Y-115678413D01*
X156440049Y-115747209D01*
X156531757Y-115762243D01*
X156623464Y-115777278D01*
X156623464Y-115777277D01*
X156623465Y-115777278D01*
X156809058Y-115767216D01*
X156988148Y-115717492D01*
X157152362Y-115630431D01*
X157294021Y-115510105D01*
X157378362Y-115399156D01*
X157431691Y-115358495D01*
X157498331Y-115350954D01*
X157559400Y-115378671D01*
X157597597Y-115433795D01*
X157644662Y-115568302D01*
X157740577Y-115720949D01*
X157868050Y-115848422D01*
X158020694Y-115944335D01*
X158190856Y-116003876D01*
X158325077Y-116019000D01*
X158420000Y-116019000D01*
X158420000Y-114894000D01*
X158920000Y-114894000D01*
X158920000Y-116019000D01*
X159014923Y-116019000D01*
X159149143Y-116003876D01*
X159319305Y-115944335D01*
X159471949Y-115848422D01*
X159599422Y-115720949D01*
X159695335Y-115568305D01*
X159754876Y-115398143D01*
X159770000Y-115263923D01*
X159770000Y-114894000D01*
X158920000Y-114894000D01*
X158420000Y-114894000D01*
X158420000Y-113269000D01*
X158920000Y-113269000D01*
X158920000Y-114394000D01*
X159770000Y-114394000D01*
X159770000Y-114024077D01*
X159754876Y-113889856D01*
X159695335Y-113719694D01*
X159599422Y-113567050D01*
X159471949Y-113439577D01*
X159319305Y-113343664D01*
X159149143Y-113284123D01*
X159014923Y-113269000D01*
X158920000Y-113269000D01*
X158420000Y-113269000D01*
X158325077Y-113269000D01*
X158190856Y-113284123D01*
X158020694Y-113343664D01*
X157868050Y-113439577D01*
X157740577Y-113567050D01*
X157644662Y-113719697D01*
X157597909Y-113853313D01*
X157557062Y-113910588D01*
X157491875Y-113937036D01*
X157422669Y-113924415D01*
X157371018Y-113876660D01*
X157354273Y-113848829D01*
X157226454Y-113713892D01*
X157197177Y-113694042D01*
X157107600Y-113633307D01*
X157072990Y-113598183D01*
X157054511Y-113552466D01*
X157054925Y-113509970D01*
X157052505Y-113490558D01*
X157050467Y-113474210D01*
X157049500Y-113458625D01*
X157049500Y-113458555D01*
X157046044Y-113437851D01*
X157045296Y-113432727D01*
X157038752Y-113380217D01*
X157038751Y-113380215D01*
X157037756Y-113372230D01*
X157037730Y-113372150D01*
X157008734Y-113318568D01*
X157006351Y-113313939D01*
X156979592Y-113259203D01*
X156979545Y-113259140D01*
X156973619Y-113253685D01*
X156973619Y-113253684D01*
X156934713Y-113217868D01*
X156930957Y-113214263D01*
X156626405Y-112909711D01*
X156599091Y-112868834D01*
X156589500Y-112820616D01*
X156589500Y-106533779D01*
X156599466Y-106484666D01*
X156627787Y-106443322D01*
X156669982Y-106416287D01*
X156704427Y-106402944D01*
X156878462Y-106295186D01*
X157029732Y-106157285D01*
X157153088Y-105993935D01*
X157244328Y-105810701D01*
X157300345Y-105613821D01*
X157319232Y-105410000D01*
X157319232Y-105409999D01*
X157640767Y-105409999D01*
X157659654Y-105613819D01*
X157715672Y-105810702D01*
X157806910Y-105993933D01*
X157859500Y-106063573D01*
X157930268Y-106157285D01*
X158081538Y-106295186D01*
X158198127Y-106367375D01*
X158215503Y-106378134D01*
X158255573Y-106402944D01*
X158446444Y-106476888D01*
X158647653Y-106514500D01*
X158852345Y-106514500D01*
X158852347Y-106514500D01*
X159053556Y-106476888D01*
X159244427Y-106402944D01*
X159418462Y-106295186D01*
X159569732Y-106157285D01*
X159693088Y-105993935D01*
X159784328Y-105810701D01*
X159840345Y-105613821D01*
X159859232Y-105410000D01*
X159859232Y-105409999D01*
X160180767Y-105409999D01*
X160199654Y-105613819D01*
X160255672Y-105810702D01*
X160346910Y-105993933D01*
X160399500Y-106063573D01*
X160470268Y-106157285D01*
X160621538Y-106295186D01*
X160738127Y-106367375D01*
X160755503Y-106378134D01*
X160795573Y-106402944D01*
X160986444Y-106476888D01*
X161187653Y-106514500D01*
X161392345Y-106514500D01*
X161392347Y-106514500D01*
X161593556Y-106476888D01*
X161784427Y-106402944D01*
X161958462Y-106295186D01*
X162109732Y-106157285D01*
X162233088Y-105993935D01*
X162324328Y-105810701D01*
X162380345Y-105613821D01*
X162399232Y-105410000D01*
X162399232Y-105409999D01*
X162720767Y-105409999D01*
X162739654Y-105613819D01*
X162795672Y-105810702D01*
X162886910Y-105993933D01*
X162939500Y-106063573D01*
X163010268Y-106157285D01*
X163161538Y-106295186D01*
X163278127Y-106367375D01*
X163295503Y-106378134D01*
X163335573Y-106402944D01*
X163526444Y-106476888D01*
X163727653Y-106514500D01*
X163932345Y-106514500D01*
X163932347Y-106514500D01*
X164133556Y-106476888D01*
X164324427Y-106402944D01*
X164498462Y-106295186D01*
X164649732Y-106157285D01*
X164773088Y-105993935D01*
X164864328Y-105810701D01*
X164920345Y-105613821D01*
X164939232Y-105410000D01*
X164920345Y-105206179D01*
X164864328Y-105009299D01*
X164863585Y-105007807D01*
X164773089Y-104826066D01*
X164720500Y-104756427D01*
X164649732Y-104662715D01*
X164498462Y-104524814D01*
X164450087Y-104494861D01*
X164324428Y-104417056D01*
X164228991Y-104380084D01*
X164133556Y-104343112D01*
X163932347Y-104305500D01*
X163727653Y-104305500D01*
X163526444Y-104343111D01*
X163526444Y-104343112D01*
X163335571Y-104417056D01*
X163161539Y-104524813D01*
X163010267Y-104662716D01*
X162886910Y-104826066D01*
X162795672Y-105009297D01*
X162739654Y-105206180D01*
X162720767Y-105409999D01*
X162399232Y-105409999D01*
X162380345Y-105206179D01*
X162324328Y-105009299D01*
X162323585Y-105007807D01*
X162233089Y-104826066D01*
X162180500Y-104756427D01*
X162109732Y-104662715D01*
X161958462Y-104524814D01*
X161910087Y-104494861D01*
X161784428Y-104417056D01*
X161688991Y-104380084D01*
X161593556Y-104343112D01*
X161392347Y-104305500D01*
X161187653Y-104305500D01*
X160986444Y-104343111D01*
X160986444Y-104343112D01*
X160795571Y-104417056D01*
X160621539Y-104524813D01*
X160470267Y-104662716D01*
X160346910Y-104826066D01*
X160255672Y-105009297D01*
X160199654Y-105206180D01*
X160180767Y-105409999D01*
X159859232Y-105409999D01*
X159840345Y-105206179D01*
X159784328Y-105009299D01*
X159783585Y-105007807D01*
X159693089Y-104826066D01*
X159640500Y-104756427D01*
X159569732Y-104662715D01*
X159418462Y-104524814D01*
X159370087Y-104494861D01*
X159244428Y-104417056D01*
X159148991Y-104380084D01*
X159053556Y-104343112D01*
X158852347Y-104305500D01*
X158647653Y-104305500D01*
X158446444Y-104343111D01*
X158446444Y-104343112D01*
X158255571Y-104417056D01*
X158081539Y-104524813D01*
X157930267Y-104662716D01*
X157806910Y-104826066D01*
X157715672Y-105009297D01*
X157659654Y-105206180D01*
X157640767Y-105409999D01*
X157319232Y-105409999D01*
X157300345Y-105206179D01*
X157244328Y-105009299D01*
X157243585Y-105007807D01*
X157153089Y-104826066D01*
X157100500Y-104756427D01*
X157029732Y-104662715D01*
X156878462Y-104524814D01*
X156830087Y-104494861D01*
X156704428Y-104417056D01*
X156608991Y-104380084D01*
X156513556Y-104343112D01*
X156312347Y-104305500D01*
X156107653Y-104305500D01*
X155906444Y-104343111D01*
X155906444Y-104343112D01*
X155715571Y-104417056D01*
X155541539Y-104524813D01*
X155390267Y-104662716D01*
X155266910Y-104826066D01*
X155175672Y-105009297D01*
X155119654Y-105206180D01*
X155100767Y-105409999D01*
X154779232Y-105409999D01*
X154760345Y-105206179D01*
X154704328Y-105009299D01*
X154703585Y-105007807D01*
X154613089Y-104826066D01*
X154560500Y-104756427D01*
X154489732Y-104662715D01*
X154338462Y-104524814D01*
X154290087Y-104494861D01*
X154164428Y-104417056D01*
X154068991Y-104380084D01*
X153973556Y-104343112D01*
X153772347Y-104305500D01*
X153567653Y-104305500D01*
X153366444Y-104343111D01*
X153366444Y-104343112D01*
X153175571Y-104417056D01*
X153001539Y-104524813D01*
X152850267Y-104662716D01*
X152726910Y-104826066D01*
X152635672Y-105009297D01*
X152579654Y-105206180D01*
X152560767Y-105409999D01*
X152239232Y-105409999D01*
X152220345Y-105206179D01*
X152164328Y-105009299D01*
X152163585Y-105007807D01*
X152073089Y-104826066D01*
X152020500Y-104756427D01*
X151949732Y-104662715D01*
X151798462Y-104524814D01*
X151750087Y-104494861D01*
X151624428Y-104417056D01*
X151528991Y-104380084D01*
X151433556Y-104343112D01*
X151232347Y-104305500D01*
X151027653Y-104305500D01*
X150826444Y-104343111D01*
X150826444Y-104343112D01*
X150635571Y-104417056D01*
X150461539Y-104524813D01*
X150461537Y-104524814D01*
X150461538Y-104524814D01*
X150450384Y-104534981D01*
X150399982Y-104563056D01*
X150342348Y-104565721D01*
X150289568Y-104542416D01*
X150252709Y-104498029D01*
X150239500Y-104441866D01*
X150239500Y-99874426D01*
X150242182Y-99848568D01*
X150244419Y-99837899D01*
X150240468Y-99806204D01*
X150239500Y-99790618D01*
X150239500Y-99790558D01*
X150239500Y-99790557D01*
X150236040Y-99769823D01*
X150235294Y-99764700D01*
X150227756Y-99704228D01*
X150227732Y-99704155D01*
X150223900Y-99697074D01*
X150223900Y-99697073D01*
X150198746Y-99650593D01*
X150196362Y-99645961D01*
X150169593Y-99591204D01*
X150169545Y-99591140D01*
X150163619Y-99585685D01*
X150163619Y-99585684D01*
X150124713Y-99549868D01*
X150120957Y-99546263D01*
X149914411Y-99339717D01*
X149884398Y-99291723D01*
X149878425Y-99235437D01*
X149884307Y-99187000D01*
X149865149Y-99029218D01*
X149808787Y-98880605D01*
X149718498Y-98749799D01*
X149599529Y-98644401D01*
X149458793Y-98570537D01*
X149304471Y-98532500D01*
X149145529Y-98532500D01*
X148991207Y-98570537D01*
X148991206Y-98570537D01*
X148991204Y-98570538D01*
X148850472Y-98644400D01*
X148731501Y-98749799D01*
X148641212Y-98880605D01*
X148584850Y-99029219D01*
X148565693Y-99187000D01*
X148584850Y-99344780D01*
X148641212Y-99493394D01*
X148708725Y-99591204D01*
X148731502Y-99624201D01*
X148850471Y-99729599D01*
X148991207Y-99803463D01*
X149145529Y-99841500D01*
X149145531Y-99841500D01*
X149290616Y-99841500D01*
X149338834Y-99851091D01*
X149379711Y-99878405D01*
X149443595Y-99942289D01*
X149470909Y-99983166D01*
X149480500Y-100031384D01*
X149480500Y-104441866D01*
X149467291Y-104498029D01*
X149430432Y-104542416D01*
X149377652Y-104565721D01*
X149320018Y-104563056D01*
X149269615Y-104534981D01*
X149258462Y-104524814D01*
X149210087Y-104494861D01*
X149084428Y-104417056D01*
X148988991Y-104380084D01*
X148893556Y-104343112D01*
X148692347Y-104305500D01*
X148487653Y-104305500D01*
X148286444Y-104343111D01*
X148286444Y-104343112D01*
X148095571Y-104417056D01*
X147921539Y-104524813D01*
X147770267Y-104662716D01*
X147646910Y-104826066D01*
X147638790Y-104842375D01*
X147594298Y-104892096D01*
X147530656Y-104912126D01*
X147465707Y-104896850D01*
X147417665Y-104850551D01*
X147400000Y-104786212D01*
X147400000Y-104512172D01*
X147393597Y-104452624D01*
X147343353Y-104317911D01*
X147257189Y-104202810D01*
X147142088Y-104116646D01*
X147007375Y-104066402D01*
X146947828Y-104060000D01*
X146300000Y-104060000D01*
X146300000Y-106760000D01*
X145800000Y-106760000D01*
X145800000Y-104060000D01*
X145152172Y-104060000D01*
X145092624Y-104066402D01*
X144957911Y-104116646D01*
X144842810Y-104202810D01*
X144756646Y-104317911D01*
X144706402Y-104452624D01*
X144700000Y-104512172D01*
X144700000Y-104786212D01*
X144682335Y-104850551D01*
X144634293Y-104896850D01*
X144569344Y-104912126D01*
X144505702Y-104892096D01*
X144461210Y-104842375D01*
X144453089Y-104826066D01*
X144400500Y-104756427D01*
X144329732Y-104662715D01*
X144178462Y-104524814D01*
X144130087Y-104494861D01*
X144004428Y-104417056D01*
X143908991Y-104380084D01*
X143813556Y-104343112D01*
X143612347Y-104305500D01*
X143407653Y-104305500D01*
X143206444Y-104343111D01*
X143206444Y-104343112D01*
X143015571Y-104417056D01*
X142841539Y-104524813D01*
X142690267Y-104662716D01*
X142566910Y-104826066D01*
X142475672Y-105009297D01*
X142419654Y-105206180D01*
X142400767Y-105410000D01*
X141224500Y-105410000D01*
X141224500Y-104400187D01*
X141225107Y-104387838D01*
X141231994Y-104317911D01*
X141237916Y-104257782D01*
X141242731Y-104233572D01*
X141278865Y-104114455D01*
X141288315Y-104091644D01*
X141346987Y-103981875D01*
X141360701Y-103961349D01*
X141439670Y-103865124D01*
X141457124Y-103847670D01*
X141553349Y-103768701D01*
X141573871Y-103754989D01*
X141683644Y-103696314D01*
X141706455Y-103686865D01*
X141825572Y-103650731D01*
X141849782Y-103645916D01*
X141962756Y-103634789D01*
X141979838Y-103633107D01*
X141992187Y-103632500D01*
X145133988Y-103632500D01*
X145133991Y-103632500D01*
X145331510Y-103601216D01*
X145521703Y-103539419D01*
X145699887Y-103448629D01*
X145699886Y-103448629D01*
X145699889Y-103448628D01*
X145757452Y-103406805D01*
X145861675Y-103331083D01*
X146003083Y-103189675D01*
X146120629Y-103027887D01*
X146211419Y-102849703D01*
X146273216Y-102659510D01*
X146304500Y-102461991D01*
X146304500Y-102362000D01*
X146304500Y-102317125D01*
X146304500Y-92430933D01*
X146304500Y-82048187D01*
X146305107Y-82035838D01*
X146314348Y-81942009D01*
X146317916Y-81905782D01*
X146322731Y-81881572D01*
X146358865Y-81762455D01*
X146368315Y-81739644D01*
X146426987Y-81629875D01*
X146440701Y-81609349D01*
X146519670Y-81513124D01*
X146537124Y-81495670D01*
X146633349Y-81416701D01*
X146653871Y-81402989D01*
X146763644Y-81344314D01*
X146786455Y-81334865D01*
X146905572Y-81298731D01*
X146929782Y-81293916D01*
X147042756Y-81282789D01*
X147059838Y-81281107D01*
X147072187Y-81280500D01*
X147110875Y-81280500D01*
X160229125Y-81280500D01*
X160267813Y-81280500D01*
X160280162Y-81281106D01*
G37*
%TD.AperFunction*%
%TD*%
M02*
