%TF.GenerationSoftware,KiCad,Pcbnew,7.0.1*%
%TF.CreationDate,2023-05-06T15:32:37-03:00*%
%TF.ProjectId,Analog_Control,416e616c-6f67-45f4-936f-6e74726f6c2e,rev?*%
%TF.SameCoordinates,Original*%
%TF.FileFunction,Legend,Bot*%
%TF.FilePolarity,Positive*%
%FSLAX46Y46*%
G04 Gerber Fmt 4.6, Leading zero omitted, Abs format (unit mm)*
G04 Created by KiCad (PCBNEW 7.0.1) date 2023-05-06 15:32:37*
%MOMM*%
%LPD*%
G01*
G04 APERTURE LIST*
G04 Aperture macros list*
%AMRoundRect*
0 Rectangle with rounded corners*
0 $1 Rounding radius*
0 $2 $3 $4 $5 $6 $7 $8 $9 X,Y pos of 4 corners*
0 Add a 4 corners polygon primitive as box body*
4,1,4,$2,$3,$4,$5,$6,$7,$8,$9,$2,$3,0*
0 Add four circle primitives for the rounded corners*
1,1,$1+$1,$2,$3*
1,1,$1+$1,$4,$5*
1,1,$1+$1,$6,$7*
1,1,$1+$1,$8,$9*
0 Add four rect primitives between the rounded corners*
20,1,$1+$1,$2,$3,$4,$5,0*
20,1,$1+$1,$4,$5,$6,$7,0*
20,1,$1+$1,$6,$7,$8,$9,0*
20,1,$1+$1,$8,$9,$2,$3,0*%
G04 Aperture macros list end*
%ADD10C,0.150000*%
%ADD11C,0.200000*%
%ADD12O,1.200000X1.750000*%
%ADD13RoundRect,0.300000X-0.300000X-0.575000X0.300000X-0.575000X0.300000X0.575000X-0.300000X0.575000X0*%
%ADD14C,1.700000*%
%ADD15O,1.700000X1.700000*%
%ADD16R,1.700000X1.700000*%
G04 APERTURE END LIST*
D10*
X157683200Y-104343200D02*
X164896800Y-104343200D01*
X164896800Y-108966000D01*
X157683200Y-108966000D01*
X157683200Y-104343200D01*
X147523200Y-104343200D02*
X149656800Y-104343200D01*
X149656800Y-108864400D01*
X147523200Y-108864400D01*
X147523200Y-104343200D01*
D11*
X164292619Y-106910286D02*
X163292619Y-106910286D01*
X163292619Y-106910286D02*
X164292619Y-107481714D01*
X164292619Y-107481714D02*
X163292619Y-107481714D01*
X164197380Y-108529333D02*
X164245000Y-108481714D01*
X164245000Y-108481714D02*
X164292619Y-108338857D01*
X164292619Y-108338857D02*
X164292619Y-108243619D01*
X164292619Y-108243619D02*
X164245000Y-108100762D01*
X164245000Y-108100762D02*
X164149761Y-108005524D01*
X164149761Y-108005524D02*
X164054523Y-107957905D01*
X164054523Y-107957905D02*
X163864047Y-107910286D01*
X163864047Y-107910286D02*
X163721190Y-107910286D01*
X163721190Y-107910286D02*
X163530714Y-107957905D01*
X163530714Y-107957905D02*
X163435476Y-108005524D01*
X163435476Y-108005524D02*
X163340238Y-108100762D01*
X163340238Y-108100762D02*
X163292619Y-108243619D01*
X163292619Y-108243619D02*
X163292619Y-108338857D01*
X163292619Y-108338857D02*
X163340238Y-108481714D01*
X163340238Y-108481714D02*
X163387857Y-108529333D01*
X161752619Y-106910286D02*
X160752619Y-106910286D01*
X160752619Y-106910286D02*
X161752619Y-107481714D01*
X161752619Y-107481714D02*
X160752619Y-107481714D01*
X161657380Y-108529333D02*
X161705000Y-108481714D01*
X161705000Y-108481714D02*
X161752619Y-108338857D01*
X161752619Y-108338857D02*
X161752619Y-108243619D01*
X161752619Y-108243619D02*
X161705000Y-108100762D01*
X161705000Y-108100762D02*
X161609761Y-108005524D01*
X161609761Y-108005524D02*
X161514523Y-107957905D01*
X161514523Y-107957905D02*
X161324047Y-107910286D01*
X161324047Y-107910286D02*
X161181190Y-107910286D01*
X161181190Y-107910286D02*
X160990714Y-107957905D01*
X160990714Y-107957905D02*
X160895476Y-108005524D01*
X160895476Y-108005524D02*
X160800238Y-108100762D01*
X160800238Y-108100762D02*
X160752619Y-108243619D01*
X160752619Y-108243619D02*
X160752619Y-108338857D01*
X160752619Y-108338857D02*
X160800238Y-108481714D01*
X160800238Y-108481714D02*
X160847857Y-108529333D01*
X159212619Y-106910286D02*
X158212619Y-106910286D01*
X158212619Y-106910286D02*
X159212619Y-107481714D01*
X159212619Y-107481714D02*
X158212619Y-107481714D01*
X159117380Y-108529333D02*
X159165000Y-108481714D01*
X159165000Y-108481714D02*
X159212619Y-108338857D01*
X159212619Y-108338857D02*
X159212619Y-108243619D01*
X159212619Y-108243619D02*
X159165000Y-108100762D01*
X159165000Y-108100762D02*
X159069761Y-108005524D01*
X159069761Y-108005524D02*
X158974523Y-107957905D01*
X158974523Y-107957905D02*
X158784047Y-107910286D01*
X158784047Y-107910286D02*
X158641190Y-107910286D01*
X158641190Y-107910286D02*
X158450714Y-107957905D01*
X158450714Y-107957905D02*
X158355476Y-108005524D01*
X158355476Y-108005524D02*
X158260238Y-108100762D01*
X158260238Y-108100762D02*
X158212619Y-108243619D01*
X158212619Y-108243619D02*
X158212619Y-108338857D01*
X158212619Y-108338857D02*
X158260238Y-108481714D01*
X158260238Y-108481714D02*
X158307857Y-108529333D01*
X149052619Y-106910286D02*
X148052619Y-106910286D01*
X148052619Y-106910286D02*
X149052619Y-107481714D01*
X149052619Y-107481714D02*
X148052619Y-107481714D01*
X148957380Y-108529333D02*
X149005000Y-108481714D01*
X149005000Y-108481714D02*
X149052619Y-108338857D01*
X149052619Y-108338857D02*
X149052619Y-108243619D01*
X149052619Y-108243619D02*
X149005000Y-108100762D01*
X149005000Y-108100762D02*
X148909761Y-108005524D01*
X148909761Y-108005524D02*
X148814523Y-107957905D01*
X148814523Y-107957905D02*
X148624047Y-107910286D01*
X148624047Y-107910286D02*
X148481190Y-107910286D01*
X148481190Y-107910286D02*
X148290714Y-107957905D01*
X148290714Y-107957905D02*
X148195476Y-108005524D01*
X148195476Y-108005524D02*
X148100238Y-108100762D01*
X148100238Y-108100762D02*
X148052619Y-108243619D01*
X148052619Y-108243619D02*
X148052619Y-108338857D01*
X148052619Y-108338857D02*
X148100238Y-108481714D01*
X148100238Y-108481714D02*
X148147857Y-108529333D01*
X151306904Y-106972362D02*
X151306904Y-107448552D01*
X151592619Y-106877124D02*
X150592619Y-107210457D01*
X150592619Y-107210457D02*
X151592619Y-107543790D01*
X151497380Y-108448552D02*
X151545000Y-108400933D01*
X151545000Y-108400933D02*
X151592619Y-108258076D01*
X151592619Y-108258076D02*
X151592619Y-108162838D01*
X151592619Y-108162838D02*
X151545000Y-108019981D01*
X151545000Y-108019981D02*
X151449761Y-107924743D01*
X151449761Y-107924743D02*
X151354523Y-107877124D01*
X151354523Y-107877124D02*
X151164047Y-107829505D01*
X151164047Y-107829505D02*
X151021190Y-107829505D01*
X151021190Y-107829505D02*
X150830714Y-107877124D01*
X150830714Y-107877124D02*
X150735476Y-107924743D01*
X150735476Y-107924743D02*
X150640238Y-108019981D01*
X150640238Y-108019981D02*
X150592619Y-108162838D01*
X150592619Y-108162838D02*
X150592619Y-108258076D01*
X150592619Y-108258076D02*
X150640238Y-108400933D01*
X150640238Y-108400933D02*
X150687857Y-108448552D01*
X151497380Y-109448552D02*
X151545000Y-109400933D01*
X151545000Y-109400933D02*
X151592619Y-109258076D01*
X151592619Y-109258076D02*
X151592619Y-109162838D01*
X151592619Y-109162838D02*
X151545000Y-109019981D01*
X151545000Y-109019981D02*
X151449761Y-108924743D01*
X151449761Y-108924743D02*
X151354523Y-108877124D01*
X151354523Y-108877124D02*
X151164047Y-108829505D01*
X151164047Y-108829505D02*
X151021190Y-108829505D01*
X151021190Y-108829505D02*
X150830714Y-108877124D01*
X150830714Y-108877124D02*
X150735476Y-108924743D01*
X150735476Y-108924743D02*
X150640238Y-109019981D01*
X150640238Y-109019981D02*
X150592619Y-109162838D01*
X150592619Y-109162838D02*
X150592619Y-109258076D01*
X150592619Y-109258076D02*
X150640238Y-109400933D01*
X150640238Y-109400933D02*
X150687857Y-109448552D01*
X151687857Y-109639029D02*
X151687857Y-110400933D01*
X150592619Y-110543791D02*
X151592619Y-111210457D01*
X150592619Y-111210457D02*
X151592619Y-110543791D01*
X156386904Y-106972362D02*
X156386904Y-107448552D01*
X156672619Y-106877124D02*
X155672619Y-107210457D01*
X155672619Y-107210457D02*
X156672619Y-107543790D01*
X156577380Y-108448552D02*
X156625000Y-108400933D01*
X156625000Y-108400933D02*
X156672619Y-108258076D01*
X156672619Y-108258076D02*
X156672619Y-108162838D01*
X156672619Y-108162838D02*
X156625000Y-108019981D01*
X156625000Y-108019981D02*
X156529761Y-107924743D01*
X156529761Y-107924743D02*
X156434523Y-107877124D01*
X156434523Y-107877124D02*
X156244047Y-107829505D01*
X156244047Y-107829505D02*
X156101190Y-107829505D01*
X156101190Y-107829505D02*
X155910714Y-107877124D01*
X155910714Y-107877124D02*
X155815476Y-107924743D01*
X155815476Y-107924743D02*
X155720238Y-108019981D01*
X155720238Y-108019981D02*
X155672619Y-108162838D01*
X155672619Y-108162838D02*
X155672619Y-108258076D01*
X155672619Y-108258076D02*
X155720238Y-108400933D01*
X155720238Y-108400933D02*
X155767857Y-108448552D01*
X156577380Y-109448552D02*
X156625000Y-109400933D01*
X156625000Y-109400933D02*
X156672619Y-109258076D01*
X156672619Y-109258076D02*
X156672619Y-109162838D01*
X156672619Y-109162838D02*
X156625000Y-109019981D01*
X156625000Y-109019981D02*
X156529761Y-108924743D01*
X156529761Y-108924743D02*
X156434523Y-108877124D01*
X156434523Y-108877124D02*
X156244047Y-108829505D01*
X156244047Y-108829505D02*
X156101190Y-108829505D01*
X156101190Y-108829505D02*
X155910714Y-108877124D01*
X155910714Y-108877124D02*
X155815476Y-108924743D01*
X155815476Y-108924743D02*
X155720238Y-109019981D01*
X155720238Y-109019981D02*
X155672619Y-109162838D01*
X155672619Y-109162838D02*
X155672619Y-109258076D01*
X155672619Y-109258076D02*
X155720238Y-109400933D01*
X155720238Y-109400933D02*
X155767857Y-109448552D01*
X156767857Y-109639029D02*
X156767857Y-110400933D01*
X155672619Y-110543791D02*
X155672619Y-111210457D01*
X155672619Y-111210457D02*
X156672619Y-110543791D01*
X156672619Y-110543791D02*
X156672619Y-111210457D01*
X153846904Y-106969181D02*
X153846904Y-107445371D01*
X154132619Y-106873943D02*
X153132619Y-107207276D01*
X153132619Y-107207276D02*
X154132619Y-107540609D01*
X154037380Y-108445371D02*
X154085000Y-108397752D01*
X154085000Y-108397752D02*
X154132619Y-108254895D01*
X154132619Y-108254895D02*
X154132619Y-108159657D01*
X154132619Y-108159657D02*
X154085000Y-108016800D01*
X154085000Y-108016800D02*
X153989761Y-107921562D01*
X153989761Y-107921562D02*
X153894523Y-107873943D01*
X153894523Y-107873943D02*
X153704047Y-107826324D01*
X153704047Y-107826324D02*
X153561190Y-107826324D01*
X153561190Y-107826324D02*
X153370714Y-107873943D01*
X153370714Y-107873943D02*
X153275476Y-107921562D01*
X153275476Y-107921562D02*
X153180238Y-108016800D01*
X153180238Y-108016800D02*
X153132619Y-108159657D01*
X153132619Y-108159657D02*
X153132619Y-108254895D01*
X153132619Y-108254895D02*
X153180238Y-108397752D01*
X153180238Y-108397752D02*
X153227857Y-108445371D01*
X154037380Y-109445371D02*
X154085000Y-109397752D01*
X154085000Y-109397752D02*
X154132619Y-109254895D01*
X154132619Y-109254895D02*
X154132619Y-109159657D01*
X154132619Y-109159657D02*
X154085000Y-109016800D01*
X154085000Y-109016800D02*
X153989761Y-108921562D01*
X153989761Y-108921562D02*
X153894523Y-108873943D01*
X153894523Y-108873943D02*
X153704047Y-108826324D01*
X153704047Y-108826324D02*
X153561190Y-108826324D01*
X153561190Y-108826324D02*
X153370714Y-108873943D01*
X153370714Y-108873943D02*
X153275476Y-108921562D01*
X153275476Y-108921562D02*
X153180238Y-109016800D01*
X153180238Y-109016800D02*
X153132619Y-109159657D01*
X153132619Y-109159657D02*
X153132619Y-109254895D01*
X153132619Y-109254895D02*
X153180238Y-109397752D01*
X153180238Y-109397752D02*
X153227857Y-109445371D01*
X154227857Y-109635848D02*
X154227857Y-110397752D01*
X153656428Y-110826324D02*
X154132619Y-110826324D01*
X153132619Y-110492991D02*
X153656428Y-110826324D01*
X153656428Y-110826324D02*
X153132619Y-111159657D01*
X142972619Y-106870667D02*
X143972619Y-107204000D01*
X143972619Y-107204000D02*
X142972619Y-107537333D01*
X143877380Y-108442095D02*
X143925000Y-108394476D01*
X143925000Y-108394476D02*
X143972619Y-108251619D01*
X143972619Y-108251619D02*
X143972619Y-108156381D01*
X143972619Y-108156381D02*
X143925000Y-108013524D01*
X143925000Y-108013524D02*
X143829761Y-107918286D01*
X143829761Y-107918286D02*
X143734523Y-107870667D01*
X143734523Y-107870667D02*
X143544047Y-107823048D01*
X143544047Y-107823048D02*
X143401190Y-107823048D01*
X143401190Y-107823048D02*
X143210714Y-107870667D01*
X143210714Y-107870667D02*
X143115476Y-107918286D01*
X143115476Y-107918286D02*
X143020238Y-108013524D01*
X143020238Y-108013524D02*
X142972619Y-108156381D01*
X142972619Y-108156381D02*
X142972619Y-108251619D01*
X142972619Y-108251619D02*
X143020238Y-108394476D01*
X143020238Y-108394476D02*
X143067857Y-108442095D01*
X143877380Y-109442095D02*
X143925000Y-109394476D01*
X143925000Y-109394476D02*
X143972619Y-109251619D01*
X143972619Y-109251619D02*
X143972619Y-109156381D01*
X143972619Y-109156381D02*
X143925000Y-109013524D01*
X143925000Y-109013524D02*
X143829761Y-108918286D01*
X143829761Y-108918286D02*
X143734523Y-108870667D01*
X143734523Y-108870667D02*
X143544047Y-108823048D01*
X143544047Y-108823048D02*
X143401190Y-108823048D01*
X143401190Y-108823048D02*
X143210714Y-108870667D01*
X143210714Y-108870667D02*
X143115476Y-108918286D01*
X143115476Y-108918286D02*
X143020238Y-109013524D01*
X143020238Y-109013524D02*
X142972619Y-109156381D01*
X142972619Y-109156381D02*
X142972619Y-109251619D01*
X142972619Y-109251619D02*
X143020238Y-109394476D01*
X143020238Y-109394476D02*
X143067857Y-109442095D01*
D10*
X144983200Y-104343200D02*
X147116800Y-104343200D01*
X147116800Y-120802400D01*
X144983200Y-120802400D01*
X144983200Y-104343200D01*
G36*
X144983200Y-104343200D02*
G01*
X147116800Y-104343200D01*
X147116800Y-120802400D01*
X144983200Y-120802400D01*
X144983200Y-104343200D01*
G37*
D11*
X156844104Y-116217962D02*
X156844104Y-116694152D01*
X157129819Y-116122724D02*
X156129819Y-116456057D01*
X156129819Y-116456057D02*
X157129819Y-116789390D01*
X157034580Y-117694152D02*
X157082200Y-117646533D01*
X157082200Y-117646533D02*
X157129819Y-117503676D01*
X157129819Y-117503676D02*
X157129819Y-117408438D01*
X157129819Y-117408438D02*
X157082200Y-117265581D01*
X157082200Y-117265581D02*
X156986961Y-117170343D01*
X156986961Y-117170343D02*
X156891723Y-117122724D01*
X156891723Y-117122724D02*
X156701247Y-117075105D01*
X156701247Y-117075105D02*
X156558390Y-117075105D01*
X156558390Y-117075105D02*
X156367914Y-117122724D01*
X156367914Y-117122724D02*
X156272676Y-117170343D01*
X156272676Y-117170343D02*
X156177438Y-117265581D01*
X156177438Y-117265581D02*
X156129819Y-117408438D01*
X156129819Y-117408438D02*
X156129819Y-117503676D01*
X156129819Y-117503676D02*
X156177438Y-117646533D01*
X156177438Y-117646533D02*
X156225057Y-117694152D01*
X157034580Y-118694152D02*
X157082200Y-118646533D01*
X157082200Y-118646533D02*
X157129819Y-118503676D01*
X157129819Y-118503676D02*
X157129819Y-118408438D01*
X157129819Y-118408438D02*
X157082200Y-118265581D01*
X157082200Y-118265581D02*
X156986961Y-118170343D01*
X156986961Y-118170343D02*
X156891723Y-118122724D01*
X156891723Y-118122724D02*
X156701247Y-118075105D01*
X156701247Y-118075105D02*
X156558390Y-118075105D01*
X156558390Y-118075105D02*
X156367914Y-118122724D01*
X156367914Y-118122724D02*
X156272676Y-118170343D01*
X156272676Y-118170343D02*
X156177438Y-118265581D01*
X156177438Y-118265581D02*
X156129819Y-118408438D01*
X156129819Y-118408438D02*
X156129819Y-118503676D01*
X156129819Y-118503676D02*
X156177438Y-118646533D01*
X156177438Y-118646533D02*
X156225057Y-118694152D01*
X157225057Y-118884629D02*
X157225057Y-119646533D01*
X156129819Y-119789391D02*
X156129819Y-120456057D01*
X156129819Y-120456057D02*
X157129819Y-119789391D01*
X157129819Y-119789391D02*
X157129819Y-120456057D01*
X154862904Y-116265581D02*
X154862904Y-116741771D01*
X155148619Y-116170343D02*
X154148619Y-116503676D01*
X154148619Y-116503676D02*
X155148619Y-116837009D01*
X155053380Y-117741771D02*
X155101000Y-117694152D01*
X155101000Y-117694152D02*
X155148619Y-117551295D01*
X155148619Y-117551295D02*
X155148619Y-117456057D01*
X155148619Y-117456057D02*
X155101000Y-117313200D01*
X155101000Y-117313200D02*
X155005761Y-117217962D01*
X155005761Y-117217962D02*
X154910523Y-117170343D01*
X154910523Y-117170343D02*
X154720047Y-117122724D01*
X154720047Y-117122724D02*
X154577190Y-117122724D01*
X154577190Y-117122724D02*
X154386714Y-117170343D01*
X154386714Y-117170343D02*
X154291476Y-117217962D01*
X154291476Y-117217962D02*
X154196238Y-117313200D01*
X154196238Y-117313200D02*
X154148619Y-117456057D01*
X154148619Y-117456057D02*
X154148619Y-117551295D01*
X154148619Y-117551295D02*
X154196238Y-117694152D01*
X154196238Y-117694152D02*
X154243857Y-117741771D01*
X155053380Y-118741771D02*
X155101000Y-118694152D01*
X155101000Y-118694152D02*
X155148619Y-118551295D01*
X155148619Y-118551295D02*
X155148619Y-118456057D01*
X155148619Y-118456057D02*
X155101000Y-118313200D01*
X155101000Y-118313200D02*
X155005761Y-118217962D01*
X155005761Y-118217962D02*
X154910523Y-118170343D01*
X154910523Y-118170343D02*
X154720047Y-118122724D01*
X154720047Y-118122724D02*
X154577190Y-118122724D01*
X154577190Y-118122724D02*
X154386714Y-118170343D01*
X154386714Y-118170343D02*
X154291476Y-118217962D01*
X154291476Y-118217962D02*
X154196238Y-118313200D01*
X154196238Y-118313200D02*
X154148619Y-118456057D01*
X154148619Y-118456057D02*
X154148619Y-118551295D01*
X154148619Y-118551295D02*
X154196238Y-118694152D01*
X154196238Y-118694152D02*
X154243857Y-118741771D01*
X155243857Y-118932248D02*
X155243857Y-119694152D01*
X154672428Y-120122724D02*
X155148619Y-120122724D01*
X154148619Y-119789391D02*
X154672428Y-120122724D01*
X154672428Y-120122724D02*
X154148619Y-120456057D01*
X152830904Y-116268762D02*
X152830904Y-116744952D01*
X153116619Y-116173524D02*
X152116619Y-116506857D01*
X152116619Y-116506857D02*
X153116619Y-116840190D01*
X153021380Y-117744952D02*
X153069000Y-117697333D01*
X153069000Y-117697333D02*
X153116619Y-117554476D01*
X153116619Y-117554476D02*
X153116619Y-117459238D01*
X153116619Y-117459238D02*
X153069000Y-117316381D01*
X153069000Y-117316381D02*
X152973761Y-117221143D01*
X152973761Y-117221143D02*
X152878523Y-117173524D01*
X152878523Y-117173524D02*
X152688047Y-117125905D01*
X152688047Y-117125905D02*
X152545190Y-117125905D01*
X152545190Y-117125905D02*
X152354714Y-117173524D01*
X152354714Y-117173524D02*
X152259476Y-117221143D01*
X152259476Y-117221143D02*
X152164238Y-117316381D01*
X152164238Y-117316381D02*
X152116619Y-117459238D01*
X152116619Y-117459238D02*
X152116619Y-117554476D01*
X152116619Y-117554476D02*
X152164238Y-117697333D01*
X152164238Y-117697333D02*
X152211857Y-117744952D01*
X153021380Y-118744952D02*
X153069000Y-118697333D01*
X153069000Y-118697333D02*
X153116619Y-118554476D01*
X153116619Y-118554476D02*
X153116619Y-118459238D01*
X153116619Y-118459238D02*
X153069000Y-118316381D01*
X153069000Y-118316381D02*
X152973761Y-118221143D01*
X152973761Y-118221143D02*
X152878523Y-118173524D01*
X152878523Y-118173524D02*
X152688047Y-118125905D01*
X152688047Y-118125905D02*
X152545190Y-118125905D01*
X152545190Y-118125905D02*
X152354714Y-118173524D01*
X152354714Y-118173524D02*
X152259476Y-118221143D01*
X152259476Y-118221143D02*
X152164238Y-118316381D01*
X152164238Y-118316381D02*
X152116619Y-118459238D01*
X152116619Y-118459238D02*
X152116619Y-118554476D01*
X152116619Y-118554476D02*
X152164238Y-118697333D01*
X152164238Y-118697333D02*
X152211857Y-118744952D01*
X153211857Y-118935429D02*
X153211857Y-119697333D01*
X152116619Y-119840191D02*
X153116619Y-120506857D01*
X152116619Y-120506857D02*
X153116619Y-119840191D01*
X150611609Y-116462323D02*
X150611609Y-116128990D01*
X151135419Y-116128990D02*
X150135419Y-116128990D01*
X150135419Y-116128990D02*
X150135419Y-116605180D01*
X151135419Y-117462323D02*
X151135419Y-116986133D01*
X151135419Y-116986133D02*
X150135419Y-116986133D01*
X150611609Y-117795657D02*
X150611609Y-118128990D01*
X151135419Y-118271847D02*
X151135419Y-117795657D01*
X151135419Y-117795657D02*
X150135419Y-117795657D01*
X150135419Y-117795657D02*
X150135419Y-118271847D01*
X150135419Y-118605181D02*
X151135419Y-119271847D01*
X150135419Y-119271847D02*
X151135419Y-118605181D01*
X148154219Y-116116267D02*
X149154219Y-116449600D01*
X149154219Y-116449600D02*
X148154219Y-116782933D01*
X149058980Y-117687695D02*
X149106600Y-117640076D01*
X149106600Y-117640076D02*
X149154219Y-117497219D01*
X149154219Y-117497219D02*
X149154219Y-117401981D01*
X149154219Y-117401981D02*
X149106600Y-117259124D01*
X149106600Y-117259124D02*
X149011361Y-117163886D01*
X149011361Y-117163886D02*
X148916123Y-117116267D01*
X148916123Y-117116267D02*
X148725647Y-117068648D01*
X148725647Y-117068648D02*
X148582790Y-117068648D01*
X148582790Y-117068648D02*
X148392314Y-117116267D01*
X148392314Y-117116267D02*
X148297076Y-117163886D01*
X148297076Y-117163886D02*
X148201838Y-117259124D01*
X148201838Y-117259124D02*
X148154219Y-117401981D01*
X148154219Y-117401981D02*
X148154219Y-117497219D01*
X148154219Y-117497219D02*
X148201838Y-117640076D01*
X148201838Y-117640076D02*
X148249457Y-117687695D01*
X149058980Y-118687695D02*
X149106600Y-118640076D01*
X149106600Y-118640076D02*
X149154219Y-118497219D01*
X149154219Y-118497219D02*
X149154219Y-118401981D01*
X149154219Y-118401981D02*
X149106600Y-118259124D01*
X149106600Y-118259124D02*
X149011361Y-118163886D01*
X149011361Y-118163886D02*
X148916123Y-118116267D01*
X148916123Y-118116267D02*
X148725647Y-118068648D01*
X148725647Y-118068648D02*
X148582790Y-118068648D01*
X148582790Y-118068648D02*
X148392314Y-118116267D01*
X148392314Y-118116267D02*
X148297076Y-118163886D01*
X148297076Y-118163886D02*
X148201838Y-118259124D01*
X148201838Y-118259124D02*
X148154219Y-118401981D01*
X148154219Y-118401981D02*
X148154219Y-118497219D01*
X148154219Y-118497219D02*
X148201838Y-118640076D01*
X148201838Y-118640076D02*
X148249457Y-118687695D01*
D10*
X157886400Y-113588800D02*
X159461200Y-113588800D01*
X159461200Y-120802400D01*
X157886400Y-120802400D01*
X157886400Y-113588800D01*
G36*
X157886400Y-113588800D02*
G01*
X159461200Y-113588800D01*
X159461200Y-120802400D01*
X157886400Y-120802400D01*
X157886400Y-113588800D01*
G37*
%TO.C,G\u002A\u002A\u002A*%
G36*
X155100535Y-91319402D02*
G01*
X155118876Y-91337713D01*
X155134826Y-91377433D01*
X155153646Y-91423175D01*
X155183102Y-91459489D01*
X155223329Y-91478210D01*
X155234980Y-91482136D01*
X155270892Y-91500720D01*
X155308390Y-91526600D01*
X155324633Y-91538168D01*
X155374449Y-91565171D01*
X155425412Y-91584117D01*
X155446714Y-91590391D01*
X155503982Y-91611298D01*
X155556294Y-91634947D01*
X155578924Y-91646482D01*
X155610179Y-91659878D01*
X155638375Y-91665455D01*
X155670521Y-91663230D01*
X155713621Y-91653218D01*
X155774683Y-91635435D01*
X155823057Y-91622060D01*
X155888581Y-91608236D01*
X155939363Y-91603142D01*
X155972188Y-91607012D01*
X155983844Y-91620083D01*
X155980540Y-91631284D01*
X155961240Y-91656660D01*
X155931952Y-91681851D01*
X155901100Y-91698839D01*
X155893196Y-91702370D01*
X155882927Y-91717467D01*
X155886062Y-91747746D01*
X155889855Y-91779824D01*
X155887239Y-91833406D01*
X155876535Y-91884555D01*
X155859523Y-91921611D01*
X155848953Y-91931605D01*
X155816466Y-91951251D01*
X155775136Y-91968632D01*
X155709274Y-91990928D01*
X155817146Y-92101728D01*
X155820578Y-92105247D01*
X155874379Y-92158230D01*
X155917220Y-92194941D01*
X155954190Y-92219301D01*
X155990380Y-92235233D01*
X156029347Y-92249025D01*
X156086897Y-92269874D01*
X156143079Y-92290642D01*
X156230414Y-92323345D01*
X156293309Y-92289863D01*
X156318588Y-92277065D01*
X156352424Y-92262181D01*
X156372400Y-92256382D01*
X156385692Y-92246485D01*
X156396444Y-92220432D01*
X156399633Y-92206640D01*
X156423784Y-92136737D01*
X156455938Y-92091633D01*
X156467481Y-92081990D01*
X156481633Y-92077629D01*
X156498942Y-92087267D01*
X156527007Y-92113215D01*
X156541528Y-92127014D01*
X156565004Y-92145448D01*
X156582271Y-92148779D01*
X156601293Y-92139865D01*
X156621444Y-92130955D01*
X156633823Y-92133679D01*
X156641872Y-92151826D01*
X156656539Y-92167376D01*
X156681407Y-92177103D01*
X156721790Y-92182895D01*
X156783003Y-92186637D01*
X156807782Y-92187858D01*
X156866301Y-92191405D01*
X156916151Y-92195291D01*
X156948604Y-92198872D01*
X156972648Y-92203534D01*
X156985609Y-92212826D01*
X156989396Y-92233710D01*
X156987822Y-92273438D01*
X156983896Y-92341353D01*
X156926512Y-92336999D01*
X156913278Y-92336273D01*
X156873603Y-92340560D01*
X156855265Y-92357541D01*
X156856321Y-92388648D01*
X156856415Y-92388997D01*
X156873947Y-92409526D01*
X156914312Y-92421675D01*
X156920835Y-92422857D01*
X156962278Y-92435544D01*
X156994220Y-92452909D01*
X156996587Y-92454834D01*
X157010845Y-92468643D01*
X157016236Y-92484294D01*
X157013471Y-92509593D01*
X157003258Y-92552347D01*
X157002423Y-92555620D01*
X156987950Y-92601697D01*
X156971457Y-92629285D01*
X156948765Y-92645530D01*
X156936070Y-92653337D01*
X156909759Y-92684371D01*
X156885167Y-92737119D01*
X156881344Y-92747246D01*
X156872529Y-92772700D01*
X156866518Y-92797015D01*
X156863126Y-92824730D01*
X156862169Y-92860382D01*
X156863464Y-92908510D01*
X156866827Y-92973651D01*
X156872074Y-93060344D01*
X156877099Y-93137334D01*
X156882712Y-93215238D01*
X156888142Y-93283157D01*
X156892957Y-93335719D01*
X156896726Y-93367550D01*
X156906002Y-93426376D01*
X156972164Y-93422102D01*
X156975310Y-93421905D01*
X157018569Y-93421997D01*
X157049296Y-93431112D01*
X157079848Y-93452768D01*
X157089400Y-93460034D01*
X157137913Y-93485403D01*
X157196432Y-93503294D01*
X157228288Y-93511697D01*
X157295261Y-93540278D01*
X157372212Y-93587012D01*
X157398056Y-93604709D01*
X157437708Y-93634025D01*
X157461819Y-93657088D01*
X157475003Y-93678825D01*
X157481872Y-93704167D01*
X157482399Y-93706910D01*
X157495943Y-93750504D01*
X157515146Y-93787890D01*
X157530569Y-93814653D01*
X157537912Y-93857568D01*
X157520287Y-93897758D01*
X157516204Y-93903379D01*
X157501393Y-93937525D01*
X157511226Y-93963263D01*
X157546136Y-93982000D01*
X157549154Y-93983011D01*
X157597142Y-94005910D01*
X157623158Y-94036571D01*
X157630988Y-94079338D01*
X157630993Y-94080339D01*
X157636898Y-94115094D01*
X157650597Y-94138831D01*
X157661127Y-94149874D01*
X157670205Y-94169732D01*
X157668704Y-94178000D01*
X157653514Y-94208498D01*
X157625769Y-94248433D01*
X157590193Y-94291865D01*
X157551512Y-94332857D01*
X157514452Y-94365469D01*
X157508949Y-94369697D01*
X157466215Y-94406814D01*
X157444386Y-94438121D01*
X157441174Y-94468904D01*
X157454292Y-94504445D01*
X157466140Y-94529617D01*
X157467142Y-94544380D01*
X157454936Y-94552262D01*
X157434697Y-94555252D01*
X157401699Y-94551655D01*
X157389192Y-94549292D01*
X157334216Y-94552878D01*
X157280839Y-94574627D01*
X157240075Y-94610530D01*
X157229193Y-94624724D01*
X157210505Y-94641781D01*
X157187389Y-94646391D01*
X157149231Y-94642261D01*
X157085661Y-94625796D01*
X157025685Y-94592426D01*
X156964991Y-94538407D01*
X156948990Y-94522319D01*
X156925144Y-94500390D01*
X156912596Y-94491791D01*
X156910501Y-94496715D01*
X156907358Y-94522408D01*
X156904809Y-94565121D01*
X156903266Y-94619248D01*
X156902412Y-94649776D01*
X156898814Y-94707328D01*
X156893343Y-94754779D01*
X156886802Y-94784106D01*
X156876448Y-94805979D01*
X156860210Y-94816055D01*
X156830065Y-94812309D01*
X156829981Y-94812291D01*
X156800526Y-94808043D01*
X156751744Y-94803278D01*
X156690397Y-94798575D01*
X156623245Y-94794518D01*
X156583372Y-94792338D01*
X156525052Y-94788231D01*
X156484020Y-94783131D01*
X156454495Y-94775848D01*
X156430698Y-94765193D01*
X156406845Y-94749974D01*
X156390326Y-94739276D01*
X156355641Y-94721179D01*
X156330987Y-94714024D01*
X156317707Y-94708443D01*
X156288588Y-94687214D01*
X156250256Y-94653827D01*
X156207500Y-94612228D01*
X156171931Y-94576466D01*
X156132738Y-94540392D01*
X156099874Y-94516320D01*
X156066980Y-94499801D01*
X156027697Y-94486383D01*
X155989313Y-94476143D01*
X155937395Y-94465494D01*
X155896971Y-94460722D01*
X155846582Y-94459109D01*
X155844318Y-94531008D01*
X155844296Y-94531683D01*
X155841579Y-94582069D01*
X155836708Y-94644765D01*
X155830721Y-94706362D01*
X155819389Y-94809816D01*
X155741478Y-94881305D01*
X155692063Y-94923528D01*
X155621984Y-94970150D01*
X155559180Y-94993851D01*
X155502032Y-94995401D01*
X155462145Y-94992554D01*
X155404102Y-94999051D01*
X155351879Y-95015561D01*
X155315367Y-95039734D01*
X155290325Y-95057586D01*
X155255796Y-95066984D01*
X155255783Y-95066984D01*
X155227349Y-95073259D01*
X155185681Y-95089696D01*
X155139796Y-95112738D01*
X155119872Y-95123608D01*
X155072780Y-95145247D01*
X155030832Y-95155745D01*
X154982371Y-95158492D01*
X154936939Y-95160649D01*
X154896102Y-95170772D01*
X154857956Y-95192315D01*
X154857175Y-95192856D01*
X154830577Y-95213354D01*
X154815018Y-95234041D01*
X154806271Y-95263552D01*
X154800113Y-95310522D01*
X154797077Y-95351162D01*
X154796347Y-95405199D01*
X154799416Y-95447061D01*
X154802617Y-95478316D01*
X154796519Y-95504740D01*
X154775841Y-95528794D01*
X154763168Y-95542891D01*
X154744767Y-95580256D01*
X154732875Y-95636224D01*
X154729396Y-95665077D01*
X154725908Y-95686378D01*
X154718748Y-95700610D01*
X154704172Y-95708826D01*
X154678438Y-95712079D01*
X154637800Y-95711420D01*
X154578515Y-95707904D01*
X154496840Y-95702581D01*
X154349773Y-95693401D01*
X154349773Y-95773375D01*
X154349494Y-95808397D01*
X154346482Y-95835279D01*
X154337417Y-95857769D01*
X154318975Y-95881363D01*
X154287835Y-95911558D01*
X154240675Y-95953848D01*
X154211450Y-95991838D01*
X154191812Y-96052942D01*
X154188848Y-96127879D01*
X154202632Y-96213157D01*
X154233240Y-96305285D01*
X154240121Y-96324072D01*
X154243734Y-96356274D01*
X154233681Y-96394456D01*
X154224528Y-96424196D01*
X154225272Y-96446225D01*
X154238920Y-96466040D01*
X154247840Y-96476737D01*
X154254436Y-96492797D01*
X154251576Y-96515349D01*
X154239297Y-96553348D01*
X154235654Y-96565118D01*
X154224914Y-96613898D01*
X154215720Y-96674884D01*
X154209747Y-96737635D01*
X154208269Y-96759818D01*
X154203539Y-96811704D01*
X154197343Y-96844959D01*
X154188284Y-96865230D01*
X154174963Y-96878165D01*
X154169695Y-96881179D01*
X154135371Y-96890635D01*
X154085862Y-96896040D01*
X154029374Y-96897412D01*
X153974114Y-96894772D01*
X153928286Y-96888137D01*
X153900097Y-96877526D01*
X153886750Y-96868779D01*
X153867258Y-96866506D01*
X153839774Y-96879714D01*
X153836112Y-96881934D01*
X153803075Y-96909761D01*
X153779048Y-96948872D01*
X153761813Y-97004186D01*
X153749152Y-97080620D01*
X153746957Y-97098334D01*
X153741039Y-97148472D01*
X153736913Y-97187085D01*
X153735362Y-97206972D01*
X153725658Y-97224835D01*
X153701870Y-97245300D01*
X153698661Y-97247388D01*
X153675475Y-97259405D01*
X153654434Y-97258794D01*
X153622991Y-97245601D01*
X153583043Y-97229123D01*
X153549440Y-97225054D01*
X153527470Y-97239541D01*
X153512314Y-97273811D01*
X153510791Y-97279065D01*
X153504556Y-97313986D01*
X153507244Y-97351064D01*
X153519470Y-97401268D01*
X153528792Y-97436870D01*
X153538905Y-97483928D01*
X153543686Y-97518090D01*
X153544103Y-97528457D01*
X153540903Y-97548310D01*
X153525637Y-97557318D01*
X153491270Y-97561278D01*
X153481943Y-97562055D01*
X153445940Y-97569225D01*
X153422564Y-97586007D01*
X153406932Y-97617885D01*
X153394160Y-97670346D01*
X153390186Y-97694632D01*
X153389906Y-97769947D01*
X153408105Y-97835217D01*
X153443563Y-97885140D01*
X153464819Y-97902281D01*
X153505092Y-97929983D01*
X153549912Y-97957200D01*
X153550993Y-97957813D01*
X153598277Y-97988737D01*
X153651855Y-98029705D01*
X153700335Y-98072021D01*
X153702045Y-98073663D01*
X153731291Y-98104364D01*
X153769779Y-98148215D01*
X153814609Y-98201534D01*
X153862877Y-98260643D01*
X153911682Y-98321860D01*
X153958121Y-98381508D01*
X153999292Y-98435906D01*
X154032293Y-98481374D01*
X154054222Y-98514233D01*
X154062177Y-98530803D01*
X154054549Y-98535798D01*
X154025772Y-98538309D01*
X153980473Y-98536234D01*
X153965416Y-98534954D01*
X153925588Y-98533110D01*
X153898731Y-98537953D01*
X153874664Y-98552801D01*
X153843211Y-98580969D01*
X153831344Y-98592434D01*
X153798323Y-98633127D01*
X153787653Y-98666966D01*
X153787402Y-98674084D01*
X153778802Y-98696104D01*
X153755887Y-98699747D01*
X153715843Y-98685747D01*
X153710411Y-98683347D01*
X153688759Y-98677981D01*
X153669775Y-98686356D01*
X153644066Y-98711892D01*
X153634393Y-98721920D01*
X153607717Y-98744454D01*
X153588743Y-98753448D01*
X153582495Y-98754788D01*
X153557269Y-98767964D01*
X153525912Y-98790659D01*
X153515449Y-98799026D01*
X153479990Y-98825148D01*
X153451644Y-98843083D01*
X153432804Y-98858393D01*
X153404389Y-98890287D01*
X153375158Y-98930134D01*
X153361266Y-98951260D01*
X153342356Y-98983827D01*
X153333565Y-99011578D01*
X153332480Y-99044780D01*
X153336686Y-99093702D01*
X153340181Y-99141625D01*
X153338515Y-99182268D01*
X153329869Y-99204746D01*
X153319038Y-99215350D01*
X153294446Y-99222447D01*
X153264201Y-99208579D01*
X153224933Y-99172718D01*
X153218798Y-99166079D01*
X153178600Y-99112434D01*
X153138663Y-99040365D01*
X153096888Y-98946162D01*
X153086450Y-98929069D01*
X153057318Y-98897733D01*
X153019871Y-98867818D01*
X152962808Y-98826331D01*
X152912006Y-98781463D01*
X152867467Y-98730928D01*
X152825515Y-98669957D01*
X152782475Y-98593779D01*
X152734672Y-98497625D01*
X152729311Y-98486415D01*
X152690367Y-98407154D01*
X152658354Y-98347090D01*
X152630578Y-98301783D01*
X152604347Y-98266796D01*
X152576966Y-98237690D01*
X152545332Y-98208657D01*
X152518633Y-98186666D01*
X152504538Y-98178255D01*
X152497376Y-98176356D01*
X152480315Y-98154355D01*
X152465837Y-98109613D01*
X152454297Y-98044531D01*
X152446055Y-97961509D01*
X152441468Y-97862947D01*
X152440893Y-97751244D01*
X152442820Y-97605293D01*
X152354731Y-97511914D01*
X152313268Y-97469510D01*
X152214830Y-97380681D01*
X152117571Y-97308801D01*
X152024130Y-97255472D01*
X151937147Y-97222299D01*
X151859260Y-97210885D01*
X151826019Y-97209120D01*
X151799051Y-97199554D01*
X151779590Y-97177865D01*
X151753451Y-97144290D01*
X151719777Y-97117317D01*
X151675368Y-97097714D01*
X151615090Y-97083264D01*
X151533811Y-97071751D01*
X151486130Y-97066913D01*
X151424596Y-97062543D01*
X151373445Y-97060993D01*
X151340436Y-97062630D01*
X151308335Y-97066410D01*
X151248117Y-97062917D01*
X151204001Y-97041587D01*
X151172923Y-97001300D01*
X151147391Y-96964060D01*
X151095892Y-96923894D01*
X151058502Y-96903035D01*
X151025502Y-96875669D01*
X151006966Y-96841887D01*
X150996816Y-96793701D01*
X150996743Y-96793172D01*
X150990712Y-96761674D01*
X150980244Y-96730447D01*
X150963020Y-96695309D01*
X150936719Y-96652073D01*
X150899022Y-96596557D01*
X150847609Y-96524575D01*
X150802256Y-96458762D01*
X150753851Y-96376063D01*
X150725195Y-96306934D01*
X150715654Y-96250051D01*
X150712756Y-96203633D01*
X150690518Y-96121496D01*
X150645275Y-96049312D01*
X150631206Y-96031585D01*
X150611747Y-95999026D01*
X150600465Y-95961345D01*
X150593508Y-95908033D01*
X150587244Y-95860101D01*
X150574321Y-95790567D01*
X150558950Y-95727559D01*
X150557142Y-95721243D01*
X150546157Y-95680682D01*
X150538418Y-95644703D01*
X150533649Y-95608194D01*
X150531571Y-95566040D01*
X150531908Y-95513128D01*
X150534382Y-95444346D01*
X150538715Y-95354580D01*
X150539888Y-95330841D01*
X150542995Y-95244760D01*
X150541986Y-95179176D01*
X150535405Y-95129601D01*
X150521798Y-95091546D01*
X150499709Y-95060523D01*
X150467682Y-95032044D01*
X150424263Y-95001621D01*
X150401721Y-94986244D01*
X150366752Y-94959396D01*
X150335634Y-94929770D01*
X150305124Y-94893313D01*
X150271979Y-94845974D01*
X150232957Y-94783702D01*
X150184814Y-94702444D01*
X150148537Y-94645457D01*
X150103735Y-94586933D01*
X150062624Y-94545573D01*
X150041106Y-94527487D01*
X149982903Y-94473850D01*
X149921701Y-94411966D01*
X149862050Y-94346910D01*
X149808503Y-94283758D01*
X149765608Y-94227583D01*
X149737917Y-94183460D01*
X149736902Y-94181434D01*
X149718630Y-94134452D01*
X149700575Y-94071642D01*
X149684946Y-94002675D01*
X149673950Y-93937226D01*
X149669794Y-93884965D01*
X149669916Y-93880598D01*
X149675194Y-93842853D01*
X149686707Y-93791855D01*
X149702308Y-93737348D01*
X149704777Y-93729472D01*
X149720080Y-93673448D01*
X149730988Y-93621242D01*
X149735277Y-93583247D01*
X149737597Y-93556126D01*
X149752734Y-93498156D01*
X149778012Y-93443730D01*
X149808797Y-93404142D01*
X149832509Y-93391309D01*
X149875523Y-93381885D01*
X149940581Y-93376143D01*
X149956165Y-93375258D01*
X149999985Y-93371554D01*
X150036319Y-93364826D01*
X150070953Y-93352692D01*
X150109678Y-93332766D01*
X150158280Y-93302666D01*
X150222547Y-93260008D01*
X150238743Y-93248641D01*
X150286783Y-93211711D01*
X150340873Y-93166840D01*
X150392102Y-93121316D01*
X150458282Y-93064333D01*
X150578161Y-92981396D01*
X150701114Y-92920721D01*
X150824582Y-92883467D01*
X150946003Y-92870792D01*
X150967464Y-92870032D01*
X151023592Y-92863162D01*
X151072287Y-92851463D01*
X151104305Y-92842180D01*
X151159137Y-92829716D01*
X151214811Y-92820013D01*
X151256990Y-92812266D01*
X151307634Y-92798817D01*
X151344619Y-92784331D01*
X151393739Y-92766601D01*
X151466245Y-92759898D01*
X151542950Y-92770174D01*
X151615471Y-92797036D01*
X151685235Y-92833163D01*
X151674298Y-92802956D01*
X151667449Y-92780639D01*
X151662070Y-92715137D01*
X151679068Y-92657606D01*
X151716676Y-92611986D01*
X151773131Y-92582218D01*
X151784834Y-92578220D01*
X151825505Y-92562459D01*
X151877904Y-92540555D01*
X151933650Y-92515968D01*
X151967644Y-92501305D01*
X152051409Y-92470007D01*
X152140075Y-92442330D01*
X152226518Y-92420190D01*
X152303619Y-92405501D01*
X152364255Y-92400180D01*
X152385813Y-92400471D01*
X152416906Y-92404993D01*
X152437746Y-92419388D01*
X152459059Y-92449202D01*
X152465079Y-92458315D01*
X152489813Y-92491181D01*
X152515692Y-92520391D01*
X152538372Y-92541736D01*
X152553512Y-92551002D01*
X152556770Y-92543978D01*
X152552412Y-92528832D01*
X152541433Y-92493859D01*
X152527270Y-92450616D01*
X152514586Y-92406305D01*
X152510705Y-92365175D01*
X152521912Y-92341983D01*
X152548617Y-92334507D01*
X152574337Y-92330493D01*
X152622282Y-92315221D01*
X152679655Y-92291413D01*
X152739244Y-92262129D01*
X152793838Y-92230429D01*
X152824956Y-92208160D01*
X152860376Y-92169988D01*
X152870008Y-92133977D01*
X152853741Y-92100369D01*
X152849351Y-92094928D01*
X152837048Y-92062832D01*
X152835851Y-92013211D01*
X152836961Y-91998084D01*
X152841794Y-91969113D01*
X152853445Y-91946627D01*
X152876728Y-91923394D01*
X152916461Y-91892183D01*
X152956515Y-91859986D01*
X152994781Y-91821733D01*
X153024315Y-91779106D01*
X153049820Y-91725035D01*
X153076004Y-91652448D01*
X153084220Y-91628712D01*
X153118170Y-91547629D01*
X153153507Y-91488740D01*
X153189107Y-91454012D01*
X153204401Y-91450166D01*
X153233459Y-91462119D01*
X153266087Y-91493020D01*
X153299727Y-91539169D01*
X153331825Y-91596865D01*
X153359823Y-91662407D01*
X153381166Y-91732094D01*
X153393547Y-91778054D01*
X153406730Y-91808350D01*
X153425275Y-91828743D01*
X153454302Y-91847300D01*
X153463172Y-91852128D01*
X153517221Y-91872809D01*
X153561597Y-91874363D01*
X153592505Y-91856535D01*
X153604937Y-91846495D01*
X153629142Y-91841476D01*
X153667460Y-91845347D01*
X153725105Y-91858173D01*
X153729392Y-91859090D01*
X153772931Y-91856812D01*
X153833387Y-91836912D01*
X153854861Y-91828284D01*
X153893444Y-91816126D01*
X153924484Y-91814106D01*
X153958922Y-91820824D01*
X154006236Y-91827906D01*
X154058119Y-91824428D01*
X154096950Y-91818005D01*
X154125414Y-91822681D01*
X154136824Y-91843645D01*
X154134780Y-91883677D01*
X154126537Y-91938644D01*
X154257048Y-91947197D01*
X154264329Y-91947688D01*
X154339821Y-91955131D01*
X154393881Y-91965845D01*
X154430761Y-91980650D01*
X154435856Y-91983494D01*
X154472573Y-92001839D01*
X154522437Y-92024627D01*
X154576186Y-92047593D01*
X154644603Y-92071669D01*
X154712552Y-92083280D01*
X154769170Y-92076303D01*
X154818243Y-92050790D01*
X154836367Y-92036498D01*
X154850785Y-92021353D01*
X154864491Y-92000032D01*
X154881258Y-91966627D01*
X154904861Y-91915233D01*
X154913497Y-91895453D01*
X154931371Y-91841807D01*
X154935873Y-91792625D01*
X154926998Y-91738934D01*
X154904741Y-91671758D01*
X154889247Y-91624562D01*
X154879607Y-91581424D01*
X154878843Y-91553815D01*
X154882937Y-91544357D01*
X154905266Y-91517419D01*
X154938286Y-91491480D01*
X154938862Y-91491116D01*
X154971583Y-91467230D01*
X154986675Y-91444589D01*
X154990329Y-91413971D01*
X154994627Y-91381289D01*
X155018446Y-91342606D01*
X155062399Y-91320482D01*
X155074055Y-91317978D01*
X155100535Y-91319402D01*
G37*
%TD*%
%LPC*%
D11*
X145611038Y-107442095D02*
X145563419Y-107346857D01*
X145563419Y-107346857D02*
X145563419Y-107204000D01*
X145563419Y-107204000D02*
X145611038Y-107061143D01*
X145611038Y-107061143D02*
X145706276Y-106965905D01*
X145706276Y-106965905D02*
X145801514Y-106918286D01*
X145801514Y-106918286D02*
X145991990Y-106870667D01*
X145991990Y-106870667D02*
X146134847Y-106870667D01*
X146134847Y-106870667D02*
X146325323Y-106918286D01*
X146325323Y-106918286D02*
X146420561Y-106965905D01*
X146420561Y-106965905D02*
X146515800Y-107061143D01*
X146515800Y-107061143D02*
X146563419Y-107204000D01*
X146563419Y-107204000D02*
X146563419Y-107299238D01*
X146563419Y-107299238D02*
X146515800Y-107442095D01*
X146515800Y-107442095D02*
X146468180Y-107489714D01*
X146468180Y-107489714D02*
X146134847Y-107489714D01*
X146134847Y-107489714D02*
X146134847Y-107299238D01*
X146563419Y-107918286D02*
X145563419Y-107918286D01*
X145563419Y-107918286D02*
X146563419Y-108489714D01*
X146563419Y-108489714D02*
X145563419Y-108489714D01*
X146563419Y-108965905D02*
X145563419Y-108965905D01*
X145563419Y-108965905D02*
X145563419Y-109204000D01*
X145563419Y-109204000D02*
X145611038Y-109346857D01*
X145611038Y-109346857D02*
X145706276Y-109442095D01*
X145706276Y-109442095D02*
X145801514Y-109489714D01*
X145801514Y-109489714D02*
X145991990Y-109537333D01*
X145991990Y-109537333D02*
X146134847Y-109537333D01*
X146134847Y-109537333D02*
X146325323Y-109489714D01*
X146325323Y-109489714D02*
X146420561Y-109442095D01*
X146420561Y-109442095D02*
X146515800Y-109346857D01*
X146515800Y-109346857D02*
X146563419Y-109204000D01*
X146563419Y-109204000D02*
X146563419Y-108965905D01*
X158209438Y-116687695D02*
X158161819Y-116592457D01*
X158161819Y-116592457D02*
X158161819Y-116449600D01*
X158161819Y-116449600D02*
X158209438Y-116306743D01*
X158209438Y-116306743D02*
X158304676Y-116211505D01*
X158304676Y-116211505D02*
X158399914Y-116163886D01*
X158399914Y-116163886D02*
X158590390Y-116116267D01*
X158590390Y-116116267D02*
X158733247Y-116116267D01*
X158733247Y-116116267D02*
X158923723Y-116163886D01*
X158923723Y-116163886D02*
X159018961Y-116211505D01*
X159018961Y-116211505D02*
X159114200Y-116306743D01*
X159114200Y-116306743D02*
X159161819Y-116449600D01*
X159161819Y-116449600D02*
X159161819Y-116544838D01*
X159161819Y-116544838D02*
X159114200Y-116687695D01*
X159114200Y-116687695D02*
X159066580Y-116735314D01*
X159066580Y-116735314D02*
X158733247Y-116735314D01*
X158733247Y-116735314D02*
X158733247Y-116544838D01*
X159161819Y-117163886D02*
X158161819Y-117163886D01*
X158161819Y-117163886D02*
X159161819Y-117735314D01*
X159161819Y-117735314D02*
X158161819Y-117735314D01*
X159161819Y-118211505D02*
X158161819Y-118211505D01*
X158161819Y-118211505D02*
X158161819Y-118449600D01*
X158161819Y-118449600D02*
X158209438Y-118592457D01*
X158209438Y-118592457D02*
X158304676Y-118687695D01*
X158304676Y-118687695D02*
X158399914Y-118735314D01*
X158399914Y-118735314D02*
X158590390Y-118782933D01*
X158590390Y-118782933D02*
X158733247Y-118782933D01*
X158733247Y-118782933D02*
X158923723Y-118735314D01*
X158923723Y-118735314D02*
X159018961Y-118687695D01*
X159018961Y-118687695D02*
X159114200Y-118592457D01*
X159114200Y-118592457D02*
X159161819Y-118449600D01*
X159161819Y-118449600D02*
X159161819Y-118211505D01*
D12*
%TO.C,J1*%
X148670000Y-114644000D03*
X150670000Y-114644000D03*
X152670000Y-114644000D03*
X154670000Y-114644000D03*
X156670000Y-114644000D03*
D13*
X158670000Y-114644000D03*
%TD*%
D14*
%TO.C,J2*%
X163830000Y-105410000D03*
D15*
X161290000Y-105410000D03*
X158750000Y-105410000D03*
X156210000Y-105410000D03*
X153670000Y-105410000D03*
X151130000Y-105410000D03*
X148590000Y-105410000D03*
D16*
X146050000Y-105410000D03*
D15*
X143510000Y-105410000D03*
%TD*%
M02*
