G04 This is an RS-274x file exported by *
G04 gerbv version 2.6A *
G04 More information is available about gerbv at *
G04 http://gerbv.geda-project.org/ *
G04 --End of header info--*
%MOIN*%
%FSLAX34Y34*%
%IPPOS*%
G04 --Define apertures--*
%ADD10C,0.0118*%
%ADD11O,0.0472X0.0689*%
%AMMACRO12*
4,1,4,-0.011811,-0.022638,0.011811,-0.022638,0.011811,0.022638,-0.011811,0.022638,-0.011811,-0.022638,0.000000*
1,1,0.023622,-0.011811,-0.022638*
1,1,0.023622,0.011811,-0.022638*
1,1,0.023622,0.011811,0.022638*
1,1,0.023622,-0.011811,0.022638*
20,1,0.023622,-0.011811,-0.022638,0.011811,-0.022638,0.000000*
20,1,0.023622,0.011811,-0.022638,0.011811,0.022638,0.000000*
20,1,0.023622,0.011811,0.022638,-0.011811,0.022638,0.000000*
20,1,0.023622,-0.011811,0.022638,-0.011811,-0.022638,0.000000*
%
%ADD12MACRO12*%
%AMMACRO13*
4,1,4,-0.016240,-0.036417,0.016240,-0.036417,0.016240,0.036417,-0.016240,0.036417,-0.016240,-0.036417,0.000000*
1,1,0.019685,-0.016240,-0.036417*
1,1,0.019685,0.016240,-0.036417*
1,1,0.019685,0.016240,0.036417*
1,1,0.019685,-0.016240,0.036417*
20,1,0.019685,-0.016240,-0.036417,0.016240,-0.036417,0.000000*
20,1,0.019685,0.016240,-0.036417,0.016240,0.036417,0.000000*
20,1,0.019685,0.016240,0.036417,-0.016240,0.036417,0.000000*
20,1,0.019685,-0.016240,0.036417,-0.016240,-0.036417,0.000000*
%
%ADD13MACRO13*%
%AMMACRO14*
4,1,4,-0.039370,-0.025591,0.039370,-0.025591,0.039370,0.025591,-0.039370,0.025591,-0.039370,-0.025591,0.000000*
1,1,0.019685,-0.039370,-0.025591*
1,1,0.019685,0.039370,-0.025591*
1,1,0.019685,0.039370,0.025591*
1,1,0.019685,-0.039370,0.025591*
20,1,0.019685,-0.039370,-0.025591,0.039370,-0.025591,0.000000*
20,1,0.019685,0.039370,-0.025591,0.039370,0.025591,0.000000*
20,1,0.019685,0.039370,0.025591,-0.039370,0.025591,0.000000*
20,1,0.019685,-0.039370,0.025591,-0.039370,-0.025591,0.000000*
%
%ADD14MACRO14*%
%AMMACRO15*
4,1,4,0.017963,-0.009596,0.017963,0.009596,-0.017963,0.009596,-0.017963,-0.009596,0.017963,-0.009596,0.000000*
1,1,0.019193,0.017963,-0.009596*
1,1,0.019193,0.017963,0.009596*
1,1,0.019193,-0.017963,0.009596*
1,1,0.019193,-0.017963,-0.009596*
20,1,0.019193,0.017963,-0.009596,0.017963,0.009596,0.000000*
20,1,0.019193,0.017963,0.009596,-0.017963,0.009596,0.000000*
20,1,0.019193,-0.017963,0.009596,-0.017963,-0.009596,0.000000*
20,1,0.019193,-0.017963,-0.009596,0.017963,-0.009596,0.000000*
%
%ADD15MACRO15*%
%ADD16R,0.0500X0.2100*%
%AMMACRO17*
4,1,4,0.018701,-0.009843,0.018701,0.009843,-0.018701,0.009843,-0.018701,-0.009843,0.018701,-0.009843,0.000000*
1,1,0.019685,0.018701,-0.009843*
1,1,0.019685,0.018701,0.009843*
1,1,0.019685,-0.018701,0.009843*
1,1,0.019685,-0.018701,-0.009843*
20,1,0.019685,0.018701,-0.009843,0.018701,0.009843,0.000000*
20,1,0.019685,0.018701,0.009843,-0.018701,0.009843,0.000000*
20,1,0.019685,-0.018701,0.009843,-0.018701,-0.009843,0.000000*
20,1,0.019685,-0.018701,-0.009843,0.018701,-0.009843,0.000000*
%
%ADD17MACRO17*%
%AMMACRO18*
4,1,4,0.017717,-0.010335,0.017717,0.010335,-0.017717,0.010335,-0.017717,-0.010335,0.017717,-0.010335,0.000000*
1,1,0.019685,0.017717,-0.010335*
1,1,0.019685,0.017717,0.010335*
1,1,0.019685,-0.017717,0.010335*
1,1,0.019685,-0.017717,-0.010335*
20,1,0.019685,0.017717,-0.010335,0.017717,0.010335,0.000000*
20,1,0.019685,0.017717,0.010335,-0.017717,0.010335,0.000000*
20,1,0.019685,-0.017717,0.010335,-0.017717,-0.010335,0.000000*
20,1,0.019685,-0.017717,-0.010335,0.017717,-0.010335,0.000000*
%
%ADD18MACRO18*%
%AMMACRO19*
4,1,4,-0.017717,0.010335,-0.017717,-0.010335,0.017717,-0.010335,0.017717,0.010335,-0.017717,0.010335,0.000000*
1,1,0.019685,-0.017717,0.010335*
1,1,0.019685,-0.017717,-0.010335*
1,1,0.019685,0.017717,-0.010335*
1,1,0.019685,0.017717,0.010335*
20,1,0.019685,-0.017717,0.010335,-0.017717,-0.010335,0.000000*
20,1,0.019685,-0.017717,-0.010335,0.017717,-0.010335,0.000000*
20,1,0.019685,0.017717,-0.010335,0.017717,0.010335,0.000000*
20,1,0.019685,0.017717,0.010335,-0.017717,0.010335,0.000000*
%
%ADD19MACRO19*%
%ADD20C,0.0669*%
%ADD21O,0.0669X0.0669*%
%ADD22R,0.0669X0.0669*%
%AMMACRO23*
4,1,4,0.014764,0.042323,-0.014764,0.042323,-0.014764,-0.042323,0.014764,-0.042323,0.014764,0.042323,0.000000*
1,1,0.019685,0.014764,0.042323*
1,1,0.019685,-0.014764,0.042323*
1,1,0.019685,-0.014764,-0.042323*
1,1,0.019685,0.014764,-0.042323*
20,1,0.019685,0.014764,0.042323,-0.014764,0.042323,0.000000*
20,1,0.019685,-0.014764,0.042323,-0.014764,-0.042323,0.000000*
20,1,0.019685,-0.014764,-0.042323,0.014764,-0.042323,0.000000*
20,1,0.019685,0.014764,-0.042323,0.014764,0.042323,0.000000*
%
%ADD23MACRO23*%
%AMMACRO24*
4,1,4,-0.018701,0.009843,-0.018701,-0.009843,0.018701,-0.009843,0.018701,0.009843,-0.018701,0.009843,0.000000*
1,1,0.019685,-0.018701,0.009843*
1,1,0.019685,-0.018701,-0.009843*
1,1,0.019685,0.018701,-0.009843*
1,1,0.019685,0.018701,0.009843*
20,1,0.019685,-0.018701,0.009843,-0.018701,-0.009843,0.000000*
20,1,0.019685,-0.018701,-0.009843,0.018701,-0.009843,0.000000*
20,1,0.019685,0.018701,-0.009843,0.018701,0.009843,0.000000*
20,1,0.019685,0.018701,0.009843,-0.018701,0.009843,0.000000*
%
%ADD24MACRO24*%
G04 --Start main section--*
G54D11*
G01X0058531Y-045135D03*
G01X0059319Y-045135D03*
G01X0060106Y-045135D03*
G01X0060894Y-045135D03*
G01X0061681Y-045135D03*
G54D12*
G01X0062469Y-045135D03*
G54D13*
G01X0062395Y-043200D03*
G01X0063605Y-043200D03*
G54D14*
G01X0059713Y-043200D03*
G01X0061287Y-043200D03*
G54D15*
G01X0056000Y-047228D03*
G01X0056000Y-046490D03*
G54D16*
G01X0059000Y-037500D03*
G01X0062000Y-037500D03*
G54D17*
G01X0060500Y-040374D03*
G01X0060500Y-039626D03*
G54D18*
G01X0056000Y-045719D03*
G01X0056000Y-045000D03*
G54D19*
G01X0065000Y-045000D03*
G01X0065000Y-045719D03*
G54D20*
G01X0064500Y-041500D03*
G54D21*
G01X0063500Y-041500D03*
G01X0062500Y-041500D03*
G01X0061500Y-041500D03*
G01X0060500Y-041500D03*
G01X0059500Y-041500D03*
G01X0058500Y-041500D03*
G54D22*
G01X0057500Y-041500D03*
G54D21*
G01X0056500Y-041500D03*
G54D15*
G01X0065000Y-047228D03*
G01X0065000Y-046490D03*
G54D23*
G01X0058551Y-043200D03*
G01X0057449Y-043200D03*
G54D17*
G01X0059500Y-040374D03*
G01X0059500Y-039626D03*
G54D18*
G01X0058500Y-040359D03*
G01X0058500Y-039641D03*
G54D24*
G01X0062500Y-039626D03*
G01X0062500Y-040374D03*
G54D17*
G01X0061500Y-040374D03*
G01X0061500Y-039626D03*
M02*
