M48
; DRILL file {KiCad 7.0.1} date Sat May  6 15:32:39 2023
; FORMAT={-:-/ absolute / inch / decimal}
; #@! TF.CreationDate,2023-05-06T15:32:39-03:00
; #@! TF.GenerationSoftware,Kicad,Pcbnew,7.0.1
; #@! TF.FileFunction,Plated,1,2,PTH
FMAT,2
INCH
; #@! TA.AperFunction,Plated,PTH,ViaDrill
T1C0.0157
; #@! TA.AperFunction,Plated,PTH,ComponentDrill
T2C0.0295
; #@! TA.AperFunction,Plated,PTH,ComponentDrill
T3C0.0394
%
G90
G05
T1
X5.59Y-4.11
X5.696Y-4.22
X5.8Y-3.24
X5.875Y-3.905
X5.95Y-3.908
X6.05Y-3.908
X6.15Y-3.908
X6.2Y-3.608
X6.3Y-3.24
X6.314Y-4.038
X6.423Y-4.32
X6.51Y-4.11
T2
X5.8531Y-4.5135
X5.9319Y-4.5135
X6.0106Y-4.5135
X6.0894Y-4.5135
X6.1681Y-4.5135
X6.2469Y-4.5135
T3
X5.65Y-4.15
X5.75Y-4.15
X5.85Y-4.15
X5.95Y-4.15
X6.05Y-4.15
X6.15Y-4.15
X6.25Y-4.15
X6.35Y-4.15
X6.45Y-4.15
T0
M30
